G75*
%MOIN*%
%OFA0B0*%
%FSLAX25Y25*%
%IPPOS*%
%LPD*%
%AMOC8*
5,1,8,0,0,1.08239X$1,22.5*
%
%ADD10R,0.05131X0.04737*%
%ADD11R,0.05524X0.03950*%
%ADD12R,0.04737X0.05131*%
%ADD13R,0.03950X0.05524*%
%ADD14R,0.04068X0.03280*%
%ADD15R,0.03280X0.04068*%
%ADD16R,0.05918X0.05918*%
%ADD17R,0.03556X0.03556*%
%ADD18R,0.05721X0.01981*%
%ADD19R,0.12611X0.10249*%
%ADD20C,0.03300*%
%ADD21C,0.13800*%
%ADD22C,0.08200*%
%ADD23R,0.03300X0.05800*%
%ADD24R,0.05524X0.02965*%
%ADD25R,0.07887X0.06312*%
%ADD26R,0.06312X0.08280*%
%ADD27R,0.03950X0.06706*%
%ADD28R,0.05524X0.03162*%
%ADD29R,0.05131X0.01587*%
%ADD30R,0.04737X0.01587*%
%ADD31C,0.04737*%
%ADD32C,0.05000*%
%ADD33C,0.06706*%
D10*
X0065995Y0061750D03*
X0065995Y0067750D03*
X0065995Y0073750D03*
X0072688Y0073750D03*
X0072688Y0067750D03*
X0072688Y0061750D03*
X0124995Y0119750D03*
X0131688Y0119750D03*
X0131688Y0137750D03*
X0124995Y0137750D03*
X0149995Y0203250D03*
X0156688Y0203250D03*
X0156688Y0210750D03*
X0149995Y0210750D03*
X0197995Y0213750D03*
X0197995Y0219750D03*
X0197995Y0225750D03*
X0204688Y0225750D03*
X0204688Y0219750D03*
X0204688Y0213750D03*
X0256995Y0271750D03*
X0263688Y0271750D03*
X0263688Y0289750D03*
X0256995Y0289750D03*
X0281995Y0210750D03*
X0288688Y0210750D03*
X0288688Y0203250D03*
X0281995Y0203250D03*
X0263688Y0137750D03*
X0256995Y0137750D03*
X0256995Y0119750D03*
X0263688Y0119750D03*
X0281995Y0058750D03*
X0288688Y0058750D03*
X0288688Y0051250D03*
X0281995Y0051250D03*
X0204688Y0061750D03*
X0204688Y0067750D03*
X0204688Y0073750D03*
X0197995Y0073750D03*
X0197995Y0067750D03*
X0197995Y0061750D03*
X0156688Y0058750D03*
X0149995Y0058750D03*
X0149995Y0051250D03*
X0156688Y0051250D03*
X0072688Y0213750D03*
X0072688Y0219750D03*
X0072688Y0225750D03*
X0065995Y0225750D03*
X0065995Y0219750D03*
X0065995Y0213750D03*
X0124995Y0271750D03*
X0131688Y0271750D03*
X0131688Y0289750D03*
X0124995Y0289750D03*
D11*
X0125842Y0264293D03*
X0125842Y0257207D03*
X0110842Y0249293D03*
X0110842Y0242207D03*
X0113842Y0234293D03*
X0113842Y0227207D03*
X0121342Y0227207D03*
X0121342Y0234293D03*
X0128842Y0234293D03*
X0128842Y0227207D03*
X0128342Y0219293D03*
X0128342Y0212207D03*
X0135842Y0212207D03*
X0135842Y0219293D03*
X0120842Y0219293D03*
X0120842Y0212207D03*
X0085842Y0242207D03*
X0085842Y0249293D03*
X0217842Y0249293D03*
X0217842Y0242207D03*
X0242842Y0242207D03*
X0242842Y0249293D03*
X0245842Y0234293D03*
X0245842Y0227207D03*
X0253342Y0227207D03*
X0253342Y0234293D03*
X0260842Y0234293D03*
X0260842Y0227207D03*
X0260342Y0219293D03*
X0260342Y0212207D03*
X0267842Y0212207D03*
X0267842Y0219293D03*
X0252842Y0219293D03*
X0252842Y0212207D03*
X0257842Y0257207D03*
X0257842Y0264293D03*
X0257842Y0112293D03*
X0257842Y0105207D03*
X0242842Y0097293D03*
X0242842Y0090207D03*
X0245842Y0082293D03*
X0245842Y0075207D03*
X0253342Y0075207D03*
X0253342Y0082293D03*
X0260842Y0082293D03*
X0260842Y0075207D03*
X0260342Y0067293D03*
X0260342Y0060207D03*
X0267842Y0060207D03*
X0267842Y0067293D03*
X0252842Y0067293D03*
X0252842Y0060207D03*
X0217842Y0090207D03*
X0217842Y0097293D03*
X0135842Y0067293D03*
X0135842Y0060207D03*
X0128342Y0060207D03*
X0128342Y0067293D03*
X0120842Y0067293D03*
X0120842Y0060207D03*
X0121342Y0075207D03*
X0121342Y0082293D03*
X0128842Y0082293D03*
X0128842Y0075207D03*
X0113842Y0075207D03*
X0113842Y0082293D03*
X0110842Y0090207D03*
X0110842Y0097293D03*
X0125842Y0105207D03*
X0125842Y0112293D03*
X0085842Y0097293D03*
X0085842Y0090207D03*
D12*
X0123342Y0090404D03*
X0123342Y0097096D03*
X0073342Y0054596D03*
X0073342Y0047904D03*
X0063342Y0047904D03*
X0063342Y0054596D03*
X0085842Y0047096D03*
X0085842Y0040404D03*
X0195342Y0047904D03*
X0195342Y0054596D03*
X0205342Y0054596D03*
X0205342Y0047904D03*
X0217842Y0047096D03*
X0217842Y0040404D03*
X0255342Y0090404D03*
X0255342Y0097096D03*
X0217842Y0192404D03*
X0217842Y0199096D03*
X0205342Y0199904D03*
X0205342Y0206596D03*
X0195342Y0206596D03*
X0195342Y0199904D03*
X0255342Y0242404D03*
X0255342Y0249096D03*
X0123342Y0249096D03*
X0123342Y0242404D03*
X0085842Y0199096D03*
X0085842Y0192404D03*
X0073342Y0199904D03*
X0073342Y0206596D03*
X0063342Y0206596D03*
X0063342Y0199904D03*
D13*
X0124798Y0145250D03*
X0131885Y0145250D03*
X0144798Y0145250D03*
X0151885Y0145250D03*
X0256798Y0145250D03*
X0263885Y0145250D03*
X0276798Y0145250D03*
X0283885Y0145250D03*
X0283885Y0297250D03*
X0276798Y0297250D03*
X0263885Y0297250D03*
X0256798Y0297250D03*
X0151885Y0297250D03*
X0144798Y0297250D03*
X0131885Y0297250D03*
X0124798Y0297250D03*
D14*
X0103342Y0235278D03*
X0103342Y0226222D03*
X0093342Y0226222D03*
X0093342Y0235278D03*
X0225342Y0235278D03*
X0225342Y0226222D03*
X0235342Y0226222D03*
X0235342Y0235278D03*
X0235342Y0083278D03*
X0235342Y0074222D03*
X0225342Y0074222D03*
X0225342Y0083278D03*
X0103342Y0083278D03*
X0103342Y0074222D03*
X0093342Y0074222D03*
X0093342Y0083278D03*
D15*
X0098814Y0063750D03*
X0107869Y0063750D03*
X0230814Y0063750D03*
X0239869Y0063750D03*
X0239869Y0215750D03*
X0230814Y0215750D03*
X0107869Y0215750D03*
X0098814Y0215750D03*
D16*
X0098342Y0239844D03*
X0098342Y0251656D03*
X0230342Y0251656D03*
X0230342Y0239844D03*
X0230342Y0099656D03*
X0230342Y0087844D03*
X0098342Y0087844D03*
X0098342Y0099656D03*
D17*
X0124700Y0128750D03*
X0131984Y0126191D03*
X0131984Y0131309D03*
X0256700Y0128750D03*
X0263984Y0126191D03*
X0263984Y0131309D03*
X0263984Y0278191D03*
X0263984Y0283309D03*
X0256700Y0280750D03*
X0131984Y0278191D03*
X0131984Y0283309D03*
X0124700Y0280750D03*
D18*
X0139582Y0277888D03*
X0139582Y0275919D03*
X0139582Y0273951D03*
X0139582Y0271982D03*
X0139582Y0270014D03*
X0139582Y0268045D03*
X0139582Y0266077D03*
X0139582Y0264108D03*
X0139582Y0262140D03*
X0139582Y0260171D03*
X0139582Y0258203D03*
X0139582Y0256234D03*
X0139582Y0254266D03*
X0139582Y0252297D03*
X0139582Y0250329D03*
X0139582Y0248360D03*
X0139582Y0246392D03*
X0139582Y0244423D03*
X0139582Y0242455D03*
X0139582Y0240486D03*
X0139582Y0238518D03*
X0139582Y0236549D03*
X0139582Y0234581D03*
X0139582Y0232612D03*
X0139582Y0125888D03*
X0139582Y0123919D03*
X0139582Y0121951D03*
X0139582Y0119982D03*
X0139582Y0118014D03*
X0139582Y0116045D03*
X0139582Y0114077D03*
X0139582Y0112108D03*
X0139582Y0110140D03*
X0139582Y0108171D03*
X0139582Y0106203D03*
X0139582Y0104234D03*
X0139582Y0102266D03*
X0139582Y0100297D03*
X0139582Y0098329D03*
X0139582Y0096360D03*
X0139582Y0094392D03*
X0139582Y0092423D03*
X0139582Y0090455D03*
X0139582Y0088486D03*
X0139582Y0086518D03*
X0139582Y0084549D03*
X0139582Y0082581D03*
X0139582Y0080612D03*
X0271582Y0080612D03*
X0271582Y0082581D03*
X0271582Y0084549D03*
X0271582Y0086518D03*
X0271582Y0088486D03*
X0271582Y0090455D03*
X0271582Y0092423D03*
X0271582Y0094392D03*
X0271582Y0096360D03*
X0271582Y0098329D03*
X0271582Y0100297D03*
X0271582Y0102266D03*
X0271582Y0104234D03*
X0271582Y0106203D03*
X0271582Y0108171D03*
X0271582Y0110140D03*
X0271582Y0112108D03*
X0271582Y0114077D03*
X0271582Y0116045D03*
X0271582Y0118014D03*
X0271582Y0119982D03*
X0271582Y0121951D03*
X0271582Y0123919D03*
X0271582Y0125888D03*
X0271582Y0232612D03*
X0271582Y0234581D03*
X0271582Y0236549D03*
X0271582Y0238518D03*
X0271582Y0240486D03*
X0271582Y0242455D03*
X0271582Y0244423D03*
X0271582Y0246392D03*
X0271582Y0248360D03*
X0271582Y0250329D03*
X0271582Y0252297D03*
X0271582Y0254266D03*
X0271582Y0256234D03*
X0271582Y0258203D03*
X0271582Y0260171D03*
X0271582Y0262140D03*
X0271582Y0264108D03*
X0271582Y0266077D03*
X0271582Y0268045D03*
X0271582Y0270014D03*
X0271582Y0271982D03*
X0271582Y0273951D03*
X0271582Y0275919D03*
X0271582Y0277888D03*
D19*
X0279948Y0287533D03*
X0279948Y0222967D03*
X0279948Y0135533D03*
X0279948Y0070967D03*
X0147948Y0070967D03*
X0147948Y0135533D03*
X0147948Y0222967D03*
X0147948Y0287533D03*
D20*
X0167842Y0328250D03*
X0035842Y0328250D03*
X0160842Y0183250D03*
X0167842Y0176250D03*
X0292842Y0183250D03*
X0292842Y0031250D03*
X0160842Y0031250D03*
X0035842Y0176250D03*
D21*
X0043342Y0038750D03*
X0043342Y0168750D03*
X0043342Y0190750D03*
X0043342Y0320750D03*
X0175342Y0320750D03*
X0175342Y0190750D03*
X0175342Y0168750D03*
X0175342Y0038750D03*
D22*
X0170342Y0053750D03*
X0170342Y0063750D03*
X0170342Y0073750D03*
X0170342Y0083750D03*
X0170342Y0093750D03*
X0170342Y0103750D03*
X0170342Y0113750D03*
X0170342Y0123750D03*
X0170342Y0133750D03*
X0170342Y0143750D03*
X0170342Y0153750D03*
X0170342Y0205750D03*
X0170342Y0215750D03*
X0170342Y0225750D03*
X0170342Y0235750D03*
X0170342Y0245750D03*
X0170342Y0255750D03*
X0170342Y0265750D03*
X0170342Y0275750D03*
X0170342Y0285750D03*
X0170342Y0295750D03*
X0170342Y0305750D03*
X0038342Y0305750D03*
X0038342Y0295750D03*
X0038342Y0285750D03*
X0038342Y0275750D03*
X0038342Y0265750D03*
X0038342Y0255750D03*
X0038342Y0245750D03*
X0038342Y0235750D03*
X0038342Y0225750D03*
X0038342Y0215750D03*
X0038342Y0205750D03*
X0038342Y0153750D03*
X0038342Y0143750D03*
X0038342Y0133750D03*
X0038342Y0123750D03*
X0038342Y0113750D03*
X0038342Y0103750D03*
X0038342Y0093750D03*
X0038342Y0083750D03*
X0038342Y0073750D03*
X0038342Y0063750D03*
X0038342Y0053750D03*
D23*
X0151742Y0037250D03*
X0154942Y0037250D03*
X0283742Y0037250D03*
X0286942Y0037250D03*
X0286942Y0189250D03*
X0283742Y0189250D03*
X0154942Y0189250D03*
X0151742Y0189250D03*
D24*
X0195223Y0190750D03*
X0195223Y0187010D03*
X0195223Y0194490D03*
X0205460Y0194490D03*
X0205460Y0187010D03*
X0073460Y0187010D03*
X0073460Y0194490D03*
X0063223Y0194490D03*
X0063223Y0190750D03*
X0063223Y0187010D03*
X0063223Y0042490D03*
X0063223Y0038750D03*
X0063223Y0035010D03*
X0073460Y0035010D03*
X0073460Y0042490D03*
X0195223Y0042490D03*
X0195223Y0038750D03*
X0195223Y0035010D03*
X0205460Y0035010D03*
X0205460Y0042490D03*
D25*
X0219830Y0110325D03*
X0242271Y0110325D03*
X0110271Y0110325D03*
X0087830Y0110325D03*
X0087830Y0262325D03*
X0110271Y0262325D03*
X0219830Y0262325D03*
X0242271Y0262325D03*
D26*
X0248570Y0314096D03*
X0196798Y0318033D03*
X0116570Y0314096D03*
X0064798Y0318033D03*
X0064798Y0166033D03*
X0116570Y0162096D03*
X0196798Y0166033D03*
X0248570Y0162096D03*
D27*
X0245460Y0150876D03*
X0241129Y0150876D03*
X0236798Y0151663D03*
X0232468Y0150876D03*
X0228137Y0151663D03*
X0223806Y0150876D03*
X0219476Y0149301D03*
X0215145Y0150876D03*
X0113460Y0150876D03*
X0109129Y0150876D03*
X0104798Y0151663D03*
X0100468Y0150876D03*
X0096137Y0151663D03*
X0091806Y0150876D03*
X0087476Y0149301D03*
X0083145Y0150876D03*
X0087476Y0301301D03*
X0083145Y0302876D03*
X0091806Y0302876D03*
X0096137Y0303663D03*
X0100468Y0302876D03*
X0104798Y0303663D03*
X0109129Y0302876D03*
X0113460Y0302876D03*
X0215145Y0302876D03*
X0219476Y0301301D03*
X0223806Y0302876D03*
X0228137Y0303663D03*
X0232468Y0302876D03*
X0236798Y0303663D03*
X0241129Y0302876D03*
X0245460Y0302876D03*
D28*
X0256365Y0202750D03*
X0256365Y0197750D03*
X0256365Y0192750D03*
X0256365Y0187750D03*
X0234318Y0187750D03*
X0234318Y0192750D03*
X0234318Y0197750D03*
X0234318Y0202750D03*
X0124365Y0202750D03*
X0124365Y0197750D03*
X0124365Y0192750D03*
X0124365Y0187750D03*
X0102318Y0187750D03*
X0102318Y0192750D03*
X0102318Y0197750D03*
X0102318Y0202750D03*
X0102318Y0050750D03*
X0102318Y0045750D03*
X0102318Y0040750D03*
X0102318Y0035750D03*
X0124365Y0035750D03*
X0124365Y0040750D03*
X0124365Y0045750D03*
X0124365Y0050750D03*
X0234318Y0050750D03*
X0234318Y0045750D03*
X0234318Y0040750D03*
X0234318Y0035750D03*
X0256365Y0035750D03*
X0256365Y0040750D03*
X0256365Y0045750D03*
X0256365Y0050750D03*
D29*
X0203188Y0080663D03*
X0071188Y0080663D03*
X0071188Y0232663D03*
X0203188Y0232663D03*
D30*
X0203385Y0234238D03*
X0203385Y0235813D03*
X0203385Y0237388D03*
X0203385Y0238963D03*
X0203385Y0240537D03*
X0203385Y0242112D03*
X0203385Y0243687D03*
X0203385Y0245262D03*
X0203385Y0246837D03*
X0196298Y0246837D03*
X0196298Y0245262D03*
X0196298Y0243687D03*
X0196298Y0242112D03*
X0196298Y0240537D03*
X0196298Y0238963D03*
X0196298Y0237388D03*
X0196298Y0235813D03*
X0196298Y0234238D03*
X0196298Y0232663D03*
X0071385Y0234238D03*
X0071385Y0235813D03*
X0071385Y0237388D03*
X0071385Y0238963D03*
X0071385Y0240537D03*
X0071385Y0242112D03*
X0071385Y0243687D03*
X0071385Y0245262D03*
X0071385Y0246837D03*
X0064298Y0246837D03*
X0064298Y0245262D03*
X0064298Y0243687D03*
X0064298Y0242112D03*
X0064298Y0240537D03*
X0064298Y0238963D03*
X0064298Y0237388D03*
X0064298Y0235813D03*
X0064298Y0234238D03*
X0064298Y0232663D03*
X0064298Y0094837D03*
X0064298Y0093262D03*
X0064298Y0091687D03*
X0064298Y0090112D03*
X0064298Y0088537D03*
X0064298Y0086963D03*
X0064298Y0085388D03*
X0064298Y0083813D03*
X0064298Y0082238D03*
X0064298Y0080663D03*
X0071385Y0082238D03*
X0071385Y0083813D03*
X0071385Y0085388D03*
X0071385Y0086963D03*
X0071385Y0088537D03*
X0071385Y0090112D03*
X0071385Y0091687D03*
X0071385Y0093262D03*
X0071385Y0094837D03*
X0196298Y0094837D03*
X0196298Y0093262D03*
X0196298Y0091687D03*
X0196298Y0090112D03*
X0196298Y0088537D03*
X0196298Y0086963D03*
X0196298Y0085388D03*
X0196298Y0083813D03*
X0196298Y0082238D03*
X0196298Y0080663D03*
X0203385Y0082238D03*
X0203385Y0083813D03*
X0203385Y0085388D03*
X0203385Y0086963D03*
X0203385Y0088537D03*
X0203385Y0090112D03*
X0203385Y0091687D03*
X0203385Y0093262D03*
X0203385Y0094837D03*
D31*
X0268342Y0339000D03*
X0060342Y0339000D03*
D32*
X0056777Y0020500D02*
X0056779Y0020619D01*
X0056785Y0020738D01*
X0056795Y0020857D01*
X0056809Y0020975D01*
X0056827Y0021093D01*
X0056848Y0021210D01*
X0056874Y0021326D01*
X0056904Y0021442D01*
X0056937Y0021556D01*
X0056974Y0021669D01*
X0057015Y0021781D01*
X0057060Y0021892D01*
X0057108Y0022001D01*
X0057160Y0022108D01*
X0057216Y0022213D01*
X0057275Y0022317D01*
X0057337Y0022418D01*
X0057403Y0022518D01*
X0057472Y0022615D01*
X0057544Y0022709D01*
X0057620Y0022802D01*
X0057698Y0022891D01*
X0057779Y0022978D01*
X0057864Y0023063D01*
X0057951Y0023144D01*
X0058040Y0023222D01*
X0058133Y0023298D01*
X0058227Y0023370D01*
X0058324Y0023439D01*
X0058424Y0023505D01*
X0058525Y0023567D01*
X0058629Y0023626D01*
X0058734Y0023682D01*
X0058841Y0023734D01*
X0058950Y0023782D01*
X0059061Y0023827D01*
X0059173Y0023868D01*
X0059286Y0023905D01*
X0059400Y0023938D01*
X0059516Y0023968D01*
X0059632Y0023994D01*
X0059749Y0024015D01*
X0059867Y0024033D01*
X0059985Y0024047D01*
X0060104Y0024057D01*
X0060223Y0024063D01*
X0060342Y0024065D01*
X0060461Y0024063D01*
X0060580Y0024057D01*
X0060699Y0024047D01*
X0060817Y0024033D01*
X0060935Y0024015D01*
X0061052Y0023994D01*
X0061168Y0023968D01*
X0061284Y0023938D01*
X0061398Y0023905D01*
X0061511Y0023868D01*
X0061623Y0023827D01*
X0061734Y0023782D01*
X0061843Y0023734D01*
X0061950Y0023682D01*
X0062055Y0023626D01*
X0062159Y0023567D01*
X0062260Y0023505D01*
X0062360Y0023439D01*
X0062457Y0023370D01*
X0062551Y0023298D01*
X0062644Y0023222D01*
X0062733Y0023144D01*
X0062820Y0023063D01*
X0062905Y0022978D01*
X0062986Y0022891D01*
X0063064Y0022802D01*
X0063140Y0022709D01*
X0063212Y0022615D01*
X0063281Y0022518D01*
X0063347Y0022418D01*
X0063409Y0022317D01*
X0063468Y0022213D01*
X0063524Y0022108D01*
X0063576Y0022001D01*
X0063624Y0021892D01*
X0063669Y0021781D01*
X0063710Y0021669D01*
X0063747Y0021556D01*
X0063780Y0021442D01*
X0063810Y0021326D01*
X0063836Y0021210D01*
X0063857Y0021093D01*
X0063875Y0020975D01*
X0063889Y0020857D01*
X0063899Y0020738D01*
X0063905Y0020619D01*
X0063907Y0020500D01*
X0063905Y0020381D01*
X0063899Y0020262D01*
X0063889Y0020143D01*
X0063875Y0020025D01*
X0063857Y0019907D01*
X0063836Y0019790D01*
X0063810Y0019674D01*
X0063780Y0019558D01*
X0063747Y0019444D01*
X0063710Y0019331D01*
X0063669Y0019219D01*
X0063624Y0019108D01*
X0063576Y0018999D01*
X0063524Y0018892D01*
X0063468Y0018787D01*
X0063409Y0018683D01*
X0063347Y0018582D01*
X0063281Y0018482D01*
X0063212Y0018385D01*
X0063140Y0018291D01*
X0063064Y0018198D01*
X0062986Y0018109D01*
X0062905Y0018022D01*
X0062820Y0017937D01*
X0062733Y0017856D01*
X0062644Y0017778D01*
X0062551Y0017702D01*
X0062457Y0017630D01*
X0062360Y0017561D01*
X0062260Y0017495D01*
X0062159Y0017433D01*
X0062055Y0017374D01*
X0061950Y0017318D01*
X0061843Y0017266D01*
X0061734Y0017218D01*
X0061623Y0017173D01*
X0061511Y0017132D01*
X0061398Y0017095D01*
X0061284Y0017062D01*
X0061168Y0017032D01*
X0061052Y0017006D01*
X0060935Y0016985D01*
X0060817Y0016967D01*
X0060699Y0016953D01*
X0060580Y0016943D01*
X0060461Y0016937D01*
X0060342Y0016935D01*
X0060223Y0016937D01*
X0060104Y0016943D01*
X0059985Y0016953D01*
X0059867Y0016967D01*
X0059749Y0016985D01*
X0059632Y0017006D01*
X0059516Y0017032D01*
X0059400Y0017062D01*
X0059286Y0017095D01*
X0059173Y0017132D01*
X0059061Y0017173D01*
X0058950Y0017218D01*
X0058841Y0017266D01*
X0058734Y0017318D01*
X0058629Y0017374D01*
X0058525Y0017433D01*
X0058424Y0017495D01*
X0058324Y0017561D01*
X0058227Y0017630D01*
X0058133Y0017702D01*
X0058040Y0017778D01*
X0057951Y0017856D01*
X0057864Y0017937D01*
X0057779Y0018022D01*
X0057698Y0018109D01*
X0057620Y0018198D01*
X0057544Y0018291D01*
X0057472Y0018385D01*
X0057403Y0018482D01*
X0057337Y0018582D01*
X0057275Y0018683D01*
X0057216Y0018787D01*
X0057160Y0018892D01*
X0057108Y0018999D01*
X0057060Y0019108D01*
X0057015Y0019219D01*
X0056974Y0019331D01*
X0056937Y0019444D01*
X0056904Y0019558D01*
X0056874Y0019674D01*
X0056848Y0019790D01*
X0056827Y0019907D01*
X0056809Y0020025D01*
X0056795Y0020143D01*
X0056785Y0020262D01*
X0056779Y0020381D01*
X0056777Y0020500D01*
D33*
X0060342Y0020500D03*
M02*
