G75*
%MOIN*%
%OFA0B0*%
%FSLAX25Y25*%
%IPPOS*%
%LPD*%
%AMOC8*
5,1,8,0,0,1.08239X$1,22.5*
%
%ADD10R,0.04331X0.03937*%
%ADD11R,0.04724X0.03150*%
%ADD12R,0.03937X0.04331*%
%ADD13R,0.03150X0.04724*%
%ADD14R,0.03268X0.02480*%
%ADD15R,0.02480X0.03268*%
%ADD16R,0.05118X0.05118*%
%ADD17R,0.02756X0.02756*%
%ADD18R,0.04921X0.01181*%
%ADD19R,0.11811X0.09449*%
%ADD20R,0.04724X0.02165*%
%ADD21R,0.07087X0.05512*%
%ADD22R,0.05512X0.07480*%
%ADD23R,0.03150X0.05906*%
%ADD24R,0.04724X0.02362*%
%ADD25R,0.03150X0.00787*%
%ADD26R,0.03543X0.00787*%
D10*
X0065995Y0061750D03*
X0065995Y0067750D03*
X0065995Y0073750D03*
X0072688Y0073750D03*
X0072688Y0067750D03*
X0072688Y0061750D03*
X0124995Y0119750D03*
X0131688Y0119750D03*
X0131688Y0137750D03*
X0124995Y0137750D03*
X0149995Y0203250D03*
X0156688Y0203250D03*
X0156688Y0210750D03*
X0149995Y0210750D03*
X0197995Y0213750D03*
X0197995Y0219750D03*
X0197995Y0225750D03*
X0204688Y0225750D03*
X0204688Y0219750D03*
X0204688Y0213750D03*
X0256995Y0271750D03*
X0263688Y0271750D03*
X0263688Y0289750D03*
X0256995Y0289750D03*
X0281995Y0210750D03*
X0288688Y0210750D03*
X0288688Y0203250D03*
X0281995Y0203250D03*
X0263688Y0137750D03*
X0256995Y0137750D03*
X0256995Y0119750D03*
X0263688Y0119750D03*
X0281995Y0058750D03*
X0288688Y0058750D03*
X0288688Y0051250D03*
X0281995Y0051250D03*
X0204688Y0061750D03*
X0204688Y0067750D03*
X0204688Y0073750D03*
X0197995Y0073750D03*
X0197995Y0067750D03*
X0197995Y0061750D03*
X0156688Y0058750D03*
X0149995Y0058750D03*
X0149995Y0051250D03*
X0156688Y0051250D03*
X0072688Y0213750D03*
X0072688Y0219750D03*
X0072688Y0225750D03*
X0065995Y0225750D03*
X0065995Y0219750D03*
X0065995Y0213750D03*
X0124995Y0271750D03*
X0131688Y0271750D03*
X0131688Y0289750D03*
X0124995Y0289750D03*
D11*
X0125842Y0264293D03*
X0125842Y0257207D03*
X0110842Y0249293D03*
X0110842Y0242207D03*
X0113842Y0234293D03*
X0113842Y0227207D03*
X0121342Y0227207D03*
X0121342Y0234293D03*
X0128842Y0234293D03*
X0128842Y0227207D03*
X0128342Y0219293D03*
X0128342Y0212207D03*
X0135842Y0212207D03*
X0135842Y0219293D03*
X0120842Y0219293D03*
X0120842Y0212207D03*
X0085842Y0242207D03*
X0085842Y0249293D03*
X0217842Y0249293D03*
X0217842Y0242207D03*
X0242842Y0242207D03*
X0242842Y0249293D03*
X0245842Y0234293D03*
X0245842Y0227207D03*
X0253342Y0227207D03*
X0253342Y0234293D03*
X0260842Y0234293D03*
X0260842Y0227207D03*
X0260342Y0219293D03*
X0260342Y0212207D03*
X0267842Y0212207D03*
X0267842Y0219293D03*
X0252842Y0219293D03*
X0252842Y0212207D03*
X0257842Y0257207D03*
X0257842Y0264293D03*
X0257842Y0112293D03*
X0257842Y0105207D03*
X0242842Y0097293D03*
X0242842Y0090207D03*
X0245842Y0082293D03*
X0245842Y0075207D03*
X0253342Y0075207D03*
X0253342Y0082293D03*
X0260842Y0082293D03*
X0260842Y0075207D03*
X0260342Y0067293D03*
X0260342Y0060207D03*
X0267842Y0060207D03*
X0267842Y0067293D03*
X0252842Y0067293D03*
X0252842Y0060207D03*
X0217842Y0090207D03*
X0217842Y0097293D03*
X0135842Y0067293D03*
X0135842Y0060207D03*
X0128342Y0060207D03*
X0128342Y0067293D03*
X0120842Y0067293D03*
X0120842Y0060207D03*
X0121342Y0075207D03*
X0121342Y0082293D03*
X0128842Y0082293D03*
X0128842Y0075207D03*
X0113842Y0075207D03*
X0113842Y0082293D03*
X0110842Y0090207D03*
X0110842Y0097293D03*
X0125842Y0105207D03*
X0125842Y0112293D03*
X0085842Y0097293D03*
X0085842Y0090207D03*
D12*
X0123342Y0090404D03*
X0123342Y0097096D03*
X0073342Y0054596D03*
X0073342Y0047904D03*
X0063342Y0047904D03*
X0063342Y0054596D03*
X0085842Y0047096D03*
X0085842Y0040404D03*
X0195342Y0047904D03*
X0195342Y0054596D03*
X0205342Y0054596D03*
X0205342Y0047904D03*
X0217842Y0047096D03*
X0217842Y0040404D03*
X0255342Y0090404D03*
X0255342Y0097096D03*
X0217842Y0192404D03*
X0217842Y0199096D03*
X0205342Y0199904D03*
X0205342Y0206596D03*
X0195342Y0206596D03*
X0195342Y0199904D03*
X0255342Y0242404D03*
X0255342Y0249096D03*
X0123342Y0249096D03*
X0123342Y0242404D03*
X0085842Y0199096D03*
X0085842Y0192404D03*
X0073342Y0199904D03*
X0073342Y0206596D03*
X0063342Y0206596D03*
X0063342Y0199904D03*
D13*
X0124798Y0145250D03*
X0131885Y0145250D03*
X0144798Y0145250D03*
X0151885Y0145250D03*
X0256798Y0145250D03*
X0263885Y0145250D03*
X0276798Y0145250D03*
X0283885Y0145250D03*
X0283885Y0297250D03*
X0276798Y0297250D03*
X0263885Y0297250D03*
X0256798Y0297250D03*
X0151885Y0297250D03*
X0144798Y0297250D03*
X0131885Y0297250D03*
X0124798Y0297250D03*
D14*
X0103342Y0235278D03*
X0103342Y0226222D03*
X0093342Y0226222D03*
X0093342Y0235278D03*
X0225342Y0235278D03*
X0225342Y0226222D03*
X0235342Y0226222D03*
X0235342Y0235278D03*
X0235342Y0083278D03*
X0235342Y0074222D03*
X0225342Y0074222D03*
X0225342Y0083278D03*
X0103342Y0083278D03*
X0103342Y0074222D03*
X0093342Y0074222D03*
X0093342Y0083278D03*
D15*
X0098814Y0063750D03*
X0107869Y0063750D03*
X0230814Y0063750D03*
X0239869Y0063750D03*
X0239869Y0215750D03*
X0230814Y0215750D03*
X0107869Y0215750D03*
X0098814Y0215750D03*
D16*
X0098342Y0239844D03*
X0098342Y0251656D03*
X0230342Y0251656D03*
X0230342Y0239844D03*
X0230342Y0099656D03*
X0230342Y0087844D03*
X0098342Y0087844D03*
X0098342Y0099656D03*
D17*
X0124700Y0128750D03*
X0131984Y0126191D03*
X0131984Y0131309D03*
X0256700Y0128750D03*
X0263984Y0126191D03*
X0263984Y0131309D03*
X0263984Y0278191D03*
X0263984Y0283309D03*
X0256700Y0280750D03*
X0131984Y0278191D03*
X0131984Y0283309D03*
X0124700Y0280750D03*
D18*
X0139582Y0277888D03*
X0139582Y0275919D03*
X0139582Y0273951D03*
X0139582Y0271982D03*
X0139582Y0270014D03*
X0139582Y0268045D03*
X0139582Y0266077D03*
X0139582Y0264108D03*
X0139582Y0262140D03*
X0139582Y0260171D03*
X0139582Y0258203D03*
X0139582Y0256234D03*
X0139582Y0254266D03*
X0139582Y0252297D03*
X0139582Y0250329D03*
X0139582Y0248360D03*
X0139582Y0246392D03*
X0139582Y0244423D03*
X0139582Y0242455D03*
X0139582Y0240486D03*
X0139582Y0238518D03*
X0139582Y0236549D03*
X0139582Y0234581D03*
X0139582Y0232612D03*
X0139582Y0125888D03*
X0139582Y0123919D03*
X0139582Y0121951D03*
X0139582Y0119982D03*
X0139582Y0118014D03*
X0139582Y0116045D03*
X0139582Y0114077D03*
X0139582Y0112108D03*
X0139582Y0110140D03*
X0139582Y0108171D03*
X0139582Y0106203D03*
X0139582Y0104234D03*
X0139582Y0102266D03*
X0139582Y0100297D03*
X0139582Y0098329D03*
X0139582Y0096360D03*
X0139582Y0094392D03*
X0139582Y0092423D03*
X0139582Y0090455D03*
X0139582Y0088486D03*
X0139582Y0086518D03*
X0139582Y0084549D03*
X0139582Y0082581D03*
X0139582Y0080612D03*
X0271582Y0080612D03*
X0271582Y0082581D03*
X0271582Y0084549D03*
X0271582Y0086518D03*
X0271582Y0088486D03*
X0271582Y0090455D03*
X0271582Y0092423D03*
X0271582Y0094392D03*
X0271582Y0096360D03*
X0271582Y0098329D03*
X0271582Y0100297D03*
X0271582Y0102266D03*
X0271582Y0104234D03*
X0271582Y0106203D03*
X0271582Y0108171D03*
X0271582Y0110140D03*
X0271582Y0112108D03*
X0271582Y0114077D03*
X0271582Y0116045D03*
X0271582Y0118014D03*
X0271582Y0119982D03*
X0271582Y0121951D03*
X0271582Y0123919D03*
X0271582Y0125888D03*
X0271582Y0232612D03*
X0271582Y0234581D03*
X0271582Y0236549D03*
X0271582Y0238518D03*
X0271582Y0240486D03*
X0271582Y0242455D03*
X0271582Y0244423D03*
X0271582Y0246392D03*
X0271582Y0248360D03*
X0271582Y0250329D03*
X0271582Y0252297D03*
X0271582Y0254266D03*
X0271582Y0256234D03*
X0271582Y0258203D03*
X0271582Y0260171D03*
X0271582Y0262140D03*
X0271582Y0264108D03*
X0271582Y0266077D03*
X0271582Y0268045D03*
X0271582Y0270014D03*
X0271582Y0271982D03*
X0271582Y0273951D03*
X0271582Y0275919D03*
X0271582Y0277888D03*
D19*
X0279948Y0287533D03*
X0279948Y0222967D03*
X0279948Y0135533D03*
X0279948Y0070967D03*
X0147948Y0070967D03*
X0147948Y0135533D03*
X0147948Y0222967D03*
X0147948Y0287533D03*
D20*
X0063223Y0035010D03*
X0063223Y0038750D03*
X0063223Y0042490D03*
X0073460Y0042490D03*
X0073460Y0035010D03*
X0195223Y0035010D03*
X0195223Y0038750D03*
X0195223Y0042490D03*
X0205460Y0042490D03*
X0205460Y0035010D03*
X0205460Y0187010D03*
X0205460Y0194490D03*
X0195223Y0194490D03*
X0195223Y0190750D03*
X0195223Y0187010D03*
X0073460Y0187010D03*
X0073460Y0194490D03*
X0063223Y0194490D03*
X0063223Y0190750D03*
X0063223Y0187010D03*
D21*
X0087830Y0262325D03*
X0110271Y0262325D03*
X0219830Y0262325D03*
X0242271Y0262325D03*
X0242271Y0110325D03*
X0219830Y0110325D03*
X0110271Y0110325D03*
X0087830Y0110325D03*
D22*
X0116570Y0162096D03*
X0064798Y0166033D03*
X0196798Y0166033D03*
X0248570Y0162096D03*
X0248570Y0314096D03*
X0196798Y0318033D03*
X0116570Y0314096D03*
X0064798Y0318033D03*
D23*
X0083145Y0302876D03*
X0087476Y0301301D03*
X0091806Y0302876D03*
X0096137Y0303663D03*
X0100468Y0302876D03*
X0104798Y0303663D03*
X0109129Y0302876D03*
X0113460Y0302876D03*
X0215145Y0302876D03*
X0219476Y0301301D03*
X0223806Y0302876D03*
X0228137Y0303663D03*
X0232468Y0302876D03*
X0236798Y0303663D03*
X0241129Y0302876D03*
X0245460Y0302876D03*
X0236798Y0151663D03*
X0232468Y0150876D03*
X0228137Y0151663D03*
X0223806Y0150876D03*
X0219476Y0149301D03*
X0215145Y0150876D03*
X0241129Y0150876D03*
X0245460Y0150876D03*
X0113460Y0150876D03*
X0109129Y0150876D03*
X0104798Y0151663D03*
X0100468Y0150876D03*
X0096137Y0151663D03*
X0091806Y0150876D03*
X0087476Y0149301D03*
X0083145Y0150876D03*
D24*
X0102318Y0187750D03*
X0102318Y0192750D03*
X0102318Y0197750D03*
X0102318Y0202750D03*
X0124365Y0202750D03*
X0124365Y0197750D03*
X0124365Y0192750D03*
X0124365Y0187750D03*
X0234318Y0187750D03*
X0234318Y0192750D03*
X0234318Y0197750D03*
X0234318Y0202750D03*
X0256365Y0202750D03*
X0256365Y0197750D03*
X0256365Y0192750D03*
X0256365Y0187750D03*
X0256365Y0050750D03*
X0256365Y0045750D03*
X0256365Y0040750D03*
X0256365Y0035750D03*
X0234318Y0035750D03*
X0234318Y0040750D03*
X0234318Y0045750D03*
X0234318Y0050750D03*
X0124365Y0050750D03*
X0124365Y0045750D03*
X0124365Y0040750D03*
X0124365Y0035750D03*
X0102318Y0035750D03*
X0102318Y0040750D03*
X0102318Y0045750D03*
X0102318Y0050750D03*
D25*
X0071385Y0082238D03*
X0071385Y0083813D03*
X0071385Y0085388D03*
X0071385Y0086963D03*
X0071385Y0088537D03*
X0071385Y0090112D03*
X0071385Y0091687D03*
X0071385Y0093262D03*
X0071385Y0094837D03*
X0064298Y0094837D03*
X0064298Y0093262D03*
X0064298Y0091687D03*
X0064298Y0090112D03*
X0064298Y0088537D03*
X0064298Y0086963D03*
X0064298Y0085388D03*
X0064298Y0083813D03*
X0064298Y0082238D03*
X0064298Y0080663D03*
X0196298Y0080663D03*
X0196298Y0082238D03*
X0196298Y0083813D03*
X0196298Y0085388D03*
X0196298Y0086963D03*
X0196298Y0088537D03*
X0196298Y0090112D03*
X0196298Y0091687D03*
X0196298Y0093262D03*
X0196298Y0094837D03*
X0203385Y0094837D03*
X0203385Y0093262D03*
X0203385Y0091687D03*
X0203385Y0090112D03*
X0203385Y0088537D03*
X0203385Y0086963D03*
X0203385Y0085388D03*
X0203385Y0083813D03*
X0203385Y0082238D03*
X0196298Y0232663D03*
X0196298Y0234238D03*
X0196298Y0235813D03*
X0196298Y0237388D03*
X0196298Y0238963D03*
X0196298Y0240537D03*
X0196298Y0242112D03*
X0196298Y0243687D03*
X0196298Y0245262D03*
X0196298Y0246837D03*
X0203385Y0246837D03*
X0203385Y0245262D03*
X0203385Y0243687D03*
X0203385Y0242112D03*
X0203385Y0240537D03*
X0203385Y0238963D03*
X0203385Y0237388D03*
X0203385Y0235813D03*
X0203385Y0234238D03*
X0071385Y0234238D03*
X0071385Y0235813D03*
X0071385Y0237388D03*
X0071385Y0238963D03*
X0071385Y0240537D03*
X0071385Y0242112D03*
X0071385Y0243687D03*
X0071385Y0245262D03*
X0071385Y0246837D03*
X0064298Y0246837D03*
X0064298Y0245262D03*
X0064298Y0243687D03*
X0064298Y0242112D03*
X0064298Y0240537D03*
X0064298Y0238963D03*
X0064298Y0237388D03*
X0064298Y0235813D03*
X0064298Y0234238D03*
X0064298Y0232663D03*
D26*
X0071188Y0232663D03*
X0203188Y0232663D03*
X0203188Y0080663D03*
X0071188Y0080663D03*
M02*
