G75*
%MOIN*%
%OFA0B0*%
%FSLAX25Y25*%
%IPPOS*%
%LPD*%
%AMOC8*
5,1,8,0,0,1.08239X$1,22.5*
%
%ADD10C,0.00800*%
%ADD11C,0.02500*%
%ADD12C,0.07400*%
%ADD13C,0.02400*%
%ADD14C,0.00600*%
%ADD15C,0.02700*%
D10*
X0146558Y0031150D02*
X0148892Y0031150D01*
X0147725Y0031150D02*
X0147725Y0035350D01*
X0148892Y0034417D01*
X0153392Y0033250D02*
X0153390Y0033138D01*
X0153385Y0033026D01*
X0153376Y0032914D01*
X0153363Y0032803D01*
X0153347Y0032692D01*
X0153327Y0032581D01*
X0153303Y0032472D01*
X0153276Y0032363D01*
X0153246Y0032255D01*
X0153212Y0032148D01*
X0153175Y0032042D01*
X0153134Y0031938D01*
X0153090Y0031835D01*
X0153042Y0031733D01*
X0153158Y0032083D02*
X0151292Y0034417D01*
X0151409Y0034767D02*
X0151429Y0034820D01*
X0151452Y0034871D01*
X0151479Y0034920D01*
X0151509Y0034968D01*
X0151542Y0035014D01*
X0151577Y0035057D01*
X0151616Y0035098D01*
X0151657Y0035137D01*
X0151701Y0035173D01*
X0151747Y0035205D01*
X0151794Y0035235D01*
X0151844Y0035261D01*
X0151896Y0035285D01*
X0151948Y0035304D01*
X0152002Y0035321D01*
X0152057Y0035333D01*
X0152113Y0035343D01*
X0152169Y0035348D01*
X0152225Y0035350D01*
X0152281Y0035348D01*
X0152337Y0035343D01*
X0152393Y0035333D01*
X0152448Y0035321D01*
X0152502Y0035304D01*
X0152554Y0035285D01*
X0152606Y0035261D01*
X0152656Y0035235D01*
X0152703Y0035205D01*
X0152749Y0035172D01*
X0152793Y0035137D01*
X0152834Y0035098D01*
X0152873Y0035057D01*
X0152908Y0035014D01*
X0152941Y0034968D01*
X0152971Y0034920D01*
X0152998Y0034871D01*
X0153021Y0034820D01*
X0153041Y0034767D01*
X0151409Y0034767D02*
X0151361Y0034665D01*
X0151317Y0034562D01*
X0151276Y0034458D01*
X0151239Y0034352D01*
X0151205Y0034245D01*
X0151175Y0034137D01*
X0151148Y0034028D01*
X0151124Y0033919D01*
X0151104Y0033808D01*
X0151088Y0033697D01*
X0151075Y0033586D01*
X0151066Y0033474D01*
X0151061Y0033362D01*
X0151059Y0033250D01*
X0153392Y0033250D02*
X0153390Y0033362D01*
X0153385Y0033474D01*
X0153376Y0033586D01*
X0153363Y0033697D01*
X0153347Y0033808D01*
X0153327Y0033919D01*
X0153303Y0034028D01*
X0153276Y0034137D01*
X0153246Y0034245D01*
X0153212Y0034352D01*
X0153175Y0034458D01*
X0153134Y0034562D01*
X0153090Y0034665D01*
X0153042Y0034767D01*
X0151059Y0033250D02*
X0151061Y0033138D01*
X0151066Y0033026D01*
X0151075Y0032914D01*
X0151088Y0032803D01*
X0151104Y0032692D01*
X0151124Y0032581D01*
X0151148Y0032472D01*
X0151175Y0032363D01*
X0151205Y0032255D01*
X0151239Y0032148D01*
X0151276Y0032042D01*
X0151317Y0031938D01*
X0151361Y0031835D01*
X0151409Y0031733D01*
X0152225Y0031150D02*
X0152281Y0031152D01*
X0152337Y0031157D01*
X0152393Y0031167D01*
X0152448Y0031179D01*
X0152502Y0031196D01*
X0152554Y0031215D01*
X0152606Y0031239D01*
X0152656Y0031265D01*
X0152703Y0031295D01*
X0152749Y0031327D01*
X0152793Y0031363D01*
X0152834Y0031402D01*
X0152873Y0031443D01*
X0152908Y0031486D01*
X0152941Y0031532D01*
X0152971Y0031580D01*
X0152998Y0031629D01*
X0153021Y0031680D01*
X0153041Y0031733D01*
X0152225Y0031150D02*
X0152169Y0031152D01*
X0152113Y0031157D01*
X0152057Y0031167D01*
X0152002Y0031179D01*
X0151948Y0031196D01*
X0151896Y0031215D01*
X0151844Y0031239D01*
X0151794Y0031265D01*
X0151747Y0031295D01*
X0151701Y0031327D01*
X0151657Y0031363D01*
X0151616Y0031402D01*
X0151577Y0031443D01*
X0151542Y0031486D01*
X0151509Y0031532D01*
X0151479Y0031580D01*
X0151452Y0031629D01*
X0151429Y0031680D01*
X0151409Y0031733D01*
X0155325Y0031150D02*
X0158125Y0035350D01*
X0155325Y0035350D02*
X0158125Y0031150D01*
X0278558Y0031150D02*
X0280892Y0031150D01*
X0279725Y0031150D02*
X0279725Y0035350D01*
X0280892Y0034417D01*
X0285392Y0033250D02*
X0285390Y0033138D01*
X0285385Y0033026D01*
X0285376Y0032914D01*
X0285363Y0032803D01*
X0285347Y0032692D01*
X0285327Y0032581D01*
X0285303Y0032472D01*
X0285276Y0032363D01*
X0285246Y0032255D01*
X0285212Y0032148D01*
X0285175Y0032042D01*
X0285134Y0031938D01*
X0285090Y0031835D01*
X0285042Y0031733D01*
X0285158Y0032083D02*
X0283292Y0034417D01*
X0283409Y0034767D02*
X0283429Y0034820D01*
X0283452Y0034871D01*
X0283479Y0034920D01*
X0283509Y0034968D01*
X0283542Y0035014D01*
X0283577Y0035057D01*
X0283616Y0035098D01*
X0283657Y0035137D01*
X0283701Y0035173D01*
X0283747Y0035205D01*
X0283794Y0035235D01*
X0283844Y0035261D01*
X0283896Y0035285D01*
X0283948Y0035304D01*
X0284002Y0035321D01*
X0284057Y0035333D01*
X0284113Y0035343D01*
X0284169Y0035348D01*
X0284225Y0035350D01*
X0284281Y0035348D01*
X0284337Y0035343D01*
X0284393Y0035333D01*
X0284448Y0035321D01*
X0284502Y0035304D01*
X0284554Y0035285D01*
X0284606Y0035261D01*
X0284656Y0035235D01*
X0284703Y0035205D01*
X0284749Y0035172D01*
X0284793Y0035137D01*
X0284834Y0035098D01*
X0284873Y0035057D01*
X0284908Y0035014D01*
X0284941Y0034968D01*
X0284971Y0034920D01*
X0284998Y0034871D01*
X0285021Y0034820D01*
X0285041Y0034767D01*
X0283409Y0034767D02*
X0283361Y0034665D01*
X0283317Y0034562D01*
X0283276Y0034458D01*
X0283239Y0034352D01*
X0283205Y0034245D01*
X0283175Y0034137D01*
X0283148Y0034028D01*
X0283124Y0033919D01*
X0283104Y0033808D01*
X0283088Y0033697D01*
X0283075Y0033586D01*
X0283066Y0033474D01*
X0283061Y0033362D01*
X0283059Y0033250D01*
X0285392Y0033250D02*
X0285390Y0033362D01*
X0285385Y0033474D01*
X0285376Y0033586D01*
X0285363Y0033697D01*
X0285347Y0033808D01*
X0285327Y0033919D01*
X0285303Y0034028D01*
X0285276Y0034137D01*
X0285246Y0034245D01*
X0285212Y0034352D01*
X0285175Y0034458D01*
X0285134Y0034562D01*
X0285090Y0034665D01*
X0285042Y0034767D01*
X0283059Y0033250D02*
X0283061Y0033138D01*
X0283066Y0033026D01*
X0283075Y0032914D01*
X0283088Y0032803D01*
X0283104Y0032692D01*
X0283124Y0032581D01*
X0283148Y0032472D01*
X0283175Y0032363D01*
X0283205Y0032255D01*
X0283239Y0032148D01*
X0283276Y0032042D01*
X0283317Y0031938D01*
X0283361Y0031835D01*
X0283409Y0031733D01*
X0284225Y0031150D02*
X0284281Y0031152D01*
X0284337Y0031157D01*
X0284393Y0031167D01*
X0284448Y0031179D01*
X0284502Y0031196D01*
X0284554Y0031215D01*
X0284606Y0031239D01*
X0284656Y0031265D01*
X0284703Y0031295D01*
X0284749Y0031327D01*
X0284793Y0031363D01*
X0284834Y0031402D01*
X0284873Y0031443D01*
X0284908Y0031486D01*
X0284941Y0031532D01*
X0284971Y0031580D01*
X0284998Y0031629D01*
X0285021Y0031680D01*
X0285041Y0031733D01*
X0284225Y0031150D02*
X0284169Y0031152D01*
X0284113Y0031157D01*
X0284057Y0031167D01*
X0284002Y0031179D01*
X0283948Y0031196D01*
X0283896Y0031215D01*
X0283844Y0031239D01*
X0283794Y0031265D01*
X0283747Y0031295D01*
X0283701Y0031327D01*
X0283657Y0031363D01*
X0283616Y0031402D01*
X0283577Y0031443D01*
X0283542Y0031486D01*
X0283509Y0031532D01*
X0283479Y0031580D01*
X0283452Y0031629D01*
X0283429Y0031680D01*
X0283409Y0031733D01*
X0287325Y0031150D02*
X0290125Y0035350D01*
X0287325Y0035350D02*
X0290125Y0031150D01*
X0290125Y0183150D02*
X0287325Y0187350D01*
X0283059Y0185250D02*
X0283061Y0185138D01*
X0283066Y0185026D01*
X0283075Y0184914D01*
X0283088Y0184803D01*
X0283104Y0184692D01*
X0283124Y0184581D01*
X0283148Y0184472D01*
X0283175Y0184363D01*
X0283205Y0184255D01*
X0283239Y0184148D01*
X0283276Y0184042D01*
X0283317Y0183938D01*
X0283361Y0183835D01*
X0283409Y0183733D01*
X0284225Y0183150D02*
X0284281Y0183152D01*
X0284337Y0183157D01*
X0284393Y0183167D01*
X0284448Y0183179D01*
X0284502Y0183196D01*
X0284554Y0183215D01*
X0284606Y0183239D01*
X0284656Y0183265D01*
X0284703Y0183295D01*
X0284749Y0183327D01*
X0284793Y0183363D01*
X0284834Y0183402D01*
X0284873Y0183443D01*
X0284908Y0183486D01*
X0284941Y0183532D01*
X0284971Y0183580D01*
X0284998Y0183629D01*
X0285021Y0183680D01*
X0285041Y0183733D01*
X0285158Y0184083D02*
X0283292Y0186417D01*
X0283409Y0186767D02*
X0283429Y0186820D01*
X0283452Y0186871D01*
X0283479Y0186920D01*
X0283509Y0186968D01*
X0283542Y0187014D01*
X0283577Y0187057D01*
X0283616Y0187098D01*
X0283657Y0187137D01*
X0283701Y0187173D01*
X0283747Y0187205D01*
X0283794Y0187235D01*
X0283844Y0187261D01*
X0283896Y0187285D01*
X0283948Y0187304D01*
X0284002Y0187321D01*
X0284057Y0187333D01*
X0284113Y0187343D01*
X0284169Y0187348D01*
X0284225Y0187350D01*
X0284281Y0187348D01*
X0284337Y0187343D01*
X0284393Y0187333D01*
X0284448Y0187321D01*
X0284502Y0187304D01*
X0284554Y0187285D01*
X0284606Y0187261D01*
X0284656Y0187235D01*
X0284703Y0187205D01*
X0284749Y0187172D01*
X0284793Y0187137D01*
X0284834Y0187098D01*
X0284873Y0187057D01*
X0284908Y0187014D01*
X0284941Y0186968D01*
X0284971Y0186920D01*
X0284998Y0186871D01*
X0285021Y0186820D01*
X0285041Y0186767D01*
X0283409Y0186767D02*
X0283361Y0186665D01*
X0283317Y0186562D01*
X0283276Y0186458D01*
X0283239Y0186352D01*
X0283205Y0186245D01*
X0283175Y0186137D01*
X0283148Y0186028D01*
X0283124Y0185919D01*
X0283104Y0185808D01*
X0283088Y0185697D01*
X0283075Y0185586D01*
X0283066Y0185474D01*
X0283061Y0185362D01*
X0283059Y0185250D01*
X0285392Y0185250D02*
X0285390Y0185362D01*
X0285385Y0185474D01*
X0285376Y0185586D01*
X0285363Y0185697D01*
X0285347Y0185808D01*
X0285327Y0185919D01*
X0285303Y0186028D01*
X0285276Y0186137D01*
X0285246Y0186245D01*
X0285212Y0186352D01*
X0285175Y0186458D01*
X0285134Y0186562D01*
X0285090Y0186665D01*
X0285042Y0186767D01*
X0283409Y0183733D02*
X0283429Y0183680D01*
X0283452Y0183629D01*
X0283479Y0183580D01*
X0283509Y0183532D01*
X0283542Y0183486D01*
X0283577Y0183443D01*
X0283616Y0183402D01*
X0283657Y0183363D01*
X0283701Y0183327D01*
X0283747Y0183295D01*
X0283794Y0183265D01*
X0283844Y0183239D01*
X0283896Y0183215D01*
X0283948Y0183196D01*
X0284002Y0183179D01*
X0284057Y0183167D01*
X0284113Y0183157D01*
X0284169Y0183152D01*
X0284225Y0183150D01*
X0287325Y0183150D02*
X0290125Y0187350D01*
X0285392Y0185250D02*
X0285390Y0185138D01*
X0285385Y0185026D01*
X0285376Y0184914D01*
X0285363Y0184803D01*
X0285347Y0184692D01*
X0285327Y0184581D01*
X0285303Y0184472D01*
X0285276Y0184363D01*
X0285246Y0184255D01*
X0285212Y0184148D01*
X0285175Y0184042D01*
X0285134Y0183938D01*
X0285090Y0183835D01*
X0285042Y0183733D01*
X0280892Y0183150D02*
X0278558Y0183150D01*
X0279725Y0183150D02*
X0279725Y0187350D01*
X0280892Y0186417D01*
X0158125Y0187350D02*
X0155325Y0183150D01*
X0151409Y0183733D02*
X0151361Y0183835D01*
X0151317Y0183938D01*
X0151276Y0184042D01*
X0151239Y0184148D01*
X0151205Y0184255D01*
X0151175Y0184363D01*
X0151148Y0184472D01*
X0151124Y0184581D01*
X0151104Y0184692D01*
X0151088Y0184803D01*
X0151075Y0184914D01*
X0151066Y0185026D01*
X0151061Y0185138D01*
X0151059Y0185250D01*
X0153392Y0185250D02*
X0153390Y0185362D01*
X0153385Y0185474D01*
X0153376Y0185586D01*
X0153363Y0185697D01*
X0153347Y0185808D01*
X0153327Y0185919D01*
X0153303Y0186028D01*
X0153276Y0186137D01*
X0153246Y0186245D01*
X0153212Y0186352D01*
X0153175Y0186458D01*
X0153134Y0186562D01*
X0153090Y0186665D01*
X0153042Y0186767D01*
X0153041Y0186767D02*
X0153021Y0186820D01*
X0152998Y0186871D01*
X0152971Y0186920D01*
X0152941Y0186968D01*
X0152908Y0187014D01*
X0152873Y0187057D01*
X0152834Y0187098D01*
X0152793Y0187137D01*
X0152749Y0187172D01*
X0152703Y0187205D01*
X0152656Y0187235D01*
X0152606Y0187261D01*
X0152554Y0187285D01*
X0152502Y0187304D01*
X0152448Y0187321D01*
X0152393Y0187333D01*
X0152337Y0187343D01*
X0152281Y0187348D01*
X0152225Y0187350D01*
X0152169Y0187348D01*
X0152113Y0187343D01*
X0152057Y0187333D01*
X0152002Y0187321D01*
X0151948Y0187304D01*
X0151896Y0187285D01*
X0151844Y0187261D01*
X0151794Y0187235D01*
X0151747Y0187205D01*
X0151701Y0187173D01*
X0151657Y0187137D01*
X0151616Y0187098D01*
X0151577Y0187057D01*
X0151542Y0187014D01*
X0151509Y0186968D01*
X0151479Y0186920D01*
X0151452Y0186871D01*
X0151429Y0186820D01*
X0151409Y0186767D01*
X0151292Y0186417D02*
X0153158Y0184083D01*
X0152225Y0183150D02*
X0152169Y0183152D01*
X0152113Y0183157D01*
X0152057Y0183167D01*
X0152002Y0183179D01*
X0151948Y0183196D01*
X0151896Y0183215D01*
X0151844Y0183239D01*
X0151794Y0183265D01*
X0151747Y0183295D01*
X0151701Y0183327D01*
X0151657Y0183363D01*
X0151616Y0183402D01*
X0151577Y0183443D01*
X0151542Y0183486D01*
X0151509Y0183532D01*
X0151479Y0183580D01*
X0151452Y0183629D01*
X0151429Y0183680D01*
X0151409Y0183733D01*
X0152225Y0183150D02*
X0152281Y0183152D01*
X0152337Y0183157D01*
X0152393Y0183167D01*
X0152448Y0183179D01*
X0152502Y0183196D01*
X0152554Y0183215D01*
X0152606Y0183239D01*
X0152656Y0183265D01*
X0152703Y0183295D01*
X0152749Y0183327D01*
X0152793Y0183363D01*
X0152834Y0183402D01*
X0152873Y0183443D01*
X0152908Y0183486D01*
X0152941Y0183532D01*
X0152971Y0183580D01*
X0152998Y0183629D01*
X0153021Y0183680D01*
X0153041Y0183733D01*
X0151059Y0185250D02*
X0151061Y0185362D01*
X0151066Y0185474D01*
X0151075Y0185586D01*
X0151088Y0185697D01*
X0151104Y0185808D01*
X0151124Y0185919D01*
X0151148Y0186028D01*
X0151175Y0186137D01*
X0151205Y0186245D01*
X0151239Y0186352D01*
X0151276Y0186458D01*
X0151317Y0186562D01*
X0151361Y0186665D01*
X0151409Y0186767D01*
X0153392Y0185250D02*
X0153390Y0185138D01*
X0153385Y0185026D01*
X0153376Y0184914D01*
X0153363Y0184803D01*
X0153347Y0184692D01*
X0153327Y0184581D01*
X0153303Y0184472D01*
X0153276Y0184363D01*
X0153246Y0184255D01*
X0153212Y0184148D01*
X0153175Y0184042D01*
X0153134Y0183938D01*
X0153090Y0183835D01*
X0153042Y0183733D01*
X0148892Y0183150D02*
X0146558Y0183150D01*
X0147725Y0183150D02*
X0147725Y0187350D01*
X0148892Y0186417D01*
X0155325Y0187350D02*
X0158125Y0183150D01*
D11*
X0160842Y0183250D03*
X0167842Y0176250D03*
X0292842Y0183250D03*
X0167842Y0328250D03*
X0035842Y0328250D03*
X0035842Y0176250D03*
X0160842Y0031250D03*
X0292842Y0031250D03*
D12*
X0170342Y0053750D03*
X0170342Y0063750D03*
X0170342Y0073750D03*
X0170342Y0083750D03*
X0170342Y0093750D03*
X0170342Y0103750D03*
X0170342Y0113750D03*
X0170342Y0123750D03*
X0170342Y0133750D03*
X0170342Y0143750D03*
X0170342Y0153750D03*
X0170342Y0205750D03*
X0170342Y0215750D03*
X0170342Y0225750D03*
X0170342Y0235750D03*
X0170342Y0245750D03*
X0170342Y0255750D03*
X0170342Y0265750D03*
X0170342Y0275750D03*
X0170342Y0285750D03*
X0170342Y0295750D03*
X0170342Y0305750D03*
X0038342Y0305750D03*
X0038342Y0295750D03*
X0038342Y0285750D03*
X0038342Y0275750D03*
X0038342Y0265750D03*
X0038342Y0255750D03*
X0038342Y0245750D03*
X0038342Y0235750D03*
X0038342Y0225750D03*
X0038342Y0215750D03*
X0038342Y0205750D03*
X0038342Y0153750D03*
X0038342Y0143750D03*
X0038342Y0133750D03*
X0038342Y0123750D03*
X0038342Y0113750D03*
X0038342Y0103750D03*
X0038342Y0093750D03*
X0038342Y0083750D03*
X0038342Y0073750D03*
X0038342Y0063750D03*
X0038342Y0053750D03*
D13*
X0046842Y0058750D03*
X0058342Y0054750D03*
X0068842Y0049250D03*
X0077842Y0042250D03*
X0080842Y0046750D03*
X0087842Y0055750D03*
X0093342Y0069750D03*
X0088708Y0077373D03*
X0087357Y0080265D03*
X0087021Y0083265D03*
X0089088Y0085440D03*
X0091842Y0087844D03*
X0084021Y0082601D03*
X0080799Y0085373D03*
X0078632Y0087540D03*
X0081342Y0092719D03*
X0076342Y0097250D03*
X0080842Y0106750D03*
X0091842Y0099250D03*
X0106842Y0086750D03*
X0110842Y0101250D03*
X0093842Y0112750D03*
X0099342Y0123750D03*
X0108342Y0128750D03*
X0115842Y0130750D03*
X0119842Y0120250D03*
X0128342Y0128250D03*
X0130842Y0111250D03*
X0127942Y0101832D03*
X0132842Y0100429D03*
X0146224Y0104102D03*
X0151342Y0106250D03*
X0177827Y0078265D03*
X0182342Y0078250D03*
X0186977Y0078250D03*
X0189077Y0087985D03*
X0207342Y0078563D03*
X0212799Y0085373D03*
X0210632Y0087540D03*
X0213342Y0092719D03*
X0208342Y0097250D03*
X0212842Y0106750D03*
X0223842Y0099250D03*
X0223842Y0087844D03*
X0221088Y0085440D03*
X0219021Y0083265D03*
X0219357Y0080265D03*
X0220708Y0077373D03*
X0216021Y0082601D03*
X0225342Y0069750D03*
X0219842Y0055750D03*
X0212842Y0046750D03*
X0209842Y0042250D03*
X0200842Y0049250D03*
X0190342Y0054750D03*
X0178842Y0058750D03*
X0190842Y0038750D03*
X0238842Y0086750D03*
X0242842Y0101250D03*
X0225842Y0112750D03*
X0231342Y0123750D03*
X0240342Y0128750D03*
X0247842Y0130750D03*
X0251842Y0120250D03*
X0260342Y0128250D03*
X0262842Y0111250D03*
X0259942Y0101832D03*
X0264842Y0100429D03*
X0278224Y0104102D03*
X0283342Y0106250D03*
X0247342Y0060250D03*
X0240342Y0035750D03*
X0232577Y0142485D03*
X0240342Y0187750D03*
X0219842Y0207750D03*
X0212842Y0198750D03*
X0209842Y0194250D03*
X0200842Y0201250D03*
X0190342Y0206750D03*
X0178842Y0210750D03*
X0177827Y0230265D03*
X0182342Y0230250D03*
X0186977Y0230250D03*
X0189077Y0239985D03*
X0207342Y0230563D03*
X0212799Y0237373D03*
X0210632Y0239540D03*
X0213342Y0244719D03*
X0208342Y0249250D03*
X0212842Y0258750D03*
X0223842Y0251250D03*
X0223842Y0239844D03*
X0221088Y0237440D03*
X0219021Y0235265D03*
X0219357Y0232265D03*
X0220708Y0229373D03*
X0216021Y0234601D03*
X0225342Y0221750D03*
X0238842Y0238750D03*
X0242842Y0253250D03*
X0225842Y0264750D03*
X0231342Y0275750D03*
X0240342Y0280750D03*
X0247842Y0282750D03*
X0251842Y0272250D03*
X0260342Y0280250D03*
X0262842Y0263250D03*
X0259942Y0253832D03*
X0264842Y0252429D03*
X0278224Y0256102D03*
X0283342Y0258250D03*
X0247342Y0212250D03*
X0190842Y0190750D03*
X0132842Y0252429D03*
X0127942Y0253832D03*
X0130842Y0263250D03*
X0119842Y0272250D03*
X0115842Y0282750D03*
X0108342Y0280750D03*
X0099342Y0275750D03*
X0093842Y0264750D03*
X0080842Y0258750D03*
X0076342Y0249250D03*
X0081342Y0244719D03*
X0078632Y0239540D03*
X0080799Y0237373D03*
X0084021Y0234601D03*
X0087021Y0235265D03*
X0089088Y0237440D03*
X0091842Y0239844D03*
X0087357Y0232265D03*
X0088708Y0229373D03*
X0093342Y0221750D03*
X0087842Y0207750D03*
X0080842Y0198750D03*
X0077842Y0194250D03*
X0068842Y0201250D03*
X0058342Y0206750D03*
X0046842Y0210750D03*
X0045827Y0230265D03*
X0050342Y0230250D03*
X0054977Y0230250D03*
X0057077Y0239985D03*
X0075342Y0230563D03*
X0091842Y0251250D03*
X0106842Y0238750D03*
X0110842Y0253250D03*
X0128342Y0280250D03*
X0146224Y0256102D03*
X0151342Y0258250D03*
X0115342Y0212250D03*
X0108342Y0187750D03*
X0100577Y0142485D03*
X0058842Y0190750D03*
X0057077Y0087985D03*
X0054977Y0078250D03*
X0050342Y0078250D03*
X0045827Y0078265D03*
X0075342Y0078563D03*
X0058842Y0038750D03*
X0108342Y0035750D03*
X0115342Y0060250D03*
X0100577Y0294485D03*
X0232577Y0294485D03*
D14*
X0035242Y0049496D02*
X0035242Y0043120D01*
X0036185Y0044755D01*
X0036185Y0044755D01*
X0038671Y0046840D01*
X0038671Y0046840D01*
X0041720Y0047950D01*
X0044964Y0047950D01*
X0048013Y0046840D01*
X0048013Y0046840D01*
X0050498Y0044755D01*
X0050498Y0044755D01*
X0052120Y0041945D01*
X0052120Y0041945D01*
X0052684Y0038750D01*
X0052684Y0038750D01*
X0052120Y0035555D01*
X0052120Y0035555D01*
X0050498Y0032745D01*
X0050498Y0032745D01*
X0050498Y0032745D01*
X0048013Y0030660D01*
X0048013Y0030660D01*
X0047986Y0030650D01*
X0144658Y0030650D01*
X0144658Y0031937D01*
X0145771Y0033050D01*
X0145825Y0033050D01*
X0145825Y0035245D01*
X0145750Y0035922D01*
X0145825Y0036016D01*
X0145825Y0036137D01*
X0146307Y0036619D01*
X0146733Y0037151D01*
X0146853Y0037165D01*
X0146938Y0037250D01*
X0147620Y0037250D01*
X0148298Y0037325D01*
X0148392Y0037250D01*
X0148512Y0037250D01*
X0148994Y0036768D01*
X0149851Y0036082D01*
X0149898Y0036221D01*
X0149898Y0036221D01*
X0149898Y0036221D01*
X0151340Y0037250D01*
X0153111Y0037250D01*
X0153902Y0036685D01*
X0154926Y0037367D01*
X0156469Y0037059D01*
X0156725Y0036675D01*
X0156981Y0037059D01*
X0158524Y0037367D01*
X0159834Y0036494D01*
X0160143Y0034951D01*
X0159120Y0033418D01*
X0159284Y0033581D01*
X0160295Y0034000D01*
X0161389Y0034000D01*
X0161442Y0033978D01*
X0161442Y0176850D01*
X0047986Y0176850D01*
X0048013Y0176840D01*
X0048013Y0176840D01*
X0050498Y0174755D01*
X0050498Y0174755D01*
X0052120Y0171945D01*
X0052120Y0171945D01*
X0052684Y0168750D01*
X0052684Y0168750D01*
X0052120Y0165555D01*
X0052120Y0165555D01*
X0050498Y0162745D01*
X0050498Y0162745D01*
X0050498Y0162745D01*
X0048013Y0160660D01*
X0048013Y0160660D01*
X0044964Y0159550D01*
X0041720Y0159550D01*
X0038671Y0160660D01*
X0038671Y0160660D01*
X0036185Y0162745D01*
X0036185Y0162745D01*
X0035242Y0164380D01*
X0035242Y0158004D01*
X0035396Y0158158D01*
X0037307Y0158950D01*
X0039376Y0158950D01*
X0041287Y0158158D01*
X0042750Y0156696D01*
X0043225Y0155550D01*
X0087087Y0155550D01*
X0088142Y0154496D01*
X0098455Y0144182D01*
X0099047Y0144774D01*
X0100040Y0145185D01*
X0101114Y0145185D01*
X0102106Y0144774D01*
X0102866Y0144014D01*
X0103277Y0143022D01*
X0103277Y0142331D01*
X0129742Y0115865D01*
X0129742Y0104329D01*
X0134457Y0104329D01*
X0135512Y0103274D01*
X0136742Y0102044D01*
X0136742Y0098813D01*
X0119994Y0082065D01*
X0121641Y0082065D01*
X0143524Y0103948D01*
X0143524Y0104639D01*
X0143935Y0105631D01*
X0144695Y0106391D01*
X0145687Y0106802D01*
X0146761Y0106802D01*
X0147753Y0106391D01*
X0148345Y0105799D01*
X0148642Y0106096D01*
X0148642Y0106787D01*
X0149053Y0107779D01*
X0149812Y0108539D01*
X0150805Y0108950D01*
X0151879Y0108950D01*
X0152871Y0108539D01*
X0153631Y0107779D01*
X0154042Y0106787D01*
X0154042Y0105713D01*
X0153631Y0104721D01*
X0152871Y0103961D01*
X0151879Y0103550D01*
X0151187Y0103550D01*
X0124265Y0076628D01*
X0123211Y0075573D01*
X0090726Y0075573D01*
X0090237Y0075085D01*
X0089245Y0074673D01*
X0088171Y0074673D01*
X0087179Y0075085D01*
X0086419Y0075844D01*
X0086008Y0076836D01*
X0086008Y0077901D01*
X0085827Y0077976D01*
X0085821Y0077983D01*
X0085821Y0048817D01*
X0097087Y0037550D01*
X0106323Y0037550D01*
X0106812Y0038039D01*
X0107805Y0038450D01*
X0108879Y0038450D01*
X0109871Y0038039D01*
X0110631Y0037279D01*
X0111042Y0036287D01*
X0111042Y0035213D01*
X0110631Y0034221D01*
X0109871Y0033461D01*
X0108879Y0033050D01*
X0107805Y0033050D01*
X0106812Y0033461D01*
X0106323Y0033950D01*
X0095596Y0033950D01*
X0094542Y0035004D01*
X0094542Y0035004D01*
X0082221Y0047326D01*
X0082221Y0080583D01*
X0081873Y0080931D01*
X0079642Y0078700D01*
X0079642Y0044268D01*
X0080131Y0043779D01*
X0080542Y0042787D01*
X0080542Y0041713D01*
X0080131Y0040721D01*
X0079371Y0039961D01*
X0078379Y0039550D01*
X0077305Y0039550D01*
X0076312Y0039961D01*
X0075553Y0040721D01*
X0075142Y0041713D01*
X0075142Y0042787D01*
X0075553Y0043779D01*
X0076042Y0044268D01*
X0076042Y0075931D01*
X0075879Y0075863D01*
X0074805Y0075863D01*
X0073812Y0076274D01*
X0073053Y0077034D01*
X0072642Y0078026D01*
X0072642Y0078718D01*
X0072442Y0078918D01*
X0072442Y0100865D01*
X0073496Y0101920D01*
X0076596Y0105020D01*
X0080596Y0105020D01*
X0092226Y0116650D01*
X0093696Y0116650D01*
X0105642Y0128596D01*
X0105642Y0129287D01*
X0106053Y0130279D01*
X0106660Y0130886D01*
X0085596Y0151950D01*
X0043225Y0151950D01*
X0042750Y0150804D01*
X0041287Y0149342D01*
X0039859Y0148750D01*
X0041287Y0148158D01*
X0042750Y0146696D01*
X0043542Y0144784D01*
X0043542Y0142716D01*
X0042750Y0140804D01*
X0041287Y0139342D01*
X0039859Y0138750D01*
X0041287Y0138158D01*
X0042750Y0136696D01*
X0043542Y0134784D01*
X0043542Y0132716D01*
X0042750Y0130804D01*
X0041287Y0129342D01*
X0039859Y0128750D01*
X0041287Y0128158D01*
X0042750Y0126696D01*
X0043542Y0124784D01*
X0043542Y0122716D01*
X0099762Y0122716D01*
X0099164Y0122118D02*
X0043294Y0122118D01*
X0043542Y0122716D02*
X0042750Y0120804D01*
X0041287Y0119342D01*
X0039859Y0118750D01*
X0041287Y0118158D01*
X0042750Y0116696D01*
X0043542Y0114784D01*
X0043542Y0112716D01*
X0042750Y0110804D01*
X0041287Y0109342D01*
X0039859Y0108750D01*
X0041287Y0108158D01*
X0042750Y0106696D01*
X0043542Y0104784D01*
X0043542Y0102716D01*
X0043067Y0101570D01*
X0054955Y0089682D01*
X0055547Y0090274D01*
X0056540Y0090685D01*
X0057614Y0090685D01*
X0058606Y0090274D01*
X0059366Y0089514D01*
X0059777Y0088522D01*
X0059777Y0087448D01*
X0059366Y0086455D01*
X0058877Y0085967D01*
X0058877Y0071739D01*
X0043067Y0055930D01*
X0043542Y0054784D01*
X0043542Y0052716D01*
X0042750Y0050804D01*
X0041287Y0049342D01*
X0039376Y0048550D01*
X0037307Y0048550D01*
X0035396Y0049342D01*
X0035242Y0049496D01*
X0035242Y0049099D02*
X0035981Y0049099D01*
X0035242Y0048501D02*
X0076042Y0048501D01*
X0076042Y0049099D02*
X0040702Y0049099D01*
X0041644Y0049698D02*
X0076042Y0049698D01*
X0076042Y0050296D02*
X0042242Y0050296D01*
X0042788Y0050895D02*
X0076042Y0050895D01*
X0076042Y0051493D02*
X0043036Y0051493D01*
X0043283Y0052092D02*
X0076042Y0052092D01*
X0076042Y0052690D02*
X0043531Y0052690D01*
X0043542Y0053289D02*
X0076042Y0053289D01*
X0076042Y0053887D02*
X0043542Y0053887D01*
X0043542Y0054486D02*
X0076042Y0054486D01*
X0076042Y0055084D02*
X0043417Y0055084D01*
X0043170Y0055683D02*
X0076042Y0055683D01*
X0076042Y0056282D02*
X0043419Y0056282D01*
X0044017Y0056880D02*
X0076042Y0056880D01*
X0076042Y0057479D02*
X0044616Y0057479D01*
X0045214Y0058077D02*
X0076042Y0058077D01*
X0076042Y0058676D02*
X0045813Y0058676D01*
X0046411Y0059274D02*
X0076042Y0059274D01*
X0076042Y0059873D02*
X0047010Y0059873D01*
X0047608Y0060471D02*
X0076042Y0060471D01*
X0076042Y0061070D02*
X0048207Y0061070D01*
X0048806Y0061668D02*
X0076042Y0061668D01*
X0076042Y0062267D02*
X0049404Y0062267D01*
X0050003Y0062865D02*
X0076042Y0062865D01*
X0076042Y0063464D02*
X0050601Y0063464D01*
X0051200Y0064062D02*
X0076042Y0064062D01*
X0076042Y0064661D02*
X0051798Y0064661D01*
X0052397Y0065259D02*
X0076042Y0065259D01*
X0076042Y0065858D02*
X0052995Y0065858D01*
X0053594Y0066456D02*
X0076042Y0066456D01*
X0076042Y0067055D02*
X0054192Y0067055D01*
X0054791Y0067653D02*
X0076042Y0067653D01*
X0076042Y0068252D02*
X0055389Y0068252D01*
X0055988Y0068850D02*
X0076042Y0068850D01*
X0076042Y0069449D02*
X0056586Y0069449D01*
X0057185Y0070047D02*
X0076042Y0070047D01*
X0076042Y0070646D02*
X0057783Y0070646D01*
X0058382Y0071244D02*
X0076042Y0071244D01*
X0076042Y0071843D02*
X0058877Y0071843D01*
X0058877Y0072441D02*
X0076042Y0072441D01*
X0076042Y0073040D02*
X0058877Y0073040D01*
X0058877Y0073638D02*
X0076042Y0073638D01*
X0076042Y0074237D02*
X0058877Y0074237D01*
X0058877Y0074835D02*
X0076042Y0074835D01*
X0076042Y0075434D02*
X0058877Y0075434D01*
X0058877Y0076032D02*
X0074397Y0076032D01*
X0073456Y0076631D02*
X0058877Y0076631D01*
X0058877Y0077229D02*
X0072972Y0077229D01*
X0072724Y0077828D02*
X0058877Y0077828D01*
X0058877Y0078426D02*
X0072642Y0078426D01*
X0072442Y0079025D02*
X0058877Y0079025D01*
X0058877Y0079623D02*
X0072442Y0079623D01*
X0072442Y0080222D02*
X0058877Y0080222D01*
X0058877Y0080820D02*
X0072442Y0080820D01*
X0072442Y0081419D02*
X0058877Y0081419D01*
X0058877Y0082018D02*
X0072442Y0082018D01*
X0072442Y0082616D02*
X0058877Y0082616D01*
X0058877Y0083215D02*
X0072442Y0083215D01*
X0072442Y0083813D02*
X0058877Y0083813D01*
X0058877Y0084412D02*
X0072442Y0084412D01*
X0072442Y0085010D02*
X0058877Y0085010D01*
X0058877Y0085609D02*
X0072442Y0085609D01*
X0072442Y0086207D02*
X0059117Y0086207D01*
X0059511Y0086806D02*
X0072442Y0086806D01*
X0072442Y0087404D02*
X0059759Y0087404D01*
X0059777Y0088003D02*
X0072442Y0088003D01*
X0072442Y0088601D02*
X0059744Y0088601D01*
X0059496Y0089200D02*
X0072442Y0089200D01*
X0072442Y0089798D02*
X0059082Y0089798D01*
X0058310Y0090397D02*
X0072442Y0090397D01*
X0072442Y0090995D02*
X0053642Y0090995D01*
X0053044Y0091594D02*
X0072442Y0091594D01*
X0072442Y0092192D02*
X0052445Y0092192D01*
X0051847Y0092791D02*
X0072442Y0092791D01*
X0072442Y0093389D02*
X0051248Y0093389D01*
X0050650Y0093988D02*
X0072442Y0093988D01*
X0072442Y0094586D02*
X0050051Y0094586D01*
X0049453Y0095185D02*
X0072442Y0095185D01*
X0072442Y0095783D02*
X0048854Y0095783D01*
X0048256Y0096382D02*
X0072442Y0096382D01*
X0072442Y0096980D02*
X0047657Y0096980D01*
X0047059Y0097579D02*
X0072442Y0097579D01*
X0072442Y0098177D02*
X0046460Y0098177D01*
X0045862Y0098776D02*
X0072442Y0098776D01*
X0072442Y0099374D02*
X0045263Y0099374D01*
X0044665Y0099973D02*
X0072442Y0099973D01*
X0072442Y0100571D02*
X0044066Y0100571D01*
X0043468Y0101170D02*
X0072746Y0101170D01*
X0073345Y0101768D02*
X0043149Y0101768D01*
X0043397Y0102367D02*
X0073943Y0102367D01*
X0074542Y0102965D02*
X0043542Y0102965D01*
X0043542Y0103564D02*
X0075140Y0103564D01*
X0075739Y0104162D02*
X0043542Y0104162D01*
X0043542Y0104761D02*
X0076337Y0104761D01*
X0077342Y0103220D02*
X0074242Y0100120D01*
X0074242Y0079663D01*
X0075342Y0078563D01*
X0077842Y0079445D02*
X0082899Y0084503D01*
X0082899Y0087540D01*
X0091537Y0087540D01*
X0091842Y0087844D01*
X0091842Y0099250D01*
X0093842Y0101350D02*
X0093942Y0101350D01*
X0093942Y0084650D01*
X0117063Y0084650D01*
X0132842Y0100429D01*
X0133712Y0102529D02*
X0128639Y0102529D01*
X0127942Y0101832D01*
X0127942Y0115120D01*
X0100577Y0142485D01*
X0103277Y0142467D02*
X0161442Y0142467D01*
X0161442Y0141869D02*
X0103739Y0141869D01*
X0104337Y0141270D02*
X0161442Y0141270D01*
X0161442Y0140672D02*
X0104936Y0140672D01*
X0105534Y0140073D02*
X0161442Y0140073D01*
X0161442Y0139475D02*
X0106133Y0139475D01*
X0106731Y0138876D02*
X0161442Y0138876D01*
X0161442Y0138278D02*
X0107330Y0138278D01*
X0107928Y0137679D02*
X0161442Y0137679D01*
X0161442Y0137081D02*
X0108527Y0137081D01*
X0109125Y0136482D02*
X0161442Y0136482D01*
X0161442Y0135884D02*
X0109724Y0135884D01*
X0110322Y0135285D02*
X0161442Y0135285D01*
X0161442Y0134687D02*
X0110921Y0134687D01*
X0111519Y0134088D02*
X0161442Y0134088D01*
X0161442Y0133489D02*
X0112118Y0133489D01*
X0112716Y0132891D02*
X0161442Y0132891D01*
X0161442Y0132292D02*
X0113315Y0132292D01*
X0113913Y0131694D02*
X0161442Y0131694D01*
X0161442Y0131095D02*
X0114512Y0131095D01*
X0115110Y0130497D02*
X0161442Y0130497D01*
X0161442Y0129898D02*
X0115709Y0129898D01*
X0116307Y0129300D02*
X0161442Y0129300D01*
X0161442Y0128701D02*
X0116906Y0128701D01*
X0117504Y0128103D02*
X0161442Y0128103D01*
X0161442Y0127504D02*
X0118103Y0127504D01*
X0118701Y0126906D02*
X0161442Y0126906D01*
X0161442Y0126307D02*
X0119300Y0126307D01*
X0119898Y0125709D02*
X0161442Y0125709D01*
X0161442Y0125110D02*
X0120497Y0125110D01*
X0121095Y0124512D02*
X0161442Y0124512D01*
X0161442Y0123913D02*
X0121694Y0123913D01*
X0122292Y0123315D02*
X0161442Y0123315D01*
X0161442Y0122716D02*
X0122891Y0122716D01*
X0123489Y0122118D02*
X0161442Y0122118D01*
X0161442Y0121519D02*
X0124088Y0121519D01*
X0124686Y0120921D02*
X0161442Y0120921D01*
X0161442Y0120322D02*
X0125285Y0120322D01*
X0125884Y0119724D02*
X0161442Y0119724D01*
X0161442Y0119125D02*
X0126482Y0119125D01*
X0127081Y0118527D02*
X0161442Y0118527D01*
X0161442Y0117928D02*
X0127679Y0117928D01*
X0128278Y0117330D02*
X0161442Y0117330D01*
X0161442Y0116731D02*
X0128876Y0116731D01*
X0129475Y0116133D02*
X0161442Y0116133D01*
X0161442Y0115534D02*
X0129742Y0115534D01*
X0129742Y0114936D02*
X0161442Y0114936D01*
X0161442Y0114337D02*
X0129742Y0114337D01*
X0129742Y0113739D02*
X0161442Y0113739D01*
X0161442Y0113140D02*
X0129742Y0113140D01*
X0129742Y0112542D02*
X0161442Y0112542D01*
X0161442Y0111943D02*
X0129742Y0111943D01*
X0129742Y0111345D02*
X0161442Y0111345D01*
X0161442Y0110746D02*
X0129742Y0110746D01*
X0129742Y0110148D02*
X0161442Y0110148D01*
X0161442Y0109549D02*
X0129742Y0109549D01*
X0129742Y0108951D02*
X0161442Y0108951D01*
X0161442Y0108352D02*
X0153058Y0108352D01*
X0153641Y0107753D02*
X0161442Y0107753D01*
X0161442Y0107155D02*
X0153889Y0107155D01*
X0154042Y0106556D02*
X0161442Y0106556D01*
X0161442Y0105958D02*
X0154042Y0105958D01*
X0153895Y0105359D02*
X0161442Y0105359D01*
X0161442Y0104761D02*
X0153647Y0104761D01*
X0153073Y0104162D02*
X0161442Y0104162D01*
X0161442Y0103564D02*
X0151912Y0103564D01*
X0150603Y0102965D02*
X0161442Y0102965D01*
X0161442Y0102367D02*
X0150004Y0102367D01*
X0149406Y0101768D02*
X0161442Y0101768D01*
X0161442Y0101170D02*
X0148807Y0101170D01*
X0148209Y0100571D02*
X0161442Y0100571D01*
X0161442Y0099973D02*
X0147610Y0099973D01*
X0147012Y0099374D02*
X0161442Y0099374D01*
X0161442Y0098776D02*
X0146413Y0098776D01*
X0145815Y0098177D02*
X0161442Y0098177D01*
X0161442Y0097579D02*
X0145216Y0097579D01*
X0144618Y0096980D02*
X0161442Y0096980D01*
X0161442Y0096382D02*
X0144019Y0096382D01*
X0143421Y0095783D02*
X0161442Y0095783D01*
X0161442Y0095185D02*
X0142822Y0095185D01*
X0142224Y0094586D02*
X0161442Y0094586D01*
X0161442Y0093988D02*
X0141625Y0093988D01*
X0141027Y0093389D02*
X0161442Y0093389D01*
X0161442Y0092791D02*
X0140428Y0092791D01*
X0139830Y0092192D02*
X0161442Y0092192D01*
X0161442Y0091594D02*
X0139231Y0091594D01*
X0138633Y0090995D02*
X0161442Y0090995D01*
X0161442Y0090397D02*
X0138034Y0090397D01*
X0137436Y0089798D02*
X0161442Y0089798D01*
X0161442Y0089200D02*
X0136837Y0089200D01*
X0136239Y0088601D02*
X0161442Y0088601D01*
X0161442Y0088003D02*
X0135640Y0088003D01*
X0135041Y0087404D02*
X0161442Y0087404D01*
X0161442Y0086806D02*
X0134443Y0086806D01*
X0133844Y0086207D02*
X0161442Y0086207D01*
X0161442Y0085609D02*
X0133246Y0085609D01*
X0132647Y0085010D02*
X0161442Y0085010D01*
X0161442Y0084412D02*
X0132049Y0084412D01*
X0131450Y0083813D02*
X0161442Y0083813D01*
X0161442Y0083215D02*
X0130852Y0083215D01*
X0130253Y0082616D02*
X0161442Y0082616D01*
X0161442Y0082018D02*
X0129655Y0082018D01*
X0129056Y0081419D02*
X0161442Y0081419D01*
X0161442Y0080820D02*
X0128458Y0080820D01*
X0127859Y0080222D02*
X0161442Y0080222D01*
X0161442Y0079623D02*
X0127261Y0079623D01*
X0126662Y0079025D02*
X0161442Y0079025D01*
X0161442Y0078426D02*
X0126064Y0078426D01*
X0125465Y0077828D02*
X0161442Y0077828D01*
X0161442Y0077229D02*
X0124867Y0077229D01*
X0124268Y0076631D02*
X0161442Y0076631D01*
X0161442Y0076032D02*
X0123670Y0076032D01*
X0122465Y0077373D02*
X0088708Y0077373D01*
X0090587Y0075434D02*
X0161442Y0075434D01*
X0161442Y0074835D02*
X0089636Y0074835D01*
X0087780Y0074835D02*
X0085821Y0074835D01*
X0085821Y0074237D02*
X0161442Y0074237D01*
X0161442Y0073638D02*
X0085821Y0073638D01*
X0085821Y0073040D02*
X0161442Y0073040D01*
X0161442Y0072441D02*
X0085821Y0072441D01*
X0085821Y0071843D02*
X0161442Y0071843D01*
X0161442Y0071244D02*
X0085821Y0071244D01*
X0085821Y0070646D02*
X0161442Y0070646D01*
X0161442Y0070047D02*
X0085821Y0070047D01*
X0085821Y0069449D02*
X0161442Y0069449D01*
X0161442Y0068850D02*
X0085821Y0068850D01*
X0085821Y0068252D02*
X0161442Y0068252D01*
X0161442Y0067653D02*
X0085821Y0067653D01*
X0085821Y0067055D02*
X0161442Y0067055D01*
X0161442Y0066456D02*
X0085821Y0066456D01*
X0085821Y0065858D02*
X0161442Y0065858D01*
X0161442Y0065259D02*
X0085821Y0065259D01*
X0085821Y0064661D02*
X0161442Y0064661D01*
X0161442Y0064062D02*
X0085821Y0064062D01*
X0085821Y0063464D02*
X0161442Y0063464D01*
X0161442Y0062865D02*
X0085821Y0062865D01*
X0085821Y0062267D02*
X0161442Y0062267D01*
X0161442Y0061668D02*
X0085821Y0061668D01*
X0085821Y0061070D02*
X0161442Y0061070D01*
X0161442Y0060471D02*
X0085821Y0060471D01*
X0085821Y0059873D02*
X0161442Y0059873D01*
X0161442Y0059274D02*
X0085821Y0059274D01*
X0085821Y0058676D02*
X0161442Y0058676D01*
X0161442Y0058077D02*
X0085821Y0058077D01*
X0085821Y0057479D02*
X0161442Y0057479D01*
X0161442Y0056880D02*
X0085821Y0056880D01*
X0085821Y0056282D02*
X0161442Y0056282D01*
X0161442Y0055683D02*
X0085821Y0055683D01*
X0085821Y0055084D02*
X0161442Y0055084D01*
X0161442Y0054486D02*
X0085821Y0054486D01*
X0085821Y0053887D02*
X0161442Y0053887D01*
X0161442Y0053289D02*
X0085821Y0053289D01*
X0085821Y0052690D02*
X0161442Y0052690D01*
X0161442Y0052092D02*
X0085821Y0052092D01*
X0085821Y0051493D02*
X0161442Y0051493D01*
X0161442Y0050895D02*
X0085821Y0050895D01*
X0085821Y0050296D02*
X0161442Y0050296D01*
X0161442Y0049698D02*
X0085821Y0049698D01*
X0085821Y0049099D02*
X0161442Y0049099D01*
X0161442Y0048501D02*
X0086137Y0048501D01*
X0086735Y0047902D02*
X0161442Y0047902D01*
X0161442Y0047304D02*
X0087334Y0047304D01*
X0087932Y0046705D02*
X0161442Y0046705D01*
X0161442Y0046107D02*
X0088531Y0046107D01*
X0089129Y0045508D02*
X0161442Y0045508D01*
X0161442Y0044910D02*
X0089728Y0044910D01*
X0090326Y0044311D02*
X0161442Y0044311D01*
X0161442Y0043713D02*
X0090925Y0043713D01*
X0091523Y0043114D02*
X0161442Y0043114D01*
X0161442Y0042516D02*
X0092122Y0042516D01*
X0092720Y0041917D02*
X0161442Y0041917D01*
X0161442Y0041319D02*
X0093319Y0041319D01*
X0093917Y0040720D02*
X0161442Y0040720D01*
X0161442Y0040122D02*
X0094516Y0040122D01*
X0095114Y0039523D02*
X0161442Y0039523D01*
X0161442Y0038925D02*
X0095713Y0038925D01*
X0096311Y0038326D02*
X0107506Y0038326D01*
X0106501Y0037728D02*
X0096910Y0037728D01*
X0096342Y0035750D02*
X0108342Y0035750D01*
X0110844Y0034735D02*
X0145825Y0034735D01*
X0145825Y0034137D02*
X0110547Y0034137D01*
X0109948Y0033538D02*
X0145825Y0033538D01*
X0145661Y0032940D02*
X0050610Y0032940D01*
X0050956Y0033538D02*
X0106735Y0033538D01*
X0111042Y0035334D02*
X0145815Y0035334D01*
X0145758Y0035932D02*
X0111042Y0035932D01*
X0110941Y0036531D02*
X0146219Y0036531D01*
X0146715Y0037129D02*
X0110693Y0037129D01*
X0110182Y0037728D02*
X0161442Y0037728D01*
X0161442Y0038326D02*
X0109178Y0038326D01*
X0096342Y0035750D02*
X0084021Y0048071D01*
X0084021Y0082601D01*
X0081983Y0080820D02*
X0081762Y0080820D01*
X0082221Y0080222D02*
X0081164Y0080222D01*
X0080565Y0079623D02*
X0082221Y0079623D01*
X0082221Y0079025D02*
X0079967Y0079025D01*
X0079642Y0078426D02*
X0082221Y0078426D01*
X0082221Y0077828D02*
X0079642Y0077828D01*
X0079642Y0077229D02*
X0082221Y0077229D01*
X0082221Y0076631D02*
X0079642Y0076631D01*
X0079642Y0076032D02*
X0082221Y0076032D01*
X0082221Y0075434D02*
X0079642Y0075434D01*
X0079642Y0074835D02*
X0082221Y0074835D01*
X0082221Y0074237D02*
X0079642Y0074237D01*
X0079642Y0073638D02*
X0082221Y0073638D01*
X0082221Y0073040D02*
X0079642Y0073040D01*
X0079642Y0072441D02*
X0082221Y0072441D01*
X0082221Y0071843D02*
X0079642Y0071843D01*
X0079642Y0071244D02*
X0082221Y0071244D01*
X0082221Y0070646D02*
X0079642Y0070646D01*
X0079642Y0070047D02*
X0082221Y0070047D01*
X0082221Y0069449D02*
X0079642Y0069449D01*
X0079642Y0068850D02*
X0082221Y0068850D01*
X0082221Y0068252D02*
X0079642Y0068252D01*
X0079642Y0067653D02*
X0082221Y0067653D01*
X0082221Y0067055D02*
X0079642Y0067055D01*
X0079642Y0066456D02*
X0082221Y0066456D01*
X0082221Y0065858D02*
X0079642Y0065858D01*
X0079642Y0065259D02*
X0082221Y0065259D01*
X0082221Y0064661D02*
X0079642Y0064661D01*
X0079642Y0064062D02*
X0082221Y0064062D01*
X0082221Y0063464D02*
X0079642Y0063464D01*
X0079642Y0062865D02*
X0082221Y0062865D01*
X0082221Y0062267D02*
X0079642Y0062267D01*
X0079642Y0061668D02*
X0082221Y0061668D01*
X0082221Y0061070D02*
X0079642Y0061070D01*
X0079642Y0060471D02*
X0082221Y0060471D01*
X0082221Y0059873D02*
X0079642Y0059873D01*
X0079642Y0059274D02*
X0082221Y0059274D01*
X0082221Y0058676D02*
X0079642Y0058676D01*
X0079642Y0058077D02*
X0082221Y0058077D01*
X0082221Y0057479D02*
X0079642Y0057479D01*
X0079642Y0056880D02*
X0082221Y0056880D01*
X0082221Y0056282D02*
X0079642Y0056282D01*
X0079642Y0055683D02*
X0082221Y0055683D01*
X0082221Y0055084D02*
X0079642Y0055084D01*
X0079642Y0054486D02*
X0082221Y0054486D01*
X0082221Y0053887D02*
X0079642Y0053887D01*
X0079642Y0053289D02*
X0082221Y0053289D01*
X0082221Y0052690D02*
X0079642Y0052690D01*
X0079642Y0052092D02*
X0082221Y0052092D01*
X0082221Y0051493D02*
X0079642Y0051493D01*
X0079642Y0050895D02*
X0082221Y0050895D01*
X0082221Y0050296D02*
X0079642Y0050296D01*
X0079642Y0049698D02*
X0082221Y0049698D01*
X0082221Y0049099D02*
X0079642Y0049099D01*
X0079642Y0048501D02*
X0082221Y0048501D01*
X0082221Y0047902D02*
X0079642Y0047902D01*
X0079642Y0047304D02*
X0082242Y0047304D01*
X0082841Y0046705D02*
X0079642Y0046705D01*
X0079642Y0046107D02*
X0083439Y0046107D01*
X0084038Y0045508D02*
X0079642Y0045508D01*
X0079642Y0044910D02*
X0084636Y0044910D01*
X0085235Y0044311D02*
X0079642Y0044311D01*
X0080158Y0043713D02*
X0085833Y0043713D01*
X0086432Y0043114D02*
X0080406Y0043114D01*
X0080542Y0042516D02*
X0087030Y0042516D01*
X0087629Y0041917D02*
X0080542Y0041917D01*
X0080379Y0041319D02*
X0088227Y0041319D01*
X0088826Y0040720D02*
X0080130Y0040720D01*
X0079532Y0040122D02*
X0089424Y0040122D01*
X0090023Y0039523D02*
X0052547Y0039523D01*
X0052653Y0038925D02*
X0090622Y0038925D01*
X0091220Y0038326D02*
X0052609Y0038326D01*
X0052503Y0037728D02*
X0091819Y0037728D01*
X0092417Y0037129D02*
X0052398Y0037129D01*
X0052292Y0036531D02*
X0093016Y0036531D01*
X0093614Y0035932D02*
X0052187Y0035932D01*
X0051993Y0035334D02*
X0094213Y0035334D01*
X0094811Y0034735D02*
X0051647Y0034735D01*
X0051301Y0034137D02*
X0095410Y0034137D01*
X0077842Y0042250D02*
X0077842Y0079445D01*
X0077829Y0085373D02*
X0076342Y0086860D01*
X0076342Y0097250D01*
X0077342Y0103220D02*
X0081342Y0103220D01*
X0092972Y0114850D01*
X0094442Y0114850D01*
X0108342Y0128750D01*
X0105642Y0128701D02*
X0039976Y0128701D01*
X0041187Y0129300D02*
X0105647Y0129300D01*
X0105895Y0129898D02*
X0041844Y0129898D01*
X0042443Y0130497D02*
X0106270Y0130497D01*
X0106451Y0131095D02*
X0042871Y0131095D01*
X0043119Y0131694D02*
X0105852Y0131694D01*
X0105254Y0132292D02*
X0043366Y0132292D01*
X0043542Y0132891D02*
X0104655Y0132891D01*
X0104057Y0133489D02*
X0043542Y0133489D01*
X0043542Y0134088D02*
X0103458Y0134088D01*
X0102860Y0134687D02*
X0043542Y0134687D01*
X0043334Y0135285D02*
X0102261Y0135285D01*
X0101663Y0135884D02*
X0043087Y0135884D01*
X0042839Y0136482D02*
X0101064Y0136482D01*
X0100466Y0137081D02*
X0042365Y0137081D01*
X0041767Y0137679D02*
X0099867Y0137679D01*
X0099269Y0138278D02*
X0041000Y0138278D01*
X0040163Y0138876D02*
X0098670Y0138876D01*
X0098072Y0139475D02*
X0041420Y0139475D01*
X0042019Y0140073D02*
X0097473Y0140073D01*
X0096875Y0140672D02*
X0042617Y0140672D01*
X0042943Y0141270D02*
X0096276Y0141270D01*
X0095678Y0141869D02*
X0043191Y0141869D01*
X0043439Y0142467D02*
X0095079Y0142467D01*
X0094481Y0143066D02*
X0043542Y0143066D01*
X0043542Y0143664D02*
X0093882Y0143664D01*
X0093284Y0144263D02*
X0043542Y0144263D01*
X0043510Y0144861D02*
X0092685Y0144861D01*
X0092087Y0145460D02*
X0043262Y0145460D01*
X0043014Y0146058D02*
X0091488Y0146058D01*
X0090889Y0146657D02*
X0042766Y0146657D01*
X0042190Y0147255D02*
X0090291Y0147255D01*
X0089692Y0147854D02*
X0041592Y0147854D01*
X0040578Y0148452D02*
X0089094Y0148452D01*
X0088495Y0149051D02*
X0040585Y0149051D01*
X0041595Y0149649D02*
X0087897Y0149649D01*
X0087298Y0150248D02*
X0042194Y0150248D01*
X0042767Y0150846D02*
X0086700Y0150846D01*
X0086101Y0151445D02*
X0043015Y0151445D01*
X0043190Y0155634D02*
X0161442Y0155634D01*
X0161442Y0155036D02*
X0087601Y0155036D01*
X0088200Y0154437D02*
X0161442Y0154437D01*
X0161442Y0153839D02*
X0088799Y0153839D01*
X0089397Y0153240D02*
X0161442Y0153240D01*
X0161442Y0152642D02*
X0089996Y0152642D01*
X0090594Y0152043D02*
X0161442Y0152043D01*
X0161442Y0151445D02*
X0091193Y0151445D01*
X0091791Y0150846D02*
X0161442Y0150846D01*
X0161442Y0150248D02*
X0092390Y0150248D01*
X0092988Y0149649D02*
X0161442Y0149649D01*
X0161442Y0149051D02*
X0093587Y0149051D01*
X0094185Y0148452D02*
X0161442Y0148452D01*
X0161442Y0147854D02*
X0094784Y0147854D01*
X0095382Y0147255D02*
X0161442Y0147255D01*
X0161442Y0146657D02*
X0095981Y0146657D01*
X0096579Y0146058D02*
X0161442Y0146058D01*
X0161442Y0145460D02*
X0097178Y0145460D01*
X0097776Y0144861D02*
X0099258Y0144861D01*
X0098536Y0144263D02*
X0098375Y0144263D01*
X0101895Y0144861D02*
X0161442Y0144861D01*
X0161442Y0144263D02*
X0102617Y0144263D01*
X0103011Y0143664D02*
X0161442Y0143664D01*
X0161442Y0143066D02*
X0103259Y0143066D01*
X0105149Y0128103D02*
X0041343Y0128103D01*
X0041941Y0127504D02*
X0104551Y0127504D01*
X0103952Y0126906D02*
X0042540Y0126906D01*
X0042911Y0126307D02*
X0103354Y0126307D01*
X0102755Y0125709D02*
X0043159Y0125709D01*
X0043407Y0125110D02*
X0102157Y0125110D01*
X0101558Y0124512D02*
X0043542Y0124512D01*
X0043542Y0123913D02*
X0100960Y0123913D01*
X0100361Y0123315D02*
X0043542Y0123315D01*
X0043046Y0121519D02*
X0098565Y0121519D01*
X0097967Y0120921D02*
X0042798Y0120921D01*
X0042268Y0120322D02*
X0097368Y0120322D01*
X0096770Y0119724D02*
X0041669Y0119724D01*
X0040765Y0119125D02*
X0096171Y0119125D01*
X0095573Y0118527D02*
X0040398Y0118527D01*
X0041518Y0117928D02*
X0094974Y0117928D01*
X0094376Y0117330D02*
X0042116Y0117330D01*
X0042715Y0116731D02*
X0093777Y0116731D01*
X0091709Y0116133D02*
X0042983Y0116133D01*
X0043231Y0115534D02*
X0091111Y0115534D01*
X0090512Y0114936D02*
X0043479Y0114936D01*
X0043542Y0114337D02*
X0089913Y0114337D01*
X0089315Y0113739D02*
X0043542Y0113739D01*
X0043542Y0113140D02*
X0088716Y0113140D01*
X0088118Y0112542D02*
X0043470Y0112542D01*
X0043222Y0111943D02*
X0087519Y0111943D01*
X0086921Y0111345D02*
X0042974Y0111345D01*
X0042692Y0110746D02*
X0086322Y0110746D01*
X0085724Y0110148D02*
X0042093Y0110148D01*
X0041495Y0109549D02*
X0085125Y0109549D01*
X0084527Y0108951D02*
X0040343Y0108951D01*
X0040820Y0108352D02*
X0083928Y0108352D01*
X0083330Y0107753D02*
X0041692Y0107753D01*
X0042291Y0107155D02*
X0082731Y0107155D01*
X0082133Y0106556D02*
X0042808Y0106556D01*
X0043056Y0105958D02*
X0081534Y0105958D01*
X0080936Y0105359D02*
X0043304Y0105359D01*
X0038342Y0103750D02*
X0054977Y0087115D01*
X0054977Y0078250D01*
X0055277Y0075550D02*
X0055277Y0073231D01*
X0040522Y0058475D01*
X0039540Y0058882D01*
X0040261Y0059116D01*
X0040962Y0059474D01*
X0041599Y0059936D01*
X0042156Y0060493D01*
X0042618Y0061129D01*
X0042975Y0061831D01*
X0043219Y0062579D01*
X0043342Y0063356D01*
X0043342Y0063450D01*
X0038642Y0063450D01*
X0038642Y0064050D01*
X0043342Y0064050D01*
X0043342Y0064144D01*
X0043219Y0064921D01*
X0042975Y0065669D01*
X0042618Y0066371D01*
X0042156Y0067007D01*
X0041599Y0067564D01*
X0040962Y0068026D01*
X0040261Y0068384D01*
X0039540Y0068618D01*
X0041287Y0069342D01*
X0042750Y0070804D01*
X0043542Y0072716D01*
X0043542Y0074784D01*
X0042750Y0076696D01*
X0041287Y0078158D01*
X0039859Y0078750D01*
X0041287Y0079342D01*
X0041746Y0079800D01*
X0043127Y0078419D01*
X0043127Y0077728D01*
X0043538Y0076736D01*
X0044297Y0075976D01*
X0045290Y0075565D01*
X0046364Y0075565D01*
X0047356Y0075976D01*
X0048077Y0076697D01*
X0048812Y0075961D01*
X0049805Y0075550D01*
X0050879Y0075550D01*
X0051871Y0075961D01*
X0052631Y0076721D01*
X0052659Y0076789D01*
X0052688Y0076721D01*
X0053447Y0075961D01*
X0054440Y0075550D01*
X0055277Y0075550D01*
X0055277Y0075434D02*
X0043273Y0075434D01*
X0043025Y0076032D02*
X0044241Y0076032D01*
X0043643Y0076631D02*
X0042777Y0076631D01*
X0043333Y0077229D02*
X0042216Y0077229D01*
X0041618Y0077828D02*
X0043127Y0077828D01*
X0043120Y0078426D02*
X0040640Y0078426D01*
X0040523Y0079025D02*
X0042521Y0079025D01*
X0041923Y0079623D02*
X0041569Y0079623D01*
X0040342Y0083750D02*
X0038342Y0083750D01*
X0040342Y0083750D02*
X0045827Y0078265D01*
X0048011Y0076631D02*
X0048143Y0076631D01*
X0048741Y0076032D02*
X0047412Y0076032D01*
X0050342Y0078250D02*
X0042942Y0085650D01*
X0042942Y0085655D01*
X0040247Y0088350D01*
X0040242Y0088350D01*
X0038342Y0090250D01*
X0038342Y0093750D01*
X0038342Y0103750D02*
X0052007Y0090085D01*
X0054241Y0090397D02*
X0055844Y0090397D01*
X0055072Y0089798D02*
X0054839Y0089798D01*
X0057077Y0087985D02*
X0057077Y0072485D01*
X0038342Y0053750D01*
X0040039Y0058676D02*
X0040722Y0058676D01*
X0040571Y0059274D02*
X0041320Y0059274D01*
X0041512Y0059873D02*
X0041919Y0059873D01*
X0042134Y0060471D02*
X0042517Y0060471D01*
X0042575Y0061070D02*
X0043116Y0061070D01*
X0042893Y0061668D02*
X0043714Y0061668D01*
X0043117Y0062267D02*
X0044313Y0062267D01*
X0044911Y0062865D02*
X0043264Y0062865D01*
X0043342Y0064062D02*
X0046108Y0064062D01*
X0045510Y0063464D02*
X0038642Y0063464D01*
X0043260Y0064661D02*
X0046707Y0064661D01*
X0047305Y0065259D02*
X0043109Y0065259D01*
X0042880Y0065858D02*
X0047904Y0065858D01*
X0048502Y0066456D02*
X0042556Y0066456D01*
X0042108Y0067055D02*
X0049101Y0067055D01*
X0049699Y0067653D02*
X0041476Y0067653D01*
X0040520Y0068252D02*
X0050298Y0068252D01*
X0050896Y0068850D02*
X0040101Y0068850D01*
X0041394Y0069449D02*
X0051495Y0069449D01*
X0052094Y0070047D02*
X0041993Y0070047D01*
X0042592Y0070646D02*
X0052692Y0070646D01*
X0053291Y0071244D02*
X0042932Y0071244D01*
X0043180Y0071843D02*
X0053889Y0071843D01*
X0054488Y0072441D02*
X0043428Y0072441D01*
X0043542Y0073040D02*
X0055086Y0073040D01*
X0055277Y0073638D02*
X0043542Y0073638D01*
X0043542Y0074237D02*
X0055277Y0074237D01*
X0055277Y0074835D02*
X0043521Y0074835D01*
X0051943Y0076032D02*
X0053376Y0076032D01*
X0052777Y0076631D02*
X0052541Y0076631D01*
X0077829Y0085373D02*
X0080799Y0085373D01*
X0082899Y0087540D02*
X0078632Y0087540D01*
X0081342Y0092719D02*
X0081342Y0103220D01*
X0093842Y0101350D02*
X0093842Y0112750D01*
X0110842Y0101250D02*
X0110842Y0090750D01*
X0106842Y0086750D01*
X0113342Y0083265D02*
X0113527Y0083450D01*
X0118833Y0083450D01*
X0134942Y0099559D01*
X0134942Y0101299D01*
X0133712Y0102529D01*
X0135222Y0103564D02*
X0143140Y0103564D01*
X0143524Y0104162D02*
X0134624Y0104162D01*
X0135821Y0102965D02*
X0142542Y0102965D01*
X0141943Y0102367D02*
X0136419Y0102367D01*
X0136742Y0101768D02*
X0141345Y0101768D01*
X0140746Y0101170D02*
X0136742Y0101170D01*
X0136742Y0100571D02*
X0140148Y0100571D01*
X0139549Y0099973D02*
X0136742Y0099973D01*
X0136742Y0099374D02*
X0138951Y0099374D01*
X0138352Y0098776D02*
X0136704Y0098776D01*
X0136106Y0098177D02*
X0137754Y0098177D01*
X0137155Y0097579D02*
X0135507Y0097579D01*
X0134909Y0096980D02*
X0136557Y0096980D01*
X0135958Y0096382D02*
X0134310Y0096382D01*
X0133712Y0095783D02*
X0135360Y0095783D01*
X0134761Y0095185D02*
X0133113Y0095185D01*
X0132515Y0094586D02*
X0134163Y0094586D01*
X0133564Y0093988D02*
X0131916Y0093988D01*
X0131318Y0093389D02*
X0132966Y0093389D01*
X0132367Y0092791D02*
X0130719Y0092791D01*
X0130121Y0092192D02*
X0131769Y0092192D01*
X0131170Y0091594D02*
X0129522Y0091594D01*
X0128924Y0090995D02*
X0130572Y0090995D01*
X0129973Y0090397D02*
X0128325Y0090397D01*
X0127727Y0089798D02*
X0129375Y0089798D01*
X0128776Y0089200D02*
X0127128Y0089200D01*
X0126530Y0088601D02*
X0128177Y0088601D01*
X0127579Y0088003D02*
X0125931Y0088003D01*
X0125333Y0087404D02*
X0126980Y0087404D01*
X0126382Y0086806D02*
X0124734Y0086806D01*
X0124136Y0086207D02*
X0125783Y0086207D01*
X0125185Y0085609D02*
X0123537Y0085609D01*
X0122939Y0085010D02*
X0124586Y0085010D01*
X0123988Y0084412D02*
X0122340Y0084412D01*
X0121742Y0083813D02*
X0123389Y0083813D01*
X0122791Y0083215D02*
X0121143Y0083215D01*
X0120545Y0082616D02*
X0122192Y0082616D01*
X0122387Y0080265D02*
X0087357Y0080265D01*
X0086008Y0077828D02*
X0085821Y0077828D01*
X0085821Y0077229D02*
X0086008Y0077229D01*
X0086093Y0076631D02*
X0085821Y0076631D01*
X0085821Y0076032D02*
X0086341Y0076032D01*
X0086829Y0075434D02*
X0085821Y0075434D01*
X0087021Y0083265D02*
X0113342Y0083265D01*
X0114357Y0083265D01*
X0122387Y0080265D02*
X0146224Y0104102D01*
X0148186Y0105958D02*
X0148504Y0105958D01*
X0148642Y0106556D02*
X0147354Y0106556D01*
X0148794Y0107155D02*
X0129742Y0107155D01*
X0129742Y0107753D02*
X0149042Y0107753D01*
X0149625Y0108352D02*
X0129742Y0108352D01*
X0129742Y0106556D02*
X0145094Y0106556D01*
X0144262Y0105958D02*
X0129742Y0105958D01*
X0129742Y0105359D02*
X0143822Y0105359D01*
X0143574Y0104761D02*
X0129742Y0104761D01*
X0119842Y0120250D02*
X0086342Y0153750D01*
X0038342Y0153750D01*
X0042016Y0157430D02*
X0161442Y0157430D01*
X0161442Y0158028D02*
X0041417Y0158028D01*
X0040156Y0158627D02*
X0161442Y0158627D01*
X0161442Y0159225D02*
X0035242Y0159225D01*
X0035242Y0158627D02*
X0036528Y0158627D01*
X0035266Y0158028D02*
X0035242Y0158028D01*
X0035242Y0159824D02*
X0040967Y0159824D01*
X0039322Y0160422D02*
X0035242Y0160422D01*
X0035242Y0161021D02*
X0038240Y0161021D01*
X0037527Y0161620D02*
X0035242Y0161620D01*
X0035242Y0162218D02*
X0036814Y0162218D01*
X0036144Y0162817D02*
X0035242Y0162817D01*
X0035242Y0163415D02*
X0035799Y0163415D01*
X0035453Y0164014D02*
X0035242Y0164014D01*
X0042614Y0156831D02*
X0161442Y0156831D01*
X0161442Y0156233D02*
X0042942Y0156233D01*
X0045717Y0159824D02*
X0161442Y0159824D01*
X0161442Y0160422D02*
X0047361Y0160422D01*
X0048443Y0161021D02*
X0161442Y0161021D01*
X0161442Y0161620D02*
X0049157Y0161620D01*
X0049870Y0162218D02*
X0161442Y0162218D01*
X0161442Y0162817D02*
X0050539Y0162817D01*
X0050885Y0163415D02*
X0161442Y0163415D01*
X0161442Y0164014D02*
X0051230Y0164014D01*
X0051576Y0164612D02*
X0161442Y0164612D01*
X0161442Y0165211D02*
X0051922Y0165211D01*
X0052165Y0165809D02*
X0161442Y0165809D01*
X0161442Y0166408D02*
X0052271Y0166408D01*
X0052376Y0167006D02*
X0161442Y0167006D01*
X0161442Y0167605D02*
X0052482Y0167605D01*
X0052587Y0168203D02*
X0161442Y0168203D01*
X0161442Y0168802D02*
X0052675Y0168802D01*
X0052569Y0169400D02*
X0161442Y0169400D01*
X0161442Y0169999D02*
X0052464Y0169999D01*
X0052358Y0170597D02*
X0161442Y0170597D01*
X0161442Y0171196D02*
X0052252Y0171196D01*
X0052147Y0171794D02*
X0161442Y0171794D01*
X0161442Y0172393D02*
X0051862Y0172393D01*
X0051516Y0172991D02*
X0161442Y0172991D01*
X0161442Y0173590D02*
X0051171Y0173590D01*
X0050825Y0174188D02*
X0161442Y0174188D01*
X0161442Y0174787D02*
X0050460Y0174787D01*
X0049747Y0175385D02*
X0161442Y0175385D01*
X0161442Y0175984D02*
X0049034Y0175984D01*
X0048320Y0176582D02*
X0161442Y0176582D01*
X0159120Y0185418D02*
X0160143Y0186951D01*
X0159834Y0188494D01*
X0158524Y0189367D01*
X0156981Y0189059D01*
X0156725Y0188675D01*
X0156469Y0189059D01*
X0154926Y0189367D01*
X0153902Y0188685D01*
X0153111Y0189250D01*
X0151340Y0189250D01*
X0149898Y0188221D01*
X0149851Y0188082D01*
X0148994Y0188768D01*
X0148512Y0189250D01*
X0148392Y0189250D01*
X0148298Y0189325D01*
X0147620Y0189250D01*
X0146938Y0189250D01*
X0146853Y0189165D01*
X0146733Y0189151D01*
X0110684Y0189151D01*
X0110631Y0189279D02*
X0109871Y0190039D01*
X0108879Y0190450D01*
X0107805Y0190450D01*
X0106812Y0190039D01*
X0106323Y0189550D01*
X0097087Y0189550D01*
X0085821Y0200817D01*
X0085821Y0229983D01*
X0085827Y0229976D01*
X0086008Y0229901D01*
X0086008Y0228836D01*
X0086419Y0227844D01*
X0087179Y0227085D01*
X0088171Y0226673D01*
X0089245Y0226673D01*
X0090237Y0227085D01*
X0090726Y0227573D01*
X0123211Y0227573D01*
X0124265Y0228628D01*
X0151187Y0255550D01*
X0151879Y0255550D01*
X0152871Y0255961D01*
X0153631Y0256721D01*
X0154042Y0257713D01*
X0154042Y0258787D01*
X0153631Y0259779D01*
X0152871Y0260539D01*
X0151879Y0260950D01*
X0150805Y0260950D01*
X0149812Y0260539D01*
X0149053Y0259779D01*
X0148642Y0258787D01*
X0148642Y0258096D01*
X0148345Y0257799D01*
X0147753Y0258391D01*
X0146761Y0258802D01*
X0145687Y0258802D01*
X0144695Y0258391D01*
X0143935Y0257631D01*
X0143524Y0256639D01*
X0143524Y0255948D01*
X0121641Y0234065D01*
X0119994Y0234065D01*
X0136742Y0250813D01*
X0136742Y0254044D01*
X0135512Y0255274D01*
X0134457Y0256329D01*
X0129742Y0256329D01*
X0129742Y0267865D01*
X0103277Y0294331D01*
X0103277Y0295022D01*
X0102866Y0296014D01*
X0102106Y0296774D01*
X0101114Y0297185D01*
X0100040Y0297185D01*
X0099047Y0296774D01*
X0098455Y0296182D01*
X0088142Y0306496D01*
X0087087Y0307550D01*
X0043225Y0307550D01*
X0042750Y0308696D01*
X0041287Y0310158D01*
X0039376Y0310950D01*
X0037307Y0310950D01*
X0035396Y0310158D01*
X0035242Y0310004D01*
X0035242Y0316380D01*
X0036185Y0314745D01*
X0038671Y0312660D01*
X0041720Y0311550D01*
X0044964Y0311550D01*
X0048013Y0312660D01*
X0050498Y0314745D01*
X0050498Y0314745D01*
X0050498Y0314745D01*
X0052120Y0317555D01*
X0052684Y0320750D01*
X0052120Y0323945D01*
X0050498Y0326755D01*
X0048013Y0328840D01*
X0048013Y0328840D01*
X0047986Y0328850D01*
X0161442Y0328850D01*
X0161442Y0185978D01*
X0161389Y0186000D01*
X0160295Y0186000D01*
X0159284Y0185581D01*
X0159120Y0185418D01*
X0159215Y0185560D02*
X0159263Y0185560D01*
X0159614Y0186158D02*
X0161442Y0186158D01*
X0161442Y0186757D02*
X0160013Y0186757D01*
X0160062Y0187355D02*
X0161442Y0187355D01*
X0161442Y0187954D02*
X0159942Y0187954D01*
X0159747Y0188553D02*
X0161442Y0188553D01*
X0161442Y0189151D02*
X0158849Y0189151D01*
X0157442Y0189151D02*
X0156008Y0189151D01*
X0154601Y0189151D02*
X0153249Y0189151D01*
X0151340Y0189250D02*
X0151340Y0189250D01*
X0151201Y0189151D02*
X0148611Y0189151D01*
X0149263Y0188553D02*
X0150363Y0188553D01*
X0149898Y0188221D02*
X0149898Y0188221D01*
X0146733Y0189151D02*
X0146307Y0188619D01*
X0145825Y0188137D01*
X0145825Y0188016D01*
X0145750Y0187922D01*
X0145825Y0187245D01*
X0145825Y0185050D01*
X0145771Y0185050D01*
X0144658Y0183937D01*
X0144658Y0182650D01*
X0047986Y0182650D01*
X0048013Y0182660D01*
X0050498Y0184745D01*
X0050498Y0184745D01*
X0050498Y0184745D01*
X0052120Y0187555D01*
X0052684Y0190750D01*
X0052120Y0193945D01*
X0050498Y0196755D01*
X0048013Y0198840D01*
X0048013Y0198840D01*
X0044964Y0199950D01*
X0041720Y0199950D01*
X0038671Y0198840D01*
X0036185Y0196755D01*
X0035242Y0195120D01*
X0035242Y0201496D01*
X0035396Y0201342D01*
X0037307Y0200550D01*
X0039376Y0200550D01*
X0041287Y0201342D01*
X0042750Y0202804D01*
X0043542Y0204716D01*
X0043542Y0206784D01*
X0043067Y0207930D01*
X0058877Y0223739D01*
X0058877Y0237967D01*
X0059366Y0238455D01*
X0059777Y0239448D01*
X0059777Y0240522D01*
X0059366Y0241514D01*
X0058606Y0242274D01*
X0057614Y0242685D01*
X0056540Y0242685D01*
X0055547Y0242274D01*
X0054955Y0241682D01*
X0043067Y0253570D01*
X0043542Y0254716D01*
X0043542Y0256784D01*
X0042750Y0258696D01*
X0041287Y0260158D01*
X0039859Y0260750D01*
X0041287Y0261342D01*
X0042750Y0262804D01*
X0043542Y0264716D01*
X0043542Y0266784D01*
X0042750Y0268696D01*
X0041287Y0270158D01*
X0039859Y0270750D01*
X0041287Y0271342D01*
X0042750Y0272804D01*
X0043542Y0274716D01*
X0043542Y0276784D01*
X0042750Y0278696D01*
X0041287Y0280158D01*
X0039859Y0280750D01*
X0041287Y0281342D01*
X0042750Y0282804D01*
X0043542Y0284716D01*
X0043542Y0286784D01*
X0042750Y0288696D01*
X0041287Y0290158D01*
X0039859Y0290750D01*
X0041287Y0291342D01*
X0042750Y0292804D01*
X0043542Y0294716D01*
X0043542Y0296784D01*
X0042750Y0298696D01*
X0041287Y0300158D01*
X0039859Y0300750D01*
X0041287Y0301342D01*
X0042750Y0302804D01*
X0043225Y0303950D01*
X0085596Y0303950D01*
X0106660Y0282886D01*
X0106053Y0282279D01*
X0105642Y0281287D01*
X0105642Y0280596D01*
X0093696Y0268650D01*
X0092226Y0268650D01*
X0091172Y0267596D01*
X0091172Y0267596D01*
X0080596Y0257020D01*
X0076596Y0257020D01*
X0073496Y0253920D01*
X0072442Y0252865D01*
X0072442Y0230918D01*
X0072642Y0230718D01*
X0072642Y0230026D01*
X0073053Y0229034D01*
X0073812Y0228274D01*
X0074805Y0227863D01*
X0075879Y0227863D01*
X0076042Y0227931D01*
X0076042Y0196268D01*
X0075553Y0195779D01*
X0075142Y0194787D01*
X0075142Y0193713D01*
X0075553Y0192721D01*
X0076312Y0191961D01*
X0077305Y0191550D01*
X0078379Y0191550D01*
X0079371Y0191961D01*
X0080131Y0192721D01*
X0080542Y0193713D01*
X0080542Y0194787D01*
X0080131Y0195779D01*
X0079642Y0196268D01*
X0079642Y0230700D01*
X0081873Y0232931D01*
X0082221Y0232583D01*
X0082221Y0199326D01*
X0079642Y0199326D01*
X0079642Y0199924D02*
X0082221Y0199924D01*
X0082221Y0199326D02*
X0094542Y0187004D01*
X0095596Y0185950D01*
X0106323Y0185950D01*
X0106812Y0185461D01*
X0107805Y0185050D01*
X0108879Y0185050D01*
X0109871Y0185461D01*
X0110631Y0186221D01*
X0111042Y0187213D01*
X0111042Y0188287D01*
X0110631Y0189279D01*
X0110161Y0189750D02*
X0161442Y0189750D01*
X0161442Y0190348D02*
X0109125Y0190348D01*
X0107559Y0190348D02*
X0096289Y0190348D01*
X0095691Y0190947D02*
X0161442Y0190947D01*
X0161442Y0191545D02*
X0095092Y0191545D01*
X0094494Y0192144D02*
X0161442Y0192144D01*
X0161442Y0192742D02*
X0093895Y0192742D01*
X0093297Y0193341D02*
X0161442Y0193341D01*
X0161442Y0193939D02*
X0092698Y0193939D01*
X0092100Y0194538D02*
X0161442Y0194538D01*
X0161442Y0195136D02*
X0091501Y0195136D01*
X0090903Y0195735D02*
X0161442Y0195735D01*
X0161442Y0196333D02*
X0090304Y0196333D01*
X0089706Y0196932D02*
X0161442Y0196932D01*
X0161442Y0197530D02*
X0089107Y0197530D01*
X0088509Y0198129D02*
X0161442Y0198129D01*
X0161442Y0198727D02*
X0087910Y0198727D01*
X0087312Y0199326D02*
X0161442Y0199326D01*
X0161442Y0199924D02*
X0086713Y0199924D01*
X0086115Y0200523D02*
X0161442Y0200523D01*
X0161442Y0201121D02*
X0085821Y0201121D01*
X0085821Y0201720D02*
X0161442Y0201720D01*
X0161442Y0202318D02*
X0085821Y0202318D01*
X0085821Y0202917D02*
X0161442Y0202917D01*
X0161442Y0203515D02*
X0085821Y0203515D01*
X0085821Y0204114D02*
X0161442Y0204114D01*
X0161442Y0204712D02*
X0085821Y0204712D01*
X0085821Y0205311D02*
X0161442Y0205311D01*
X0161442Y0205909D02*
X0085821Y0205909D01*
X0085821Y0206508D02*
X0161442Y0206508D01*
X0161442Y0207106D02*
X0085821Y0207106D01*
X0085821Y0207705D02*
X0161442Y0207705D01*
X0161442Y0208303D02*
X0085821Y0208303D01*
X0085821Y0208902D02*
X0161442Y0208902D01*
X0161442Y0209500D02*
X0085821Y0209500D01*
X0085821Y0210099D02*
X0161442Y0210099D01*
X0161442Y0210697D02*
X0085821Y0210697D01*
X0085821Y0211296D02*
X0161442Y0211296D01*
X0161442Y0211894D02*
X0085821Y0211894D01*
X0085821Y0212493D02*
X0161442Y0212493D01*
X0161442Y0213091D02*
X0085821Y0213091D01*
X0085821Y0213690D02*
X0161442Y0213690D01*
X0161442Y0214289D02*
X0085821Y0214289D01*
X0085821Y0214887D02*
X0161442Y0214887D01*
X0161442Y0215486D02*
X0085821Y0215486D01*
X0085821Y0216084D02*
X0161442Y0216084D01*
X0161442Y0216683D02*
X0085821Y0216683D01*
X0085821Y0217281D02*
X0161442Y0217281D01*
X0161442Y0217880D02*
X0085821Y0217880D01*
X0085821Y0218478D02*
X0161442Y0218478D01*
X0161442Y0219077D02*
X0085821Y0219077D01*
X0085821Y0219675D02*
X0161442Y0219675D01*
X0161442Y0220274D02*
X0085821Y0220274D01*
X0085821Y0220872D02*
X0161442Y0220872D01*
X0161442Y0221471D02*
X0085821Y0221471D01*
X0085821Y0222069D02*
X0161442Y0222069D01*
X0161442Y0222668D02*
X0085821Y0222668D01*
X0085821Y0223266D02*
X0161442Y0223266D01*
X0161442Y0223865D02*
X0085821Y0223865D01*
X0085821Y0224463D02*
X0161442Y0224463D01*
X0161442Y0225062D02*
X0085821Y0225062D01*
X0085821Y0225660D02*
X0161442Y0225660D01*
X0161442Y0226259D02*
X0085821Y0226259D01*
X0085821Y0226857D02*
X0087727Y0226857D01*
X0086807Y0227456D02*
X0085821Y0227456D01*
X0085821Y0228054D02*
X0086332Y0228054D01*
X0086084Y0228653D02*
X0085821Y0228653D01*
X0085821Y0229251D02*
X0086008Y0229251D01*
X0086008Y0229850D02*
X0085821Y0229850D01*
X0087357Y0232265D02*
X0122387Y0232265D01*
X0146224Y0256102D01*
X0148165Y0257980D02*
X0148526Y0257980D01*
X0148642Y0258578D02*
X0147301Y0258578D01*
X0148803Y0259177D02*
X0129742Y0259177D01*
X0129742Y0259775D02*
X0149051Y0259775D01*
X0149647Y0260374D02*
X0129742Y0260374D01*
X0129742Y0260972D02*
X0161442Y0260972D01*
X0161442Y0260374D02*
X0153036Y0260374D01*
X0153632Y0259775D02*
X0161442Y0259775D01*
X0161442Y0259177D02*
X0153880Y0259177D01*
X0154042Y0258578D02*
X0161442Y0258578D01*
X0161442Y0257980D02*
X0154042Y0257980D01*
X0153904Y0257381D02*
X0161442Y0257381D01*
X0161442Y0256783D02*
X0153657Y0256783D01*
X0153094Y0256184D02*
X0161442Y0256184D01*
X0161442Y0255586D02*
X0151965Y0255586D01*
X0150625Y0254987D02*
X0161442Y0254987D01*
X0161442Y0254389D02*
X0150026Y0254389D01*
X0149428Y0253790D02*
X0161442Y0253790D01*
X0161442Y0253192D02*
X0148829Y0253192D01*
X0148231Y0252593D02*
X0161442Y0252593D01*
X0161442Y0251995D02*
X0147632Y0251995D01*
X0147034Y0251396D02*
X0161442Y0251396D01*
X0161442Y0250798D02*
X0146435Y0250798D01*
X0145837Y0250199D02*
X0161442Y0250199D01*
X0161442Y0249601D02*
X0145238Y0249601D01*
X0144640Y0249002D02*
X0161442Y0249002D01*
X0161442Y0248404D02*
X0144041Y0248404D01*
X0143443Y0247805D02*
X0161442Y0247805D01*
X0161442Y0247207D02*
X0142844Y0247207D01*
X0142246Y0246608D02*
X0161442Y0246608D01*
X0161442Y0246010D02*
X0141647Y0246010D01*
X0141048Y0245411D02*
X0161442Y0245411D01*
X0161442Y0244813D02*
X0140450Y0244813D01*
X0139851Y0244214D02*
X0161442Y0244214D01*
X0161442Y0243616D02*
X0139253Y0243616D01*
X0138654Y0243017D02*
X0161442Y0243017D01*
X0161442Y0242419D02*
X0138056Y0242419D01*
X0137457Y0241820D02*
X0161442Y0241820D01*
X0161442Y0241222D02*
X0136859Y0241222D01*
X0136260Y0240623D02*
X0161442Y0240623D01*
X0161442Y0240024D02*
X0135662Y0240024D01*
X0135063Y0239426D02*
X0161442Y0239426D01*
X0161442Y0238827D02*
X0134465Y0238827D01*
X0133866Y0238229D02*
X0161442Y0238229D01*
X0161442Y0237630D02*
X0133268Y0237630D01*
X0132669Y0237032D02*
X0161442Y0237032D01*
X0161442Y0236433D02*
X0132071Y0236433D01*
X0131472Y0235835D02*
X0161442Y0235835D01*
X0161442Y0235236D02*
X0130874Y0235236D01*
X0130275Y0234638D02*
X0161442Y0234638D01*
X0161442Y0234039D02*
X0129677Y0234039D01*
X0129078Y0233441D02*
X0161442Y0233441D01*
X0161442Y0232842D02*
X0128480Y0232842D01*
X0127881Y0232244D02*
X0161442Y0232244D01*
X0161442Y0231645D02*
X0127283Y0231645D01*
X0126684Y0231047D02*
X0161442Y0231047D01*
X0161442Y0230448D02*
X0126086Y0230448D01*
X0125487Y0229850D02*
X0161442Y0229850D01*
X0161442Y0229251D02*
X0124889Y0229251D01*
X0124290Y0228653D02*
X0161442Y0228653D01*
X0161442Y0228054D02*
X0123692Y0228054D01*
X0122465Y0229373D02*
X0088708Y0229373D01*
X0090609Y0227456D02*
X0161442Y0227456D01*
X0161442Y0226857D02*
X0089689Y0226857D01*
X0082221Y0226857D02*
X0079642Y0226857D01*
X0079642Y0226259D02*
X0082221Y0226259D01*
X0082221Y0225660D02*
X0079642Y0225660D01*
X0079642Y0225062D02*
X0082221Y0225062D01*
X0082221Y0224463D02*
X0079642Y0224463D01*
X0079642Y0223865D02*
X0082221Y0223865D01*
X0082221Y0223266D02*
X0079642Y0223266D01*
X0079642Y0222668D02*
X0082221Y0222668D01*
X0082221Y0222069D02*
X0079642Y0222069D01*
X0079642Y0221471D02*
X0082221Y0221471D01*
X0082221Y0220872D02*
X0079642Y0220872D01*
X0079642Y0220274D02*
X0082221Y0220274D01*
X0082221Y0219675D02*
X0079642Y0219675D01*
X0079642Y0219077D02*
X0082221Y0219077D01*
X0082221Y0218478D02*
X0079642Y0218478D01*
X0079642Y0217880D02*
X0082221Y0217880D01*
X0082221Y0217281D02*
X0079642Y0217281D01*
X0079642Y0216683D02*
X0082221Y0216683D01*
X0082221Y0216084D02*
X0079642Y0216084D01*
X0079642Y0215486D02*
X0082221Y0215486D01*
X0082221Y0214887D02*
X0079642Y0214887D01*
X0079642Y0214289D02*
X0082221Y0214289D01*
X0082221Y0213690D02*
X0079642Y0213690D01*
X0079642Y0213091D02*
X0082221Y0213091D01*
X0082221Y0212493D02*
X0079642Y0212493D01*
X0079642Y0211894D02*
X0082221Y0211894D01*
X0082221Y0211296D02*
X0079642Y0211296D01*
X0079642Y0210697D02*
X0082221Y0210697D01*
X0082221Y0210099D02*
X0079642Y0210099D01*
X0079642Y0209500D02*
X0082221Y0209500D01*
X0082221Y0208902D02*
X0079642Y0208902D01*
X0079642Y0208303D02*
X0082221Y0208303D01*
X0082221Y0207705D02*
X0079642Y0207705D01*
X0079642Y0207106D02*
X0082221Y0207106D01*
X0082221Y0206508D02*
X0079642Y0206508D01*
X0079642Y0205909D02*
X0082221Y0205909D01*
X0082221Y0205311D02*
X0079642Y0205311D01*
X0079642Y0204712D02*
X0082221Y0204712D01*
X0082221Y0204114D02*
X0079642Y0204114D01*
X0079642Y0203515D02*
X0082221Y0203515D01*
X0082221Y0202917D02*
X0079642Y0202917D01*
X0079642Y0202318D02*
X0082221Y0202318D01*
X0082221Y0201720D02*
X0079642Y0201720D01*
X0079642Y0201121D02*
X0082221Y0201121D01*
X0082221Y0200523D02*
X0079642Y0200523D01*
X0079642Y0198727D02*
X0082819Y0198727D01*
X0083418Y0198129D02*
X0079642Y0198129D01*
X0079642Y0197530D02*
X0084016Y0197530D01*
X0084615Y0196932D02*
X0079642Y0196932D01*
X0079642Y0196333D02*
X0085213Y0196333D01*
X0085812Y0195735D02*
X0080149Y0195735D01*
X0080397Y0195136D02*
X0086410Y0195136D01*
X0087009Y0194538D02*
X0080542Y0194538D01*
X0080542Y0193939D02*
X0087607Y0193939D01*
X0088206Y0193341D02*
X0080388Y0193341D01*
X0080140Y0192742D02*
X0088804Y0192742D01*
X0089403Y0192144D02*
X0079554Y0192144D01*
X0077842Y0194250D02*
X0077842Y0231445D01*
X0082899Y0236503D01*
X0082899Y0239540D01*
X0091537Y0239540D01*
X0091842Y0239844D01*
X0091842Y0251250D01*
X0093842Y0253350D02*
X0093942Y0253350D01*
X0093942Y0236650D01*
X0117063Y0236650D01*
X0132842Y0252429D01*
X0133712Y0254529D02*
X0128639Y0254529D01*
X0127942Y0253832D01*
X0127942Y0267120D01*
X0100577Y0294485D01*
X0103277Y0294489D02*
X0161442Y0294489D01*
X0161442Y0293891D02*
X0103717Y0293891D01*
X0104315Y0293292D02*
X0161442Y0293292D01*
X0161442Y0292693D02*
X0104914Y0292693D01*
X0105512Y0292095D02*
X0161442Y0292095D01*
X0161442Y0291496D02*
X0106111Y0291496D01*
X0106709Y0290898D02*
X0161442Y0290898D01*
X0161442Y0290299D02*
X0107308Y0290299D01*
X0107906Y0289701D02*
X0161442Y0289701D01*
X0161442Y0289102D02*
X0108505Y0289102D01*
X0109103Y0288504D02*
X0161442Y0288504D01*
X0161442Y0287905D02*
X0109702Y0287905D01*
X0110300Y0287307D02*
X0161442Y0287307D01*
X0161442Y0286708D02*
X0110899Y0286708D01*
X0111497Y0286110D02*
X0161442Y0286110D01*
X0161442Y0285511D02*
X0112096Y0285511D01*
X0112694Y0284913D02*
X0161442Y0284913D01*
X0161442Y0284314D02*
X0113293Y0284314D01*
X0113891Y0283716D02*
X0161442Y0283716D01*
X0161442Y0283117D02*
X0114490Y0283117D01*
X0115088Y0282519D02*
X0161442Y0282519D01*
X0161442Y0281920D02*
X0115687Y0281920D01*
X0116285Y0281322D02*
X0161442Y0281322D01*
X0161442Y0280723D02*
X0116884Y0280723D01*
X0117482Y0280125D02*
X0161442Y0280125D01*
X0161442Y0279526D02*
X0118081Y0279526D01*
X0118680Y0278928D02*
X0161442Y0278928D01*
X0161442Y0278329D02*
X0119278Y0278329D01*
X0119877Y0277731D02*
X0161442Y0277731D01*
X0161442Y0277132D02*
X0120475Y0277132D01*
X0121074Y0276534D02*
X0161442Y0276534D01*
X0161442Y0275935D02*
X0121672Y0275935D01*
X0122271Y0275337D02*
X0161442Y0275337D01*
X0161442Y0274738D02*
X0122869Y0274738D01*
X0123468Y0274140D02*
X0161442Y0274140D01*
X0161442Y0273541D02*
X0124066Y0273541D01*
X0124665Y0272943D02*
X0161442Y0272943D01*
X0161442Y0272344D02*
X0125263Y0272344D01*
X0125862Y0271746D02*
X0161442Y0271746D01*
X0161442Y0271147D02*
X0126460Y0271147D01*
X0127059Y0270549D02*
X0161442Y0270549D01*
X0161442Y0269950D02*
X0127657Y0269950D01*
X0128256Y0269352D02*
X0161442Y0269352D01*
X0161442Y0268753D02*
X0128854Y0268753D01*
X0129453Y0268155D02*
X0161442Y0268155D01*
X0161442Y0267556D02*
X0129742Y0267556D01*
X0129742Y0266958D02*
X0161442Y0266958D01*
X0161442Y0266359D02*
X0129742Y0266359D01*
X0129742Y0265760D02*
X0161442Y0265760D01*
X0161442Y0265162D02*
X0129742Y0265162D01*
X0129742Y0264563D02*
X0161442Y0264563D01*
X0161442Y0263965D02*
X0129742Y0263965D01*
X0129742Y0263366D02*
X0161442Y0263366D01*
X0161442Y0262768D02*
X0129742Y0262768D01*
X0129742Y0262169D02*
X0161442Y0262169D01*
X0161442Y0261571D02*
X0129742Y0261571D01*
X0129742Y0258578D02*
X0145147Y0258578D01*
X0144283Y0257980D02*
X0129742Y0257980D01*
X0129742Y0257381D02*
X0143831Y0257381D01*
X0143584Y0256783D02*
X0129742Y0256783D01*
X0133712Y0254529D02*
X0134942Y0253299D01*
X0134942Y0251559D01*
X0118833Y0235450D01*
X0113527Y0235450D01*
X0113342Y0235265D01*
X0114357Y0235265D01*
X0113342Y0235265D02*
X0087021Y0235265D01*
X0089088Y0237440D02*
X0089878Y0236650D01*
X0093942Y0236650D01*
X0084021Y0234601D02*
X0084021Y0200071D01*
X0096342Y0187750D01*
X0108342Y0187750D01*
X0110853Y0186757D02*
X0145825Y0186757D01*
X0145825Y0186158D02*
X0110569Y0186158D01*
X0109970Y0185560D02*
X0145825Y0185560D01*
X0145683Y0184961D02*
X0050623Y0184961D01*
X0050969Y0185560D02*
X0106713Y0185560D01*
X0106523Y0189750D02*
X0096888Y0189750D01*
X0094191Y0187355D02*
X0052005Y0187355D01*
X0052120Y0187555D02*
X0052120Y0187555D01*
X0052191Y0187954D02*
X0093592Y0187954D01*
X0092994Y0188553D02*
X0052296Y0188553D01*
X0052402Y0189151D02*
X0092395Y0189151D01*
X0091797Y0189750D02*
X0052507Y0189750D01*
X0052613Y0190348D02*
X0091198Y0190348D01*
X0090600Y0190947D02*
X0052649Y0190947D01*
X0052684Y0190750D02*
X0052684Y0190750D01*
X0052544Y0191545D02*
X0090001Y0191545D01*
X0094789Y0186757D02*
X0051660Y0186757D01*
X0051314Y0186158D02*
X0095388Y0186158D01*
X0111042Y0187355D02*
X0145813Y0187355D01*
X0145775Y0187954D02*
X0111042Y0187954D01*
X0110932Y0188553D02*
X0146241Y0188553D01*
X0145084Y0184363D02*
X0050043Y0184363D01*
X0049329Y0183764D02*
X0144658Y0183764D01*
X0144658Y0183166D02*
X0048616Y0183166D01*
X0048013Y0182660D02*
X0048013Y0182660D01*
X0052438Y0192144D02*
X0076130Y0192144D01*
X0075544Y0192742D02*
X0052332Y0192742D01*
X0052227Y0193341D02*
X0075296Y0193341D01*
X0075142Y0193939D02*
X0052121Y0193939D01*
X0052120Y0193945D02*
X0052120Y0193945D01*
X0051778Y0194538D02*
X0075142Y0194538D01*
X0075286Y0195136D02*
X0051433Y0195136D01*
X0051087Y0195735D02*
X0075534Y0195735D01*
X0076042Y0196333D02*
X0050742Y0196333D01*
X0050498Y0196755D02*
X0050498Y0196755D01*
X0050287Y0196932D02*
X0076042Y0196932D01*
X0076042Y0197530D02*
X0049574Y0197530D01*
X0048861Y0198129D02*
X0076042Y0198129D01*
X0076042Y0198727D02*
X0048148Y0198727D01*
X0046679Y0199326D02*
X0076042Y0199326D01*
X0076042Y0199924D02*
X0045035Y0199924D01*
X0041649Y0199924D02*
X0035242Y0199924D01*
X0035242Y0199326D02*
X0040004Y0199326D01*
X0038671Y0198840D02*
X0038671Y0198840D01*
X0038536Y0198727D02*
X0035242Y0198727D01*
X0035242Y0198129D02*
X0037823Y0198129D01*
X0037109Y0197530D02*
X0035242Y0197530D01*
X0035242Y0196932D02*
X0036396Y0196932D01*
X0036185Y0196755D02*
X0036185Y0196755D01*
X0036185Y0196755D01*
X0035942Y0196333D02*
X0035242Y0196333D01*
X0035242Y0195735D02*
X0035596Y0195735D01*
X0035251Y0195136D02*
X0035242Y0195136D01*
X0035242Y0200523D02*
X0076042Y0200523D01*
X0076042Y0201121D02*
X0040755Y0201121D01*
X0041665Y0201720D02*
X0076042Y0201720D01*
X0076042Y0202318D02*
X0042264Y0202318D01*
X0042797Y0202917D02*
X0076042Y0202917D01*
X0076042Y0203515D02*
X0043045Y0203515D01*
X0043293Y0204114D02*
X0076042Y0204114D01*
X0076042Y0204712D02*
X0043540Y0204712D01*
X0043542Y0205311D02*
X0076042Y0205311D01*
X0076042Y0205909D02*
X0043542Y0205909D01*
X0043542Y0206508D02*
X0076042Y0206508D01*
X0076042Y0207106D02*
X0043408Y0207106D01*
X0043160Y0207705D02*
X0076042Y0207705D01*
X0076042Y0208303D02*
X0043441Y0208303D01*
X0044039Y0208902D02*
X0076042Y0208902D01*
X0076042Y0209500D02*
X0044638Y0209500D01*
X0045236Y0210099D02*
X0076042Y0210099D01*
X0076042Y0210697D02*
X0045835Y0210697D01*
X0046433Y0211296D02*
X0076042Y0211296D01*
X0076042Y0211894D02*
X0047032Y0211894D01*
X0047630Y0212493D02*
X0076042Y0212493D01*
X0076042Y0213091D02*
X0048229Y0213091D01*
X0048827Y0213690D02*
X0076042Y0213690D01*
X0076042Y0214289D02*
X0049426Y0214289D01*
X0050024Y0214887D02*
X0076042Y0214887D01*
X0076042Y0215486D02*
X0050623Y0215486D01*
X0051221Y0216084D02*
X0076042Y0216084D01*
X0076042Y0216683D02*
X0051820Y0216683D01*
X0052418Y0217281D02*
X0076042Y0217281D01*
X0076042Y0217880D02*
X0053017Y0217880D01*
X0053615Y0218478D02*
X0076042Y0218478D01*
X0076042Y0219077D02*
X0054214Y0219077D01*
X0054812Y0219675D02*
X0076042Y0219675D01*
X0076042Y0220274D02*
X0055411Y0220274D01*
X0056010Y0220872D02*
X0076042Y0220872D01*
X0076042Y0221471D02*
X0056608Y0221471D01*
X0057207Y0222069D02*
X0076042Y0222069D01*
X0076042Y0222668D02*
X0057805Y0222668D01*
X0058404Y0223266D02*
X0076042Y0223266D01*
X0076042Y0223865D02*
X0058877Y0223865D01*
X0058877Y0224463D02*
X0076042Y0224463D01*
X0076042Y0225062D02*
X0058877Y0225062D01*
X0058877Y0225660D02*
X0076042Y0225660D01*
X0076042Y0226259D02*
X0058877Y0226259D01*
X0058877Y0226857D02*
X0076042Y0226857D01*
X0076042Y0227456D02*
X0058877Y0227456D01*
X0058877Y0228054D02*
X0074344Y0228054D01*
X0073434Y0228653D02*
X0058877Y0228653D01*
X0058877Y0229251D02*
X0072963Y0229251D01*
X0072715Y0229850D02*
X0058877Y0229850D01*
X0058877Y0230448D02*
X0072642Y0230448D01*
X0072442Y0231047D02*
X0058877Y0231047D01*
X0058877Y0231645D02*
X0072442Y0231645D01*
X0072442Y0232244D02*
X0058877Y0232244D01*
X0058877Y0232842D02*
X0072442Y0232842D01*
X0072442Y0233441D02*
X0058877Y0233441D01*
X0058877Y0234039D02*
X0072442Y0234039D01*
X0072442Y0234638D02*
X0058877Y0234638D01*
X0058877Y0235236D02*
X0072442Y0235236D01*
X0072442Y0235835D02*
X0058877Y0235835D01*
X0058877Y0236433D02*
X0072442Y0236433D01*
X0072442Y0237032D02*
X0058877Y0237032D01*
X0058877Y0237630D02*
X0072442Y0237630D01*
X0072442Y0238229D02*
X0059139Y0238229D01*
X0059520Y0238827D02*
X0072442Y0238827D01*
X0072442Y0239426D02*
X0059768Y0239426D01*
X0059777Y0240024D02*
X0072442Y0240024D01*
X0072442Y0240623D02*
X0059735Y0240623D01*
X0059487Y0241222D02*
X0072442Y0241222D01*
X0072442Y0241820D02*
X0059060Y0241820D01*
X0058257Y0242419D02*
X0072442Y0242419D01*
X0072442Y0243017D02*
X0053620Y0243017D01*
X0053022Y0243616D02*
X0072442Y0243616D01*
X0072442Y0244214D02*
X0052423Y0244214D01*
X0051825Y0244813D02*
X0072442Y0244813D01*
X0072442Y0245411D02*
X0051226Y0245411D01*
X0050628Y0246010D02*
X0072442Y0246010D01*
X0072442Y0246608D02*
X0050029Y0246608D01*
X0049431Y0247207D02*
X0072442Y0247207D01*
X0072442Y0247805D02*
X0048832Y0247805D01*
X0048234Y0248404D02*
X0072442Y0248404D01*
X0072442Y0249002D02*
X0047635Y0249002D01*
X0047037Y0249601D02*
X0072442Y0249601D01*
X0072442Y0250199D02*
X0046438Y0250199D01*
X0045840Y0250798D02*
X0072442Y0250798D01*
X0072442Y0251396D02*
X0045241Y0251396D01*
X0044643Y0251995D02*
X0072442Y0251995D01*
X0072442Y0252593D02*
X0044044Y0252593D01*
X0043446Y0253192D02*
X0072768Y0253192D01*
X0073367Y0253790D02*
X0043158Y0253790D01*
X0043406Y0254389D02*
X0073965Y0254389D01*
X0074564Y0254987D02*
X0043542Y0254987D01*
X0043542Y0255586D02*
X0075162Y0255586D01*
X0075761Y0256184D02*
X0043542Y0256184D01*
X0043542Y0256783D02*
X0076359Y0256783D01*
X0077342Y0255220D02*
X0074242Y0252120D01*
X0074242Y0231663D01*
X0075342Y0230563D01*
X0079642Y0230448D02*
X0082221Y0230448D01*
X0082221Y0229850D02*
X0079642Y0229850D01*
X0079642Y0229251D02*
X0082221Y0229251D01*
X0082221Y0228653D02*
X0079642Y0228653D01*
X0079642Y0228054D02*
X0082221Y0228054D01*
X0082221Y0227456D02*
X0079642Y0227456D01*
X0079989Y0231047D02*
X0082221Y0231047D01*
X0082221Y0231645D02*
X0080587Y0231645D01*
X0081186Y0232244D02*
X0082221Y0232244D01*
X0081961Y0232842D02*
X0081784Y0232842D01*
X0080799Y0237373D02*
X0077829Y0237373D01*
X0076342Y0238860D01*
X0076342Y0249250D01*
X0077342Y0255220D02*
X0081342Y0255220D01*
X0092972Y0266850D01*
X0094442Y0266850D01*
X0108342Y0280750D01*
X0105642Y0280723D02*
X0039924Y0280723D01*
X0041239Y0281322D02*
X0105656Y0281322D01*
X0105904Y0281920D02*
X0041866Y0281920D01*
X0042465Y0282519D02*
X0106292Y0282519D01*
X0106429Y0283117D02*
X0042880Y0283117D01*
X0043128Y0283716D02*
X0105830Y0283716D01*
X0105232Y0284314D02*
X0043376Y0284314D01*
X0043542Y0284913D02*
X0104633Y0284913D01*
X0104035Y0285511D02*
X0043542Y0285511D01*
X0043542Y0286110D02*
X0103436Y0286110D01*
X0102838Y0286708D02*
X0043542Y0286708D01*
X0043325Y0287307D02*
X0102239Y0287307D01*
X0101641Y0287905D02*
X0043077Y0287905D01*
X0042830Y0288504D02*
X0101042Y0288504D01*
X0100444Y0289102D02*
X0042343Y0289102D01*
X0041745Y0289701D02*
X0099845Y0289701D01*
X0099247Y0290299D02*
X0040947Y0290299D01*
X0040216Y0290898D02*
X0098648Y0290898D01*
X0098050Y0291496D02*
X0041442Y0291496D01*
X0042041Y0292095D02*
X0097451Y0292095D01*
X0096853Y0292693D02*
X0042639Y0292693D01*
X0042952Y0293292D02*
X0096254Y0293292D01*
X0095656Y0293891D02*
X0043200Y0293891D01*
X0043448Y0294489D02*
X0095057Y0294489D01*
X0094459Y0295088D02*
X0043542Y0295088D01*
X0043542Y0295686D02*
X0093860Y0295686D01*
X0093262Y0296285D02*
X0043542Y0296285D01*
X0043501Y0296883D02*
X0092663Y0296883D01*
X0092065Y0297482D02*
X0043253Y0297482D01*
X0043005Y0298080D02*
X0091466Y0298080D01*
X0090868Y0298679D02*
X0042757Y0298679D01*
X0042169Y0299277D02*
X0090269Y0299277D01*
X0089671Y0299876D02*
X0041570Y0299876D01*
X0040525Y0300474D02*
X0089072Y0300474D01*
X0088474Y0301073D02*
X0040638Y0301073D01*
X0041617Y0301671D02*
X0087875Y0301671D01*
X0087277Y0302270D02*
X0042215Y0302270D01*
X0042777Y0302868D02*
X0086678Y0302868D01*
X0086080Y0303467D02*
X0043024Y0303467D01*
X0038342Y0305750D02*
X0086342Y0305750D01*
X0119842Y0272250D01*
X0105171Y0280125D02*
X0041321Y0280125D01*
X0041919Y0279526D02*
X0104572Y0279526D01*
X0103974Y0278928D02*
X0042518Y0278928D01*
X0042902Y0278329D02*
X0103375Y0278329D01*
X0102777Y0277731D02*
X0043150Y0277731D01*
X0043398Y0277132D02*
X0102178Y0277132D01*
X0101580Y0276534D02*
X0043542Y0276534D01*
X0043542Y0275935D02*
X0100981Y0275935D01*
X0100383Y0275337D02*
X0043542Y0275337D01*
X0043542Y0274738D02*
X0099784Y0274738D01*
X0099186Y0274140D02*
X0043303Y0274140D01*
X0043055Y0273541D02*
X0098587Y0273541D01*
X0097989Y0272943D02*
X0042807Y0272943D01*
X0042290Y0272344D02*
X0097390Y0272344D01*
X0096792Y0271746D02*
X0041691Y0271746D01*
X0040818Y0271147D02*
X0096193Y0271147D01*
X0095595Y0270549D02*
X0040345Y0270549D01*
X0041496Y0269950D02*
X0094996Y0269950D01*
X0094398Y0269352D02*
X0042094Y0269352D01*
X0042693Y0268753D02*
X0093799Y0268753D01*
X0091731Y0268155D02*
X0042974Y0268155D01*
X0043222Y0267556D02*
X0091132Y0267556D01*
X0090534Y0266958D02*
X0043470Y0266958D01*
X0043542Y0266359D02*
X0089935Y0266359D01*
X0089337Y0265760D02*
X0043542Y0265760D01*
X0043542Y0265162D02*
X0088738Y0265162D01*
X0088140Y0264563D02*
X0043479Y0264563D01*
X0043231Y0263965D02*
X0087541Y0263965D01*
X0086943Y0263366D02*
X0042983Y0263366D01*
X0042714Y0262768D02*
X0086344Y0262768D01*
X0085746Y0262169D02*
X0042115Y0262169D01*
X0041517Y0261571D02*
X0085147Y0261571D01*
X0084549Y0260972D02*
X0040396Y0260972D01*
X0040767Y0260374D02*
X0083950Y0260374D01*
X0083352Y0259775D02*
X0041670Y0259775D01*
X0042269Y0259177D02*
X0082753Y0259177D01*
X0082155Y0258578D02*
X0042799Y0258578D01*
X0043047Y0257980D02*
X0081556Y0257980D01*
X0080958Y0257381D02*
X0043295Y0257381D01*
X0038342Y0255750D02*
X0054977Y0239115D01*
X0054977Y0230250D01*
X0055277Y0227550D02*
X0055277Y0225231D01*
X0040522Y0210475D01*
X0039540Y0210882D01*
X0040261Y0211116D01*
X0040962Y0211474D01*
X0041599Y0211936D01*
X0042156Y0212493D01*
X0042539Y0212493D01*
X0042156Y0212493D02*
X0042618Y0213129D01*
X0042975Y0213831D01*
X0043219Y0214579D01*
X0043342Y0215356D01*
X0043342Y0215450D01*
X0038642Y0215450D01*
X0038642Y0216050D01*
X0043342Y0216050D01*
X0043342Y0216144D01*
X0043219Y0216921D01*
X0042975Y0217669D01*
X0042618Y0218371D01*
X0042156Y0219007D01*
X0041599Y0219564D01*
X0040962Y0220026D01*
X0040261Y0220384D01*
X0039540Y0220618D01*
X0041287Y0221342D01*
X0042750Y0222804D01*
X0043542Y0224716D01*
X0043542Y0226784D01*
X0042750Y0228696D01*
X0041287Y0230158D01*
X0039859Y0230750D01*
X0041287Y0231342D01*
X0041746Y0231800D01*
X0043127Y0230419D01*
X0043127Y0229728D01*
X0043538Y0228736D01*
X0044297Y0227976D01*
X0045290Y0227565D01*
X0046364Y0227565D01*
X0047356Y0227976D01*
X0048077Y0228697D01*
X0048812Y0227961D01*
X0049805Y0227550D01*
X0050879Y0227550D01*
X0051871Y0227961D01*
X0052631Y0228721D01*
X0052659Y0228789D01*
X0052688Y0228721D01*
X0053447Y0227961D01*
X0054440Y0227550D01*
X0055277Y0227550D01*
X0055277Y0227456D02*
X0043264Y0227456D01*
X0043016Y0228054D02*
X0044219Y0228054D01*
X0043621Y0228653D02*
X0042768Y0228653D01*
X0043324Y0229251D02*
X0042194Y0229251D01*
X0041596Y0229850D02*
X0043127Y0229850D01*
X0043098Y0230448D02*
X0040587Y0230448D01*
X0040576Y0231047D02*
X0042499Y0231047D01*
X0041901Y0231645D02*
X0041591Y0231645D01*
X0040342Y0235750D02*
X0038342Y0235750D01*
X0040342Y0235750D02*
X0045827Y0230265D01*
X0048033Y0228653D02*
X0048121Y0228653D01*
X0048719Y0228054D02*
X0047434Y0228054D01*
X0050342Y0230250D02*
X0042942Y0237650D01*
X0042942Y0237655D01*
X0040247Y0240350D01*
X0040242Y0240350D01*
X0038342Y0242250D01*
X0038342Y0245750D01*
X0038342Y0255750D02*
X0052007Y0242085D01*
X0054219Y0242419D02*
X0055897Y0242419D01*
X0055093Y0241820D02*
X0054817Y0241820D01*
X0057077Y0239985D02*
X0057077Y0224485D01*
X0038342Y0205750D01*
X0039986Y0210697D02*
X0040744Y0210697D01*
X0040614Y0211296D02*
X0041342Y0211296D01*
X0041542Y0211894D02*
X0041941Y0211894D01*
X0042591Y0213091D02*
X0043138Y0213091D01*
X0042904Y0213690D02*
X0043736Y0213690D01*
X0044335Y0214289D02*
X0043124Y0214289D01*
X0043267Y0214887D02*
X0044933Y0214887D01*
X0045532Y0215486D02*
X0038642Y0215486D01*
X0043342Y0216084D02*
X0046130Y0216084D01*
X0046729Y0216683D02*
X0043256Y0216683D01*
X0043102Y0217281D02*
X0047327Y0217281D01*
X0047926Y0217880D02*
X0042868Y0217880D01*
X0042540Y0218478D02*
X0048524Y0218478D01*
X0049123Y0219077D02*
X0042086Y0219077D01*
X0041446Y0219675D02*
X0049721Y0219675D01*
X0050320Y0220274D02*
X0040477Y0220274D01*
X0040154Y0220872D02*
X0050918Y0220872D01*
X0051517Y0221471D02*
X0041416Y0221471D01*
X0042015Y0222069D02*
X0052115Y0222069D01*
X0052714Y0222668D02*
X0042613Y0222668D01*
X0042941Y0223266D02*
X0053312Y0223266D01*
X0053911Y0223865D02*
X0043189Y0223865D01*
X0043437Y0224463D02*
X0054509Y0224463D01*
X0055108Y0225062D02*
X0043542Y0225062D01*
X0043542Y0225660D02*
X0055277Y0225660D01*
X0055277Y0226259D02*
X0043542Y0226259D01*
X0043512Y0226857D02*
X0055277Y0226857D01*
X0053354Y0228054D02*
X0051964Y0228054D01*
X0052563Y0228653D02*
X0052756Y0228653D01*
X0078632Y0239540D02*
X0082899Y0239540D01*
X0081342Y0244719D02*
X0081342Y0255220D01*
X0093842Y0253350D02*
X0093842Y0264750D01*
X0110842Y0253250D02*
X0110842Y0242750D01*
X0106842Y0238750D01*
X0120566Y0234638D02*
X0122214Y0234638D01*
X0122813Y0235236D02*
X0121165Y0235236D01*
X0121763Y0235835D02*
X0123411Y0235835D01*
X0124010Y0236433D02*
X0122362Y0236433D01*
X0122960Y0237032D02*
X0124608Y0237032D01*
X0125207Y0237630D02*
X0123559Y0237630D01*
X0124157Y0238229D02*
X0125805Y0238229D01*
X0126404Y0238827D02*
X0124756Y0238827D01*
X0125354Y0239426D02*
X0127002Y0239426D01*
X0127601Y0240024D02*
X0125953Y0240024D01*
X0126552Y0240623D02*
X0128199Y0240623D01*
X0128798Y0241222D02*
X0127150Y0241222D01*
X0127749Y0241820D02*
X0129396Y0241820D01*
X0129995Y0242419D02*
X0128347Y0242419D01*
X0128946Y0243017D02*
X0130593Y0243017D01*
X0131192Y0243616D02*
X0129544Y0243616D01*
X0130143Y0244214D02*
X0131790Y0244214D01*
X0132389Y0244813D02*
X0130741Y0244813D01*
X0131340Y0245411D02*
X0132987Y0245411D01*
X0133586Y0246010D02*
X0131938Y0246010D01*
X0132537Y0246608D02*
X0134184Y0246608D01*
X0134783Y0247207D02*
X0133135Y0247207D01*
X0133734Y0247805D02*
X0135382Y0247805D01*
X0135980Y0248404D02*
X0134332Y0248404D01*
X0134931Y0249002D02*
X0136579Y0249002D01*
X0137177Y0249601D02*
X0135529Y0249601D01*
X0136128Y0250199D02*
X0137776Y0250199D01*
X0138374Y0250798D02*
X0136726Y0250798D01*
X0136742Y0251396D02*
X0138973Y0251396D01*
X0139571Y0251995D02*
X0136742Y0251995D01*
X0136742Y0252593D02*
X0140170Y0252593D01*
X0140768Y0253192D02*
X0136742Y0253192D01*
X0136742Y0253790D02*
X0141367Y0253790D01*
X0141965Y0254389D02*
X0136397Y0254389D01*
X0135799Y0254987D02*
X0142564Y0254987D01*
X0143162Y0255586D02*
X0135200Y0255586D01*
X0134602Y0256184D02*
X0143524Y0256184D01*
X0151342Y0258250D02*
X0122465Y0229373D01*
X0167242Y0201496D02*
X0167242Y0195120D01*
X0168185Y0196755D01*
X0168185Y0196755D01*
X0168185Y0196755D01*
X0170671Y0198840D01*
X0170671Y0198840D01*
X0173720Y0199950D01*
X0176964Y0199950D01*
X0180013Y0198840D01*
X0180013Y0198840D01*
X0182498Y0196755D01*
X0184120Y0193945D01*
X0184684Y0190750D01*
X0184684Y0190750D01*
X0184120Y0187555D01*
X0184120Y0187555D01*
X0182498Y0184745D01*
X0182498Y0184745D01*
X0182498Y0184745D01*
X0180013Y0182660D01*
X0180013Y0182660D01*
X0179986Y0182650D01*
X0276658Y0182650D01*
X0276658Y0183937D01*
X0277771Y0185050D01*
X0277825Y0185050D01*
X0277825Y0187245D01*
X0277750Y0187922D01*
X0277825Y0188016D01*
X0277825Y0188137D01*
X0278307Y0188619D01*
X0278733Y0189151D01*
X0242684Y0189151D01*
X0242631Y0189279D02*
X0241871Y0190039D01*
X0240879Y0190450D01*
X0239805Y0190450D01*
X0238812Y0190039D01*
X0238323Y0189550D01*
X0229087Y0189550D01*
X0217821Y0200817D01*
X0217821Y0229983D01*
X0217827Y0229976D01*
X0218008Y0229901D01*
X0218008Y0228836D01*
X0218419Y0227844D01*
X0219179Y0227085D01*
X0220171Y0226673D01*
X0221245Y0226673D01*
X0222237Y0227085D01*
X0222726Y0227573D01*
X0255211Y0227573D01*
X0256265Y0228628D01*
X0283187Y0255550D01*
X0283879Y0255550D01*
X0284871Y0255961D01*
X0285631Y0256721D01*
X0286042Y0257713D01*
X0286042Y0258787D01*
X0285631Y0259779D01*
X0284871Y0260539D01*
X0283879Y0260950D01*
X0282805Y0260950D01*
X0281812Y0260539D01*
X0281053Y0259779D01*
X0280642Y0258787D01*
X0280642Y0258096D01*
X0280345Y0257799D01*
X0279753Y0258391D01*
X0278761Y0258802D01*
X0277687Y0258802D01*
X0276695Y0258391D01*
X0275935Y0257631D01*
X0275524Y0256639D01*
X0275524Y0255948D01*
X0253641Y0234065D01*
X0251994Y0234065D01*
X0268742Y0250813D01*
X0268742Y0254044D01*
X0267512Y0255274D01*
X0266457Y0256329D01*
X0261742Y0256329D01*
X0261742Y0267865D01*
X0235277Y0294331D01*
X0235277Y0295022D01*
X0234866Y0296014D01*
X0234106Y0296774D01*
X0233114Y0297185D01*
X0232040Y0297185D01*
X0231047Y0296774D01*
X0230455Y0296182D01*
X0220142Y0306496D01*
X0219087Y0307550D01*
X0175225Y0307550D01*
X0174750Y0308696D01*
X0173287Y0310158D01*
X0171376Y0310950D01*
X0169307Y0310950D01*
X0167396Y0310158D01*
X0167242Y0310004D01*
X0167242Y0316380D01*
X0168185Y0314745D01*
X0170671Y0312660D01*
X0173720Y0311550D01*
X0176964Y0311550D01*
X0180013Y0312660D01*
X0182498Y0314745D01*
X0182498Y0314745D01*
X0182498Y0314745D01*
X0184120Y0317555D01*
X0184684Y0320750D01*
X0184120Y0323945D01*
X0182498Y0326755D01*
X0180013Y0328840D01*
X0180013Y0328840D01*
X0179986Y0328850D01*
X0293442Y0328850D01*
X0293442Y0185978D01*
X0293389Y0186000D01*
X0292295Y0186000D01*
X0291284Y0185581D01*
X0291120Y0185418D01*
X0292143Y0186951D01*
X0291834Y0188494D01*
X0290524Y0189367D01*
X0288981Y0189059D01*
X0288725Y0188675D01*
X0288469Y0189059D01*
X0286926Y0189367D01*
X0285902Y0188685D01*
X0285111Y0189250D01*
X0283340Y0189250D01*
X0281898Y0188221D01*
X0281898Y0188221D01*
X0281898Y0188221D01*
X0281851Y0188082D01*
X0280994Y0188768D01*
X0280512Y0189250D01*
X0280392Y0189250D01*
X0280298Y0189325D01*
X0279620Y0189250D01*
X0278938Y0189250D01*
X0278853Y0189165D01*
X0278733Y0189151D01*
X0278241Y0188553D02*
X0242932Y0188553D01*
X0243042Y0188287D02*
X0242631Y0189279D01*
X0242161Y0189750D02*
X0293442Y0189750D01*
X0293442Y0190348D02*
X0241125Y0190348D01*
X0239559Y0190348D02*
X0228289Y0190348D01*
X0227691Y0190947D02*
X0293442Y0190947D01*
X0293442Y0191545D02*
X0227092Y0191545D01*
X0226494Y0192144D02*
X0293442Y0192144D01*
X0293442Y0192742D02*
X0225895Y0192742D01*
X0225297Y0193341D02*
X0293442Y0193341D01*
X0293442Y0193939D02*
X0224698Y0193939D01*
X0224100Y0194538D02*
X0293442Y0194538D01*
X0293442Y0195136D02*
X0223501Y0195136D01*
X0222903Y0195735D02*
X0293442Y0195735D01*
X0293442Y0196333D02*
X0222304Y0196333D01*
X0221706Y0196932D02*
X0293442Y0196932D01*
X0293442Y0197530D02*
X0221107Y0197530D01*
X0220509Y0198129D02*
X0293442Y0198129D01*
X0293442Y0198727D02*
X0219910Y0198727D01*
X0219312Y0199326D02*
X0293442Y0199326D01*
X0293442Y0199924D02*
X0218713Y0199924D01*
X0218115Y0200523D02*
X0293442Y0200523D01*
X0293442Y0201121D02*
X0217821Y0201121D01*
X0217821Y0201720D02*
X0293442Y0201720D01*
X0293442Y0202318D02*
X0217821Y0202318D01*
X0217821Y0202917D02*
X0293442Y0202917D01*
X0293442Y0203515D02*
X0217821Y0203515D01*
X0217821Y0204114D02*
X0293442Y0204114D01*
X0293442Y0204712D02*
X0217821Y0204712D01*
X0217821Y0205311D02*
X0293442Y0205311D01*
X0293442Y0205909D02*
X0217821Y0205909D01*
X0217821Y0206508D02*
X0293442Y0206508D01*
X0293442Y0207106D02*
X0217821Y0207106D01*
X0217821Y0207705D02*
X0293442Y0207705D01*
X0293442Y0208303D02*
X0217821Y0208303D01*
X0217821Y0208902D02*
X0293442Y0208902D01*
X0293442Y0209500D02*
X0217821Y0209500D01*
X0217821Y0210099D02*
X0293442Y0210099D01*
X0293442Y0210697D02*
X0217821Y0210697D01*
X0217821Y0211296D02*
X0293442Y0211296D01*
X0293442Y0211894D02*
X0217821Y0211894D01*
X0217821Y0212493D02*
X0293442Y0212493D01*
X0293442Y0213091D02*
X0217821Y0213091D01*
X0217821Y0213690D02*
X0293442Y0213690D01*
X0293442Y0214289D02*
X0217821Y0214289D01*
X0217821Y0214887D02*
X0293442Y0214887D01*
X0293442Y0215486D02*
X0217821Y0215486D01*
X0217821Y0216084D02*
X0293442Y0216084D01*
X0293442Y0216683D02*
X0217821Y0216683D01*
X0217821Y0217281D02*
X0293442Y0217281D01*
X0293442Y0217880D02*
X0217821Y0217880D01*
X0217821Y0218478D02*
X0293442Y0218478D01*
X0293442Y0219077D02*
X0217821Y0219077D01*
X0217821Y0219675D02*
X0293442Y0219675D01*
X0293442Y0220274D02*
X0217821Y0220274D01*
X0217821Y0220872D02*
X0293442Y0220872D01*
X0293442Y0221471D02*
X0217821Y0221471D01*
X0217821Y0222069D02*
X0293442Y0222069D01*
X0293442Y0222668D02*
X0217821Y0222668D01*
X0217821Y0223266D02*
X0293442Y0223266D01*
X0293442Y0223865D02*
X0217821Y0223865D01*
X0217821Y0224463D02*
X0293442Y0224463D01*
X0293442Y0225062D02*
X0217821Y0225062D01*
X0217821Y0225660D02*
X0293442Y0225660D01*
X0293442Y0226259D02*
X0217821Y0226259D01*
X0217821Y0226857D02*
X0219727Y0226857D01*
X0218807Y0227456D02*
X0217821Y0227456D01*
X0217821Y0228054D02*
X0218332Y0228054D01*
X0218084Y0228653D02*
X0217821Y0228653D01*
X0217821Y0229251D02*
X0218008Y0229251D01*
X0218008Y0229850D02*
X0217821Y0229850D01*
X0219357Y0232265D02*
X0254387Y0232265D01*
X0278224Y0256102D01*
X0280165Y0257980D02*
X0280526Y0257980D01*
X0280642Y0258578D02*
X0279301Y0258578D01*
X0280803Y0259177D02*
X0261742Y0259177D01*
X0261742Y0259775D02*
X0281051Y0259775D01*
X0281647Y0260374D02*
X0261742Y0260374D01*
X0261742Y0260972D02*
X0293442Y0260972D01*
X0293442Y0260374D02*
X0285036Y0260374D01*
X0285632Y0259775D02*
X0293442Y0259775D01*
X0293442Y0259177D02*
X0285880Y0259177D01*
X0286042Y0258578D02*
X0293442Y0258578D01*
X0293442Y0257980D02*
X0286042Y0257980D01*
X0285904Y0257381D02*
X0293442Y0257381D01*
X0293442Y0256783D02*
X0285657Y0256783D01*
X0285094Y0256184D02*
X0293442Y0256184D01*
X0293442Y0255586D02*
X0283965Y0255586D01*
X0282625Y0254987D02*
X0293442Y0254987D01*
X0293442Y0254389D02*
X0282026Y0254389D01*
X0281428Y0253790D02*
X0293442Y0253790D01*
X0293442Y0253192D02*
X0280829Y0253192D01*
X0280231Y0252593D02*
X0293442Y0252593D01*
X0293442Y0251995D02*
X0279632Y0251995D01*
X0279034Y0251396D02*
X0293442Y0251396D01*
X0293442Y0250798D02*
X0278435Y0250798D01*
X0277837Y0250199D02*
X0293442Y0250199D01*
X0293442Y0249601D02*
X0277238Y0249601D01*
X0276640Y0249002D02*
X0293442Y0249002D01*
X0293442Y0248404D02*
X0276041Y0248404D01*
X0275443Y0247805D02*
X0293442Y0247805D01*
X0293442Y0247207D02*
X0274844Y0247207D01*
X0274246Y0246608D02*
X0293442Y0246608D01*
X0293442Y0246010D02*
X0273647Y0246010D01*
X0273048Y0245411D02*
X0293442Y0245411D01*
X0293442Y0244813D02*
X0272450Y0244813D01*
X0271851Y0244214D02*
X0293442Y0244214D01*
X0293442Y0243616D02*
X0271253Y0243616D01*
X0270654Y0243017D02*
X0293442Y0243017D01*
X0293442Y0242419D02*
X0270056Y0242419D01*
X0269457Y0241820D02*
X0293442Y0241820D01*
X0293442Y0241222D02*
X0268859Y0241222D01*
X0268260Y0240623D02*
X0293442Y0240623D01*
X0293442Y0240024D02*
X0267662Y0240024D01*
X0267063Y0239426D02*
X0293442Y0239426D01*
X0293442Y0238827D02*
X0266465Y0238827D01*
X0265866Y0238229D02*
X0293442Y0238229D01*
X0293442Y0237630D02*
X0265268Y0237630D01*
X0264669Y0237032D02*
X0293442Y0237032D01*
X0293442Y0236433D02*
X0264071Y0236433D01*
X0263472Y0235835D02*
X0293442Y0235835D01*
X0293442Y0235236D02*
X0262874Y0235236D01*
X0262275Y0234638D02*
X0293442Y0234638D01*
X0293442Y0234039D02*
X0261677Y0234039D01*
X0261078Y0233441D02*
X0293442Y0233441D01*
X0293442Y0232842D02*
X0260480Y0232842D01*
X0259881Y0232244D02*
X0293442Y0232244D01*
X0293442Y0231645D02*
X0259283Y0231645D01*
X0258684Y0231047D02*
X0293442Y0231047D01*
X0293442Y0230448D02*
X0258086Y0230448D01*
X0257487Y0229850D02*
X0293442Y0229850D01*
X0293442Y0229251D02*
X0256889Y0229251D01*
X0256290Y0228653D02*
X0293442Y0228653D01*
X0293442Y0228054D02*
X0255692Y0228054D01*
X0254465Y0229373D02*
X0220708Y0229373D01*
X0222609Y0227456D02*
X0293442Y0227456D01*
X0293442Y0226857D02*
X0221689Y0226857D01*
X0214221Y0226857D02*
X0211642Y0226857D01*
X0211642Y0226259D02*
X0214221Y0226259D01*
X0214221Y0225660D02*
X0211642Y0225660D01*
X0211642Y0225062D02*
X0214221Y0225062D01*
X0214221Y0224463D02*
X0211642Y0224463D01*
X0211642Y0223865D02*
X0214221Y0223865D01*
X0214221Y0223266D02*
X0211642Y0223266D01*
X0211642Y0222668D02*
X0214221Y0222668D01*
X0214221Y0222069D02*
X0211642Y0222069D01*
X0211642Y0221471D02*
X0214221Y0221471D01*
X0214221Y0220872D02*
X0211642Y0220872D01*
X0211642Y0220274D02*
X0214221Y0220274D01*
X0214221Y0219675D02*
X0211642Y0219675D01*
X0211642Y0219077D02*
X0214221Y0219077D01*
X0214221Y0218478D02*
X0211642Y0218478D01*
X0211642Y0217880D02*
X0214221Y0217880D01*
X0214221Y0217281D02*
X0211642Y0217281D01*
X0211642Y0216683D02*
X0214221Y0216683D01*
X0214221Y0216084D02*
X0211642Y0216084D01*
X0211642Y0215486D02*
X0214221Y0215486D01*
X0214221Y0214887D02*
X0211642Y0214887D01*
X0211642Y0214289D02*
X0214221Y0214289D01*
X0214221Y0213690D02*
X0211642Y0213690D01*
X0211642Y0213091D02*
X0214221Y0213091D01*
X0214221Y0212493D02*
X0211642Y0212493D01*
X0211642Y0211894D02*
X0214221Y0211894D01*
X0214221Y0211296D02*
X0211642Y0211296D01*
X0211642Y0210697D02*
X0214221Y0210697D01*
X0214221Y0210099D02*
X0211642Y0210099D01*
X0211642Y0209500D02*
X0214221Y0209500D01*
X0214221Y0208902D02*
X0211642Y0208902D01*
X0211642Y0208303D02*
X0214221Y0208303D01*
X0214221Y0207705D02*
X0211642Y0207705D01*
X0211642Y0207106D02*
X0214221Y0207106D01*
X0214221Y0206508D02*
X0211642Y0206508D01*
X0211642Y0205909D02*
X0214221Y0205909D01*
X0214221Y0205311D02*
X0211642Y0205311D01*
X0211642Y0204712D02*
X0214221Y0204712D01*
X0214221Y0204114D02*
X0211642Y0204114D01*
X0211642Y0203515D02*
X0214221Y0203515D01*
X0214221Y0202917D02*
X0211642Y0202917D01*
X0211642Y0202318D02*
X0214221Y0202318D01*
X0214221Y0201720D02*
X0211642Y0201720D01*
X0211642Y0201121D02*
X0214221Y0201121D01*
X0214221Y0200523D02*
X0211642Y0200523D01*
X0211642Y0199924D02*
X0214221Y0199924D01*
X0214221Y0199326D02*
X0211642Y0199326D01*
X0211642Y0198727D02*
X0214819Y0198727D01*
X0215418Y0198129D02*
X0211642Y0198129D01*
X0211642Y0197530D02*
X0216016Y0197530D01*
X0216615Y0196932D02*
X0211642Y0196932D01*
X0211642Y0196333D02*
X0217213Y0196333D01*
X0217812Y0195735D02*
X0212149Y0195735D01*
X0212131Y0195779D02*
X0211642Y0196268D01*
X0211642Y0230700D01*
X0213873Y0232931D01*
X0214221Y0232583D01*
X0214221Y0199326D01*
X0226542Y0187004D01*
X0227596Y0185950D01*
X0238323Y0185950D01*
X0238812Y0185461D01*
X0239805Y0185050D01*
X0240879Y0185050D01*
X0241871Y0185461D01*
X0242631Y0186221D01*
X0243042Y0187213D01*
X0243042Y0188287D01*
X0243042Y0187954D02*
X0277775Y0187954D01*
X0277813Y0187355D02*
X0243042Y0187355D01*
X0242853Y0186757D02*
X0277825Y0186757D01*
X0277825Y0186158D02*
X0242569Y0186158D01*
X0241970Y0185560D02*
X0277825Y0185560D01*
X0277683Y0184961D02*
X0182623Y0184961D01*
X0182969Y0185560D02*
X0238713Y0185560D01*
X0240342Y0187750D02*
X0228342Y0187750D01*
X0216021Y0200071D01*
X0216021Y0234601D01*
X0214899Y0236503D02*
X0214899Y0239540D01*
X0223537Y0239540D01*
X0223842Y0239844D01*
X0223842Y0251250D01*
X0225842Y0253350D02*
X0225942Y0253350D01*
X0225942Y0236650D01*
X0249063Y0236650D01*
X0264842Y0252429D01*
X0265712Y0254529D02*
X0260639Y0254529D01*
X0259942Y0253832D01*
X0259942Y0267120D01*
X0232577Y0294485D01*
X0235277Y0294489D02*
X0293442Y0294489D01*
X0293442Y0293891D02*
X0235717Y0293891D01*
X0236315Y0293292D02*
X0293442Y0293292D01*
X0293442Y0292693D02*
X0236914Y0292693D01*
X0237512Y0292095D02*
X0293442Y0292095D01*
X0293442Y0291496D02*
X0238111Y0291496D01*
X0238709Y0290898D02*
X0293442Y0290898D01*
X0293442Y0290299D02*
X0239308Y0290299D01*
X0239906Y0289701D02*
X0293442Y0289701D01*
X0293442Y0289102D02*
X0240505Y0289102D01*
X0241103Y0288504D02*
X0293442Y0288504D01*
X0293442Y0287905D02*
X0241702Y0287905D01*
X0242300Y0287307D02*
X0293442Y0287307D01*
X0293442Y0286708D02*
X0242899Y0286708D01*
X0243497Y0286110D02*
X0293442Y0286110D01*
X0293442Y0285511D02*
X0244096Y0285511D01*
X0244694Y0284913D02*
X0293442Y0284913D01*
X0293442Y0284314D02*
X0245293Y0284314D01*
X0245891Y0283716D02*
X0293442Y0283716D01*
X0293442Y0283117D02*
X0246490Y0283117D01*
X0247088Y0282519D02*
X0293442Y0282519D01*
X0293442Y0281920D02*
X0247687Y0281920D01*
X0248285Y0281322D02*
X0293442Y0281322D01*
X0293442Y0280723D02*
X0248884Y0280723D01*
X0249482Y0280125D02*
X0293442Y0280125D01*
X0293442Y0279526D02*
X0250081Y0279526D01*
X0250680Y0278928D02*
X0293442Y0278928D01*
X0293442Y0278329D02*
X0251278Y0278329D01*
X0251877Y0277731D02*
X0293442Y0277731D01*
X0293442Y0277132D02*
X0252475Y0277132D01*
X0253074Y0276534D02*
X0293442Y0276534D01*
X0293442Y0275935D02*
X0253672Y0275935D01*
X0254271Y0275337D02*
X0293442Y0275337D01*
X0293442Y0274738D02*
X0254869Y0274738D01*
X0255468Y0274140D02*
X0293442Y0274140D01*
X0293442Y0273541D02*
X0256066Y0273541D01*
X0256665Y0272943D02*
X0293442Y0272943D01*
X0293442Y0272344D02*
X0257263Y0272344D01*
X0257862Y0271746D02*
X0293442Y0271746D01*
X0293442Y0271147D02*
X0258460Y0271147D01*
X0259059Y0270549D02*
X0293442Y0270549D01*
X0293442Y0269950D02*
X0259657Y0269950D01*
X0260256Y0269352D02*
X0293442Y0269352D01*
X0293442Y0268753D02*
X0260854Y0268753D01*
X0261453Y0268155D02*
X0293442Y0268155D01*
X0293442Y0267556D02*
X0261742Y0267556D01*
X0261742Y0266958D02*
X0293442Y0266958D01*
X0293442Y0266359D02*
X0261742Y0266359D01*
X0261742Y0265760D02*
X0293442Y0265760D01*
X0293442Y0265162D02*
X0261742Y0265162D01*
X0261742Y0264563D02*
X0293442Y0264563D01*
X0293442Y0263965D02*
X0261742Y0263965D01*
X0261742Y0263366D02*
X0293442Y0263366D01*
X0293442Y0262768D02*
X0261742Y0262768D01*
X0261742Y0262169D02*
X0293442Y0262169D01*
X0293442Y0261571D02*
X0261742Y0261571D01*
X0261742Y0258578D02*
X0277147Y0258578D01*
X0276283Y0257980D02*
X0261742Y0257980D01*
X0261742Y0257381D02*
X0275831Y0257381D01*
X0275584Y0256783D02*
X0261742Y0256783D01*
X0265712Y0254529D02*
X0266942Y0253299D01*
X0266942Y0251559D01*
X0250833Y0235450D01*
X0245527Y0235450D01*
X0245342Y0235265D01*
X0246357Y0235265D01*
X0245342Y0235265D02*
X0219021Y0235265D01*
X0221088Y0237440D02*
X0221878Y0236650D01*
X0225942Y0236650D01*
X0214899Y0236503D02*
X0209842Y0231445D01*
X0209842Y0194250D01*
X0212388Y0193341D02*
X0220206Y0193341D01*
X0220804Y0192742D02*
X0212140Y0192742D01*
X0212131Y0192721D02*
X0212542Y0193713D01*
X0212542Y0194787D01*
X0212131Y0195779D01*
X0212397Y0195136D02*
X0218410Y0195136D01*
X0219009Y0194538D02*
X0212542Y0194538D01*
X0212542Y0193939D02*
X0219607Y0193939D01*
X0221403Y0192144D02*
X0211554Y0192144D01*
X0211371Y0191961D02*
X0212131Y0192721D01*
X0211371Y0191961D02*
X0210379Y0191550D01*
X0209305Y0191550D01*
X0208312Y0191961D01*
X0207553Y0192721D01*
X0207142Y0193713D01*
X0207142Y0194787D01*
X0207553Y0195779D01*
X0208042Y0196268D01*
X0208042Y0227931D01*
X0207879Y0227863D01*
X0206805Y0227863D01*
X0205812Y0228274D01*
X0205053Y0229034D01*
X0204642Y0230026D01*
X0204642Y0230718D01*
X0204442Y0230918D01*
X0204442Y0252865D01*
X0205496Y0253920D01*
X0205496Y0253920D01*
X0207542Y0255965D01*
X0207542Y0255965D01*
X0208596Y0257020D01*
X0212596Y0257020D01*
X0224226Y0268650D01*
X0225696Y0268650D01*
X0237642Y0280596D01*
X0237642Y0281287D01*
X0238053Y0282279D01*
X0238660Y0282886D01*
X0217596Y0303950D01*
X0175225Y0303950D01*
X0174750Y0302804D01*
X0173287Y0301342D01*
X0171859Y0300750D01*
X0173287Y0300158D01*
X0174750Y0298696D01*
X0175542Y0296784D01*
X0175542Y0294716D01*
X0174750Y0292804D01*
X0173287Y0291342D01*
X0171859Y0290750D01*
X0173287Y0290158D01*
X0174750Y0288696D01*
X0175542Y0286784D01*
X0175542Y0284716D01*
X0174750Y0282804D01*
X0173287Y0281342D01*
X0171859Y0280750D01*
X0173287Y0280158D01*
X0174750Y0278696D01*
X0175542Y0276784D01*
X0175542Y0274716D01*
X0174750Y0272804D01*
X0173287Y0271342D01*
X0171859Y0270750D01*
X0173287Y0270158D01*
X0174750Y0268696D01*
X0175542Y0266784D01*
X0175542Y0264716D01*
X0174750Y0262804D01*
X0173287Y0261342D01*
X0171859Y0260750D01*
X0173287Y0260158D01*
X0174750Y0258696D01*
X0175542Y0256784D01*
X0175542Y0254716D01*
X0175067Y0253570D01*
X0186955Y0241682D01*
X0187547Y0242274D01*
X0188540Y0242685D01*
X0189614Y0242685D01*
X0190606Y0242274D01*
X0191366Y0241514D01*
X0191777Y0240522D01*
X0191777Y0239448D01*
X0191366Y0238455D01*
X0190877Y0237967D01*
X0190877Y0223739D01*
X0175067Y0207930D01*
X0175542Y0206784D01*
X0175542Y0204716D01*
X0174750Y0202804D01*
X0173287Y0201342D01*
X0171376Y0200550D01*
X0169307Y0200550D01*
X0167396Y0201342D01*
X0167242Y0201496D01*
X0167242Y0201121D02*
X0167928Y0201121D01*
X0167242Y0200523D02*
X0208042Y0200523D01*
X0208042Y0201121D02*
X0172755Y0201121D01*
X0173665Y0201720D02*
X0208042Y0201720D01*
X0208042Y0202318D02*
X0174264Y0202318D01*
X0174797Y0202917D02*
X0208042Y0202917D01*
X0208042Y0203515D02*
X0175045Y0203515D01*
X0175293Y0204114D02*
X0208042Y0204114D01*
X0208042Y0204712D02*
X0175540Y0204712D01*
X0175542Y0205311D02*
X0208042Y0205311D01*
X0208042Y0205909D02*
X0175542Y0205909D01*
X0175542Y0206508D02*
X0208042Y0206508D01*
X0208042Y0207106D02*
X0175408Y0207106D01*
X0175160Y0207705D02*
X0208042Y0207705D01*
X0208042Y0208303D02*
X0175441Y0208303D01*
X0176039Y0208902D02*
X0208042Y0208902D01*
X0208042Y0209500D02*
X0176638Y0209500D01*
X0177236Y0210099D02*
X0208042Y0210099D01*
X0208042Y0210697D02*
X0177835Y0210697D01*
X0178433Y0211296D02*
X0208042Y0211296D01*
X0208042Y0211894D02*
X0179032Y0211894D01*
X0179630Y0212493D02*
X0208042Y0212493D01*
X0208042Y0213091D02*
X0180229Y0213091D01*
X0180827Y0213690D02*
X0208042Y0213690D01*
X0208042Y0214289D02*
X0181426Y0214289D01*
X0182024Y0214887D02*
X0208042Y0214887D01*
X0208042Y0215486D02*
X0182623Y0215486D01*
X0183221Y0216084D02*
X0208042Y0216084D01*
X0208042Y0216683D02*
X0183820Y0216683D01*
X0184418Y0217281D02*
X0208042Y0217281D01*
X0208042Y0217880D02*
X0185017Y0217880D01*
X0185615Y0218478D02*
X0208042Y0218478D01*
X0208042Y0219077D02*
X0186214Y0219077D01*
X0186812Y0219675D02*
X0208042Y0219675D01*
X0208042Y0220274D02*
X0187411Y0220274D01*
X0188010Y0220872D02*
X0208042Y0220872D01*
X0208042Y0221471D02*
X0188608Y0221471D01*
X0189207Y0222069D02*
X0208042Y0222069D01*
X0208042Y0222668D02*
X0189805Y0222668D01*
X0190404Y0223266D02*
X0208042Y0223266D01*
X0208042Y0223865D02*
X0190877Y0223865D01*
X0190877Y0224463D02*
X0208042Y0224463D01*
X0208042Y0225062D02*
X0190877Y0225062D01*
X0190877Y0225660D02*
X0208042Y0225660D01*
X0208042Y0226259D02*
X0190877Y0226259D01*
X0190877Y0226857D02*
X0208042Y0226857D01*
X0208042Y0227456D02*
X0190877Y0227456D01*
X0190877Y0228054D02*
X0206344Y0228054D01*
X0205434Y0228653D02*
X0190877Y0228653D01*
X0190877Y0229251D02*
X0204963Y0229251D01*
X0204715Y0229850D02*
X0190877Y0229850D01*
X0190877Y0230448D02*
X0204642Y0230448D01*
X0204442Y0231047D02*
X0190877Y0231047D01*
X0190877Y0231645D02*
X0204442Y0231645D01*
X0204442Y0232244D02*
X0190877Y0232244D01*
X0190877Y0232842D02*
X0204442Y0232842D01*
X0204442Y0233441D02*
X0190877Y0233441D01*
X0190877Y0234039D02*
X0204442Y0234039D01*
X0204442Y0234638D02*
X0190877Y0234638D01*
X0190877Y0235236D02*
X0204442Y0235236D01*
X0204442Y0235835D02*
X0190877Y0235835D01*
X0190877Y0236433D02*
X0204442Y0236433D01*
X0204442Y0237032D02*
X0190877Y0237032D01*
X0190877Y0237630D02*
X0204442Y0237630D01*
X0204442Y0238229D02*
X0191139Y0238229D01*
X0191520Y0238827D02*
X0204442Y0238827D01*
X0204442Y0239426D02*
X0191768Y0239426D01*
X0191777Y0240024D02*
X0204442Y0240024D01*
X0204442Y0240623D02*
X0191735Y0240623D01*
X0191487Y0241222D02*
X0204442Y0241222D01*
X0204442Y0241820D02*
X0191060Y0241820D01*
X0190257Y0242419D02*
X0204442Y0242419D01*
X0204442Y0243017D02*
X0185620Y0243017D01*
X0185022Y0243616D02*
X0204442Y0243616D01*
X0204442Y0244214D02*
X0184423Y0244214D01*
X0183825Y0244813D02*
X0204442Y0244813D01*
X0204442Y0245411D02*
X0183226Y0245411D01*
X0182628Y0246010D02*
X0204442Y0246010D01*
X0204442Y0246608D02*
X0182029Y0246608D01*
X0181431Y0247207D02*
X0204442Y0247207D01*
X0204442Y0247805D02*
X0180832Y0247805D01*
X0180234Y0248404D02*
X0204442Y0248404D01*
X0204442Y0249002D02*
X0179635Y0249002D01*
X0179037Y0249601D02*
X0204442Y0249601D01*
X0204442Y0250199D02*
X0178438Y0250199D01*
X0177840Y0250798D02*
X0204442Y0250798D01*
X0204442Y0251396D02*
X0177241Y0251396D01*
X0176643Y0251995D02*
X0204442Y0251995D01*
X0204442Y0252593D02*
X0176044Y0252593D01*
X0175446Y0253192D02*
X0204768Y0253192D01*
X0205367Y0253790D02*
X0175158Y0253790D01*
X0175406Y0254389D02*
X0205965Y0254389D01*
X0206564Y0254987D02*
X0175542Y0254987D01*
X0175542Y0255586D02*
X0207162Y0255586D01*
X0207761Y0256184D02*
X0175542Y0256184D01*
X0175542Y0256783D02*
X0208359Y0256783D01*
X0209342Y0255220D02*
X0206242Y0252120D01*
X0206242Y0231663D01*
X0207342Y0230563D01*
X0211642Y0230448D02*
X0214221Y0230448D01*
X0214221Y0229850D02*
X0211642Y0229850D01*
X0211642Y0229251D02*
X0214221Y0229251D01*
X0214221Y0228653D02*
X0211642Y0228653D01*
X0211642Y0228054D02*
X0214221Y0228054D01*
X0214221Y0227456D02*
X0211642Y0227456D01*
X0211989Y0231047D02*
X0214221Y0231047D01*
X0214221Y0231645D02*
X0212587Y0231645D01*
X0213186Y0232244D02*
X0214221Y0232244D01*
X0213961Y0232842D02*
X0213784Y0232842D01*
X0212799Y0237373D02*
X0209829Y0237373D01*
X0208342Y0238860D01*
X0208342Y0249250D01*
X0209342Y0255220D02*
X0213342Y0255220D01*
X0224972Y0266850D01*
X0226442Y0266850D01*
X0240342Y0280750D01*
X0237642Y0280723D02*
X0171924Y0280723D01*
X0173239Y0281322D02*
X0237656Y0281322D01*
X0237904Y0281920D02*
X0173866Y0281920D01*
X0174465Y0282519D02*
X0238292Y0282519D01*
X0238429Y0283117D02*
X0174880Y0283117D01*
X0175128Y0283716D02*
X0237830Y0283716D01*
X0237232Y0284314D02*
X0175376Y0284314D01*
X0175542Y0284913D02*
X0236633Y0284913D01*
X0236035Y0285511D02*
X0175542Y0285511D01*
X0175542Y0286110D02*
X0235436Y0286110D01*
X0234838Y0286708D02*
X0175542Y0286708D01*
X0175325Y0287307D02*
X0234239Y0287307D01*
X0233641Y0287905D02*
X0175077Y0287905D01*
X0174830Y0288504D02*
X0233042Y0288504D01*
X0232444Y0289102D02*
X0174343Y0289102D01*
X0173745Y0289701D02*
X0231845Y0289701D01*
X0231247Y0290299D02*
X0172947Y0290299D01*
X0172216Y0290898D02*
X0230648Y0290898D01*
X0230050Y0291496D02*
X0173442Y0291496D01*
X0174041Y0292095D02*
X0229451Y0292095D01*
X0228853Y0292693D02*
X0174639Y0292693D01*
X0174952Y0293292D02*
X0228254Y0293292D01*
X0227656Y0293891D02*
X0175200Y0293891D01*
X0175448Y0294489D02*
X0227057Y0294489D01*
X0226459Y0295088D02*
X0175542Y0295088D01*
X0175542Y0295686D02*
X0225860Y0295686D01*
X0225262Y0296285D02*
X0175542Y0296285D01*
X0175501Y0296883D02*
X0224663Y0296883D01*
X0224065Y0297482D02*
X0175253Y0297482D01*
X0175005Y0298080D02*
X0223466Y0298080D01*
X0222868Y0298679D02*
X0174757Y0298679D01*
X0174169Y0299277D02*
X0222269Y0299277D01*
X0221671Y0299876D02*
X0173570Y0299876D01*
X0172525Y0300474D02*
X0221072Y0300474D01*
X0220474Y0301073D02*
X0172638Y0301073D01*
X0173617Y0301671D02*
X0219875Y0301671D01*
X0219277Y0302270D02*
X0174215Y0302270D01*
X0174777Y0302868D02*
X0218678Y0302868D01*
X0218080Y0303467D02*
X0175024Y0303467D01*
X0170342Y0305750D02*
X0218342Y0305750D01*
X0251842Y0272250D01*
X0237171Y0280125D02*
X0173321Y0280125D01*
X0173919Y0279526D02*
X0236572Y0279526D01*
X0235974Y0278928D02*
X0174518Y0278928D01*
X0174902Y0278329D02*
X0235375Y0278329D01*
X0234777Y0277731D02*
X0175150Y0277731D01*
X0175398Y0277132D02*
X0234178Y0277132D01*
X0233580Y0276534D02*
X0175542Y0276534D01*
X0175542Y0275935D02*
X0232981Y0275935D01*
X0232383Y0275337D02*
X0175542Y0275337D01*
X0175542Y0274738D02*
X0231784Y0274738D01*
X0231186Y0274140D02*
X0175303Y0274140D01*
X0175055Y0273541D02*
X0230587Y0273541D01*
X0229989Y0272943D02*
X0174807Y0272943D01*
X0174290Y0272344D02*
X0229390Y0272344D01*
X0228792Y0271746D02*
X0173691Y0271746D01*
X0172818Y0271147D02*
X0228193Y0271147D01*
X0227595Y0270549D02*
X0172345Y0270549D01*
X0173496Y0269950D02*
X0226996Y0269950D01*
X0226398Y0269352D02*
X0174094Y0269352D01*
X0174693Y0268753D02*
X0225799Y0268753D01*
X0223731Y0268155D02*
X0174974Y0268155D01*
X0175222Y0267556D02*
X0223132Y0267556D01*
X0222534Y0266958D02*
X0175470Y0266958D01*
X0175542Y0266359D02*
X0221935Y0266359D01*
X0221337Y0265760D02*
X0175542Y0265760D01*
X0175542Y0265162D02*
X0220738Y0265162D01*
X0220140Y0264563D02*
X0175479Y0264563D01*
X0175231Y0263965D02*
X0219541Y0263965D01*
X0218943Y0263366D02*
X0174983Y0263366D01*
X0174714Y0262768D02*
X0218344Y0262768D01*
X0217746Y0262169D02*
X0174115Y0262169D01*
X0173517Y0261571D02*
X0217147Y0261571D01*
X0216549Y0260972D02*
X0172396Y0260972D01*
X0172767Y0260374D02*
X0215950Y0260374D01*
X0215352Y0259775D02*
X0173670Y0259775D01*
X0174269Y0259177D02*
X0214753Y0259177D01*
X0214155Y0258578D02*
X0174799Y0258578D01*
X0175047Y0257980D02*
X0213556Y0257980D01*
X0212958Y0257381D02*
X0175295Y0257381D01*
X0170342Y0255750D02*
X0186977Y0239115D01*
X0186977Y0230250D01*
X0187277Y0227550D02*
X0186440Y0227550D01*
X0185447Y0227961D01*
X0184688Y0228721D01*
X0184659Y0228789D01*
X0184631Y0228721D01*
X0183871Y0227961D01*
X0182879Y0227550D01*
X0181805Y0227550D01*
X0180812Y0227961D01*
X0180077Y0228697D01*
X0179356Y0227976D01*
X0178364Y0227565D01*
X0177290Y0227565D01*
X0176297Y0227976D01*
X0175538Y0228736D01*
X0175127Y0229728D01*
X0175127Y0230419D01*
X0173746Y0231800D01*
X0173287Y0231342D01*
X0171859Y0230750D01*
X0173287Y0230158D01*
X0174750Y0228696D01*
X0175542Y0226784D01*
X0175542Y0224716D01*
X0174750Y0222804D01*
X0173287Y0221342D01*
X0171540Y0220618D01*
X0172261Y0220384D01*
X0172962Y0220026D01*
X0173599Y0219564D01*
X0174156Y0219007D01*
X0174618Y0218371D01*
X0174975Y0217669D01*
X0175219Y0216921D01*
X0175342Y0216144D01*
X0175342Y0216050D01*
X0170642Y0216050D01*
X0170642Y0215450D01*
X0175342Y0215450D01*
X0175342Y0215356D01*
X0175219Y0214579D01*
X0174975Y0213831D01*
X0174618Y0213129D01*
X0174156Y0212493D01*
X0174539Y0212493D01*
X0174156Y0212493D02*
X0173599Y0211936D01*
X0172962Y0211474D01*
X0172261Y0211116D01*
X0171540Y0210882D01*
X0172522Y0210475D01*
X0187277Y0225231D01*
X0187277Y0227550D01*
X0187277Y0227456D02*
X0175264Y0227456D01*
X0175016Y0228054D02*
X0176219Y0228054D01*
X0175621Y0228653D02*
X0174768Y0228653D01*
X0175324Y0229251D02*
X0174194Y0229251D01*
X0173596Y0229850D02*
X0175127Y0229850D01*
X0175098Y0230448D02*
X0172587Y0230448D01*
X0172576Y0231047D02*
X0174499Y0231047D01*
X0173901Y0231645D02*
X0173591Y0231645D01*
X0172342Y0235750D02*
X0170342Y0235750D01*
X0172342Y0235750D02*
X0177827Y0230265D01*
X0180033Y0228653D02*
X0180121Y0228653D01*
X0180719Y0228054D02*
X0179434Y0228054D01*
X0182342Y0230250D02*
X0174942Y0237650D01*
X0174942Y0237655D01*
X0172247Y0240350D01*
X0172242Y0240350D01*
X0170342Y0242250D01*
X0170342Y0245750D01*
X0170342Y0255750D02*
X0184007Y0242085D01*
X0186219Y0242419D02*
X0187897Y0242419D01*
X0187093Y0241820D02*
X0186817Y0241820D01*
X0189077Y0239985D02*
X0189077Y0224485D01*
X0170342Y0205750D01*
X0171986Y0210697D02*
X0172744Y0210697D01*
X0172614Y0211296D02*
X0173342Y0211296D01*
X0173542Y0211894D02*
X0173941Y0211894D01*
X0174591Y0213091D02*
X0175138Y0213091D01*
X0174904Y0213690D02*
X0175736Y0213690D01*
X0176335Y0214289D02*
X0175124Y0214289D01*
X0175267Y0214887D02*
X0176933Y0214887D01*
X0177532Y0215486D02*
X0170642Y0215486D01*
X0175256Y0216683D02*
X0178729Y0216683D01*
X0179327Y0217281D02*
X0175102Y0217281D01*
X0174868Y0217880D02*
X0179926Y0217880D01*
X0180524Y0218478D02*
X0174540Y0218478D01*
X0174086Y0219077D02*
X0181123Y0219077D01*
X0181721Y0219675D02*
X0173446Y0219675D01*
X0172477Y0220274D02*
X0182320Y0220274D01*
X0182918Y0220872D02*
X0172154Y0220872D01*
X0173416Y0221471D02*
X0183517Y0221471D01*
X0184115Y0222069D02*
X0174015Y0222069D01*
X0174613Y0222668D02*
X0184714Y0222668D01*
X0185312Y0223266D02*
X0174941Y0223266D01*
X0175189Y0223865D02*
X0185911Y0223865D01*
X0186509Y0224463D02*
X0175437Y0224463D01*
X0175542Y0225062D02*
X0187108Y0225062D01*
X0187277Y0225660D02*
X0175542Y0225660D01*
X0175542Y0226259D02*
X0187277Y0226259D01*
X0187277Y0226857D02*
X0175512Y0226857D01*
X0183964Y0228054D02*
X0185354Y0228054D01*
X0184756Y0228653D02*
X0184563Y0228653D01*
X0178130Y0216084D02*
X0175342Y0216084D01*
X0177035Y0199924D02*
X0208042Y0199924D01*
X0208042Y0199326D02*
X0178679Y0199326D01*
X0180148Y0198727D02*
X0208042Y0198727D01*
X0208042Y0198129D02*
X0180861Y0198129D01*
X0181574Y0197530D02*
X0208042Y0197530D01*
X0208042Y0196932D02*
X0182287Y0196932D01*
X0182742Y0196333D02*
X0208042Y0196333D01*
X0207534Y0195735D02*
X0183087Y0195735D01*
X0183433Y0195136D02*
X0207286Y0195136D01*
X0207142Y0194538D02*
X0183778Y0194538D01*
X0184121Y0193939D02*
X0207142Y0193939D01*
X0207296Y0193341D02*
X0184227Y0193341D01*
X0184332Y0192742D02*
X0207544Y0192742D01*
X0208130Y0192144D02*
X0184438Y0192144D01*
X0184544Y0191545D02*
X0222001Y0191545D01*
X0222600Y0190947D02*
X0184649Y0190947D01*
X0184613Y0190348D02*
X0223198Y0190348D01*
X0223797Y0189750D02*
X0184507Y0189750D01*
X0184402Y0189151D02*
X0224395Y0189151D01*
X0224994Y0188553D02*
X0184296Y0188553D01*
X0184191Y0187954D02*
X0225592Y0187954D01*
X0226191Y0187355D02*
X0184005Y0187355D01*
X0183660Y0186757D02*
X0226789Y0186757D01*
X0227388Y0186158D02*
X0183314Y0186158D01*
X0182043Y0184363D02*
X0277084Y0184363D01*
X0276658Y0183764D02*
X0181329Y0183764D01*
X0180616Y0183166D02*
X0276658Y0183166D01*
X0281263Y0188553D02*
X0282363Y0188553D01*
X0283201Y0189151D02*
X0280611Y0189151D01*
X0285249Y0189151D02*
X0286601Y0189151D01*
X0288008Y0189151D02*
X0289442Y0189151D01*
X0290849Y0189151D02*
X0293442Y0189151D01*
X0293442Y0188553D02*
X0291747Y0188553D01*
X0291942Y0187954D02*
X0293442Y0187954D01*
X0293442Y0187355D02*
X0292062Y0187355D01*
X0292013Y0186757D02*
X0293442Y0186757D01*
X0293442Y0186158D02*
X0291614Y0186158D01*
X0291263Y0185560D02*
X0291215Y0185560D01*
X0293442Y0176850D02*
X0293442Y0033978D01*
X0293389Y0034000D01*
X0292295Y0034000D01*
X0291284Y0033581D01*
X0291120Y0033418D01*
X0292143Y0034951D01*
X0291834Y0036494D01*
X0290524Y0037367D01*
X0288981Y0037059D01*
X0288725Y0036675D01*
X0288469Y0037059D01*
X0286926Y0037367D01*
X0285902Y0036685D01*
X0285111Y0037250D01*
X0283340Y0037250D01*
X0281898Y0036221D01*
X0281898Y0036221D01*
X0281898Y0036221D01*
X0281851Y0036082D01*
X0280994Y0036768D01*
X0280512Y0037250D01*
X0280392Y0037250D01*
X0280298Y0037325D01*
X0279620Y0037250D01*
X0278938Y0037250D01*
X0278853Y0037165D01*
X0278733Y0037151D01*
X0278307Y0036619D01*
X0277825Y0036137D01*
X0277825Y0036016D01*
X0277750Y0035922D01*
X0277825Y0035245D01*
X0277825Y0033050D01*
X0277771Y0033050D01*
X0276658Y0031937D01*
X0276658Y0030650D01*
X0179986Y0030650D01*
X0180013Y0030660D01*
X0182498Y0032745D01*
X0182498Y0032745D01*
X0182498Y0032745D01*
X0184120Y0035555D01*
X0184684Y0038750D01*
X0184120Y0041945D01*
X0182498Y0044755D01*
X0180013Y0046840D01*
X0180013Y0046840D01*
X0176964Y0047950D01*
X0173720Y0047950D01*
X0170671Y0046840D01*
X0168185Y0044755D01*
X0167242Y0043120D01*
X0167242Y0049496D01*
X0167396Y0049342D01*
X0169307Y0048550D01*
X0171376Y0048550D01*
X0173287Y0049342D01*
X0174750Y0050804D01*
X0175542Y0052716D01*
X0175542Y0054784D01*
X0175067Y0055930D01*
X0190877Y0071739D01*
X0190877Y0085967D01*
X0191366Y0086455D01*
X0191777Y0087448D01*
X0191777Y0088522D01*
X0191366Y0089514D01*
X0190606Y0090274D01*
X0189614Y0090685D01*
X0188540Y0090685D01*
X0187547Y0090274D01*
X0186955Y0089682D01*
X0175067Y0101570D01*
X0175542Y0102716D01*
X0175542Y0104784D01*
X0174750Y0106696D01*
X0173287Y0108158D01*
X0171859Y0108750D01*
X0173287Y0109342D01*
X0174750Y0110804D01*
X0175542Y0112716D01*
X0175542Y0114784D01*
X0174750Y0116696D01*
X0173287Y0118158D01*
X0171859Y0118750D01*
X0173287Y0119342D01*
X0174750Y0120804D01*
X0175542Y0122716D01*
X0231762Y0122716D01*
X0231164Y0122118D02*
X0175294Y0122118D01*
X0175542Y0122716D02*
X0175542Y0124784D01*
X0174750Y0126696D01*
X0173287Y0128158D01*
X0171859Y0128750D01*
X0173287Y0129342D01*
X0174750Y0130804D01*
X0175542Y0132716D01*
X0175542Y0134784D01*
X0174750Y0136696D01*
X0173287Y0138158D01*
X0171859Y0138750D01*
X0173287Y0139342D01*
X0174750Y0140804D01*
X0175542Y0142716D01*
X0175542Y0144784D01*
X0174750Y0146696D01*
X0173287Y0148158D01*
X0171859Y0148750D01*
X0173287Y0149342D01*
X0174750Y0150804D01*
X0175225Y0151950D01*
X0217596Y0151950D01*
X0238660Y0130886D01*
X0238053Y0130279D01*
X0237642Y0129287D01*
X0237642Y0128596D01*
X0225696Y0116650D01*
X0224226Y0116650D01*
X0212596Y0105020D01*
X0208596Y0105020D01*
X0205496Y0101920D01*
X0204442Y0100865D01*
X0204442Y0078918D01*
X0204642Y0078718D01*
X0204642Y0078026D01*
X0205053Y0077034D01*
X0205812Y0076274D01*
X0206805Y0075863D01*
X0207879Y0075863D01*
X0208042Y0075931D01*
X0208042Y0044268D01*
X0207553Y0043779D01*
X0207142Y0042787D01*
X0207142Y0041713D01*
X0207553Y0040721D01*
X0208312Y0039961D01*
X0209305Y0039550D01*
X0210379Y0039550D01*
X0211371Y0039961D01*
X0212131Y0040721D01*
X0212542Y0041713D01*
X0212542Y0042787D01*
X0212131Y0043779D01*
X0211642Y0044268D01*
X0211642Y0078700D01*
X0213873Y0080931D01*
X0214221Y0080583D01*
X0214221Y0047326D01*
X0226542Y0035004D01*
X0227596Y0033950D01*
X0238323Y0033950D01*
X0238812Y0033461D01*
X0239805Y0033050D01*
X0240879Y0033050D01*
X0241871Y0033461D01*
X0242631Y0034221D01*
X0243042Y0035213D01*
X0243042Y0036287D01*
X0242631Y0037279D01*
X0241871Y0038039D01*
X0240879Y0038450D01*
X0239805Y0038450D01*
X0238812Y0038039D01*
X0238323Y0037550D01*
X0229087Y0037550D01*
X0217821Y0048817D01*
X0217821Y0077983D01*
X0217827Y0077976D01*
X0218008Y0077901D01*
X0218008Y0076836D01*
X0218419Y0075844D01*
X0219179Y0075085D01*
X0220171Y0074673D01*
X0221245Y0074673D01*
X0222237Y0075085D01*
X0222726Y0075573D01*
X0255211Y0075573D01*
X0256265Y0076628D01*
X0283187Y0103550D01*
X0283879Y0103550D01*
X0284871Y0103961D01*
X0285631Y0104721D01*
X0286042Y0105713D01*
X0286042Y0106787D01*
X0285631Y0107779D01*
X0284871Y0108539D01*
X0283879Y0108950D01*
X0282805Y0108950D01*
X0281812Y0108539D01*
X0281053Y0107779D01*
X0280642Y0106787D01*
X0280642Y0106096D01*
X0280345Y0105799D01*
X0279753Y0106391D01*
X0278761Y0106802D01*
X0277687Y0106802D01*
X0276695Y0106391D01*
X0275935Y0105631D01*
X0275524Y0104639D01*
X0275524Y0103948D01*
X0253641Y0082065D01*
X0251994Y0082065D01*
X0268742Y0098813D01*
X0268742Y0102044D01*
X0267512Y0103274D01*
X0266457Y0104329D01*
X0261742Y0104329D01*
X0261742Y0115865D01*
X0235277Y0142331D01*
X0235277Y0143022D01*
X0234866Y0144014D01*
X0234106Y0144774D01*
X0233114Y0145185D01*
X0232040Y0145185D01*
X0231047Y0144774D01*
X0230455Y0144182D01*
X0220142Y0154496D01*
X0219087Y0155550D01*
X0175225Y0155550D01*
X0174750Y0156696D01*
X0173287Y0158158D01*
X0171376Y0158950D01*
X0169307Y0158950D01*
X0167396Y0158158D01*
X0167242Y0158004D01*
X0167242Y0164380D01*
X0168185Y0162745D01*
X0170671Y0160660D01*
X0173720Y0159550D01*
X0176964Y0159550D01*
X0180013Y0160660D01*
X0182498Y0162745D01*
X0182498Y0162745D01*
X0182498Y0162745D01*
X0184120Y0165555D01*
X0184684Y0168750D01*
X0184120Y0171945D01*
X0182498Y0174755D01*
X0180013Y0176840D01*
X0180013Y0176840D01*
X0179986Y0176850D01*
X0293442Y0176850D01*
X0293442Y0176582D02*
X0180320Y0176582D01*
X0181034Y0175984D02*
X0293442Y0175984D01*
X0293442Y0175385D02*
X0181747Y0175385D01*
X0182460Y0174787D02*
X0293442Y0174787D01*
X0293442Y0174188D02*
X0182825Y0174188D01*
X0182498Y0174755D02*
X0182498Y0174755D01*
X0183171Y0173590D02*
X0293442Y0173590D01*
X0293442Y0172991D02*
X0183516Y0172991D01*
X0183862Y0172393D02*
X0293442Y0172393D01*
X0293442Y0171794D02*
X0184147Y0171794D01*
X0184120Y0171945D02*
X0184120Y0171945D01*
X0184252Y0171196D02*
X0293442Y0171196D01*
X0293442Y0170597D02*
X0184358Y0170597D01*
X0184464Y0169999D02*
X0293442Y0169999D01*
X0293442Y0169400D02*
X0184569Y0169400D01*
X0184675Y0168802D02*
X0293442Y0168802D01*
X0293442Y0168203D02*
X0184587Y0168203D01*
X0184684Y0168750D02*
X0184684Y0168750D01*
X0184482Y0167605D02*
X0293442Y0167605D01*
X0293442Y0167006D02*
X0184376Y0167006D01*
X0184271Y0166408D02*
X0293442Y0166408D01*
X0293442Y0165809D02*
X0184165Y0165809D01*
X0184120Y0165555D02*
X0184120Y0165555D01*
X0183922Y0165211D02*
X0293442Y0165211D01*
X0293442Y0164612D02*
X0183576Y0164612D01*
X0183230Y0164014D02*
X0293442Y0164014D01*
X0293442Y0163415D02*
X0182885Y0163415D01*
X0182539Y0162817D02*
X0293442Y0162817D01*
X0293442Y0162218D02*
X0181870Y0162218D01*
X0181157Y0161620D02*
X0293442Y0161620D01*
X0293442Y0161021D02*
X0180443Y0161021D01*
X0180013Y0160660D02*
X0180013Y0160660D01*
X0179361Y0160422D02*
X0293442Y0160422D01*
X0293442Y0159824D02*
X0177717Y0159824D01*
X0174614Y0156831D02*
X0293442Y0156831D01*
X0293442Y0156233D02*
X0174942Y0156233D01*
X0175190Y0155634D02*
X0293442Y0155634D01*
X0293442Y0155036D02*
X0219601Y0155036D01*
X0220200Y0154437D02*
X0293442Y0154437D01*
X0293442Y0153839D02*
X0220799Y0153839D01*
X0221397Y0153240D02*
X0293442Y0153240D01*
X0293442Y0152642D02*
X0221996Y0152642D01*
X0222594Y0152043D02*
X0293442Y0152043D01*
X0293442Y0151445D02*
X0223193Y0151445D01*
X0223791Y0150846D02*
X0293442Y0150846D01*
X0293442Y0150248D02*
X0224390Y0150248D01*
X0224988Y0149649D02*
X0293442Y0149649D01*
X0293442Y0149051D02*
X0225587Y0149051D01*
X0226185Y0148452D02*
X0293442Y0148452D01*
X0293442Y0147854D02*
X0226784Y0147854D01*
X0227382Y0147255D02*
X0293442Y0147255D01*
X0293442Y0146657D02*
X0227981Y0146657D01*
X0228579Y0146058D02*
X0293442Y0146058D01*
X0293442Y0145460D02*
X0229178Y0145460D01*
X0229776Y0144861D02*
X0231258Y0144861D01*
X0230536Y0144263D02*
X0230375Y0144263D01*
X0232577Y0142485D02*
X0259942Y0115120D01*
X0259942Y0101832D01*
X0260639Y0102529D01*
X0265712Y0102529D01*
X0266942Y0101299D01*
X0266942Y0099559D01*
X0250833Y0083450D01*
X0245527Y0083450D01*
X0245342Y0083265D01*
X0246357Y0083265D01*
X0245342Y0083265D02*
X0219021Y0083265D01*
X0221088Y0085440D02*
X0221878Y0084650D01*
X0225942Y0084650D01*
X0225942Y0101350D01*
X0225842Y0101350D01*
X0225842Y0112750D01*
X0226442Y0114850D02*
X0240342Y0128750D01*
X0237642Y0128701D02*
X0171976Y0128701D01*
X0173187Y0129300D02*
X0237647Y0129300D01*
X0237895Y0129898D02*
X0173844Y0129898D01*
X0174443Y0130497D02*
X0238270Y0130497D01*
X0238451Y0131095D02*
X0174871Y0131095D01*
X0175119Y0131694D02*
X0237852Y0131694D01*
X0237254Y0132292D02*
X0175366Y0132292D01*
X0175542Y0132891D02*
X0236655Y0132891D01*
X0236057Y0133489D02*
X0175542Y0133489D01*
X0175542Y0134088D02*
X0235458Y0134088D01*
X0234860Y0134687D02*
X0175542Y0134687D01*
X0175334Y0135285D02*
X0234261Y0135285D01*
X0233663Y0135884D02*
X0175087Y0135884D01*
X0174839Y0136482D02*
X0233064Y0136482D01*
X0232466Y0137081D02*
X0174365Y0137081D01*
X0173767Y0137679D02*
X0231867Y0137679D01*
X0231269Y0138278D02*
X0173000Y0138278D01*
X0172163Y0138876D02*
X0230670Y0138876D01*
X0230072Y0139475D02*
X0173420Y0139475D01*
X0174019Y0140073D02*
X0229473Y0140073D01*
X0228875Y0140672D02*
X0174617Y0140672D01*
X0174943Y0141270D02*
X0228276Y0141270D01*
X0227678Y0141869D02*
X0175191Y0141869D01*
X0175439Y0142467D02*
X0227079Y0142467D01*
X0226481Y0143066D02*
X0175542Y0143066D01*
X0175542Y0143664D02*
X0225882Y0143664D01*
X0225284Y0144263D02*
X0175542Y0144263D01*
X0175510Y0144861D02*
X0224685Y0144861D01*
X0224087Y0145460D02*
X0175262Y0145460D01*
X0175014Y0146058D02*
X0223488Y0146058D01*
X0222889Y0146657D02*
X0174766Y0146657D01*
X0174190Y0147255D02*
X0222291Y0147255D01*
X0221692Y0147854D02*
X0173592Y0147854D01*
X0172578Y0148452D02*
X0221094Y0148452D01*
X0220495Y0149051D02*
X0172585Y0149051D01*
X0173595Y0149649D02*
X0219897Y0149649D01*
X0219298Y0150248D02*
X0174194Y0150248D01*
X0174767Y0150846D02*
X0218700Y0150846D01*
X0218101Y0151445D02*
X0175015Y0151445D01*
X0170342Y0153750D02*
X0218342Y0153750D01*
X0251842Y0120250D01*
X0254891Y0122716D02*
X0293442Y0122716D01*
X0293442Y0122118D02*
X0255489Y0122118D01*
X0256088Y0121519D02*
X0293442Y0121519D01*
X0293442Y0120921D02*
X0256686Y0120921D01*
X0257285Y0120322D02*
X0293442Y0120322D01*
X0293442Y0119724D02*
X0257884Y0119724D01*
X0258482Y0119125D02*
X0293442Y0119125D01*
X0293442Y0118527D02*
X0259081Y0118527D01*
X0259679Y0117928D02*
X0293442Y0117928D01*
X0293442Y0117330D02*
X0260278Y0117330D01*
X0260876Y0116731D02*
X0293442Y0116731D01*
X0293442Y0116133D02*
X0261475Y0116133D01*
X0261742Y0115534D02*
X0293442Y0115534D01*
X0293442Y0114936D02*
X0261742Y0114936D01*
X0261742Y0114337D02*
X0293442Y0114337D01*
X0293442Y0113739D02*
X0261742Y0113739D01*
X0261742Y0113140D02*
X0293442Y0113140D01*
X0293442Y0112542D02*
X0261742Y0112542D01*
X0261742Y0111943D02*
X0293442Y0111943D01*
X0293442Y0111345D02*
X0261742Y0111345D01*
X0261742Y0110746D02*
X0293442Y0110746D01*
X0293442Y0110148D02*
X0261742Y0110148D01*
X0261742Y0109549D02*
X0293442Y0109549D01*
X0293442Y0108951D02*
X0261742Y0108951D01*
X0261742Y0108352D02*
X0281625Y0108352D01*
X0281042Y0107753D02*
X0261742Y0107753D01*
X0261742Y0107155D02*
X0280794Y0107155D01*
X0280642Y0106556D02*
X0279354Y0106556D01*
X0280186Y0105958D02*
X0280504Y0105958D01*
X0283342Y0106250D02*
X0254465Y0077373D01*
X0220708Y0077373D01*
X0222587Y0075434D02*
X0293442Y0075434D01*
X0293442Y0076032D02*
X0255670Y0076032D01*
X0256268Y0076631D02*
X0293442Y0076631D01*
X0293442Y0077229D02*
X0256867Y0077229D01*
X0257465Y0077828D02*
X0293442Y0077828D01*
X0293442Y0078426D02*
X0258064Y0078426D01*
X0258662Y0079025D02*
X0293442Y0079025D01*
X0293442Y0079623D02*
X0259261Y0079623D01*
X0259859Y0080222D02*
X0293442Y0080222D01*
X0293442Y0080820D02*
X0260458Y0080820D01*
X0261056Y0081419D02*
X0293442Y0081419D01*
X0293442Y0082018D02*
X0261655Y0082018D01*
X0262253Y0082616D02*
X0293442Y0082616D01*
X0293442Y0083215D02*
X0262852Y0083215D01*
X0263450Y0083813D02*
X0293442Y0083813D01*
X0293442Y0084412D02*
X0264049Y0084412D01*
X0264647Y0085010D02*
X0293442Y0085010D01*
X0293442Y0085609D02*
X0265246Y0085609D01*
X0265844Y0086207D02*
X0293442Y0086207D01*
X0293442Y0086806D02*
X0266443Y0086806D01*
X0267041Y0087404D02*
X0293442Y0087404D01*
X0293442Y0088003D02*
X0267640Y0088003D01*
X0268239Y0088601D02*
X0293442Y0088601D01*
X0293442Y0089200D02*
X0268837Y0089200D01*
X0269436Y0089798D02*
X0293442Y0089798D01*
X0293442Y0090397D02*
X0270034Y0090397D01*
X0270633Y0090995D02*
X0293442Y0090995D01*
X0293442Y0091594D02*
X0271231Y0091594D01*
X0271830Y0092192D02*
X0293442Y0092192D01*
X0293442Y0092791D02*
X0272428Y0092791D01*
X0273027Y0093389D02*
X0293442Y0093389D01*
X0293442Y0093988D02*
X0273625Y0093988D01*
X0274224Y0094586D02*
X0293442Y0094586D01*
X0293442Y0095185D02*
X0274822Y0095185D01*
X0275421Y0095783D02*
X0293442Y0095783D01*
X0293442Y0096382D02*
X0276019Y0096382D01*
X0276618Y0096980D02*
X0293442Y0096980D01*
X0293442Y0097579D02*
X0277216Y0097579D01*
X0277815Y0098177D02*
X0293442Y0098177D01*
X0293442Y0098776D02*
X0278413Y0098776D01*
X0279012Y0099374D02*
X0293442Y0099374D01*
X0293442Y0099973D02*
X0279610Y0099973D01*
X0280209Y0100571D02*
X0293442Y0100571D01*
X0293442Y0101170D02*
X0280807Y0101170D01*
X0281406Y0101768D02*
X0293442Y0101768D01*
X0293442Y0102367D02*
X0282004Y0102367D01*
X0282603Y0102965D02*
X0293442Y0102965D01*
X0293442Y0103564D02*
X0283912Y0103564D01*
X0285073Y0104162D02*
X0293442Y0104162D01*
X0293442Y0104761D02*
X0285647Y0104761D01*
X0285895Y0105359D02*
X0293442Y0105359D01*
X0293442Y0105958D02*
X0286042Y0105958D01*
X0286042Y0106556D02*
X0293442Y0106556D01*
X0293442Y0107155D02*
X0285889Y0107155D01*
X0285641Y0107753D02*
X0293442Y0107753D01*
X0293442Y0108352D02*
X0285058Y0108352D01*
X0278224Y0104102D02*
X0254387Y0080265D01*
X0219357Y0080265D01*
X0218008Y0077828D02*
X0217821Y0077828D01*
X0217821Y0077229D02*
X0218008Y0077229D01*
X0218093Y0076631D02*
X0217821Y0076631D01*
X0217821Y0076032D02*
X0218341Y0076032D01*
X0218829Y0075434D02*
X0217821Y0075434D01*
X0217821Y0074835D02*
X0219780Y0074835D01*
X0221636Y0074835D02*
X0293442Y0074835D01*
X0293442Y0074237D02*
X0217821Y0074237D01*
X0217821Y0073638D02*
X0293442Y0073638D01*
X0293442Y0073040D02*
X0217821Y0073040D01*
X0217821Y0072441D02*
X0293442Y0072441D01*
X0293442Y0071843D02*
X0217821Y0071843D01*
X0217821Y0071244D02*
X0293442Y0071244D01*
X0293442Y0070646D02*
X0217821Y0070646D01*
X0217821Y0070047D02*
X0293442Y0070047D01*
X0293442Y0069449D02*
X0217821Y0069449D01*
X0217821Y0068850D02*
X0293442Y0068850D01*
X0293442Y0068252D02*
X0217821Y0068252D01*
X0217821Y0067653D02*
X0293442Y0067653D01*
X0293442Y0067055D02*
X0217821Y0067055D01*
X0217821Y0066456D02*
X0293442Y0066456D01*
X0293442Y0065858D02*
X0217821Y0065858D01*
X0217821Y0065259D02*
X0293442Y0065259D01*
X0293442Y0064661D02*
X0217821Y0064661D01*
X0217821Y0064062D02*
X0293442Y0064062D01*
X0293442Y0063464D02*
X0217821Y0063464D01*
X0217821Y0062865D02*
X0293442Y0062865D01*
X0293442Y0062267D02*
X0217821Y0062267D01*
X0217821Y0061668D02*
X0293442Y0061668D01*
X0293442Y0061070D02*
X0217821Y0061070D01*
X0217821Y0060471D02*
X0293442Y0060471D01*
X0293442Y0059873D02*
X0217821Y0059873D01*
X0217821Y0059274D02*
X0293442Y0059274D01*
X0293442Y0058676D02*
X0217821Y0058676D01*
X0217821Y0058077D02*
X0293442Y0058077D01*
X0293442Y0057479D02*
X0217821Y0057479D01*
X0217821Y0056880D02*
X0293442Y0056880D01*
X0293442Y0056282D02*
X0217821Y0056282D01*
X0217821Y0055683D02*
X0293442Y0055683D01*
X0293442Y0055084D02*
X0217821Y0055084D01*
X0217821Y0054486D02*
X0293442Y0054486D01*
X0293442Y0053887D02*
X0217821Y0053887D01*
X0217821Y0053289D02*
X0293442Y0053289D01*
X0293442Y0052690D02*
X0217821Y0052690D01*
X0217821Y0052092D02*
X0293442Y0052092D01*
X0293442Y0051493D02*
X0217821Y0051493D01*
X0217821Y0050895D02*
X0293442Y0050895D01*
X0293442Y0050296D02*
X0217821Y0050296D01*
X0217821Y0049698D02*
X0293442Y0049698D01*
X0293442Y0049099D02*
X0217821Y0049099D01*
X0218137Y0048501D02*
X0293442Y0048501D01*
X0293442Y0047902D02*
X0218735Y0047902D01*
X0219334Y0047304D02*
X0293442Y0047304D01*
X0293442Y0046705D02*
X0219932Y0046705D01*
X0220531Y0046107D02*
X0293442Y0046107D01*
X0293442Y0045508D02*
X0221129Y0045508D01*
X0221728Y0044910D02*
X0293442Y0044910D01*
X0293442Y0044311D02*
X0222326Y0044311D01*
X0222925Y0043713D02*
X0293442Y0043713D01*
X0293442Y0043114D02*
X0223523Y0043114D01*
X0224122Y0042516D02*
X0293442Y0042516D01*
X0293442Y0041917D02*
X0224720Y0041917D01*
X0225319Y0041319D02*
X0293442Y0041319D01*
X0293442Y0040720D02*
X0225917Y0040720D01*
X0226516Y0040122D02*
X0293442Y0040122D01*
X0293442Y0039523D02*
X0227114Y0039523D01*
X0227713Y0038925D02*
X0293442Y0038925D01*
X0293442Y0038326D02*
X0241178Y0038326D01*
X0242182Y0037728D02*
X0293442Y0037728D01*
X0293442Y0037129D02*
X0290882Y0037129D01*
X0291779Y0036531D02*
X0293442Y0036531D01*
X0293442Y0035932D02*
X0291946Y0035932D01*
X0292066Y0035334D02*
X0293442Y0035334D01*
X0293442Y0034735D02*
X0291999Y0034735D01*
X0291600Y0034137D02*
X0293442Y0034137D01*
X0291241Y0033538D02*
X0291201Y0033538D01*
X0289333Y0037129D02*
X0288117Y0037129D01*
X0286569Y0037129D02*
X0285280Y0037129D01*
X0283170Y0037129D02*
X0280633Y0037129D01*
X0281291Y0036531D02*
X0282333Y0036531D01*
X0278715Y0037129D02*
X0242693Y0037129D01*
X0242941Y0036531D02*
X0278219Y0036531D01*
X0277758Y0035932D02*
X0243042Y0035932D01*
X0243042Y0035334D02*
X0277815Y0035334D01*
X0277825Y0034735D02*
X0242844Y0034735D01*
X0242547Y0034137D02*
X0277825Y0034137D01*
X0277825Y0033538D02*
X0241948Y0033538D01*
X0240342Y0035750D02*
X0228342Y0035750D01*
X0216021Y0048071D01*
X0216021Y0082601D01*
X0214899Y0084503D02*
X0214899Y0087540D01*
X0223537Y0087540D01*
X0223842Y0087844D01*
X0223842Y0099250D01*
X0215330Y0107753D02*
X0173692Y0107753D01*
X0174291Y0107155D02*
X0214731Y0107155D01*
X0214133Y0106556D02*
X0174808Y0106556D01*
X0175056Y0105958D02*
X0213534Y0105958D01*
X0212936Y0105359D02*
X0175304Y0105359D01*
X0175542Y0104761D02*
X0208337Y0104761D01*
X0207739Y0104162D02*
X0175542Y0104162D01*
X0175542Y0103564D02*
X0207140Y0103564D01*
X0206542Y0102965D02*
X0175542Y0102965D01*
X0175397Y0102367D02*
X0205943Y0102367D01*
X0205345Y0101768D02*
X0175149Y0101768D01*
X0175467Y0101170D02*
X0204746Y0101170D01*
X0204442Y0100571D02*
X0176066Y0100571D01*
X0176665Y0099973D02*
X0204442Y0099973D01*
X0204442Y0099374D02*
X0177263Y0099374D01*
X0177862Y0098776D02*
X0204442Y0098776D01*
X0204442Y0098177D02*
X0178460Y0098177D01*
X0179059Y0097579D02*
X0204442Y0097579D01*
X0204442Y0096980D02*
X0179657Y0096980D01*
X0180256Y0096382D02*
X0204442Y0096382D01*
X0204442Y0095783D02*
X0180854Y0095783D01*
X0181453Y0095185D02*
X0204442Y0095185D01*
X0204442Y0094586D02*
X0182051Y0094586D01*
X0182650Y0093988D02*
X0204442Y0093988D01*
X0204442Y0093389D02*
X0183248Y0093389D01*
X0183847Y0092791D02*
X0204442Y0092791D01*
X0204442Y0092192D02*
X0184445Y0092192D01*
X0185044Y0091594D02*
X0204442Y0091594D01*
X0204442Y0090995D02*
X0185642Y0090995D01*
X0186241Y0090397D02*
X0187844Y0090397D01*
X0187072Y0089798D02*
X0186839Y0089798D01*
X0186977Y0087115D02*
X0170342Y0103750D01*
X0184007Y0090085D01*
X0186977Y0087115D02*
X0186977Y0078250D01*
X0187277Y0075550D02*
X0186440Y0075550D01*
X0185447Y0075961D01*
X0184688Y0076721D01*
X0184659Y0076789D01*
X0184631Y0076721D01*
X0183871Y0075961D01*
X0182879Y0075550D01*
X0181805Y0075550D01*
X0180812Y0075961D01*
X0180077Y0076697D01*
X0179356Y0075976D01*
X0178364Y0075565D01*
X0177290Y0075565D01*
X0176297Y0075976D01*
X0175538Y0076736D01*
X0175127Y0077728D01*
X0175127Y0078419D01*
X0173746Y0079800D01*
X0173287Y0079342D01*
X0171859Y0078750D01*
X0173287Y0078158D01*
X0174750Y0076696D01*
X0175542Y0074784D01*
X0175542Y0072716D01*
X0174750Y0070804D01*
X0173287Y0069342D01*
X0171540Y0068618D01*
X0172261Y0068384D01*
X0172962Y0068026D01*
X0173599Y0067564D01*
X0174156Y0067007D01*
X0174618Y0066371D01*
X0174975Y0065669D01*
X0175219Y0064921D01*
X0175342Y0064144D01*
X0175342Y0064050D01*
X0170642Y0064050D01*
X0170642Y0063450D01*
X0175342Y0063450D01*
X0175342Y0063356D01*
X0175219Y0062579D01*
X0174975Y0061831D01*
X0174618Y0061129D01*
X0174156Y0060493D01*
X0173599Y0059936D01*
X0172962Y0059474D01*
X0172261Y0059116D01*
X0171540Y0058882D01*
X0172522Y0058475D01*
X0187277Y0073231D01*
X0187277Y0075550D01*
X0187277Y0075434D02*
X0175273Y0075434D01*
X0175025Y0076032D02*
X0176241Y0076032D01*
X0175643Y0076631D02*
X0174777Y0076631D01*
X0175333Y0077229D02*
X0174216Y0077229D01*
X0173618Y0077828D02*
X0175127Y0077828D01*
X0175120Y0078426D02*
X0172640Y0078426D01*
X0172523Y0079025D02*
X0174521Y0079025D01*
X0173923Y0079623D02*
X0173569Y0079623D01*
X0172342Y0083750D02*
X0170342Y0083750D01*
X0172342Y0083750D02*
X0177827Y0078265D01*
X0180011Y0076631D02*
X0180143Y0076631D01*
X0180741Y0076032D02*
X0179412Y0076032D01*
X0182342Y0078250D02*
X0174942Y0085650D01*
X0174942Y0085655D01*
X0172247Y0088350D01*
X0172242Y0088350D01*
X0170342Y0090250D01*
X0170342Y0093750D01*
X0172820Y0108352D02*
X0215928Y0108352D01*
X0216527Y0108951D02*
X0172343Y0108951D01*
X0173495Y0109549D02*
X0217125Y0109549D01*
X0217724Y0110148D02*
X0174093Y0110148D01*
X0174692Y0110746D02*
X0218322Y0110746D01*
X0218921Y0111345D02*
X0174974Y0111345D01*
X0175222Y0111943D02*
X0219519Y0111943D01*
X0220118Y0112542D02*
X0175470Y0112542D01*
X0175542Y0113140D02*
X0220716Y0113140D01*
X0221315Y0113739D02*
X0175542Y0113739D01*
X0175542Y0114337D02*
X0221913Y0114337D01*
X0222512Y0114936D02*
X0175479Y0114936D01*
X0175231Y0115534D02*
X0223111Y0115534D01*
X0223709Y0116133D02*
X0174983Y0116133D01*
X0174715Y0116731D02*
X0225777Y0116731D01*
X0226376Y0117330D02*
X0174116Y0117330D01*
X0173518Y0117928D02*
X0226974Y0117928D01*
X0227573Y0118527D02*
X0172398Y0118527D01*
X0172765Y0119125D02*
X0228171Y0119125D01*
X0228770Y0119724D02*
X0173669Y0119724D01*
X0174268Y0120322D02*
X0229368Y0120322D01*
X0229967Y0120921D02*
X0174798Y0120921D01*
X0175046Y0121519D02*
X0230565Y0121519D01*
X0232361Y0123315D02*
X0175542Y0123315D01*
X0175542Y0123913D02*
X0232960Y0123913D01*
X0233558Y0124512D02*
X0175542Y0124512D01*
X0175407Y0125110D02*
X0234157Y0125110D01*
X0234755Y0125709D02*
X0175159Y0125709D01*
X0174911Y0126307D02*
X0235354Y0126307D01*
X0235952Y0126906D02*
X0174540Y0126906D01*
X0173941Y0127504D02*
X0236551Y0127504D01*
X0237149Y0128103D02*
X0173343Y0128103D01*
X0151342Y0106250D02*
X0122465Y0077373D01*
X0093942Y0084650D02*
X0089878Y0084650D01*
X0089088Y0085440D01*
X0076042Y0047902D02*
X0045095Y0047902D01*
X0046739Y0047304D02*
X0076042Y0047304D01*
X0076042Y0046705D02*
X0048174Y0046705D01*
X0048887Y0046107D02*
X0076042Y0046107D01*
X0076042Y0045508D02*
X0049600Y0045508D01*
X0050313Y0044910D02*
X0076042Y0044910D01*
X0076042Y0044311D02*
X0050754Y0044311D01*
X0051100Y0043713D02*
X0075525Y0043713D01*
X0075277Y0043114D02*
X0051445Y0043114D01*
X0051791Y0042516D02*
X0075142Y0042516D01*
X0075142Y0041917D02*
X0052125Y0041917D01*
X0052231Y0041319D02*
X0075305Y0041319D01*
X0075553Y0040720D02*
X0052336Y0040720D01*
X0052442Y0040122D02*
X0076152Y0040122D01*
X0050017Y0032341D02*
X0145063Y0032341D01*
X0144658Y0031743D02*
X0049303Y0031743D01*
X0048590Y0031144D02*
X0144658Y0031144D01*
X0149291Y0036531D02*
X0150333Y0036531D01*
X0151170Y0037129D02*
X0148633Y0037129D01*
X0153280Y0037129D02*
X0154569Y0037129D01*
X0156117Y0037129D02*
X0157333Y0037129D01*
X0158882Y0037129D02*
X0161442Y0037129D01*
X0161442Y0036531D02*
X0159779Y0036531D01*
X0159946Y0035932D02*
X0161442Y0035932D01*
X0161442Y0035334D02*
X0160066Y0035334D01*
X0159999Y0034735D02*
X0161442Y0034735D01*
X0161442Y0034137D02*
X0159600Y0034137D01*
X0159241Y0033538D02*
X0159201Y0033538D01*
X0167242Y0043713D02*
X0167584Y0043713D01*
X0167242Y0044311D02*
X0167929Y0044311D01*
X0168185Y0044755D02*
X0168185Y0044755D01*
X0168185Y0044755D01*
X0168370Y0044910D02*
X0167242Y0044910D01*
X0167242Y0045508D02*
X0169083Y0045508D01*
X0169797Y0046107D02*
X0167242Y0046107D01*
X0167242Y0046705D02*
X0170510Y0046705D01*
X0170671Y0046840D02*
X0170671Y0046840D01*
X0171944Y0047304D02*
X0167242Y0047304D01*
X0167242Y0047902D02*
X0173589Y0047902D01*
X0172702Y0049099D02*
X0208042Y0049099D01*
X0208042Y0048501D02*
X0167242Y0048501D01*
X0167242Y0049099D02*
X0167981Y0049099D01*
X0170342Y0053750D02*
X0189077Y0072485D01*
X0189077Y0087985D01*
X0191777Y0088003D02*
X0204442Y0088003D01*
X0204442Y0088601D02*
X0191744Y0088601D01*
X0191496Y0089200D02*
X0204442Y0089200D01*
X0204442Y0089798D02*
X0191082Y0089798D01*
X0190310Y0090397D02*
X0204442Y0090397D01*
X0204442Y0087404D02*
X0191759Y0087404D01*
X0191511Y0086806D02*
X0204442Y0086806D01*
X0204442Y0086207D02*
X0191117Y0086207D01*
X0190877Y0085609D02*
X0204442Y0085609D01*
X0204442Y0085010D02*
X0190877Y0085010D01*
X0190877Y0084412D02*
X0204442Y0084412D01*
X0204442Y0083813D02*
X0190877Y0083813D01*
X0190877Y0083215D02*
X0204442Y0083215D01*
X0204442Y0082616D02*
X0190877Y0082616D01*
X0190877Y0082018D02*
X0204442Y0082018D01*
X0204442Y0081419D02*
X0190877Y0081419D01*
X0190877Y0080820D02*
X0204442Y0080820D01*
X0204442Y0080222D02*
X0190877Y0080222D01*
X0190877Y0079623D02*
X0204442Y0079623D01*
X0204442Y0079025D02*
X0190877Y0079025D01*
X0190877Y0078426D02*
X0204642Y0078426D01*
X0204724Y0077828D02*
X0190877Y0077828D01*
X0190877Y0077229D02*
X0204972Y0077229D01*
X0205456Y0076631D02*
X0190877Y0076631D01*
X0190877Y0076032D02*
X0206397Y0076032D01*
X0208042Y0075434D02*
X0190877Y0075434D01*
X0190877Y0074835D02*
X0208042Y0074835D01*
X0208042Y0074237D02*
X0190877Y0074237D01*
X0190877Y0073638D02*
X0208042Y0073638D01*
X0208042Y0073040D02*
X0190877Y0073040D01*
X0190877Y0072441D02*
X0208042Y0072441D01*
X0208042Y0071843D02*
X0190877Y0071843D01*
X0190382Y0071244D02*
X0208042Y0071244D01*
X0208042Y0070646D02*
X0189783Y0070646D01*
X0189185Y0070047D02*
X0208042Y0070047D01*
X0208042Y0069449D02*
X0188586Y0069449D01*
X0187988Y0068850D02*
X0208042Y0068850D01*
X0208042Y0068252D02*
X0187389Y0068252D01*
X0186791Y0067653D02*
X0208042Y0067653D01*
X0208042Y0067055D02*
X0186192Y0067055D01*
X0185594Y0066456D02*
X0208042Y0066456D01*
X0208042Y0065858D02*
X0184995Y0065858D01*
X0184397Y0065259D02*
X0208042Y0065259D01*
X0208042Y0064661D02*
X0183798Y0064661D01*
X0183200Y0064062D02*
X0208042Y0064062D01*
X0208042Y0063464D02*
X0182601Y0063464D01*
X0182003Y0062865D02*
X0208042Y0062865D01*
X0208042Y0062267D02*
X0181404Y0062267D01*
X0180806Y0061668D02*
X0208042Y0061668D01*
X0208042Y0061070D02*
X0180207Y0061070D01*
X0179608Y0060471D02*
X0208042Y0060471D01*
X0208042Y0059873D02*
X0179010Y0059873D01*
X0178411Y0059274D02*
X0208042Y0059274D01*
X0208042Y0058676D02*
X0177813Y0058676D01*
X0177214Y0058077D02*
X0208042Y0058077D01*
X0208042Y0057479D02*
X0176616Y0057479D01*
X0176017Y0056880D02*
X0208042Y0056880D01*
X0208042Y0056282D02*
X0175419Y0056282D01*
X0175170Y0055683D02*
X0208042Y0055683D01*
X0208042Y0055084D02*
X0175417Y0055084D01*
X0175542Y0054486D02*
X0208042Y0054486D01*
X0208042Y0053887D02*
X0175542Y0053887D01*
X0175542Y0053289D02*
X0208042Y0053289D01*
X0208042Y0052690D02*
X0175531Y0052690D01*
X0175283Y0052092D02*
X0208042Y0052092D01*
X0208042Y0051493D02*
X0175036Y0051493D01*
X0174788Y0050895D02*
X0208042Y0050895D01*
X0208042Y0050296D02*
X0174242Y0050296D01*
X0173644Y0049698D02*
X0208042Y0049698D01*
X0208042Y0047902D02*
X0177095Y0047902D01*
X0178739Y0047304D02*
X0208042Y0047304D01*
X0208042Y0046705D02*
X0180174Y0046705D01*
X0180887Y0046107D02*
X0208042Y0046107D01*
X0208042Y0045508D02*
X0181600Y0045508D01*
X0182313Y0044910D02*
X0208042Y0044910D01*
X0208042Y0044311D02*
X0182754Y0044311D01*
X0182498Y0044755D02*
X0182498Y0044755D01*
X0183100Y0043713D02*
X0207525Y0043713D01*
X0207277Y0043114D02*
X0183445Y0043114D01*
X0183791Y0042516D02*
X0207142Y0042516D01*
X0207142Y0041917D02*
X0184125Y0041917D01*
X0184120Y0041945D02*
X0184120Y0041945D01*
X0184231Y0041319D02*
X0207305Y0041319D01*
X0207553Y0040720D02*
X0184336Y0040720D01*
X0184442Y0040122D02*
X0208152Y0040122D01*
X0209842Y0042250D02*
X0209842Y0079445D01*
X0214899Y0084503D01*
X0212799Y0085373D02*
X0209829Y0085373D01*
X0208342Y0086860D01*
X0208342Y0097250D01*
X0206242Y0100120D02*
X0206242Y0079663D01*
X0207342Y0078563D01*
X0211642Y0078426D02*
X0214221Y0078426D01*
X0214221Y0077828D02*
X0211642Y0077828D01*
X0211642Y0077229D02*
X0214221Y0077229D01*
X0214221Y0076631D02*
X0211642Y0076631D01*
X0211642Y0076032D02*
X0214221Y0076032D01*
X0214221Y0075434D02*
X0211642Y0075434D01*
X0211642Y0074835D02*
X0214221Y0074835D01*
X0214221Y0074237D02*
X0211642Y0074237D01*
X0211642Y0073638D02*
X0214221Y0073638D01*
X0214221Y0073040D02*
X0211642Y0073040D01*
X0211642Y0072441D02*
X0214221Y0072441D01*
X0214221Y0071843D02*
X0211642Y0071843D01*
X0211642Y0071244D02*
X0214221Y0071244D01*
X0214221Y0070646D02*
X0211642Y0070646D01*
X0211642Y0070047D02*
X0214221Y0070047D01*
X0214221Y0069449D02*
X0211642Y0069449D01*
X0211642Y0068850D02*
X0214221Y0068850D01*
X0214221Y0068252D02*
X0211642Y0068252D01*
X0211642Y0067653D02*
X0214221Y0067653D01*
X0214221Y0067055D02*
X0211642Y0067055D01*
X0211642Y0066456D02*
X0214221Y0066456D01*
X0214221Y0065858D02*
X0211642Y0065858D01*
X0211642Y0065259D02*
X0214221Y0065259D01*
X0214221Y0064661D02*
X0211642Y0064661D01*
X0211642Y0064062D02*
X0214221Y0064062D01*
X0214221Y0063464D02*
X0211642Y0063464D01*
X0211642Y0062865D02*
X0214221Y0062865D01*
X0214221Y0062267D02*
X0211642Y0062267D01*
X0211642Y0061668D02*
X0214221Y0061668D01*
X0214221Y0061070D02*
X0211642Y0061070D01*
X0211642Y0060471D02*
X0214221Y0060471D01*
X0214221Y0059873D02*
X0211642Y0059873D01*
X0211642Y0059274D02*
X0214221Y0059274D01*
X0214221Y0058676D02*
X0211642Y0058676D01*
X0211642Y0058077D02*
X0214221Y0058077D01*
X0214221Y0057479D02*
X0211642Y0057479D01*
X0211642Y0056880D02*
X0214221Y0056880D01*
X0214221Y0056282D02*
X0211642Y0056282D01*
X0211642Y0055683D02*
X0214221Y0055683D01*
X0214221Y0055084D02*
X0211642Y0055084D01*
X0211642Y0054486D02*
X0214221Y0054486D01*
X0214221Y0053887D02*
X0211642Y0053887D01*
X0211642Y0053289D02*
X0214221Y0053289D01*
X0214221Y0052690D02*
X0211642Y0052690D01*
X0211642Y0052092D02*
X0214221Y0052092D01*
X0214221Y0051493D02*
X0211642Y0051493D01*
X0211642Y0050895D02*
X0214221Y0050895D01*
X0214221Y0050296D02*
X0211642Y0050296D01*
X0211642Y0049698D02*
X0214221Y0049698D01*
X0214221Y0049099D02*
X0211642Y0049099D01*
X0211642Y0048501D02*
X0214221Y0048501D01*
X0214221Y0047902D02*
X0211642Y0047902D01*
X0211642Y0047304D02*
X0214242Y0047304D01*
X0214841Y0046705D02*
X0211642Y0046705D01*
X0211642Y0046107D02*
X0215439Y0046107D01*
X0216038Y0045508D02*
X0211642Y0045508D01*
X0211642Y0044910D02*
X0216636Y0044910D01*
X0217235Y0044311D02*
X0211642Y0044311D01*
X0212158Y0043713D02*
X0217833Y0043713D01*
X0218432Y0043114D02*
X0212406Y0043114D01*
X0212542Y0042516D02*
X0219030Y0042516D01*
X0219629Y0041917D02*
X0212542Y0041917D01*
X0212379Y0041319D02*
X0220227Y0041319D01*
X0220826Y0040720D02*
X0212130Y0040720D01*
X0211532Y0040122D02*
X0221424Y0040122D01*
X0222023Y0039523D02*
X0184547Y0039523D01*
X0184653Y0038925D02*
X0222622Y0038925D01*
X0223220Y0038326D02*
X0184609Y0038326D01*
X0184684Y0038750D02*
X0184684Y0038750D01*
X0184503Y0037728D02*
X0223819Y0037728D01*
X0224417Y0037129D02*
X0184398Y0037129D01*
X0184292Y0036531D02*
X0225016Y0036531D01*
X0225614Y0035932D02*
X0184187Y0035932D01*
X0184120Y0035555D02*
X0184120Y0035555D01*
X0183993Y0035334D02*
X0226213Y0035334D01*
X0226811Y0034735D02*
X0183647Y0034735D01*
X0183301Y0034137D02*
X0227410Y0034137D01*
X0228910Y0037728D02*
X0238501Y0037728D01*
X0239506Y0038326D02*
X0228311Y0038326D01*
X0238735Y0033538D02*
X0182956Y0033538D01*
X0182610Y0032940D02*
X0277661Y0032940D01*
X0277063Y0032341D02*
X0182017Y0032341D01*
X0181303Y0031743D02*
X0276658Y0031743D01*
X0276658Y0031144D02*
X0180590Y0031144D01*
X0180013Y0030660D02*
X0180013Y0030660D01*
X0172722Y0058676D02*
X0172039Y0058676D01*
X0172571Y0059274D02*
X0173320Y0059274D01*
X0173512Y0059873D02*
X0173919Y0059873D01*
X0174134Y0060471D02*
X0174517Y0060471D01*
X0174575Y0061070D02*
X0175116Y0061070D01*
X0174893Y0061668D02*
X0175714Y0061668D01*
X0175117Y0062267D02*
X0176313Y0062267D01*
X0176911Y0062865D02*
X0175264Y0062865D01*
X0175342Y0064062D02*
X0178108Y0064062D01*
X0177510Y0063464D02*
X0170642Y0063464D01*
X0175260Y0064661D02*
X0178707Y0064661D01*
X0179305Y0065259D02*
X0175109Y0065259D01*
X0174880Y0065858D02*
X0179904Y0065858D01*
X0180502Y0066456D02*
X0174556Y0066456D01*
X0174108Y0067055D02*
X0181101Y0067055D01*
X0181699Y0067653D02*
X0173476Y0067653D01*
X0172520Y0068252D02*
X0182298Y0068252D01*
X0182896Y0068850D02*
X0172101Y0068850D01*
X0173394Y0069449D02*
X0183495Y0069449D01*
X0184094Y0070047D02*
X0173993Y0070047D01*
X0174592Y0070646D02*
X0184692Y0070646D01*
X0185291Y0071244D02*
X0174932Y0071244D01*
X0175180Y0071843D02*
X0185889Y0071843D01*
X0186488Y0072441D02*
X0175428Y0072441D01*
X0175542Y0073040D02*
X0187086Y0073040D01*
X0187277Y0073638D02*
X0175542Y0073638D01*
X0175542Y0074237D02*
X0187277Y0074237D01*
X0187277Y0074835D02*
X0175521Y0074835D01*
X0183943Y0076032D02*
X0185376Y0076032D01*
X0184777Y0076631D02*
X0184541Y0076631D01*
X0210632Y0087540D02*
X0214899Y0087540D01*
X0213983Y0080820D02*
X0213762Y0080820D01*
X0214221Y0080222D02*
X0213164Y0080222D01*
X0212565Y0079623D02*
X0214221Y0079623D01*
X0214221Y0079025D02*
X0211967Y0079025D01*
X0225942Y0084650D02*
X0249063Y0084650D01*
X0264842Y0100429D01*
X0267507Y0097579D02*
X0269155Y0097579D01*
X0269754Y0098177D02*
X0268106Y0098177D01*
X0268704Y0098776D02*
X0270352Y0098776D01*
X0270951Y0099374D02*
X0268742Y0099374D01*
X0268742Y0099973D02*
X0271549Y0099973D01*
X0272148Y0100571D02*
X0268742Y0100571D01*
X0268742Y0101170D02*
X0272746Y0101170D01*
X0273345Y0101768D02*
X0268742Y0101768D01*
X0268419Y0102367D02*
X0273943Y0102367D01*
X0274542Y0102965D02*
X0267821Y0102965D01*
X0267222Y0103564D02*
X0275140Y0103564D01*
X0275524Y0104162D02*
X0266624Y0104162D01*
X0261742Y0104761D02*
X0275574Y0104761D01*
X0275822Y0105359D02*
X0261742Y0105359D01*
X0261742Y0105958D02*
X0276262Y0105958D01*
X0277094Y0106556D02*
X0261742Y0106556D01*
X0266909Y0096980D02*
X0268557Y0096980D01*
X0267958Y0096382D02*
X0266310Y0096382D01*
X0265712Y0095783D02*
X0267360Y0095783D01*
X0266761Y0095185D02*
X0265113Y0095185D01*
X0264515Y0094586D02*
X0266163Y0094586D01*
X0265564Y0093988D02*
X0263916Y0093988D01*
X0263318Y0093389D02*
X0264966Y0093389D01*
X0264367Y0092791D02*
X0262719Y0092791D01*
X0262121Y0092192D02*
X0263769Y0092192D01*
X0263170Y0091594D02*
X0261522Y0091594D01*
X0260924Y0090995D02*
X0262572Y0090995D01*
X0261973Y0090397D02*
X0260325Y0090397D01*
X0259727Y0089798D02*
X0261375Y0089798D01*
X0260776Y0089200D02*
X0259128Y0089200D01*
X0258530Y0088601D02*
X0260177Y0088601D01*
X0259579Y0088003D02*
X0257931Y0088003D01*
X0257333Y0087404D02*
X0258980Y0087404D01*
X0258382Y0086806D02*
X0256734Y0086806D01*
X0256136Y0086207D02*
X0257783Y0086207D01*
X0257185Y0085609D02*
X0255537Y0085609D01*
X0254939Y0085010D02*
X0256586Y0085010D01*
X0255988Y0084412D02*
X0254340Y0084412D01*
X0253742Y0083813D02*
X0255389Y0083813D01*
X0254791Y0083215D02*
X0253143Y0083215D01*
X0252545Y0082616D02*
X0254192Y0082616D01*
X0242842Y0090750D02*
X0242842Y0101250D01*
X0242842Y0090750D02*
X0238842Y0086750D01*
X0213342Y0092719D02*
X0213342Y0103220D01*
X0209342Y0103220D01*
X0206242Y0100120D01*
X0213342Y0103220D02*
X0224972Y0114850D01*
X0226442Y0114850D01*
X0244716Y0132891D02*
X0293442Y0132891D01*
X0293442Y0133489D02*
X0244118Y0133489D01*
X0243519Y0134088D02*
X0293442Y0134088D01*
X0293442Y0134687D02*
X0242921Y0134687D01*
X0242322Y0135285D02*
X0293442Y0135285D01*
X0293442Y0135884D02*
X0241724Y0135884D01*
X0241125Y0136482D02*
X0293442Y0136482D01*
X0293442Y0137081D02*
X0240527Y0137081D01*
X0239928Y0137679D02*
X0293442Y0137679D01*
X0293442Y0138278D02*
X0239330Y0138278D01*
X0238731Y0138876D02*
X0293442Y0138876D01*
X0293442Y0139475D02*
X0238133Y0139475D01*
X0237534Y0140073D02*
X0293442Y0140073D01*
X0293442Y0140672D02*
X0236936Y0140672D01*
X0236337Y0141270D02*
X0293442Y0141270D01*
X0293442Y0141869D02*
X0235739Y0141869D01*
X0235277Y0142467D02*
X0293442Y0142467D01*
X0293442Y0143066D02*
X0235259Y0143066D01*
X0235011Y0143664D02*
X0293442Y0143664D01*
X0293442Y0144263D02*
X0234617Y0144263D01*
X0233895Y0144861D02*
X0293442Y0144861D01*
X0293442Y0132292D02*
X0245315Y0132292D01*
X0245913Y0131694D02*
X0293442Y0131694D01*
X0293442Y0131095D02*
X0246512Y0131095D01*
X0247110Y0130497D02*
X0293442Y0130497D01*
X0293442Y0129898D02*
X0247709Y0129898D01*
X0248307Y0129300D02*
X0293442Y0129300D01*
X0293442Y0128701D02*
X0248906Y0128701D01*
X0249504Y0128103D02*
X0293442Y0128103D01*
X0293442Y0127504D02*
X0250103Y0127504D01*
X0250701Y0126906D02*
X0293442Y0126906D01*
X0293442Y0126307D02*
X0251300Y0126307D01*
X0251898Y0125709D02*
X0293442Y0125709D01*
X0293442Y0125110D02*
X0252497Y0125110D01*
X0253095Y0124512D02*
X0293442Y0124512D01*
X0293442Y0123913D02*
X0253694Y0123913D01*
X0254292Y0123315D02*
X0293442Y0123315D01*
X0293442Y0157430D02*
X0174016Y0157430D01*
X0173417Y0158028D02*
X0293442Y0158028D01*
X0293442Y0158627D02*
X0172156Y0158627D01*
X0172967Y0159824D02*
X0167242Y0159824D01*
X0167242Y0160422D02*
X0171322Y0160422D01*
X0170671Y0160660D02*
X0170671Y0160660D01*
X0170240Y0161021D02*
X0167242Y0161021D01*
X0167242Y0161620D02*
X0169527Y0161620D01*
X0168814Y0162218D02*
X0167242Y0162218D01*
X0167242Y0162817D02*
X0168144Y0162817D01*
X0168185Y0162745D02*
X0168185Y0162745D01*
X0167799Y0163415D02*
X0167242Y0163415D01*
X0167242Y0164014D02*
X0167453Y0164014D01*
X0167242Y0159225D02*
X0293442Y0159225D01*
X0238523Y0189750D02*
X0228888Y0189750D01*
X0254465Y0229373D02*
X0283342Y0258250D01*
X0275524Y0256184D02*
X0266602Y0256184D01*
X0267200Y0255586D02*
X0275162Y0255586D01*
X0274564Y0254987D02*
X0267799Y0254987D01*
X0268397Y0254389D02*
X0273965Y0254389D01*
X0273367Y0253790D02*
X0268742Y0253790D01*
X0268742Y0253192D02*
X0272768Y0253192D01*
X0272170Y0252593D02*
X0268742Y0252593D01*
X0268742Y0251995D02*
X0271571Y0251995D01*
X0270973Y0251396D02*
X0268742Y0251396D01*
X0268726Y0250798D02*
X0270374Y0250798D01*
X0269776Y0250199D02*
X0268128Y0250199D01*
X0267529Y0249601D02*
X0269177Y0249601D01*
X0268579Y0249002D02*
X0266931Y0249002D01*
X0266332Y0248404D02*
X0267980Y0248404D01*
X0267382Y0247805D02*
X0265734Y0247805D01*
X0265135Y0247207D02*
X0266783Y0247207D01*
X0266184Y0246608D02*
X0264537Y0246608D01*
X0263938Y0246010D02*
X0265586Y0246010D01*
X0264987Y0245411D02*
X0263340Y0245411D01*
X0262741Y0244813D02*
X0264389Y0244813D01*
X0263790Y0244214D02*
X0262143Y0244214D01*
X0261544Y0243616D02*
X0263192Y0243616D01*
X0262593Y0243017D02*
X0260946Y0243017D01*
X0260347Y0242419D02*
X0261995Y0242419D01*
X0261396Y0241820D02*
X0259749Y0241820D01*
X0259150Y0241222D02*
X0260798Y0241222D01*
X0260199Y0240623D02*
X0258552Y0240623D01*
X0257953Y0240024D02*
X0259601Y0240024D01*
X0259002Y0239426D02*
X0257354Y0239426D01*
X0256756Y0238827D02*
X0258404Y0238827D01*
X0257805Y0238229D02*
X0256157Y0238229D01*
X0255559Y0237630D02*
X0257207Y0237630D01*
X0256608Y0237032D02*
X0254960Y0237032D01*
X0254362Y0236433D02*
X0256010Y0236433D01*
X0255411Y0235835D02*
X0253763Y0235835D01*
X0253165Y0235236D02*
X0254813Y0235236D01*
X0254214Y0234638D02*
X0252566Y0234638D01*
X0242842Y0242750D02*
X0242842Y0253250D01*
X0242842Y0242750D02*
X0238842Y0238750D01*
X0225842Y0253350D02*
X0225842Y0264750D01*
X0213342Y0255220D02*
X0213342Y0244719D01*
X0214899Y0239540D02*
X0210632Y0239540D01*
X0173649Y0199924D02*
X0167242Y0199924D01*
X0167242Y0199326D02*
X0172004Y0199326D01*
X0170536Y0198727D02*
X0167242Y0198727D01*
X0167242Y0198129D02*
X0169823Y0198129D01*
X0169109Y0197530D02*
X0167242Y0197530D01*
X0167242Y0196932D02*
X0168396Y0196932D01*
X0167942Y0196333D02*
X0167242Y0196333D01*
X0167242Y0195735D02*
X0167596Y0195735D01*
X0167251Y0195136D02*
X0167242Y0195136D01*
X0167242Y0158627D02*
X0168528Y0158627D01*
X0167266Y0158028D02*
X0167242Y0158028D01*
X0041589Y0047902D02*
X0035242Y0047902D01*
X0035242Y0047304D02*
X0039944Y0047304D01*
X0038510Y0046705D02*
X0035242Y0046705D01*
X0035242Y0046107D02*
X0037797Y0046107D01*
X0037083Y0045508D02*
X0035242Y0045508D01*
X0035242Y0044910D02*
X0036370Y0044910D01*
X0035929Y0044311D02*
X0035242Y0044311D01*
X0035242Y0043713D02*
X0035584Y0043713D01*
X0035242Y0201121D02*
X0035928Y0201121D01*
X0103250Y0295088D02*
X0161442Y0295088D01*
X0161442Y0295686D02*
X0103002Y0295686D01*
X0102595Y0296285D02*
X0161442Y0296285D01*
X0161442Y0296883D02*
X0101843Y0296883D01*
X0099311Y0296883D02*
X0097754Y0296883D01*
X0097156Y0297482D02*
X0161442Y0297482D01*
X0161442Y0298080D02*
X0096557Y0298080D01*
X0095959Y0298679D02*
X0161442Y0298679D01*
X0161442Y0299277D02*
X0095360Y0299277D01*
X0094762Y0299876D02*
X0161442Y0299876D01*
X0161442Y0300474D02*
X0094163Y0300474D01*
X0093565Y0301073D02*
X0161442Y0301073D01*
X0161442Y0301671D02*
X0092966Y0301671D01*
X0092368Y0302270D02*
X0161442Y0302270D01*
X0161442Y0302868D02*
X0091769Y0302868D01*
X0091171Y0303467D02*
X0161442Y0303467D01*
X0161442Y0304065D02*
X0090572Y0304065D01*
X0089974Y0304664D02*
X0161442Y0304664D01*
X0161442Y0305262D02*
X0089375Y0305262D01*
X0088777Y0305861D02*
X0161442Y0305861D01*
X0161442Y0306459D02*
X0088178Y0306459D01*
X0087580Y0307058D02*
X0161442Y0307058D01*
X0161442Y0307656D02*
X0043181Y0307656D01*
X0042933Y0308255D02*
X0161442Y0308255D01*
X0161442Y0308853D02*
X0042592Y0308853D01*
X0041994Y0309452D02*
X0161442Y0309452D01*
X0161442Y0310050D02*
X0041395Y0310050D01*
X0040103Y0310649D02*
X0161442Y0310649D01*
X0161442Y0311247D02*
X0035242Y0311247D01*
X0035242Y0310649D02*
X0036580Y0310649D01*
X0035288Y0310050D02*
X0035242Y0310050D01*
X0035242Y0311846D02*
X0040907Y0311846D01*
X0039262Y0312444D02*
X0035242Y0312444D01*
X0035242Y0313043D02*
X0038214Y0313043D01*
X0038671Y0312660D02*
X0038671Y0312660D01*
X0037501Y0313641D02*
X0035242Y0313641D01*
X0035242Y0314240D02*
X0036788Y0314240D01*
X0036185Y0314745D02*
X0036185Y0314745D01*
X0036132Y0314838D02*
X0035242Y0314838D01*
X0035242Y0315437D02*
X0035786Y0315437D01*
X0035441Y0316035D02*
X0035242Y0316035D01*
X0045777Y0311846D02*
X0161442Y0311846D01*
X0161442Y0312444D02*
X0047421Y0312444D01*
X0048013Y0312660D02*
X0048013Y0312660D01*
X0048469Y0313043D02*
X0161442Y0313043D01*
X0161442Y0313641D02*
X0049183Y0313641D01*
X0049896Y0314240D02*
X0161442Y0314240D01*
X0161442Y0314838D02*
X0050552Y0314838D01*
X0050898Y0315437D02*
X0161442Y0315437D01*
X0161442Y0316035D02*
X0051243Y0316035D01*
X0051589Y0316634D02*
X0161442Y0316634D01*
X0161442Y0317232D02*
X0051934Y0317232D01*
X0052120Y0317555D02*
X0052120Y0317555D01*
X0052169Y0317831D02*
X0161442Y0317831D01*
X0161442Y0318429D02*
X0052275Y0318429D01*
X0052380Y0319028D02*
X0161442Y0319028D01*
X0161442Y0319627D02*
X0052486Y0319627D01*
X0052591Y0320225D02*
X0161442Y0320225D01*
X0161442Y0320824D02*
X0052671Y0320824D01*
X0052684Y0320750D02*
X0052684Y0320750D01*
X0052565Y0321422D02*
X0161442Y0321422D01*
X0161442Y0322021D02*
X0052460Y0322021D01*
X0052354Y0322619D02*
X0161442Y0322619D01*
X0161442Y0323218D02*
X0052249Y0323218D01*
X0052143Y0323816D02*
X0161442Y0323816D01*
X0161442Y0324415D02*
X0051849Y0324415D01*
X0052120Y0323945D02*
X0052120Y0323945D01*
X0051504Y0325013D02*
X0161442Y0325013D01*
X0161442Y0325612D02*
X0051158Y0325612D01*
X0050813Y0326210D02*
X0161442Y0326210D01*
X0161442Y0326809D02*
X0050434Y0326809D01*
X0050498Y0326755D02*
X0050498Y0326755D01*
X0049721Y0327407D02*
X0161442Y0327407D01*
X0161442Y0328006D02*
X0049007Y0328006D01*
X0048294Y0328604D02*
X0161442Y0328604D01*
X0167242Y0316035D02*
X0167441Y0316035D01*
X0167242Y0315437D02*
X0167786Y0315437D01*
X0168132Y0314838D02*
X0167242Y0314838D01*
X0167242Y0314240D02*
X0168788Y0314240D01*
X0168185Y0314745D02*
X0168185Y0314745D01*
X0167242Y0313641D02*
X0169501Y0313641D01*
X0170214Y0313043D02*
X0167242Y0313043D01*
X0167242Y0312444D02*
X0171262Y0312444D01*
X0170671Y0312660D02*
X0170671Y0312660D01*
X0172907Y0311846D02*
X0167242Y0311846D01*
X0167242Y0311247D02*
X0293442Y0311247D01*
X0293442Y0310649D02*
X0172103Y0310649D01*
X0173395Y0310050D02*
X0293442Y0310050D01*
X0293442Y0309452D02*
X0173994Y0309452D01*
X0174592Y0308853D02*
X0293442Y0308853D01*
X0293442Y0308255D02*
X0174933Y0308255D01*
X0175181Y0307656D02*
X0293442Y0307656D01*
X0293442Y0307058D02*
X0219580Y0307058D01*
X0220178Y0306459D02*
X0293442Y0306459D01*
X0293442Y0305861D02*
X0220777Y0305861D01*
X0221375Y0305262D02*
X0293442Y0305262D01*
X0293442Y0304664D02*
X0221974Y0304664D01*
X0222572Y0304065D02*
X0293442Y0304065D01*
X0293442Y0303467D02*
X0223171Y0303467D01*
X0223769Y0302868D02*
X0293442Y0302868D01*
X0293442Y0302270D02*
X0224368Y0302270D01*
X0224966Y0301671D02*
X0293442Y0301671D01*
X0293442Y0301073D02*
X0225565Y0301073D01*
X0226163Y0300474D02*
X0293442Y0300474D01*
X0293442Y0299876D02*
X0226762Y0299876D01*
X0227360Y0299277D02*
X0293442Y0299277D01*
X0293442Y0298679D02*
X0227959Y0298679D01*
X0228557Y0298080D02*
X0293442Y0298080D01*
X0293442Y0297482D02*
X0229156Y0297482D01*
X0229754Y0296883D02*
X0231311Y0296883D01*
X0230558Y0296285D02*
X0230353Y0296285D01*
X0233843Y0296883D02*
X0293442Y0296883D01*
X0293442Y0296285D02*
X0234595Y0296285D01*
X0235002Y0295686D02*
X0293442Y0295686D01*
X0293442Y0295088D02*
X0235250Y0295088D01*
X0184120Y0317555D02*
X0184120Y0317555D01*
X0184169Y0317831D02*
X0293442Y0317831D01*
X0293442Y0318429D02*
X0184275Y0318429D01*
X0184380Y0319028D02*
X0293442Y0319028D01*
X0293442Y0319627D02*
X0184486Y0319627D01*
X0184591Y0320225D02*
X0293442Y0320225D01*
X0293442Y0320824D02*
X0184671Y0320824D01*
X0184684Y0320750D02*
X0184684Y0320750D01*
X0184565Y0321422D02*
X0293442Y0321422D01*
X0293442Y0322021D02*
X0184460Y0322021D01*
X0184354Y0322619D02*
X0293442Y0322619D01*
X0293442Y0323218D02*
X0184249Y0323218D01*
X0184143Y0323816D02*
X0293442Y0323816D01*
X0293442Y0324415D02*
X0183849Y0324415D01*
X0184120Y0323945D02*
X0184120Y0323945D01*
X0183504Y0325013D02*
X0293442Y0325013D01*
X0293442Y0325612D02*
X0183158Y0325612D01*
X0182813Y0326210D02*
X0293442Y0326210D01*
X0293442Y0326809D02*
X0182434Y0326809D01*
X0182498Y0326755D02*
X0182498Y0326755D01*
X0181721Y0327407D02*
X0293442Y0327407D01*
X0293442Y0328006D02*
X0181007Y0328006D01*
X0180294Y0328604D02*
X0293442Y0328604D01*
X0293442Y0317232D02*
X0183934Y0317232D01*
X0183589Y0316634D02*
X0293442Y0316634D01*
X0293442Y0316035D02*
X0183243Y0316035D01*
X0182898Y0315437D02*
X0293442Y0315437D01*
X0293442Y0314838D02*
X0182552Y0314838D01*
X0181896Y0314240D02*
X0293442Y0314240D01*
X0293442Y0313641D02*
X0181183Y0313641D01*
X0180469Y0313043D02*
X0293442Y0313043D01*
X0293442Y0312444D02*
X0179421Y0312444D01*
X0180013Y0312660D02*
X0180013Y0312660D01*
X0177777Y0311846D02*
X0293442Y0311846D01*
X0168580Y0310649D02*
X0167242Y0310649D01*
X0167242Y0310050D02*
X0167288Y0310050D01*
X0098558Y0296285D02*
X0098353Y0296285D01*
D15*
X0051933Y0245341D03*
X0121342Y0223250D03*
X0183933Y0245341D03*
X0253342Y0223250D03*
X0183933Y0093341D03*
X0121342Y0071250D03*
X0051933Y0093341D03*
X0253342Y0071250D03*
M02*
