G75*
%MOIN*%
%OFA0B0*%
%FSLAX25Y25*%
%IPPOS*%
%LPD*%
%AMOC8*
5,1,8,0,0,1.08239X$1,22.5*
%
%ADD10R,0.16850X0.00157*%
%ADD11R,0.16693X0.00157*%
%ADD12R,0.16535X0.00157*%
%ADD13R,0.16378X0.00157*%
%ADD14R,0.02677X0.00157*%
%ADD15R,0.01890X0.00157*%
%ADD16R,0.02362X0.00157*%
%ADD17R,0.01732X0.00157*%
%ADD18R,0.02205X0.00157*%
%ADD19R,0.01575X0.00157*%
%ADD20R,0.02047X0.00157*%
%ADD21R,0.15276X0.00157*%
%ADD22R,0.15118X0.00157*%
%ADD23R,0.14961X0.00157*%
%ADD24R,0.14803X0.00157*%
%ADD25R,0.01260X0.00157*%
%ADD26R,0.01102X0.00157*%
%ADD27R,0.00945X0.00157*%
%ADD28R,0.01417X0.00157*%
%ADD29R,0.00472X0.00157*%
%ADD30R,0.00630X0.00157*%
%ADD31R,0.00787X0.00157*%
%ADD32R,0.00315X0.00157*%
%ADD33R,0.00157X0.00157*%
%ADD34R,0.02520X0.00157*%
%ADD35R,0.02835X0.00157*%
%ADD36R,0.16220X0.00157*%
%ADD37R,0.11024X0.00157*%
%ADD38R,0.11181X0.00157*%
%ADD39R,0.11496X0.00157*%
%ADD40R,0.11654X0.00157*%
%ADD41R,0.12756X0.00157*%
%ADD42R,0.12913X0.00157*%
%ADD43R,0.13071X0.00157*%
%ADD44R,0.13228X0.00157*%
%ADD45R,0.03150X0.00157*%
%ADD46R,0.03307X0.00157*%
%ADD47R,0.03465X0.00157*%
%ADD48R,0.02992X0.00157*%
%ADD49R,0.11811X0.00157*%
%ADD50R,0.17165X0.00157*%
%ADD51R,0.17480X0.00157*%
%ADD52R,0.17638X0.00157*%
%ADD53R,0.17795X0.00157*%
%ADD54R,0.17953X0.00157*%
%ADD55R,0.10079X0.00157*%
%ADD56R,0.09291X0.00157*%
%ADD57R,0.04252X0.00157*%
%ADD58R,0.13701X0.00157*%
%ADD59R,0.14016X0.00157*%
%ADD60R,0.14331X0.00157*%
%ADD61R,0.14488X0.00157*%
%ADD62R,0.14646X0.00157*%
%ADD63R,0.03780X0.00157*%
%ADD64R,0.03937X0.00157*%
%ADD65R,0.03622X0.00157*%
%ADD66R,0.04882X0.00157*%
%ADD67R,0.05197X0.00157*%
%ADD68R,0.14173X0.00157*%
%ADD69R,0.07559X0.00157*%
%ADD70R,0.07717X0.00157*%
%ADD71R,0.08031X0.00157*%
%ADD72R,0.08346X0.00157*%
%ADD73R,0.15906X0.00157*%
%ADD74R,0.16063X0.00157*%
%ADD75R,0.04409X0.00157*%
%ADD76R,0.13543X0.00157*%
%ADD77R,0.07087X0.00157*%
%ADD78R,0.07244X0.00157*%
%ADD79R,0.07874X0.00157*%
%ADD80R,0.15433X0.00157*%
%ADD81R,0.15591X0.00157*%
%ADD82R,0.15748X0.00157*%
%ADD83R,0.04094X0.00157*%
%ADD84R,0.11339X0.00157*%
%ADD85R,0.11969X0.00157*%
%ADD86R,0.04724X0.00157*%
%ADD87R,0.05512X0.00157*%
%ADD88R,0.13386X0.00157*%
%ADD89R,0.12126X0.00157*%
%ADD90R,0.07402X0.00157*%
%ADD91R,0.05039X0.00157*%
%ADD92R,0.06457X0.00157*%
%ADD93R,0.06614X0.00157*%
%ADD94R,0.10551X0.00157*%
D10*
X0050054Y0120758D03*
X0050054Y0126742D03*
X0049554Y0130758D03*
X0049554Y0136742D03*
X0049314Y0150600D03*
X0049314Y0156900D03*
X0050054Y0272758D03*
X0050054Y0278742D03*
X0049554Y0282758D03*
X0049554Y0288742D03*
X0049314Y0302600D03*
X0049314Y0308900D03*
X0226314Y0308900D03*
X0226314Y0302600D03*
X0226554Y0288742D03*
X0226554Y0282758D03*
X0227054Y0278742D03*
X0227054Y0272758D03*
X0226314Y0156900D03*
X0226314Y0150600D03*
X0226554Y0136742D03*
X0226554Y0130758D03*
X0227054Y0126742D03*
X0227054Y0120758D03*
D11*
X0226236Y0150758D03*
X0226236Y0156742D03*
X0226236Y0302758D03*
X0226236Y0308742D03*
X0049236Y0308742D03*
X0049236Y0302758D03*
X0049236Y0156742D03*
X0049236Y0150758D03*
D12*
X0049157Y0150915D03*
X0049157Y0156585D03*
X0049157Y0302915D03*
X0049157Y0308585D03*
X0226157Y0308585D03*
X0226157Y0302915D03*
X0226157Y0156585D03*
X0226157Y0150915D03*
D13*
X0226078Y0151073D03*
X0226078Y0156427D03*
X0226318Y0136900D03*
X0226318Y0130600D03*
X0226818Y0126900D03*
X0226818Y0120600D03*
X0226236Y0104852D03*
X0049236Y0104852D03*
X0049818Y0120600D03*
X0049818Y0126900D03*
X0049318Y0130600D03*
X0049318Y0136900D03*
X0049078Y0151073D03*
X0049078Y0156427D03*
X0049236Y0256852D03*
X0049818Y0272600D03*
X0049818Y0278900D03*
X0049318Y0282600D03*
X0049318Y0288900D03*
X0049078Y0303073D03*
X0049078Y0308427D03*
X0226078Y0308427D03*
X0226078Y0303073D03*
X0226318Y0288900D03*
X0226318Y0282600D03*
X0226818Y0278900D03*
X0226818Y0272600D03*
X0226236Y0256852D03*
D14*
X0225684Y0256695D03*
X0223322Y0255120D03*
X0225684Y0253388D03*
X0232771Y0254333D03*
X0223637Y0245120D03*
X0219858Y0245435D03*
X0225861Y0236695D03*
X0223657Y0235120D03*
X0230428Y0234490D03*
X0230271Y0224490D03*
X0232113Y0217482D03*
X0219515Y0217482D03*
X0220082Y0205278D03*
X0220082Y0205120D03*
X0232771Y0156270D03*
X0232613Y0151388D03*
X0229771Y0142333D03*
X0223314Y0143593D03*
X0219228Y0151545D03*
X0219228Y0151703D03*
X0219228Y0151860D03*
X0219228Y0152018D03*
X0219228Y0152175D03*
X0219228Y0152333D03*
X0219228Y0152490D03*
X0219228Y0152648D03*
X0219228Y0152805D03*
X0219468Y0135482D03*
X0219468Y0131860D03*
X0231279Y0131860D03*
X0231279Y0131703D03*
X0231279Y0135640D03*
X0231779Y0125640D03*
X0231779Y0121860D03*
X0231779Y0121703D03*
X0224314Y0114380D03*
X0224314Y0112963D03*
X0219275Y0113120D03*
X0219275Y0114222D03*
X0225684Y0104695D03*
X0223322Y0103120D03*
X0225684Y0101388D03*
X0232771Y0102333D03*
X0223637Y0093120D03*
X0219858Y0093435D03*
X0225861Y0084695D03*
X0223657Y0083120D03*
X0230428Y0082490D03*
X0230271Y0072490D03*
X0232113Y0065482D03*
X0219515Y0065482D03*
X0220082Y0053278D03*
X0220082Y0053120D03*
X0055113Y0065482D03*
X0053271Y0072490D03*
X0053428Y0082490D03*
X0048861Y0084695D03*
X0046657Y0083120D03*
X0046637Y0093120D03*
X0042858Y0093435D03*
X0048684Y0101388D03*
X0046322Y0103120D03*
X0048684Y0104695D03*
X0055771Y0102333D03*
X0047314Y0112963D03*
X0047314Y0114380D03*
X0042275Y0114222D03*
X0042275Y0113120D03*
X0054779Y0121703D03*
X0054779Y0121860D03*
X0054779Y0125640D03*
X0054279Y0131703D03*
X0054279Y0131860D03*
X0054279Y0135640D03*
X0052771Y0142333D03*
X0046314Y0143593D03*
X0042228Y0151545D03*
X0042228Y0151703D03*
X0042228Y0151860D03*
X0042228Y0152018D03*
X0042228Y0152175D03*
X0042228Y0152333D03*
X0042228Y0152490D03*
X0042228Y0152648D03*
X0042228Y0152805D03*
X0055613Y0151388D03*
X0055771Y0156270D03*
X0042468Y0135482D03*
X0042468Y0131860D03*
X0042515Y0065482D03*
X0043082Y0053278D03*
X0043082Y0053120D03*
X0043082Y0205120D03*
X0043082Y0205278D03*
X0042515Y0217482D03*
X0053271Y0224490D03*
X0055113Y0217482D03*
X0053428Y0234490D03*
X0048861Y0236695D03*
X0046657Y0235120D03*
X0046637Y0245120D03*
X0042858Y0245435D03*
X0048684Y0253388D03*
X0046322Y0255120D03*
X0048684Y0256695D03*
X0055771Y0254333D03*
X0047314Y0264963D03*
X0047314Y0266380D03*
X0042275Y0266222D03*
X0042275Y0265120D03*
X0054779Y0273703D03*
X0054779Y0273860D03*
X0054779Y0277640D03*
X0054279Y0283703D03*
X0054279Y0283860D03*
X0054279Y0287640D03*
X0052771Y0294333D03*
X0046314Y0295593D03*
X0042228Y0303545D03*
X0042228Y0303703D03*
X0042228Y0303860D03*
X0042228Y0304018D03*
X0042228Y0304175D03*
X0042228Y0304333D03*
X0042228Y0304490D03*
X0042228Y0304648D03*
X0042228Y0304805D03*
X0055613Y0303388D03*
X0055771Y0308270D03*
X0042468Y0287482D03*
X0042468Y0283860D03*
X0219468Y0283860D03*
X0219468Y0287482D03*
X0223314Y0295593D03*
X0229771Y0294333D03*
X0231279Y0287640D03*
X0231279Y0283860D03*
X0231279Y0283703D03*
X0231779Y0277640D03*
X0231779Y0273860D03*
X0231779Y0273703D03*
X0224314Y0266380D03*
X0224314Y0264963D03*
X0219275Y0265120D03*
X0219275Y0266222D03*
X0232613Y0303388D03*
X0232771Y0308270D03*
X0219228Y0304805D03*
X0219228Y0304648D03*
X0219228Y0304490D03*
X0219228Y0304333D03*
X0219228Y0304175D03*
X0219228Y0304018D03*
X0219228Y0303860D03*
X0219228Y0303703D03*
X0219228Y0303545D03*
D15*
X0218834Y0305750D03*
X0218834Y0305907D03*
X0218834Y0306695D03*
X0218834Y0307482D03*
X0218834Y0308270D03*
X0228440Y0303388D03*
X0232377Y0304018D03*
X0232377Y0307482D03*
X0232535Y0307640D03*
X0229692Y0297640D03*
X0229377Y0293545D03*
X0231358Y0287167D03*
X0226633Y0285278D03*
X0224743Y0286222D03*
X0223798Y0283860D03*
X0221909Y0285120D03*
X0221909Y0286222D03*
X0219074Y0286537D03*
X0219074Y0286695D03*
X0219074Y0284963D03*
X0219074Y0284805D03*
X0219074Y0284648D03*
X0219574Y0277640D03*
X0219574Y0273703D03*
X0224141Y0275278D03*
X0227133Y0275278D03*
X0227133Y0275120D03*
X0227133Y0276065D03*
X0227133Y0276222D03*
X0231858Y0277167D03*
X0227700Y0266222D03*
X0226755Y0263860D03*
X0225606Y0256537D03*
X0225606Y0253545D03*
X0229700Y0255593D03*
X0229700Y0255750D03*
X0229700Y0245750D03*
X0229700Y0245593D03*
X0219464Y0246065D03*
X0219464Y0246222D03*
X0219464Y0246380D03*
X0219464Y0245120D03*
X0219464Y0243703D03*
X0219326Y0238270D03*
X0219326Y0237482D03*
X0219326Y0236380D03*
X0219326Y0236222D03*
X0219326Y0234963D03*
X0219326Y0233860D03*
X0219326Y0233703D03*
X0219484Y0228270D03*
X0219484Y0227482D03*
X0219484Y0226537D03*
X0219484Y0225907D03*
X0219484Y0224175D03*
X0219484Y0223545D03*
X0223736Y0223860D03*
X0223736Y0224018D03*
X0229877Y0223703D03*
X0225736Y0217640D03*
X0225736Y0213703D03*
X0232507Y0214805D03*
X0232507Y0214963D03*
X0232507Y0215120D03*
X0232507Y0216380D03*
X0232507Y0216537D03*
X0232507Y0216695D03*
X0228350Y0207325D03*
X0228350Y0207167D03*
X0228350Y0207010D03*
X0228350Y0206852D03*
X0228350Y0206695D03*
X0228350Y0206537D03*
X0228350Y0206380D03*
X0228350Y0204648D03*
X0224098Y0204333D03*
X0222523Y0207010D03*
X0222523Y0207167D03*
X0219688Y0206852D03*
X0219688Y0206695D03*
X0219688Y0207640D03*
X0219121Y0214805D03*
X0219121Y0214963D03*
X0219121Y0216537D03*
X0219121Y0216695D03*
X0225940Y0233545D03*
X0230035Y0233703D03*
X0218991Y0253703D03*
X0218991Y0253860D03*
X0218991Y0254963D03*
X0218991Y0256222D03*
X0218991Y0256380D03*
X0218991Y0257482D03*
X0218991Y0258270D03*
X0218881Y0263860D03*
X0218881Y0264018D03*
X0218881Y0264175D03*
X0218881Y0264333D03*
X0218881Y0267010D03*
X0218881Y0267167D03*
X0218881Y0267325D03*
X0218881Y0267482D03*
X0219141Y0297482D03*
X0219141Y0298270D03*
X0055377Y0304018D03*
X0055377Y0307482D03*
X0055535Y0307640D03*
X0051440Y0303388D03*
X0052692Y0297640D03*
X0052377Y0293545D03*
X0054358Y0287167D03*
X0049633Y0285278D03*
X0047743Y0286222D03*
X0046798Y0283860D03*
X0044909Y0285120D03*
X0044909Y0286222D03*
X0042074Y0286537D03*
X0042074Y0286695D03*
X0042074Y0284963D03*
X0042074Y0284805D03*
X0042074Y0284648D03*
X0042574Y0277640D03*
X0042574Y0273703D03*
X0047141Y0275278D03*
X0050133Y0275278D03*
X0050133Y0275120D03*
X0050133Y0276065D03*
X0050133Y0276222D03*
X0054858Y0277167D03*
X0050700Y0266222D03*
X0049755Y0263860D03*
X0048606Y0256537D03*
X0048606Y0253545D03*
X0052700Y0255593D03*
X0052700Y0255750D03*
X0041991Y0256222D03*
X0041991Y0256380D03*
X0041991Y0257482D03*
X0041991Y0258270D03*
X0041991Y0254963D03*
X0041991Y0253860D03*
X0041991Y0253703D03*
X0042464Y0246380D03*
X0042464Y0246222D03*
X0042464Y0246065D03*
X0042464Y0245120D03*
X0042464Y0243703D03*
X0042326Y0238270D03*
X0042326Y0237482D03*
X0042326Y0236380D03*
X0042326Y0236222D03*
X0042326Y0234963D03*
X0042326Y0233860D03*
X0042326Y0233703D03*
X0042484Y0228270D03*
X0042484Y0227482D03*
X0042484Y0226537D03*
X0042484Y0225907D03*
X0042484Y0224175D03*
X0042484Y0223545D03*
X0046736Y0223860D03*
X0046736Y0224018D03*
X0052877Y0223703D03*
X0048736Y0217640D03*
X0048736Y0213703D03*
X0042121Y0214805D03*
X0042121Y0214963D03*
X0042121Y0216537D03*
X0042121Y0216695D03*
X0042688Y0207640D03*
X0042688Y0206852D03*
X0042688Y0206695D03*
X0045523Y0207010D03*
X0045523Y0207167D03*
X0047098Y0204333D03*
X0051350Y0204648D03*
X0051350Y0206380D03*
X0051350Y0206537D03*
X0051350Y0206695D03*
X0051350Y0206852D03*
X0051350Y0207010D03*
X0051350Y0207167D03*
X0051350Y0207325D03*
X0055507Y0214805D03*
X0055507Y0214963D03*
X0055507Y0215120D03*
X0055507Y0216380D03*
X0055507Y0216537D03*
X0055507Y0216695D03*
X0053035Y0233703D03*
X0048940Y0233545D03*
X0052700Y0245593D03*
X0052700Y0245750D03*
X0041881Y0263860D03*
X0041881Y0264018D03*
X0041881Y0264175D03*
X0041881Y0264333D03*
X0041881Y0267010D03*
X0041881Y0267167D03*
X0041881Y0267325D03*
X0041881Y0267482D03*
X0042141Y0297482D03*
X0042141Y0298270D03*
X0041834Y0305750D03*
X0041834Y0305907D03*
X0041834Y0306695D03*
X0041834Y0307482D03*
X0041834Y0308270D03*
X0041834Y0156270D03*
X0041834Y0155482D03*
X0041834Y0154695D03*
X0041834Y0153907D03*
X0041834Y0153750D03*
X0042141Y0146270D03*
X0042141Y0145482D03*
X0052692Y0145640D03*
X0052377Y0141545D03*
X0054358Y0135167D03*
X0049633Y0133278D03*
X0047743Y0134222D03*
X0046798Y0131860D03*
X0044909Y0133120D03*
X0044909Y0134222D03*
X0042074Y0134537D03*
X0042074Y0134695D03*
X0042074Y0132963D03*
X0042074Y0132805D03*
X0042074Y0132648D03*
X0042574Y0125640D03*
X0042574Y0121703D03*
X0047141Y0123278D03*
X0050133Y0123278D03*
X0050133Y0123120D03*
X0050133Y0124065D03*
X0050133Y0124222D03*
X0054858Y0125167D03*
X0050700Y0114222D03*
X0049755Y0111860D03*
X0048606Y0104537D03*
X0048606Y0101545D03*
X0052700Y0103593D03*
X0052700Y0103750D03*
X0052700Y0093750D03*
X0052700Y0093593D03*
X0042464Y0094065D03*
X0042464Y0094222D03*
X0042464Y0094380D03*
X0042464Y0093120D03*
X0042464Y0091703D03*
X0042326Y0086270D03*
X0042326Y0085482D03*
X0042326Y0084380D03*
X0042326Y0084222D03*
X0042326Y0082963D03*
X0042326Y0081860D03*
X0042326Y0081703D03*
X0042484Y0076270D03*
X0042484Y0075482D03*
X0042484Y0074537D03*
X0042484Y0073907D03*
X0042484Y0072175D03*
X0042484Y0071545D03*
X0046736Y0071860D03*
X0046736Y0072018D03*
X0052877Y0071703D03*
X0048736Y0065640D03*
X0048736Y0061703D03*
X0042121Y0062805D03*
X0042121Y0062963D03*
X0042121Y0064537D03*
X0042121Y0064695D03*
X0042688Y0055640D03*
X0042688Y0054852D03*
X0042688Y0054695D03*
X0045523Y0055010D03*
X0045523Y0055167D03*
X0047098Y0052333D03*
X0051350Y0052648D03*
X0051350Y0054380D03*
X0051350Y0054537D03*
X0051350Y0054695D03*
X0051350Y0054852D03*
X0051350Y0055010D03*
X0051350Y0055167D03*
X0051350Y0055325D03*
X0055507Y0062805D03*
X0055507Y0062963D03*
X0055507Y0063120D03*
X0055507Y0064380D03*
X0055507Y0064537D03*
X0055507Y0064695D03*
X0053035Y0081703D03*
X0048940Y0081545D03*
X0041991Y0101703D03*
X0041991Y0101860D03*
X0041991Y0102963D03*
X0041991Y0104222D03*
X0041991Y0104380D03*
X0041991Y0105482D03*
X0041991Y0106270D03*
X0041881Y0111860D03*
X0041881Y0112018D03*
X0041881Y0112175D03*
X0041881Y0112333D03*
X0041881Y0115010D03*
X0041881Y0115167D03*
X0041881Y0115325D03*
X0041881Y0115482D03*
X0051440Y0151388D03*
X0055377Y0152018D03*
X0055377Y0155482D03*
X0055535Y0155640D03*
X0218834Y0155482D03*
X0218834Y0154695D03*
X0218834Y0153907D03*
X0218834Y0153750D03*
X0218834Y0156270D03*
X0228440Y0151388D03*
X0232377Y0152018D03*
X0232377Y0155482D03*
X0232535Y0155640D03*
X0229692Y0145640D03*
X0229377Y0141545D03*
X0231358Y0135167D03*
X0226633Y0133278D03*
X0224743Y0134222D03*
X0223798Y0131860D03*
X0221909Y0133120D03*
X0221909Y0134222D03*
X0219074Y0134537D03*
X0219074Y0134695D03*
X0219074Y0132963D03*
X0219074Y0132805D03*
X0219074Y0132648D03*
X0219574Y0125640D03*
X0219574Y0121703D03*
X0224141Y0123278D03*
X0227133Y0123278D03*
X0227133Y0123120D03*
X0227133Y0124065D03*
X0227133Y0124222D03*
X0231858Y0125167D03*
X0227700Y0114222D03*
X0226755Y0111860D03*
X0225606Y0104537D03*
X0225606Y0101545D03*
X0229700Y0103593D03*
X0229700Y0103750D03*
X0229700Y0093750D03*
X0229700Y0093593D03*
X0219464Y0094065D03*
X0219464Y0094222D03*
X0219464Y0094380D03*
X0219464Y0093120D03*
X0219464Y0091703D03*
X0219326Y0086270D03*
X0219326Y0085482D03*
X0219326Y0084380D03*
X0219326Y0084222D03*
X0219326Y0082963D03*
X0219326Y0081860D03*
X0219326Y0081703D03*
X0219484Y0076270D03*
X0219484Y0075482D03*
X0219484Y0074537D03*
X0219484Y0073907D03*
X0219484Y0072175D03*
X0219484Y0071545D03*
X0223736Y0071860D03*
X0223736Y0072018D03*
X0229877Y0071703D03*
X0225736Y0065640D03*
X0225736Y0061703D03*
X0232507Y0062805D03*
X0232507Y0062963D03*
X0232507Y0063120D03*
X0232507Y0064380D03*
X0232507Y0064537D03*
X0232507Y0064695D03*
X0228350Y0055325D03*
X0228350Y0055167D03*
X0228350Y0055010D03*
X0228350Y0054852D03*
X0228350Y0054695D03*
X0228350Y0054537D03*
X0228350Y0054380D03*
X0228350Y0052648D03*
X0224098Y0052333D03*
X0222523Y0055010D03*
X0222523Y0055167D03*
X0219688Y0054852D03*
X0219688Y0054695D03*
X0219688Y0055640D03*
X0219121Y0062805D03*
X0219121Y0062963D03*
X0219121Y0064537D03*
X0219121Y0064695D03*
X0225940Y0081545D03*
X0230035Y0081703D03*
X0218991Y0101703D03*
X0218991Y0101860D03*
X0218991Y0102963D03*
X0218991Y0104222D03*
X0218991Y0104380D03*
X0218991Y0105482D03*
X0218991Y0106270D03*
X0218881Y0111860D03*
X0218881Y0112018D03*
X0218881Y0112175D03*
X0218881Y0112333D03*
X0218881Y0115010D03*
X0218881Y0115167D03*
X0218881Y0115325D03*
X0218881Y0115482D03*
X0219141Y0145482D03*
X0219141Y0146270D03*
D16*
X0223157Y0143435D03*
X0229613Y0142018D03*
X0231279Y0135482D03*
X0231279Y0132648D03*
X0231279Y0132490D03*
X0231279Y0132333D03*
X0231279Y0132175D03*
X0231279Y0132018D03*
X0224980Y0134537D03*
X0219310Y0135325D03*
X0219310Y0132175D03*
X0222487Y0124537D03*
X0222487Y0124380D03*
X0224062Y0123120D03*
X0225165Y0121703D03*
X0231779Y0122018D03*
X0231779Y0122175D03*
X0231779Y0122333D03*
X0231779Y0122490D03*
X0231779Y0122648D03*
X0231779Y0125482D03*
X0226676Y0115640D03*
X0227936Y0114537D03*
X0219117Y0114537D03*
X0219117Y0112805D03*
X0219228Y0104695D03*
X0219228Y0101388D03*
X0223322Y0103593D03*
X0232771Y0102175D03*
X0232613Y0092175D03*
X0230271Y0082175D03*
X0223657Y0083435D03*
X0223657Y0083593D03*
X0219562Y0084695D03*
X0219562Y0081388D03*
X0219700Y0091388D03*
X0230113Y0072175D03*
X0232271Y0062175D03*
X0219924Y0053907D03*
X0219924Y0053750D03*
X0224176Y0051860D03*
X0219358Y0062175D03*
X0219358Y0065167D03*
X0232613Y0151545D03*
X0232771Y0156112D03*
X0219070Y0153120D03*
X0224176Y0203860D03*
X0219924Y0205750D03*
X0219924Y0205907D03*
X0219358Y0214175D03*
X0219358Y0217167D03*
X0230113Y0224175D03*
X0230271Y0234175D03*
X0223657Y0235435D03*
X0223657Y0235593D03*
X0219562Y0236695D03*
X0219562Y0233388D03*
X0219700Y0243388D03*
X0219228Y0253388D03*
X0219228Y0256695D03*
X0223322Y0255593D03*
X0232771Y0254175D03*
X0232613Y0244175D03*
X0227936Y0266537D03*
X0226676Y0267640D03*
X0225165Y0273703D03*
X0224062Y0275120D03*
X0222487Y0276380D03*
X0222487Y0276537D03*
X0219310Y0284175D03*
X0219310Y0287325D03*
X0224980Y0286537D03*
X0231279Y0287482D03*
X0231279Y0284648D03*
X0231279Y0284490D03*
X0231279Y0284333D03*
X0231279Y0284175D03*
X0231279Y0284018D03*
X0231779Y0277482D03*
X0231779Y0274648D03*
X0231779Y0274490D03*
X0231779Y0274333D03*
X0231779Y0274175D03*
X0231779Y0274018D03*
X0219117Y0266537D03*
X0219117Y0264805D03*
X0223157Y0295435D03*
X0229613Y0294018D03*
X0232613Y0303545D03*
X0232771Y0308112D03*
X0219070Y0305120D03*
X0232271Y0214175D03*
X0055271Y0214175D03*
X0047176Y0203860D03*
X0042924Y0205750D03*
X0042924Y0205907D03*
X0042358Y0214175D03*
X0042358Y0217167D03*
X0053113Y0224175D03*
X0053271Y0234175D03*
X0046657Y0235435D03*
X0046657Y0235593D03*
X0042562Y0236695D03*
X0042562Y0233388D03*
X0042700Y0243388D03*
X0042228Y0253388D03*
X0042228Y0256695D03*
X0046322Y0255593D03*
X0055771Y0254175D03*
X0055613Y0244175D03*
X0050936Y0266537D03*
X0049676Y0267640D03*
X0048165Y0273703D03*
X0047062Y0275120D03*
X0045487Y0276380D03*
X0045487Y0276537D03*
X0042310Y0284175D03*
X0042310Y0287325D03*
X0047980Y0286537D03*
X0054279Y0287482D03*
X0054279Y0284648D03*
X0054279Y0284490D03*
X0054279Y0284333D03*
X0054279Y0284175D03*
X0054279Y0284018D03*
X0054779Y0277482D03*
X0054779Y0274648D03*
X0054779Y0274490D03*
X0054779Y0274333D03*
X0054779Y0274175D03*
X0054779Y0274018D03*
X0042117Y0266537D03*
X0042117Y0264805D03*
X0046157Y0295435D03*
X0052613Y0294018D03*
X0055613Y0303545D03*
X0055771Y0308112D03*
X0042070Y0305120D03*
X0055771Y0156112D03*
X0055613Y0151545D03*
X0052613Y0142018D03*
X0046157Y0143435D03*
X0042310Y0135325D03*
X0042310Y0132175D03*
X0047980Y0134537D03*
X0054279Y0135482D03*
X0054279Y0132648D03*
X0054279Y0132490D03*
X0054279Y0132333D03*
X0054279Y0132175D03*
X0054279Y0132018D03*
X0054779Y0125482D03*
X0054779Y0122648D03*
X0054779Y0122490D03*
X0054779Y0122333D03*
X0054779Y0122175D03*
X0054779Y0122018D03*
X0048165Y0121703D03*
X0047062Y0123120D03*
X0045487Y0124380D03*
X0045487Y0124537D03*
X0049676Y0115640D03*
X0050936Y0114537D03*
X0042117Y0114537D03*
X0042117Y0112805D03*
X0042228Y0104695D03*
X0042228Y0101388D03*
X0046322Y0103593D03*
X0055771Y0102175D03*
X0055613Y0092175D03*
X0053271Y0082175D03*
X0046657Y0083435D03*
X0046657Y0083593D03*
X0042562Y0084695D03*
X0042562Y0081388D03*
X0042700Y0091388D03*
X0053113Y0072175D03*
X0042358Y0065167D03*
X0042358Y0062175D03*
X0042924Y0053907D03*
X0042924Y0053750D03*
X0047176Y0051860D03*
X0055271Y0062175D03*
X0042070Y0153120D03*
D17*
X0041755Y0154065D03*
X0041755Y0154222D03*
X0041755Y0155640D03*
X0041755Y0156112D03*
X0045850Y0153435D03*
X0047424Y0152490D03*
X0048369Y0151388D03*
X0045220Y0151545D03*
X0042062Y0146112D03*
X0042062Y0145955D03*
X0042062Y0145797D03*
X0042062Y0145640D03*
X0042062Y0144695D03*
X0042062Y0144537D03*
X0042062Y0144380D03*
X0042062Y0144222D03*
X0045842Y0143278D03*
X0048834Y0144695D03*
X0052613Y0145797D03*
X0052298Y0141388D03*
X0054279Y0135010D03*
X0044830Y0134380D03*
X0044830Y0132963D03*
X0041995Y0133120D03*
X0041995Y0133278D03*
X0041995Y0133435D03*
X0041995Y0133593D03*
X0041995Y0133750D03*
X0041995Y0133907D03*
X0041995Y0134065D03*
X0041995Y0134222D03*
X0041995Y0134380D03*
X0042495Y0125482D03*
X0042495Y0125325D03*
X0042495Y0125167D03*
X0042495Y0125010D03*
X0042495Y0124852D03*
X0042495Y0124695D03*
X0042495Y0124537D03*
X0042495Y0124380D03*
X0042495Y0124222D03*
X0042495Y0124065D03*
X0042495Y0123907D03*
X0042495Y0123750D03*
X0042495Y0123593D03*
X0042495Y0123435D03*
X0042495Y0123278D03*
X0042495Y0123120D03*
X0042495Y0122963D03*
X0042495Y0122805D03*
X0042495Y0122648D03*
X0042495Y0122490D03*
X0042495Y0122333D03*
X0042495Y0122175D03*
X0042495Y0122018D03*
X0042495Y0121860D03*
X0048165Y0121860D03*
X0048165Y0125482D03*
X0051787Y0125640D03*
X0054779Y0125010D03*
X0051787Y0121703D03*
X0049676Y0115482D03*
X0041913Y0106112D03*
X0041913Y0105955D03*
X0041913Y0105797D03*
X0041913Y0105640D03*
X0041913Y0102805D03*
X0041913Y0102648D03*
X0041913Y0102490D03*
X0041913Y0102333D03*
X0041913Y0102175D03*
X0041913Y0102018D03*
X0042385Y0096270D03*
X0042385Y0095482D03*
X0042385Y0092963D03*
X0042385Y0092805D03*
X0042385Y0092018D03*
X0042385Y0091860D03*
X0042247Y0086112D03*
X0042247Y0085640D03*
X0042247Y0082805D03*
X0042247Y0082648D03*
X0042247Y0082490D03*
X0042247Y0082333D03*
X0042247Y0082175D03*
X0042247Y0082018D03*
X0042405Y0074380D03*
X0042405Y0074222D03*
X0042405Y0074065D03*
X0042405Y0072018D03*
X0042405Y0071860D03*
X0042405Y0071703D03*
X0048389Y0074065D03*
X0052641Y0071388D03*
X0052798Y0071545D03*
X0055586Y0064222D03*
X0055586Y0064065D03*
X0055586Y0063907D03*
X0055586Y0063750D03*
X0055586Y0063593D03*
X0055586Y0063435D03*
X0055586Y0063278D03*
X0048814Y0061860D03*
X0042043Y0063120D03*
X0042043Y0063278D03*
X0042043Y0063435D03*
X0042043Y0063593D03*
X0042043Y0063750D03*
X0042043Y0063907D03*
X0042043Y0064065D03*
X0042043Y0064222D03*
X0042043Y0064380D03*
X0042610Y0055482D03*
X0042610Y0055167D03*
X0042610Y0055010D03*
X0045444Y0054852D03*
X0047176Y0052490D03*
X0051428Y0052490D03*
X0051428Y0052175D03*
X0051428Y0052018D03*
X0051428Y0053435D03*
X0051428Y0053593D03*
X0051428Y0053750D03*
X0051428Y0053907D03*
X0051428Y0054065D03*
X0051428Y0054222D03*
X0052798Y0081388D03*
X0052956Y0081545D03*
X0055298Y0152175D03*
X0051428Y0204018D03*
X0051428Y0204175D03*
X0051428Y0204490D03*
X0051428Y0205435D03*
X0051428Y0205593D03*
X0051428Y0205750D03*
X0051428Y0205907D03*
X0051428Y0206065D03*
X0051428Y0206222D03*
X0047176Y0204490D03*
X0045444Y0206852D03*
X0042610Y0207010D03*
X0042610Y0207167D03*
X0042610Y0207482D03*
X0042043Y0215120D03*
X0042043Y0215278D03*
X0042043Y0215435D03*
X0042043Y0215593D03*
X0042043Y0215750D03*
X0042043Y0215907D03*
X0042043Y0216065D03*
X0042043Y0216222D03*
X0042043Y0216380D03*
X0048814Y0213860D03*
X0055586Y0215278D03*
X0055586Y0215435D03*
X0055586Y0215593D03*
X0055586Y0215750D03*
X0055586Y0215907D03*
X0055586Y0216065D03*
X0055586Y0216222D03*
X0052641Y0223388D03*
X0052798Y0223545D03*
X0048389Y0226065D03*
X0042405Y0226065D03*
X0042405Y0226222D03*
X0042405Y0226380D03*
X0042405Y0224018D03*
X0042405Y0223860D03*
X0042405Y0223703D03*
X0042247Y0234018D03*
X0042247Y0234175D03*
X0042247Y0234333D03*
X0042247Y0234490D03*
X0042247Y0234648D03*
X0042247Y0234805D03*
X0042247Y0237640D03*
X0042247Y0238112D03*
X0042385Y0243860D03*
X0042385Y0244018D03*
X0042385Y0244805D03*
X0042385Y0244963D03*
X0042385Y0247482D03*
X0042385Y0248270D03*
X0041913Y0254018D03*
X0041913Y0254175D03*
X0041913Y0254333D03*
X0041913Y0254490D03*
X0041913Y0254648D03*
X0041913Y0254805D03*
X0041913Y0257640D03*
X0041913Y0257797D03*
X0041913Y0257955D03*
X0041913Y0258112D03*
X0049676Y0267482D03*
X0048165Y0273860D03*
X0048165Y0277482D03*
X0051787Y0277640D03*
X0054779Y0277010D03*
X0051787Y0273703D03*
X0042495Y0273860D03*
X0042495Y0274018D03*
X0042495Y0274175D03*
X0042495Y0274333D03*
X0042495Y0274490D03*
X0042495Y0274648D03*
X0042495Y0274805D03*
X0042495Y0274963D03*
X0042495Y0275120D03*
X0042495Y0275278D03*
X0042495Y0275435D03*
X0042495Y0275593D03*
X0042495Y0275750D03*
X0042495Y0275907D03*
X0042495Y0276065D03*
X0042495Y0276222D03*
X0042495Y0276380D03*
X0042495Y0276537D03*
X0042495Y0276695D03*
X0042495Y0276852D03*
X0042495Y0277010D03*
X0042495Y0277167D03*
X0042495Y0277325D03*
X0042495Y0277482D03*
X0041995Y0285120D03*
X0041995Y0285278D03*
X0041995Y0285435D03*
X0041995Y0285593D03*
X0041995Y0285750D03*
X0041995Y0285907D03*
X0041995Y0286065D03*
X0041995Y0286222D03*
X0041995Y0286380D03*
X0044830Y0286380D03*
X0044830Y0284963D03*
X0054279Y0287010D03*
X0052298Y0293388D03*
X0052613Y0297797D03*
X0048834Y0296695D03*
X0045842Y0295278D03*
X0042062Y0296222D03*
X0042062Y0296380D03*
X0042062Y0296537D03*
X0042062Y0296695D03*
X0042062Y0297640D03*
X0042062Y0297797D03*
X0042062Y0297955D03*
X0042062Y0298112D03*
X0048369Y0303388D03*
X0047424Y0304490D03*
X0045850Y0305435D03*
X0045220Y0303545D03*
X0041755Y0306065D03*
X0041755Y0306222D03*
X0041755Y0307640D03*
X0041755Y0308112D03*
X0055298Y0304175D03*
X0052956Y0233545D03*
X0052798Y0233388D03*
X0219247Y0234018D03*
X0219247Y0234175D03*
X0219247Y0234333D03*
X0219247Y0234490D03*
X0219247Y0234648D03*
X0219247Y0234805D03*
X0219247Y0237640D03*
X0219247Y0238112D03*
X0219385Y0243860D03*
X0219385Y0244018D03*
X0219385Y0244805D03*
X0219385Y0244963D03*
X0219385Y0247482D03*
X0219385Y0248270D03*
X0218913Y0254018D03*
X0218913Y0254175D03*
X0218913Y0254333D03*
X0218913Y0254490D03*
X0218913Y0254648D03*
X0218913Y0254805D03*
X0218913Y0257640D03*
X0218913Y0257797D03*
X0218913Y0257955D03*
X0218913Y0258112D03*
X0226676Y0267482D03*
X0225165Y0273860D03*
X0225165Y0277482D03*
X0228787Y0277640D03*
X0231779Y0277010D03*
X0228787Y0273703D03*
X0219495Y0273860D03*
X0219495Y0274018D03*
X0219495Y0274175D03*
X0219495Y0274333D03*
X0219495Y0274490D03*
X0219495Y0274648D03*
X0219495Y0274805D03*
X0219495Y0274963D03*
X0219495Y0275120D03*
X0219495Y0275278D03*
X0219495Y0275435D03*
X0219495Y0275593D03*
X0219495Y0275750D03*
X0219495Y0275907D03*
X0219495Y0276065D03*
X0219495Y0276222D03*
X0219495Y0276380D03*
X0219495Y0276537D03*
X0219495Y0276695D03*
X0219495Y0276852D03*
X0219495Y0277010D03*
X0219495Y0277167D03*
X0219495Y0277325D03*
X0219495Y0277482D03*
X0218995Y0285120D03*
X0218995Y0285278D03*
X0218995Y0285435D03*
X0218995Y0285593D03*
X0218995Y0285750D03*
X0218995Y0285907D03*
X0218995Y0286065D03*
X0218995Y0286222D03*
X0218995Y0286380D03*
X0221830Y0286380D03*
X0221830Y0284963D03*
X0231279Y0287010D03*
X0229298Y0293388D03*
X0229613Y0297797D03*
X0225834Y0296695D03*
X0222842Y0295278D03*
X0219062Y0296222D03*
X0219062Y0296380D03*
X0219062Y0296537D03*
X0219062Y0296695D03*
X0219062Y0297640D03*
X0219062Y0297797D03*
X0219062Y0297955D03*
X0219062Y0298112D03*
X0222220Y0303545D03*
X0222850Y0305435D03*
X0224424Y0304490D03*
X0225369Y0303388D03*
X0232298Y0304175D03*
X0218755Y0306065D03*
X0218755Y0306222D03*
X0218755Y0307640D03*
X0218755Y0308112D03*
X0229956Y0233545D03*
X0229798Y0233388D03*
X0225389Y0226065D03*
X0229641Y0223388D03*
X0229798Y0223545D03*
X0232586Y0216222D03*
X0232586Y0216065D03*
X0232586Y0215907D03*
X0232586Y0215750D03*
X0232586Y0215593D03*
X0232586Y0215435D03*
X0232586Y0215278D03*
X0225814Y0213860D03*
X0219043Y0215120D03*
X0219043Y0215278D03*
X0219043Y0215435D03*
X0219043Y0215593D03*
X0219043Y0215750D03*
X0219043Y0215907D03*
X0219043Y0216065D03*
X0219043Y0216222D03*
X0219043Y0216380D03*
X0219405Y0223703D03*
X0219405Y0223860D03*
X0219405Y0224018D03*
X0219405Y0226065D03*
X0219405Y0226222D03*
X0219405Y0226380D03*
X0219610Y0207482D03*
X0219610Y0207167D03*
X0219610Y0207010D03*
X0222444Y0206852D03*
X0224176Y0204490D03*
X0228428Y0204490D03*
X0228428Y0204175D03*
X0228428Y0204018D03*
X0228428Y0205435D03*
X0228428Y0205593D03*
X0228428Y0205750D03*
X0228428Y0205907D03*
X0228428Y0206065D03*
X0228428Y0206222D03*
X0218755Y0156112D03*
X0218755Y0155640D03*
X0218755Y0154222D03*
X0218755Y0154065D03*
X0222850Y0153435D03*
X0224424Y0152490D03*
X0225369Y0151388D03*
X0222220Y0151545D03*
X0219062Y0146112D03*
X0219062Y0145955D03*
X0219062Y0145797D03*
X0219062Y0145640D03*
X0219062Y0144695D03*
X0219062Y0144537D03*
X0219062Y0144380D03*
X0219062Y0144222D03*
X0222842Y0143278D03*
X0225834Y0144695D03*
X0229613Y0145797D03*
X0229298Y0141388D03*
X0231279Y0135010D03*
X0221830Y0134380D03*
X0221830Y0132963D03*
X0218995Y0133120D03*
X0218995Y0133278D03*
X0218995Y0133435D03*
X0218995Y0133593D03*
X0218995Y0133750D03*
X0218995Y0133907D03*
X0218995Y0134065D03*
X0218995Y0134222D03*
X0218995Y0134380D03*
X0219495Y0125482D03*
X0219495Y0125325D03*
X0219495Y0125167D03*
X0219495Y0125010D03*
X0219495Y0124852D03*
X0219495Y0124695D03*
X0219495Y0124537D03*
X0219495Y0124380D03*
X0219495Y0124222D03*
X0219495Y0124065D03*
X0219495Y0123907D03*
X0219495Y0123750D03*
X0219495Y0123593D03*
X0219495Y0123435D03*
X0219495Y0123278D03*
X0219495Y0123120D03*
X0219495Y0122963D03*
X0219495Y0122805D03*
X0219495Y0122648D03*
X0219495Y0122490D03*
X0219495Y0122333D03*
X0219495Y0122175D03*
X0219495Y0122018D03*
X0219495Y0121860D03*
X0225165Y0121860D03*
X0225165Y0125482D03*
X0228787Y0125640D03*
X0231779Y0125010D03*
X0228787Y0121703D03*
X0226676Y0115482D03*
X0218913Y0106112D03*
X0218913Y0105955D03*
X0218913Y0105797D03*
X0218913Y0105640D03*
X0218913Y0102805D03*
X0218913Y0102648D03*
X0218913Y0102490D03*
X0218913Y0102333D03*
X0218913Y0102175D03*
X0218913Y0102018D03*
X0219385Y0096270D03*
X0219385Y0095482D03*
X0219385Y0092963D03*
X0219385Y0092805D03*
X0219385Y0092018D03*
X0219385Y0091860D03*
X0219247Y0086112D03*
X0219247Y0085640D03*
X0219247Y0082805D03*
X0219247Y0082648D03*
X0219247Y0082490D03*
X0219247Y0082333D03*
X0219247Y0082175D03*
X0219247Y0082018D03*
X0219405Y0074380D03*
X0219405Y0074222D03*
X0219405Y0074065D03*
X0219405Y0072018D03*
X0219405Y0071860D03*
X0219405Y0071703D03*
X0219043Y0064380D03*
X0219043Y0064222D03*
X0219043Y0064065D03*
X0219043Y0063907D03*
X0219043Y0063750D03*
X0219043Y0063593D03*
X0219043Y0063435D03*
X0219043Y0063278D03*
X0219043Y0063120D03*
X0225814Y0061860D03*
X0232586Y0063278D03*
X0232586Y0063435D03*
X0232586Y0063593D03*
X0232586Y0063750D03*
X0232586Y0063907D03*
X0232586Y0064065D03*
X0232586Y0064222D03*
X0229641Y0071388D03*
X0229798Y0071545D03*
X0225389Y0074065D03*
X0229798Y0081388D03*
X0229956Y0081545D03*
X0228428Y0054222D03*
X0228428Y0054065D03*
X0228428Y0053907D03*
X0228428Y0053750D03*
X0228428Y0053593D03*
X0228428Y0053435D03*
X0228428Y0052490D03*
X0228428Y0052175D03*
X0228428Y0052018D03*
X0224176Y0052490D03*
X0222444Y0054852D03*
X0219610Y0055010D03*
X0219610Y0055167D03*
X0219610Y0055482D03*
X0232298Y0152175D03*
D18*
X0232535Y0151703D03*
X0229692Y0145482D03*
X0229535Y0141860D03*
X0223798Y0135640D03*
X0224901Y0134380D03*
X0226476Y0133120D03*
X0219232Y0132333D03*
X0219232Y0135167D03*
X0225243Y0125640D03*
X0227133Y0123907D03*
X0227133Y0123750D03*
X0227133Y0123593D03*
X0227133Y0123435D03*
X0227858Y0114380D03*
X0219039Y0114695D03*
X0219039Y0115797D03*
X0219039Y0112648D03*
X0219149Y0103907D03*
X0219149Y0103278D03*
X0219149Y0101545D03*
X0219621Y0094695D03*
X0219621Y0093278D03*
X0223716Y0093593D03*
X0225763Y0094695D03*
X0232062Y0101388D03*
X0232220Y0101545D03*
X0232535Y0101860D03*
X0232692Y0102018D03*
X0230192Y0082018D03*
X0225468Y0074380D03*
X0223578Y0071703D03*
X0219641Y0071388D03*
X0219641Y0074695D03*
X0219484Y0083278D03*
X0230035Y0072018D03*
X0232350Y0065167D03*
X0232350Y0065010D03*
X0232350Y0062333D03*
X0225358Y0054537D03*
X0225358Y0054380D03*
X0224098Y0052018D03*
X0222523Y0055325D03*
X0222523Y0055482D03*
X0219846Y0055797D03*
X0219846Y0054222D03*
X0219846Y0054065D03*
X0228192Y0051703D03*
X0219279Y0062333D03*
X0219279Y0065010D03*
X0218991Y0153278D03*
X0218991Y0153435D03*
X0223243Y0153750D03*
X0232692Y0155955D03*
X0228192Y0203703D03*
X0225358Y0206380D03*
X0225358Y0206537D03*
X0224098Y0204018D03*
X0222523Y0207325D03*
X0222523Y0207482D03*
X0219846Y0207797D03*
X0219846Y0206222D03*
X0219846Y0206065D03*
X0219279Y0214333D03*
X0219279Y0217010D03*
X0219641Y0223388D03*
X0219641Y0226695D03*
X0223578Y0223703D03*
X0225468Y0226380D03*
X0230035Y0224018D03*
X0232350Y0217167D03*
X0232350Y0217010D03*
X0232350Y0214333D03*
X0230192Y0234018D03*
X0219484Y0235278D03*
X0219621Y0245278D03*
X0219621Y0246695D03*
X0223716Y0245593D03*
X0225763Y0246695D03*
X0232062Y0253388D03*
X0232220Y0253545D03*
X0232535Y0253860D03*
X0232692Y0254018D03*
X0227858Y0266380D03*
X0219039Y0266695D03*
X0219039Y0267797D03*
X0219039Y0264648D03*
X0219149Y0255907D03*
X0219149Y0255278D03*
X0219149Y0253545D03*
X0227133Y0275435D03*
X0227133Y0275593D03*
X0227133Y0275750D03*
X0227133Y0275907D03*
X0225243Y0277640D03*
X0226476Y0285120D03*
X0224901Y0286380D03*
X0223798Y0287640D03*
X0219232Y0287167D03*
X0219232Y0284333D03*
X0229535Y0293860D03*
X0229692Y0297482D03*
X0232535Y0303703D03*
X0232692Y0307955D03*
X0223243Y0305750D03*
X0218991Y0305435D03*
X0218991Y0305278D03*
X0055692Y0307955D03*
X0055535Y0303703D03*
X0052692Y0297482D03*
X0052535Y0293860D03*
X0046798Y0287640D03*
X0047901Y0286380D03*
X0049476Y0285120D03*
X0042232Y0284333D03*
X0042232Y0287167D03*
X0048243Y0277640D03*
X0050133Y0275907D03*
X0050133Y0275750D03*
X0050133Y0275593D03*
X0050133Y0275435D03*
X0050858Y0266380D03*
X0042039Y0266695D03*
X0042039Y0267797D03*
X0042039Y0264648D03*
X0042149Y0255907D03*
X0042149Y0255278D03*
X0042149Y0253545D03*
X0042621Y0246695D03*
X0042621Y0245278D03*
X0046716Y0245593D03*
X0048763Y0246695D03*
X0055062Y0253388D03*
X0055220Y0253545D03*
X0055535Y0253860D03*
X0055692Y0254018D03*
X0053192Y0234018D03*
X0048468Y0226380D03*
X0046578Y0223703D03*
X0042641Y0223388D03*
X0042641Y0226695D03*
X0042484Y0235278D03*
X0053035Y0224018D03*
X0055350Y0217167D03*
X0055350Y0217010D03*
X0055350Y0214333D03*
X0048358Y0206537D03*
X0048358Y0206380D03*
X0047098Y0204018D03*
X0045523Y0207325D03*
X0045523Y0207482D03*
X0042846Y0207797D03*
X0042846Y0206222D03*
X0042846Y0206065D03*
X0042279Y0214333D03*
X0042279Y0217010D03*
X0051192Y0203703D03*
X0055692Y0155955D03*
X0055535Y0151703D03*
X0052692Y0145482D03*
X0052535Y0141860D03*
X0046798Y0135640D03*
X0047901Y0134380D03*
X0049476Y0133120D03*
X0042232Y0132333D03*
X0042232Y0135167D03*
X0048243Y0125640D03*
X0050133Y0123907D03*
X0050133Y0123750D03*
X0050133Y0123593D03*
X0050133Y0123435D03*
X0050858Y0114380D03*
X0042039Y0114695D03*
X0042039Y0115797D03*
X0042039Y0112648D03*
X0042149Y0103907D03*
X0042149Y0103278D03*
X0042149Y0101545D03*
X0042621Y0094695D03*
X0042621Y0093278D03*
X0046716Y0093593D03*
X0048763Y0094695D03*
X0055062Y0101388D03*
X0055220Y0101545D03*
X0055535Y0101860D03*
X0055692Y0102018D03*
X0053192Y0082018D03*
X0048468Y0074380D03*
X0046578Y0071703D03*
X0042641Y0071388D03*
X0042641Y0074695D03*
X0042484Y0083278D03*
X0053035Y0072018D03*
X0055350Y0065167D03*
X0055350Y0065010D03*
X0055350Y0062333D03*
X0048358Y0054537D03*
X0048358Y0054380D03*
X0047098Y0052018D03*
X0045523Y0055325D03*
X0045523Y0055482D03*
X0042846Y0055797D03*
X0042846Y0054222D03*
X0042846Y0054065D03*
X0042279Y0062333D03*
X0042279Y0065010D03*
X0051192Y0051703D03*
X0041991Y0153278D03*
X0041991Y0153435D03*
X0046243Y0153750D03*
X0041991Y0305278D03*
X0041991Y0305435D03*
X0046243Y0305750D03*
D19*
X0047503Y0304648D03*
X0045141Y0303703D03*
X0044039Y0306695D03*
X0041676Y0306537D03*
X0041676Y0306380D03*
X0041676Y0307797D03*
X0041676Y0307955D03*
X0049865Y0306695D03*
X0055220Y0304333D03*
X0052535Y0297955D03*
X0045763Y0295907D03*
X0045763Y0293545D03*
X0046798Y0287482D03*
X0050133Y0276380D03*
X0050133Y0274963D03*
X0047708Y0266537D03*
X0049755Y0264018D03*
X0048606Y0256380D03*
X0048606Y0253703D03*
X0042306Y0248112D03*
X0042306Y0247955D03*
X0042306Y0247797D03*
X0042306Y0247640D03*
X0042306Y0244648D03*
X0042306Y0244490D03*
X0042306Y0244333D03*
X0042306Y0244175D03*
X0048448Y0243388D03*
X0048763Y0246537D03*
X0048940Y0236380D03*
X0048940Y0233703D03*
X0048310Y0225907D03*
X0046736Y0224333D03*
X0046736Y0224175D03*
X0049413Y0223388D03*
X0048736Y0217482D03*
X0044641Y0216065D03*
X0044641Y0215907D03*
X0044641Y0215750D03*
X0044641Y0215593D03*
X0044641Y0215435D03*
X0052830Y0215278D03*
X0052830Y0215120D03*
X0047885Y0206222D03*
X0047098Y0204648D03*
X0045523Y0206695D03*
X0042531Y0207325D03*
X0051507Y0204333D03*
X0042326Y0227640D03*
X0042326Y0227797D03*
X0042326Y0227955D03*
X0042326Y0228112D03*
X0042169Y0237797D03*
X0042169Y0237955D03*
X0041676Y0155955D03*
X0041676Y0155797D03*
X0041676Y0154537D03*
X0041676Y0154380D03*
X0044039Y0154695D03*
X0045141Y0151703D03*
X0047503Y0152648D03*
X0049865Y0154695D03*
X0055220Y0152333D03*
X0052535Y0145955D03*
X0045763Y0143907D03*
X0045763Y0141545D03*
X0046798Y0135482D03*
X0050133Y0124380D03*
X0050133Y0122963D03*
X0047708Y0114537D03*
X0049755Y0112018D03*
X0048606Y0104380D03*
X0048606Y0101703D03*
X0042306Y0096112D03*
X0042306Y0095955D03*
X0042306Y0095797D03*
X0042306Y0095640D03*
X0042306Y0092648D03*
X0042306Y0092490D03*
X0042306Y0092333D03*
X0042306Y0092175D03*
X0048448Y0091388D03*
X0048763Y0094537D03*
X0048940Y0084380D03*
X0048940Y0081703D03*
X0048310Y0073907D03*
X0046736Y0072333D03*
X0046736Y0072175D03*
X0049413Y0071388D03*
X0048736Y0065482D03*
X0044641Y0064065D03*
X0044641Y0063907D03*
X0044641Y0063750D03*
X0044641Y0063593D03*
X0044641Y0063435D03*
X0052830Y0063278D03*
X0052830Y0063120D03*
X0047885Y0054222D03*
X0047098Y0052648D03*
X0045523Y0054695D03*
X0042531Y0055325D03*
X0051507Y0052333D03*
X0042326Y0075640D03*
X0042326Y0075797D03*
X0042326Y0075955D03*
X0042326Y0076112D03*
X0042169Y0085797D03*
X0042169Y0085955D03*
X0219169Y0085955D03*
X0219169Y0085797D03*
X0219306Y0092175D03*
X0219306Y0092333D03*
X0219306Y0092490D03*
X0219306Y0092648D03*
X0219306Y0095640D03*
X0219306Y0095797D03*
X0219306Y0095955D03*
X0219306Y0096112D03*
X0225763Y0094537D03*
X0225448Y0091388D03*
X0225940Y0084380D03*
X0225940Y0081703D03*
X0225310Y0073907D03*
X0223736Y0072333D03*
X0223736Y0072175D03*
X0226413Y0071388D03*
X0225736Y0065482D03*
X0221641Y0064065D03*
X0221641Y0063907D03*
X0221641Y0063750D03*
X0221641Y0063593D03*
X0221641Y0063435D03*
X0229830Y0063278D03*
X0229830Y0063120D03*
X0224885Y0054222D03*
X0224098Y0052648D03*
X0222523Y0054695D03*
X0219531Y0055325D03*
X0228507Y0052333D03*
X0219326Y0075640D03*
X0219326Y0075797D03*
X0219326Y0075955D03*
X0219326Y0076112D03*
X0225606Y0101703D03*
X0225606Y0104380D03*
X0226755Y0112018D03*
X0224708Y0114537D03*
X0227133Y0122963D03*
X0227133Y0124380D03*
X0223798Y0135482D03*
X0222763Y0141545D03*
X0222763Y0143907D03*
X0229535Y0145955D03*
X0222141Y0151703D03*
X0224503Y0152648D03*
X0226865Y0154695D03*
X0221039Y0154695D03*
X0218676Y0154537D03*
X0218676Y0154380D03*
X0218676Y0155797D03*
X0218676Y0155955D03*
X0232220Y0152333D03*
X0228507Y0204333D03*
X0224885Y0206222D03*
X0224098Y0204648D03*
X0222523Y0206695D03*
X0219531Y0207325D03*
X0221641Y0215435D03*
X0221641Y0215593D03*
X0221641Y0215750D03*
X0221641Y0215907D03*
X0221641Y0216065D03*
X0225736Y0217482D03*
X0229830Y0215278D03*
X0229830Y0215120D03*
X0226413Y0223388D03*
X0225310Y0225907D03*
X0223736Y0224333D03*
X0223736Y0224175D03*
X0219326Y0227640D03*
X0219326Y0227797D03*
X0219326Y0227955D03*
X0219326Y0228112D03*
X0225940Y0233703D03*
X0225940Y0236380D03*
X0225448Y0243388D03*
X0225763Y0246537D03*
X0219306Y0247640D03*
X0219306Y0247797D03*
X0219306Y0247955D03*
X0219306Y0248112D03*
X0219306Y0244648D03*
X0219306Y0244490D03*
X0219306Y0244333D03*
X0219306Y0244175D03*
X0219169Y0237955D03*
X0219169Y0237797D03*
X0225606Y0253703D03*
X0225606Y0256380D03*
X0226755Y0264018D03*
X0224708Y0266537D03*
X0227133Y0274963D03*
X0227133Y0276380D03*
X0223798Y0287482D03*
X0222763Y0293545D03*
X0222763Y0295907D03*
X0229535Y0297955D03*
X0232220Y0304333D03*
X0226865Y0306695D03*
X0224503Y0304648D03*
X0222141Y0303703D03*
X0221039Y0306695D03*
X0218676Y0306537D03*
X0218676Y0306380D03*
X0218676Y0307797D03*
X0218676Y0307955D03*
D20*
X0218913Y0305593D03*
X0222377Y0303388D03*
X0223165Y0305593D03*
X0232456Y0303860D03*
X0232613Y0307797D03*
X0229456Y0293703D03*
X0225204Y0294648D03*
X0225047Y0294490D03*
X0222842Y0293388D03*
X0219153Y0287010D03*
X0219153Y0286852D03*
X0219153Y0284490D03*
X0221830Y0285278D03*
X0221830Y0285435D03*
X0221830Y0285593D03*
X0221830Y0285750D03*
X0221830Y0285907D03*
X0221830Y0286065D03*
X0231279Y0287325D03*
X0231779Y0277325D03*
X0222330Y0276222D03*
X0218960Y0267640D03*
X0218960Y0266852D03*
X0218960Y0264490D03*
X0218960Y0263703D03*
X0219070Y0256537D03*
X0219070Y0256065D03*
X0219070Y0255120D03*
X0219543Y0246537D03*
X0219543Y0245907D03*
X0219543Y0243545D03*
X0219405Y0236537D03*
X0219405Y0236065D03*
X0219405Y0235907D03*
X0219405Y0235120D03*
X0219405Y0233545D03*
X0225861Y0236537D03*
X0230113Y0233860D03*
X0225389Y0226222D03*
X0229956Y0223860D03*
X0232428Y0216852D03*
X0232428Y0214648D03*
X0232428Y0214490D03*
X0228271Y0207640D03*
X0228271Y0207482D03*
X0228271Y0205278D03*
X0228271Y0204805D03*
X0228271Y0203860D03*
X0225436Y0206695D03*
X0224176Y0204175D03*
X0219767Y0206380D03*
X0219767Y0206537D03*
X0219200Y0214490D03*
X0219200Y0214648D03*
X0219200Y0216852D03*
X0219562Y0224333D03*
X0219562Y0225750D03*
X0231984Y0243388D03*
X0232141Y0243545D03*
X0232298Y0243703D03*
X0232456Y0243860D03*
X0232613Y0244018D03*
X0232456Y0253703D03*
X0232613Y0155797D03*
X0232456Y0151860D03*
X0223165Y0153593D03*
X0222377Y0151388D03*
X0218913Y0153593D03*
X0225204Y0142648D03*
X0225047Y0142490D03*
X0222842Y0141388D03*
X0229456Y0141703D03*
X0231279Y0135325D03*
X0221830Y0134065D03*
X0221830Y0133907D03*
X0221830Y0133750D03*
X0221830Y0133593D03*
X0221830Y0133435D03*
X0221830Y0133278D03*
X0219153Y0132490D03*
X0219153Y0134852D03*
X0219153Y0135010D03*
X0222330Y0124222D03*
X0231779Y0125325D03*
X0218960Y0115640D03*
X0218960Y0114852D03*
X0218960Y0112490D03*
X0218960Y0111703D03*
X0219070Y0104537D03*
X0219070Y0104065D03*
X0219070Y0103120D03*
X0219543Y0094537D03*
X0219543Y0093907D03*
X0219543Y0091545D03*
X0219405Y0084537D03*
X0219405Y0084065D03*
X0219405Y0083907D03*
X0219405Y0083120D03*
X0219405Y0081545D03*
X0225861Y0084537D03*
X0230113Y0081860D03*
X0225389Y0074222D03*
X0229956Y0071860D03*
X0232428Y0064852D03*
X0232428Y0062648D03*
X0232428Y0062490D03*
X0228271Y0055640D03*
X0228271Y0055482D03*
X0228271Y0053278D03*
X0228271Y0052805D03*
X0228271Y0051860D03*
X0225436Y0054695D03*
X0224176Y0052175D03*
X0219767Y0054380D03*
X0219767Y0054537D03*
X0219200Y0062490D03*
X0219200Y0062648D03*
X0219200Y0064852D03*
X0219562Y0072333D03*
X0219562Y0073750D03*
X0231984Y0091388D03*
X0232141Y0091545D03*
X0232298Y0091703D03*
X0232456Y0091860D03*
X0232613Y0092018D03*
X0232456Y0101703D03*
X0055456Y0101703D03*
X0055613Y0092018D03*
X0055456Y0091860D03*
X0055298Y0091703D03*
X0055141Y0091545D03*
X0054984Y0091388D03*
X0048861Y0084537D03*
X0053113Y0081860D03*
X0048389Y0074222D03*
X0052956Y0071860D03*
X0055428Y0064852D03*
X0055428Y0062648D03*
X0055428Y0062490D03*
X0051271Y0055640D03*
X0051271Y0055482D03*
X0051271Y0053278D03*
X0051271Y0052805D03*
X0051271Y0051860D03*
X0048436Y0054695D03*
X0047176Y0052175D03*
X0042767Y0054380D03*
X0042767Y0054537D03*
X0042200Y0062490D03*
X0042200Y0062648D03*
X0042200Y0064852D03*
X0042562Y0072333D03*
X0042562Y0073750D03*
X0042405Y0081545D03*
X0042405Y0083120D03*
X0042405Y0083907D03*
X0042405Y0084065D03*
X0042405Y0084537D03*
X0042543Y0091545D03*
X0042543Y0093907D03*
X0042543Y0094537D03*
X0042070Y0103120D03*
X0042070Y0104065D03*
X0042070Y0104537D03*
X0041960Y0111703D03*
X0041960Y0112490D03*
X0041960Y0114852D03*
X0041960Y0115640D03*
X0045330Y0124222D03*
X0042153Y0132490D03*
X0042153Y0134852D03*
X0042153Y0135010D03*
X0044830Y0134065D03*
X0044830Y0133907D03*
X0044830Y0133750D03*
X0044830Y0133593D03*
X0044830Y0133435D03*
X0044830Y0133278D03*
X0045842Y0141388D03*
X0048047Y0142490D03*
X0048204Y0142648D03*
X0052456Y0141703D03*
X0054279Y0135325D03*
X0054779Y0125325D03*
X0045377Y0151388D03*
X0046165Y0153593D03*
X0041913Y0153593D03*
X0055456Y0151860D03*
X0055613Y0155797D03*
X0051271Y0203860D03*
X0051271Y0204805D03*
X0051271Y0205278D03*
X0051271Y0207482D03*
X0051271Y0207640D03*
X0048436Y0206695D03*
X0047176Y0204175D03*
X0042767Y0206380D03*
X0042767Y0206537D03*
X0042200Y0214490D03*
X0042200Y0214648D03*
X0042200Y0216852D03*
X0042562Y0224333D03*
X0042562Y0225750D03*
X0048389Y0226222D03*
X0052956Y0223860D03*
X0055428Y0216852D03*
X0055428Y0214648D03*
X0055428Y0214490D03*
X0053113Y0233860D03*
X0048861Y0236537D03*
X0054984Y0243388D03*
X0055141Y0243545D03*
X0055298Y0243703D03*
X0055456Y0243860D03*
X0055613Y0244018D03*
X0055456Y0253703D03*
X0042070Y0255120D03*
X0042070Y0256065D03*
X0042070Y0256537D03*
X0041960Y0263703D03*
X0041960Y0264490D03*
X0041960Y0266852D03*
X0041960Y0267640D03*
X0045330Y0276222D03*
X0042153Y0284490D03*
X0042153Y0286852D03*
X0042153Y0287010D03*
X0044830Y0286065D03*
X0044830Y0285907D03*
X0044830Y0285750D03*
X0044830Y0285593D03*
X0044830Y0285435D03*
X0044830Y0285278D03*
X0045842Y0293388D03*
X0048047Y0294490D03*
X0048204Y0294648D03*
X0052456Y0293703D03*
X0054279Y0287325D03*
X0054779Y0277325D03*
X0045377Y0303388D03*
X0046165Y0305593D03*
X0041913Y0305593D03*
X0055456Y0303860D03*
X0055613Y0307797D03*
X0042543Y0246537D03*
X0042543Y0245907D03*
X0042543Y0243545D03*
X0042405Y0236537D03*
X0042405Y0236065D03*
X0042405Y0235907D03*
X0042405Y0235120D03*
X0042405Y0233545D03*
D21*
X0049157Y0247325D03*
X0048814Y0218900D03*
X0048814Y0218742D03*
X0048814Y0218585D03*
X0048814Y0218427D03*
X0048814Y0218270D03*
X0048814Y0218112D03*
X0048814Y0217955D03*
X0048814Y0213545D03*
X0048814Y0213388D03*
X0048814Y0213230D03*
X0048814Y0213073D03*
X0048814Y0212915D03*
X0048814Y0212758D03*
X0048814Y0212600D03*
X0048527Y0155325D03*
X0049157Y0095325D03*
X0048814Y0066900D03*
X0048814Y0066742D03*
X0048814Y0066585D03*
X0048814Y0066427D03*
X0048814Y0066270D03*
X0048814Y0066112D03*
X0048814Y0065955D03*
X0048814Y0061545D03*
X0048814Y0061388D03*
X0048814Y0061230D03*
X0048814Y0061073D03*
X0048814Y0060915D03*
X0048814Y0060758D03*
X0048814Y0060600D03*
X0225814Y0060600D03*
X0225814Y0060758D03*
X0225814Y0060915D03*
X0225814Y0061073D03*
X0225814Y0061230D03*
X0225814Y0061388D03*
X0225814Y0061545D03*
X0225814Y0065955D03*
X0225814Y0066112D03*
X0225814Y0066270D03*
X0225814Y0066427D03*
X0225814Y0066585D03*
X0225814Y0066742D03*
X0225814Y0066900D03*
X0226157Y0095325D03*
X0225527Y0155325D03*
X0225814Y0212600D03*
X0225814Y0212758D03*
X0225814Y0212915D03*
X0225814Y0213073D03*
X0225814Y0213230D03*
X0225814Y0213388D03*
X0225814Y0213545D03*
X0225814Y0217955D03*
X0225814Y0218112D03*
X0225814Y0218270D03*
X0225814Y0218427D03*
X0225814Y0218585D03*
X0225814Y0218742D03*
X0225814Y0218900D03*
X0226157Y0247325D03*
X0225527Y0307325D03*
X0048527Y0307325D03*
D22*
X0048448Y0307167D03*
X0225448Y0307167D03*
X0225448Y0155167D03*
X0048448Y0155167D03*
D23*
X0048369Y0155010D03*
X0048527Y0101230D03*
X0225527Y0101230D03*
X0225369Y0155010D03*
X0225527Y0253230D03*
X0225369Y0307010D03*
X0048369Y0307010D03*
X0048527Y0253230D03*
D24*
X0048448Y0253073D03*
X0048448Y0258427D03*
X0048338Y0263545D03*
X0048338Y0267955D03*
X0048291Y0306852D03*
X0225291Y0306852D03*
X0225338Y0267955D03*
X0225338Y0263545D03*
X0225448Y0258427D03*
X0225448Y0253073D03*
X0225291Y0154852D03*
X0225338Y0115955D03*
X0225338Y0111545D03*
X0225448Y0106427D03*
X0225448Y0101073D03*
X0048448Y0101073D03*
X0048448Y0106427D03*
X0048338Y0111545D03*
X0048338Y0115955D03*
X0048291Y0154852D03*
D25*
X0049865Y0152648D03*
X0049865Y0152490D03*
X0045141Y0152805D03*
X0044984Y0152490D03*
X0044984Y0152333D03*
X0044984Y0152175D03*
X0044039Y0154380D03*
X0054905Y0154695D03*
X0055062Y0152648D03*
X0048440Y0142805D03*
X0050173Y0141388D03*
X0045606Y0141860D03*
X0045606Y0142018D03*
X0045606Y0142175D03*
X0045606Y0142333D03*
X0045606Y0142490D03*
X0045606Y0142648D03*
X0045606Y0142805D03*
X0045606Y0142963D03*
X0046798Y0135325D03*
X0047428Y0134065D03*
X0048846Y0132963D03*
X0049948Y0133435D03*
X0050106Y0131703D03*
X0051865Y0125482D03*
X0050133Y0122805D03*
X0047456Y0123435D03*
X0046354Y0122963D03*
X0044936Y0121703D03*
X0044401Y0115482D03*
X0044401Y0111860D03*
X0046448Y0111703D03*
X0049755Y0115325D03*
X0051802Y0112963D03*
X0048606Y0104222D03*
X0050338Y0103593D03*
X0050338Y0103435D03*
X0050338Y0102648D03*
X0050338Y0102490D03*
X0048606Y0101860D03*
X0046716Y0102333D03*
X0046716Y0103750D03*
X0048763Y0094380D03*
X0047031Y0093750D03*
X0047031Y0092333D03*
X0050338Y0091388D03*
X0048940Y0084222D03*
X0050673Y0083593D03*
X0050673Y0082490D03*
X0048940Y0081860D03*
X0047050Y0083750D03*
X0048310Y0073593D03*
X0046736Y0072648D03*
X0046736Y0072490D03*
X0044373Y0072333D03*
X0044373Y0073750D03*
X0050515Y0073593D03*
X0050515Y0073435D03*
X0050515Y0072648D03*
X0050515Y0072490D03*
X0051098Y0065640D03*
X0048578Y0065010D03*
X0048893Y0062333D03*
X0048893Y0062175D03*
X0051098Y0061703D03*
X0052673Y0062805D03*
X0044798Y0062963D03*
X0044798Y0064380D03*
X0045523Y0054380D03*
X0045523Y0054222D03*
X0047255Y0053278D03*
X0047255Y0053120D03*
X0047413Y0053435D03*
X0047413Y0053593D03*
X0047570Y0053750D03*
X0047570Y0053907D03*
X0221798Y0062963D03*
X0221798Y0064380D03*
X0225578Y0065010D03*
X0228098Y0065640D03*
X0229673Y0062805D03*
X0228098Y0061703D03*
X0225893Y0062175D03*
X0225893Y0062333D03*
X0224570Y0053907D03*
X0224570Y0053750D03*
X0224413Y0053593D03*
X0224413Y0053435D03*
X0224255Y0053278D03*
X0224255Y0053120D03*
X0222523Y0054222D03*
X0222523Y0054380D03*
X0221373Y0072333D03*
X0221373Y0073750D03*
X0223736Y0072648D03*
X0223736Y0072490D03*
X0225310Y0073593D03*
X0227515Y0073593D03*
X0227515Y0073435D03*
X0227515Y0072648D03*
X0227515Y0072490D03*
X0225940Y0081860D03*
X0227673Y0082490D03*
X0227673Y0083593D03*
X0225940Y0084222D03*
X0224050Y0083750D03*
X0227338Y0091388D03*
X0225763Y0094380D03*
X0224031Y0093750D03*
X0224031Y0092333D03*
X0225606Y0101860D03*
X0227338Y0102490D03*
X0227338Y0102648D03*
X0227338Y0103435D03*
X0227338Y0103593D03*
X0225606Y0104222D03*
X0223716Y0103750D03*
X0223716Y0102333D03*
X0223448Y0111703D03*
X0221401Y0111860D03*
X0221401Y0115482D03*
X0226755Y0115325D03*
X0228802Y0112963D03*
X0227133Y0122805D03*
X0224456Y0123435D03*
X0223354Y0122963D03*
X0221936Y0121703D03*
X0228865Y0125482D03*
X0227106Y0131703D03*
X0226948Y0133435D03*
X0225846Y0132963D03*
X0224428Y0134065D03*
X0223798Y0135325D03*
X0222606Y0141860D03*
X0222606Y0142018D03*
X0222606Y0142175D03*
X0222606Y0142333D03*
X0222606Y0142490D03*
X0222606Y0142648D03*
X0222606Y0142805D03*
X0222606Y0142963D03*
X0225440Y0142805D03*
X0227173Y0141388D03*
X0226865Y0152490D03*
X0226865Y0152648D03*
X0222141Y0152805D03*
X0221984Y0152490D03*
X0221984Y0152333D03*
X0221984Y0152175D03*
X0221039Y0154380D03*
X0231905Y0154695D03*
X0232062Y0152648D03*
X0224255Y0205120D03*
X0224255Y0205278D03*
X0224413Y0205435D03*
X0224413Y0205593D03*
X0224570Y0205750D03*
X0224570Y0205907D03*
X0222523Y0206222D03*
X0222523Y0206380D03*
X0225893Y0214175D03*
X0225893Y0214333D03*
X0228098Y0213703D03*
X0229673Y0214805D03*
X0228098Y0217640D03*
X0225578Y0217010D03*
X0221798Y0216380D03*
X0221798Y0214963D03*
X0221373Y0224333D03*
X0221373Y0225750D03*
X0223736Y0224648D03*
X0223736Y0224490D03*
X0225310Y0225593D03*
X0227515Y0225593D03*
X0227515Y0225435D03*
X0227515Y0224648D03*
X0227515Y0224490D03*
X0225940Y0233860D03*
X0227673Y0234490D03*
X0227673Y0235593D03*
X0225940Y0236222D03*
X0224050Y0235750D03*
X0227338Y0243388D03*
X0225763Y0246380D03*
X0224031Y0245750D03*
X0224031Y0244333D03*
X0225606Y0253860D03*
X0227338Y0254490D03*
X0227338Y0254648D03*
X0227338Y0255435D03*
X0227338Y0255593D03*
X0225606Y0256222D03*
X0223716Y0255750D03*
X0223716Y0254333D03*
X0223448Y0263703D03*
X0221401Y0263860D03*
X0221401Y0267482D03*
X0226755Y0267325D03*
X0228802Y0264963D03*
X0227133Y0274805D03*
X0224456Y0275435D03*
X0223354Y0274963D03*
X0221936Y0273703D03*
X0228865Y0277482D03*
X0227106Y0283703D03*
X0226948Y0285435D03*
X0225846Y0284963D03*
X0224428Y0286065D03*
X0223798Y0287325D03*
X0222606Y0293860D03*
X0222606Y0294018D03*
X0222606Y0294175D03*
X0222606Y0294333D03*
X0222606Y0294490D03*
X0222606Y0294648D03*
X0222606Y0294805D03*
X0222606Y0294963D03*
X0225440Y0294805D03*
X0227173Y0293388D03*
X0226865Y0304490D03*
X0226865Y0304648D03*
X0222141Y0304805D03*
X0221984Y0304490D03*
X0221984Y0304333D03*
X0221984Y0304175D03*
X0221039Y0306380D03*
X0231905Y0306695D03*
X0232062Y0304648D03*
X0055062Y0304648D03*
X0054905Y0306695D03*
X0049865Y0304648D03*
X0049865Y0304490D03*
X0045141Y0304805D03*
X0044984Y0304490D03*
X0044984Y0304333D03*
X0044984Y0304175D03*
X0044039Y0306380D03*
X0045606Y0294963D03*
X0045606Y0294805D03*
X0045606Y0294648D03*
X0045606Y0294490D03*
X0045606Y0294333D03*
X0045606Y0294175D03*
X0045606Y0294018D03*
X0045606Y0293860D03*
X0048440Y0294805D03*
X0050173Y0293388D03*
X0046798Y0287325D03*
X0047428Y0286065D03*
X0048846Y0284963D03*
X0049948Y0285435D03*
X0050106Y0283703D03*
X0051865Y0277482D03*
X0050133Y0274805D03*
X0047456Y0275435D03*
X0046354Y0274963D03*
X0044936Y0273703D03*
X0044401Y0267482D03*
X0044401Y0263860D03*
X0046448Y0263703D03*
X0049755Y0267325D03*
X0051802Y0264963D03*
X0048606Y0256222D03*
X0050338Y0255593D03*
X0050338Y0255435D03*
X0050338Y0254648D03*
X0050338Y0254490D03*
X0048606Y0253860D03*
X0046716Y0254333D03*
X0046716Y0255750D03*
X0048763Y0246380D03*
X0047031Y0245750D03*
X0047031Y0244333D03*
X0050338Y0243388D03*
X0048940Y0236222D03*
X0050673Y0235593D03*
X0050673Y0234490D03*
X0048940Y0233860D03*
X0047050Y0235750D03*
X0048310Y0225593D03*
X0046736Y0224648D03*
X0046736Y0224490D03*
X0044373Y0224333D03*
X0044373Y0225750D03*
X0050515Y0225593D03*
X0050515Y0225435D03*
X0050515Y0224648D03*
X0050515Y0224490D03*
X0051098Y0217640D03*
X0048578Y0217010D03*
X0048893Y0214333D03*
X0048893Y0214175D03*
X0051098Y0213703D03*
X0052673Y0214805D03*
X0044798Y0214963D03*
X0044798Y0216380D03*
X0045523Y0206380D03*
X0045523Y0206222D03*
X0047255Y0205278D03*
X0047255Y0205120D03*
X0047413Y0205435D03*
X0047413Y0205593D03*
X0047570Y0205750D03*
X0047570Y0205907D03*
D26*
X0049381Y0204805D03*
X0048972Y0214490D03*
X0048499Y0216852D03*
X0044877Y0216537D03*
X0044877Y0214805D03*
X0052594Y0216695D03*
X0053224Y0216065D03*
X0049176Y0223545D03*
X0050594Y0224333D03*
X0050594Y0225750D03*
X0048389Y0225435D03*
X0048389Y0225278D03*
X0048389Y0225120D03*
X0046657Y0224963D03*
X0046657Y0224805D03*
X0045869Y0226537D03*
X0050751Y0234333D03*
X0050751Y0235750D03*
X0052149Y0243388D03*
X0050417Y0243545D03*
X0050417Y0243703D03*
X0050417Y0245278D03*
X0050417Y0245435D03*
X0050417Y0245593D03*
X0050417Y0245750D03*
X0052149Y0246695D03*
X0048527Y0243545D03*
X0052149Y0253388D03*
X0050417Y0254333D03*
X0050417Y0255750D03*
X0052149Y0256695D03*
X0049834Y0264175D03*
X0051724Y0264805D03*
X0050464Y0266065D03*
X0050149Y0266695D03*
X0049991Y0267010D03*
X0049834Y0267167D03*
X0047787Y0266695D03*
X0046369Y0267640D03*
X0048165Y0274175D03*
X0046275Y0274805D03*
X0048165Y0277167D03*
X0044858Y0277640D03*
X0051944Y0277325D03*
X0054779Y0276695D03*
X0051944Y0274018D03*
X0048767Y0284805D03*
X0046877Y0284175D03*
X0047192Y0286695D03*
X0047035Y0287010D03*
X0046877Y0287167D03*
X0050184Y0287640D03*
X0054279Y0286695D03*
X0050094Y0293545D03*
X0048519Y0293388D03*
X0048834Y0296537D03*
X0048369Y0303545D03*
X0049787Y0304333D03*
X0051361Y0303703D03*
X0053094Y0304333D03*
X0053094Y0304490D03*
X0053094Y0304648D03*
X0053094Y0305593D03*
X0053094Y0305750D03*
X0051834Y0306695D03*
X0054984Y0304805D03*
X0045377Y0305120D03*
X0045220Y0304963D03*
X0045062Y0304648D03*
X0222062Y0304648D03*
X0222220Y0304963D03*
X0222377Y0305120D03*
X0225369Y0303545D03*
X0226787Y0304333D03*
X0228361Y0303703D03*
X0230094Y0304333D03*
X0230094Y0304490D03*
X0230094Y0304648D03*
X0230094Y0305593D03*
X0230094Y0305750D03*
X0228834Y0306695D03*
X0231984Y0304805D03*
X0225834Y0296537D03*
X0225519Y0293388D03*
X0227094Y0293545D03*
X0227184Y0287640D03*
X0224192Y0286695D03*
X0224035Y0287010D03*
X0223877Y0287167D03*
X0223877Y0284175D03*
X0225767Y0284805D03*
X0231279Y0286695D03*
X0228944Y0277325D03*
X0231779Y0276695D03*
X0228944Y0274018D03*
X0225165Y0274175D03*
X0223275Y0274805D03*
X0225165Y0277167D03*
X0221858Y0277640D03*
X0223369Y0267640D03*
X0224787Y0266695D03*
X0226834Y0267167D03*
X0226991Y0267010D03*
X0227149Y0266695D03*
X0227464Y0266065D03*
X0228724Y0264805D03*
X0226834Y0264175D03*
X0229149Y0256695D03*
X0227417Y0255750D03*
X0227417Y0254333D03*
X0229149Y0253388D03*
X0229149Y0246695D03*
X0227417Y0245750D03*
X0227417Y0245593D03*
X0227417Y0245435D03*
X0227417Y0245278D03*
X0227417Y0243703D03*
X0227417Y0243545D03*
X0229149Y0243388D03*
X0225527Y0243545D03*
X0227751Y0235750D03*
X0227751Y0234333D03*
X0227594Y0225750D03*
X0227594Y0224333D03*
X0226176Y0223545D03*
X0225389Y0225120D03*
X0225389Y0225278D03*
X0225389Y0225435D03*
X0223657Y0224963D03*
X0223657Y0224805D03*
X0222869Y0226537D03*
X0225499Y0216852D03*
X0225972Y0214490D03*
X0221877Y0214805D03*
X0221877Y0216537D03*
X0229594Y0216695D03*
X0230224Y0216065D03*
X0226381Y0204805D03*
X0228834Y0154695D03*
X0230094Y0153750D03*
X0230094Y0153593D03*
X0230094Y0152648D03*
X0230094Y0152490D03*
X0230094Y0152333D03*
X0228361Y0151703D03*
X0226787Y0152333D03*
X0225369Y0151545D03*
X0222377Y0153120D03*
X0222220Y0152963D03*
X0222062Y0152648D03*
X0225834Y0144537D03*
X0225519Y0141388D03*
X0227094Y0141545D03*
X0227184Y0135640D03*
X0224192Y0134695D03*
X0224035Y0135010D03*
X0223877Y0135167D03*
X0223877Y0132175D03*
X0225767Y0132805D03*
X0231279Y0134695D03*
X0228944Y0125325D03*
X0231779Y0124695D03*
X0228944Y0122018D03*
X0225165Y0122175D03*
X0223275Y0122805D03*
X0225165Y0125167D03*
X0221858Y0125640D03*
X0223369Y0115640D03*
X0224787Y0114695D03*
X0226834Y0115167D03*
X0226991Y0115010D03*
X0227149Y0114695D03*
X0227464Y0114065D03*
X0228724Y0112805D03*
X0226834Y0112175D03*
X0229149Y0104695D03*
X0227417Y0103750D03*
X0227417Y0102333D03*
X0229149Y0101388D03*
X0229149Y0094695D03*
X0227417Y0093750D03*
X0227417Y0093593D03*
X0227417Y0093435D03*
X0227417Y0093278D03*
X0227417Y0091703D03*
X0227417Y0091545D03*
X0229149Y0091388D03*
X0225527Y0091545D03*
X0227751Y0083750D03*
X0227751Y0082333D03*
X0227594Y0073750D03*
X0227594Y0072333D03*
X0226176Y0071545D03*
X0225389Y0073120D03*
X0225389Y0073278D03*
X0225389Y0073435D03*
X0223657Y0072963D03*
X0223657Y0072805D03*
X0222869Y0074537D03*
X0225499Y0064852D03*
X0225972Y0062490D03*
X0221877Y0062805D03*
X0221877Y0064537D03*
X0229594Y0064695D03*
X0230224Y0064065D03*
X0226381Y0052805D03*
X0231984Y0152805D03*
X0054984Y0152805D03*
X0053094Y0152648D03*
X0053094Y0152490D03*
X0053094Y0152333D03*
X0053094Y0153593D03*
X0053094Y0153750D03*
X0051834Y0154695D03*
X0051361Y0151703D03*
X0049787Y0152333D03*
X0048369Y0151545D03*
X0045377Y0153120D03*
X0045220Y0152963D03*
X0045062Y0152648D03*
X0048834Y0144537D03*
X0048519Y0141388D03*
X0050094Y0141545D03*
X0050184Y0135640D03*
X0047192Y0134695D03*
X0047035Y0135010D03*
X0046877Y0135167D03*
X0046877Y0132175D03*
X0048767Y0132805D03*
X0054279Y0134695D03*
X0051944Y0125325D03*
X0054779Y0124695D03*
X0051944Y0122018D03*
X0048165Y0122175D03*
X0046275Y0122805D03*
X0048165Y0125167D03*
X0044858Y0125640D03*
X0046369Y0115640D03*
X0047787Y0114695D03*
X0049834Y0115167D03*
X0049991Y0115010D03*
X0050149Y0114695D03*
X0050464Y0114065D03*
X0051724Y0112805D03*
X0049834Y0112175D03*
X0052149Y0104695D03*
X0050417Y0103750D03*
X0050417Y0102333D03*
X0052149Y0101388D03*
X0052149Y0094695D03*
X0050417Y0093750D03*
X0050417Y0093593D03*
X0050417Y0093435D03*
X0050417Y0093278D03*
X0050417Y0091703D03*
X0050417Y0091545D03*
X0052149Y0091388D03*
X0048527Y0091545D03*
X0050751Y0083750D03*
X0050751Y0082333D03*
X0050594Y0073750D03*
X0050594Y0072333D03*
X0049176Y0071545D03*
X0048389Y0073120D03*
X0048389Y0073278D03*
X0048389Y0073435D03*
X0046657Y0072963D03*
X0046657Y0072805D03*
X0045869Y0074537D03*
X0048499Y0064852D03*
X0048972Y0062490D03*
X0044877Y0062805D03*
X0044877Y0064537D03*
X0052594Y0064695D03*
X0053224Y0064065D03*
X0049381Y0052805D03*
D27*
X0045523Y0053907D03*
X0045523Y0054065D03*
X0049050Y0062648D03*
X0048421Y0064537D03*
X0048421Y0064695D03*
X0044956Y0064695D03*
X0050940Y0061860D03*
X0053302Y0063435D03*
X0053302Y0063593D03*
X0053302Y0063750D03*
X0053302Y0063907D03*
X0049098Y0071703D03*
X0048940Y0071860D03*
X0048468Y0072805D03*
X0048468Y0072963D03*
X0046578Y0073120D03*
X0046578Y0073278D03*
X0045948Y0074380D03*
X0045633Y0081545D03*
X0044373Y0082333D03*
X0045633Y0084537D03*
X0048940Y0084065D03*
X0048940Y0082018D03*
X0048606Y0091703D03*
X0050495Y0091860D03*
X0050495Y0092018D03*
X0050495Y0092175D03*
X0053330Y0092333D03*
X0044511Y0092333D03*
X0045298Y0101545D03*
X0044039Y0102333D03*
X0045298Y0104537D03*
X0048606Y0104065D03*
X0048606Y0102018D03*
X0053330Y0102333D03*
X0051645Y0112648D03*
X0051645Y0114695D03*
X0050070Y0114852D03*
X0046291Y0111860D03*
X0044401Y0112018D03*
X0044401Y0112175D03*
X0044401Y0115325D03*
X0044779Y0121860D03*
X0044779Y0123907D03*
X0044779Y0124695D03*
X0044779Y0124852D03*
X0044779Y0125482D03*
X0046196Y0124695D03*
X0047613Y0123593D03*
X0048086Y0125010D03*
X0050133Y0124695D03*
X0052023Y0125167D03*
X0054858Y0124537D03*
X0055487Y0122805D03*
X0054070Y0122805D03*
X0052023Y0122175D03*
X0050133Y0122648D03*
X0050106Y0131860D03*
X0048688Y0132648D03*
X0050106Y0133593D03*
X0048688Y0134695D03*
X0047113Y0134852D03*
X0044909Y0134695D03*
X0053570Y0132805D03*
X0054987Y0132805D03*
X0054358Y0134537D03*
X0050173Y0141703D03*
X0050173Y0141860D03*
X0050173Y0143278D03*
X0050173Y0143435D03*
X0050173Y0143593D03*
X0050173Y0143750D03*
X0047495Y0142333D03*
X0047031Y0152333D03*
X0047818Y0152805D03*
X0047976Y0154695D03*
X0045771Y0154695D03*
X0044039Y0154222D03*
X0044039Y0154065D03*
X0051440Y0151860D03*
X0053173Y0153907D03*
X0051755Y0154537D03*
X0054905Y0154537D03*
X0054905Y0152963D03*
X0045523Y0205907D03*
X0045523Y0206065D03*
X0049050Y0214648D03*
X0048421Y0216537D03*
X0048421Y0216695D03*
X0044956Y0216695D03*
X0050940Y0213860D03*
X0053302Y0215435D03*
X0053302Y0215593D03*
X0053302Y0215750D03*
X0053302Y0215907D03*
X0049098Y0223703D03*
X0048940Y0223860D03*
X0048468Y0224805D03*
X0048468Y0224963D03*
X0046578Y0225120D03*
X0046578Y0225278D03*
X0045948Y0226380D03*
X0045633Y0233545D03*
X0044373Y0234333D03*
X0045633Y0236537D03*
X0048940Y0236065D03*
X0048940Y0234018D03*
X0048606Y0243703D03*
X0050495Y0243860D03*
X0050495Y0244018D03*
X0050495Y0244175D03*
X0053330Y0244333D03*
X0044511Y0244333D03*
X0045298Y0253545D03*
X0044039Y0254333D03*
X0045298Y0256537D03*
X0048606Y0256065D03*
X0048606Y0254018D03*
X0053330Y0254333D03*
X0051645Y0264648D03*
X0051645Y0266695D03*
X0050070Y0266852D03*
X0046291Y0263860D03*
X0044401Y0264018D03*
X0044401Y0264175D03*
X0044401Y0267325D03*
X0044779Y0273860D03*
X0044779Y0275907D03*
X0044779Y0276695D03*
X0044779Y0276852D03*
X0044779Y0277482D03*
X0046196Y0276695D03*
X0047613Y0275593D03*
X0048086Y0277010D03*
X0050133Y0276695D03*
X0052023Y0277167D03*
X0054858Y0276537D03*
X0055487Y0274805D03*
X0054070Y0274805D03*
X0052023Y0274175D03*
X0050133Y0274648D03*
X0050106Y0283860D03*
X0048688Y0284648D03*
X0050106Y0285593D03*
X0048688Y0286695D03*
X0047113Y0286852D03*
X0044909Y0286695D03*
X0053570Y0284805D03*
X0054987Y0284805D03*
X0054358Y0286537D03*
X0050173Y0293703D03*
X0050173Y0293860D03*
X0050173Y0295278D03*
X0050173Y0295435D03*
X0050173Y0295593D03*
X0050173Y0295750D03*
X0047495Y0294333D03*
X0047031Y0304333D03*
X0047818Y0304805D03*
X0047976Y0306695D03*
X0045771Y0306695D03*
X0044039Y0306222D03*
X0044039Y0306065D03*
X0051440Y0303860D03*
X0053173Y0305907D03*
X0051755Y0306537D03*
X0054905Y0306537D03*
X0054905Y0304963D03*
X0221039Y0306065D03*
X0221039Y0306222D03*
X0222771Y0306695D03*
X0224976Y0306695D03*
X0224818Y0304805D03*
X0224031Y0304333D03*
X0228440Y0303860D03*
X0230173Y0305907D03*
X0228755Y0306537D03*
X0231905Y0306537D03*
X0231905Y0304963D03*
X0227173Y0295750D03*
X0227173Y0295593D03*
X0227173Y0295435D03*
X0227173Y0295278D03*
X0227173Y0293860D03*
X0227173Y0293703D03*
X0224495Y0294333D03*
X0224113Y0286852D03*
X0225688Y0286695D03*
X0227106Y0285593D03*
X0225688Y0284648D03*
X0227106Y0283860D03*
X0230570Y0284805D03*
X0231987Y0284805D03*
X0231358Y0286537D03*
X0221909Y0286695D03*
X0221779Y0277482D03*
X0221779Y0276852D03*
X0221779Y0276695D03*
X0221779Y0275907D03*
X0223196Y0276695D03*
X0224613Y0275593D03*
X0225086Y0277010D03*
X0227133Y0276695D03*
X0229023Y0277167D03*
X0231858Y0276537D03*
X0232487Y0274805D03*
X0231070Y0274805D03*
X0229023Y0274175D03*
X0227133Y0274648D03*
X0221779Y0273860D03*
X0221401Y0267325D03*
X0221401Y0264175D03*
X0221401Y0264018D03*
X0223291Y0263860D03*
X0227070Y0266852D03*
X0228645Y0266695D03*
X0228645Y0264648D03*
X0225606Y0256065D03*
X0225606Y0254018D03*
X0222298Y0253545D03*
X0221039Y0254333D03*
X0222298Y0256537D03*
X0230330Y0254333D03*
X0230330Y0244333D03*
X0227495Y0244175D03*
X0227495Y0244018D03*
X0227495Y0243860D03*
X0225606Y0243703D03*
X0221511Y0244333D03*
X0222633Y0236537D03*
X0221373Y0234333D03*
X0222633Y0233545D03*
X0225940Y0234018D03*
X0225940Y0236065D03*
X0222948Y0226380D03*
X0223578Y0225278D03*
X0223578Y0225120D03*
X0225468Y0224963D03*
X0225468Y0224805D03*
X0225940Y0223860D03*
X0226098Y0223703D03*
X0225421Y0216695D03*
X0225421Y0216537D03*
X0226050Y0214648D03*
X0227940Y0213860D03*
X0230302Y0215435D03*
X0230302Y0215593D03*
X0230302Y0215750D03*
X0230302Y0215907D03*
X0221956Y0216695D03*
X0222523Y0206065D03*
X0222523Y0205907D03*
X0222771Y0154695D03*
X0221039Y0154222D03*
X0221039Y0154065D03*
X0224031Y0152333D03*
X0224818Y0152805D03*
X0224976Y0154695D03*
X0228755Y0154537D03*
X0230173Y0153907D03*
X0231905Y0154537D03*
X0231905Y0152963D03*
X0228440Y0151860D03*
X0227173Y0143750D03*
X0227173Y0143593D03*
X0227173Y0143435D03*
X0227173Y0143278D03*
X0227173Y0141860D03*
X0227173Y0141703D03*
X0224495Y0142333D03*
X0224113Y0134852D03*
X0225688Y0134695D03*
X0227106Y0133593D03*
X0225688Y0132648D03*
X0227106Y0131860D03*
X0230570Y0132805D03*
X0231987Y0132805D03*
X0231358Y0134537D03*
X0221909Y0134695D03*
X0221779Y0125482D03*
X0221779Y0124852D03*
X0221779Y0124695D03*
X0221779Y0123907D03*
X0223196Y0124695D03*
X0224613Y0123593D03*
X0225086Y0125010D03*
X0227133Y0124695D03*
X0229023Y0125167D03*
X0231858Y0124537D03*
X0232487Y0122805D03*
X0231070Y0122805D03*
X0229023Y0122175D03*
X0227133Y0122648D03*
X0221779Y0121860D03*
X0221401Y0115325D03*
X0221401Y0112175D03*
X0221401Y0112018D03*
X0223291Y0111860D03*
X0227070Y0114852D03*
X0228645Y0114695D03*
X0228645Y0112648D03*
X0225606Y0104065D03*
X0225606Y0102018D03*
X0222298Y0101545D03*
X0221039Y0102333D03*
X0222298Y0104537D03*
X0230330Y0102333D03*
X0230330Y0092333D03*
X0227495Y0092175D03*
X0227495Y0092018D03*
X0227495Y0091860D03*
X0225606Y0091703D03*
X0221511Y0092333D03*
X0222633Y0084537D03*
X0221373Y0082333D03*
X0222633Y0081545D03*
X0225940Y0082018D03*
X0225940Y0084065D03*
X0222948Y0074380D03*
X0223578Y0073278D03*
X0223578Y0073120D03*
X0225468Y0072963D03*
X0225468Y0072805D03*
X0225940Y0071860D03*
X0226098Y0071703D03*
X0225421Y0064695D03*
X0225421Y0064537D03*
X0226050Y0062648D03*
X0227940Y0061860D03*
X0230302Y0063435D03*
X0230302Y0063593D03*
X0230302Y0063750D03*
X0230302Y0063907D03*
X0221956Y0064695D03*
X0222523Y0054065D03*
X0222523Y0053907D03*
D28*
X0222444Y0054537D03*
X0224176Y0052963D03*
X0224176Y0052805D03*
X0224806Y0054065D03*
X0225814Y0062018D03*
X0225657Y0065167D03*
X0225657Y0065325D03*
X0221720Y0064222D03*
X0221720Y0063278D03*
X0221720Y0063120D03*
X0229751Y0062963D03*
X0227436Y0072805D03*
X0227436Y0072963D03*
X0227436Y0073120D03*
X0227436Y0073278D03*
X0225389Y0073750D03*
X0222712Y0074695D03*
X0222712Y0081388D03*
X0223972Y0082333D03*
X0222712Y0084695D03*
X0227594Y0083435D03*
X0227594Y0083278D03*
X0227594Y0083120D03*
X0227594Y0082963D03*
X0227594Y0082805D03*
X0227594Y0082648D03*
X0222692Y0091388D03*
X0222692Y0094695D03*
X0229464Y0093435D03*
X0227259Y0102805D03*
X0227259Y0102963D03*
X0227259Y0103120D03*
X0227259Y0103278D03*
X0229464Y0103435D03*
X0222377Y0104695D03*
X0222377Y0101388D03*
X0221322Y0111703D03*
X0224787Y0112805D03*
X0221322Y0115640D03*
X0225165Y0122018D03*
X0227212Y0124537D03*
X0225165Y0125325D03*
X0222015Y0124065D03*
X0228944Y0121860D03*
X0231779Y0124852D03*
X0231279Y0134852D03*
X0223877Y0132018D03*
X0221830Y0132805D03*
X0221830Y0134537D03*
X0222684Y0141703D03*
X0222684Y0143120D03*
X0222684Y0144065D03*
X0229298Y0146270D03*
X0229456Y0146112D03*
X0228361Y0151545D03*
X0226787Y0152805D03*
X0226787Y0152963D03*
X0226787Y0153120D03*
X0226787Y0153278D03*
X0226787Y0153435D03*
X0226787Y0153593D03*
X0226787Y0153750D03*
X0226787Y0153907D03*
X0226787Y0154065D03*
X0226787Y0154222D03*
X0226787Y0154380D03*
X0226787Y0154537D03*
X0222535Y0153278D03*
X0222062Y0152018D03*
X0222062Y0151860D03*
X0220960Y0154537D03*
X0232141Y0152490D03*
X0224176Y0204805D03*
X0224176Y0204963D03*
X0224806Y0206065D03*
X0222444Y0206537D03*
X0225814Y0214018D03*
X0225657Y0217167D03*
X0225657Y0217325D03*
X0221720Y0216222D03*
X0221720Y0215278D03*
X0221720Y0215120D03*
X0229751Y0214963D03*
X0227436Y0224805D03*
X0227436Y0224963D03*
X0227436Y0225120D03*
X0227436Y0225278D03*
X0225389Y0225750D03*
X0222712Y0226695D03*
X0222712Y0233388D03*
X0223972Y0234333D03*
X0222712Y0236695D03*
X0227594Y0235435D03*
X0227594Y0235278D03*
X0227594Y0235120D03*
X0227594Y0234963D03*
X0227594Y0234805D03*
X0227594Y0234648D03*
X0222692Y0243388D03*
X0222692Y0246695D03*
X0229464Y0245435D03*
X0227259Y0254805D03*
X0227259Y0254963D03*
X0227259Y0255120D03*
X0227259Y0255278D03*
X0229464Y0255435D03*
X0222377Y0256695D03*
X0222377Y0253388D03*
X0221322Y0263703D03*
X0224787Y0264805D03*
X0221322Y0267640D03*
X0225165Y0274018D03*
X0227212Y0276537D03*
X0225165Y0277325D03*
X0222015Y0276065D03*
X0228944Y0273860D03*
X0231779Y0276852D03*
X0231279Y0286852D03*
X0223877Y0284018D03*
X0221830Y0284805D03*
X0221830Y0286537D03*
X0222684Y0293703D03*
X0222684Y0295120D03*
X0222684Y0296065D03*
X0229298Y0298270D03*
X0229456Y0298112D03*
X0228361Y0303545D03*
X0226787Y0304805D03*
X0226787Y0304963D03*
X0226787Y0305120D03*
X0226787Y0305278D03*
X0226787Y0305435D03*
X0226787Y0305593D03*
X0226787Y0305750D03*
X0226787Y0305907D03*
X0226787Y0306065D03*
X0226787Y0306222D03*
X0226787Y0306380D03*
X0226787Y0306537D03*
X0222535Y0305278D03*
X0222062Y0304018D03*
X0222062Y0303860D03*
X0220960Y0306537D03*
X0232141Y0304490D03*
X0055141Y0304490D03*
X0051361Y0303545D03*
X0049787Y0304805D03*
X0049787Y0304963D03*
X0049787Y0305120D03*
X0049787Y0305278D03*
X0049787Y0305435D03*
X0049787Y0305593D03*
X0049787Y0305750D03*
X0049787Y0305907D03*
X0049787Y0306065D03*
X0049787Y0306222D03*
X0049787Y0306380D03*
X0049787Y0306537D03*
X0045535Y0305278D03*
X0045062Y0304018D03*
X0045062Y0303860D03*
X0043960Y0306537D03*
X0045684Y0296065D03*
X0045684Y0295120D03*
X0045684Y0293703D03*
X0052298Y0298270D03*
X0052456Y0298112D03*
X0054279Y0286852D03*
X0046877Y0284018D03*
X0044830Y0284805D03*
X0044830Y0286537D03*
X0048165Y0277325D03*
X0050212Y0276537D03*
X0051944Y0273860D03*
X0048165Y0274018D03*
X0045015Y0276065D03*
X0044322Y0267640D03*
X0044322Y0263703D03*
X0047787Y0264805D03*
X0045377Y0256695D03*
X0045377Y0253388D03*
X0050259Y0254805D03*
X0050259Y0254963D03*
X0050259Y0255120D03*
X0050259Y0255278D03*
X0052464Y0255435D03*
X0052464Y0245435D03*
X0045692Y0246695D03*
X0045692Y0243388D03*
X0045712Y0236695D03*
X0046972Y0234333D03*
X0045712Y0233388D03*
X0050594Y0234648D03*
X0050594Y0234805D03*
X0050594Y0234963D03*
X0050594Y0235120D03*
X0050594Y0235278D03*
X0050594Y0235435D03*
X0048389Y0225750D03*
X0050436Y0225278D03*
X0050436Y0225120D03*
X0050436Y0224963D03*
X0050436Y0224805D03*
X0045712Y0226695D03*
X0048657Y0217325D03*
X0048657Y0217167D03*
X0048814Y0214018D03*
X0052751Y0214963D03*
X0044720Y0215120D03*
X0044720Y0215278D03*
X0044720Y0216222D03*
X0045444Y0206537D03*
X0047176Y0204963D03*
X0047176Y0204805D03*
X0047806Y0206065D03*
X0049787Y0154537D03*
X0049787Y0154380D03*
X0049787Y0154222D03*
X0049787Y0154065D03*
X0049787Y0153907D03*
X0049787Y0153750D03*
X0049787Y0153593D03*
X0049787Y0153435D03*
X0049787Y0153278D03*
X0049787Y0153120D03*
X0049787Y0152963D03*
X0049787Y0152805D03*
X0051361Y0151545D03*
X0055141Y0152490D03*
X0052298Y0146270D03*
X0052456Y0146112D03*
X0045684Y0144065D03*
X0045684Y0143120D03*
X0045684Y0141703D03*
X0044830Y0134537D03*
X0044830Y0132805D03*
X0046877Y0132018D03*
X0048165Y0125325D03*
X0050212Y0124537D03*
X0051944Y0121860D03*
X0048165Y0122018D03*
X0045015Y0124065D03*
X0054779Y0124852D03*
X0054279Y0134852D03*
X0045062Y0151860D03*
X0045062Y0152018D03*
X0045535Y0153278D03*
X0043960Y0154537D03*
X0044322Y0115640D03*
X0044322Y0111703D03*
X0047787Y0112805D03*
X0045377Y0104695D03*
X0045377Y0101388D03*
X0050259Y0102805D03*
X0050259Y0102963D03*
X0050259Y0103120D03*
X0050259Y0103278D03*
X0052464Y0103435D03*
X0052464Y0093435D03*
X0045692Y0094695D03*
X0045692Y0091388D03*
X0045712Y0084695D03*
X0046972Y0082333D03*
X0045712Y0081388D03*
X0050594Y0082648D03*
X0050594Y0082805D03*
X0050594Y0082963D03*
X0050594Y0083120D03*
X0050594Y0083278D03*
X0050594Y0083435D03*
X0048389Y0073750D03*
X0050436Y0073278D03*
X0050436Y0073120D03*
X0050436Y0072963D03*
X0050436Y0072805D03*
X0045712Y0074695D03*
X0048657Y0065325D03*
X0048657Y0065167D03*
X0048814Y0062018D03*
X0052751Y0062963D03*
X0044720Y0063120D03*
X0044720Y0063278D03*
X0044720Y0064222D03*
X0045444Y0054537D03*
X0047176Y0052963D03*
X0047176Y0052805D03*
X0047806Y0054065D03*
X0054779Y0276852D03*
D29*
X0054779Y0276222D03*
X0053834Y0275435D03*
X0053834Y0275278D03*
X0052259Y0274963D03*
X0052259Y0274805D03*
X0052259Y0276380D03*
X0052259Y0276537D03*
X0052259Y0276695D03*
X0055724Y0275278D03*
X0048007Y0276537D03*
X0048007Y0276695D03*
X0047850Y0276222D03*
X0047850Y0276065D03*
X0046275Y0276852D03*
X0044543Y0275278D03*
X0044543Y0275120D03*
X0044543Y0274963D03*
X0044543Y0274805D03*
X0044543Y0274648D03*
X0044543Y0274490D03*
X0046212Y0267325D03*
X0046212Y0266852D03*
X0044637Y0266852D03*
X0044637Y0266695D03*
X0044637Y0264648D03*
X0046212Y0264648D03*
X0046212Y0264490D03*
X0046212Y0264018D03*
X0049991Y0264963D03*
X0049991Y0265120D03*
X0049991Y0265278D03*
X0050149Y0265593D03*
X0050149Y0265750D03*
X0051991Y0256380D03*
X0051991Y0256222D03*
X0051991Y0254963D03*
X0051991Y0253860D03*
X0051991Y0253703D03*
X0045377Y0253703D03*
X0045377Y0255907D03*
X0045377Y0256065D03*
X0045692Y0246380D03*
X0045692Y0246222D03*
X0045850Y0245907D03*
X0045850Y0244175D03*
X0045692Y0243703D03*
X0048999Y0244805D03*
X0048999Y0244963D03*
X0048842Y0245750D03*
X0048842Y0245907D03*
X0051991Y0246222D03*
X0051991Y0246380D03*
X0051991Y0244963D03*
X0051991Y0243860D03*
X0051991Y0243703D03*
X0045554Y0236380D03*
X0045712Y0235907D03*
X0045712Y0234175D03*
X0045554Y0233703D03*
X0048861Y0234490D03*
X0048861Y0235593D03*
X0046767Y0217482D03*
X0046767Y0217325D03*
X0046767Y0217167D03*
X0046767Y0217010D03*
X0046767Y0216852D03*
X0046767Y0216695D03*
X0046767Y0216537D03*
X0046767Y0216380D03*
X0046767Y0216222D03*
X0046767Y0216065D03*
X0046767Y0215907D03*
X0046767Y0215750D03*
X0046767Y0215593D03*
X0046767Y0215435D03*
X0046767Y0215278D03*
X0046767Y0215120D03*
X0046767Y0214963D03*
X0046767Y0214805D03*
X0046767Y0214648D03*
X0046767Y0214490D03*
X0046767Y0214333D03*
X0046767Y0214175D03*
X0046767Y0214018D03*
X0048184Y0215907D03*
X0048184Y0216065D03*
X0049287Y0215278D03*
X0050861Y0215278D03*
X0050861Y0215435D03*
X0050861Y0215593D03*
X0050861Y0215750D03*
X0050861Y0215907D03*
X0050861Y0215120D03*
X0050861Y0214963D03*
X0050861Y0214805D03*
X0050861Y0214648D03*
X0050861Y0214490D03*
X0050861Y0214333D03*
X0050861Y0214175D03*
X0047806Y0207482D03*
X0047806Y0207325D03*
X0047806Y0207167D03*
X0047806Y0207010D03*
X0048054Y0154537D03*
X0048054Y0153120D03*
X0048212Y0152333D03*
X0048369Y0152018D03*
X0048369Y0151860D03*
X0051519Y0152333D03*
X0051519Y0152490D03*
X0051519Y0152648D03*
X0051519Y0152805D03*
X0051519Y0152963D03*
X0051519Y0153593D03*
X0051519Y0153750D03*
X0051519Y0153907D03*
X0053409Y0153278D03*
X0053409Y0153120D03*
X0053409Y0152963D03*
X0045692Y0154065D03*
X0045692Y0154222D03*
X0043960Y0153750D03*
X0048676Y0143278D03*
X0048519Y0141545D03*
X0050342Y0135010D03*
X0050342Y0134852D03*
X0050342Y0134695D03*
X0050342Y0134537D03*
X0050342Y0134380D03*
X0050342Y0134222D03*
X0050342Y0134065D03*
X0050342Y0132805D03*
X0050342Y0132648D03*
X0050342Y0132333D03*
X0050342Y0132175D03*
X0051759Y0132175D03*
X0051759Y0132018D03*
X0051759Y0132333D03*
X0051759Y0132490D03*
X0051759Y0132648D03*
X0051759Y0132805D03*
X0051759Y0132963D03*
X0051759Y0133120D03*
X0051759Y0133278D03*
X0051759Y0133435D03*
X0051759Y0133593D03*
X0051759Y0133750D03*
X0051759Y0133907D03*
X0051759Y0134065D03*
X0051759Y0134222D03*
X0051759Y0134380D03*
X0051759Y0134537D03*
X0051759Y0134695D03*
X0051759Y0134852D03*
X0051759Y0135010D03*
X0051759Y0135167D03*
X0051759Y0135325D03*
X0051759Y0135482D03*
X0053334Y0133435D03*
X0053334Y0133278D03*
X0054279Y0134222D03*
X0055224Y0133278D03*
X0047192Y0133593D03*
X0047192Y0133750D03*
X0047035Y0133278D03*
X0047035Y0133120D03*
X0047035Y0132963D03*
X0047035Y0132805D03*
X0046275Y0124852D03*
X0047850Y0124222D03*
X0047850Y0124065D03*
X0048007Y0124537D03*
X0048007Y0124695D03*
X0044543Y0123278D03*
X0044543Y0123120D03*
X0044543Y0122963D03*
X0044543Y0122805D03*
X0044543Y0122648D03*
X0044543Y0122490D03*
X0052259Y0122805D03*
X0052259Y0122963D03*
X0052259Y0124380D03*
X0052259Y0124537D03*
X0052259Y0124695D03*
X0053834Y0123435D03*
X0053834Y0123278D03*
X0054779Y0124222D03*
X0055724Y0123278D03*
X0050149Y0113750D03*
X0050149Y0113593D03*
X0049991Y0113278D03*
X0049991Y0113120D03*
X0049991Y0112963D03*
X0046212Y0112648D03*
X0046212Y0112490D03*
X0046212Y0112018D03*
X0044637Y0112648D03*
X0044637Y0114695D03*
X0044637Y0114852D03*
X0046212Y0114852D03*
X0046212Y0115325D03*
X0045377Y0104065D03*
X0045377Y0103907D03*
X0045377Y0101703D03*
X0051991Y0101703D03*
X0051991Y0101860D03*
X0051991Y0102963D03*
X0051991Y0104222D03*
X0051991Y0104380D03*
X0051991Y0094380D03*
X0051991Y0094222D03*
X0051991Y0092963D03*
X0051991Y0091860D03*
X0051991Y0091703D03*
X0048999Y0092805D03*
X0048999Y0092963D03*
X0048842Y0093750D03*
X0048842Y0093907D03*
X0045850Y0093907D03*
X0045692Y0094222D03*
X0045692Y0094380D03*
X0045850Y0092175D03*
X0045692Y0091703D03*
X0045554Y0084380D03*
X0045712Y0083907D03*
X0045712Y0082175D03*
X0045554Y0081703D03*
X0048861Y0082490D03*
X0048861Y0083593D03*
X0046767Y0065482D03*
X0046767Y0065325D03*
X0046767Y0065167D03*
X0046767Y0065010D03*
X0046767Y0064852D03*
X0046767Y0064695D03*
X0046767Y0064537D03*
X0046767Y0064380D03*
X0046767Y0064222D03*
X0046767Y0064065D03*
X0046767Y0063907D03*
X0046767Y0063750D03*
X0046767Y0063593D03*
X0046767Y0063435D03*
X0046767Y0063278D03*
X0046767Y0063120D03*
X0046767Y0062963D03*
X0046767Y0062805D03*
X0046767Y0062648D03*
X0046767Y0062490D03*
X0046767Y0062333D03*
X0046767Y0062175D03*
X0046767Y0062018D03*
X0048184Y0063907D03*
X0048184Y0064065D03*
X0049287Y0063278D03*
X0050861Y0063278D03*
X0050861Y0063435D03*
X0050861Y0063593D03*
X0050861Y0063750D03*
X0050861Y0063907D03*
X0050861Y0063120D03*
X0050861Y0062963D03*
X0050861Y0062805D03*
X0050861Y0062648D03*
X0050861Y0062490D03*
X0050861Y0062333D03*
X0050861Y0062175D03*
X0047806Y0055482D03*
X0047806Y0055325D03*
X0047806Y0055167D03*
X0047806Y0055010D03*
X0223767Y0062018D03*
X0223767Y0062175D03*
X0223767Y0062333D03*
X0223767Y0062490D03*
X0223767Y0062648D03*
X0223767Y0062805D03*
X0223767Y0062963D03*
X0223767Y0063120D03*
X0223767Y0063278D03*
X0223767Y0063435D03*
X0223767Y0063593D03*
X0223767Y0063750D03*
X0223767Y0063907D03*
X0223767Y0064065D03*
X0223767Y0064222D03*
X0223767Y0064380D03*
X0223767Y0064537D03*
X0223767Y0064695D03*
X0223767Y0064852D03*
X0223767Y0065010D03*
X0223767Y0065167D03*
X0223767Y0065325D03*
X0223767Y0065482D03*
X0225184Y0064065D03*
X0225184Y0063907D03*
X0226287Y0063278D03*
X0227861Y0063278D03*
X0227861Y0063435D03*
X0227861Y0063593D03*
X0227861Y0063750D03*
X0227861Y0063907D03*
X0227861Y0063120D03*
X0227861Y0062963D03*
X0227861Y0062805D03*
X0227861Y0062648D03*
X0227861Y0062490D03*
X0227861Y0062333D03*
X0227861Y0062175D03*
X0224806Y0055482D03*
X0224806Y0055325D03*
X0224806Y0055167D03*
X0224806Y0055010D03*
X0222554Y0081703D03*
X0222712Y0082175D03*
X0222712Y0083907D03*
X0222554Y0084380D03*
X0225861Y0083593D03*
X0225861Y0082490D03*
X0228991Y0091703D03*
X0228991Y0091860D03*
X0228991Y0092963D03*
X0228991Y0094222D03*
X0228991Y0094380D03*
X0225842Y0093907D03*
X0225842Y0093750D03*
X0225999Y0092963D03*
X0225999Y0092805D03*
X0222850Y0092175D03*
X0222692Y0091703D03*
X0222850Y0093907D03*
X0222692Y0094222D03*
X0222692Y0094380D03*
X0222377Y0101703D03*
X0222377Y0103907D03*
X0222377Y0104065D03*
X0228991Y0104222D03*
X0228991Y0104380D03*
X0228991Y0102963D03*
X0228991Y0101860D03*
X0228991Y0101703D03*
X0226991Y0112963D03*
X0226991Y0113120D03*
X0226991Y0113278D03*
X0227149Y0113593D03*
X0227149Y0113750D03*
X0223212Y0112648D03*
X0223212Y0112490D03*
X0223212Y0112018D03*
X0221637Y0112648D03*
X0221637Y0114695D03*
X0221637Y0114852D03*
X0223212Y0114852D03*
X0223212Y0115325D03*
X0221543Y0122490D03*
X0221543Y0122648D03*
X0221543Y0122805D03*
X0221543Y0122963D03*
X0221543Y0123120D03*
X0221543Y0123278D03*
X0223275Y0124852D03*
X0224850Y0124222D03*
X0224850Y0124065D03*
X0225007Y0124537D03*
X0225007Y0124695D03*
X0229259Y0124695D03*
X0229259Y0124537D03*
X0229259Y0124380D03*
X0229259Y0122963D03*
X0229259Y0122805D03*
X0230834Y0123278D03*
X0230834Y0123435D03*
X0231779Y0124222D03*
X0232724Y0123278D03*
X0228759Y0132018D03*
X0228759Y0132175D03*
X0228759Y0132333D03*
X0228759Y0132490D03*
X0228759Y0132648D03*
X0228759Y0132805D03*
X0228759Y0132963D03*
X0228759Y0133120D03*
X0228759Y0133278D03*
X0228759Y0133435D03*
X0228759Y0133593D03*
X0228759Y0133750D03*
X0228759Y0133907D03*
X0228759Y0134065D03*
X0228759Y0134222D03*
X0228759Y0134380D03*
X0228759Y0134537D03*
X0228759Y0134695D03*
X0228759Y0134852D03*
X0228759Y0135010D03*
X0228759Y0135167D03*
X0228759Y0135325D03*
X0228759Y0135482D03*
X0227342Y0135010D03*
X0227342Y0134852D03*
X0227342Y0134695D03*
X0227342Y0134537D03*
X0227342Y0134380D03*
X0227342Y0134222D03*
X0227342Y0134065D03*
X0227342Y0132805D03*
X0227342Y0132648D03*
X0227342Y0132333D03*
X0227342Y0132175D03*
X0230334Y0133278D03*
X0230334Y0133435D03*
X0231279Y0134222D03*
X0232224Y0133278D03*
X0224192Y0133593D03*
X0224192Y0133750D03*
X0224035Y0133278D03*
X0224035Y0133120D03*
X0224035Y0132963D03*
X0224035Y0132805D03*
X0225519Y0141545D03*
X0225676Y0143278D03*
X0225369Y0151860D03*
X0225369Y0152018D03*
X0225212Y0152333D03*
X0225054Y0153120D03*
X0225054Y0154537D03*
X0222692Y0154222D03*
X0222692Y0154065D03*
X0220960Y0153750D03*
X0228519Y0153750D03*
X0228519Y0153593D03*
X0228519Y0153907D03*
X0228519Y0152963D03*
X0228519Y0152805D03*
X0228519Y0152648D03*
X0228519Y0152490D03*
X0228519Y0152333D03*
X0230409Y0152963D03*
X0230409Y0153120D03*
X0230409Y0153278D03*
X0224806Y0207010D03*
X0224806Y0207167D03*
X0224806Y0207325D03*
X0224806Y0207482D03*
X0223767Y0214018D03*
X0223767Y0214175D03*
X0223767Y0214333D03*
X0223767Y0214490D03*
X0223767Y0214648D03*
X0223767Y0214805D03*
X0223767Y0214963D03*
X0223767Y0215120D03*
X0223767Y0215278D03*
X0223767Y0215435D03*
X0223767Y0215593D03*
X0223767Y0215750D03*
X0223767Y0215907D03*
X0223767Y0216065D03*
X0223767Y0216222D03*
X0223767Y0216380D03*
X0223767Y0216537D03*
X0223767Y0216695D03*
X0223767Y0216852D03*
X0223767Y0217010D03*
X0223767Y0217167D03*
X0223767Y0217325D03*
X0223767Y0217482D03*
X0225184Y0216065D03*
X0225184Y0215907D03*
X0226287Y0215278D03*
X0227861Y0215278D03*
X0227861Y0215435D03*
X0227861Y0215593D03*
X0227861Y0215750D03*
X0227861Y0215907D03*
X0227861Y0215120D03*
X0227861Y0214963D03*
X0227861Y0214805D03*
X0227861Y0214648D03*
X0227861Y0214490D03*
X0227861Y0214333D03*
X0227861Y0214175D03*
X0222554Y0233703D03*
X0222712Y0234175D03*
X0222712Y0235907D03*
X0222554Y0236380D03*
X0225861Y0235593D03*
X0225861Y0234490D03*
X0228991Y0243703D03*
X0228991Y0243860D03*
X0228991Y0244963D03*
X0228991Y0246222D03*
X0228991Y0246380D03*
X0225842Y0245907D03*
X0225842Y0245750D03*
X0225999Y0244963D03*
X0225999Y0244805D03*
X0222850Y0244175D03*
X0222692Y0243703D03*
X0222850Y0245907D03*
X0222692Y0246222D03*
X0222692Y0246380D03*
X0222377Y0253703D03*
X0222377Y0255907D03*
X0222377Y0256065D03*
X0228991Y0256222D03*
X0228991Y0256380D03*
X0228991Y0254963D03*
X0228991Y0253860D03*
X0228991Y0253703D03*
X0226991Y0264963D03*
X0226991Y0265120D03*
X0226991Y0265278D03*
X0227149Y0265593D03*
X0227149Y0265750D03*
X0223212Y0264648D03*
X0223212Y0264490D03*
X0223212Y0264018D03*
X0221637Y0264648D03*
X0221637Y0266695D03*
X0221637Y0266852D03*
X0223212Y0266852D03*
X0223212Y0267325D03*
X0221543Y0274490D03*
X0221543Y0274648D03*
X0221543Y0274805D03*
X0221543Y0274963D03*
X0221543Y0275120D03*
X0221543Y0275278D03*
X0223275Y0276852D03*
X0224850Y0276222D03*
X0224850Y0276065D03*
X0225007Y0276537D03*
X0225007Y0276695D03*
X0229259Y0276695D03*
X0229259Y0276537D03*
X0229259Y0276380D03*
X0229259Y0274963D03*
X0229259Y0274805D03*
X0230834Y0275278D03*
X0230834Y0275435D03*
X0231779Y0276222D03*
X0232724Y0275278D03*
X0228759Y0284018D03*
X0228759Y0284175D03*
X0228759Y0284333D03*
X0228759Y0284490D03*
X0228759Y0284648D03*
X0228759Y0284805D03*
X0228759Y0284963D03*
X0228759Y0285120D03*
X0228759Y0285278D03*
X0228759Y0285435D03*
X0228759Y0285593D03*
X0228759Y0285750D03*
X0228759Y0285907D03*
X0228759Y0286065D03*
X0228759Y0286222D03*
X0228759Y0286380D03*
X0228759Y0286537D03*
X0228759Y0286695D03*
X0228759Y0286852D03*
X0228759Y0287010D03*
X0228759Y0287167D03*
X0228759Y0287325D03*
X0228759Y0287482D03*
X0227342Y0287010D03*
X0227342Y0286852D03*
X0227342Y0286695D03*
X0227342Y0286537D03*
X0227342Y0286380D03*
X0227342Y0286222D03*
X0227342Y0286065D03*
X0227342Y0284805D03*
X0227342Y0284648D03*
X0227342Y0284333D03*
X0227342Y0284175D03*
X0230334Y0285278D03*
X0230334Y0285435D03*
X0231279Y0286222D03*
X0232224Y0285278D03*
X0224192Y0285593D03*
X0224192Y0285750D03*
X0224035Y0285278D03*
X0224035Y0285120D03*
X0224035Y0284963D03*
X0224035Y0284805D03*
X0225519Y0293545D03*
X0225676Y0295278D03*
X0225369Y0303860D03*
X0225369Y0304018D03*
X0225212Y0304333D03*
X0225054Y0305120D03*
X0225054Y0306537D03*
X0222692Y0306222D03*
X0222692Y0306065D03*
X0220960Y0305750D03*
X0228519Y0305750D03*
X0228519Y0305593D03*
X0228519Y0305907D03*
X0228519Y0304963D03*
X0228519Y0304805D03*
X0228519Y0304648D03*
X0228519Y0304490D03*
X0228519Y0304333D03*
X0230409Y0304963D03*
X0230409Y0305120D03*
X0230409Y0305278D03*
X0055224Y0285278D03*
X0054279Y0286222D03*
X0053334Y0285435D03*
X0053334Y0285278D03*
X0051759Y0285278D03*
X0051759Y0285435D03*
X0051759Y0285593D03*
X0051759Y0285750D03*
X0051759Y0285907D03*
X0051759Y0286065D03*
X0051759Y0286222D03*
X0051759Y0286380D03*
X0051759Y0286537D03*
X0051759Y0286695D03*
X0051759Y0286852D03*
X0051759Y0287010D03*
X0051759Y0287167D03*
X0051759Y0287325D03*
X0051759Y0287482D03*
X0050342Y0287010D03*
X0050342Y0286852D03*
X0050342Y0286695D03*
X0050342Y0286537D03*
X0050342Y0286380D03*
X0050342Y0286222D03*
X0050342Y0286065D03*
X0050342Y0284805D03*
X0050342Y0284648D03*
X0050342Y0284333D03*
X0050342Y0284175D03*
X0051759Y0284175D03*
X0051759Y0284018D03*
X0051759Y0284333D03*
X0051759Y0284490D03*
X0051759Y0284648D03*
X0051759Y0284805D03*
X0051759Y0284963D03*
X0051759Y0285120D03*
X0047192Y0285593D03*
X0047192Y0285750D03*
X0047035Y0285278D03*
X0047035Y0285120D03*
X0047035Y0284963D03*
X0047035Y0284805D03*
X0048519Y0293545D03*
X0048676Y0295278D03*
X0048369Y0303860D03*
X0048369Y0304018D03*
X0048212Y0304333D03*
X0048054Y0305120D03*
X0048054Y0306537D03*
X0045692Y0306222D03*
X0045692Y0306065D03*
X0043960Y0305750D03*
X0051519Y0305750D03*
X0051519Y0305593D03*
X0051519Y0305907D03*
X0051519Y0304963D03*
X0051519Y0304805D03*
X0051519Y0304648D03*
X0051519Y0304490D03*
X0051519Y0304333D03*
X0053409Y0304963D03*
X0053409Y0305120D03*
X0053409Y0305278D03*
D30*
X0053330Y0305435D03*
X0053330Y0304805D03*
X0054747Y0305278D03*
X0054747Y0305435D03*
X0054747Y0305593D03*
X0054747Y0305750D03*
X0054747Y0305907D03*
X0054747Y0306065D03*
X0054747Y0306222D03*
X0051598Y0306222D03*
X0051598Y0306065D03*
X0051598Y0305435D03*
X0051598Y0305278D03*
X0051598Y0305120D03*
X0051440Y0304175D03*
X0051440Y0304018D03*
X0049865Y0304175D03*
X0047976Y0304963D03*
X0046873Y0305907D03*
X0045771Y0306537D03*
X0044039Y0305907D03*
X0046393Y0296695D03*
X0048755Y0296222D03*
X0048598Y0295120D03*
X0048755Y0294333D03*
X0051838Y0287640D03*
X0050263Y0287325D03*
X0050263Y0287167D03*
X0050263Y0285907D03*
X0050263Y0284963D03*
X0050263Y0284018D03*
X0051838Y0283860D03*
X0051838Y0283703D03*
X0053413Y0285120D03*
X0055145Y0285120D03*
X0048688Y0286852D03*
X0046956Y0284648D03*
X0047928Y0276380D03*
X0047771Y0275907D03*
X0047771Y0275750D03*
X0047928Y0274805D03*
X0048086Y0274648D03*
X0048086Y0274490D03*
X0044621Y0274333D03*
X0044621Y0274175D03*
X0044621Y0275435D03*
X0044621Y0275593D03*
X0052180Y0274648D03*
X0052180Y0274490D03*
X0053913Y0275120D03*
X0055645Y0275120D03*
X0052180Y0276852D03*
X0051645Y0266852D03*
X0049913Y0264805D03*
X0049913Y0264648D03*
X0046291Y0264805D03*
X0044558Y0264490D03*
X0044558Y0267010D03*
X0046291Y0266695D03*
X0046291Y0267482D03*
X0045298Y0256380D03*
X0045456Y0255750D03*
X0046716Y0255907D03*
X0046716Y0254175D03*
X0045456Y0254333D03*
X0044039Y0254175D03*
X0044039Y0255907D03*
X0048606Y0255907D03*
X0048606Y0255750D03*
X0048606Y0254333D03*
X0048606Y0254175D03*
X0050495Y0254175D03*
X0050495Y0255907D03*
X0052070Y0256065D03*
X0052070Y0256537D03*
X0053330Y0255907D03*
X0052070Y0255120D03*
X0053330Y0254175D03*
X0052070Y0246537D03*
X0052070Y0246065D03*
X0052070Y0245907D03*
X0052070Y0245120D03*
X0050495Y0245120D03*
X0050495Y0245907D03*
X0049078Y0244648D03*
X0049078Y0244490D03*
X0048921Y0244333D03*
X0048921Y0244175D03*
X0048763Y0244018D03*
X0048763Y0243860D03*
X0047031Y0245907D03*
X0045928Y0245750D03*
X0044354Y0245907D03*
X0052070Y0243545D03*
X0050830Y0235907D03*
X0050830Y0234175D03*
X0048940Y0234333D03*
X0048940Y0235750D03*
X0048940Y0235907D03*
X0045791Y0235750D03*
X0045791Y0234333D03*
X0044373Y0225907D03*
X0050673Y0225907D03*
X0050673Y0224175D03*
X0050940Y0217325D03*
X0050940Y0217167D03*
X0050940Y0217010D03*
X0050940Y0216852D03*
X0050940Y0216065D03*
X0049208Y0215120D03*
X0048263Y0216222D03*
X0046688Y0217640D03*
X0045113Y0214648D03*
X0046688Y0213860D03*
X0050940Y0214018D03*
X0047728Y0207640D03*
X0049302Y0205278D03*
X0045523Y0205593D03*
X0045523Y0205750D03*
X0045771Y0154537D03*
X0046873Y0153907D03*
X0047976Y0152963D03*
X0049865Y0152175D03*
X0051440Y0152175D03*
X0051440Y0152018D03*
X0051598Y0153120D03*
X0051598Y0153278D03*
X0051598Y0153435D03*
X0051598Y0154065D03*
X0051598Y0154222D03*
X0053330Y0153435D03*
X0053330Y0152805D03*
X0054747Y0153278D03*
X0054747Y0153435D03*
X0054747Y0153593D03*
X0054747Y0153750D03*
X0054747Y0153907D03*
X0054747Y0154065D03*
X0054747Y0154222D03*
X0044039Y0153907D03*
X0046393Y0144695D03*
X0048755Y0144222D03*
X0048598Y0143120D03*
X0048755Y0142333D03*
X0050263Y0135325D03*
X0050263Y0135167D03*
X0050263Y0133907D03*
X0050263Y0132963D03*
X0050263Y0132018D03*
X0051838Y0131860D03*
X0051838Y0131703D03*
X0053413Y0133120D03*
X0055145Y0133120D03*
X0051838Y0135640D03*
X0048688Y0134852D03*
X0046956Y0132648D03*
X0047928Y0124380D03*
X0047771Y0123907D03*
X0047771Y0123750D03*
X0047928Y0122805D03*
X0048086Y0122648D03*
X0048086Y0122490D03*
X0044621Y0122333D03*
X0044621Y0122175D03*
X0044621Y0123435D03*
X0044621Y0123593D03*
X0052180Y0122648D03*
X0052180Y0122490D03*
X0053913Y0123120D03*
X0055645Y0123120D03*
X0052180Y0124852D03*
X0051645Y0114852D03*
X0049913Y0112805D03*
X0049913Y0112648D03*
X0046291Y0112805D03*
X0044558Y0112490D03*
X0044558Y0115010D03*
X0046291Y0114695D03*
X0046291Y0115482D03*
X0045298Y0104380D03*
X0045456Y0103750D03*
X0046716Y0103907D03*
X0046716Y0102175D03*
X0045456Y0102333D03*
X0044039Y0102175D03*
X0044039Y0103907D03*
X0048606Y0103907D03*
X0048606Y0103750D03*
X0048606Y0102333D03*
X0048606Y0102175D03*
X0050495Y0102175D03*
X0050495Y0103907D03*
X0052070Y0104065D03*
X0052070Y0104537D03*
X0053330Y0103907D03*
X0052070Y0103120D03*
X0053330Y0102175D03*
X0052070Y0094537D03*
X0052070Y0094065D03*
X0052070Y0093907D03*
X0052070Y0093120D03*
X0050495Y0093120D03*
X0050495Y0093907D03*
X0049078Y0092648D03*
X0049078Y0092490D03*
X0048921Y0092333D03*
X0048921Y0092175D03*
X0048763Y0092018D03*
X0048763Y0091860D03*
X0047031Y0093907D03*
X0045928Y0093750D03*
X0044354Y0093907D03*
X0052070Y0091545D03*
X0050830Y0083907D03*
X0050830Y0082175D03*
X0048940Y0082333D03*
X0048940Y0083750D03*
X0048940Y0083907D03*
X0045791Y0083750D03*
X0045791Y0082333D03*
X0044373Y0073907D03*
X0050673Y0073907D03*
X0050673Y0072175D03*
X0050940Y0065325D03*
X0050940Y0065167D03*
X0050940Y0065010D03*
X0050940Y0064852D03*
X0050940Y0064065D03*
X0049208Y0063120D03*
X0048263Y0064222D03*
X0046688Y0065640D03*
X0045113Y0062648D03*
X0046688Y0061860D03*
X0050940Y0062018D03*
X0047728Y0055640D03*
X0049302Y0053278D03*
X0045523Y0053593D03*
X0045523Y0053750D03*
X0222113Y0062648D03*
X0223688Y0061860D03*
X0226208Y0063120D03*
X0225263Y0064222D03*
X0223688Y0065640D03*
X0227940Y0065325D03*
X0227940Y0065167D03*
X0227940Y0065010D03*
X0227940Y0064852D03*
X0227940Y0064065D03*
X0227940Y0062018D03*
X0224728Y0055640D03*
X0226302Y0053278D03*
X0222523Y0053593D03*
X0222523Y0053750D03*
X0227673Y0072175D03*
X0227673Y0073907D03*
X0221373Y0073907D03*
X0222791Y0082333D03*
X0222791Y0083750D03*
X0225940Y0083750D03*
X0225940Y0083907D03*
X0225940Y0082333D03*
X0227830Y0082175D03*
X0227830Y0083907D03*
X0229070Y0091545D03*
X0229070Y0093120D03*
X0229070Y0093907D03*
X0229070Y0094065D03*
X0229070Y0094537D03*
X0227495Y0093907D03*
X0227495Y0093120D03*
X0226078Y0092648D03*
X0226078Y0092490D03*
X0225921Y0092333D03*
X0225921Y0092175D03*
X0225763Y0092018D03*
X0225763Y0091860D03*
X0224031Y0093907D03*
X0222928Y0093750D03*
X0221354Y0093907D03*
X0221039Y0102175D03*
X0222456Y0102333D03*
X0223716Y0102175D03*
X0223716Y0103907D03*
X0222456Y0103750D03*
X0222298Y0104380D03*
X0221039Y0103907D03*
X0225606Y0103907D03*
X0225606Y0103750D03*
X0225606Y0102333D03*
X0225606Y0102175D03*
X0227495Y0102175D03*
X0227495Y0103907D03*
X0229070Y0104065D03*
X0229070Y0104537D03*
X0230330Y0103907D03*
X0229070Y0103120D03*
X0230330Y0102175D03*
X0226913Y0112648D03*
X0226913Y0112805D03*
X0228645Y0114852D03*
X0223291Y0114695D03*
X0223291Y0115482D03*
X0221558Y0115010D03*
X0221558Y0112490D03*
X0223291Y0112805D03*
X0221621Y0122175D03*
X0221621Y0122333D03*
X0221621Y0123435D03*
X0221621Y0123593D03*
X0224771Y0123750D03*
X0224771Y0123907D03*
X0224928Y0124380D03*
X0224928Y0122805D03*
X0225086Y0122648D03*
X0225086Y0122490D03*
X0229180Y0122490D03*
X0229180Y0122648D03*
X0230913Y0123120D03*
X0232645Y0123120D03*
X0229180Y0124852D03*
X0228838Y0131703D03*
X0228838Y0131860D03*
X0227263Y0132018D03*
X0227263Y0132963D03*
X0227263Y0133907D03*
X0227263Y0135167D03*
X0227263Y0135325D03*
X0228838Y0135640D03*
X0230413Y0133120D03*
X0232145Y0133120D03*
X0225688Y0134852D03*
X0223956Y0132648D03*
X0225755Y0142333D03*
X0225598Y0143120D03*
X0225755Y0144222D03*
X0223393Y0144695D03*
X0226865Y0152175D03*
X0228440Y0152175D03*
X0228440Y0152018D03*
X0228598Y0153120D03*
X0228598Y0153278D03*
X0228598Y0153435D03*
X0228598Y0154065D03*
X0228598Y0154222D03*
X0230330Y0153435D03*
X0230330Y0152805D03*
X0231747Y0153278D03*
X0231747Y0153435D03*
X0231747Y0153593D03*
X0231747Y0153750D03*
X0231747Y0153907D03*
X0231747Y0154065D03*
X0231747Y0154222D03*
X0224976Y0152963D03*
X0223873Y0153907D03*
X0222771Y0154537D03*
X0221039Y0153907D03*
X0226302Y0205278D03*
X0224728Y0207640D03*
X0222523Y0205750D03*
X0222523Y0205593D03*
X0223688Y0213860D03*
X0222113Y0214648D03*
X0223688Y0217640D03*
X0225263Y0216222D03*
X0226208Y0215120D03*
X0227940Y0216065D03*
X0227940Y0216852D03*
X0227940Y0217010D03*
X0227940Y0217167D03*
X0227940Y0217325D03*
X0227940Y0214018D03*
X0227673Y0224175D03*
X0227673Y0225907D03*
X0221373Y0225907D03*
X0222791Y0234333D03*
X0222791Y0235750D03*
X0225940Y0235750D03*
X0225940Y0235907D03*
X0225940Y0234333D03*
X0227830Y0234175D03*
X0227830Y0235907D03*
X0229070Y0243545D03*
X0229070Y0245120D03*
X0229070Y0245907D03*
X0229070Y0246065D03*
X0229070Y0246537D03*
X0227495Y0245907D03*
X0227495Y0245120D03*
X0226078Y0244648D03*
X0226078Y0244490D03*
X0225921Y0244333D03*
X0225921Y0244175D03*
X0225763Y0244018D03*
X0225763Y0243860D03*
X0224031Y0245907D03*
X0222928Y0245750D03*
X0221354Y0245907D03*
X0221039Y0254175D03*
X0222456Y0254333D03*
X0223716Y0254175D03*
X0223716Y0255907D03*
X0222456Y0255750D03*
X0222298Y0256380D03*
X0221039Y0255907D03*
X0225606Y0255907D03*
X0225606Y0255750D03*
X0225606Y0254333D03*
X0225606Y0254175D03*
X0227495Y0254175D03*
X0227495Y0255907D03*
X0229070Y0256065D03*
X0229070Y0256537D03*
X0230330Y0255907D03*
X0229070Y0255120D03*
X0230330Y0254175D03*
X0226913Y0264648D03*
X0226913Y0264805D03*
X0228645Y0266852D03*
X0223291Y0266695D03*
X0223291Y0267482D03*
X0221558Y0267010D03*
X0221558Y0264490D03*
X0223291Y0264805D03*
X0221621Y0274175D03*
X0221621Y0274333D03*
X0221621Y0275435D03*
X0221621Y0275593D03*
X0224771Y0275750D03*
X0224771Y0275907D03*
X0224928Y0276380D03*
X0224928Y0274805D03*
X0225086Y0274648D03*
X0225086Y0274490D03*
X0229180Y0274490D03*
X0229180Y0274648D03*
X0230913Y0275120D03*
X0232645Y0275120D03*
X0229180Y0276852D03*
X0228838Y0283703D03*
X0228838Y0283860D03*
X0227263Y0284018D03*
X0227263Y0284963D03*
X0227263Y0285907D03*
X0227263Y0287167D03*
X0227263Y0287325D03*
X0228838Y0287640D03*
X0230413Y0285120D03*
X0232145Y0285120D03*
X0225688Y0286852D03*
X0223956Y0284648D03*
X0225755Y0294333D03*
X0225598Y0295120D03*
X0225755Y0296222D03*
X0223393Y0296695D03*
X0226865Y0304175D03*
X0228440Y0304175D03*
X0228440Y0304018D03*
X0228598Y0305120D03*
X0228598Y0305278D03*
X0228598Y0305435D03*
X0228598Y0306065D03*
X0228598Y0306222D03*
X0230330Y0305435D03*
X0230330Y0304805D03*
X0231747Y0305278D03*
X0231747Y0305435D03*
X0231747Y0305593D03*
X0231747Y0305750D03*
X0231747Y0305907D03*
X0231747Y0306065D03*
X0231747Y0306222D03*
X0224976Y0304963D03*
X0223873Y0305907D03*
X0222771Y0306537D03*
X0221039Y0305907D03*
D31*
X0222692Y0305907D03*
X0223952Y0304175D03*
X0225369Y0303703D03*
X0228676Y0306380D03*
X0230094Y0304175D03*
X0231826Y0305120D03*
X0231826Y0306380D03*
X0227251Y0295907D03*
X0227251Y0295120D03*
X0227251Y0294175D03*
X0227251Y0294018D03*
X0225519Y0294963D03*
X0224417Y0294175D03*
X0224417Y0295907D03*
X0225834Y0296380D03*
X0227184Y0287482D03*
X0227184Y0285750D03*
X0224350Y0285907D03*
X0223877Y0284490D03*
X0223877Y0284333D03*
X0221830Y0284648D03*
X0221700Y0277325D03*
X0221700Y0277167D03*
X0221700Y0277010D03*
X0221700Y0275750D03*
X0221700Y0274018D03*
X0223275Y0274648D03*
X0224850Y0274963D03*
X0225165Y0274333D03*
X0225007Y0276852D03*
X0229102Y0277010D03*
X0229102Y0274333D03*
X0230991Y0274963D03*
X0232566Y0274963D03*
X0231779Y0276380D03*
X0232066Y0284963D03*
X0230491Y0284963D03*
X0231279Y0286380D03*
X0227306Y0265907D03*
X0226834Y0264490D03*
X0226834Y0264333D03*
X0224787Y0264648D03*
X0223369Y0266537D03*
X0221480Y0267167D03*
X0221480Y0264333D03*
X0229149Y0255907D03*
X0229149Y0255278D03*
X0229149Y0253545D03*
X0230251Y0245907D03*
X0229149Y0245278D03*
X0230251Y0244175D03*
X0225842Y0246065D03*
X0225842Y0246222D03*
X0224110Y0244175D03*
X0222850Y0244333D03*
X0222692Y0243545D03*
X0221432Y0244175D03*
X0222692Y0246537D03*
X0223972Y0235907D03*
X0223972Y0234175D03*
X0225861Y0234175D03*
X0221295Y0234175D03*
X0221295Y0235907D03*
X0223184Y0226222D03*
X0223184Y0226065D03*
X0223342Y0225907D03*
X0223342Y0225750D03*
X0223499Y0225593D03*
X0223499Y0225435D03*
X0225547Y0224648D03*
X0225547Y0224490D03*
X0225704Y0224333D03*
X0225704Y0224175D03*
X0225861Y0224018D03*
X0221452Y0224175D03*
X0225342Y0216380D03*
X0226129Y0214963D03*
X0226129Y0214805D03*
X0223767Y0213703D03*
X0228019Y0216695D03*
X0228019Y0217482D03*
X0229594Y0214648D03*
X0224806Y0206852D03*
X0226381Y0204648D03*
X0228676Y0154380D03*
X0230094Y0152175D03*
X0231826Y0153120D03*
X0231826Y0154380D03*
X0225369Y0151703D03*
X0223952Y0152175D03*
X0222692Y0153907D03*
X0225834Y0144380D03*
X0225519Y0142963D03*
X0224417Y0142175D03*
X0224417Y0143907D03*
X0227251Y0143907D03*
X0227251Y0143120D03*
X0227251Y0142175D03*
X0227251Y0142018D03*
X0227184Y0135482D03*
X0227184Y0133750D03*
X0224350Y0133907D03*
X0223877Y0132490D03*
X0223877Y0132333D03*
X0221830Y0132648D03*
X0221700Y0125325D03*
X0221700Y0125167D03*
X0221700Y0125010D03*
X0221700Y0123750D03*
X0221700Y0122018D03*
X0223275Y0122648D03*
X0224850Y0122963D03*
X0225165Y0122333D03*
X0225007Y0124852D03*
X0229102Y0125010D03*
X0229102Y0122333D03*
X0230991Y0122963D03*
X0232566Y0122963D03*
X0231779Y0124380D03*
X0232066Y0132963D03*
X0230491Y0132963D03*
X0231279Y0134380D03*
X0227306Y0113907D03*
X0226834Y0112490D03*
X0226834Y0112333D03*
X0224787Y0112648D03*
X0223369Y0114537D03*
X0221480Y0115167D03*
X0221480Y0112333D03*
X0229149Y0103907D03*
X0229149Y0103278D03*
X0229149Y0101545D03*
X0230251Y0093907D03*
X0229149Y0093278D03*
X0230251Y0092175D03*
X0225842Y0094065D03*
X0225842Y0094222D03*
X0224110Y0092175D03*
X0222850Y0092333D03*
X0222692Y0091545D03*
X0221432Y0092175D03*
X0222692Y0094537D03*
X0223972Y0083907D03*
X0223972Y0082175D03*
X0225861Y0082175D03*
X0221295Y0082175D03*
X0221295Y0083907D03*
X0223184Y0074222D03*
X0223184Y0074065D03*
X0223342Y0073907D03*
X0223342Y0073750D03*
X0223499Y0073593D03*
X0223499Y0073435D03*
X0225547Y0072648D03*
X0225547Y0072490D03*
X0225704Y0072333D03*
X0225704Y0072175D03*
X0225861Y0072018D03*
X0221452Y0072175D03*
X0225342Y0064380D03*
X0226129Y0062963D03*
X0226129Y0062805D03*
X0223767Y0061703D03*
X0228019Y0064695D03*
X0228019Y0065482D03*
X0229594Y0062648D03*
X0224806Y0054852D03*
X0226381Y0052648D03*
X0055566Y0122963D03*
X0053991Y0122963D03*
X0054779Y0124380D03*
X0052102Y0125010D03*
X0052102Y0122333D03*
X0048165Y0122333D03*
X0047850Y0122963D03*
X0046275Y0122648D03*
X0044700Y0122018D03*
X0044700Y0123750D03*
X0044700Y0125010D03*
X0044700Y0125167D03*
X0044700Y0125325D03*
X0048007Y0124852D03*
X0046877Y0132333D03*
X0046877Y0132490D03*
X0047350Y0133907D03*
X0044830Y0132648D03*
X0050184Y0133750D03*
X0050184Y0135482D03*
X0053491Y0132963D03*
X0055066Y0132963D03*
X0054279Y0134380D03*
X0050251Y0142018D03*
X0050251Y0142175D03*
X0050251Y0143120D03*
X0050251Y0143907D03*
X0048834Y0144380D03*
X0048519Y0142963D03*
X0047417Y0142175D03*
X0047417Y0143907D03*
X0048369Y0151703D03*
X0046952Y0152175D03*
X0045692Y0153907D03*
X0051676Y0154380D03*
X0053094Y0152175D03*
X0054826Y0153120D03*
X0054826Y0154380D03*
X0044480Y0115167D03*
X0046369Y0114537D03*
X0047787Y0112648D03*
X0049834Y0112490D03*
X0049834Y0112333D03*
X0050306Y0113907D03*
X0044480Y0112333D03*
X0052149Y0103907D03*
X0052149Y0103278D03*
X0052149Y0101545D03*
X0053251Y0093907D03*
X0052149Y0093278D03*
X0053251Y0092175D03*
X0048842Y0094065D03*
X0048842Y0094222D03*
X0047110Y0092175D03*
X0045850Y0092333D03*
X0045692Y0091545D03*
X0044432Y0092175D03*
X0045692Y0094537D03*
X0046972Y0083907D03*
X0046972Y0082175D03*
X0048861Y0082175D03*
X0044295Y0082175D03*
X0044295Y0083907D03*
X0046184Y0074222D03*
X0046184Y0074065D03*
X0046342Y0073907D03*
X0046342Y0073750D03*
X0046499Y0073593D03*
X0046499Y0073435D03*
X0048547Y0072648D03*
X0048547Y0072490D03*
X0048704Y0072333D03*
X0048704Y0072175D03*
X0048861Y0072018D03*
X0044452Y0072175D03*
X0048342Y0064380D03*
X0049129Y0062963D03*
X0049129Y0062805D03*
X0046767Y0061703D03*
X0051019Y0064695D03*
X0051019Y0065482D03*
X0052594Y0062648D03*
X0047806Y0054852D03*
X0049381Y0052648D03*
X0049381Y0204648D03*
X0047806Y0206852D03*
X0046767Y0213703D03*
X0049129Y0214805D03*
X0049129Y0214963D03*
X0048342Y0216380D03*
X0051019Y0216695D03*
X0051019Y0217482D03*
X0052594Y0214648D03*
X0048861Y0224018D03*
X0048704Y0224175D03*
X0048704Y0224333D03*
X0048547Y0224490D03*
X0048547Y0224648D03*
X0046499Y0225435D03*
X0046499Y0225593D03*
X0046342Y0225750D03*
X0046342Y0225907D03*
X0046184Y0226065D03*
X0046184Y0226222D03*
X0044452Y0224175D03*
X0044295Y0234175D03*
X0044295Y0235907D03*
X0046972Y0235907D03*
X0046972Y0234175D03*
X0048861Y0234175D03*
X0045692Y0243545D03*
X0045850Y0244333D03*
X0047110Y0244175D03*
X0048842Y0246065D03*
X0048842Y0246222D03*
X0045692Y0246537D03*
X0044432Y0244175D03*
X0052149Y0245278D03*
X0053251Y0245907D03*
X0053251Y0244175D03*
X0052149Y0253545D03*
X0052149Y0255278D03*
X0052149Y0255907D03*
X0049834Y0264333D03*
X0049834Y0264490D03*
X0050306Y0265907D03*
X0047787Y0264648D03*
X0046369Y0266537D03*
X0044480Y0267167D03*
X0044480Y0264333D03*
X0044700Y0274018D03*
X0046275Y0274648D03*
X0047850Y0274963D03*
X0048165Y0274333D03*
X0048007Y0276852D03*
X0044700Y0277010D03*
X0044700Y0277167D03*
X0044700Y0277325D03*
X0044700Y0275750D03*
X0052102Y0277010D03*
X0052102Y0274333D03*
X0053991Y0274963D03*
X0055566Y0274963D03*
X0054779Y0276380D03*
X0055066Y0284963D03*
X0053491Y0284963D03*
X0054279Y0286380D03*
X0050184Y0285750D03*
X0050184Y0287482D03*
X0047350Y0285907D03*
X0046877Y0284490D03*
X0046877Y0284333D03*
X0044830Y0284648D03*
X0047417Y0294175D03*
X0048519Y0294963D03*
X0048834Y0296380D03*
X0050251Y0295907D03*
X0050251Y0295120D03*
X0050251Y0294175D03*
X0050251Y0294018D03*
X0047417Y0295907D03*
X0048369Y0303703D03*
X0046952Y0304175D03*
X0045692Y0305907D03*
X0051676Y0306380D03*
X0053094Y0304175D03*
X0054826Y0305120D03*
X0054826Y0306380D03*
D32*
X0048133Y0306380D03*
X0048133Y0306222D03*
X0048133Y0305435D03*
X0048133Y0305278D03*
X0048291Y0304175D03*
X0045771Y0306380D03*
X0044039Y0305593D03*
X0046393Y0296537D03*
X0046236Y0296222D03*
X0048755Y0296065D03*
X0048755Y0295907D03*
X0048755Y0295750D03*
X0048755Y0295593D03*
X0048755Y0295435D03*
X0048755Y0294175D03*
X0048755Y0294018D03*
X0048755Y0293860D03*
X0048598Y0293703D03*
X0047113Y0285435D03*
X0050421Y0284490D03*
X0053255Y0285593D03*
X0055302Y0285593D03*
X0055302Y0285435D03*
X0052338Y0276222D03*
X0052338Y0276065D03*
X0052338Y0275907D03*
X0052338Y0275750D03*
X0052338Y0275593D03*
X0052338Y0275435D03*
X0052338Y0275278D03*
X0052338Y0275120D03*
X0053755Y0275593D03*
X0055802Y0275593D03*
X0055802Y0275435D03*
X0050070Y0265435D03*
X0046133Y0264333D03*
X0046133Y0264175D03*
X0044716Y0264805D03*
X0044716Y0266537D03*
X0046133Y0267010D03*
X0046133Y0267167D03*
X0045298Y0256222D03*
X0045456Y0254175D03*
X0045456Y0254018D03*
X0045298Y0253860D03*
X0048606Y0254490D03*
X0048606Y0254648D03*
X0048606Y0254805D03*
X0048606Y0254963D03*
X0048606Y0255120D03*
X0048606Y0255278D03*
X0048606Y0255435D03*
X0048606Y0255593D03*
X0051913Y0254805D03*
X0051913Y0254648D03*
X0051913Y0254490D03*
X0051913Y0254333D03*
X0051913Y0254175D03*
X0051913Y0254018D03*
X0048921Y0245593D03*
X0048921Y0245435D03*
X0048921Y0245278D03*
X0048921Y0245120D03*
X0051913Y0244805D03*
X0051913Y0244648D03*
X0051913Y0244490D03*
X0051913Y0244333D03*
X0051913Y0244175D03*
X0051913Y0244018D03*
X0045771Y0244018D03*
X0045771Y0243860D03*
X0045771Y0246065D03*
X0045633Y0236222D03*
X0045633Y0236065D03*
X0045633Y0233860D03*
X0048940Y0234648D03*
X0048940Y0234805D03*
X0048940Y0234963D03*
X0048940Y0235120D03*
X0048940Y0235278D03*
X0048940Y0235435D03*
X0048106Y0215750D03*
X0049365Y0215593D03*
X0049365Y0215435D03*
X0045523Y0205435D03*
X0045523Y0205278D03*
X0045771Y0154380D03*
X0044039Y0153593D03*
X0048133Y0153435D03*
X0048133Y0153278D03*
X0048133Y0154222D03*
X0048133Y0154380D03*
X0048291Y0152175D03*
X0046393Y0144537D03*
X0046236Y0144222D03*
X0048755Y0144065D03*
X0048755Y0143907D03*
X0048755Y0143750D03*
X0048755Y0143593D03*
X0048755Y0143435D03*
X0048755Y0142175D03*
X0048755Y0142018D03*
X0048755Y0141860D03*
X0048598Y0141703D03*
X0047113Y0133435D03*
X0050421Y0132490D03*
X0053255Y0133593D03*
X0055302Y0133593D03*
X0055302Y0133435D03*
X0052338Y0124222D03*
X0052338Y0124065D03*
X0052338Y0123907D03*
X0052338Y0123750D03*
X0052338Y0123593D03*
X0052338Y0123435D03*
X0052338Y0123278D03*
X0052338Y0123120D03*
X0053755Y0123593D03*
X0055802Y0123593D03*
X0055802Y0123435D03*
X0050070Y0113435D03*
X0046133Y0112333D03*
X0046133Y0112175D03*
X0044716Y0112805D03*
X0044716Y0114537D03*
X0046133Y0115010D03*
X0046133Y0115167D03*
X0045298Y0104222D03*
X0045456Y0102175D03*
X0045456Y0102018D03*
X0045298Y0101860D03*
X0048606Y0102490D03*
X0048606Y0102648D03*
X0048606Y0102805D03*
X0048606Y0102963D03*
X0048606Y0103120D03*
X0048606Y0103278D03*
X0048606Y0103435D03*
X0048606Y0103593D03*
X0051913Y0102805D03*
X0051913Y0102648D03*
X0051913Y0102490D03*
X0051913Y0102333D03*
X0051913Y0102175D03*
X0051913Y0102018D03*
X0048921Y0093593D03*
X0048921Y0093435D03*
X0048921Y0093278D03*
X0048921Y0093120D03*
X0051913Y0092805D03*
X0051913Y0092648D03*
X0051913Y0092490D03*
X0051913Y0092333D03*
X0051913Y0092175D03*
X0051913Y0092018D03*
X0045771Y0092018D03*
X0045771Y0091860D03*
X0045771Y0094065D03*
X0045633Y0084222D03*
X0045633Y0084065D03*
X0045633Y0081860D03*
X0048940Y0082648D03*
X0048940Y0082805D03*
X0048940Y0082963D03*
X0048940Y0083120D03*
X0048940Y0083278D03*
X0048940Y0083435D03*
X0048106Y0063750D03*
X0049365Y0063593D03*
X0049365Y0063435D03*
X0045523Y0053435D03*
X0045523Y0053278D03*
X0222523Y0053278D03*
X0222523Y0053435D03*
X0225106Y0063750D03*
X0226365Y0063593D03*
X0226365Y0063435D03*
X0222633Y0081860D03*
X0222633Y0084065D03*
X0222633Y0084222D03*
X0225940Y0083435D03*
X0225940Y0083278D03*
X0225940Y0083120D03*
X0225940Y0082963D03*
X0225940Y0082805D03*
X0225940Y0082648D03*
X0222771Y0091860D03*
X0222771Y0092018D03*
X0222771Y0094065D03*
X0225921Y0093593D03*
X0225921Y0093435D03*
X0225921Y0093278D03*
X0225921Y0093120D03*
X0228913Y0092805D03*
X0228913Y0092648D03*
X0228913Y0092490D03*
X0228913Y0092333D03*
X0228913Y0092175D03*
X0228913Y0092018D03*
X0228913Y0102018D03*
X0228913Y0102175D03*
X0228913Y0102333D03*
X0228913Y0102490D03*
X0228913Y0102648D03*
X0228913Y0102805D03*
X0225606Y0102805D03*
X0225606Y0102648D03*
X0225606Y0102490D03*
X0225606Y0102963D03*
X0225606Y0103120D03*
X0225606Y0103278D03*
X0225606Y0103435D03*
X0225606Y0103593D03*
X0222298Y0104222D03*
X0222456Y0102175D03*
X0222456Y0102018D03*
X0222298Y0101860D03*
X0223133Y0112175D03*
X0223133Y0112333D03*
X0221716Y0112805D03*
X0221716Y0114537D03*
X0223133Y0115010D03*
X0223133Y0115167D03*
X0227070Y0113435D03*
X0229338Y0123120D03*
X0229338Y0123278D03*
X0229338Y0123435D03*
X0229338Y0123593D03*
X0229338Y0123750D03*
X0229338Y0123907D03*
X0229338Y0124065D03*
X0229338Y0124222D03*
X0230755Y0123593D03*
X0232802Y0123593D03*
X0232802Y0123435D03*
X0232302Y0133435D03*
X0232302Y0133593D03*
X0230255Y0133593D03*
X0227421Y0132490D03*
X0224113Y0133435D03*
X0225598Y0141703D03*
X0225755Y0141860D03*
X0225755Y0142018D03*
X0225755Y0142175D03*
X0225755Y0143435D03*
X0225755Y0143593D03*
X0225755Y0143750D03*
X0225755Y0143907D03*
X0225755Y0144065D03*
X0223393Y0144537D03*
X0223236Y0144222D03*
X0225291Y0152175D03*
X0225133Y0153278D03*
X0225133Y0153435D03*
X0225133Y0154222D03*
X0225133Y0154380D03*
X0222771Y0154380D03*
X0221039Y0153593D03*
X0222523Y0205278D03*
X0222523Y0205435D03*
X0226365Y0215435D03*
X0226365Y0215593D03*
X0225106Y0215750D03*
X0222633Y0233860D03*
X0222633Y0236065D03*
X0222633Y0236222D03*
X0225940Y0235435D03*
X0225940Y0235278D03*
X0225940Y0235120D03*
X0225940Y0234963D03*
X0225940Y0234805D03*
X0225940Y0234648D03*
X0222771Y0243860D03*
X0222771Y0244018D03*
X0222771Y0246065D03*
X0225921Y0245593D03*
X0225921Y0245435D03*
X0225921Y0245278D03*
X0225921Y0245120D03*
X0228913Y0244805D03*
X0228913Y0244648D03*
X0228913Y0244490D03*
X0228913Y0244333D03*
X0228913Y0244175D03*
X0228913Y0244018D03*
X0228913Y0254018D03*
X0228913Y0254175D03*
X0228913Y0254333D03*
X0228913Y0254490D03*
X0228913Y0254648D03*
X0228913Y0254805D03*
X0225606Y0254805D03*
X0225606Y0254648D03*
X0225606Y0254490D03*
X0225606Y0254963D03*
X0225606Y0255120D03*
X0225606Y0255278D03*
X0225606Y0255435D03*
X0225606Y0255593D03*
X0222298Y0256222D03*
X0222456Y0254175D03*
X0222456Y0254018D03*
X0222298Y0253860D03*
X0223133Y0264175D03*
X0223133Y0264333D03*
X0221716Y0264805D03*
X0221716Y0266537D03*
X0223133Y0267010D03*
X0223133Y0267167D03*
X0227070Y0265435D03*
X0229338Y0275120D03*
X0229338Y0275278D03*
X0229338Y0275435D03*
X0229338Y0275593D03*
X0229338Y0275750D03*
X0229338Y0275907D03*
X0229338Y0276065D03*
X0229338Y0276222D03*
X0230755Y0275593D03*
X0232802Y0275593D03*
X0232802Y0275435D03*
X0232302Y0285435D03*
X0232302Y0285593D03*
X0230255Y0285593D03*
X0227421Y0284490D03*
X0224113Y0285435D03*
X0225598Y0293703D03*
X0225755Y0293860D03*
X0225755Y0294018D03*
X0225755Y0294175D03*
X0225755Y0295435D03*
X0225755Y0295593D03*
X0225755Y0295750D03*
X0225755Y0295907D03*
X0225755Y0296065D03*
X0223393Y0296537D03*
X0223236Y0296222D03*
X0225291Y0304175D03*
X0225133Y0305278D03*
X0225133Y0305435D03*
X0225133Y0306222D03*
X0225133Y0306380D03*
X0222771Y0306380D03*
X0221039Y0305593D03*
D33*
X0225212Y0305593D03*
X0225212Y0305750D03*
X0225212Y0305907D03*
X0225212Y0306065D03*
X0223314Y0296380D03*
X0230176Y0285750D03*
X0231279Y0286065D03*
X0232381Y0285750D03*
X0231779Y0276065D03*
X0232881Y0275750D03*
X0230676Y0275750D03*
X0221795Y0266380D03*
X0221795Y0264963D03*
X0222712Y0234018D03*
X0226444Y0215750D03*
X0225027Y0215593D03*
X0225212Y0154065D03*
X0225212Y0153907D03*
X0225212Y0153750D03*
X0225212Y0153593D03*
X0223314Y0144380D03*
X0230176Y0133750D03*
X0231279Y0134065D03*
X0232381Y0133750D03*
X0231779Y0124065D03*
X0232881Y0123750D03*
X0230676Y0123750D03*
X0221795Y0114380D03*
X0221795Y0112963D03*
X0222712Y0082018D03*
X0225027Y0063593D03*
X0226444Y0063750D03*
X0055881Y0123750D03*
X0054779Y0124065D03*
X0053676Y0123750D03*
X0044795Y0114380D03*
X0044795Y0112963D03*
X0053176Y0133750D03*
X0054279Y0134065D03*
X0055381Y0133750D03*
X0046314Y0144380D03*
X0048212Y0153593D03*
X0048212Y0153750D03*
X0048212Y0153907D03*
X0048212Y0154065D03*
X0048027Y0215593D03*
X0049444Y0215750D03*
X0045712Y0234018D03*
X0044795Y0264963D03*
X0044795Y0266380D03*
X0053676Y0275750D03*
X0054779Y0276065D03*
X0055881Y0275750D03*
X0055381Y0285750D03*
X0054279Y0286065D03*
X0053176Y0285750D03*
X0046314Y0296380D03*
X0048212Y0305593D03*
X0048212Y0305750D03*
X0048212Y0305907D03*
X0048212Y0306065D03*
X0045712Y0082018D03*
X0048027Y0063593D03*
X0049444Y0063750D03*
D34*
X0055192Y0065325D03*
X0055192Y0062018D03*
X0045523Y0055640D03*
X0043003Y0053593D03*
X0043003Y0053435D03*
X0042436Y0062018D03*
X0042436Y0065325D03*
X0046578Y0071545D03*
X0048468Y0074537D03*
X0053192Y0072333D03*
X0053350Y0082333D03*
X0046736Y0083278D03*
X0046716Y0093278D03*
X0046716Y0093435D03*
X0055692Y0092333D03*
X0046401Y0103278D03*
X0046401Y0103435D03*
X0049755Y0111703D03*
X0042196Y0112963D03*
X0042196Y0114380D03*
X0046798Y0131703D03*
X0042389Y0132018D03*
X0052692Y0142175D03*
X0042149Y0152963D03*
X0043003Y0205435D03*
X0043003Y0205593D03*
X0045523Y0207640D03*
X0042436Y0214018D03*
X0042436Y0217325D03*
X0046578Y0223545D03*
X0048468Y0226537D03*
X0053192Y0224333D03*
X0055192Y0217325D03*
X0055192Y0214018D03*
X0053350Y0234333D03*
X0046736Y0235278D03*
X0046716Y0245278D03*
X0046716Y0245435D03*
X0055692Y0244333D03*
X0046401Y0255278D03*
X0046401Y0255435D03*
X0049755Y0263703D03*
X0042196Y0264963D03*
X0042196Y0266380D03*
X0042389Y0284018D03*
X0046798Y0283703D03*
X0052692Y0294175D03*
X0042149Y0304963D03*
X0219149Y0304963D03*
X0229692Y0294175D03*
X0223798Y0283703D03*
X0219389Y0284018D03*
X0219196Y0266380D03*
X0219196Y0264963D03*
X0226755Y0263703D03*
X0223401Y0255435D03*
X0223401Y0255278D03*
X0223716Y0245435D03*
X0223716Y0245278D03*
X0232692Y0244333D03*
X0230350Y0234333D03*
X0223736Y0235278D03*
X0225468Y0226537D03*
X0223578Y0223545D03*
X0219436Y0217325D03*
X0219436Y0214018D03*
X0222523Y0207640D03*
X0220003Y0205593D03*
X0220003Y0205435D03*
X0232192Y0214018D03*
X0232192Y0217325D03*
X0230192Y0224333D03*
X0219149Y0152963D03*
X0229692Y0142175D03*
X0223798Y0131703D03*
X0219389Y0132018D03*
X0219196Y0114380D03*
X0219196Y0112963D03*
X0226755Y0111703D03*
X0223401Y0103435D03*
X0223401Y0103278D03*
X0223716Y0093435D03*
X0223716Y0093278D03*
X0232692Y0092333D03*
X0230350Y0082333D03*
X0223736Y0083278D03*
X0225468Y0074537D03*
X0223578Y0071545D03*
X0219436Y0065325D03*
X0219436Y0062018D03*
X0222523Y0055640D03*
X0220003Y0053593D03*
X0220003Y0053435D03*
X0232192Y0062018D03*
X0232192Y0065325D03*
X0230192Y0072333D03*
D35*
X0230350Y0072648D03*
X0223421Y0071388D03*
X0229043Y0064537D03*
X0232035Y0061860D03*
X0222523Y0055797D03*
X0220161Y0052963D03*
X0220161Y0052805D03*
X0224255Y0051703D03*
X0219594Y0061860D03*
X0225940Y0081388D03*
X0223578Y0082963D03*
X0219798Y0083435D03*
X0230507Y0082648D03*
X0223558Y0092963D03*
X0223243Y0102963D03*
X0219464Y0103435D03*
X0219354Y0113278D03*
X0219354Y0114065D03*
X0224393Y0114065D03*
X0224393Y0114222D03*
X0224393Y0113907D03*
X0224393Y0113750D03*
X0224393Y0113593D03*
X0224393Y0113435D03*
X0224393Y0113278D03*
X0224393Y0113120D03*
X0235322Y0121703D03*
X0235480Y0122018D03*
X0235480Y0125482D03*
X0234822Y0131703D03*
X0234980Y0132018D03*
X0234980Y0135482D03*
X0229850Y0142490D03*
X0223393Y0143750D03*
X0219613Y0144065D03*
X0219306Y0151388D03*
X0219547Y0135640D03*
X0224255Y0203703D03*
X0220161Y0204805D03*
X0220161Y0204963D03*
X0222523Y0207797D03*
X0219594Y0213860D03*
X0229043Y0216537D03*
X0232035Y0213860D03*
X0223421Y0223388D03*
X0230350Y0224648D03*
X0225940Y0233388D03*
X0223578Y0234963D03*
X0219798Y0235435D03*
X0230507Y0234648D03*
X0223558Y0244963D03*
X0223243Y0254963D03*
X0219464Y0255435D03*
X0219354Y0265278D03*
X0219354Y0266065D03*
X0224393Y0266065D03*
X0224393Y0266222D03*
X0224393Y0265907D03*
X0224393Y0265750D03*
X0224393Y0265593D03*
X0224393Y0265435D03*
X0224393Y0265278D03*
X0224393Y0265120D03*
X0235322Y0273703D03*
X0235480Y0274018D03*
X0235480Y0277482D03*
X0234822Y0283703D03*
X0234980Y0284018D03*
X0234980Y0287482D03*
X0229850Y0294490D03*
X0223393Y0295750D03*
X0219613Y0296065D03*
X0219306Y0303388D03*
X0219547Y0287640D03*
X0058480Y0277482D03*
X0058480Y0274018D03*
X0058322Y0273703D03*
X0047393Y0266222D03*
X0047393Y0266065D03*
X0047393Y0265907D03*
X0047393Y0265750D03*
X0047393Y0265593D03*
X0047393Y0265435D03*
X0047393Y0265278D03*
X0047393Y0265120D03*
X0042354Y0265278D03*
X0042354Y0266065D03*
X0042464Y0255435D03*
X0046243Y0254963D03*
X0046558Y0244963D03*
X0046578Y0234963D03*
X0048940Y0233388D03*
X0053507Y0234648D03*
X0053350Y0224648D03*
X0046421Y0223388D03*
X0052043Y0216537D03*
X0055035Y0213860D03*
X0045523Y0207797D03*
X0043161Y0204963D03*
X0043161Y0204805D03*
X0047255Y0203703D03*
X0042594Y0213860D03*
X0042798Y0235435D03*
X0057822Y0283703D03*
X0057980Y0284018D03*
X0057980Y0287482D03*
X0052850Y0294490D03*
X0046393Y0295750D03*
X0042613Y0296065D03*
X0042306Y0303388D03*
X0042547Y0287640D03*
X0042306Y0151388D03*
X0042613Y0144065D03*
X0046393Y0143750D03*
X0052850Y0142490D03*
X0057980Y0135482D03*
X0057980Y0132018D03*
X0057822Y0131703D03*
X0058480Y0125482D03*
X0058480Y0122018D03*
X0058322Y0121703D03*
X0047393Y0114222D03*
X0047393Y0114065D03*
X0047393Y0113907D03*
X0047393Y0113750D03*
X0047393Y0113593D03*
X0047393Y0113435D03*
X0047393Y0113278D03*
X0047393Y0113120D03*
X0042354Y0113278D03*
X0042354Y0114065D03*
X0042464Y0103435D03*
X0046243Y0102963D03*
X0046558Y0092963D03*
X0046578Y0082963D03*
X0048940Y0081388D03*
X0053507Y0082648D03*
X0053350Y0072648D03*
X0046421Y0071388D03*
X0052043Y0064537D03*
X0055035Y0061860D03*
X0045523Y0055797D03*
X0043161Y0052963D03*
X0043161Y0052805D03*
X0047255Y0051703D03*
X0042594Y0061860D03*
X0042798Y0083435D03*
X0042547Y0135640D03*
D36*
X0048999Y0151230D03*
X0049157Y0105010D03*
X0226157Y0105010D03*
X0225999Y0151230D03*
X0226157Y0257010D03*
X0225999Y0303230D03*
X0048999Y0303230D03*
X0049157Y0257010D03*
D37*
X0047050Y0228900D03*
X0047050Y0222600D03*
X0046688Y0217797D03*
X0046708Y0146900D03*
X0046708Y0140600D03*
X0047050Y0076900D03*
X0047050Y0070600D03*
X0046688Y0065797D03*
X0223688Y0065797D03*
X0224050Y0070600D03*
X0224050Y0076900D03*
X0223708Y0140600D03*
X0223708Y0146900D03*
X0223688Y0217797D03*
X0224050Y0222600D03*
X0224050Y0228900D03*
X0223708Y0292600D03*
X0223708Y0298900D03*
X0046708Y0298900D03*
X0046708Y0292600D03*
D38*
X0046787Y0292758D03*
X0046787Y0298742D03*
X0047129Y0228742D03*
X0047129Y0222758D03*
X0046787Y0146742D03*
X0046787Y0140758D03*
X0047129Y0076742D03*
X0047129Y0070758D03*
X0224129Y0070758D03*
X0224129Y0076742D03*
X0223787Y0140758D03*
X0223787Y0146742D03*
X0224129Y0222758D03*
X0224129Y0228742D03*
X0223787Y0292758D03*
X0223787Y0298742D03*
D39*
X0223944Y0298585D03*
X0223944Y0292915D03*
X0224129Y0238742D03*
X0224129Y0232758D03*
X0224287Y0228585D03*
X0224287Y0222915D03*
X0223944Y0146585D03*
X0223944Y0140915D03*
X0224129Y0086742D03*
X0224129Y0080758D03*
X0224287Y0076585D03*
X0224287Y0070915D03*
X0047287Y0070915D03*
X0047287Y0076585D03*
X0047129Y0080758D03*
X0047129Y0086742D03*
X0046944Y0140915D03*
X0046944Y0146585D03*
X0047287Y0222915D03*
X0047287Y0228585D03*
X0047129Y0232758D03*
X0047129Y0238742D03*
X0046944Y0292915D03*
X0046944Y0298585D03*
D40*
X0047023Y0298427D03*
X0047023Y0293073D03*
X0047365Y0228427D03*
X0047023Y0146427D03*
X0047023Y0141073D03*
X0047365Y0076427D03*
X0224365Y0076427D03*
X0224023Y0141073D03*
X0224023Y0146427D03*
X0224365Y0228427D03*
X0224023Y0293073D03*
X0224023Y0298427D03*
D41*
X0224574Y0297325D03*
X0224917Y0227325D03*
X0224574Y0145325D03*
X0224917Y0075325D03*
X0047917Y0075325D03*
X0047574Y0145325D03*
X0047917Y0227325D03*
X0047574Y0297325D03*
D42*
X0047653Y0297167D03*
X0047995Y0227167D03*
X0047653Y0145167D03*
X0047995Y0075167D03*
X0224653Y0145167D03*
X0224995Y0075167D03*
X0224995Y0227167D03*
X0224653Y0297167D03*
D43*
X0224732Y0297010D03*
X0224917Y0237325D03*
X0225074Y0227010D03*
X0224732Y0145010D03*
X0224917Y0085325D03*
X0225074Y0075010D03*
X0048074Y0075010D03*
X0047917Y0085325D03*
X0047732Y0145010D03*
X0048074Y0227010D03*
X0047917Y0237325D03*
X0047732Y0297010D03*
D44*
X0047810Y0296852D03*
X0047550Y0268900D03*
X0047550Y0262600D03*
X0047995Y0237167D03*
X0047810Y0144852D03*
X0047550Y0116900D03*
X0047550Y0110600D03*
X0047995Y0085167D03*
X0224550Y0110600D03*
X0224550Y0116900D03*
X0224810Y0144852D03*
X0224995Y0085167D03*
X0224995Y0237167D03*
X0224550Y0262600D03*
X0224550Y0268900D03*
X0224810Y0296852D03*
D45*
X0230007Y0296695D03*
X0230007Y0296537D03*
X0230007Y0294963D03*
X0230007Y0294805D03*
X0235137Y0287010D03*
X0235137Y0286852D03*
X0235137Y0286695D03*
X0235137Y0284805D03*
X0235137Y0284648D03*
X0235137Y0284490D03*
X0235637Y0277010D03*
X0235637Y0276852D03*
X0235637Y0276695D03*
X0235637Y0274805D03*
X0235637Y0274648D03*
X0235637Y0274490D03*
X0231795Y0264490D03*
X0231637Y0264333D03*
X0231637Y0264175D03*
X0231480Y0264018D03*
X0219511Y0265593D03*
X0219511Y0265750D03*
X0223086Y0254805D03*
X0220094Y0245593D03*
X0223401Y0244805D03*
X0230507Y0236695D03*
X0230665Y0236380D03*
X0230665Y0235120D03*
X0230350Y0226695D03*
X0230507Y0226380D03*
X0230507Y0225120D03*
X0231877Y0213703D03*
X0220318Y0204333D03*
X0220318Y0204175D03*
X0230007Y0144695D03*
X0230007Y0144537D03*
X0230007Y0142963D03*
X0230007Y0142805D03*
X0235137Y0135010D03*
X0235137Y0134852D03*
X0235137Y0134695D03*
X0235137Y0132805D03*
X0235137Y0132648D03*
X0235137Y0132490D03*
X0235637Y0125010D03*
X0235637Y0124852D03*
X0235637Y0124695D03*
X0235637Y0122805D03*
X0235637Y0122648D03*
X0235637Y0122490D03*
X0231795Y0112490D03*
X0231637Y0112333D03*
X0231637Y0112175D03*
X0231480Y0112018D03*
X0219511Y0113593D03*
X0219511Y0113750D03*
X0223086Y0102805D03*
X0220094Y0093593D03*
X0223401Y0092805D03*
X0230507Y0084695D03*
X0230665Y0084380D03*
X0230665Y0083120D03*
X0230350Y0074695D03*
X0230507Y0074380D03*
X0230507Y0073120D03*
X0231877Y0061703D03*
X0220318Y0052333D03*
X0220318Y0052175D03*
X0225243Y0125797D03*
X0223798Y0135797D03*
X0058637Y0125010D03*
X0058637Y0124852D03*
X0058637Y0124695D03*
X0058637Y0122805D03*
X0058637Y0122648D03*
X0058637Y0122490D03*
X0054795Y0112490D03*
X0054637Y0112333D03*
X0054637Y0112175D03*
X0054480Y0112018D03*
X0042511Y0113593D03*
X0042511Y0113750D03*
X0046086Y0102805D03*
X0043094Y0093593D03*
X0046401Y0092805D03*
X0053507Y0084695D03*
X0053665Y0084380D03*
X0053665Y0083120D03*
X0053350Y0074695D03*
X0053507Y0074380D03*
X0053507Y0073120D03*
X0054877Y0061703D03*
X0043318Y0052333D03*
X0043318Y0052175D03*
X0048243Y0125797D03*
X0058137Y0132490D03*
X0058137Y0132648D03*
X0058137Y0132805D03*
X0058137Y0134695D03*
X0058137Y0134852D03*
X0058137Y0135010D03*
X0053007Y0142805D03*
X0053007Y0142963D03*
X0053007Y0144537D03*
X0053007Y0144695D03*
X0046798Y0135797D03*
X0043318Y0204175D03*
X0043318Y0204333D03*
X0054877Y0213703D03*
X0053507Y0225120D03*
X0053507Y0226380D03*
X0053350Y0226695D03*
X0053665Y0235120D03*
X0053665Y0236380D03*
X0053507Y0236695D03*
X0046401Y0244805D03*
X0043094Y0245593D03*
X0046086Y0254805D03*
X0042511Y0265593D03*
X0042511Y0265750D03*
X0054480Y0264018D03*
X0054637Y0264175D03*
X0054637Y0264333D03*
X0054795Y0264490D03*
X0058637Y0274490D03*
X0058637Y0274648D03*
X0058637Y0274805D03*
X0058637Y0276695D03*
X0058637Y0276852D03*
X0058637Y0277010D03*
X0058137Y0284490D03*
X0058137Y0284648D03*
X0058137Y0284805D03*
X0058137Y0286695D03*
X0058137Y0286852D03*
X0058137Y0287010D03*
X0053007Y0294805D03*
X0053007Y0294963D03*
X0053007Y0296537D03*
X0053007Y0296695D03*
X0046798Y0287797D03*
X0048243Y0277797D03*
X0223798Y0287797D03*
X0225243Y0277797D03*
D46*
X0226676Y0267797D03*
X0231401Y0267482D03*
X0231558Y0267325D03*
X0231558Y0267167D03*
X0231716Y0267010D03*
X0231716Y0266852D03*
X0231716Y0266695D03*
X0231716Y0264805D03*
X0231716Y0264648D03*
X0235716Y0274963D03*
X0235716Y0275120D03*
X0235716Y0275278D03*
X0235716Y0275435D03*
X0235716Y0275593D03*
X0235716Y0275750D03*
X0235716Y0275907D03*
X0235716Y0276065D03*
X0235716Y0276222D03*
X0235716Y0276380D03*
X0235716Y0276537D03*
X0235216Y0284963D03*
X0235216Y0285120D03*
X0235216Y0285278D03*
X0235216Y0285435D03*
X0235216Y0285593D03*
X0235216Y0285750D03*
X0235216Y0285907D03*
X0235216Y0286065D03*
X0235216Y0286222D03*
X0235216Y0286380D03*
X0235216Y0286537D03*
X0230086Y0295120D03*
X0230086Y0296380D03*
X0219700Y0255750D03*
X0219700Y0255593D03*
X0220173Y0245750D03*
X0220035Y0235750D03*
X0220035Y0235593D03*
X0223342Y0234805D03*
X0230743Y0235278D03*
X0230743Y0235435D03*
X0230743Y0235593D03*
X0230743Y0235750D03*
X0230743Y0235907D03*
X0230743Y0236065D03*
X0230743Y0236222D03*
X0232771Y0244963D03*
X0232928Y0245120D03*
X0233086Y0245278D03*
X0233086Y0245435D03*
X0233086Y0245593D03*
X0233086Y0245750D03*
X0233086Y0245907D03*
X0233086Y0246065D03*
X0233086Y0246222D03*
X0232928Y0246380D03*
X0232771Y0246537D03*
X0230586Y0226222D03*
X0230586Y0226065D03*
X0230586Y0225907D03*
X0230586Y0225750D03*
X0230586Y0225593D03*
X0230586Y0225435D03*
X0230586Y0225278D03*
X0231798Y0217797D03*
X0219830Y0213703D03*
X0220397Y0204018D03*
X0220397Y0203860D03*
X0227641Y0205120D03*
X0230086Y0144380D03*
X0230086Y0143120D03*
X0235216Y0134537D03*
X0235216Y0134380D03*
X0235216Y0134222D03*
X0235216Y0134065D03*
X0235216Y0133907D03*
X0235216Y0133750D03*
X0235216Y0133593D03*
X0235216Y0133435D03*
X0235216Y0133278D03*
X0235216Y0133120D03*
X0235216Y0132963D03*
X0235716Y0124537D03*
X0235716Y0124380D03*
X0235716Y0124222D03*
X0235716Y0124065D03*
X0235716Y0123907D03*
X0235716Y0123750D03*
X0235716Y0123593D03*
X0235716Y0123435D03*
X0235716Y0123278D03*
X0235716Y0123120D03*
X0235716Y0122963D03*
X0231401Y0115482D03*
X0231558Y0115325D03*
X0231558Y0115167D03*
X0231716Y0115010D03*
X0231716Y0114852D03*
X0231716Y0114695D03*
X0231716Y0112805D03*
X0231716Y0112648D03*
X0226676Y0115797D03*
X0219700Y0103750D03*
X0219700Y0103593D03*
X0220173Y0093750D03*
X0232771Y0092963D03*
X0232928Y0093120D03*
X0233086Y0093278D03*
X0233086Y0093435D03*
X0233086Y0093593D03*
X0233086Y0093750D03*
X0233086Y0093907D03*
X0233086Y0094065D03*
X0233086Y0094222D03*
X0232928Y0094380D03*
X0232771Y0094537D03*
X0230743Y0084222D03*
X0230743Y0084065D03*
X0230743Y0083907D03*
X0230743Y0083750D03*
X0230743Y0083593D03*
X0230743Y0083435D03*
X0230743Y0083278D03*
X0223342Y0082805D03*
X0220035Y0083593D03*
X0220035Y0083750D03*
X0230586Y0074222D03*
X0230586Y0074065D03*
X0230586Y0073907D03*
X0230586Y0073750D03*
X0230586Y0073593D03*
X0230586Y0073435D03*
X0230586Y0073278D03*
X0231798Y0065797D03*
X0219830Y0061703D03*
X0220397Y0052018D03*
X0220397Y0051860D03*
X0227641Y0053120D03*
X0058716Y0122963D03*
X0058716Y0123120D03*
X0058716Y0123278D03*
X0058716Y0123435D03*
X0058716Y0123593D03*
X0058716Y0123750D03*
X0058716Y0123907D03*
X0058716Y0124065D03*
X0058716Y0124222D03*
X0058716Y0124380D03*
X0058716Y0124537D03*
X0058216Y0132963D03*
X0058216Y0133120D03*
X0058216Y0133278D03*
X0058216Y0133435D03*
X0058216Y0133593D03*
X0058216Y0133750D03*
X0058216Y0133907D03*
X0058216Y0134065D03*
X0058216Y0134222D03*
X0058216Y0134380D03*
X0058216Y0134537D03*
X0053086Y0143120D03*
X0053086Y0144380D03*
X0049676Y0115797D03*
X0054401Y0115482D03*
X0054558Y0115325D03*
X0054558Y0115167D03*
X0054716Y0115010D03*
X0054716Y0114852D03*
X0054716Y0114695D03*
X0054716Y0112805D03*
X0054716Y0112648D03*
X0042700Y0103750D03*
X0042700Y0103593D03*
X0043173Y0093750D03*
X0043035Y0083750D03*
X0043035Y0083593D03*
X0046342Y0082805D03*
X0053743Y0083278D03*
X0053743Y0083435D03*
X0053743Y0083593D03*
X0053743Y0083750D03*
X0053743Y0083907D03*
X0053743Y0084065D03*
X0053743Y0084222D03*
X0055771Y0092963D03*
X0055928Y0093120D03*
X0056086Y0093278D03*
X0056086Y0093435D03*
X0056086Y0093593D03*
X0056086Y0093750D03*
X0056086Y0093907D03*
X0056086Y0094065D03*
X0056086Y0094222D03*
X0055928Y0094380D03*
X0055771Y0094537D03*
X0053586Y0074222D03*
X0053586Y0074065D03*
X0053586Y0073907D03*
X0053586Y0073750D03*
X0053586Y0073593D03*
X0053586Y0073435D03*
X0053586Y0073278D03*
X0054798Y0065797D03*
X0042830Y0061703D03*
X0043397Y0052018D03*
X0043397Y0051860D03*
X0050641Y0053120D03*
X0043397Y0203860D03*
X0043397Y0204018D03*
X0050641Y0205120D03*
X0042830Y0213703D03*
X0054798Y0217797D03*
X0053586Y0225278D03*
X0053586Y0225435D03*
X0053586Y0225593D03*
X0053586Y0225750D03*
X0053586Y0225907D03*
X0053586Y0226065D03*
X0053586Y0226222D03*
X0053743Y0235278D03*
X0053743Y0235435D03*
X0053743Y0235593D03*
X0053743Y0235750D03*
X0053743Y0235907D03*
X0053743Y0236065D03*
X0053743Y0236222D03*
X0046342Y0234805D03*
X0043035Y0235593D03*
X0043035Y0235750D03*
X0043173Y0245750D03*
X0042700Y0255593D03*
X0042700Y0255750D03*
X0049676Y0267797D03*
X0054401Y0267482D03*
X0054558Y0267325D03*
X0054558Y0267167D03*
X0054716Y0267010D03*
X0054716Y0266852D03*
X0054716Y0266695D03*
X0054716Y0264805D03*
X0054716Y0264648D03*
X0058716Y0274963D03*
X0058716Y0275120D03*
X0058716Y0275278D03*
X0058716Y0275435D03*
X0058716Y0275593D03*
X0058716Y0275750D03*
X0058716Y0275907D03*
X0058716Y0276065D03*
X0058716Y0276222D03*
X0058716Y0276380D03*
X0058716Y0276537D03*
X0058216Y0284963D03*
X0058216Y0285120D03*
X0058216Y0285278D03*
X0058216Y0285435D03*
X0058216Y0285593D03*
X0058216Y0285750D03*
X0058216Y0285907D03*
X0058216Y0286065D03*
X0058216Y0286222D03*
X0058216Y0286380D03*
X0058216Y0286537D03*
X0053086Y0295120D03*
X0053086Y0296380D03*
X0055771Y0246537D03*
X0055928Y0246380D03*
X0056086Y0246222D03*
X0056086Y0246065D03*
X0056086Y0245907D03*
X0056086Y0245750D03*
X0056086Y0245593D03*
X0056086Y0245435D03*
X0056086Y0245278D03*
X0055928Y0245120D03*
X0055771Y0244963D03*
D47*
X0043476Y0051703D03*
X0050562Y0052963D03*
X0055692Y0094695D03*
X0055850Y0102963D03*
X0056007Y0103120D03*
X0056165Y0103278D03*
X0056165Y0103435D03*
X0056165Y0103593D03*
X0056165Y0103750D03*
X0056165Y0103907D03*
X0056165Y0104065D03*
X0056165Y0104222D03*
X0056007Y0104380D03*
X0055850Y0104537D03*
X0054165Y0111703D03*
X0054322Y0111860D03*
X0054795Y0114065D03*
X0054795Y0114222D03*
X0054795Y0114380D03*
X0054795Y0114537D03*
X0054322Y0115640D03*
X0042861Y0135797D03*
X0053165Y0143278D03*
X0053165Y0143435D03*
X0053165Y0143593D03*
X0053165Y0143750D03*
X0053165Y0143907D03*
X0053165Y0144065D03*
X0053165Y0144222D03*
X0043476Y0203703D03*
X0050562Y0204963D03*
X0055692Y0246695D03*
X0055850Y0254963D03*
X0056007Y0255120D03*
X0056165Y0255278D03*
X0056165Y0255435D03*
X0056165Y0255593D03*
X0056165Y0255750D03*
X0056165Y0255907D03*
X0056165Y0256065D03*
X0056165Y0256222D03*
X0056007Y0256380D03*
X0055850Y0256537D03*
X0054165Y0263703D03*
X0054322Y0263860D03*
X0054795Y0266065D03*
X0054795Y0266222D03*
X0054795Y0266380D03*
X0054795Y0266537D03*
X0054322Y0267640D03*
X0042861Y0287797D03*
X0053165Y0295278D03*
X0053165Y0295435D03*
X0053165Y0295593D03*
X0053165Y0295750D03*
X0053165Y0295907D03*
X0053165Y0296065D03*
X0053165Y0296222D03*
X0219861Y0287797D03*
X0230165Y0295278D03*
X0230165Y0295435D03*
X0230165Y0295593D03*
X0230165Y0295750D03*
X0230165Y0295907D03*
X0230165Y0296065D03*
X0230165Y0296222D03*
X0231322Y0267640D03*
X0231795Y0266537D03*
X0231795Y0266380D03*
X0231795Y0266222D03*
X0231795Y0266065D03*
X0231322Y0263860D03*
X0231165Y0263703D03*
X0232850Y0256537D03*
X0233007Y0256380D03*
X0233165Y0256222D03*
X0233165Y0256065D03*
X0233165Y0255907D03*
X0233165Y0255750D03*
X0233165Y0255593D03*
X0233165Y0255435D03*
X0233165Y0255278D03*
X0233007Y0255120D03*
X0232850Y0254963D03*
X0232692Y0246695D03*
X0227562Y0204963D03*
X0220476Y0203703D03*
X0230165Y0144222D03*
X0230165Y0144065D03*
X0230165Y0143907D03*
X0230165Y0143750D03*
X0230165Y0143593D03*
X0230165Y0143435D03*
X0230165Y0143278D03*
X0219861Y0135797D03*
X0231322Y0115640D03*
X0231795Y0114537D03*
X0231795Y0114380D03*
X0231795Y0114222D03*
X0231795Y0114065D03*
X0231322Y0111860D03*
X0231165Y0111703D03*
X0232850Y0104537D03*
X0233007Y0104380D03*
X0233165Y0104222D03*
X0233165Y0104065D03*
X0233165Y0103907D03*
X0233165Y0103750D03*
X0233165Y0103593D03*
X0233165Y0103435D03*
X0233165Y0103278D03*
X0233007Y0103120D03*
X0232850Y0102963D03*
X0232692Y0094695D03*
X0227562Y0052963D03*
X0220476Y0051703D03*
D48*
X0220239Y0052490D03*
X0220239Y0052648D03*
X0219673Y0065640D03*
X0229121Y0064380D03*
X0229121Y0064222D03*
X0231956Y0065640D03*
X0230428Y0072805D03*
X0230428Y0072963D03*
X0230428Y0074537D03*
X0225704Y0074695D03*
X0230586Y0082805D03*
X0230586Y0082963D03*
X0230586Y0084537D03*
X0219432Y0113435D03*
X0219432Y0113907D03*
X0219625Y0131703D03*
X0219692Y0141388D03*
X0219692Y0141545D03*
X0219692Y0141703D03*
X0219692Y0141860D03*
X0219692Y0142018D03*
X0219692Y0142175D03*
X0219692Y0142333D03*
X0219692Y0142490D03*
X0219692Y0142648D03*
X0219692Y0142805D03*
X0219692Y0142963D03*
X0219692Y0143120D03*
X0219692Y0143278D03*
X0219692Y0143435D03*
X0219692Y0143593D03*
X0219692Y0143750D03*
X0219692Y0143907D03*
X0229928Y0142648D03*
X0234901Y0135640D03*
X0235058Y0135325D03*
X0235058Y0135167D03*
X0235058Y0132333D03*
X0235058Y0132175D03*
X0234901Y0131860D03*
X0235401Y0125640D03*
X0235558Y0125325D03*
X0235558Y0125167D03*
X0235558Y0122333D03*
X0235558Y0122175D03*
X0235401Y0121860D03*
X0220239Y0204490D03*
X0220239Y0204648D03*
X0219673Y0217640D03*
X0229121Y0216380D03*
X0229121Y0216222D03*
X0231956Y0217640D03*
X0230428Y0224805D03*
X0230428Y0224963D03*
X0230428Y0226537D03*
X0225704Y0226695D03*
X0230586Y0234805D03*
X0230586Y0234963D03*
X0230586Y0236537D03*
X0219432Y0265435D03*
X0219432Y0265907D03*
X0235401Y0273860D03*
X0235558Y0274175D03*
X0235558Y0274333D03*
X0235558Y0277167D03*
X0235558Y0277325D03*
X0235401Y0277640D03*
X0234901Y0283860D03*
X0235058Y0284175D03*
X0235058Y0284333D03*
X0235058Y0287167D03*
X0235058Y0287325D03*
X0234901Y0287640D03*
X0229928Y0294648D03*
X0219692Y0294648D03*
X0219692Y0294805D03*
X0219692Y0294963D03*
X0219692Y0295120D03*
X0219692Y0295278D03*
X0219692Y0295435D03*
X0219692Y0295593D03*
X0219692Y0295750D03*
X0219692Y0295907D03*
X0219692Y0294490D03*
X0219692Y0294333D03*
X0219692Y0294175D03*
X0219692Y0294018D03*
X0219692Y0293860D03*
X0219692Y0293703D03*
X0219692Y0293545D03*
X0219692Y0293388D03*
X0219625Y0283703D03*
X0058558Y0277325D03*
X0058558Y0277167D03*
X0058401Y0277640D03*
X0058558Y0274333D03*
X0058558Y0274175D03*
X0058401Y0273860D03*
X0057901Y0283860D03*
X0058058Y0284175D03*
X0058058Y0284333D03*
X0058058Y0287167D03*
X0058058Y0287325D03*
X0057901Y0287640D03*
X0052928Y0294648D03*
X0042692Y0294648D03*
X0042692Y0294805D03*
X0042692Y0294963D03*
X0042692Y0295120D03*
X0042692Y0295278D03*
X0042692Y0295435D03*
X0042692Y0295593D03*
X0042692Y0295750D03*
X0042692Y0295907D03*
X0042692Y0294490D03*
X0042692Y0294333D03*
X0042692Y0294175D03*
X0042692Y0294018D03*
X0042692Y0293860D03*
X0042692Y0293703D03*
X0042692Y0293545D03*
X0042692Y0293388D03*
X0042625Y0283703D03*
X0042432Y0265907D03*
X0042432Y0265435D03*
X0053586Y0236537D03*
X0053586Y0234963D03*
X0053586Y0234805D03*
X0053428Y0226537D03*
X0053428Y0224963D03*
X0053428Y0224805D03*
X0048704Y0226695D03*
X0052121Y0216380D03*
X0052121Y0216222D03*
X0054956Y0217640D03*
X0042673Y0217640D03*
X0043239Y0204648D03*
X0043239Y0204490D03*
X0042692Y0143907D03*
X0042692Y0143750D03*
X0042692Y0143593D03*
X0042692Y0143435D03*
X0042692Y0143278D03*
X0042692Y0143120D03*
X0042692Y0142963D03*
X0042692Y0142805D03*
X0042692Y0142648D03*
X0042692Y0142490D03*
X0042692Y0142333D03*
X0042692Y0142175D03*
X0042692Y0142018D03*
X0042692Y0141860D03*
X0042692Y0141703D03*
X0042692Y0141545D03*
X0042692Y0141388D03*
X0052928Y0142648D03*
X0057901Y0135640D03*
X0058058Y0135325D03*
X0058058Y0135167D03*
X0058058Y0132333D03*
X0058058Y0132175D03*
X0057901Y0131860D03*
X0058401Y0125640D03*
X0058558Y0125325D03*
X0058558Y0125167D03*
X0058558Y0122333D03*
X0058558Y0122175D03*
X0058401Y0121860D03*
X0042432Y0113907D03*
X0042432Y0113435D03*
X0042625Y0131703D03*
X0053586Y0084537D03*
X0053586Y0082963D03*
X0053586Y0082805D03*
X0053428Y0074537D03*
X0053428Y0072963D03*
X0053428Y0072805D03*
X0048704Y0074695D03*
X0052121Y0064380D03*
X0052121Y0064222D03*
X0054956Y0065640D03*
X0042673Y0065640D03*
X0043239Y0052648D03*
X0043239Y0052490D03*
D49*
X0047287Y0080915D03*
X0047287Y0086585D03*
X0047102Y0141230D03*
X0047287Y0232915D03*
X0047287Y0238585D03*
X0047102Y0293230D03*
X0224102Y0293230D03*
X0224287Y0238585D03*
X0224287Y0232915D03*
X0224102Y0141230D03*
X0224287Y0086585D03*
X0224287Y0080915D03*
D50*
X0227212Y0120915D03*
X0227212Y0126585D03*
X0226712Y0130915D03*
X0226712Y0136585D03*
X0227212Y0272915D03*
X0227212Y0278585D03*
X0226712Y0282915D03*
X0226712Y0288585D03*
X0050212Y0278585D03*
X0049712Y0282915D03*
X0049712Y0288585D03*
X0050212Y0272915D03*
X0049712Y0136585D03*
X0049712Y0130915D03*
X0050212Y0126585D03*
X0050212Y0120915D03*
D51*
X0050369Y0121073D03*
X0050369Y0126427D03*
X0049869Y0131073D03*
X0049869Y0136427D03*
X0050369Y0273073D03*
X0050369Y0278427D03*
X0049869Y0283073D03*
X0049869Y0288427D03*
X0226869Y0288427D03*
X0226869Y0283073D03*
X0227369Y0278427D03*
X0227369Y0273073D03*
X0226869Y0136427D03*
X0226869Y0131073D03*
X0227369Y0126427D03*
X0227369Y0121073D03*
D52*
X0227448Y0121230D03*
X0227448Y0126270D03*
X0226948Y0131230D03*
X0226948Y0136270D03*
X0227448Y0273230D03*
X0227448Y0278270D03*
X0226948Y0283230D03*
X0226948Y0288270D03*
X0050448Y0278270D03*
X0049948Y0283230D03*
X0049948Y0288270D03*
X0050448Y0273230D03*
X0049948Y0136270D03*
X0049948Y0131230D03*
X0050448Y0126270D03*
X0050448Y0121230D03*
D53*
X0050527Y0121388D03*
X0050527Y0126112D03*
X0050027Y0131388D03*
X0050027Y0136112D03*
X0050527Y0273388D03*
X0050527Y0278112D03*
X0050027Y0283388D03*
X0050027Y0288112D03*
X0227027Y0288112D03*
X0227027Y0283388D03*
X0227527Y0278112D03*
X0227527Y0273388D03*
X0227027Y0136112D03*
X0227027Y0131388D03*
X0227527Y0126112D03*
X0227527Y0121388D03*
D54*
X0227606Y0121545D03*
X0227606Y0125955D03*
X0227106Y0131545D03*
X0227106Y0135955D03*
X0227606Y0273545D03*
X0227606Y0277955D03*
X0227106Y0283545D03*
X0227106Y0287955D03*
X0050606Y0277955D03*
X0050606Y0273545D03*
X0050106Y0283545D03*
X0050106Y0287955D03*
X0050106Y0135955D03*
X0050106Y0131545D03*
X0050606Y0125955D03*
X0050606Y0121545D03*
D55*
X0054200Y0135797D03*
X0231200Y0135797D03*
X0231200Y0287797D03*
X0054200Y0287797D03*
D56*
X0055094Y0277797D03*
X0232094Y0277797D03*
X0232094Y0125797D03*
X0055094Y0125797D03*
D57*
X0043755Y0125797D03*
X0054401Y0113435D03*
X0055298Y0102648D03*
X0054984Y0092490D03*
X0220755Y0125797D03*
X0231401Y0113435D03*
X0232298Y0102648D03*
X0231984Y0092490D03*
X0231984Y0244490D03*
X0232298Y0254648D03*
X0231401Y0265435D03*
X0220755Y0277797D03*
X0054401Y0265435D03*
X0055298Y0254648D03*
X0054984Y0244490D03*
X0043755Y0277797D03*
D58*
X0047787Y0268742D03*
X0047787Y0262758D03*
X0048369Y0248742D03*
X0048369Y0242758D03*
X0047787Y0116742D03*
X0047787Y0110758D03*
X0048369Y0096742D03*
X0048369Y0090758D03*
X0225369Y0090758D03*
X0225369Y0096742D03*
X0224787Y0110758D03*
X0224787Y0116742D03*
X0225369Y0242758D03*
X0225369Y0248742D03*
X0224787Y0262758D03*
X0224787Y0268742D03*
D59*
X0224944Y0268585D03*
X0224944Y0262915D03*
X0225527Y0248585D03*
X0225527Y0242915D03*
X0224944Y0116585D03*
X0224944Y0110915D03*
X0225527Y0096585D03*
X0225527Y0090915D03*
X0048527Y0090915D03*
X0048527Y0096585D03*
X0047944Y0110915D03*
X0047944Y0116585D03*
X0048527Y0242915D03*
X0048527Y0248585D03*
X0047944Y0262915D03*
X0047944Y0268585D03*
D60*
X0048102Y0268427D03*
X0048102Y0263073D03*
X0048212Y0258742D03*
X0048212Y0252758D03*
X0048684Y0243230D03*
X0048102Y0116427D03*
X0048102Y0111073D03*
X0048212Y0106742D03*
X0048212Y0100758D03*
X0048684Y0091230D03*
X0225212Y0100758D03*
X0225212Y0106742D03*
X0225102Y0111073D03*
X0225102Y0116427D03*
X0225684Y0091230D03*
X0225684Y0243230D03*
X0225212Y0252758D03*
X0225212Y0258742D03*
X0225102Y0263073D03*
X0225102Y0268427D03*
D61*
X0225180Y0268270D03*
X0225180Y0263230D03*
X0225180Y0116270D03*
X0225180Y0111230D03*
X0048180Y0111230D03*
X0048180Y0116270D03*
X0048180Y0263230D03*
X0048180Y0268270D03*
D62*
X0048259Y0268112D03*
X0048259Y0263388D03*
X0048369Y0258585D03*
X0048369Y0252915D03*
X0048259Y0116112D03*
X0048259Y0111388D03*
X0048369Y0106585D03*
X0048369Y0100915D03*
X0225369Y0100915D03*
X0225369Y0106585D03*
X0225259Y0111388D03*
X0225259Y0116112D03*
X0225369Y0252915D03*
X0225369Y0258585D03*
X0225259Y0263388D03*
X0225259Y0268112D03*
D63*
X0231007Y0267797D03*
X0231637Y0265750D03*
X0232692Y0254805D03*
X0222771Y0254648D03*
X0223086Y0244648D03*
X0222928Y0244490D03*
X0232535Y0244805D03*
X0220428Y0225435D03*
X0220428Y0225278D03*
X0220428Y0225120D03*
X0220428Y0224963D03*
X0220428Y0224805D03*
X0220428Y0224648D03*
X0231007Y0115797D03*
X0231637Y0113750D03*
X0232692Y0102805D03*
X0222771Y0102648D03*
X0223086Y0092648D03*
X0222928Y0092490D03*
X0232535Y0092805D03*
X0220428Y0073435D03*
X0220428Y0073278D03*
X0220428Y0073120D03*
X0220428Y0072963D03*
X0220428Y0072805D03*
X0220428Y0072648D03*
X0055535Y0092805D03*
X0046086Y0092648D03*
X0045928Y0092490D03*
X0045771Y0102648D03*
X0055692Y0102805D03*
X0054637Y0113750D03*
X0054007Y0115797D03*
X0043428Y0073435D03*
X0043428Y0073278D03*
X0043428Y0073120D03*
X0043428Y0072963D03*
X0043428Y0072805D03*
X0043428Y0072648D03*
X0043428Y0224648D03*
X0043428Y0224805D03*
X0043428Y0224963D03*
X0043428Y0225120D03*
X0043428Y0225278D03*
X0043428Y0225435D03*
X0045928Y0244490D03*
X0046086Y0244648D03*
X0055535Y0244805D03*
X0055692Y0254805D03*
X0045771Y0254648D03*
X0054637Y0265750D03*
X0054007Y0267797D03*
D64*
X0054558Y0265593D03*
X0045424Y0267797D03*
X0045535Y0254490D03*
X0045869Y0234490D03*
X0045424Y0115797D03*
X0054558Y0113593D03*
X0045535Y0102490D03*
X0045869Y0082490D03*
X0222869Y0082490D03*
X0222535Y0102490D03*
X0222424Y0115797D03*
X0231558Y0113593D03*
X0222869Y0234490D03*
X0222535Y0254490D03*
X0231558Y0265593D03*
X0222424Y0267797D03*
D65*
X0231716Y0265907D03*
X0231716Y0264963D03*
X0232771Y0256695D03*
X0223027Y0234648D03*
X0220350Y0225593D03*
X0220350Y0224490D03*
X0231716Y0113907D03*
X0231716Y0112963D03*
X0232771Y0104695D03*
X0223027Y0082648D03*
X0220350Y0073593D03*
X0220350Y0072490D03*
X0055771Y0104695D03*
X0054716Y0112963D03*
X0054716Y0113907D03*
X0046027Y0082648D03*
X0043350Y0073593D03*
X0043350Y0072490D03*
X0043350Y0224490D03*
X0043350Y0225593D03*
X0046027Y0234648D03*
X0055771Y0256695D03*
X0054716Y0264963D03*
X0054716Y0265907D03*
D66*
X0054086Y0265278D03*
X0051539Y0237797D03*
X0050751Y0223073D03*
X0054086Y0113278D03*
X0051539Y0085797D03*
X0050751Y0071073D03*
X0227751Y0071073D03*
X0228539Y0085797D03*
X0231086Y0113278D03*
X0227751Y0223073D03*
X0228539Y0237797D03*
X0231086Y0265278D03*
D67*
X0230928Y0265120D03*
X0228539Y0237640D03*
X0226696Y0207797D03*
X0230928Y0113120D03*
X0228539Y0085640D03*
X0226696Y0055797D03*
X0053928Y0113120D03*
X0051539Y0085640D03*
X0049696Y0055797D03*
X0049696Y0207797D03*
X0051539Y0237640D03*
X0053928Y0265120D03*
D68*
X0048133Y0258900D03*
X0048133Y0252600D03*
X0048606Y0248427D03*
X0048606Y0243073D03*
X0048133Y0106900D03*
X0048133Y0100600D03*
X0048606Y0096427D03*
X0048606Y0091073D03*
X0225133Y0100600D03*
X0225606Y0096427D03*
X0225606Y0091073D03*
X0225133Y0106900D03*
X0225606Y0243073D03*
X0225606Y0248427D03*
X0225133Y0252600D03*
X0225133Y0258900D03*
D69*
X0229228Y0258270D03*
X0229385Y0258112D03*
X0229543Y0257955D03*
X0229700Y0247640D03*
X0227200Y0227640D03*
X0229228Y0106270D03*
X0229385Y0106112D03*
X0229543Y0105955D03*
X0229700Y0095640D03*
X0227200Y0075640D03*
X0052700Y0095640D03*
X0052543Y0105955D03*
X0052385Y0106112D03*
X0052228Y0106270D03*
X0050200Y0075640D03*
X0050200Y0227640D03*
X0052700Y0247640D03*
X0052543Y0257955D03*
X0052385Y0258112D03*
X0052228Y0258270D03*
D70*
X0052621Y0257797D03*
X0050909Y0226852D03*
X0052621Y0105797D03*
X0050909Y0074852D03*
X0227909Y0074852D03*
X0229621Y0105797D03*
X0227909Y0226852D03*
X0229621Y0257797D03*
D71*
X0229621Y0257640D03*
X0227121Y0227482D03*
X0229621Y0105640D03*
X0227121Y0075482D03*
X0050121Y0075482D03*
X0052621Y0105640D03*
X0050121Y0227482D03*
X0052621Y0257640D03*
D72*
X0052621Y0257482D03*
X0229621Y0257482D03*
X0229621Y0105482D03*
X0052621Y0105482D03*
D73*
X0048999Y0105325D03*
X0225999Y0105325D03*
X0225999Y0257325D03*
X0048999Y0257325D03*
D74*
X0049078Y0257167D03*
X0226078Y0257167D03*
X0226078Y0105167D03*
X0049078Y0105167D03*
D75*
X0055062Y0102490D03*
X0232062Y0102490D03*
X0232062Y0254490D03*
X0055062Y0254490D03*
D76*
X0048291Y0248900D03*
X0048291Y0242600D03*
X0048153Y0236852D03*
X0048291Y0096900D03*
X0048291Y0090600D03*
X0048153Y0084852D03*
X0225153Y0084852D03*
X0225291Y0090600D03*
X0225291Y0096900D03*
X0225153Y0236852D03*
X0225291Y0242600D03*
X0225291Y0248900D03*
D77*
X0229306Y0248270D03*
X0229464Y0248112D03*
X0229621Y0247955D03*
X0226964Y0228112D03*
X0229306Y0096270D03*
X0229464Y0096112D03*
X0229621Y0095955D03*
X0226964Y0076112D03*
X0052621Y0095955D03*
X0052464Y0096112D03*
X0052306Y0096270D03*
X0049964Y0076112D03*
X0049964Y0228112D03*
X0052621Y0247955D03*
X0052464Y0248112D03*
X0052306Y0248270D03*
D78*
X0052700Y0247797D03*
X0049728Y0228270D03*
X0050043Y0227955D03*
X0052700Y0095797D03*
X0049728Y0076270D03*
X0050043Y0075955D03*
X0226728Y0076270D03*
X0227043Y0075955D03*
X0229700Y0095797D03*
X0227043Y0227955D03*
X0226728Y0228270D03*
X0229700Y0247797D03*
D79*
X0229700Y0247482D03*
X0052700Y0247482D03*
X0052700Y0095482D03*
X0229700Y0095482D03*
D80*
X0226236Y0095167D03*
X0049236Y0095167D03*
X0049236Y0247167D03*
X0226236Y0247167D03*
D81*
X0226314Y0247010D03*
X0049314Y0247010D03*
X0049314Y0095010D03*
X0226314Y0095010D03*
D82*
X0226393Y0094852D03*
X0049393Y0094852D03*
X0049393Y0246852D03*
X0226393Y0246852D03*
D83*
X0232220Y0244648D03*
X0055220Y0244648D03*
X0055220Y0092648D03*
X0232220Y0092648D03*
D84*
X0224050Y0086900D03*
X0224050Y0080600D03*
X0047050Y0080600D03*
X0047050Y0086900D03*
X0047050Y0232600D03*
X0047050Y0238900D03*
X0224050Y0238900D03*
X0224050Y0232600D03*
D85*
X0224365Y0233073D03*
X0224365Y0238427D03*
X0047365Y0238427D03*
X0047365Y0233073D03*
X0047365Y0086427D03*
X0047365Y0081073D03*
X0224365Y0081073D03*
X0224365Y0086427D03*
D86*
X0228145Y0086270D03*
X0228302Y0086112D03*
X0228460Y0085955D03*
X0227987Y0071230D03*
X0050987Y0071230D03*
X0051460Y0085955D03*
X0051302Y0086112D03*
X0051145Y0086270D03*
X0050987Y0223230D03*
X0051460Y0237955D03*
X0051302Y0238112D03*
X0051145Y0238270D03*
X0228145Y0238270D03*
X0228302Y0238112D03*
X0228460Y0237955D03*
X0227987Y0223230D03*
D87*
X0228539Y0237482D03*
X0051539Y0237482D03*
X0051539Y0085482D03*
X0228539Y0085482D03*
D88*
X0225074Y0085010D03*
X0048074Y0085010D03*
X0048074Y0237010D03*
X0225074Y0237010D03*
D89*
X0224444Y0233230D03*
X0047444Y0233230D03*
X0047444Y0081230D03*
X0224444Y0081230D03*
D90*
X0227121Y0075797D03*
X0050121Y0075797D03*
X0050121Y0227797D03*
X0227121Y0227797D03*
D91*
X0221058Y0226852D03*
X0044058Y0226852D03*
X0044058Y0074852D03*
X0221058Y0074852D03*
D92*
X0221767Y0071230D03*
X0044767Y0071230D03*
X0044767Y0223230D03*
X0221767Y0223230D03*
D93*
X0221846Y0223073D03*
X0044846Y0223073D03*
X0044846Y0071073D03*
X0221846Y0071073D03*
D94*
X0224019Y0056900D03*
X0224019Y0056742D03*
X0224019Y0056585D03*
X0224019Y0056427D03*
X0224019Y0056270D03*
X0224019Y0056112D03*
X0224019Y0055955D03*
X0224019Y0051545D03*
X0224019Y0051388D03*
X0224019Y0051230D03*
X0224019Y0051073D03*
X0224019Y0050915D03*
X0224019Y0050758D03*
X0224019Y0050600D03*
X0047019Y0050600D03*
X0047019Y0050758D03*
X0047019Y0050915D03*
X0047019Y0051073D03*
X0047019Y0051230D03*
X0047019Y0051388D03*
X0047019Y0051545D03*
X0047019Y0055955D03*
X0047019Y0056112D03*
X0047019Y0056270D03*
X0047019Y0056427D03*
X0047019Y0056585D03*
X0047019Y0056742D03*
X0047019Y0056900D03*
X0047019Y0202600D03*
X0047019Y0202758D03*
X0047019Y0202915D03*
X0047019Y0203073D03*
X0047019Y0203230D03*
X0047019Y0203388D03*
X0047019Y0203545D03*
X0047019Y0207955D03*
X0047019Y0208112D03*
X0047019Y0208270D03*
X0047019Y0208427D03*
X0047019Y0208585D03*
X0047019Y0208742D03*
X0047019Y0208900D03*
X0224019Y0208900D03*
X0224019Y0208742D03*
X0224019Y0208585D03*
X0224019Y0208427D03*
X0224019Y0208270D03*
X0224019Y0208112D03*
X0224019Y0207955D03*
X0224019Y0203545D03*
X0224019Y0203388D03*
X0224019Y0203230D03*
X0224019Y0203073D03*
X0224019Y0202915D03*
X0224019Y0202758D03*
X0224019Y0202600D03*
M02*
