G75*
%MOIN*%
%OFA0B0*%
%FSLAX25Y25*%
%IPPOS*%
%LPD*%
%AMOC8*
5,1,8,0,0,1.08239X$1,22.5*
%
%ADD10R,0.04737X0.05131*%
%ADD11R,0.05524X0.03950*%
%ADD12R,0.04068X0.03280*%
%ADD13R,0.03280X0.04068*%
%ADD14R,0.05918X0.05918*%
%ADD15R,0.03556X0.03556*%
%ADD16R,0.05131X0.04737*%
%ADD17R,0.05721X0.01981*%
%ADD18R,0.12611X0.10249*%
%ADD19C,0.03300*%
%ADD20C,0.13800*%
%ADD21C,0.08200*%
%ADD22R,0.03300X0.05800*%
%ADD23R,0.05524X0.02965*%
%ADD24R,0.07887X0.06312*%
%ADD25R,0.06312X0.08280*%
%ADD26R,0.03950X0.06706*%
%ADD27R,0.05524X0.03162*%
%ADD28R,0.05131X0.01587*%
%ADD29R,0.04737X0.01587*%
%ADD30C,0.04737*%
%ADD31C,0.05000*%
%ADD32C,0.06706*%
D10*
X0063342Y0047904D03*
X0063342Y0054596D03*
X0073342Y0054596D03*
X0073342Y0047904D03*
X0085842Y0047096D03*
X0085842Y0040404D03*
X0138342Y0090404D03*
X0138342Y0097096D03*
X0153342Y0067096D03*
X0153342Y0060404D03*
X0240342Y0054596D03*
X0240342Y0047904D03*
X0250342Y0047904D03*
X0250342Y0054596D03*
X0262842Y0047096D03*
X0262842Y0040404D03*
X0315342Y0090404D03*
X0315342Y0097096D03*
X0330342Y0067096D03*
X0330342Y0060404D03*
X0262842Y0192404D03*
X0262842Y0199096D03*
X0250342Y0199904D03*
X0250342Y0206596D03*
X0240342Y0206596D03*
X0240342Y0199904D03*
X0315342Y0242404D03*
X0315342Y0249096D03*
X0330342Y0219096D03*
X0330342Y0212404D03*
X0153342Y0212404D03*
X0153342Y0219096D03*
X0138342Y0242404D03*
X0138342Y0249096D03*
X0085842Y0199096D03*
X0085842Y0192404D03*
X0073342Y0199904D03*
X0073342Y0206596D03*
X0063342Y0206596D03*
X0063342Y0199904D03*
D11*
X0103342Y0242207D03*
X0103342Y0249293D03*
X0130842Y0249293D03*
X0130842Y0242207D03*
X0130842Y0234293D03*
X0130842Y0227207D03*
X0138342Y0227207D03*
X0145842Y0227207D03*
X0145842Y0234293D03*
X0138342Y0234293D03*
X0145842Y0242207D03*
X0145842Y0249293D03*
X0143342Y0277207D03*
X0143342Y0284293D03*
X0135842Y0284293D03*
X0135842Y0277207D03*
X0138342Y0219293D03*
X0138342Y0212207D03*
X0145842Y0212207D03*
X0145842Y0219293D03*
X0130842Y0219293D03*
X0130842Y0212207D03*
X0135842Y0132293D03*
X0135842Y0125207D03*
X0143342Y0125207D03*
X0143342Y0132293D03*
X0145842Y0097293D03*
X0145842Y0090207D03*
X0145842Y0082293D03*
X0138342Y0082293D03*
X0138342Y0075207D03*
X0145842Y0075207D03*
X0145842Y0067293D03*
X0145842Y0060207D03*
X0138342Y0060207D03*
X0138342Y0067293D03*
X0130842Y0067293D03*
X0130842Y0060207D03*
X0130842Y0075207D03*
X0130842Y0082293D03*
X0130842Y0090207D03*
X0130842Y0097293D03*
X0103342Y0097293D03*
X0103342Y0090207D03*
X0280342Y0090207D03*
X0280342Y0097293D03*
X0307842Y0097293D03*
X0307842Y0090207D03*
X0307842Y0082293D03*
X0315342Y0082293D03*
X0315342Y0075207D03*
X0307842Y0075207D03*
X0307842Y0067293D03*
X0307842Y0060207D03*
X0315342Y0060207D03*
X0315342Y0067293D03*
X0322842Y0067293D03*
X0322842Y0060207D03*
X0322842Y0075207D03*
X0322842Y0082293D03*
X0322842Y0090207D03*
X0322842Y0097293D03*
X0320342Y0125207D03*
X0312842Y0125207D03*
X0312842Y0132293D03*
X0320342Y0132293D03*
X0322842Y0212207D03*
X0322842Y0219293D03*
X0315342Y0219293D03*
X0315342Y0212207D03*
X0307842Y0212207D03*
X0307842Y0219293D03*
X0307842Y0227207D03*
X0315342Y0227207D03*
X0315342Y0234293D03*
X0307842Y0234293D03*
X0307842Y0242207D03*
X0307842Y0249293D03*
X0322842Y0249293D03*
X0322842Y0242207D03*
X0322842Y0234293D03*
X0322842Y0227207D03*
X0280342Y0242207D03*
X0280342Y0249293D03*
X0312842Y0277207D03*
X0320342Y0277207D03*
X0320342Y0284293D03*
X0312842Y0284293D03*
D12*
X0290342Y0235278D03*
X0290342Y0226222D03*
X0280342Y0226222D03*
X0280342Y0235278D03*
X0113342Y0235278D03*
X0113342Y0226222D03*
X0103342Y0226222D03*
X0103342Y0235278D03*
X0103342Y0083278D03*
X0103342Y0074222D03*
X0113342Y0074222D03*
X0113342Y0083278D03*
X0280342Y0083278D03*
X0280342Y0074222D03*
X0290342Y0074222D03*
X0290342Y0083278D03*
D13*
X0294869Y0063750D03*
X0285814Y0063750D03*
X0117869Y0063750D03*
X0108814Y0063750D03*
X0108814Y0215750D03*
X0117869Y0215750D03*
X0285814Y0215750D03*
X0294869Y0215750D03*
D14*
X0295342Y0239844D03*
X0295342Y0251656D03*
X0118342Y0251656D03*
X0118342Y0239844D03*
X0118342Y0099656D03*
X0118342Y0087844D03*
X0295342Y0087844D03*
X0295342Y0099656D03*
D15*
X0308984Y0111191D03*
X0308984Y0116309D03*
X0301700Y0113750D03*
X0131984Y0111191D03*
X0131984Y0116309D03*
X0124700Y0113750D03*
X0131984Y0263191D03*
X0131984Y0268309D03*
X0124700Y0265750D03*
X0301700Y0265750D03*
X0308984Y0263191D03*
X0308984Y0268309D03*
D16*
X0316495Y0270750D03*
X0323188Y0270750D03*
X0323188Y0257750D03*
X0316495Y0257750D03*
X0249688Y0235750D03*
X0249688Y0229750D03*
X0249688Y0223750D03*
X0242995Y0223750D03*
X0242995Y0229750D03*
X0242995Y0235750D03*
X0176688Y0190750D03*
X0169995Y0190750D03*
X0146188Y0257750D03*
X0139495Y0257750D03*
X0139495Y0270750D03*
X0146188Y0270750D03*
X0072688Y0235750D03*
X0065995Y0235750D03*
X0065995Y0229750D03*
X0065995Y0223750D03*
X0072688Y0223750D03*
X0072688Y0229750D03*
X0139495Y0118750D03*
X0146188Y0118750D03*
X0146188Y0105750D03*
X0139495Y0105750D03*
X0072688Y0083750D03*
X0072688Y0077750D03*
X0065995Y0077750D03*
X0065995Y0083750D03*
X0065995Y0071750D03*
X0072688Y0071750D03*
X0169995Y0038750D03*
X0176688Y0038750D03*
X0242995Y0071750D03*
X0242995Y0077750D03*
X0242995Y0083750D03*
X0249688Y0083750D03*
X0249688Y0077750D03*
X0249688Y0071750D03*
X0316495Y0105750D03*
X0323188Y0105750D03*
X0323188Y0118750D03*
X0316495Y0118750D03*
X0346995Y0190750D03*
X0353688Y0190750D03*
X0353688Y0038750D03*
X0346995Y0038750D03*
D17*
X0336582Y0080612D03*
X0336582Y0082581D03*
X0336582Y0084549D03*
X0336582Y0086518D03*
X0336582Y0088486D03*
X0336582Y0090455D03*
X0336582Y0092423D03*
X0336582Y0094392D03*
X0336582Y0096360D03*
X0336582Y0098329D03*
X0336582Y0100297D03*
X0336582Y0102266D03*
X0336582Y0104234D03*
X0336582Y0106203D03*
X0336582Y0108171D03*
X0336582Y0110140D03*
X0336582Y0112108D03*
X0336582Y0114077D03*
X0336582Y0116045D03*
X0336582Y0118014D03*
X0336582Y0119982D03*
X0336582Y0121951D03*
X0336582Y0123919D03*
X0336582Y0125888D03*
X0336582Y0232612D03*
X0336582Y0234581D03*
X0336582Y0236549D03*
X0336582Y0238518D03*
X0336582Y0240486D03*
X0336582Y0242455D03*
X0336582Y0244423D03*
X0336582Y0246392D03*
X0336582Y0248360D03*
X0336582Y0250329D03*
X0336582Y0252297D03*
X0336582Y0254266D03*
X0336582Y0256234D03*
X0336582Y0258203D03*
X0336582Y0260171D03*
X0336582Y0262140D03*
X0336582Y0264108D03*
X0336582Y0266077D03*
X0336582Y0268045D03*
X0336582Y0270014D03*
X0336582Y0271982D03*
X0336582Y0273951D03*
X0336582Y0275919D03*
X0336582Y0277888D03*
X0159582Y0277888D03*
X0159582Y0275919D03*
X0159582Y0273951D03*
X0159582Y0271982D03*
X0159582Y0270014D03*
X0159582Y0268045D03*
X0159582Y0266077D03*
X0159582Y0264108D03*
X0159582Y0262140D03*
X0159582Y0260171D03*
X0159582Y0258203D03*
X0159582Y0256234D03*
X0159582Y0254266D03*
X0159582Y0252297D03*
X0159582Y0250329D03*
X0159582Y0248360D03*
X0159582Y0246392D03*
X0159582Y0244423D03*
X0159582Y0242455D03*
X0159582Y0240486D03*
X0159582Y0238518D03*
X0159582Y0236549D03*
X0159582Y0234581D03*
X0159582Y0232612D03*
X0159582Y0125888D03*
X0159582Y0123919D03*
X0159582Y0121951D03*
X0159582Y0119982D03*
X0159582Y0118014D03*
X0159582Y0116045D03*
X0159582Y0114077D03*
X0159582Y0112108D03*
X0159582Y0110140D03*
X0159582Y0108171D03*
X0159582Y0106203D03*
X0159582Y0104234D03*
X0159582Y0102266D03*
X0159582Y0100297D03*
X0159582Y0098329D03*
X0159582Y0096360D03*
X0159582Y0094392D03*
X0159582Y0092423D03*
X0159582Y0090455D03*
X0159582Y0088486D03*
X0159582Y0086518D03*
X0159582Y0084549D03*
X0159582Y0082581D03*
X0159582Y0080612D03*
D18*
X0167948Y0070967D03*
X0167948Y0135533D03*
X0167948Y0222967D03*
X0167948Y0287533D03*
X0344948Y0287533D03*
X0344948Y0222967D03*
X0344948Y0135533D03*
X0344948Y0070967D03*
D19*
X0382842Y0031250D03*
X0205842Y0031250D03*
X0212842Y0176250D03*
X0205842Y0183250D03*
X0035842Y0176250D03*
X0035842Y0328250D03*
X0212842Y0328250D03*
X0382842Y0183250D03*
D20*
X0043342Y0038750D03*
X0043342Y0168750D03*
X0043342Y0190750D03*
X0043342Y0320750D03*
X0220342Y0320750D03*
X0220342Y0190750D03*
X0220342Y0168750D03*
X0220342Y0038750D03*
D21*
X0215342Y0053750D03*
X0215342Y0063750D03*
X0215342Y0073750D03*
X0215342Y0083750D03*
X0215342Y0093750D03*
X0215342Y0103750D03*
X0215342Y0113750D03*
X0215342Y0123750D03*
X0215342Y0133750D03*
X0215342Y0143750D03*
X0215342Y0153750D03*
X0215342Y0205750D03*
X0215342Y0215750D03*
X0215342Y0225750D03*
X0215342Y0235750D03*
X0215342Y0245750D03*
X0215342Y0255750D03*
X0215342Y0265750D03*
X0215342Y0275750D03*
X0215342Y0285750D03*
X0215342Y0295750D03*
X0215342Y0305750D03*
X0038342Y0305750D03*
X0038342Y0295750D03*
X0038342Y0285750D03*
X0038342Y0275750D03*
X0038342Y0265750D03*
X0038342Y0255750D03*
X0038342Y0245750D03*
X0038342Y0235750D03*
X0038342Y0225750D03*
X0038342Y0215750D03*
X0038342Y0205750D03*
X0038342Y0153750D03*
X0038342Y0143750D03*
X0038342Y0133750D03*
X0038342Y0123750D03*
X0038342Y0113750D03*
X0038342Y0103750D03*
X0038342Y0093750D03*
X0038342Y0083750D03*
X0038342Y0073750D03*
X0038342Y0063750D03*
X0038342Y0053750D03*
D22*
X0156742Y0038750D03*
X0159942Y0038750D03*
X0333742Y0038750D03*
X0336942Y0038750D03*
X0336942Y0190750D03*
X0333742Y0190750D03*
X0159942Y0190750D03*
X0156742Y0190750D03*
D23*
X0073460Y0187010D03*
X0073460Y0194490D03*
X0063223Y0194490D03*
X0063223Y0190750D03*
X0063223Y0187010D03*
X0063223Y0042490D03*
X0063223Y0038750D03*
X0063223Y0035010D03*
X0073460Y0035010D03*
X0073460Y0042490D03*
X0240223Y0042490D03*
X0240223Y0038750D03*
X0240223Y0035010D03*
X0250460Y0035010D03*
X0250460Y0042490D03*
X0250460Y0187010D03*
X0250460Y0194490D03*
X0240223Y0194490D03*
X0240223Y0190750D03*
X0240223Y0187010D03*
D24*
X0264830Y0262325D03*
X0287271Y0262325D03*
X0110271Y0262325D03*
X0087830Y0262325D03*
X0087830Y0110325D03*
X0110271Y0110325D03*
X0264830Y0110325D03*
X0287271Y0110325D03*
D25*
X0293570Y0162096D03*
X0241798Y0166033D03*
X0116570Y0162096D03*
X0064798Y0166033D03*
X0116570Y0314096D03*
X0064798Y0318033D03*
X0241798Y0318033D03*
X0293570Y0314096D03*
D26*
X0290460Y0302876D03*
X0286129Y0302876D03*
X0281798Y0303663D03*
X0277468Y0302876D03*
X0273137Y0303663D03*
X0268806Y0302876D03*
X0264476Y0301301D03*
X0260145Y0302876D03*
X0113460Y0302876D03*
X0109129Y0302876D03*
X0104798Y0303663D03*
X0100468Y0302876D03*
X0096137Y0303663D03*
X0091806Y0302876D03*
X0087476Y0301301D03*
X0083145Y0302876D03*
X0096137Y0151663D03*
X0091806Y0150876D03*
X0087476Y0149301D03*
X0083145Y0150876D03*
X0100468Y0150876D03*
X0104798Y0151663D03*
X0109129Y0150876D03*
X0113460Y0150876D03*
X0260145Y0150876D03*
X0264476Y0149301D03*
X0268806Y0150876D03*
X0273137Y0151663D03*
X0277468Y0150876D03*
X0281798Y0151663D03*
X0286129Y0150876D03*
X0290460Y0150876D03*
D27*
X0296365Y0190750D03*
X0296365Y0195750D03*
X0296365Y0200750D03*
X0296365Y0205750D03*
X0274318Y0205750D03*
X0274318Y0200750D03*
X0274318Y0195750D03*
X0274318Y0190750D03*
X0119365Y0190750D03*
X0119365Y0195750D03*
X0119365Y0200750D03*
X0119365Y0205750D03*
X0097318Y0205750D03*
X0097318Y0200750D03*
X0097318Y0195750D03*
X0097318Y0190750D03*
X0097318Y0053750D03*
X0097318Y0048750D03*
X0097318Y0043750D03*
X0097318Y0038750D03*
X0119365Y0038750D03*
X0119365Y0043750D03*
X0119365Y0048750D03*
X0119365Y0053750D03*
X0274318Y0053750D03*
X0274318Y0048750D03*
X0274318Y0043750D03*
X0274318Y0038750D03*
X0296365Y0038750D03*
X0296365Y0043750D03*
X0296365Y0048750D03*
X0296365Y0053750D03*
D28*
X0248188Y0090663D03*
X0071188Y0090663D03*
X0071188Y0242663D03*
X0248188Y0242663D03*
D29*
X0248385Y0244238D03*
X0248385Y0245813D03*
X0248385Y0247388D03*
X0248385Y0248963D03*
X0248385Y0250537D03*
X0248385Y0252112D03*
X0248385Y0253687D03*
X0248385Y0255262D03*
X0248385Y0256837D03*
X0241298Y0256837D03*
X0241298Y0255262D03*
X0241298Y0253687D03*
X0241298Y0252112D03*
X0241298Y0250537D03*
X0241298Y0248963D03*
X0241298Y0247388D03*
X0241298Y0245813D03*
X0241298Y0244238D03*
X0241298Y0242663D03*
X0241298Y0104837D03*
X0241298Y0103262D03*
X0241298Y0101687D03*
X0241298Y0100112D03*
X0241298Y0098537D03*
X0241298Y0096963D03*
X0241298Y0095388D03*
X0241298Y0093813D03*
X0241298Y0092238D03*
X0241298Y0090663D03*
X0248385Y0092238D03*
X0248385Y0093813D03*
X0248385Y0095388D03*
X0248385Y0096963D03*
X0248385Y0098537D03*
X0248385Y0100112D03*
X0248385Y0101687D03*
X0248385Y0103262D03*
X0248385Y0104837D03*
X0071385Y0104837D03*
X0071385Y0103262D03*
X0071385Y0101687D03*
X0071385Y0100112D03*
X0071385Y0098537D03*
X0071385Y0096963D03*
X0071385Y0095388D03*
X0071385Y0093813D03*
X0071385Y0092238D03*
X0064298Y0092238D03*
X0064298Y0090663D03*
X0064298Y0093813D03*
X0064298Y0095388D03*
X0064298Y0096963D03*
X0064298Y0098537D03*
X0064298Y0100112D03*
X0064298Y0101687D03*
X0064298Y0103262D03*
X0064298Y0104837D03*
X0064298Y0242663D03*
X0064298Y0244238D03*
X0064298Y0245813D03*
X0064298Y0247388D03*
X0064298Y0248963D03*
X0064298Y0250537D03*
X0064298Y0252112D03*
X0064298Y0253687D03*
X0064298Y0255262D03*
X0064298Y0256837D03*
X0071385Y0256837D03*
X0071385Y0255262D03*
X0071385Y0253687D03*
X0071385Y0252112D03*
X0071385Y0250537D03*
X0071385Y0248963D03*
X0071385Y0247388D03*
X0071385Y0245813D03*
X0071385Y0244238D03*
D30*
X0060342Y0339000D03*
X0358342Y0339000D03*
D31*
X0056777Y0020500D02*
X0056779Y0020619D01*
X0056785Y0020738D01*
X0056795Y0020857D01*
X0056809Y0020975D01*
X0056827Y0021093D01*
X0056848Y0021210D01*
X0056874Y0021326D01*
X0056904Y0021442D01*
X0056937Y0021556D01*
X0056974Y0021669D01*
X0057015Y0021781D01*
X0057060Y0021892D01*
X0057108Y0022001D01*
X0057160Y0022108D01*
X0057216Y0022213D01*
X0057275Y0022317D01*
X0057337Y0022418D01*
X0057403Y0022518D01*
X0057472Y0022615D01*
X0057544Y0022709D01*
X0057620Y0022802D01*
X0057698Y0022891D01*
X0057779Y0022978D01*
X0057864Y0023063D01*
X0057951Y0023144D01*
X0058040Y0023222D01*
X0058133Y0023298D01*
X0058227Y0023370D01*
X0058324Y0023439D01*
X0058424Y0023505D01*
X0058525Y0023567D01*
X0058629Y0023626D01*
X0058734Y0023682D01*
X0058841Y0023734D01*
X0058950Y0023782D01*
X0059061Y0023827D01*
X0059173Y0023868D01*
X0059286Y0023905D01*
X0059400Y0023938D01*
X0059516Y0023968D01*
X0059632Y0023994D01*
X0059749Y0024015D01*
X0059867Y0024033D01*
X0059985Y0024047D01*
X0060104Y0024057D01*
X0060223Y0024063D01*
X0060342Y0024065D01*
X0060461Y0024063D01*
X0060580Y0024057D01*
X0060699Y0024047D01*
X0060817Y0024033D01*
X0060935Y0024015D01*
X0061052Y0023994D01*
X0061168Y0023968D01*
X0061284Y0023938D01*
X0061398Y0023905D01*
X0061511Y0023868D01*
X0061623Y0023827D01*
X0061734Y0023782D01*
X0061843Y0023734D01*
X0061950Y0023682D01*
X0062055Y0023626D01*
X0062159Y0023567D01*
X0062260Y0023505D01*
X0062360Y0023439D01*
X0062457Y0023370D01*
X0062551Y0023298D01*
X0062644Y0023222D01*
X0062733Y0023144D01*
X0062820Y0023063D01*
X0062905Y0022978D01*
X0062986Y0022891D01*
X0063064Y0022802D01*
X0063140Y0022709D01*
X0063212Y0022615D01*
X0063281Y0022518D01*
X0063347Y0022418D01*
X0063409Y0022317D01*
X0063468Y0022213D01*
X0063524Y0022108D01*
X0063576Y0022001D01*
X0063624Y0021892D01*
X0063669Y0021781D01*
X0063710Y0021669D01*
X0063747Y0021556D01*
X0063780Y0021442D01*
X0063810Y0021326D01*
X0063836Y0021210D01*
X0063857Y0021093D01*
X0063875Y0020975D01*
X0063889Y0020857D01*
X0063899Y0020738D01*
X0063905Y0020619D01*
X0063907Y0020500D01*
X0063905Y0020381D01*
X0063899Y0020262D01*
X0063889Y0020143D01*
X0063875Y0020025D01*
X0063857Y0019907D01*
X0063836Y0019790D01*
X0063810Y0019674D01*
X0063780Y0019558D01*
X0063747Y0019444D01*
X0063710Y0019331D01*
X0063669Y0019219D01*
X0063624Y0019108D01*
X0063576Y0018999D01*
X0063524Y0018892D01*
X0063468Y0018787D01*
X0063409Y0018683D01*
X0063347Y0018582D01*
X0063281Y0018482D01*
X0063212Y0018385D01*
X0063140Y0018291D01*
X0063064Y0018198D01*
X0062986Y0018109D01*
X0062905Y0018022D01*
X0062820Y0017937D01*
X0062733Y0017856D01*
X0062644Y0017778D01*
X0062551Y0017702D01*
X0062457Y0017630D01*
X0062360Y0017561D01*
X0062260Y0017495D01*
X0062159Y0017433D01*
X0062055Y0017374D01*
X0061950Y0017318D01*
X0061843Y0017266D01*
X0061734Y0017218D01*
X0061623Y0017173D01*
X0061511Y0017132D01*
X0061398Y0017095D01*
X0061284Y0017062D01*
X0061168Y0017032D01*
X0061052Y0017006D01*
X0060935Y0016985D01*
X0060817Y0016967D01*
X0060699Y0016953D01*
X0060580Y0016943D01*
X0060461Y0016937D01*
X0060342Y0016935D01*
X0060223Y0016937D01*
X0060104Y0016943D01*
X0059985Y0016953D01*
X0059867Y0016967D01*
X0059749Y0016985D01*
X0059632Y0017006D01*
X0059516Y0017032D01*
X0059400Y0017062D01*
X0059286Y0017095D01*
X0059173Y0017132D01*
X0059061Y0017173D01*
X0058950Y0017218D01*
X0058841Y0017266D01*
X0058734Y0017318D01*
X0058629Y0017374D01*
X0058525Y0017433D01*
X0058424Y0017495D01*
X0058324Y0017561D01*
X0058227Y0017630D01*
X0058133Y0017702D01*
X0058040Y0017778D01*
X0057951Y0017856D01*
X0057864Y0017937D01*
X0057779Y0018022D01*
X0057698Y0018109D01*
X0057620Y0018198D01*
X0057544Y0018291D01*
X0057472Y0018385D01*
X0057403Y0018482D01*
X0057337Y0018582D01*
X0057275Y0018683D01*
X0057216Y0018787D01*
X0057160Y0018892D01*
X0057108Y0018999D01*
X0057060Y0019108D01*
X0057015Y0019219D01*
X0056974Y0019331D01*
X0056937Y0019444D01*
X0056904Y0019558D01*
X0056874Y0019674D01*
X0056848Y0019790D01*
X0056827Y0019907D01*
X0056809Y0020025D01*
X0056795Y0020143D01*
X0056785Y0020262D01*
X0056779Y0020381D01*
X0056777Y0020500D01*
D32*
X0060342Y0020500D03*
M02*
