G75*
%MOIN*%
%OFA0B0*%
%FSLAX25Y25*%
%IPPOS*%
%LPD*%
%AMOC8*
5,1,8,0,0,1.08239X$1,22.5*
%
%ADD10C,0.00800*%
%ADD11C,0.01500*%
%ADD12C,0.01100*%
%ADD13C,0.01000*%
%ADD14C,0.00000*%
D10*
X0033342Y0028750D02*
X0033342Y0178750D01*
X0208342Y0178750D01*
X0208342Y0028750D01*
X0033342Y0028750D01*
X0210342Y0028750D02*
X0210342Y0178750D01*
X0385342Y0178750D01*
X0385342Y0028750D01*
X0210342Y0028750D01*
X0210342Y0180750D02*
X0210342Y0330750D01*
X0385342Y0330750D01*
X0385342Y0180750D01*
X0210342Y0180750D01*
X0208342Y0180750D02*
X0208342Y0330750D01*
X0033342Y0330750D01*
X0033342Y0180750D01*
X0208342Y0180750D01*
D11*
X0006342Y0179750D02*
X0437342Y0179750D01*
X0437342Y0331750D02*
X0006342Y0331750D01*
X0032342Y0382750D02*
X0032342Y0001750D01*
X0006342Y0027750D02*
X0437342Y0027750D01*
X0386342Y0001750D02*
X0386342Y0382750D01*
X0209342Y0382750D02*
X0209342Y0001750D01*
D12*
X0450133Y0028733D02*
X0451444Y0024800D01*
X0452755Y0028733D01*
X0455426Y0027094D02*
X0459359Y0027094D01*
X0462727Y0027094D02*
X0464366Y0026439D01*
X0464367Y0026439D02*
X0464419Y0026416D01*
X0464470Y0026389D01*
X0464519Y0026359D01*
X0464566Y0026326D01*
X0464611Y0026290D01*
X0464653Y0026250D01*
X0464692Y0026208D01*
X0464728Y0026164D01*
X0464761Y0026117D01*
X0464791Y0026067D01*
X0464818Y0026016D01*
X0464841Y0025964D01*
X0464860Y0025910D01*
X0464876Y0025854D01*
X0464888Y0025798D01*
X0464896Y0025741D01*
X0464900Y0025684D01*
X0464901Y0025626D01*
X0464897Y0025569D01*
X0464890Y0025512D01*
X0464878Y0025455D01*
X0464863Y0025400D01*
X0464845Y0025345D01*
X0464822Y0025292D01*
X0464796Y0025241D01*
X0464767Y0025192D01*
X0464734Y0025144D01*
X0464698Y0025099D01*
X0464660Y0025057D01*
X0464618Y0025017D01*
X0464574Y0024980D01*
X0464527Y0024946D01*
X0464479Y0024915D01*
X0464428Y0024888D01*
X0464376Y0024864D01*
X0464322Y0024844D01*
X0464267Y0024828D01*
X0464211Y0024815D01*
X0464154Y0024806D01*
X0464096Y0024801D01*
X0464039Y0024800D01*
X0464530Y0028405D02*
X0464423Y0028451D01*
X0464314Y0028494D01*
X0464204Y0028534D01*
X0464092Y0028570D01*
X0463980Y0028602D01*
X0463866Y0028631D01*
X0463752Y0028657D01*
X0463637Y0028678D01*
X0463522Y0028697D01*
X0463405Y0028711D01*
X0463289Y0028722D01*
X0463172Y0028729D01*
X0463055Y0028733D01*
X0463055Y0028734D02*
X0462998Y0028733D01*
X0462940Y0028728D01*
X0462883Y0028719D01*
X0462827Y0028706D01*
X0462772Y0028690D01*
X0462718Y0028670D01*
X0462666Y0028646D01*
X0462615Y0028619D01*
X0462567Y0028588D01*
X0462520Y0028554D01*
X0462476Y0028517D01*
X0462434Y0028477D01*
X0462396Y0028435D01*
X0462360Y0028390D01*
X0462327Y0028342D01*
X0462298Y0028293D01*
X0462272Y0028242D01*
X0462249Y0028189D01*
X0462231Y0028134D01*
X0462216Y0028079D01*
X0462204Y0028022D01*
X0462197Y0027965D01*
X0462193Y0027908D01*
X0462194Y0027850D01*
X0462198Y0027793D01*
X0462206Y0027736D01*
X0462218Y0027680D01*
X0462234Y0027624D01*
X0462253Y0027570D01*
X0462276Y0027518D01*
X0462303Y0027467D01*
X0462333Y0027417D01*
X0462366Y0027370D01*
X0462402Y0027326D01*
X0462441Y0027284D01*
X0462483Y0027244D01*
X0462528Y0027208D01*
X0462575Y0027175D01*
X0462624Y0027145D01*
X0462675Y0027118D01*
X0462727Y0027095D01*
X0462236Y0025128D02*
X0462370Y0025082D01*
X0462505Y0025039D01*
X0462641Y0025000D01*
X0462778Y0024964D01*
X0462915Y0024932D01*
X0463054Y0024903D01*
X0463193Y0024877D01*
X0463333Y0024856D01*
X0463474Y0024837D01*
X0463614Y0024823D01*
X0463756Y0024812D01*
X0463897Y0024804D01*
X0464039Y0024801D01*
X0467580Y0025783D02*
X0467580Y0027750D01*
X0467582Y0027812D01*
X0467588Y0027873D01*
X0467597Y0027934D01*
X0467611Y0027994D01*
X0467628Y0028054D01*
X0467649Y0028112D01*
X0467674Y0028169D01*
X0467702Y0028224D01*
X0467733Y0028277D01*
X0467768Y0028328D01*
X0467806Y0028377D01*
X0467846Y0028423D01*
X0467890Y0028467D01*
X0467936Y0028507D01*
X0467985Y0028545D01*
X0468036Y0028580D01*
X0468089Y0028611D01*
X0468144Y0028639D01*
X0468201Y0028664D01*
X0468259Y0028685D01*
X0468319Y0028702D01*
X0468379Y0028716D01*
X0468440Y0028725D01*
X0468501Y0028731D01*
X0468563Y0028733D01*
X0469874Y0028733D01*
X0472287Y0027422D02*
X0472287Y0026111D01*
X0472289Y0026040D01*
X0472295Y0025969D01*
X0472304Y0025899D01*
X0472318Y0025829D01*
X0472335Y0025760D01*
X0472356Y0025692D01*
X0472380Y0025626D01*
X0472408Y0025561D01*
X0472440Y0025497D01*
X0472475Y0025435D01*
X0472513Y0025375D01*
X0472554Y0025318D01*
X0472599Y0025262D01*
X0472646Y0025209D01*
X0472696Y0025159D01*
X0472749Y0025112D01*
X0472805Y0025067D01*
X0472862Y0025026D01*
X0472922Y0024988D01*
X0472984Y0024953D01*
X0473048Y0024921D01*
X0473113Y0024893D01*
X0473179Y0024869D01*
X0473247Y0024848D01*
X0473316Y0024831D01*
X0473386Y0024817D01*
X0473456Y0024808D01*
X0473527Y0024802D01*
X0473598Y0024800D01*
X0473669Y0024802D01*
X0473740Y0024808D01*
X0473810Y0024817D01*
X0473880Y0024831D01*
X0473949Y0024848D01*
X0474017Y0024869D01*
X0474083Y0024893D01*
X0474148Y0024921D01*
X0474212Y0024953D01*
X0474274Y0024988D01*
X0474334Y0025026D01*
X0474391Y0025067D01*
X0474447Y0025112D01*
X0474500Y0025159D01*
X0474550Y0025209D01*
X0474597Y0025262D01*
X0474642Y0025318D01*
X0474683Y0025375D01*
X0474721Y0025435D01*
X0474756Y0025497D01*
X0474788Y0025561D01*
X0474816Y0025626D01*
X0474840Y0025692D01*
X0474861Y0025760D01*
X0474878Y0025829D01*
X0474892Y0025899D01*
X0474901Y0025969D01*
X0474907Y0026040D01*
X0474909Y0026111D01*
X0474910Y0026111D02*
X0474910Y0027422D01*
X0474909Y0027422D02*
X0474907Y0027493D01*
X0474901Y0027564D01*
X0474892Y0027634D01*
X0474878Y0027704D01*
X0474861Y0027773D01*
X0474840Y0027841D01*
X0474816Y0027907D01*
X0474788Y0027972D01*
X0474756Y0028036D01*
X0474721Y0028098D01*
X0474683Y0028158D01*
X0474642Y0028215D01*
X0474597Y0028271D01*
X0474550Y0028324D01*
X0474500Y0028374D01*
X0474447Y0028421D01*
X0474391Y0028466D01*
X0474334Y0028507D01*
X0474274Y0028545D01*
X0474212Y0028580D01*
X0474148Y0028612D01*
X0474083Y0028640D01*
X0474017Y0028664D01*
X0473949Y0028685D01*
X0473880Y0028702D01*
X0473810Y0028716D01*
X0473740Y0028725D01*
X0473669Y0028731D01*
X0473598Y0028733D01*
X0473527Y0028731D01*
X0473456Y0028725D01*
X0473386Y0028716D01*
X0473316Y0028702D01*
X0473247Y0028685D01*
X0473179Y0028664D01*
X0473113Y0028640D01*
X0473048Y0028612D01*
X0472984Y0028580D01*
X0472922Y0028545D01*
X0472862Y0028507D01*
X0472805Y0028466D01*
X0472749Y0028421D01*
X0472696Y0028374D01*
X0472646Y0028324D01*
X0472599Y0028271D01*
X0472554Y0028215D01*
X0472513Y0028158D01*
X0472475Y0028098D01*
X0472440Y0028036D01*
X0472408Y0027972D01*
X0472380Y0027907D01*
X0472356Y0027841D01*
X0472335Y0027773D01*
X0472318Y0027704D01*
X0472304Y0027634D01*
X0472295Y0027564D01*
X0472289Y0027493D01*
X0472287Y0027422D01*
X0469874Y0024800D02*
X0468563Y0024800D01*
X0468501Y0024802D01*
X0468440Y0024808D01*
X0468379Y0024817D01*
X0468319Y0024831D01*
X0468259Y0024848D01*
X0468201Y0024869D01*
X0468144Y0024894D01*
X0468089Y0024922D01*
X0468036Y0024953D01*
X0467985Y0024988D01*
X0467936Y0025026D01*
X0467890Y0025066D01*
X0467846Y0025110D01*
X0467806Y0025156D01*
X0467768Y0025205D01*
X0467733Y0025256D01*
X0467702Y0025309D01*
X0467674Y0025364D01*
X0467649Y0025421D01*
X0467628Y0025479D01*
X0467611Y0025539D01*
X0467597Y0025599D01*
X0467588Y0025660D01*
X0467582Y0025721D01*
X0467580Y0025783D01*
X0477876Y0024800D02*
X0477876Y0028733D01*
X0479843Y0028733D01*
X0479843Y0028078D01*
X0481929Y0027422D02*
X0481929Y0025783D01*
X0481931Y0025721D01*
X0481937Y0025660D01*
X0481946Y0025599D01*
X0481960Y0025539D01*
X0481977Y0025479D01*
X0481998Y0025421D01*
X0482023Y0025364D01*
X0482051Y0025309D01*
X0482082Y0025256D01*
X0482117Y0025205D01*
X0482155Y0025156D01*
X0482195Y0025110D01*
X0482239Y0025066D01*
X0482285Y0025026D01*
X0482334Y0024988D01*
X0482385Y0024953D01*
X0482438Y0024922D01*
X0482493Y0024894D01*
X0482550Y0024869D01*
X0482608Y0024848D01*
X0482668Y0024831D01*
X0482728Y0024817D01*
X0482789Y0024808D01*
X0482850Y0024802D01*
X0482912Y0024800D01*
X0484551Y0024800D01*
X0484551Y0026767D02*
X0481929Y0026767D01*
X0481929Y0027422D02*
X0481931Y0027493D01*
X0481937Y0027564D01*
X0481946Y0027634D01*
X0481960Y0027704D01*
X0481977Y0027773D01*
X0481998Y0027841D01*
X0482022Y0027907D01*
X0482050Y0027972D01*
X0482082Y0028036D01*
X0482117Y0028098D01*
X0482155Y0028158D01*
X0482196Y0028215D01*
X0482241Y0028271D01*
X0482288Y0028324D01*
X0482338Y0028374D01*
X0482391Y0028421D01*
X0482447Y0028466D01*
X0482504Y0028507D01*
X0482564Y0028545D01*
X0482626Y0028580D01*
X0482690Y0028612D01*
X0482755Y0028640D01*
X0482821Y0028664D01*
X0482889Y0028685D01*
X0482958Y0028702D01*
X0483028Y0028716D01*
X0483098Y0028725D01*
X0483169Y0028731D01*
X0483240Y0028733D01*
X0483311Y0028731D01*
X0483382Y0028725D01*
X0483452Y0028716D01*
X0483522Y0028702D01*
X0483591Y0028685D01*
X0483659Y0028664D01*
X0483725Y0028640D01*
X0483790Y0028612D01*
X0483854Y0028580D01*
X0483916Y0028545D01*
X0483976Y0028507D01*
X0484033Y0028466D01*
X0484089Y0028421D01*
X0484142Y0028374D01*
X0484192Y0028324D01*
X0484239Y0028271D01*
X0484284Y0028215D01*
X0484325Y0028158D01*
X0484363Y0028098D01*
X0484398Y0028036D01*
X0484430Y0027972D01*
X0484458Y0027907D01*
X0484482Y0027841D01*
X0484503Y0027773D01*
X0484520Y0027704D01*
X0484534Y0027634D01*
X0484543Y0027564D01*
X0484549Y0027493D01*
X0484551Y0027422D01*
X0484551Y0026767D01*
X0484551Y0176800D02*
X0482912Y0176800D01*
X0482850Y0176802D01*
X0482789Y0176808D01*
X0482728Y0176817D01*
X0482668Y0176831D01*
X0482608Y0176848D01*
X0482550Y0176869D01*
X0482493Y0176894D01*
X0482438Y0176922D01*
X0482385Y0176953D01*
X0482334Y0176988D01*
X0482285Y0177026D01*
X0482239Y0177066D01*
X0482195Y0177110D01*
X0482155Y0177156D01*
X0482117Y0177205D01*
X0482082Y0177256D01*
X0482051Y0177309D01*
X0482023Y0177364D01*
X0481998Y0177421D01*
X0481977Y0177479D01*
X0481960Y0177539D01*
X0481946Y0177599D01*
X0481937Y0177660D01*
X0481931Y0177721D01*
X0481929Y0177783D01*
X0481929Y0179422D01*
X0481929Y0178767D02*
X0484551Y0178767D01*
X0484551Y0179422D01*
X0484549Y0179493D01*
X0484543Y0179564D01*
X0484534Y0179634D01*
X0484520Y0179704D01*
X0484503Y0179773D01*
X0484482Y0179841D01*
X0484458Y0179907D01*
X0484430Y0179972D01*
X0484398Y0180036D01*
X0484363Y0180098D01*
X0484325Y0180158D01*
X0484284Y0180215D01*
X0484239Y0180271D01*
X0484192Y0180324D01*
X0484142Y0180374D01*
X0484089Y0180421D01*
X0484033Y0180466D01*
X0483976Y0180507D01*
X0483916Y0180545D01*
X0483854Y0180580D01*
X0483790Y0180612D01*
X0483725Y0180640D01*
X0483659Y0180664D01*
X0483591Y0180685D01*
X0483522Y0180702D01*
X0483452Y0180716D01*
X0483382Y0180725D01*
X0483311Y0180731D01*
X0483240Y0180733D01*
X0483169Y0180731D01*
X0483098Y0180725D01*
X0483028Y0180716D01*
X0482958Y0180702D01*
X0482889Y0180685D01*
X0482821Y0180664D01*
X0482755Y0180640D01*
X0482690Y0180612D01*
X0482626Y0180580D01*
X0482564Y0180545D01*
X0482504Y0180507D01*
X0482447Y0180466D01*
X0482391Y0180421D01*
X0482338Y0180374D01*
X0482288Y0180324D01*
X0482241Y0180271D01*
X0482196Y0180215D01*
X0482155Y0180158D01*
X0482117Y0180098D01*
X0482082Y0180036D01*
X0482050Y0179972D01*
X0482022Y0179907D01*
X0481998Y0179841D01*
X0481977Y0179773D01*
X0481960Y0179704D01*
X0481946Y0179634D01*
X0481937Y0179564D01*
X0481931Y0179493D01*
X0481929Y0179422D01*
X0479843Y0180078D02*
X0479843Y0180733D01*
X0477876Y0180733D01*
X0477876Y0176800D01*
X0474910Y0178111D02*
X0474910Y0179422D01*
X0474909Y0179422D02*
X0474907Y0179493D01*
X0474901Y0179564D01*
X0474892Y0179634D01*
X0474878Y0179704D01*
X0474861Y0179773D01*
X0474840Y0179841D01*
X0474816Y0179907D01*
X0474788Y0179972D01*
X0474756Y0180036D01*
X0474721Y0180098D01*
X0474683Y0180158D01*
X0474642Y0180215D01*
X0474597Y0180271D01*
X0474550Y0180324D01*
X0474500Y0180374D01*
X0474447Y0180421D01*
X0474391Y0180466D01*
X0474334Y0180507D01*
X0474274Y0180545D01*
X0474212Y0180580D01*
X0474148Y0180612D01*
X0474083Y0180640D01*
X0474017Y0180664D01*
X0473949Y0180685D01*
X0473880Y0180702D01*
X0473810Y0180716D01*
X0473740Y0180725D01*
X0473669Y0180731D01*
X0473598Y0180733D01*
X0473527Y0180731D01*
X0473456Y0180725D01*
X0473386Y0180716D01*
X0473316Y0180702D01*
X0473247Y0180685D01*
X0473179Y0180664D01*
X0473113Y0180640D01*
X0473048Y0180612D01*
X0472984Y0180580D01*
X0472922Y0180545D01*
X0472862Y0180507D01*
X0472805Y0180466D01*
X0472749Y0180421D01*
X0472696Y0180374D01*
X0472646Y0180324D01*
X0472599Y0180271D01*
X0472554Y0180215D01*
X0472513Y0180158D01*
X0472475Y0180098D01*
X0472440Y0180036D01*
X0472408Y0179972D01*
X0472380Y0179907D01*
X0472356Y0179841D01*
X0472335Y0179773D01*
X0472318Y0179704D01*
X0472304Y0179634D01*
X0472295Y0179564D01*
X0472289Y0179493D01*
X0472287Y0179422D01*
X0472287Y0178111D01*
X0472289Y0178040D01*
X0472295Y0177969D01*
X0472304Y0177899D01*
X0472318Y0177829D01*
X0472335Y0177760D01*
X0472356Y0177692D01*
X0472380Y0177626D01*
X0472408Y0177561D01*
X0472440Y0177497D01*
X0472475Y0177435D01*
X0472513Y0177375D01*
X0472554Y0177318D01*
X0472599Y0177262D01*
X0472646Y0177209D01*
X0472696Y0177159D01*
X0472749Y0177112D01*
X0472805Y0177067D01*
X0472862Y0177026D01*
X0472922Y0176988D01*
X0472984Y0176953D01*
X0473048Y0176921D01*
X0473113Y0176893D01*
X0473179Y0176869D01*
X0473247Y0176848D01*
X0473316Y0176831D01*
X0473386Y0176817D01*
X0473456Y0176808D01*
X0473527Y0176802D01*
X0473598Y0176800D01*
X0473669Y0176802D01*
X0473740Y0176808D01*
X0473810Y0176817D01*
X0473880Y0176831D01*
X0473949Y0176848D01*
X0474017Y0176869D01*
X0474083Y0176893D01*
X0474148Y0176921D01*
X0474212Y0176953D01*
X0474274Y0176988D01*
X0474334Y0177026D01*
X0474391Y0177067D01*
X0474447Y0177112D01*
X0474500Y0177159D01*
X0474550Y0177209D01*
X0474597Y0177262D01*
X0474642Y0177318D01*
X0474683Y0177375D01*
X0474721Y0177435D01*
X0474756Y0177497D01*
X0474788Y0177561D01*
X0474816Y0177626D01*
X0474840Y0177692D01*
X0474861Y0177760D01*
X0474878Y0177829D01*
X0474892Y0177899D01*
X0474901Y0177969D01*
X0474907Y0178040D01*
X0474909Y0178111D01*
X0469874Y0176800D02*
X0468563Y0176800D01*
X0468501Y0176802D01*
X0468440Y0176808D01*
X0468379Y0176817D01*
X0468319Y0176831D01*
X0468259Y0176848D01*
X0468201Y0176869D01*
X0468144Y0176894D01*
X0468089Y0176922D01*
X0468036Y0176953D01*
X0467985Y0176988D01*
X0467936Y0177026D01*
X0467890Y0177066D01*
X0467846Y0177110D01*
X0467806Y0177156D01*
X0467768Y0177205D01*
X0467733Y0177256D01*
X0467702Y0177309D01*
X0467674Y0177364D01*
X0467649Y0177421D01*
X0467628Y0177479D01*
X0467611Y0177539D01*
X0467597Y0177599D01*
X0467588Y0177660D01*
X0467582Y0177721D01*
X0467580Y0177783D01*
X0467580Y0179750D01*
X0467582Y0179812D01*
X0467588Y0179873D01*
X0467597Y0179934D01*
X0467611Y0179994D01*
X0467628Y0180054D01*
X0467649Y0180112D01*
X0467674Y0180169D01*
X0467702Y0180224D01*
X0467733Y0180277D01*
X0467768Y0180328D01*
X0467806Y0180377D01*
X0467846Y0180423D01*
X0467890Y0180467D01*
X0467936Y0180507D01*
X0467985Y0180545D01*
X0468036Y0180580D01*
X0468089Y0180611D01*
X0468144Y0180639D01*
X0468201Y0180664D01*
X0468259Y0180685D01*
X0468319Y0180702D01*
X0468379Y0180716D01*
X0468440Y0180725D01*
X0468501Y0180731D01*
X0468563Y0180733D01*
X0469874Y0180733D01*
X0464366Y0178439D02*
X0462727Y0179094D01*
X0462727Y0179095D02*
X0462675Y0179118D01*
X0462624Y0179145D01*
X0462575Y0179175D01*
X0462528Y0179208D01*
X0462483Y0179244D01*
X0462441Y0179284D01*
X0462402Y0179326D01*
X0462366Y0179370D01*
X0462333Y0179417D01*
X0462303Y0179467D01*
X0462276Y0179518D01*
X0462253Y0179570D01*
X0462234Y0179624D01*
X0462218Y0179680D01*
X0462206Y0179736D01*
X0462198Y0179793D01*
X0462194Y0179850D01*
X0462193Y0179908D01*
X0462197Y0179965D01*
X0462204Y0180022D01*
X0462216Y0180079D01*
X0462231Y0180134D01*
X0462249Y0180189D01*
X0462272Y0180242D01*
X0462298Y0180293D01*
X0462327Y0180342D01*
X0462360Y0180390D01*
X0462396Y0180435D01*
X0462434Y0180477D01*
X0462476Y0180517D01*
X0462520Y0180554D01*
X0462567Y0180588D01*
X0462615Y0180619D01*
X0462666Y0180646D01*
X0462718Y0180670D01*
X0462772Y0180690D01*
X0462827Y0180706D01*
X0462883Y0180719D01*
X0462940Y0180728D01*
X0462998Y0180733D01*
X0463055Y0180734D01*
X0462236Y0177128D02*
X0462370Y0177082D01*
X0462505Y0177039D01*
X0462641Y0177000D01*
X0462778Y0176964D01*
X0462915Y0176932D01*
X0463054Y0176903D01*
X0463193Y0176877D01*
X0463333Y0176856D01*
X0463474Y0176837D01*
X0463614Y0176823D01*
X0463756Y0176812D01*
X0463897Y0176804D01*
X0464039Y0176801D01*
X0464039Y0176800D02*
X0464096Y0176801D01*
X0464154Y0176806D01*
X0464211Y0176815D01*
X0464267Y0176828D01*
X0464322Y0176844D01*
X0464376Y0176864D01*
X0464428Y0176888D01*
X0464479Y0176915D01*
X0464527Y0176946D01*
X0464574Y0176980D01*
X0464618Y0177017D01*
X0464660Y0177057D01*
X0464698Y0177099D01*
X0464734Y0177144D01*
X0464767Y0177192D01*
X0464796Y0177241D01*
X0464822Y0177292D01*
X0464845Y0177345D01*
X0464863Y0177400D01*
X0464878Y0177455D01*
X0464890Y0177512D01*
X0464897Y0177569D01*
X0464901Y0177626D01*
X0464900Y0177684D01*
X0464896Y0177741D01*
X0464888Y0177798D01*
X0464876Y0177854D01*
X0464860Y0177910D01*
X0464841Y0177964D01*
X0464818Y0178016D01*
X0464791Y0178067D01*
X0464761Y0178117D01*
X0464728Y0178164D01*
X0464692Y0178208D01*
X0464653Y0178250D01*
X0464611Y0178290D01*
X0464566Y0178326D01*
X0464519Y0178359D01*
X0464470Y0178389D01*
X0464419Y0178416D01*
X0464367Y0178439D01*
X0464530Y0180405D02*
X0464423Y0180451D01*
X0464314Y0180494D01*
X0464204Y0180534D01*
X0464092Y0180570D01*
X0463980Y0180602D01*
X0463866Y0180631D01*
X0463752Y0180657D01*
X0463637Y0180678D01*
X0463522Y0180697D01*
X0463405Y0180711D01*
X0463289Y0180722D01*
X0463172Y0180729D01*
X0463055Y0180733D01*
X0459359Y0179094D02*
X0455426Y0179094D01*
X0452755Y0180733D02*
X0451444Y0176800D01*
X0450133Y0180733D01*
X0451444Y0328800D02*
X0452755Y0332733D01*
X0450133Y0332733D02*
X0451444Y0328800D01*
X0455426Y0331094D02*
X0459359Y0331094D01*
X0462727Y0331094D02*
X0464366Y0330439D01*
X0464367Y0330439D02*
X0464419Y0330416D01*
X0464470Y0330389D01*
X0464519Y0330359D01*
X0464566Y0330326D01*
X0464611Y0330290D01*
X0464653Y0330250D01*
X0464692Y0330208D01*
X0464728Y0330164D01*
X0464761Y0330117D01*
X0464791Y0330067D01*
X0464818Y0330016D01*
X0464841Y0329964D01*
X0464860Y0329910D01*
X0464876Y0329854D01*
X0464888Y0329798D01*
X0464896Y0329741D01*
X0464900Y0329684D01*
X0464901Y0329626D01*
X0464897Y0329569D01*
X0464890Y0329512D01*
X0464878Y0329455D01*
X0464863Y0329400D01*
X0464845Y0329345D01*
X0464822Y0329292D01*
X0464796Y0329241D01*
X0464767Y0329192D01*
X0464734Y0329144D01*
X0464698Y0329099D01*
X0464660Y0329057D01*
X0464618Y0329017D01*
X0464574Y0328980D01*
X0464527Y0328946D01*
X0464479Y0328915D01*
X0464428Y0328888D01*
X0464376Y0328864D01*
X0464322Y0328844D01*
X0464267Y0328828D01*
X0464211Y0328815D01*
X0464154Y0328806D01*
X0464096Y0328801D01*
X0464039Y0328800D01*
X0464530Y0332405D02*
X0464423Y0332451D01*
X0464314Y0332494D01*
X0464204Y0332534D01*
X0464092Y0332570D01*
X0463980Y0332602D01*
X0463866Y0332631D01*
X0463752Y0332657D01*
X0463637Y0332678D01*
X0463522Y0332697D01*
X0463405Y0332711D01*
X0463289Y0332722D01*
X0463172Y0332729D01*
X0463055Y0332733D01*
X0463055Y0332734D02*
X0462998Y0332733D01*
X0462940Y0332728D01*
X0462883Y0332719D01*
X0462827Y0332706D01*
X0462772Y0332690D01*
X0462718Y0332670D01*
X0462666Y0332646D01*
X0462615Y0332619D01*
X0462567Y0332588D01*
X0462520Y0332554D01*
X0462476Y0332517D01*
X0462434Y0332477D01*
X0462396Y0332435D01*
X0462360Y0332390D01*
X0462327Y0332342D01*
X0462298Y0332293D01*
X0462272Y0332242D01*
X0462249Y0332189D01*
X0462231Y0332134D01*
X0462216Y0332079D01*
X0462204Y0332022D01*
X0462197Y0331965D01*
X0462193Y0331908D01*
X0462194Y0331850D01*
X0462198Y0331793D01*
X0462206Y0331736D01*
X0462218Y0331680D01*
X0462234Y0331624D01*
X0462253Y0331570D01*
X0462276Y0331518D01*
X0462303Y0331467D01*
X0462333Y0331417D01*
X0462366Y0331370D01*
X0462402Y0331326D01*
X0462441Y0331284D01*
X0462483Y0331244D01*
X0462528Y0331208D01*
X0462575Y0331175D01*
X0462624Y0331145D01*
X0462675Y0331118D01*
X0462727Y0331095D01*
X0462236Y0329128D02*
X0462370Y0329082D01*
X0462505Y0329039D01*
X0462641Y0329000D01*
X0462778Y0328964D01*
X0462915Y0328932D01*
X0463054Y0328903D01*
X0463193Y0328877D01*
X0463333Y0328856D01*
X0463474Y0328837D01*
X0463614Y0328823D01*
X0463756Y0328812D01*
X0463897Y0328804D01*
X0464039Y0328801D01*
X0467580Y0329783D02*
X0467580Y0331750D01*
X0467582Y0331812D01*
X0467588Y0331873D01*
X0467597Y0331934D01*
X0467611Y0331994D01*
X0467628Y0332054D01*
X0467649Y0332112D01*
X0467674Y0332169D01*
X0467702Y0332224D01*
X0467733Y0332277D01*
X0467768Y0332328D01*
X0467806Y0332377D01*
X0467846Y0332423D01*
X0467890Y0332467D01*
X0467936Y0332507D01*
X0467985Y0332545D01*
X0468036Y0332580D01*
X0468089Y0332611D01*
X0468144Y0332639D01*
X0468201Y0332664D01*
X0468259Y0332685D01*
X0468319Y0332702D01*
X0468379Y0332716D01*
X0468440Y0332725D01*
X0468501Y0332731D01*
X0468563Y0332733D01*
X0469874Y0332733D01*
X0472287Y0331422D02*
X0472287Y0330111D01*
X0472289Y0330040D01*
X0472295Y0329969D01*
X0472304Y0329899D01*
X0472318Y0329829D01*
X0472335Y0329760D01*
X0472356Y0329692D01*
X0472380Y0329626D01*
X0472408Y0329561D01*
X0472440Y0329497D01*
X0472475Y0329435D01*
X0472513Y0329375D01*
X0472554Y0329318D01*
X0472599Y0329262D01*
X0472646Y0329209D01*
X0472696Y0329159D01*
X0472749Y0329112D01*
X0472805Y0329067D01*
X0472862Y0329026D01*
X0472922Y0328988D01*
X0472984Y0328953D01*
X0473048Y0328921D01*
X0473113Y0328893D01*
X0473179Y0328869D01*
X0473247Y0328848D01*
X0473316Y0328831D01*
X0473386Y0328817D01*
X0473456Y0328808D01*
X0473527Y0328802D01*
X0473598Y0328800D01*
X0473669Y0328802D01*
X0473740Y0328808D01*
X0473810Y0328817D01*
X0473880Y0328831D01*
X0473949Y0328848D01*
X0474017Y0328869D01*
X0474083Y0328893D01*
X0474148Y0328921D01*
X0474212Y0328953D01*
X0474274Y0328988D01*
X0474334Y0329026D01*
X0474391Y0329067D01*
X0474447Y0329112D01*
X0474500Y0329159D01*
X0474550Y0329209D01*
X0474597Y0329262D01*
X0474642Y0329318D01*
X0474683Y0329375D01*
X0474721Y0329435D01*
X0474756Y0329497D01*
X0474788Y0329561D01*
X0474816Y0329626D01*
X0474840Y0329692D01*
X0474861Y0329760D01*
X0474878Y0329829D01*
X0474892Y0329899D01*
X0474901Y0329969D01*
X0474907Y0330040D01*
X0474909Y0330111D01*
X0474910Y0330111D02*
X0474910Y0331422D01*
X0474909Y0331422D02*
X0474907Y0331493D01*
X0474901Y0331564D01*
X0474892Y0331634D01*
X0474878Y0331704D01*
X0474861Y0331773D01*
X0474840Y0331841D01*
X0474816Y0331907D01*
X0474788Y0331972D01*
X0474756Y0332036D01*
X0474721Y0332098D01*
X0474683Y0332158D01*
X0474642Y0332215D01*
X0474597Y0332271D01*
X0474550Y0332324D01*
X0474500Y0332374D01*
X0474447Y0332421D01*
X0474391Y0332466D01*
X0474334Y0332507D01*
X0474274Y0332545D01*
X0474212Y0332580D01*
X0474148Y0332612D01*
X0474083Y0332640D01*
X0474017Y0332664D01*
X0473949Y0332685D01*
X0473880Y0332702D01*
X0473810Y0332716D01*
X0473740Y0332725D01*
X0473669Y0332731D01*
X0473598Y0332733D01*
X0473527Y0332731D01*
X0473456Y0332725D01*
X0473386Y0332716D01*
X0473316Y0332702D01*
X0473247Y0332685D01*
X0473179Y0332664D01*
X0473113Y0332640D01*
X0473048Y0332612D01*
X0472984Y0332580D01*
X0472922Y0332545D01*
X0472862Y0332507D01*
X0472805Y0332466D01*
X0472749Y0332421D01*
X0472696Y0332374D01*
X0472646Y0332324D01*
X0472599Y0332271D01*
X0472554Y0332215D01*
X0472513Y0332158D01*
X0472475Y0332098D01*
X0472440Y0332036D01*
X0472408Y0331972D01*
X0472380Y0331907D01*
X0472356Y0331841D01*
X0472335Y0331773D01*
X0472318Y0331704D01*
X0472304Y0331634D01*
X0472295Y0331564D01*
X0472289Y0331493D01*
X0472287Y0331422D01*
X0469874Y0328800D02*
X0468563Y0328800D01*
X0468501Y0328802D01*
X0468440Y0328808D01*
X0468379Y0328817D01*
X0468319Y0328831D01*
X0468259Y0328848D01*
X0468201Y0328869D01*
X0468144Y0328894D01*
X0468089Y0328922D01*
X0468036Y0328953D01*
X0467985Y0328988D01*
X0467936Y0329026D01*
X0467890Y0329066D01*
X0467846Y0329110D01*
X0467806Y0329156D01*
X0467768Y0329205D01*
X0467733Y0329256D01*
X0467702Y0329309D01*
X0467674Y0329364D01*
X0467649Y0329421D01*
X0467628Y0329479D01*
X0467611Y0329539D01*
X0467597Y0329599D01*
X0467588Y0329660D01*
X0467582Y0329721D01*
X0467580Y0329783D01*
X0477876Y0328800D02*
X0477876Y0332733D01*
X0479843Y0332733D01*
X0479843Y0332078D01*
X0481929Y0331422D02*
X0481929Y0329783D01*
X0481931Y0329721D01*
X0481937Y0329660D01*
X0481946Y0329599D01*
X0481960Y0329539D01*
X0481977Y0329479D01*
X0481998Y0329421D01*
X0482023Y0329364D01*
X0482051Y0329309D01*
X0482082Y0329256D01*
X0482117Y0329205D01*
X0482155Y0329156D01*
X0482195Y0329110D01*
X0482239Y0329066D01*
X0482285Y0329026D01*
X0482334Y0328988D01*
X0482385Y0328953D01*
X0482438Y0328922D01*
X0482493Y0328894D01*
X0482550Y0328869D01*
X0482608Y0328848D01*
X0482668Y0328831D01*
X0482728Y0328817D01*
X0482789Y0328808D01*
X0482850Y0328802D01*
X0482912Y0328800D01*
X0484551Y0328800D01*
X0484551Y0330767D02*
X0481929Y0330767D01*
X0481929Y0331422D02*
X0481931Y0331493D01*
X0481937Y0331564D01*
X0481946Y0331634D01*
X0481960Y0331704D01*
X0481977Y0331773D01*
X0481998Y0331841D01*
X0482022Y0331907D01*
X0482050Y0331972D01*
X0482082Y0332036D01*
X0482117Y0332098D01*
X0482155Y0332158D01*
X0482196Y0332215D01*
X0482241Y0332271D01*
X0482288Y0332324D01*
X0482338Y0332374D01*
X0482391Y0332421D01*
X0482447Y0332466D01*
X0482504Y0332507D01*
X0482564Y0332545D01*
X0482626Y0332580D01*
X0482690Y0332612D01*
X0482755Y0332640D01*
X0482821Y0332664D01*
X0482889Y0332685D01*
X0482958Y0332702D01*
X0483028Y0332716D01*
X0483098Y0332725D01*
X0483169Y0332731D01*
X0483240Y0332733D01*
X0483311Y0332731D01*
X0483382Y0332725D01*
X0483452Y0332716D01*
X0483522Y0332702D01*
X0483591Y0332685D01*
X0483659Y0332664D01*
X0483725Y0332640D01*
X0483790Y0332612D01*
X0483854Y0332580D01*
X0483916Y0332545D01*
X0483976Y0332507D01*
X0484033Y0332466D01*
X0484089Y0332421D01*
X0484142Y0332374D01*
X0484192Y0332324D01*
X0484239Y0332271D01*
X0484284Y0332215D01*
X0484325Y0332158D01*
X0484363Y0332098D01*
X0484398Y0332036D01*
X0484430Y0331972D01*
X0484458Y0331907D01*
X0484482Y0331841D01*
X0484503Y0331773D01*
X0484520Y0331704D01*
X0484534Y0331634D01*
X0484543Y0331564D01*
X0484549Y0331493D01*
X0484551Y0331422D01*
X0484551Y0330767D01*
X0403551Y0388800D02*
X0401912Y0388800D01*
X0401850Y0388802D01*
X0401789Y0388808D01*
X0401728Y0388817D01*
X0401668Y0388831D01*
X0401608Y0388848D01*
X0401550Y0388869D01*
X0401493Y0388894D01*
X0401438Y0388922D01*
X0401385Y0388953D01*
X0401334Y0388988D01*
X0401285Y0389026D01*
X0401239Y0389066D01*
X0401195Y0389110D01*
X0401155Y0389156D01*
X0401117Y0389205D01*
X0401082Y0389256D01*
X0401051Y0389309D01*
X0401023Y0389364D01*
X0400998Y0389421D01*
X0400977Y0389479D01*
X0400960Y0389539D01*
X0400946Y0389599D01*
X0400937Y0389660D01*
X0400931Y0389721D01*
X0400929Y0389783D01*
X0400929Y0391422D01*
X0400929Y0390767D02*
X0403551Y0390767D01*
X0403551Y0391422D01*
X0403549Y0391493D01*
X0403543Y0391564D01*
X0403534Y0391634D01*
X0403520Y0391704D01*
X0403503Y0391773D01*
X0403482Y0391841D01*
X0403458Y0391907D01*
X0403430Y0391972D01*
X0403398Y0392036D01*
X0403363Y0392098D01*
X0403325Y0392158D01*
X0403284Y0392215D01*
X0403239Y0392271D01*
X0403192Y0392324D01*
X0403142Y0392374D01*
X0403089Y0392421D01*
X0403033Y0392466D01*
X0402976Y0392507D01*
X0402916Y0392545D01*
X0402854Y0392580D01*
X0402790Y0392612D01*
X0402725Y0392640D01*
X0402659Y0392664D01*
X0402591Y0392685D01*
X0402522Y0392702D01*
X0402452Y0392716D01*
X0402382Y0392725D01*
X0402311Y0392731D01*
X0402240Y0392733D01*
X0402169Y0392731D01*
X0402098Y0392725D01*
X0402028Y0392716D01*
X0401958Y0392702D01*
X0401889Y0392685D01*
X0401821Y0392664D01*
X0401755Y0392640D01*
X0401690Y0392612D01*
X0401626Y0392580D01*
X0401564Y0392545D01*
X0401504Y0392507D01*
X0401447Y0392466D01*
X0401391Y0392421D01*
X0401338Y0392374D01*
X0401288Y0392324D01*
X0401241Y0392271D01*
X0401196Y0392215D01*
X0401155Y0392158D01*
X0401117Y0392098D01*
X0401082Y0392036D01*
X0401050Y0391972D01*
X0401022Y0391907D01*
X0400998Y0391841D01*
X0400977Y0391773D01*
X0400960Y0391704D01*
X0400946Y0391634D01*
X0400937Y0391564D01*
X0400931Y0391493D01*
X0400929Y0391422D01*
X0398843Y0392078D02*
X0398843Y0392733D01*
X0396876Y0392733D01*
X0396876Y0388800D01*
X0393910Y0390111D02*
X0393910Y0391422D01*
X0393909Y0391422D02*
X0393907Y0391493D01*
X0393901Y0391564D01*
X0393892Y0391634D01*
X0393878Y0391704D01*
X0393861Y0391773D01*
X0393840Y0391841D01*
X0393816Y0391907D01*
X0393788Y0391972D01*
X0393756Y0392036D01*
X0393721Y0392098D01*
X0393683Y0392158D01*
X0393642Y0392215D01*
X0393597Y0392271D01*
X0393550Y0392324D01*
X0393500Y0392374D01*
X0393447Y0392421D01*
X0393391Y0392466D01*
X0393334Y0392507D01*
X0393274Y0392545D01*
X0393212Y0392580D01*
X0393148Y0392612D01*
X0393083Y0392640D01*
X0393017Y0392664D01*
X0392949Y0392685D01*
X0392880Y0392702D01*
X0392810Y0392716D01*
X0392740Y0392725D01*
X0392669Y0392731D01*
X0392598Y0392733D01*
X0392527Y0392731D01*
X0392456Y0392725D01*
X0392386Y0392716D01*
X0392316Y0392702D01*
X0392247Y0392685D01*
X0392179Y0392664D01*
X0392113Y0392640D01*
X0392048Y0392612D01*
X0391984Y0392580D01*
X0391922Y0392545D01*
X0391862Y0392507D01*
X0391805Y0392466D01*
X0391749Y0392421D01*
X0391696Y0392374D01*
X0391646Y0392324D01*
X0391599Y0392271D01*
X0391554Y0392215D01*
X0391513Y0392158D01*
X0391475Y0392098D01*
X0391440Y0392036D01*
X0391408Y0391972D01*
X0391380Y0391907D01*
X0391356Y0391841D01*
X0391335Y0391773D01*
X0391318Y0391704D01*
X0391304Y0391634D01*
X0391295Y0391564D01*
X0391289Y0391493D01*
X0391287Y0391422D01*
X0391287Y0390111D01*
X0391289Y0390040D01*
X0391295Y0389969D01*
X0391304Y0389899D01*
X0391318Y0389829D01*
X0391335Y0389760D01*
X0391356Y0389692D01*
X0391380Y0389626D01*
X0391408Y0389561D01*
X0391440Y0389497D01*
X0391475Y0389435D01*
X0391513Y0389375D01*
X0391554Y0389318D01*
X0391599Y0389262D01*
X0391646Y0389209D01*
X0391696Y0389159D01*
X0391749Y0389112D01*
X0391805Y0389067D01*
X0391862Y0389026D01*
X0391922Y0388988D01*
X0391984Y0388953D01*
X0392048Y0388921D01*
X0392113Y0388893D01*
X0392179Y0388869D01*
X0392247Y0388848D01*
X0392316Y0388831D01*
X0392386Y0388817D01*
X0392456Y0388808D01*
X0392527Y0388802D01*
X0392598Y0388800D01*
X0392669Y0388802D01*
X0392740Y0388808D01*
X0392810Y0388817D01*
X0392880Y0388831D01*
X0392949Y0388848D01*
X0393017Y0388869D01*
X0393083Y0388893D01*
X0393148Y0388921D01*
X0393212Y0388953D01*
X0393274Y0388988D01*
X0393334Y0389026D01*
X0393391Y0389067D01*
X0393447Y0389112D01*
X0393500Y0389159D01*
X0393550Y0389209D01*
X0393597Y0389262D01*
X0393642Y0389318D01*
X0393683Y0389375D01*
X0393721Y0389435D01*
X0393756Y0389497D01*
X0393788Y0389561D01*
X0393816Y0389626D01*
X0393840Y0389692D01*
X0393861Y0389760D01*
X0393878Y0389829D01*
X0393892Y0389899D01*
X0393901Y0389969D01*
X0393907Y0390040D01*
X0393909Y0390111D01*
X0388874Y0388800D02*
X0387563Y0388800D01*
X0387501Y0388802D01*
X0387440Y0388808D01*
X0387379Y0388817D01*
X0387319Y0388831D01*
X0387259Y0388848D01*
X0387201Y0388869D01*
X0387144Y0388894D01*
X0387089Y0388922D01*
X0387036Y0388953D01*
X0386985Y0388988D01*
X0386936Y0389026D01*
X0386890Y0389066D01*
X0386846Y0389110D01*
X0386806Y0389156D01*
X0386768Y0389205D01*
X0386733Y0389256D01*
X0386702Y0389309D01*
X0386674Y0389364D01*
X0386649Y0389421D01*
X0386628Y0389479D01*
X0386611Y0389539D01*
X0386597Y0389599D01*
X0386588Y0389660D01*
X0386582Y0389721D01*
X0386580Y0389783D01*
X0386580Y0391750D01*
X0386582Y0391812D01*
X0386588Y0391873D01*
X0386597Y0391934D01*
X0386611Y0391994D01*
X0386628Y0392054D01*
X0386649Y0392112D01*
X0386674Y0392169D01*
X0386702Y0392224D01*
X0386733Y0392277D01*
X0386768Y0392328D01*
X0386806Y0392377D01*
X0386846Y0392423D01*
X0386890Y0392467D01*
X0386936Y0392507D01*
X0386985Y0392545D01*
X0387036Y0392580D01*
X0387089Y0392611D01*
X0387144Y0392639D01*
X0387201Y0392664D01*
X0387259Y0392685D01*
X0387319Y0392702D01*
X0387379Y0392716D01*
X0387440Y0392725D01*
X0387501Y0392731D01*
X0387563Y0392733D01*
X0388874Y0392733D01*
X0383366Y0390439D02*
X0381727Y0391094D01*
X0381727Y0391095D02*
X0381675Y0391118D01*
X0381624Y0391145D01*
X0381575Y0391175D01*
X0381528Y0391208D01*
X0381483Y0391244D01*
X0381441Y0391284D01*
X0381402Y0391326D01*
X0381366Y0391370D01*
X0381333Y0391417D01*
X0381303Y0391467D01*
X0381276Y0391518D01*
X0381253Y0391570D01*
X0381234Y0391624D01*
X0381218Y0391680D01*
X0381206Y0391736D01*
X0381198Y0391793D01*
X0381194Y0391850D01*
X0381193Y0391908D01*
X0381197Y0391965D01*
X0381204Y0392022D01*
X0381216Y0392079D01*
X0381231Y0392134D01*
X0381249Y0392189D01*
X0381272Y0392242D01*
X0381298Y0392293D01*
X0381327Y0392342D01*
X0381360Y0392390D01*
X0381396Y0392435D01*
X0381434Y0392477D01*
X0381476Y0392517D01*
X0381520Y0392554D01*
X0381567Y0392588D01*
X0381615Y0392619D01*
X0381666Y0392646D01*
X0381718Y0392670D01*
X0381772Y0392690D01*
X0381827Y0392706D01*
X0381883Y0392719D01*
X0381940Y0392728D01*
X0381998Y0392733D01*
X0382055Y0392734D01*
X0381236Y0389128D02*
X0381370Y0389082D01*
X0381505Y0389039D01*
X0381641Y0389000D01*
X0381778Y0388964D01*
X0381915Y0388932D01*
X0382054Y0388903D01*
X0382193Y0388877D01*
X0382333Y0388856D01*
X0382474Y0388837D01*
X0382614Y0388823D01*
X0382756Y0388812D01*
X0382897Y0388804D01*
X0383039Y0388801D01*
X0383039Y0388800D02*
X0383096Y0388801D01*
X0383154Y0388806D01*
X0383211Y0388815D01*
X0383267Y0388828D01*
X0383322Y0388844D01*
X0383376Y0388864D01*
X0383428Y0388888D01*
X0383479Y0388915D01*
X0383527Y0388946D01*
X0383574Y0388980D01*
X0383618Y0389017D01*
X0383660Y0389057D01*
X0383698Y0389099D01*
X0383734Y0389144D01*
X0383767Y0389192D01*
X0383796Y0389241D01*
X0383822Y0389292D01*
X0383845Y0389345D01*
X0383863Y0389400D01*
X0383878Y0389455D01*
X0383890Y0389512D01*
X0383897Y0389569D01*
X0383901Y0389626D01*
X0383900Y0389684D01*
X0383896Y0389741D01*
X0383888Y0389798D01*
X0383876Y0389854D01*
X0383860Y0389910D01*
X0383841Y0389964D01*
X0383818Y0390016D01*
X0383791Y0390067D01*
X0383761Y0390117D01*
X0383728Y0390164D01*
X0383692Y0390208D01*
X0383653Y0390250D01*
X0383611Y0390290D01*
X0383566Y0390326D01*
X0383519Y0390359D01*
X0383470Y0390389D01*
X0383419Y0390416D01*
X0383367Y0390439D01*
X0383530Y0392405D02*
X0383423Y0392451D01*
X0383314Y0392494D01*
X0383204Y0392534D01*
X0383092Y0392570D01*
X0382980Y0392602D01*
X0382866Y0392631D01*
X0382752Y0392657D01*
X0382637Y0392678D01*
X0382522Y0392697D01*
X0382405Y0392711D01*
X0382289Y0392722D01*
X0382172Y0392729D01*
X0382055Y0392733D01*
X0378359Y0391094D02*
X0374426Y0391094D01*
X0371755Y0392733D02*
X0370444Y0388800D01*
X0369133Y0392733D01*
X0226551Y0391422D02*
X0226551Y0390767D01*
X0223929Y0390767D01*
X0223929Y0391422D02*
X0223929Y0389783D01*
X0223931Y0389721D01*
X0223937Y0389660D01*
X0223946Y0389599D01*
X0223960Y0389539D01*
X0223977Y0389479D01*
X0223998Y0389421D01*
X0224023Y0389364D01*
X0224051Y0389309D01*
X0224082Y0389256D01*
X0224117Y0389205D01*
X0224155Y0389156D01*
X0224195Y0389110D01*
X0224239Y0389066D01*
X0224285Y0389026D01*
X0224334Y0388988D01*
X0224385Y0388953D01*
X0224438Y0388922D01*
X0224493Y0388894D01*
X0224550Y0388869D01*
X0224608Y0388848D01*
X0224668Y0388831D01*
X0224728Y0388817D01*
X0224789Y0388808D01*
X0224850Y0388802D01*
X0224912Y0388800D01*
X0226551Y0388800D01*
X0226551Y0391422D02*
X0226549Y0391493D01*
X0226543Y0391564D01*
X0226534Y0391634D01*
X0226520Y0391704D01*
X0226503Y0391773D01*
X0226482Y0391841D01*
X0226458Y0391907D01*
X0226430Y0391972D01*
X0226398Y0392036D01*
X0226363Y0392098D01*
X0226325Y0392158D01*
X0226284Y0392215D01*
X0226239Y0392271D01*
X0226192Y0392324D01*
X0226142Y0392374D01*
X0226089Y0392421D01*
X0226033Y0392466D01*
X0225976Y0392507D01*
X0225916Y0392545D01*
X0225854Y0392580D01*
X0225790Y0392612D01*
X0225725Y0392640D01*
X0225659Y0392664D01*
X0225591Y0392685D01*
X0225522Y0392702D01*
X0225452Y0392716D01*
X0225382Y0392725D01*
X0225311Y0392731D01*
X0225240Y0392733D01*
X0225169Y0392731D01*
X0225098Y0392725D01*
X0225028Y0392716D01*
X0224958Y0392702D01*
X0224889Y0392685D01*
X0224821Y0392664D01*
X0224755Y0392640D01*
X0224690Y0392612D01*
X0224626Y0392580D01*
X0224564Y0392545D01*
X0224504Y0392507D01*
X0224447Y0392466D01*
X0224391Y0392421D01*
X0224338Y0392374D01*
X0224288Y0392324D01*
X0224241Y0392271D01*
X0224196Y0392215D01*
X0224155Y0392158D01*
X0224117Y0392098D01*
X0224082Y0392036D01*
X0224050Y0391972D01*
X0224022Y0391907D01*
X0223998Y0391841D01*
X0223977Y0391773D01*
X0223960Y0391704D01*
X0223946Y0391634D01*
X0223937Y0391564D01*
X0223931Y0391493D01*
X0223929Y0391422D01*
X0221843Y0392078D02*
X0221843Y0392733D01*
X0219876Y0392733D01*
X0219876Y0388800D01*
X0216910Y0390111D02*
X0216910Y0391422D01*
X0216909Y0391422D02*
X0216907Y0391493D01*
X0216901Y0391564D01*
X0216892Y0391634D01*
X0216878Y0391704D01*
X0216861Y0391773D01*
X0216840Y0391841D01*
X0216816Y0391907D01*
X0216788Y0391972D01*
X0216756Y0392036D01*
X0216721Y0392098D01*
X0216683Y0392158D01*
X0216642Y0392215D01*
X0216597Y0392271D01*
X0216550Y0392324D01*
X0216500Y0392374D01*
X0216447Y0392421D01*
X0216391Y0392466D01*
X0216334Y0392507D01*
X0216274Y0392545D01*
X0216212Y0392580D01*
X0216148Y0392612D01*
X0216083Y0392640D01*
X0216017Y0392664D01*
X0215949Y0392685D01*
X0215880Y0392702D01*
X0215810Y0392716D01*
X0215740Y0392725D01*
X0215669Y0392731D01*
X0215598Y0392733D01*
X0215527Y0392731D01*
X0215456Y0392725D01*
X0215386Y0392716D01*
X0215316Y0392702D01*
X0215247Y0392685D01*
X0215179Y0392664D01*
X0215113Y0392640D01*
X0215048Y0392612D01*
X0214984Y0392580D01*
X0214922Y0392545D01*
X0214862Y0392507D01*
X0214805Y0392466D01*
X0214749Y0392421D01*
X0214696Y0392374D01*
X0214646Y0392324D01*
X0214599Y0392271D01*
X0214554Y0392215D01*
X0214513Y0392158D01*
X0214475Y0392098D01*
X0214440Y0392036D01*
X0214408Y0391972D01*
X0214380Y0391907D01*
X0214356Y0391841D01*
X0214335Y0391773D01*
X0214318Y0391704D01*
X0214304Y0391634D01*
X0214295Y0391564D01*
X0214289Y0391493D01*
X0214287Y0391422D01*
X0214287Y0390111D01*
X0214289Y0390040D01*
X0214295Y0389969D01*
X0214304Y0389899D01*
X0214318Y0389829D01*
X0214335Y0389760D01*
X0214356Y0389692D01*
X0214380Y0389626D01*
X0214408Y0389561D01*
X0214440Y0389497D01*
X0214475Y0389435D01*
X0214513Y0389375D01*
X0214554Y0389318D01*
X0214599Y0389262D01*
X0214646Y0389209D01*
X0214696Y0389159D01*
X0214749Y0389112D01*
X0214805Y0389067D01*
X0214862Y0389026D01*
X0214922Y0388988D01*
X0214984Y0388953D01*
X0215048Y0388921D01*
X0215113Y0388893D01*
X0215179Y0388869D01*
X0215247Y0388848D01*
X0215316Y0388831D01*
X0215386Y0388817D01*
X0215456Y0388808D01*
X0215527Y0388802D01*
X0215598Y0388800D01*
X0215669Y0388802D01*
X0215740Y0388808D01*
X0215810Y0388817D01*
X0215880Y0388831D01*
X0215949Y0388848D01*
X0216017Y0388869D01*
X0216083Y0388893D01*
X0216148Y0388921D01*
X0216212Y0388953D01*
X0216274Y0388988D01*
X0216334Y0389026D01*
X0216391Y0389067D01*
X0216447Y0389112D01*
X0216500Y0389159D01*
X0216550Y0389209D01*
X0216597Y0389262D01*
X0216642Y0389318D01*
X0216683Y0389375D01*
X0216721Y0389435D01*
X0216756Y0389497D01*
X0216788Y0389561D01*
X0216816Y0389626D01*
X0216840Y0389692D01*
X0216861Y0389760D01*
X0216878Y0389829D01*
X0216892Y0389899D01*
X0216901Y0389969D01*
X0216907Y0390040D01*
X0216909Y0390111D01*
X0211874Y0388800D02*
X0210563Y0388800D01*
X0210501Y0388802D01*
X0210440Y0388808D01*
X0210379Y0388817D01*
X0210319Y0388831D01*
X0210259Y0388848D01*
X0210201Y0388869D01*
X0210144Y0388894D01*
X0210089Y0388922D01*
X0210036Y0388953D01*
X0209985Y0388988D01*
X0209936Y0389026D01*
X0209890Y0389066D01*
X0209846Y0389110D01*
X0209806Y0389156D01*
X0209768Y0389205D01*
X0209733Y0389256D01*
X0209702Y0389309D01*
X0209674Y0389364D01*
X0209649Y0389421D01*
X0209628Y0389479D01*
X0209611Y0389539D01*
X0209597Y0389599D01*
X0209588Y0389660D01*
X0209582Y0389721D01*
X0209580Y0389783D01*
X0209580Y0391750D01*
X0209582Y0391812D01*
X0209588Y0391873D01*
X0209597Y0391934D01*
X0209611Y0391994D01*
X0209628Y0392054D01*
X0209649Y0392112D01*
X0209674Y0392169D01*
X0209702Y0392224D01*
X0209733Y0392277D01*
X0209768Y0392328D01*
X0209806Y0392377D01*
X0209846Y0392423D01*
X0209890Y0392467D01*
X0209936Y0392507D01*
X0209985Y0392545D01*
X0210036Y0392580D01*
X0210089Y0392611D01*
X0210144Y0392639D01*
X0210201Y0392664D01*
X0210259Y0392685D01*
X0210319Y0392702D01*
X0210379Y0392716D01*
X0210440Y0392725D01*
X0210501Y0392731D01*
X0210563Y0392733D01*
X0211874Y0392733D01*
X0206366Y0390439D02*
X0204727Y0391094D01*
X0204727Y0391095D02*
X0204675Y0391118D01*
X0204624Y0391145D01*
X0204575Y0391175D01*
X0204528Y0391208D01*
X0204483Y0391244D01*
X0204441Y0391284D01*
X0204402Y0391326D01*
X0204366Y0391370D01*
X0204333Y0391417D01*
X0204303Y0391467D01*
X0204276Y0391518D01*
X0204253Y0391570D01*
X0204234Y0391624D01*
X0204218Y0391680D01*
X0204206Y0391736D01*
X0204198Y0391793D01*
X0204194Y0391850D01*
X0204193Y0391908D01*
X0204197Y0391965D01*
X0204204Y0392022D01*
X0204216Y0392079D01*
X0204231Y0392134D01*
X0204249Y0392189D01*
X0204272Y0392242D01*
X0204298Y0392293D01*
X0204327Y0392342D01*
X0204360Y0392390D01*
X0204396Y0392435D01*
X0204434Y0392477D01*
X0204476Y0392517D01*
X0204520Y0392554D01*
X0204567Y0392588D01*
X0204615Y0392619D01*
X0204666Y0392646D01*
X0204718Y0392670D01*
X0204772Y0392690D01*
X0204827Y0392706D01*
X0204883Y0392719D01*
X0204940Y0392728D01*
X0204998Y0392733D01*
X0205055Y0392734D01*
X0204236Y0389128D02*
X0204370Y0389082D01*
X0204505Y0389039D01*
X0204641Y0389000D01*
X0204778Y0388964D01*
X0204915Y0388932D01*
X0205054Y0388903D01*
X0205193Y0388877D01*
X0205333Y0388856D01*
X0205474Y0388837D01*
X0205614Y0388823D01*
X0205756Y0388812D01*
X0205897Y0388804D01*
X0206039Y0388801D01*
X0206039Y0388800D02*
X0206096Y0388801D01*
X0206154Y0388806D01*
X0206211Y0388815D01*
X0206267Y0388828D01*
X0206322Y0388844D01*
X0206376Y0388864D01*
X0206428Y0388888D01*
X0206479Y0388915D01*
X0206527Y0388946D01*
X0206574Y0388980D01*
X0206618Y0389017D01*
X0206660Y0389057D01*
X0206698Y0389099D01*
X0206734Y0389144D01*
X0206767Y0389192D01*
X0206796Y0389241D01*
X0206822Y0389292D01*
X0206845Y0389345D01*
X0206863Y0389400D01*
X0206878Y0389455D01*
X0206890Y0389512D01*
X0206897Y0389569D01*
X0206901Y0389626D01*
X0206900Y0389684D01*
X0206896Y0389741D01*
X0206888Y0389798D01*
X0206876Y0389854D01*
X0206860Y0389910D01*
X0206841Y0389964D01*
X0206818Y0390016D01*
X0206791Y0390067D01*
X0206761Y0390117D01*
X0206728Y0390164D01*
X0206692Y0390208D01*
X0206653Y0390250D01*
X0206611Y0390290D01*
X0206566Y0390326D01*
X0206519Y0390359D01*
X0206470Y0390389D01*
X0206419Y0390416D01*
X0206367Y0390439D01*
X0206530Y0392405D02*
X0206423Y0392451D01*
X0206314Y0392494D01*
X0206204Y0392534D01*
X0206092Y0392570D01*
X0205980Y0392602D01*
X0205866Y0392631D01*
X0205752Y0392657D01*
X0205637Y0392678D01*
X0205522Y0392697D01*
X0205405Y0392711D01*
X0205289Y0392722D01*
X0205172Y0392729D01*
X0205055Y0392733D01*
X0201359Y0391094D02*
X0197426Y0391094D01*
X0194755Y0392733D02*
X0193444Y0388800D01*
X0192133Y0392733D01*
X0049551Y0391422D02*
X0049551Y0390767D01*
X0046929Y0390767D01*
X0046929Y0391422D02*
X0046929Y0389783D01*
X0046931Y0389721D01*
X0046937Y0389660D01*
X0046946Y0389599D01*
X0046960Y0389539D01*
X0046977Y0389479D01*
X0046998Y0389421D01*
X0047023Y0389364D01*
X0047051Y0389309D01*
X0047082Y0389256D01*
X0047117Y0389205D01*
X0047155Y0389156D01*
X0047195Y0389110D01*
X0047239Y0389066D01*
X0047285Y0389026D01*
X0047334Y0388988D01*
X0047385Y0388953D01*
X0047438Y0388922D01*
X0047493Y0388894D01*
X0047550Y0388869D01*
X0047608Y0388848D01*
X0047668Y0388831D01*
X0047728Y0388817D01*
X0047789Y0388808D01*
X0047850Y0388802D01*
X0047912Y0388800D01*
X0049551Y0388800D01*
X0049551Y0391422D02*
X0049549Y0391493D01*
X0049543Y0391564D01*
X0049534Y0391634D01*
X0049520Y0391704D01*
X0049503Y0391773D01*
X0049482Y0391841D01*
X0049458Y0391907D01*
X0049430Y0391972D01*
X0049398Y0392036D01*
X0049363Y0392098D01*
X0049325Y0392158D01*
X0049284Y0392215D01*
X0049239Y0392271D01*
X0049192Y0392324D01*
X0049142Y0392374D01*
X0049089Y0392421D01*
X0049033Y0392466D01*
X0048976Y0392507D01*
X0048916Y0392545D01*
X0048854Y0392580D01*
X0048790Y0392612D01*
X0048725Y0392640D01*
X0048659Y0392664D01*
X0048591Y0392685D01*
X0048522Y0392702D01*
X0048452Y0392716D01*
X0048382Y0392725D01*
X0048311Y0392731D01*
X0048240Y0392733D01*
X0048169Y0392731D01*
X0048098Y0392725D01*
X0048028Y0392716D01*
X0047958Y0392702D01*
X0047889Y0392685D01*
X0047821Y0392664D01*
X0047755Y0392640D01*
X0047690Y0392612D01*
X0047626Y0392580D01*
X0047564Y0392545D01*
X0047504Y0392507D01*
X0047447Y0392466D01*
X0047391Y0392421D01*
X0047338Y0392374D01*
X0047288Y0392324D01*
X0047241Y0392271D01*
X0047196Y0392215D01*
X0047155Y0392158D01*
X0047117Y0392098D01*
X0047082Y0392036D01*
X0047050Y0391972D01*
X0047022Y0391907D01*
X0046998Y0391841D01*
X0046977Y0391773D01*
X0046960Y0391704D01*
X0046946Y0391634D01*
X0046937Y0391564D01*
X0046931Y0391493D01*
X0046929Y0391422D01*
X0044843Y0392078D02*
X0044843Y0392733D01*
X0042876Y0392733D01*
X0042876Y0388800D01*
X0039910Y0390111D02*
X0039910Y0391422D01*
X0039909Y0391422D02*
X0039907Y0391493D01*
X0039901Y0391564D01*
X0039892Y0391634D01*
X0039878Y0391704D01*
X0039861Y0391773D01*
X0039840Y0391841D01*
X0039816Y0391907D01*
X0039788Y0391972D01*
X0039756Y0392036D01*
X0039721Y0392098D01*
X0039683Y0392158D01*
X0039642Y0392215D01*
X0039597Y0392271D01*
X0039550Y0392324D01*
X0039500Y0392374D01*
X0039447Y0392421D01*
X0039391Y0392466D01*
X0039334Y0392507D01*
X0039274Y0392545D01*
X0039212Y0392580D01*
X0039148Y0392612D01*
X0039083Y0392640D01*
X0039017Y0392664D01*
X0038949Y0392685D01*
X0038880Y0392702D01*
X0038810Y0392716D01*
X0038740Y0392725D01*
X0038669Y0392731D01*
X0038598Y0392733D01*
X0038527Y0392731D01*
X0038456Y0392725D01*
X0038386Y0392716D01*
X0038316Y0392702D01*
X0038247Y0392685D01*
X0038179Y0392664D01*
X0038113Y0392640D01*
X0038048Y0392612D01*
X0037984Y0392580D01*
X0037922Y0392545D01*
X0037862Y0392507D01*
X0037805Y0392466D01*
X0037749Y0392421D01*
X0037696Y0392374D01*
X0037646Y0392324D01*
X0037599Y0392271D01*
X0037554Y0392215D01*
X0037513Y0392158D01*
X0037475Y0392098D01*
X0037440Y0392036D01*
X0037408Y0391972D01*
X0037380Y0391907D01*
X0037356Y0391841D01*
X0037335Y0391773D01*
X0037318Y0391704D01*
X0037304Y0391634D01*
X0037295Y0391564D01*
X0037289Y0391493D01*
X0037287Y0391422D01*
X0037287Y0390111D01*
X0037289Y0390040D01*
X0037295Y0389969D01*
X0037304Y0389899D01*
X0037318Y0389829D01*
X0037335Y0389760D01*
X0037356Y0389692D01*
X0037380Y0389626D01*
X0037408Y0389561D01*
X0037440Y0389497D01*
X0037475Y0389435D01*
X0037513Y0389375D01*
X0037554Y0389318D01*
X0037599Y0389262D01*
X0037646Y0389209D01*
X0037696Y0389159D01*
X0037749Y0389112D01*
X0037805Y0389067D01*
X0037862Y0389026D01*
X0037922Y0388988D01*
X0037984Y0388953D01*
X0038048Y0388921D01*
X0038113Y0388893D01*
X0038179Y0388869D01*
X0038247Y0388848D01*
X0038316Y0388831D01*
X0038386Y0388817D01*
X0038456Y0388808D01*
X0038527Y0388802D01*
X0038598Y0388800D01*
X0038669Y0388802D01*
X0038740Y0388808D01*
X0038810Y0388817D01*
X0038880Y0388831D01*
X0038949Y0388848D01*
X0039017Y0388869D01*
X0039083Y0388893D01*
X0039148Y0388921D01*
X0039212Y0388953D01*
X0039274Y0388988D01*
X0039334Y0389026D01*
X0039391Y0389067D01*
X0039447Y0389112D01*
X0039500Y0389159D01*
X0039550Y0389209D01*
X0039597Y0389262D01*
X0039642Y0389318D01*
X0039683Y0389375D01*
X0039721Y0389435D01*
X0039756Y0389497D01*
X0039788Y0389561D01*
X0039816Y0389626D01*
X0039840Y0389692D01*
X0039861Y0389760D01*
X0039878Y0389829D01*
X0039892Y0389899D01*
X0039901Y0389969D01*
X0039907Y0390040D01*
X0039909Y0390111D01*
X0034874Y0388800D02*
X0033563Y0388800D01*
X0033501Y0388802D01*
X0033440Y0388808D01*
X0033379Y0388817D01*
X0033319Y0388831D01*
X0033259Y0388848D01*
X0033201Y0388869D01*
X0033144Y0388894D01*
X0033089Y0388922D01*
X0033036Y0388953D01*
X0032985Y0388988D01*
X0032936Y0389026D01*
X0032890Y0389066D01*
X0032846Y0389110D01*
X0032806Y0389156D01*
X0032768Y0389205D01*
X0032733Y0389256D01*
X0032702Y0389309D01*
X0032674Y0389364D01*
X0032649Y0389421D01*
X0032628Y0389479D01*
X0032611Y0389539D01*
X0032597Y0389599D01*
X0032588Y0389660D01*
X0032582Y0389721D01*
X0032580Y0389783D01*
X0032580Y0391750D01*
X0032582Y0391812D01*
X0032588Y0391873D01*
X0032597Y0391934D01*
X0032611Y0391994D01*
X0032628Y0392054D01*
X0032649Y0392112D01*
X0032674Y0392169D01*
X0032702Y0392224D01*
X0032733Y0392277D01*
X0032768Y0392328D01*
X0032806Y0392377D01*
X0032846Y0392423D01*
X0032890Y0392467D01*
X0032936Y0392507D01*
X0032985Y0392545D01*
X0033036Y0392580D01*
X0033089Y0392611D01*
X0033144Y0392639D01*
X0033201Y0392664D01*
X0033259Y0392685D01*
X0033319Y0392702D01*
X0033379Y0392716D01*
X0033440Y0392725D01*
X0033501Y0392731D01*
X0033563Y0392733D01*
X0034874Y0392733D01*
X0029366Y0390439D02*
X0027727Y0391094D01*
X0027727Y0391095D02*
X0027675Y0391118D01*
X0027624Y0391145D01*
X0027575Y0391175D01*
X0027528Y0391208D01*
X0027483Y0391244D01*
X0027441Y0391284D01*
X0027402Y0391326D01*
X0027366Y0391370D01*
X0027333Y0391417D01*
X0027303Y0391467D01*
X0027276Y0391518D01*
X0027253Y0391570D01*
X0027234Y0391624D01*
X0027218Y0391680D01*
X0027206Y0391736D01*
X0027198Y0391793D01*
X0027194Y0391850D01*
X0027193Y0391908D01*
X0027197Y0391965D01*
X0027204Y0392022D01*
X0027216Y0392079D01*
X0027231Y0392134D01*
X0027249Y0392189D01*
X0027272Y0392242D01*
X0027298Y0392293D01*
X0027327Y0392342D01*
X0027360Y0392390D01*
X0027396Y0392435D01*
X0027434Y0392477D01*
X0027476Y0392517D01*
X0027520Y0392554D01*
X0027567Y0392588D01*
X0027615Y0392619D01*
X0027666Y0392646D01*
X0027718Y0392670D01*
X0027772Y0392690D01*
X0027827Y0392706D01*
X0027883Y0392719D01*
X0027940Y0392728D01*
X0027998Y0392733D01*
X0028055Y0392734D01*
X0027236Y0389128D02*
X0027370Y0389082D01*
X0027505Y0389039D01*
X0027641Y0389000D01*
X0027778Y0388964D01*
X0027915Y0388932D01*
X0028054Y0388903D01*
X0028193Y0388877D01*
X0028333Y0388856D01*
X0028474Y0388837D01*
X0028614Y0388823D01*
X0028756Y0388812D01*
X0028897Y0388804D01*
X0029039Y0388801D01*
X0029039Y0388800D02*
X0029096Y0388801D01*
X0029154Y0388806D01*
X0029211Y0388815D01*
X0029267Y0388828D01*
X0029322Y0388844D01*
X0029376Y0388864D01*
X0029428Y0388888D01*
X0029479Y0388915D01*
X0029527Y0388946D01*
X0029574Y0388980D01*
X0029618Y0389017D01*
X0029660Y0389057D01*
X0029698Y0389099D01*
X0029734Y0389144D01*
X0029767Y0389192D01*
X0029796Y0389241D01*
X0029822Y0389292D01*
X0029845Y0389345D01*
X0029863Y0389400D01*
X0029878Y0389455D01*
X0029890Y0389512D01*
X0029897Y0389569D01*
X0029901Y0389626D01*
X0029900Y0389684D01*
X0029896Y0389741D01*
X0029888Y0389798D01*
X0029876Y0389854D01*
X0029860Y0389910D01*
X0029841Y0389964D01*
X0029818Y0390016D01*
X0029791Y0390067D01*
X0029761Y0390117D01*
X0029728Y0390164D01*
X0029692Y0390208D01*
X0029653Y0390250D01*
X0029611Y0390290D01*
X0029566Y0390326D01*
X0029519Y0390359D01*
X0029470Y0390389D01*
X0029419Y0390416D01*
X0029367Y0390439D01*
X0029530Y0392405D02*
X0029423Y0392451D01*
X0029314Y0392494D01*
X0029204Y0392534D01*
X0029092Y0392570D01*
X0028980Y0392602D01*
X0028866Y0392631D01*
X0028752Y0392657D01*
X0028637Y0392678D01*
X0028522Y0392697D01*
X0028405Y0392711D01*
X0028289Y0392722D01*
X0028172Y0392729D01*
X0028055Y0392733D01*
X0024359Y0391094D02*
X0020426Y0391094D01*
X0017755Y0392733D02*
X0016444Y0388800D01*
X0015133Y0392733D01*
D13*
X0006342Y0026750D02*
X0006342Y0001750D01*
X0412342Y0001750D01*
X0412342Y0026750D01*
X0006342Y0026750D01*
X0006342Y0028750D02*
X0006342Y0330750D01*
X0031342Y0330750D01*
X0031342Y0028750D01*
X0006342Y0028750D01*
X0006342Y0332750D02*
X0006342Y0357750D01*
X0412342Y0357750D01*
X0412342Y0332750D01*
X0006342Y0332750D01*
X0387342Y0330750D02*
X0387342Y0028750D01*
X0412342Y0028750D01*
X0412342Y0330750D01*
X0387342Y0330750D01*
D14*
X0213842Y0320750D02*
X0213844Y0320911D01*
X0213850Y0321071D01*
X0213860Y0321232D01*
X0213874Y0321392D01*
X0213892Y0321552D01*
X0213913Y0321711D01*
X0213939Y0321870D01*
X0213969Y0322028D01*
X0214002Y0322185D01*
X0214040Y0322342D01*
X0214081Y0322497D01*
X0214126Y0322651D01*
X0214175Y0322804D01*
X0214228Y0322956D01*
X0214284Y0323107D01*
X0214345Y0323256D01*
X0214408Y0323404D01*
X0214476Y0323550D01*
X0214547Y0323694D01*
X0214621Y0323836D01*
X0214699Y0323977D01*
X0214781Y0324115D01*
X0214866Y0324252D01*
X0214954Y0324386D01*
X0215046Y0324518D01*
X0215141Y0324648D01*
X0215239Y0324776D01*
X0215340Y0324901D01*
X0215444Y0325023D01*
X0215551Y0325143D01*
X0215661Y0325260D01*
X0215774Y0325375D01*
X0215890Y0325486D01*
X0216009Y0325595D01*
X0216130Y0325700D01*
X0216254Y0325803D01*
X0216380Y0325903D01*
X0216508Y0325999D01*
X0216639Y0326092D01*
X0216773Y0326182D01*
X0216908Y0326269D01*
X0217046Y0326352D01*
X0217185Y0326432D01*
X0217327Y0326508D01*
X0217470Y0326581D01*
X0217615Y0326650D01*
X0217762Y0326716D01*
X0217910Y0326778D01*
X0218060Y0326836D01*
X0218211Y0326891D01*
X0218364Y0326942D01*
X0218518Y0326989D01*
X0218673Y0327032D01*
X0218829Y0327071D01*
X0218985Y0327107D01*
X0219143Y0327138D01*
X0219301Y0327166D01*
X0219460Y0327190D01*
X0219620Y0327210D01*
X0219780Y0327226D01*
X0219940Y0327238D01*
X0220101Y0327246D01*
X0220262Y0327250D01*
X0220422Y0327250D01*
X0220583Y0327246D01*
X0220744Y0327238D01*
X0220904Y0327226D01*
X0221064Y0327210D01*
X0221224Y0327190D01*
X0221383Y0327166D01*
X0221541Y0327138D01*
X0221699Y0327107D01*
X0221855Y0327071D01*
X0222011Y0327032D01*
X0222166Y0326989D01*
X0222320Y0326942D01*
X0222473Y0326891D01*
X0222624Y0326836D01*
X0222774Y0326778D01*
X0222922Y0326716D01*
X0223069Y0326650D01*
X0223214Y0326581D01*
X0223357Y0326508D01*
X0223499Y0326432D01*
X0223638Y0326352D01*
X0223776Y0326269D01*
X0223911Y0326182D01*
X0224045Y0326092D01*
X0224176Y0325999D01*
X0224304Y0325903D01*
X0224430Y0325803D01*
X0224554Y0325700D01*
X0224675Y0325595D01*
X0224794Y0325486D01*
X0224910Y0325375D01*
X0225023Y0325260D01*
X0225133Y0325143D01*
X0225240Y0325023D01*
X0225344Y0324901D01*
X0225445Y0324776D01*
X0225543Y0324648D01*
X0225638Y0324518D01*
X0225730Y0324386D01*
X0225818Y0324252D01*
X0225903Y0324115D01*
X0225985Y0323977D01*
X0226063Y0323836D01*
X0226137Y0323694D01*
X0226208Y0323550D01*
X0226276Y0323404D01*
X0226339Y0323256D01*
X0226400Y0323107D01*
X0226456Y0322956D01*
X0226509Y0322804D01*
X0226558Y0322651D01*
X0226603Y0322497D01*
X0226644Y0322342D01*
X0226682Y0322185D01*
X0226715Y0322028D01*
X0226745Y0321870D01*
X0226771Y0321711D01*
X0226792Y0321552D01*
X0226810Y0321392D01*
X0226824Y0321232D01*
X0226834Y0321071D01*
X0226840Y0320911D01*
X0226842Y0320750D01*
X0226840Y0320589D01*
X0226834Y0320429D01*
X0226824Y0320268D01*
X0226810Y0320108D01*
X0226792Y0319948D01*
X0226771Y0319789D01*
X0226745Y0319630D01*
X0226715Y0319472D01*
X0226682Y0319315D01*
X0226644Y0319158D01*
X0226603Y0319003D01*
X0226558Y0318849D01*
X0226509Y0318696D01*
X0226456Y0318544D01*
X0226400Y0318393D01*
X0226339Y0318244D01*
X0226276Y0318096D01*
X0226208Y0317950D01*
X0226137Y0317806D01*
X0226063Y0317664D01*
X0225985Y0317523D01*
X0225903Y0317385D01*
X0225818Y0317248D01*
X0225730Y0317114D01*
X0225638Y0316982D01*
X0225543Y0316852D01*
X0225445Y0316724D01*
X0225344Y0316599D01*
X0225240Y0316477D01*
X0225133Y0316357D01*
X0225023Y0316240D01*
X0224910Y0316125D01*
X0224794Y0316014D01*
X0224675Y0315905D01*
X0224554Y0315800D01*
X0224430Y0315697D01*
X0224304Y0315597D01*
X0224176Y0315501D01*
X0224045Y0315408D01*
X0223911Y0315318D01*
X0223776Y0315231D01*
X0223638Y0315148D01*
X0223499Y0315068D01*
X0223357Y0314992D01*
X0223214Y0314919D01*
X0223069Y0314850D01*
X0222922Y0314784D01*
X0222774Y0314722D01*
X0222624Y0314664D01*
X0222473Y0314609D01*
X0222320Y0314558D01*
X0222166Y0314511D01*
X0222011Y0314468D01*
X0221855Y0314429D01*
X0221699Y0314393D01*
X0221541Y0314362D01*
X0221383Y0314334D01*
X0221224Y0314310D01*
X0221064Y0314290D01*
X0220904Y0314274D01*
X0220744Y0314262D01*
X0220583Y0314254D01*
X0220422Y0314250D01*
X0220262Y0314250D01*
X0220101Y0314254D01*
X0219940Y0314262D01*
X0219780Y0314274D01*
X0219620Y0314290D01*
X0219460Y0314310D01*
X0219301Y0314334D01*
X0219143Y0314362D01*
X0218985Y0314393D01*
X0218829Y0314429D01*
X0218673Y0314468D01*
X0218518Y0314511D01*
X0218364Y0314558D01*
X0218211Y0314609D01*
X0218060Y0314664D01*
X0217910Y0314722D01*
X0217762Y0314784D01*
X0217615Y0314850D01*
X0217470Y0314919D01*
X0217327Y0314992D01*
X0217185Y0315068D01*
X0217046Y0315148D01*
X0216908Y0315231D01*
X0216773Y0315318D01*
X0216639Y0315408D01*
X0216508Y0315501D01*
X0216380Y0315597D01*
X0216254Y0315697D01*
X0216130Y0315800D01*
X0216009Y0315905D01*
X0215890Y0316014D01*
X0215774Y0316125D01*
X0215661Y0316240D01*
X0215551Y0316357D01*
X0215444Y0316477D01*
X0215340Y0316599D01*
X0215239Y0316724D01*
X0215141Y0316852D01*
X0215046Y0316982D01*
X0214954Y0317114D01*
X0214866Y0317248D01*
X0214781Y0317385D01*
X0214699Y0317523D01*
X0214621Y0317664D01*
X0214547Y0317806D01*
X0214476Y0317950D01*
X0214408Y0318096D01*
X0214345Y0318244D01*
X0214284Y0318393D01*
X0214228Y0318544D01*
X0214175Y0318696D01*
X0214126Y0318849D01*
X0214081Y0319003D01*
X0214040Y0319158D01*
X0214002Y0319315D01*
X0213969Y0319472D01*
X0213939Y0319630D01*
X0213913Y0319789D01*
X0213892Y0319948D01*
X0213874Y0320108D01*
X0213860Y0320268D01*
X0213850Y0320429D01*
X0213844Y0320589D01*
X0213842Y0320750D01*
X0213842Y0190750D02*
X0213844Y0190911D01*
X0213850Y0191071D01*
X0213860Y0191232D01*
X0213874Y0191392D01*
X0213892Y0191552D01*
X0213913Y0191711D01*
X0213939Y0191870D01*
X0213969Y0192028D01*
X0214002Y0192185D01*
X0214040Y0192342D01*
X0214081Y0192497D01*
X0214126Y0192651D01*
X0214175Y0192804D01*
X0214228Y0192956D01*
X0214284Y0193107D01*
X0214345Y0193256D01*
X0214408Y0193404D01*
X0214476Y0193550D01*
X0214547Y0193694D01*
X0214621Y0193836D01*
X0214699Y0193977D01*
X0214781Y0194115D01*
X0214866Y0194252D01*
X0214954Y0194386D01*
X0215046Y0194518D01*
X0215141Y0194648D01*
X0215239Y0194776D01*
X0215340Y0194901D01*
X0215444Y0195023D01*
X0215551Y0195143D01*
X0215661Y0195260D01*
X0215774Y0195375D01*
X0215890Y0195486D01*
X0216009Y0195595D01*
X0216130Y0195700D01*
X0216254Y0195803D01*
X0216380Y0195903D01*
X0216508Y0195999D01*
X0216639Y0196092D01*
X0216773Y0196182D01*
X0216908Y0196269D01*
X0217046Y0196352D01*
X0217185Y0196432D01*
X0217327Y0196508D01*
X0217470Y0196581D01*
X0217615Y0196650D01*
X0217762Y0196716D01*
X0217910Y0196778D01*
X0218060Y0196836D01*
X0218211Y0196891D01*
X0218364Y0196942D01*
X0218518Y0196989D01*
X0218673Y0197032D01*
X0218829Y0197071D01*
X0218985Y0197107D01*
X0219143Y0197138D01*
X0219301Y0197166D01*
X0219460Y0197190D01*
X0219620Y0197210D01*
X0219780Y0197226D01*
X0219940Y0197238D01*
X0220101Y0197246D01*
X0220262Y0197250D01*
X0220422Y0197250D01*
X0220583Y0197246D01*
X0220744Y0197238D01*
X0220904Y0197226D01*
X0221064Y0197210D01*
X0221224Y0197190D01*
X0221383Y0197166D01*
X0221541Y0197138D01*
X0221699Y0197107D01*
X0221855Y0197071D01*
X0222011Y0197032D01*
X0222166Y0196989D01*
X0222320Y0196942D01*
X0222473Y0196891D01*
X0222624Y0196836D01*
X0222774Y0196778D01*
X0222922Y0196716D01*
X0223069Y0196650D01*
X0223214Y0196581D01*
X0223357Y0196508D01*
X0223499Y0196432D01*
X0223638Y0196352D01*
X0223776Y0196269D01*
X0223911Y0196182D01*
X0224045Y0196092D01*
X0224176Y0195999D01*
X0224304Y0195903D01*
X0224430Y0195803D01*
X0224554Y0195700D01*
X0224675Y0195595D01*
X0224794Y0195486D01*
X0224910Y0195375D01*
X0225023Y0195260D01*
X0225133Y0195143D01*
X0225240Y0195023D01*
X0225344Y0194901D01*
X0225445Y0194776D01*
X0225543Y0194648D01*
X0225638Y0194518D01*
X0225730Y0194386D01*
X0225818Y0194252D01*
X0225903Y0194115D01*
X0225985Y0193977D01*
X0226063Y0193836D01*
X0226137Y0193694D01*
X0226208Y0193550D01*
X0226276Y0193404D01*
X0226339Y0193256D01*
X0226400Y0193107D01*
X0226456Y0192956D01*
X0226509Y0192804D01*
X0226558Y0192651D01*
X0226603Y0192497D01*
X0226644Y0192342D01*
X0226682Y0192185D01*
X0226715Y0192028D01*
X0226745Y0191870D01*
X0226771Y0191711D01*
X0226792Y0191552D01*
X0226810Y0191392D01*
X0226824Y0191232D01*
X0226834Y0191071D01*
X0226840Y0190911D01*
X0226842Y0190750D01*
X0226840Y0190589D01*
X0226834Y0190429D01*
X0226824Y0190268D01*
X0226810Y0190108D01*
X0226792Y0189948D01*
X0226771Y0189789D01*
X0226745Y0189630D01*
X0226715Y0189472D01*
X0226682Y0189315D01*
X0226644Y0189158D01*
X0226603Y0189003D01*
X0226558Y0188849D01*
X0226509Y0188696D01*
X0226456Y0188544D01*
X0226400Y0188393D01*
X0226339Y0188244D01*
X0226276Y0188096D01*
X0226208Y0187950D01*
X0226137Y0187806D01*
X0226063Y0187664D01*
X0225985Y0187523D01*
X0225903Y0187385D01*
X0225818Y0187248D01*
X0225730Y0187114D01*
X0225638Y0186982D01*
X0225543Y0186852D01*
X0225445Y0186724D01*
X0225344Y0186599D01*
X0225240Y0186477D01*
X0225133Y0186357D01*
X0225023Y0186240D01*
X0224910Y0186125D01*
X0224794Y0186014D01*
X0224675Y0185905D01*
X0224554Y0185800D01*
X0224430Y0185697D01*
X0224304Y0185597D01*
X0224176Y0185501D01*
X0224045Y0185408D01*
X0223911Y0185318D01*
X0223776Y0185231D01*
X0223638Y0185148D01*
X0223499Y0185068D01*
X0223357Y0184992D01*
X0223214Y0184919D01*
X0223069Y0184850D01*
X0222922Y0184784D01*
X0222774Y0184722D01*
X0222624Y0184664D01*
X0222473Y0184609D01*
X0222320Y0184558D01*
X0222166Y0184511D01*
X0222011Y0184468D01*
X0221855Y0184429D01*
X0221699Y0184393D01*
X0221541Y0184362D01*
X0221383Y0184334D01*
X0221224Y0184310D01*
X0221064Y0184290D01*
X0220904Y0184274D01*
X0220744Y0184262D01*
X0220583Y0184254D01*
X0220422Y0184250D01*
X0220262Y0184250D01*
X0220101Y0184254D01*
X0219940Y0184262D01*
X0219780Y0184274D01*
X0219620Y0184290D01*
X0219460Y0184310D01*
X0219301Y0184334D01*
X0219143Y0184362D01*
X0218985Y0184393D01*
X0218829Y0184429D01*
X0218673Y0184468D01*
X0218518Y0184511D01*
X0218364Y0184558D01*
X0218211Y0184609D01*
X0218060Y0184664D01*
X0217910Y0184722D01*
X0217762Y0184784D01*
X0217615Y0184850D01*
X0217470Y0184919D01*
X0217327Y0184992D01*
X0217185Y0185068D01*
X0217046Y0185148D01*
X0216908Y0185231D01*
X0216773Y0185318D01*
X0216639Y0185408D01*
X0216508Y0185501D01*
X0216380Y0185597D01*
X0216254Y0185697D01*
X0216130Y0185800D01*
X0216009Y0185905D01*
X0215890Y0186014D01*
X0215774Y0186125D01*
X0215661Y0186240D01*
X0215551Y0186357D01*
X0215444Y0186477D01*
X0215340Y0186599D01*
X0215239Y0186724D01*
X0215141Y0186852D01*
X0215046Y0186982D01*
X0214954Y0187114D01*
X0214866Y0187248D01*
X0214781Y0187385D01*
X0214699Y0187523D01*
X0214621Y0187664D01*
X0214547Y0187806D01*
X0214476Y0187950D01*
X0214408Y0188096D01*
X0214345Y0188244D01*
X0214284Y0188393D01*
X0214228Y0188544D01*
X0214175Y0188696D01*
X0214126Y0188849D01*
X0214081Y0189003D01*
X0214040Y0189158D01*
X0214002Y0189315D01*
X0213969Y0189472D01*
X0213939Y0189630D01*
X0213913Y0189789D01*
X0213892Y0189948D01*
X0213874Y0190108D01*
X0213860Y0190268D01*
X0213850Y0190429D01*
X0213844Y0190589D01*
X0213842Y0190750D01*
X0213842Y0168750D02*
X0213844Y0168911D01*
X0213850Y0169071D01*
X0213860Y0169232D01*
X0213874Y0169392D01*
X0213892Y0169552D01*
X0213913Y0169711D01*
X0213939Y0169870D01*
X0213969Y0170028D01*
X0214002Y0170185D01*
X0214040Y0170342D01*
X0214081Y0170497D01*
X0214126Y0170651D01*
X0214175Y0170804D01*
X0214228Y0170956D01*
X0214284Y0171107D01*
X0214345Y0171256D01*
X0214408Y0171404D01*
X0214476Y0171550D01*
X0214547Y0171694D01*
X0214621Y0171836D01*
X0214699Y0171977D01*
X0214781Y0172115D01*
X0214866Y0172252D01*
X0214954Y0172386D01*
X0215046Y0172518D01*
X0215141Y0172648D01*
X0215239Y0172776D01*
X0215340Y0172901D01*
X0215444Y0173023D01*
X0215551Y0173143D01*
X0215661Y0173260D01*
X0215774Y0173375D01*
X0215890Y0173486D01*
X0216009Y0173595D01*
X0216130Y0173700D01*
X0216254Y0173803D01*
X0216380Y0173903D01*
X0216508Y0173999D01*
X0216639Y0174092D01*
X0216773Y0174182D01*
X0216908Y0174269D01*
X0217046Y0174352D01*
X0217185Y0174432D01*
X0217327Y0174508D01*
X0217470Y0174581D01*
X0217615Y0174650D01*
X0217762Y0174716D01*
X0217910Y0174778D01*
X0218060Y0174836D01*
X0218211Y0174891D01*
X0218364Y0174942D01*
X0218518Y0174989D01*
X0218673Y0175032D01*
X0218829Y0175071D01*
X0218985Y0175107D01*
X0219143Y0175138D01*
X0219301Y0175166D01*
X0219460Y0175190D01*
X0219620Y0175210D01*
X0219780Y0175226D01*
X0219940Y0175238D01*
X0220101Y0175246D01*
X0220262Y0175250D01*
X0220422Y0175250D01*
X0220583Y0175246D01*
X0220744Y0175238D01*
X0220904Y0175226D01*
X0221064Y0175210D01*
X0221224Y0175190D01*
X0221383Y0175166D01*
X0221541Y0175138D01*
X0221699Y0175107D01*
X0221855Y0175071D01*
X0222011Y0175032D01*
X0222166Y0174989D01*
X0222320Y0174942D01*
X0222473Y0174891D01*
X0222624Y0174836D01*
X0222774Y0174778D01*
X0222922Y0174716D01*
X0223069Y0174650D01*
X0223214Y0174581D01*
X0223357Y0174508D01*
X0223499Y0174432D01*
X0223638Y0174352D01*
X0223776Y0174269D01*
X0223911Y0174182D01*
X0224045Y0174092D01*
X0224176Y0173999D01*
X0224304Y0173903D01*
X0224430Y0173803D01*
X0224554Y0173700D01*
X0224675Y0173595D01*
X0224794Y0173486D01*
X0224910Y0173375D01*
X0225023Y0173260D01*
X0225133Y0173143D01*
X0225240Y0173023D01*
X0225344Y0172901D01*
X0225445Y0172776D01*
X0225543Y0172648D01*
X0225638Y0172518D01*
X0225730Y0172386D01*
X0225818Y0172252D01*
X0225903Y0172115D01*
X0225985Y0171977D01*
X0226063Y0171836D01*
X0226137Y0171694D01*
X0226208Y0171550D01*
X0226276Y0171404D01*
X0226339Y0171256D01*
X0226400Y0171107D01*
X0226456Y0170956D01*
X0226509Y0170804D01*
X0226558Y0170651D01*
X0226603Y0170497D01*
X0226644Y0170342D01*
X0226682Y0170185D01*
X0226715Y0170028D01*
X0226745Y0169870D01*
X0226771Y0169711D01*
X0226792Y0169552D01*
X0226810Y0169392D01*
X0226824Y0169232D01*
X0226834Y0169071D01*
X0226840Y0168911D01*
X0226842Y0168750D01*
X0226840Y0168589D01*
X0226834Y0168429D01*
X0226824Y0168268D01*
X0226810Y0168108D01*
X0226792Y0167948D01*
X0226771Y0167789D01*
X0226745Y0167630D01*
X0226715Y0167472D01*
X0226682Y0167315D01*
X0226644Y0167158D01*
X0226603Y0167003D01*
X0226558Y0166849D01*
X0226509Y0166696D01*
X0226456Y0166544D01*
X0226400Y0166393D01*
X0226339Y0166244D01*
X0226276Y0166096D01*
X0226208Y0165950D01*
X0226137Y0165806D01*
X0226063Y0165664D01*
X0225985Y0165523D01*
X0225903Y0165385D01*
X0225818Y0165248D01*
X0225730Y0165114D01*
X0225638Y0164982D01*
X0225543Y0164852D01*
X0225445Y0164724D01*
X0225344Y0164599D01*
X0225240Y0164477D01*
X0225133Y0164357D01*
X0225023Y0164240D01*
X0224910Y0164125D01*
X0224794Y0164014D01*
X0224675Y0163905D01*
X0224554Y0163800D01*
X0224430Y0163697D01*
X0224304Y0163597D01*
X0224176Y0163501D01*
X0224045Y0163408D01*
X0223911Y0163318D01*
X0223776Y0163231D01*
X0223638Y0163148D01*
X0223499Y0163068D01*
X0223357Y0162992D01*
X0223214Y0162919D01*
X0223069Y0162850D01*
X0222922Y0162784D01*
X0222774Y0162722D01*
X0222624Y0162664D01*
X0222473Y0162609D01*
X0222320Y0162558D01*
X0222166Y0162511D01*
X0222011Y0162468D01*
X0221855Y0162429D01*
X0221699Y0162393D01*
X0221541Y0162362D01*
X0221383Y0162334D01*
X0221224Y0162310D01*
X0221064Y0162290D01*
X0220904Y0162274D01*
X0220744Y0162262D01*
X0220583Y0162254D01*
X0220422Y0162250D01*
X0220262Y0162250D01*
X0220101Y0162254D01*
X0219940Y0162262D01*
X0219780Y0162274D01*
X0219620Y0162290D01*
X0219460Y0162310D01*
X0219301Y0162334D01*
X0219143Y0162362D01*
X0218985Y0162393D01*
X0218829Y0162429D01*
X0218673Y0162468D01*
X0218518Y0162511D01*
X0218364Y0162558D01*
X0218211Y0162609D01*
X0218060Y0162664D01*
X0217910Y0162722D01*
X0217762Y0162784D01*
X0217615Y0162850D01*
X0217470Y0162919D01*
X0217327Y0162992D01*
X0217185Y0163068D01*
X0217046Y0163148D01*
X0216908Y0163231D01*
X0216773Y0163318D01*
X0216639Y0163408D01*
X0216508Y0163501D01*
X0216380Y0163597D01*
X0216254Y0163697D01*
X0216130Y0163800D01*
X0216009Y0163905D01*
X0215890Y0164014D01*
X0215774Y0164125D01*
X0215661Y0164240D01*
X0215551Y0164357D01*
X0215444Y0164477D01*
X0215340Y0164599D01*
X0215239Y0164724D01*
X0215141Y0164852D01*
X0215046Y0164982D01*
X0214954Y0165114D01*
X0214866Y0165248D01*
X0214781Y0165385D01*
X0214699Y0165523D01*
X0214621Y0165664D01*
X0214547Y0165806D01*
X0214476Y0165950D01*
X0214408Y0166096D01*
X0214345Y0166244D01*
X0214284Y0166393D01*
X0214228Y0166544D01*
X0214175Y0166696D01*
X0214126Y0166849D01*
X0214081Y0167003D01*
X0214040Y0167158D01*
X0214002Y0167315D01*
X0213969Y0167472D01*
X0213939Y0167630D01*
X0213913Y0167789D01*
X0213892Y0167948D01*
X0213874Y0168108D01*
X0213860Y0168268D01*
X0213850Y0168429D01*
X0213844Y0168589D01*
X0213842Y0168750D01*
X0213842Y0038750D02*
X0213844Y0038911D01*
X0213850Y0039071D01*
X0213860Y0039232D01*
X0213874Y0039392D01*
X0213892Y0039552D01*
X0213913Y0039711D01*
X0213939Y0039870D01*
X0213969Y0040028D01*
X0214002Y0040185D01*
X0214040Y0040342D01*
X0214081Y0040497D01*
X0214126Y0040651D01*
X0214175Y0040804D01*
X0214228Y0040956D01*
X0214284Y0041107D01*
X0214345Y0041256D01*
X0214408Y0041404D01*
X0214476Y0041550D01*
X0214547Y0041694D01*
X0214621Y0041836D01*
X0214699Y0041977D01*
X0214781Y0042115D01*
X0214866Y0042252D01*
X0214954Y0042386D01*
X0215046Y0042518D01*
X0215141Y0042648D01*
X0215239Y0042776D01*
X0215340Y0042901D01*
X0215444Y0043023D01*
X0215551Y0043143D01*
X0215661Y0043260D01*
X0215774Y0043375D01*
X0215890Y0043486D01*
X0216009Y0043595D01*
X0216130Y0043700D01*
X0216254Y0043803D01*
X0216380Y0043903D01*
X0216508Y0043999D01*
X0216639Y0044092D01*
X0216773Y0044182D01*
X0216908Y0044269D01*
X0217046Y0044352D01*
X0217185Y0044432D01*
X0217327Y0044508D01*
X0217470Y0044581D01*
X0217615Y0044650D01*
X0217762Y0044716D01*
X0217910Y0044778D01*
X0218060Y0044836D01*
X0218211Y0044891D01*
X0218364Y0044942D01*
X0218518Y0044989D01*
X0218673Y0045032D01*
X0218829Y0045071D01*
X0218985Y0045107D01*
X0219143Y0045138D01*
X0219301Y0045166D01*
X0219460Y0045190D01*
X0219620Y0045210D01*
X0219780Y0045226D01*
X0219940Y0045238D01*
X0220101Y0045246D01*
X0220262Y0045250D01*
X0220422Y0045250D01*
X0220583Y0045246D01*
X0220744Y0045238D01*
X0220904Y0045226D01*
X0221064Y0045210D01*
X0221224Y0045190D01*
X0221383Y0045166D01*
X0221541Y0045138D01*
X0221699Y0045107D01*
X0221855Y0045071D01*
X0222011Y0045032D01*
X0222166Y0044989D01*
X0222320Y0044942D01*
X0222473Y0044891D01*
X0222624Y0044836D01*
X0222774Y0044778D01*
X0222922Y0044716D01*
X0223069Y0044650D01*
X0223214Y0044581D01*
X0223357Y0044508D01*
X0223499Y0044432D01*
X0223638Y0044352D01*
X0223776Y0044269D01*
X0223911Y0044182D01*
X0224045Y0044092D01*
X0224176Y0043999D01*
X0224304Y0043903D01*
X0224430Y0043803D01*
X0224554Y0043700D01*
X0224675Y0043595D01*
X0224794Y0043486D01*
X0224910Y0043375D01*
X0225023Y0043260D01*
X0225133Y0043143D01*
X0225240Y0043023D01*
X0225344Y0042901D01*
X0225445Y0042776D01*
X0225543Y0042648D01*
X0225638Y0042518D01*
X0225730Y0042386D01*
X0225818Y0042252D01*
X0225903Y0042115D01*
X0225985Y0041977D01*
X0226063Y0041836D01*
X0226137Y0041694D01*
X0226208Y0041550D01*
X0226276Y0041404D01*
X0226339Y0041256D01*
X0226400Y0041107D01*
X0226456Y0040956D01*
X0226509Y0040804D01*
X0226558Y0040651D01*
X0226603Y0040497D01*
X0226644Y0040342D01*
X0226682Y0040185D01*
X0226715Y0040028D01*
X0226745Y0039870D01*
X0226771Y0039711D01*
X0226792Y0039552D01*
X0226810Y0039392D01*
X0226824Y0039232D01*
X0226834Y0039071D01*
X0226840Y0038911D01*
X0226842Y0038750D01*
X0226840Y0038589D01*
X0226834Y0038429D01*
X0226824Y0038268D01*
X0226810Y0038108D01*
X0226792Y0037948D01*
X0226771Y0037789D01*
X0226745Y0037630D01*
X0226715Y0037472D01*
X0226682Y0037315D01*
X0226644Y0037158D01*
X0226603Y0037003D01*
X0226558Y0036849D01*
X0226509Y0036696D01*
X0226456Y0036544D01*
X0226400Y0036393D01*
X0226339Y0036244D01*
X0226276Y0036096D01*
X0226208Y0035950D01*
X0226137Y0035806D01*
X0226063Y0035664D01*
X0225985Y0035523D01*
X0225903Y0035385D01*
X0225818Y0035248D01*
X0225730Y0035114D01*
X0225638Y0034982D01*
X0225543Y0034852D01*
X0225445Y0034724D01*
X0225344Y0034599D01*
X0225240Y0034477D01*
X0225133Y0034357D01*
X0225023Y0034240D01*
X0224910Y0034125D01*
X0224794Y0034014D01*
X0224675Y0033905D01*
X0224554Y0033800D01*
X0224430Y0033697D01*
X0224304Y0033597D01*
X0224176Y0033501D01*
X0224045Y0033408D01*
X0223911Y0033318D01*
X0223776Y0033231D01*
X0223638Y0033148D01*
X0223499Y0033068D01*
X0223357Y0032992D01*
X0223214Y0032919D01*
X0223069Y0032850D01*
X0222922Y0032784D01*
X0222774Y0032722D01*
X0222624Y0032664D01*
X0222473Y0032609D01*
X0222320Y0032558D01*
X0222166Y0032511D01*
X0222011Y0032468D01*
X0221855Y0032429D01*
X0221699Y0032393D01*
X0221541Y0032362D01*
X0221383Y0032334D01*
X0221224Y0032310D01*
X0221064Y0032290D01*
X0220904Y0032274D01*
X0220744Y0032262D01*
X0220583Y0032254D01*
X0220422Y0032250D01*
X0220262Y0032250D01*
X0220101Y0032254D01*
X0219940Y0032262D01*
X0219780Y0032274D01*
X0219620Y0032290D01*
X0219460Y0032310D01*
X0219301Y0032334D01*
X0219143Y0032362D01*
X0218985Y0032393D01*
X0218829Y0032429D01*
X0218673Y0032468D01*
X0218518Y0032511D01*
X0218364Y0032558D01*
X0218211Y0032609D01*
X0218060Y0032664D01*
X0217910Y0032722D01*
X0217762Y0032784D01*
X0217615Y0032850D01*
X0217470Y0032919D01*
X0217327Y0032992D01*
X0217185Y0033068D01*
X0217046Y0033148D01*
X0216908Y0033231D01*
X0216773Y0033318D01*
X0216639Y0033408D01*
X0216508Y0033501D01*
X0216380Y0033597D01*
X0216254Y0033697D01*
X0216130Y0033800D01*
X0216009Y0033905D01*
X0215890Y0034014D01*
X0215774Y0034125D01*
X0215661Y0034240D01*
X0215551Y0034357D01*
X0215444Y0034477D01*
X0215340Y0034599D01*
X0215239Y0034724D01*
X0215141Y0034852D01*
X0215046Y0034982D01*
X0214954Y0035114D01*
X0214866Y0035248D01*
X0214781Y0035385D01*
X0214699Y0035523D01*
X0214621Y0035664D01*
X0214547Y0035806D01*
X0214476Y0035950D01*
X0214408Y0036096D01*
X0214345Y0036244D01*
X0214284Y0036393D01*
X0214228Y0036544D01*
X0214175Y0036696D01*
X0214126Y0036849D01*
X0214081Y0037003D01*
X0214040Y0037158D01*
X0214002Y0037315D01*
X0213969Y0037472D01*
X0213939Y0037630D01*
X0213913Y0037789D01*
X0213892Y0037948D01*
X0213874Y0038108D01*
X0213860Y0038268D01*
X0213850Y0038429D01*
X0213844Y0038589D01*
X0213842Y0038750D01*
X0036842Y0038750D02*
X0036844Y0038911D01*
X0036850Y0039071D01*
X0036860Y0039232D01*
X0036874Y0039392D01*
X0036892Y0039552D01*
X0036913Y0039711D01*
X0036939Y0039870D01*
X0036969Y0040028D01*
X0037002Y0040185D01*
X0037040Y0040342D01*
X0037081Y0040497D01*
X0037126Y0040651D01*
X0037175Y0040804D01*
X0037228Y0040956D01*
X0037284Y0041107D01*
X0037345Y0041256D01*
X0037408Y0041404D01*
X0037476Y0041550D01*
X0037547Y0041694D01*
X0037621Y0041836D01*
X0037699Y0041977D01*
X0037781Y0042115D01*
X0037866Y0042252D01*
X0037954Y0042386D01*
X0038046Y0042518D01*
X0038141Y0042648D01*
X0038239Y0042776D01*
X0038340Y0042901D01*
X0038444Y0043023D01*
X0038551Y0043143D01*
X0038661Y0043260D01*
X0038774Y0043375D01*
X0038890Y0043486D01*
X0039009Y0043595D01*
X0039130Y0043700D01*
X0039254Y0043803D01*
X0039380Y0043903D01*
X0039508Y0043999D01*
X0039639Y0044092D01*
X0039773Y0044182D01*
X0039908Y0044269D01*
X0040046Y0044352D01*
X0040185Y0044432D01*
X0040327Y0044508D01*
X0040470Y0044581D01*
X0040615Y0044650D01*
X0040762Y0044716D01*
X0040910Y0044778D01*
X0041060Y0044836D01*
X0041211Y0044891D01*
X0041364Y0044942D01*
X0041518Y0044989D01*
X0041673Y0045032D01*
X0041829Y0045071D01*
X0041985Y0045107D01*
X0042143Y0045138D01*
X0042301Y0045166D01*
X0042460Y0045190D01*
X0042620Y0045210D01*
X0042780Y0045226D01*
X0042940Y0045238D01*
X0043101Y0045246D01*
X0043262Y0045250D01*
X0043422Y0045250D01*
X0043583Y0045246D01*
X0043744Y0045238D01*
X0043904Y0045226D01*
X0044064Y0045210D01*
X0044224Y0045190D01*
X0044383Y0045166D01*
X0044541Y0045138D01*
X0044699Y0045107D01*
X0044855Y0045071D01*
X0045011Y0045032D01*
X0045166Y0044989D01*
X0045320Y0044942D01*
X0045473Y0044891D01*
X0045624Y0044836D01*
X0045774Y0044778D01*
X0045922Y0044716D01*
X0046069Y0044650D01*
X0046214Y0044581D01*
X0046357Y0044508D01*
X0046499Y0044432D01*
X0046638Y0044352D01*
X0046776Y0044269D01*
X0046911Y0044182D01*
X0047045Y0044092D01*
X0047176Y0043999D01*
X0047304Y0043903D01*
X0047430Y0043803D01*
X0047554Y0043700D01*
X0047675Y0043595D01*
X0047794Y0043486D01*
X0047910Y0043375D01*
X0048023Y0043260D01*
X0048133Y0043143D01*
X0048240Y0043023D01*
X0048344Y0042901D01*
X0048445Y0042776D01*
X0048543Y0042648D01*
X0048638Y0042518D01*
X0048730Y0042386D01*
X0048818Y0042252D01*
X0048903Y0042115D01*
X0048985Y0041977D01*
X0049063Y0041836D01*
X0049137Y0041694D01*
X0049208Y0041550D01*
X0049276Y0041404D01*
X0049339Y0041256D01*
X0049400Y0041107D01*
X0049456Y0040956D01*
X0049509Y0040804D01*
X0049558Y0040651D01*
X0049603Y0040497D01*
X0049644Y0040342D01*
X0049682Y0040185D01*
X0049715Y0040028D01*
X0049745Y0039870D01*
X0049771Y0039711D01*
X0049792Y0039552D01*
X0049810Y0039392D01*
X0049824Y0039232D01*
X0049834Y0039071D01*
X0049840Y0038911D01*
X0049842Y0038750D01*
X0049840Y0038589D01*
X0049834Y0038429D01*
X0049824Y0038268D01*
X0049810Y0038108D01*
X0049792Y0037948D01*
X0049771Y0037789D01*
X0049745Y0037630D01*
X0049715Y0037472D01*
X0049682Y0037315D01*
X0049644Y0037158D01*
X0049603Y0037003D01*
X0049558Y0036849D01*
X0049509Y0036696D01*
X0049456Y0036544D01*
X0049400Y0036393D01*
X0049339Y0036244D01*
X0049276Y0036096D01*
X0049208Y0035950D01*
X0049137Y0035806D01*
X0049063Y0035664D01*
X0048985Y0035523D01*
X0048903Y0035385D01*
X0048818Y0035248D01*
X0048730Y0035114D01*
X0048638Y0034982D01*
X0048543Y0034852D01*
X0048445Y0034724D01*
X0048344Y0034599D01*
X0048240Y0034477D01*
X0048133Y0034357D01*
X0048023Y0034240D01*
X0047910Y0034125D01*
X0047794Y0034014D01*
X0047675Y0033905D01*
X0047554Y0033800D01*
X0047430Y0033697D01*
X0047304Y0033597D01*
X0047176Y0033501D01*
X0047045Y0033408D01*
X0046911Y0033318D01*
X0046776Y0033231D01*
X0046638Y0033148D01*
X0046499Y0033068D01*
X0046357Y0032992D01*
X0046214Y0032919D01*
X0046069Y0032850D01*
X0045922Y0032784D01*
X0045774Y0032722D01*
X0045624Y0032664D01*
X0045473Y0032609D01*
X0045320Y0032558D01*
X0045166Y0032511D01*
X0045011Y0032468D01*
X0044855Y0032429D01*
X0044699Y0032393D01*
X0044541Y0032362D01*
X0044383Y0032334D01*
X0044224Y0032310D01*
X0044064Y0032290D01*
X0043904Y0032274D01*
X0043744Y0032262D01*
X0043583Y0032254D01*
X0043422Y0032250D01*
X0043262Y0032250D01*
X0043101Y0032254D01*
X0042940Y0032262D01*
X0042780Y0032274D01*
X0042620Y0032290D01*
X0042460Y0032310D01*
X0042301Y0032334D01*
X0042143Y0032362D01*
X0041985Y0032393D01*
X0041829Y0032429D01*
X0041673Y0032468D01*
X0041518Y0032511D01*
X0041364Y0032558D01*
X0041211Y0032609D01*
X0041060Y0032664D01*
X0040910Y0032722D01*
X0040762Y0032784D01*
X0040615Y0032850D01*
X0040470Y0032919D01*
X0040327Y0032992D01*
X0040185Y0033068D01*
X0040046Y0033148D01*
X0039908Y0033231D01*
X0039773Y0033318D01*
X0039639Y0033408D01*
X0039508Y0033501D01*
X0039380Y0033597D01*
X0039254Y0033697D01*
X0039130Y0033800D01*
X0039009Y0033905D01*
X0038890Y0034014D01*
X0038774Y0034125D01*
X0038661Y0034240D01*
X0038551Y0034357D01*
X0038444Y0034477D01*
X0038340Y0034599D01*
X0038239Y0034724D01*
X0038141Y0034852D01*
X0038046Y0034982D01*
X0037954Y0035114D01*
X0037866Y0035248D01*
X0037781Y0035385D01*
X0037699Y0035523D01*
X0037621Y0035664D01*
X0037547Y0035806D01*
X0037476Y0035950D01*
X0037408Y0036096D01*
X0037345Y0036244D01*
X0037284Y0036393D01*
X0037228Y0036544D01*
X0037175Y0036696D01*
X0037126Y0036849D01*
X0037081Y0037003D01*
X0037040Y0037158D01*
X0037002Y0037315D01*
X0036969Y0037472D01*
X0036939Y0037630D01*
X0036913Y0037789D01*
X0036892Y0037948D01*
X0036874Y0038108D01*
X0036860Y0038268D01*
X0036850Y0038429D01*
X0036844Y0038589D01*
X0036842Y0038750D01*
X0036842Y0168750D02*
X0036844Y0168911D01*
X0036850Y0169071D01*
X0036860Y0169232D01*
X0036874Y0169392D01*
X0036892Y0169552D01*
X0036913Y0169711D01*
X0036939Y0169870D01*
X0036969Y0170028D01*
X0037002Y0170185D01*
X0037040Y0170342D01*
X0037081Y0170497D01*
X0037126Y0170651D01*
X0037175Y0170804D01*
X0037228Y0170956D01*
X0037284Y0171107D01*
X0037345Y0171256D01*
X0037408Y0171404D01*
X0037476Y0171550D01*
X0037547Y0171694D01*
X0037621Y0171836D01*
X0037699Y0171977D01*
X0037781Y0172115D01*
X0037866Y0172252D01*
X0037954Y0172386D01*
X0038046Y0172518D01*
X0038141Y0172648D01*
X0038239Y0172776D01*
X0038340Y0172901D01*
X0038444Y0173023D01*
X0038551Y0173143D01*
X0038661Y0173260D01*
X0038774Y0173375D01*
X0038890Y0173486D01*
X0039009Y0173595D01*
X0039130Y0173700D01*
X0039254Y0173803D01*
X0039380Y0173903D01*
X0039508Y0173999D01*
X0039639Y0174092D01*
X0039773Y0174182D01*
X0039908Y0174269D01*
X0040046Y0174352D01*
X0040185Y0174432D01*
X0040327Y0174508D01*
X0040470Y0174581D01*
X0040615Y0174650D01*
X0040762Y0174716D01*
X0040910Y0174778D01*
X0041060Y0174836D01*
X0041211Y0174891D01*
X0041364Y0174942D01*
X0041518Y0174989D01*
X0041673Y0175032D01*
X0041829Y0175071D01*
X0041985Y0175107D01*
X0042143Y0175138D01*
X0042301Y0175166D01*
X0042460Y0175190D01*
X0042620Y0175210D01*
X0042780Y0175226D01*
X0042940Y0175238D01*
X0043101Y0175246D01*
X0043262Y0175250D01*
X0043422Y0175250D01*
X0043583Y0175246D01*
X0043744Y0175238D01*
X0043904Y0175226D01*
X0044064Y0175210D01*
X0044224Y0175190D01*
X0044383Y0175166D01*
X0044541Y0175138D01*
X0044699Y0175107D01*
X0044855Y0175071D01*
X0045011Y0175032D01*
X0045166Y0174989D01*
X0045320Y0174942D01*
X0045473Y0174891D01*
X0045624Y0174836D01*
X0045774Y0174778D01*
X0045922Y0174716D01*
X0046069Y0174650D01*
X0046214Y0174581D01*
X0046357Y0174508D01*
X0046499Y0174432D01*
X0046638Y0174352D01*
X0046776Y0174269D01*
X0046911Y0174182D01*
X0047045Y0174092D01*
X0047176Y0173999D01*
X0047304Y0173903D01*
X0047430Y0173803D01*
X0047554Y0173700D01*
X0047675Y0173595D01*
X0047794Y0173486D01*
X0047910Y0173375D01*
X0048023Y0173260D01*
X0048133Y0173143D01*
X0048240Y0173023D01*
X0048344Y0172901D01*
X0048445Y0172776D01*
X0048543Y0172648D01*
X0048638Y0172518D01*
X0048730Y0172386D01*
X0048818Y0172252D01*
X0048903Y0172115D01*
X0048985Y0171977D01*
X0049063Y0171836D01*
X0049137Y0171694D01*
X0049208Y0171550D01*
X0049276Y0171404D01*
X0049339Y0171256D01*
X0049400Y0171107D01*
X0049456Y0170956D01*
X0049509Y0170804D01*
X0049558Y0170651D01*
X0049603Y0170497D01*
X0049644Y0170342D01*
X0049682Y0170185D01*
X0049715Y0170028D01*
X0049745Y0169870D01*
X0049771Y0169711D01*
X0049792Y0169552D01*
X0049810Y0169392D01*
X0049824Y0169232D01*
X0049834Y0169071D01*
X0049840Y0168911D01*
X0049842Y0168750D01*
X0049840Y0168589D01*
X0049834Y0168429D01*
X0049824Y0168268D01*
X0049810Y0168108D01*
X0049792Y0167948D01*
X0049771Y0167789D01*
X0049745Y0167630D01*
X0049715Y0167472D01*
X0049682Y0167315D01*
X0049644Y0167158D01*
X0049603Y0167003D01*
X0049558Y0166849D01*
X0049509Y0166696D01*
X0049456Y0166544D01*
X0049400Y0166393D01*
X0049339Y0166244D01*
X0049276Y0166096D01*
X0049208Y0165950D01*
X0049137Y0165806D01*
X0049063Y0165664D01*
X0048985Y0165523D01*
X0048903Y0165385D01*
X0048818Y0165248D01*
X0048730Y0165114D01*
X0048638Y0164982D01*
X0048543Y0164852D01*
X0048445Y0164724D01*
X0048344Y0164599D01*
X0048240Y0164477D01*
X0048133Y0164357D01*
X0048023Y0164240D01*
X0047910Y0164125D01*
X0047794Y0164014D01*
X0047675Y0163905D01*
X0047554Y0163800D01*
X0047430Y0163697D01*
X0047304Y0163597D01*
X0047176Y0163501D01*
X0047045Y0163408D01*
X0046911Y0163318D01*
X0046776Y0163231D01*
X0046638Y0163148D01*
X0046499Y0163068D01*
X0046357Y0162992D01*
X0046214Y0162919D01*
X0046069Y0162850D01*
X0045922Y0162784D01*
X0045774Y0162722D01*
X0045624Y0162664D01*
X0045473Y0162609D01*
X0045320Y0162558D01*
X0045166Y0162511D01*
X0045011Y0162468D01*
X0044855Y0162429D01*
X0044699Y0162393D01*
X0044541Y0162362D01*
X0044383Y0162334D01*
X0044224Y0162310D01*
X0044064Y0162290D01*
X0043904Y0162274D01*
X0043744Y0162262D01*
X0043583Y0162254D01*
X0043422Y0162250D01*
X0043262Y0162250D01*
X0043101Y0162254D01*
X0042940Y0162262D01*
X0042780Y0162274D01*
X0042620Y0162290D01*
X0042460Y0162310D01*
X0042301Y0162334D01*
X0042143Y0162362D01*
X0041985Y0162393D01*
X0041829Y0162429D01*
X0041673Y0162468D01*
X0041518Y0162511D01*
X0041364Y0162558D01*
X0041211Y0162609D01*
X0041060Y0162664D01*
X0040910Y0162722D01*
X0040762Y0162784D01*
X0040615Y0162850D01*
X0040470Y0162919D01*
X0040327Y0162992D01*
X0040185Y0163068D01*
X0040046Y0163148D01*
X0039908Y0163231D01*
X0039773Y0163318D01*
X0039639Y0163408D01*
X0039508Y0163501D01*
X0039380Y0163597D01*
X0039254Y0163697D01*
X0039130Y0163800D01*
X0039009Y0163905D01*
X0038890Y0164014D01*
X0038774Y0164125D01*
X0038661Y0164240D01*
X0038551Y0164357D01*
X0038444Y0164477D01*
X0038340Y0164599D01*
X0038239Y0164724D01*
X0038141Y0164852D01*
X0038046Y0164982D01*
X0037954Y0165114D01*
X0037866Y0165248D01*
X0037781Y0165385D01*
X0037699Y0165523D01*
X0037621Y0165664D01*
X0037547Y0165806D01*
X0037476Y0165950D01*
X0037408Y0166096D01*
X0037345Y0166244D01*
X0037284Y0166393D01*
X0037228Y0166544D01*
X0037175Y0166696D01*
X0037126Y0166849D01*
X0037081Y0167003D01*
X0037040Y0167158D01*
X0037002Y0167315D01*
X0036969Y0167472D01*
X0036939Y0167630D01*
X0036913Y0167789D01*
X0036892Y0167948D01*
X0036874Y0168108D01*
X0036860Y0168268D01*
X0036850Y0168429D01*
X0036844Y0168589D01*
X0036842Y0168750D01*
X0036842Y0190750D02*
X0036844Y0190911D01*
X0036850Y0191071D01*
X0036860Y0191232D01*
X0036874Y0191392D01*
X0036892Y0191552D01*
X0036913Y0191711D01*
X0036939Y0191870D01*
X0036969Y0192028D01*
X0037002Y0192185D01*
X0037040Y0192342D01*
X0037081Y0192497D01*
X0037126Y0192651D01*
X0037175Y0192804D01*
X0037228Y0192956D01*
X0037284Y0193107D01*
X0037345Y0193256D01*
X0037408Y0193404D01*
X0037476Y0193550D01*
X0037547Y0193694D01*
X0037621Y0193836D01*
X0037699Y0193977D01*
X0037781Y0194115D01*
X0037866Y0194252D01*
X0037954Y0194386D01*
X0038046Y0194518D01*
X0038141Y0194648D01*
X0038239Y0194776D01*
X0038340Y0194901D01*
X0038444Y0195023D01*
X0038551Y0195143D01*
X0038661Y0195260D01*
X0038774Y0195375D01*
X0038890Y0195486D01*
X0039009Y0195595D01*
X0039130Y0195700D01*
X0039254Y0195803D01*
X0039380Y0195903D01*
X0039508Y0195999D01*
X0039639Y0196092D01*
X0039773Y0196182D01*
X0039908Y0196269D01*
X0040046Y0196352D01*
X0040185Y0196432D01*
X0040327Y0196508D01*
X0040470Y0196581D01*
X0040615Y0196650D01*
X0040762Y0196716D01*
X0040910Y0196778D01*
X0041060Y0196836D01*
X0041211Y0196891D01*
X0041364Y0196942D01*
X0041518Y0196989D01*
X0041673Y0197032D01*
X0041829Y0197071D01*
X0041985Y0197107D01*
X0042143Y0197138D01*
X0042301Y0197166D01*
X0042460Y0197190D01*
X0042620Y0197210D01*
X0042780Y0197226D01*
X0042940Y0197238D01*
X0043101Y0197246D01*
X0043262Y0197250D01*
X0043422Y0197250D01*
X0043583Y0197246D01*
X0043744Y0197238D01*
X0043904Y0197226D01*
X0044064Y0197210D01*
X0044224Y0197190D01*
X0044383Y0197166D01*
X0044541Y0197138D01*
X0044699Y0197107D01*
X0044855Y0197071D01*
X0045011Y0197032D01*
X0045166Y0196989D01*
X0045320Y0196942D01*
X0045473Y0196891D01*
X0045624Y0196836D01*
X0045774Y0196778D01*
X0045922Y0196716D01*
X0046069Y0196650D01*
X0046214Y0196581D01*
X0046357Y0196508D01*
X0046499Y0196432D01*
X0046638Y0196352D01*
X0046776Y0196269D01*
X0046911Y0196182D01*
X0047045Y0196092D01*
X0047176Y0195999D01*
X0047304Y0195903D01*
X0047430Y0195803D01*
X0047554Y0195700D01*
X0047675Y0195595D01*
X0047794Y0195486D01*
X0047910Y0195375D01*
X0048023Y0195260D01*
X0048133Y0195143D01*
X0048240Y0195023D01*
X0048344Y0194901D01*
X0048445Y0194776D01*
X0048543Y0194648D01*
X0048638Y0194518D01*
X0048730Y0194386D01*
X0048818Y0194252D01*
X0048903Y0194115D01*
X0048985Y0193977D01*
X0049063Y0193836D01*
X0049137Y0193694D01*
X0049208Y0193550D01*
X0049276Y0193404D01*
X0049339Y0193256D01*
X0049400Y0193107D01*
X0049456Y0192956D01*
X0049509Y0192804D01*
X0049558Y0192651D01*
X0049603Y0192497D01*
X0049644Y0192342D01*
X0049682Y0192185D01*
X0049715Y0192028D01*
X0049745Y0191870D01*
X0049771Y0191711D01*
X0049792Y0191552D01*
X0049810Y0191392D01*
X0049824Y0191232D01*
X0049834Y0191071D01*
X0049840Y0190911D01*
X0049842Y0190750D01*
X0049840Y0190589D01*
X0049834Y0190429D01*
X0049824Y0190268D01*
X0049810Y0190108D01*
X0049792Y0189948D01*
X0049771Y0189789D01*
X0049745Y0189630D01*
X0049715Y0189472D01*
X0049682Y0189315D01*
X0049644Y0189158D01*
X0049603Y0189003D01*
X0049558Y0188849D01*
X0049509Y0188696D01*
X0049456Y0188544D01*
X0049400Y0188393D01*
X0049339Y0188244D01*
X0049276Y0188096D01*
X0049208Y0187950D01*
X0049137Y0187806D01*
X0049063Y0187664D01*
X0048985Y0187523D01*
X0048903Y0187385D01*
X0048818Y0187248D01*
X0048730Y0187114D01*
X0048638Y0186982D01*
X0048543Y0186852D01*
X0048445Y0186724D01*
X0048344Y0186599D01*
X0048240Y0186477D01*
X0048133Y0186357D01*
X0048023Y0186240D01*
X0047910Y0186125D01*
X0047794Y0186014D01*
X0047675Y0185905D01*
X0047554Y0185800D01*
X0047430Y0185697D01*
X0047304Y0185597D01*
X0047176Y0185501D01*
X0047045Y0185408D01*
X0046911Y0185318D01*
X0046776Y0185231D01*
X0046638Y0185148D01*
X0046499Y0185068D01*
X0046357Y0184992D01*
X0046214Y0184919D01*
X0046069Y0184850D01*
X0045922Y0184784D01*
X0045774Y0184722D01*
X0045624Y0184664D01*
X0045473Y0184609D01*
X0045320Y0184558D01*
X0045166Y0184511D01*
X0045011Y0184468D01*
X0044855Y0184429D01*
X0044699Y0184393D01*
X0044541Y0184362D01*
X0044383Y0184334D01*
X0044224Y0184310D01*
X0044064Y0184290D01*
X0043904Y0184274D01*
X0043744Y0184262D01*
X0043583Y0184254D01*
X0043422Y0184250D01*
X0043262Y0184250D01*
X0043101Y0184254D01*
X0042940Y0184262D01*
X0042780Y0184274D01*
X0042620Y0184290D01*
X0042460Y0184310D01*
X0042301Y0184334D01*
X0042143Y0184362D01*
X0041985Y0184393D01*
X0041829Y0184429D01*
X0041673Y0184468D01*
X0041518Y0184511D01*
X0041364Y0184558D01*
X0041211Y0184609D01*
X0041060Y0184664D01*
X0040910Y0184722D01*
X0040762Y0184784D01*
X0040615Y0184850D01*
X0040470Y0184919D01*
X0040327Y0184992D01*
X0040185Y0185068D01*
X0040046Y0185148D01*
X0039908Y0185231D01*
X0039773Y0185318D01*
X0039639Y0185408D01*
X0039508Y0185501D01*
X0039380Y0185597D01*
X0039254Y0185697D01*
X0039130Y0185800D01*
X0039009Y0185905D01*
X0038890Y0186014D01*
X0038774Y0186125D01*
X0038661Y0186240D01*
X0038551Y0186357D01*
X0038444Y0186477D01*
X0038340Y0186599D01*
X0038239Y0186724D01*
X0038141Y0186852D01*
X0038046Y0186982D01*
X0037954Y0187114D01*
X0037866Y0187248D01*
X0037781Y0187385D01*
X0037699Y0187523D01*
X0037621Y0187664D01*
X0037547Y0187806D01*
X0037476Y0187950D01*
X0037408Y0188096D01*
X0037345Y0188244D01*
X0037284Y0188393D01*
X0037228Y0188544D01*
X0037175Y0188696D01*
X0037126Y0188849D01*
X0037081Y0189003D01*
X0037040Y0189158D01*
X0037002Y0189315D01*
X0036969Y0189472D01*
X0036939Y0189630D01*
X0036913Y0189789D01*
X0036892Y0189948D01*
X0036874Y0190108D01*
X0036860Y0190268D01*
X0036850Y0190429D01*
X0036844Y0190589D01*
X0036842Y0190750D01*
X0036842Y0320750D02*
X0036844Y0320911D01*
X0036850Y0321071D01*
X0036860Y0321232D01*
X0036874Y0321392D01*
X0036892Y0321552D01*
X0036913Y0321711D01*
X0036939Y0321870D01*
X0036969Y0322028D01*
X0037002Y0322185D01*
X0037040Y0322342D01*
X0037081Y0322497D01*
X0037126Y0322651D01*
X0037175Y0322804D01*
X0037228Y0322956D01*
X0037284Y0323107D01*
X0037345Y0323256D01*
X0037408Y0323404D01*
X0037476Y0323550D01*
X0037547Y0323694D01*
X0037621Y0323836D01*
X0037699Y0323977D01*
X0037781Y0324115D01*
X0037866Y0324252D01*
X0037954Y0324386D01*
X0038046Y0324518D01*
X0038141Y0324648D01*
X0038239Y0324776D01*
X0038340Y0324901D01*
X0038444Y0325023D01*
X0038551Y0325143D01*
X0038661Y0325260D01*
X0038774Y0325375D01*
X0038890Y0325486D01*
X0039009Y0325595D01*
X0039130Y0325700D01*
X0039254Y0325803D01*
X0039380Y0325903D01*
X0039508Y0325999D01*
X0039639Y0326092D01*
X0039773Y0326182D01*
X0039908Y0326269D01*
X0040046Y0326352D01*
X0040185Y0326432D01*
X0040327Y0326508D01*
X0040470Y0326581D01*
X0040615Y0326650D01*
X0040762Y0326716D01*
X0040910Y0326778D01*
X0041060Y0326836D01*
X0041211Y0326891D01*
X0041364Y0326942D01*
X0041518Y0326989D01*
X0041673Y0327032D01*
X0041829Y0327071D01*
X0041985Y0327107D01*
X0042143Y0327138D01*
X0042301Y0327166D01*
X0042460Y0327190D01*
X0042620Y0327210D01*
X0042780Y0327226D01*
X0042940Y0327238D01*
X0043101Y0327246D01*
X0043262Y0327250D01*
X0043422Y0327250D01*
X0043583Y0327246D01*
X0043744Y0327238D01*
X0043904Y0327226D01*
X0044064Y0327210D01*
X0044224Y0327190D01*
X0044383Y0327166D01*
X0044541Y0327138D01*
X0044699Y0327107D01*
X0044855Y0327071D01*
X0045011Y0327032D01*
X0045166Y0326989D01*
X0045320Y0326942D01*
X0045473Y0326891D01*
X0045624Y0326836D01*
X0045774Y0326778D01*
X0045922Y0326716D01*
X0046069Y0326650D01*
X0046214Y0326581D01*
X0046357Y0326508D01*
X0046499Y0326432D01*
X0046638Y0326352D01*
X0046776Y0326269D01*
X0046911Y0326182D01*
X0047045Y0326092D01*
X0047176Y0325999D01*
X0047304Y0325903D01*
X0047430Y0325803D01*
X0047554Y0325700D01*
X0047675Y0325595D01*
X0047794Y0325486D01*
X0047910Y0325375D01*
X0048023Y0325260D01*
X0048133Y0325143D01*
X0048240Y0325023D01*
X0048344Y0324901D01*
X0048445Y0324776D01*
X0048543Y0324648D01*
X0048638Y0324518D01*
X0048730Y0324386D01*
X0048818Y0324252D01*
X0048903Y0324115D01*
X0048985Y0323977D01*
X0049063Y0323836D01*
X0049137Y0323694D01*
X0049208Y0323550D01*
X0049276Y0323404D01*
X0049339Y0323256D01*
X0049400Y0323107D01*
X0049456Y0322956D01*
X0049509Y0322804D01*
X0049558Y0322651D01*
X0049603Y0322497D01*
X0049644Y0322342D01*
X0049682Y0322185D01*
X0049715Y0322028D01*
X0049745Y0321870D01*
X0049771Y0321711D01*
X0049792Y0321552D01*
X0049810Y0321392D01*
X0049824Y0321232D01*
X0049834Y0321071D01*
X0049840Y0320911D01*
X0049842Y0320750D01*
X0049840Y0320589D01*
X0049834Y0320429D01*
X0049824Y0320268D01*
X0049810Y0320108D01*
X0049792Y0319948D01*
X0049771Y0319789D01*
X0049745Y0319630D01*
X0049715Y0319472D01*
X0049682Y0319315D01*
X0049644Y0319158D01*
X0049603Y0319003D01*
X0049558Y0318849D01*
X0049509Y0318696D01*
X0049456Y0318544D01*
X0049400Y0318393D01*
X0049339Y0318244D01*
X0049276Y0318096D01*
X0049208Y0317950D01*
X0049137Y0317806D01*
X0049063Y0317664D01*
X0048985Y0317523D01*
X0048903Y0317385D01*
X0048818Y0317248D01*
X0048730Y0317114D01*
X0048638Y0316982D01*
X0048543Y0316852D01*
X0048445Y0316724D01*
X0048344Y0316599D01*
X0048240Y0316477D01*
X0048133Y0316357D01*
X0048023Y0316240D01*
X0047910Y0316125D01*
X0047794Y0316014D01*
X0047675Y0315905D01*
X0047554Y0315800D01*
X0047430Y0315697D01*
X0047304Y0315597D01*
X0047176Y0315501D01*
X0047045Y0315408D01*
X0046911Y0315318D01*
X0046776Y0315231D01*
X0046638Y0315148D01*
X0046499Y0315068D01*
X0046357Y0314992D01*
X0046214Y0314919D01*
X0046069Y0314850D01*
X0045922Y0314784D01*
X0045774Y0314722D01*
X0045624Y0314664D01*
X0045473Y0314609D01*
X0045320Y0314558D01*
X0045166Y0314511D01*
X0045011Y0314468D01*
X0044855Y0314429D01*
X0044699Y0314393D01*
X0044541Y0314362D01*
X0044383Y0314334D01*
X0044224Y0314310D01*
X0044064Y0314290D01*
X0043904Y0314274D01*
X0043744Y0314262D01*
X0043583Y0314254D01*
X0043422Y0314250D01*
X0043262Y0314250D01*
X0043101Y0314254D01*
X0042940Y0314262D01*
X0042780Y0314274D01*
X0042620Y0314290D01*
X0042460Y0314310D01*
X0042301Y0314334D01*
X0042143Y0314362D01*
X0041985Y0314393D01*
X0041829Y0314429D01*
X0041673Y0314468D01*
X0041518Y0314511D01*
X0041364Y0314558D01*
X0041211Y0314609D01*
X0041060Y0314664D01*
X0040910Y0314722D01*
X0040762Y0314784D01*
X0040615Y0314850D01*
X0040470Y0314919D01*
X0040327Y0314992D01*
X0040185Y0315068D01*
X0040046Y0315148D01*
X0039908Y0315231D01*
X0039773Y0315318D01*
X0039639Y0315408D01*
X0039508Y0315501D01*
X0039380Y0315597D01*
X0039254Y0315697D01*
X0039130Y0315800D01*
X0039009Y0315905D01*
X0038890Y0316014D01*
X0038774Y0316125D01*
X0038661Y0316240D01*
X0038551Y0316357D01*
X0038444Y0316477D01*
X0038340Y0316599D01*
X0038239Y0316724D01*
X0038141Y0316852D01*
X0038046Y0316982D01*
X0037954Y0317114D01*
X0037866Y0317248D01*
X0037781Y0317385D01*
X0037699Y0317523D01*
X0037621Y0317664D01*
X0037547Y0317806D01*
X0037476Y0317950D01*
X0037408Y0318096D01*
X0037345Y0318244D01*
X0037284Y0318393D01*
X0037228Y0318544D01*
X0037175Y0318696D01*
X0037126Y0318849D01*
X0037081Y0319003D01*
X0037040Y0319158D01*
X0037002Y0319315D01*
X0036969Y0319472D01*
X0036939Y0319630D01*
X0036913Y0319789D01*
X0036892Y0319948D01*
X0036874Y0320108D01*
X0036860Y0320268D01*
X0036850Y0320429D01*
X0036844Y0320589D01*
X0036842Y0320750D01*
M02*
