%
M48
M72
T01C0.0120
T02C0.0400
T03C0.1300
%
T01
X5884Y3875
X6834Y5525
X5984Y6025
X5684Y7175
X5684Y7775
X5684Y8475
X4961Y9952
X4658Y9848
X7534Y9775
X7884Y9959
X7834Y9434
X8184Y9014
X8784Y8675
X7884Y8275
X8784Y9375
X9284Y8925
X10071Y10311
X10854Y9501
X12384Y10075
X12584Y9775
X13484Y10025
X13484Y10625
X12834Y11375
X13534Y11875
X14534Y11375
X14985Y10876
X15334Y11225
X15234Y11725
X15493Y12383
X16434Y12175
X16384Y10725
X16384Y10425
X15484Y10288
X15034Y7637
X12584Y7175
X12584Y6025
X10384Y6125
X10044Y6725
X10334Y6875
X11834Y8025
X8359Y5900
X7969Y4040
X7934Y10575
X8292Y10575
X8592Y10577
X9184Y12825
X10484Y13925
X10913Y13375
X12434Y13125
X12284Y12375
X12084Y11375
X13934Y13625
X7969Y19240
X6834Y20725
X5984Y21225
X5684Y22375
X5684Y22975
X5684Y23675
X4961Y25152
X4658Y25048
X7534Y24975
X7884Y25159
X7934Y25775
X8292Y25775
X8592Y25777
X8784Y24575
X8184Y24214
X7834Y24634
X8784Y23875
X7884Y23475
X9284Y24125
X10071Y25511
X10854Y24701
X12384Y25275
X12584Y24975
X13484Y25225
X13484Y25825
X12834Y26575
X13534Y27075
X14534Y26575
X14985Y26076
X15334Y26425
X15234Y26925
X15493Y27583
X16434Y27375
X16384Y25925
X16384Y25625
X15484Y25488
X15034Y22837
X12584Y22375
X11834Y23225
X10334Y22075
X10044Y21925
X10384Y21325
X8359Y21100
X5884Y19075
X12584Y21225
X12084Y26575
X12284Y27575
X12434Y28325
X10913Y28575
X10484Y29125
X9184Y28025
X13934Y28825
X22358Y25048
X22661Y25152
X23384Y23675
X23384Y22975
X23384Y22375
X23684Y21225
X24534Y20725
X26059Y21100
X27744Y21925
X28034Y22075
X28084Y21325
X30284Y21225
X30284Y22375
X29534Y23225
X28554Y24701
X27771Y25511
X26484Y24575
X26984Y24125
X26484Y23875
X25884Y24214
X25534Y24634
X25234Y24975
X25584Y25159
X25634Y25775
X25992Y25775
X26292Y25777
X26884Y28025
X28184Y29125
X28613Y28575
X30134Y28325
X29984Y27575
X31234Y27075
X30534Y26575
X29784Y26575
X30084Y25275
X30284Y24975
X31184Y25225
X31184Y25825
X32234Y26575
X32685Y26076
X33034Y26425
X32934Y26925
X33193Y27583
X34134Y27375
X34084Y25925
X34084Y25625
X33184Y25488
X32734Y22837
X31634Y28825
X25584Y23475
X25669Y19240
X23584Y19075
X28184Y13925
X28613Y13375
X30134Y13125
X29984Y12375
X29784Y11375
X30534Y11375
X31234Y11875
X32234Y11375
X32685Y10876
X33034Y11225
X32934Y11725
X33193Y12383
X34134Y12175
X34084Y10725
X34084Y10425
X33184Y10288
X31184Y10025
X31184Y10625
X30084Y10075
X30284Y9775
X28554Y9501
X27771Y10311
X26484Y9375
X26984Y8925
X26484Y8675
X25884Y9014
X25534Y9434
X25234Y9775
X25584Y9959
X25634Y10575
X25992Y10575
X26292Y10577
X26884Y12825
X31634Y13625
X29534Y8025
X30284Y7175
X30284Y6025
X28084Y6125
X27744Y6725
X28034Y6875
X26059Y5900
X24534Y5525
X23684Y6025
X23384Y7175
X23384Y7775
X23384Y8475
X22661Y9952
X22358Y9848
X25584Y8275
X25669Y4040
X23584Y3875
X32734Y7637
T02
X21534Y7375
X21534Y8375
X21534Y9375
X21534Y10375
X21534Y11375
X21534Y12375
X21534Y13375
X21534Y14375
X21534Y15375
X21534Y20575
X21534Y21575
X21534Y22575
X21534Y23575
X21534Y24575
X21534Y25575
X21534Y26575
X21534Y27575
X21534Y28575
X21534Y29575
X21534Y30575
X3834Y30575
X3834Y29575
X3834Y28575
X3834Y27575
X3834Y26575
X3834Y25575
X3834Y24575
X3834Y23575
X3834Y22575
X3834Y21575
X3834Y20575
X3834Y15375
X3834Y14375
X3834Y13375
X3834Y12375
X3834Y11375
X3834Y10375
X3834Y9375
X3834Y8375
X3834Y7375
X3834Y6375
X3834Y5375
X21534Y5375
X21534Y6375
T03
X4334Y3875
X4334Y16875
X4334Y19075
X4334Y32075
X22034Y32075
X22034Y19075
X22034Y16875
X22034Y3875
M30
