G75*
%MOIN*%
%OFA0B0*%
%FSLAX25Y25*%
%IPPOS*%
%LPD*%
%AMOC8*
5,1,8,0,0,1.08239X$1,22.5*
%
%ADD10R,0.03937X0.04331*%
%ADD11R,0.04724X0.03150*%
%ADD12R,0.03268X0.02480*%
%ADD13R,0.02480X0.03268*%
%ADD14R,0.05118X0.05118*%
%ADD15R,0.02756X0.02756*%
%ADD16R,0.04331X0.03937*%
%ADD17R,0.04921X0.01181*%
%ADD18R,0.11811X0.09449*%
%ADD19R,0.04724X0.02165*%
%ADD20R,0.07087X0.05512*%
%ADD21R,0.05512X0.07480*%
%ADD22R,0.03150X0.05906*%
%ADD23R,0.06700X0.02400*%
%ADD24R,0.03150X0.00787*%
%ADD25R,0.03543X0.00787*%
D10*
X0063342Y0047904D03*
X0063342Y0054596D03*
X0073342Y0054596D03*
X0073342Y0047904D03*
X0085842Y0047096D03*
X0085842Y0040404D03*
X0138342Y0090404D03*
X0138342Y0097096D03*
X0153342Y0067096D03*
X0153342Y0060404D03*
X0240342Y0054596D03*
X0240342Y0047904D03*
X0250342Y0047904D03*
X0250342Y0054596D03*
X0262842Y0047096D03*
X0262842Y0040404D03*
X0315342Y0090404D03*
X0315342Y0097096D03*
X0330342Y0067096D03*
X0330342Y0060404D03*
X0262842Y0192404D03*
X0262842Y0199096D03*
X0250342Y0199904D03*
X0250342Y0206596D03*
X0240342Y0206596D03*
X0240342Y0199904D03*
X0315342Y0242404D03*
X0315342Y0249096D03*
X0330342Y0219096D03*
X0330342Y0212404D03*
X0153342Y0212404D03*
X0153342Y0219096D03*
X0138342Y0242404D03*
X0138342Y0249096D03*
X0085842Y0199096D03*
X0085842Y0192404D03*
X0073342Y0199904D03*
X0073342Y0206596D03*
X0063342Y0206596D03*
X0063342Y0199904D03*
D11*
X0103342Y0242207D03*
X0103342Y0249293D03*
X0130842Y0249293D03*
X0130842Y0242207D03*
X0130842Y0234293D03*
X0130842Y0227207D03*
X0138342Y0227207D03*
X0145842Y0227207D03*
X0145842Y0234293D03*
X0138342Y0234293D03*
X0145842Y0242207D03*
X0145842Y0249293D03*
X0143342Y0277207D03*
X0143342Y0284293D03*
X0135842Y0284293D03*
X0135842Y0277207D03*
X0138342Y0219293D03*
X0138342Y0212207D03*
X0145842Y0212207D03*
X0145842Y0219293D03*
X0130842Y0219293D03*
X0130842Y0212207D03*
X0135842Y0132293D03*
X0135842Y0125207D03*
X0143342Y0125207D03*
X0143342Y0132293D03*
X0145842Y0097293D03*
X0145842Y0090207D03*
X0145842Y0082293D03*
X0138342Y0082293D03*
X0138342Y0075207D03*
X0145842Y0075207D03*
X0145842Y0067293D03*
X0145842Y0060207D03*
X0138342Y0060207D03*
X0138342Y0067293D03*
X0130842Y0067293D03*
X0130842Y0060207D03*
X0130842Y0075207D03*
X0130842Y0082293D03*
X0130842Y0090207D03*
X0130842Y0097293D03*
X0103342Y0097293D03*
X0103342Y0090207D03*
X0280342Y0090207D03*
X0280342Y0097293D03*
X0307842Y0097293D03*
X0307842Y0090207D03*
X0307842Y0082293D03*
X0315342Y0082293D03*
X0315342Y0075207D03*
X0307842Y0075207D03*
X0307842Y0067293D03*
X0307842Y0060207D03*
X0315342Y0060207D03*
X0315342Y0067293D03*
X0322842Y0067293D03*
X0322842Y0060207D03*
X0322842Y0075207D03*
X0322842Y0082293D03*
X0322842Y0090207D03*
X0322842Y0097293D03*
X0320342Y0125207D03*
X0312842Y0125207D03*
X0312842Y0132293D03*
X0320342Y0132293D03*
X0322842Y0212207D03*
X0322842Y0219293D03*
X0315342Y0219293D03*
X0315342Y0212207D03*
X0307842Y0212207D03*
X0307842Y0219293D03*
X0307842Y0227207D03*
X0315342Y0227207D03*
X0315342Y0234293D03*
X0307842Y0234293D03*
X0307842Y0242207D03*
X0307842Y0249293D03*
X0322842Y0249293D03*
X0322842Y0242207D03*
X0322842Y0234293D03*
X0322842Y0227207D03*
X0280342Y0242207D03*
X0280342Y0249293D03*
X0312842Y0277207D03*
X0320342Y0277207D03*
X0320342Y0284293D03*
X0312842Y0284293D03*
D12*
X0290342Y0235278D03*
X0290342Y0226222D03*
X0280342Y0226222D03*
X0280342Y0235278D03*
X0113342Y0235278D03*
X0113342Y0226222D03*
X0103342Y0226222D03*
X0103342Y0235278D03*
X0103342Y0083278D03*
X0103342Y0074222D03*
X0113342Y0074222D03*
X0113342Y0083278D03*
X0280342Y0083278D03*
X0280342Y0074222D03*
X0290342Y0074222D03*
X0290342Y0083278D03*
D13*
X0294869Y0063750D03*
X0285814Y0063750D03*
X0117869Y0063750D03*
X0108814Y0063750D03*
X0108814Y0215750D03*
X0117869Y0215750D03*
X0285814Y0215750D03*
X0294869Y0215750D03*
D14*
X0295342Y0239844D03*
X0295342Y0251656D03*
X0118342Y0251656D03*
X0118342Y0239844D03*
X0118342Y0099656D03*
X0118342Y0087844D03*
X0295342Y0087844D03*
X0295342Y0099656D03*
D15*
X0308984Y0111191D03*
X0308984Y0116309D03*
X0301700Y0113750D03*
X0131984Y0111191D03*
X0131984Y0116309D03*
X0124700Y0113750D03*
X0131984Y0263191D03*
X0131984Y0268309D03*
X0124700Y0265750D03*
X0301700Y0265750D03*
X0308984Y0263191D03*
X0308984Y0268309D03*
D16*
X0316495Y0270750D03*
X0323188Y0270750D03*
X0323188Y0257750D03*
X0316495Y0257750D03*
X0249688Y0235750D03*
X0249688Y0229750D03*
X0249688Y0223750D03*
X0242995Y0223750D03*
X0242995Y0229750D03*
X0242995Y0235750D03*
X0176688Y0190750D03*
X0169995Y0190750D03*
X0146188Y0257750D03*
X0139495Y0257750D03*
X0139495Y0270750D03*
X0146188Y0270750D03*
X0072688Y0235750D03*
X0065995Y0235750D03*
X0065995Y0229750D03*
X0065995Y0223750D03*
X0072688Y0223750D03*
X0072688Y0229750D03*
X0139495Y0118750D03*
X0146188Y0118750D03*
X0146188Y0105750D03*
X0139495Y0105750D03*
X0072688Y0083750D03*
X0072688Y0077750D03*
X0065995Y0077750D03*
X0065995Y0083750D03*
X0065995Y0071750D03*
X0072688Y0071750D03*
X0169995Y0038750D03*
X0176688Y0038750D03*
X0242995Y0071750D03*
X0242995Y0077750D03*
X0242995Y0083750D03*
X0249688Y0083750D03*
X0249688Y0077750D03*
X0249688Y0071750D03*
X0316495Y0105750D03*
X0323188Y0105750D03*
X0323188Y0118750D03*
X0316495Y0118750D03*
X0346995Y0190750D03*
X0353688Y0190750D03*
X0353688Y0038750D03*
X0346995Y0038750D03*
D17*
X0336582Y0080612D03*
X0336582Y0082581D03*
X0336582Y0084549D03*
X0336582Y0086518D03*
X0336582Y0088486D03*
X0336582Y0090455D03*
X0336582Y0092423D03*
X0336582Y0094392D03*
X0336582Y0096360D03*
X0336582Y0098329D03*
X0336582Y0100297D03*
X0336582Y0102266D03*
X0336582Y0104234D03*
X0336582Y0106203D03*
X0336582Y0108171D03*
X0336582Y0110140D03*
X0336582Y0112108D03*
X0336582Y0114077D03*
X0336582Y0116045D03*
X0336582Y0118014D03*
X0336582Y0119982D03*
X0336582Y0121951D03*
X0336582Y0123919D03*
X0336582Y0125888D03*
X0336582Y0232612D03*
X0336582Y0234581D03*
X0336582Y0236549D03*
X0336582Y0238518D03*
X0336582Y0240486D03*
X0336582Y0242455D03*
X0336582Y0244423D03*
X0336582Y0246392D03*
X0336582Y0248360D03*
X0336582Y0250329D03*
X0336582Y0252297D03*
X0336582Y0254266D03*
X0336582Y0256234D03*
X0336582Y0258203D03*
X0336582Y0260171D03*
X0336582Y0262140D03*
X0336582Y0264108D03*
X0336582Y0266077D03*
X0336582Y0268045D03*
X0336582Y0270014D03*
X0336582Y0271982D03*
X0336582Y0273951D03*
X0336582Y0275919D03*
X0336582Y0277888D03*
X0159582Y0277888D03*
X0159582Y0275919D03*
X0159582Y0273951D03*
X0159582Y0271982D03*
X0159582Y0270014D03*
X0159582Y0268045D03*
X0159582Y0266077D03*
X0159582Y0264108D03*
X0159582Y0262140D03*
X0159582Y0260171D03*
X0159582Y0258203D03*
X0159582Y0256234D03*
X0159582Y0254266D03*
X0159582Y0252297D03*
X0159582Y0250329D03*
X0159582Y0248360D03*
X0159582Y0246392D03*
X0159582Y0244423D03*
X0159582Y0242455D03*
X0159582Y0240486D03*
X0159582Y0238518D03*
X0159582Y0236549D03*
X0159582Y0234581D03*
X0159582Y0232612D03*
X0159582Y0125888D03*
X0159582Y0123919D03*
X0159582Y0121951D03*
X0159582Y0119982D03*
X0159582Y0118014D03*
X0159582Y0116045D03*
X0159582Y0114077D03*
X0159582Y0112108D03*
X0159582Y0110140D03*
X0159582Y0108171D03*
X0159582Y0106203D03*
X0159582Y0104234D03*
X0159582Y0102266D03*
X0159582Y0100297D03*
X0159582Y0098329D03*
X0159582Y0096360D03*
X0159582Y0094392D03*
X0159582Y0092423D03*
X0159582Y0090455D03*
X0159582Y0088486D03*
X0159582Y0086518D03*
X0159582Y0084549D03*
X0159582Y0082581D03*
X0159582Y0080612D03*
D18*
X0167948Y0070967D03*
X0167948Y0135533D03*
X0167948Y0222967D03*
X0167948Y0287533D03*
X0344948Y0287533D03*
X0344948Y0222967D03*
X0344948Y0135533D03*
X0344948Y0070967D03*
D19*
X0063223Y0035010D03*
X0063223Y0038750D03*
X0063223Y0042490D03*
X0073460Y0042490D03*
X0073460Y0035010D03*
X0240223Y0035010D03*
X0240223Y0038750D03*
X0240223Y0042490D03*
X0250460Y0042490D03*
X0250460Y0035010D03*
X0250460Y0187010D03*
X0250460Y0194490D03*
X0240223Y0194490D03*
X0240223Y0190750D03*
X0240223Y0187010D03*
X0073460Y0187010D03*
X0073460Y0194490D03*
X0063223Y0194490D03*
X0063223Y0190750D03*
X0063223Y0187010D03*
D20*
X0087830Y0262325D03*
X0110271Y0262325D03*
X0264830Y0262325D03*
X0287271Y0262325D03*
X0287271Y0110325D03*
X0264830Y0110325D03*
X0110271Y0110325D03*
X0087830Y0110325D03*
D21*
X0116570Y0162096D03*
X0064798Y0166033D03*
X0241798Y0166033D03*
X0293570Y0162096D03*
X0293570Y0314096D03*
X0241798Y0318033D03*
X0116570Y0314096D03*
X0064798Y0318033D03*
D22*
X0083145Y0302876D03*
X0087476Y0301301D03*
X0091806Y0302876D03*
X0096137Y0303663D03*
X0100468Y0302876D03*
X0104798Y0303663D03*
X0109129Y0302876D03*
X0113460Y0302876D03*
X0260145Y0302876D03*
X0264476Y0301301D03*
X0268806Y0302876D03*
X0273137Y0303663D03*
X0277468Y0302876D03*
X0281798Y0303663D03*
X0286129Y0302876D03*
X0290460Y0302876D03*
X0281798Y0151663D03*
X0277468Y0150876D03*
X0273137Y0151663D03*
X0268806Y0150876D03*
X0264476Y0149301D03*
X0260145Y0150876D03*
X0286129Y0150876D03*
X0290460Y0150876D03*
X0113460Y0150876D03*
X0109129Y0150876D03*
X0104798Y0151663D03*
X0100468Y0150876D03*
X0096137Y0151663D03*
X0091806Y0150876D03*
X0087476Y0149301D03*
X0083145Y0150876D03*
D23*
X0095542Y0190750D03*
X0095542Y0195750D03*
X0095542Y0200750D03*
X0095542Y0205750D03*
X0121142Y0205750D03*
X0121142Y0200750D03*
X0121142Y0195750D03*
X0121142Y0190750D03*
X0272542Y0190750D03*
X0272542Y0195750D03*
X0272542Y0200750D03*
X0272542Y0205750D03*
X0298142Y0205750D03*
X0298142Y0200750D03*
X0298142Y0195750D03*
X0298142Y0190750D03*
X0298142Y0053750D03*
X0298142Y0048750D03*
X0298142Y0043750D03*
X0298142Y0038750D03*
X0272542Y0038750D03*
X0272542Y0043750D03*
X0272542Y0048750D03*
X0272542Y0053750D03*
X0121142Y0053750D03*
X0121142Y0048750D03*
X0121142Y0043750D03*
X0121142Y0038750D03*
X0095542Y0038750D03*
X0095542Y0043750D03*
X0095542Y0048750D03*
X0095542Y0053750D03*
D24*
X0064298Y0090663D03*
X0064298Y0092238D03*
X0064298Y0093813D03*
X0064298Y0095388D03*
X0064298Y0096963D03*
X0064298Y0098537D03*
X0064298Y0100112D03*
X0064298Y0101687D03*
X0064298Y0103262D03*
X0064298Y0104837D03*
X0071385Y0104837D03*
X0071385Y0103262D03*
X0071385Y0101687D03*
X0071385Y0100112D03*
X0071385Y0098537D03*
X0071385Y0096963D03*
X0071385Y0095388D03*
X0071385Y0093813D03*
X0071385Y0092238D03*
X0241298Y0092238D03*
X0241298Y0090663D03*
X0241298Y0093813D03*
X0241298Y0095388D03*
X0241298Y0096963D03*
X0241298Y0098537D03*
X0241298Y0100112D03*
X0241298Y0101687D03*
X0241298Y0103262D03*
X0241298Y0104837D03*
X0248385Y0104837D03*
X0248385Y0103262D03*
X0248385Y0101687D03*
X0248385Y0100112D03*
X0248385Y0098537D03*
X0248385Y0096963D03*
X0248385Y0095388D03*
X0248385Y0093813D03*
X0248385Y0092238D03*
X0241298Y0242663D03*
X0241298Y0244238D03*
X0241298Y0245813D03*
X0241298Y0247388D03*
X0241298Y0248963D03*
X0241298Y0250537D03*
X0241298Y0252112D03*
X0241298Y0253687D03*
X0241298Y0255262D03*
X0241298Y0256837D03*
X0248385Y0256837D03*
X0248385Y0255262D03*
X0248385Y0253687D03*
X0248385Y0252112D03*
X0248385Y0250537D03*
X0248385Y0248963D03*
X0248385Y0247388D03*
X0248385Y0245813D03*
X0248385Y0244238D03*
X0071385Y0244238D03*
X0071385Y0245813D03*
X0071385Y0247388D03*
X0071385Y0248963D03*
X0071385Y0250537D03*
X0071385Y0252112D03*
X0071385Y0253687D03*
X0071385Y0255262D03*
X0071385Y0256837D03*
X0064298Y0256837D03*
X0064298Y0255262D03*
X0064298Y0253687D03*
X0064298Y0252112D03*
X0064298Y0250537D03*
X0064298Y0248963D03*
X0064298Y0247388D03*
X0064298Y0245813D03*
X0064298Y0244238D03*
X0064298Y0242663D03*
D25*
X0071188Y0242663D03*
X0248188Y0242663D03*
X0248188Y0090663D03*
X0071188Y0090663D03*
M02*
