G75*
%MOIN*%
%OFA0B0*%
%FSLAX25Y25*%
%IPPOS*%
%LPD*%
%AMOC8*
5,1,8,0,0,1.08239X$1,22.5*
%
%ADD10C,0.02500*%
%ADD11C,0.07400*%
%ADD12C,0.02400*%
%ADD13C,0.00600*%
D10*
X0205842Y0031250D03*
X0382842Y0031250D03*
X0212842Y0176250D03*
X0205842Y0183250D03*
X0035842Y0176250D03*
X0035842Y0328250D03*
X0212842Y0328250D03*
X0382842Y0183250D03*
D11*
X0215342Y0205750D03*
X0215342Y0215750D03*
X0215342Y0225750D03*
X0215342Y0235750D03*
X0215342Y0245750D03*
X0215342Y0255750D03*
X0215342Y0265750D03*
X0215342Y0275750D03*
X0215342Y0285750D03*
X0215342Y0295750D03*
X0215342Y0305750D03*
X0038342Y0305750D03*
X0038342Y0295750D03*
X0038342Y0285750D03*
X0038342Y0275750D03*
X0038342Y0265750D03*
X0038342Y0255750D03*
X0038342Y0245750D03*
X0038342Y0235750D03*
X0038342Y0225750D03*
X0038342Y0215750D03*
X0038342Y0205750D03*
X0038342Y0153750D03*
X0038342Y0143750D03*
X0038342Y0133750D03*
X0038342Y0123750D03*
X0038342Y0113750D03*
X0038342Y0103750D03*
X0038342Y0093750D03*
X0038342Y0083750D03*
X0038342Y0073750D03*
X0038342Y0063750D03*
X0038342Y0053750D03*
X0215342Y0053750D03*
X0215342Y0063750D03*
X0215342Y0073750D03*
X0215342Y0083750D03*
X0215342Y0093750D03*
X0215342Y0103750D03*
X0215342Y0113750D03*
X0215342Y0123750D03*
X0215342Y0133750D03*
X0215342Y0143750D03*
X0215342Y0153750D03*
D12*
X0235842Y0190750D03*
X0245342Y0207250D03*
X0236842Y0212250D03*
X0233842Y0223750D03*
X0233842Y0229750D03*
X0233842Y0236750D03*
X0226607Y0251515D03*
X0223577Y0250485D03*
X0252342Y0249750D03*
X0255842Y0251587D03*
X0256342Y0257750D03*
X0259921Y0257750D03*
X0262921Y0257769D03*
X0264842Y0245750D03*
X0269842Y0241250D03*
X0264842Y0238750D03*
X0258842Y0242138D03*
X0255342Y0246338D03*
X0255842Y0234750D03*
X0277442Y0219250D03*
X0280342Y0220750D03*
X0280842Y0213250D03*
X0260592Y0211000D03*
X0256688Y0192404D03*
X0302842Y0212250D03*
X0302842Y0223750D03*
X0295342Y0232250D03*
X0285537Y0247015D03*
X0277706Y0255115D03*
X0297842Y0265750D03*
X0305342Y0265750D03*
X0312342Y0270750D03*
X0322342Y0265750D03*
X0326855Y0260763D03*
X0330342Y0264250D03*
X0329342Y0269250D03*
X0331925Y0275833D03*
X0341342Y0273750D03*
X0340843Y0259250D03*
X0340842Y0256250D03*
X0331842Y0254878D03*
X0311842Y0252250D03*
X0311842Y0258250D03*
X0300842Y0252750D03*
X0302842Y0249750D03*
X0327342Y0228368D03*
X0299842Y0275750D03*
X0301342Y0283250D03*
X0286129Y0285750D03*
X0281842Y0291250D03*
X0268842Y0280250D03*
X0316342Y0288250D03*
X0164342Y0273750D03*
X0154925Y0275833D03*
X0152342Y0269250D03*
X0153342Y0264250D03*
X0149855Y0260763D03*
X0145342Y0265750D03*
X0135342Y0270750D03*
X0128342Y0265750D03*
X0120842Y0265750D03*
X0122842Y0275750D03*
X0124342Y0283250D03*
X0109129Y0285750D03*
X0104842Y0291250D03*
X0091842Y0280250D03*
X0085921Y0257769D03*
X0082921Y0257750D03*
X0079342Y0257750D03*
X0078842Y0251587D03*
X0075342Y0249750D03*
X0078342Y0246338D03*
X0081842Y0242138D03*
X0087842Y0238750D03*
X0078842Y0234750D03*
X0087842Y0245750D03*
X0092842Y0241250D03*
X0100706Y0255115D03*
X0108537Y0247015D03*
X0123842Y0252750D03*
X0125842Y0249750D03*
X0134842Y0252250D03*
X0134842Y0258250D03*
X0154842Y0254878D03*
X0163842Y0256250D03*
X0163843Y0259250D03*
X0150342Y0228368D03*
X0125842Y0223750D03*
X0118342Y0232250D03*
X0103342Y0220750D03*
X0100442Y0219250D03*
X0103842Y0213250D03*
X0083592Y0211000D03*
X0068342Y0207250D03*
X0059842Y0212250D03*
X0056842Y0223750D03*
X0056842Y0229750D03*
X0056842Y0236750D03*
X0049607Y0251515D03*
X0046577Y0250485D03*
X0079688Y0192404D03*
X0058842Y0190750D03*
X0104842Y0139250D03*
X0109129Y0133750D03*
X0124342Y0131250D03*
X0122842Y0123750D03*
X0120842Y0113750D03*
X0128342Y0113750D03*
X0135342Y0118750D03*
X0145342Y0113750D03*
X0149855Y0108763D03*
X0153342Y0112250D03*
X0152342Y0117250D03*
X0154925Y0123833D03*
X0164342Y0121750D03*
X0163843Y0107250D03*
X0163842Y0104250D03*
X0154842Y0102878D03*
X0134842Y0100250D03*
X0134842Y0106250D03*
X0123842Y0100750D03*
X0125842Y0097750D03*
X0108537Y0095015D03*
X0100706Y0103115D03*
X0085921Y0105769D03*
X0082921Y0105750D03*
X0079342Y0105750D03*
X0078842Y0099587D03*
X0075342Y0097750D03*
X0078342Y0094338D03*
X0081842Y0090138D03*
X0087842Y0086750D03*
X0078842Y0082750D03*
X0087842Y0093750D03*
X0092842Y0089250D03*
X0103342Y0068750D03*
X0100442Y0067250D03*
X0103842Y0061250D03*
X0083592Y0059000D03*
X0068342Y0055250D03*
X0059842Y0060250D03*
X0056842Y0071750D03*
X0056842Y0077750D03*
X0056842Y0084750D03*
X0049607Y0099515D03*
X0046577Y0098485D03*
X0091842Y0128250D03*
X0139342Y0136250D03*
X0118342Y0080250D03*
X0125842Y0071750D03*
X0125842Y0060250D03*
X0150342Y0076368D03*
X0079688Y0040404D03*
X0058842Y0038750D03*
X0223577Y0098485D03*
X0226607Y0099515D03*
X0233842Y0084750D03*
X0233842Y0077750D03*
X0233842Y0071750D03*
X0236842Y0060250D03*
X0245342Y0055250D03*
X0260592Y0059000D03*
X0277442Y0067250D03*
X0280342Y0068750D03*
X0280842Y0061250D03*
X0302842Y0060250D03*
X0302842Y0071750D03*
X0295342Y0080250D03*
X0285537Y0095015D03*
X0277706Y0103115D03*
X0264842Y0093750D03*
X0269842Y0089250D03*
X0264842Y0086750D03*
X0258842Y0090138D03*
X0255342Y0094338D03*
X0252342Y0097750D03*
X0255842Y0099587D03*
X0256342Y0105750D03*
X0259921Y0105750D03*
X0262921Y0105769D03*
X0268842Y0128250D03*
X0281842Y0139250D03*
X0286129Y0133750D03*
X0301342Y0131250D03*
X0299842Y0123750D03*
X0297842Y0113750D03*
X0305342Y0113750D03*
X0312342Y0118750D03*
X0322342Y0113750D03*
X0326855Y0108763D03*
X0330342Y0112250D03*
X0329342Y0117250D03*
X0331925Y0123833D03*
X0341342Y0121750D03*
X0340843Y0107250D03*
X0340842Y0104250D03*
X0331842Y0102878D03*
X0311842Y0100250D03*
X0311842Y0106250D03*
X0300842Y0100750D03*
X0302842Y0097750D03*
X0327342Y0076368D03*
X0316342Y0136250D03*
X0255842Y0082750D03*
X0256688Y0040404D03*
X0235842Y0038750D03*
X0125842Y0212250D03*
X0139342Y0288250D03*
D13*
X0048013Y0030660D02*
X0047986Y0030650D01*
X0203114Y0030650D01*
X0203092Y0030703D01*
X0203092Y0031797D01*
X0203510Y0032808D01*
X0204284Y0033581D01*
X0205295Y0034000D01*
X0206389Y0034000D01*
X0206442Y0033978D01*
X0206442Y0176850D01*
X0047986Y0176850D01*
X0048013Y0176840D01*
X0048013Y0176840D01*
X0050498Y0174755D01*
X0050498Y0174755D01*
X0052120Y0171945D01*
X0052120Y0171945D01*
X0052684Y0168750D01*
X0052684Y0168750D01*
X0052120Y0165555D01*
X0052120Y0165555D01*
X0050498Y0162745D01*
X0050498Y0162745D01*
X0050498Y0162745D01*
X0048013Y0160660D01*
X0048013Y0160660D01*
X0044964Y0159550D01*
X0041720Y0159550D01*
X0038671Y0160660D01*
X0038671Y0160660D01*
X0036185Y0162745D01*
X0036185Y0162745D01*
X0035242Y0164380D01*
X0035242Y0158004D01*
X0035396Y0158158D01*
X0037307Y0158950D01*
X0039376Y0158950D01*
X0041287Y0158158D01*
X0042750Y0156696D01*
X0043225Y0155550D01*
X0098087Y0155550D01*
X0099142Y0154496D01*
X0133205Y0120432D01*
X0133812Y0121039D01*
X0134805Y0121450D01*
X0135496Y0121450D01*
X0141780Y0127733D01*
X0157041Y0127733D01*
X0158095Y0126679D01*
X0161224Y0123550D01*
X0162323Y0123550D01*
X0162812Y0124039D01*
X0163805Y0124450D01*
X0164879Y0124450D01*
X0165871Y0124039D01*
X0166631Y0123279D01*
X0167042Y0122287D01*
X0167042Y0121213D01*
X0166631Y0120221D01*
X0165871Y0119461D01*
X0164879Y0119050D01*
X0163805Y0119050D01*
X0162812Y0119461D01*
X0162323Y0119950D01*
X0159733Y0119950D01*
X0157262Y0122421D01*
X0157214Y0122304D01*
X0156725Y0121815D01*
X0156725Y0119088D01*
X0155671Y0118033D01*
X0155671Y0118033D01*
X0155042Y0117404D01*
X0155042Y0116713D01*
X0154631Y0115721D01*
X0153871Y0114961D01*
X0153845Y0114950D01*
X0153879Y0114950D01*
X0154871Y0114539D01*
X0155631Y0113779D01*
X0156042Y0112787D01*
X0156042Y0111713D01*
X0155631Y0110721D01*
X0154871Y0109961D01*
X0153879Y0109550D01*
X0152805Y0109550D01*
X0152378Y0109727D01*
X0152555Y0109300D01*
X0152555Y0109039D01*
X0152566Y0109050D01*
X0161824Y0109050D01*
X0162313Y0109539D01*
X0163306Y0109950D01*
X0164380Y0109950D01*
X0165372Y0109539D01*
X0166132Y0108779D01*
X0166543Y0107787D01*
X0166543Y0106713D01*
X0166143Y0105749D01*
X0166542Y0104787D01*
X0166542Y0103713D01*
X0166131Y0102721D01*
X0165371Y0101961D01*
X0164379Y0101550D01*
X0163687Y0101550D01*
X0147087Y0084950D01*
X0089860Y0084950D01*
X0089371Y0084461D01*
X0088379Y0084050D01*
X0087305Y0084050D01*
X0086312Y0084461D01*
X0085553Y0085221D01*
X0085142Y0086213D01*
X0085142Y0087287D01*
X0085553Y0088279D01*
X0086312Y0089039D01*
X0087305Y0089450D01*
X0088379Y0089450D01*
X0089371Y0089039D01*
X0089860Y0088550D01*
X0090209Y0088550D01*
X0090142Y0088713D01*
X0090142Y0089550D01*
X0084521Y0089550D01*
X0084131Y0088609D01*
X0083371Y0087849D01*
X0082676Y0087561D01*
X0100287Y0069950D01*
X0100979Y0069950D01*
X0101971Y0069539D01*
X0102731Y0068779D01*
X0103142Y0067787D01*
X0103142Y0067596D01*
X0115642Y0080096D01*
X0115642Y0080787D01*
X0116053Y0081779D01*
X0116812Y0082539D01*
X0117805Y0082950D01*
X0118879Y0082950D01*
X0119871Y0082539D01*
X0120631Y0081779D01*
X0121042Y0080787D01*
X0121042Y0079713D01*
X0120631Y0078721D01*
X0119871Y0077961D01*
X0118879Y0077550D01*
X0118187Y0077550D01*
X0082151Y0041514D01*
X0082388Y0040941D01*
X0082388Y0039866D01*
X0081977Y0038874D01*
X0081218Y0038115D01*
X0080225Y0037704D01*
X0079151Y0037704D01*
X0078159Y0038115D01*
X0077399Y0038874D01*
X0076988Y0039866D01*
X0076988Y0040941D01*
X0077399Y0041933D01*
X0078159Y0042692D01*
X0078295Y0042749D01*
X0078943Y0043396D01*
X0078943Y0043396D01*
X0100096Y0064550D01*
X0099905Y0064550D01*
X0098912Y0064961D01*
X0098153Y0065721D01*
X0097742Y0066713D01*
X0097742Y0067404D01*
X0081317Y0083829D01*
X0081542Y0083287D01*
X0081542Y0082213D01*
X0081131Y0081221D01*
X0080371Y0080461D01*
X0079379Y0080050D01*
X0078305Y0080050D01*
X0077312Y0080461D01*
X0076553Y0081221D01*
X0076142Y0082213D01*
X0076142Y0082904D01*
X0074596Y0084450D01*
X0073542Y0085504D01*
X0073542Y0095732D01*
X0073053Y0096221D01*
X0072642Y0097213D01*
X0072642Y0098287D01*
X0073053Y0099279D01*
X0073812Y0100039D01*
X0074805Y0100450D01*
X0075879Y0100450D01*
X0076219Y0100309D01*
X0076553Y0101116D01*
X0077312Y0101876D01*
X0078305Y0102287D01*
X0079379Y0102287D01*
X0080371Y0101876D01*
X0081131Y0101116D01*
X0081542Y0100124D01*
X0081542Y0099433D01*
X0085424Y0095550D01*
X0085823Y0095550D01*
X0086312Y0096039D01*
X0086450Y0096096D01*
X0079496Y0103050D01*
X0078805Y0103050D01*
X0077812Y0103461D01*
X0077053Y0104221D01*
X0076642Y0105213D01*
X0076642Y0106287D01*
X0077053Y0107279D01*
X0077812Y0108039D01*
X0078805Y0108450D01*
X0079879Y0108450D01*
X0080871Y0108039D01*
X0081131Y0107779D01*
X0081392Y0108039D01*
X0082384Y0108450D01*
X0083458Y0108450D01*
X0084121Y0108175D01*
X0084121Y0113075D01*
X0094296Y0123250D01*
X0091996Y0125550D01*
X0091305Y0125550D01*
X0090312Y0125961D01*
X0089553Y0126721D01*
X0089142Y0127713D01*
X0089142Y0128787D01*
X0089553Y0129779D01*
X0090312Y0130539D01*
X0091305Y0130950D01*
X0092379Y0130950D01*
X0093371Y0130539D01*
X0094131Y0129779D01*
X0094542Y0128787D01*
X0094542Y0128096D01*
X0097587Y0125050D01*
X0097587Y0125050D01*
X0098642Y0123996D01*
X0098642Y0123996D01*
X0102506Y0120131D01*
X0102506Y0105133D01*
X0102995Y0104644D01*
X0103406Y0103652D01*
X0103406Y0102690D01*
X0104337Y0101760D01*
X0107329Y0098767D01*
X0107329Y0131732D01*
X0106840Y0132221D01*
X0106429Y0133213D01*
X0106429Y0134287D01*
X0106840Y0135279D01*
X0107600Y0136039D01*
X0108592Y0136450D01*
X0109666Y0136450D01*
X0110659Y0136039D01*
X0111418Y0135279D01*
X0111829Y0134287D01*
X0111829Y0133213D01*
X0111418Y0132221D01*
X0110929Y0131732D01*
X0110929Y0096294D01*
X0111237Y0095552D01*
X0111237Y0094550D01*
X0133096Y0094550D01*
X0147155Y0108609D01*
X0147155Y0109300D01*
X0147566Y0110292D01*
X0148325Y0111052D01*
X0149318Y0111463D01*
X0150392Y0111463D01*
X0150819Y0111286D01*
X0150642Y0111713D01*
X0150642Y0112404D01*
X0148581Y0114465D01*
X0134111Y0114465D01*
X0133057Y0115519D01*
X0133057Y0115519D01*
X0132126Y0116450D01*
X0132096Y0116450D01*
X0096596Y0151950D01*
X0043225Y0151950D01*
X0042750Y0150804D01*
X0041287Y0149342D01*
X0039859Y0148750D01*
X0041287Y0148158D01*
X0042750Y0146696D01*
X0043542Y0144784D01*
X0043542Y0142716D01*
X0042750Y0140804D01*
X0041287Y0139342D01*
X0039859Y0138750D01*
X0041287Y0138158D01*
X0042750Y0136696D01*
X0043542Y0134784D01*
X0043542Y0132716D01*
X0042750Y0130804D01*
X0041287Y0129342D01*
X0039859Y0128750D01*
X0041287Y0128158D01*
X0042750Y0126696D01*
X0043542Y0124784D01*
X0043542Y0122716D01*
X0093762Y0122716D01*
X0094231Y0123315D02*
X0043542Y0123315D01*
X0043542Y0123913D02*
X0093633Y0123913D01*
X0093034Y0124512D02*
X0043542Y0124512D01*
X0043407Y0125110D02*
X0092436Y0125110D01*
X0090921Y0125709D02*
X0043159Y0125709D01*
X0042911Y0126307D02*
X0089966Y0126307D01*
X0089476Y0126906D02*
X0042540Y0126906D01*
X0041941Y0127504D02*
X0089228Y0127504D01*
X0089142Y0128103D02*
X0041343Y0128103D01*
X0041187Y0129300D02*
X0089354Y0129300D01*
X0089142Y0128701D02*
X0039976Y0128701D01*
X0041844Y0129898D02*
X0089672Y0129898D01*
X0090270Y0130497D02*
X0042443Y0130497D01*
X0042871Y0131095D02*
X0107329Y0131095D01*
X0107329Y0130497D02*
X0093413Y0130497D01*
X0094012Y0129898D02*
X0107329Y0129898D01*
X0107329Y0129300D02*
X0094329Y0129300D01*
X0094542Y0128701D02*
X0107329Y0128701D01*
X0107329Y0128103D02*
X0094542Y0128103D01*
X0095133Y0127504D02*
X0107329Y0127504D01*
X0107329Y0126906D02*
X0095732Y0126906D01*
X0096330Y0126307D02*
X0107329Y0126307D01*
X0107329Y0125709D02*
X0096929Y0125709D01*
X0097527Y0125110D02*
X0107329Y0125110D01*
X0107329Y0124512D02*
X0098126Y0124512D01*
X0098724Y0123913D02*
X0107329Y0123913D01*
X0107329Y0123315D02*
X0099323Y0123315D01*
X0099921Y0122716D02*
X0107329Y0122716D01*
X0107329Y0122118D02*
X0100520Y0122118D01*
X0101118Y0121519D02*
X0107329Y0121519D01*
X0107329Y0120921D02*
X0101717Y0120921D01*
X0102315Y0120322D02*
X0107329Y0120322D01*
X0107329Y0119724D02*
X0102506Y0119724D01*
X0102506Y0119125D02*
X0107329Y0119125D01*
X0107329Y0118527D02*
X0102506Y0118527D01*
X0102506Y0117928D02*
X0107329Y0117928D01*
X0107329Y0117330D02*
X0102506Y0117330D01*
X0102506Y0116731D02*
X0107329Y0116731D01*
X0107329Y0116133D02*
X0102506Y0116133D01*
X0102506Y0115534D02*
X0107329Y0115534D01*
X0107329Y0114936D02*
X0102506Y0114936D01*
X0102506Y0114337D02*
X0107329Y0114337D01*
X0107329Y0113739D02*
X0102506Y0113739D01*
X0102506Y0113140D02*
X0107329Y0113140D01*
X0107329Y0112542D02*
X0102506Y0112542D01*
X0102506Y0111943D02*
X0107329Y0111943D01*
X0107329Y0111345D02*
X0102506Y0111345D01*
X0102506Y0110746D02*
X0107329Y0110746D01*
X0107329Y0110148D02*
X0102506Y0110148D01*
X0102506Y0109549D02*
X0107329Y0109549D01*
X0107329Y0108951D02*
X0102506Y0108951D01*
X0102506Y0108352D02*
X0107329Y0108352D01*
X0107329Y0107753D02*
X0102506Y0107753D01*
X0102506Y0107155D02*
X0107329Y0107155D01*
X0107329Y0106556D02*
X0102506Y0106556D01*
X0102506Y0105958D02*
X0107329Y0105958D01*
X0107329Y0105359D02*
X0102506Y0105359D01*
X0102878Y0104761D02*
X0107329Y0104761D01*
X0107329Y0104162D02*
X0103195Y0104162D01*
X0103406Y0103564D02*
X0107329Y0103564D01*
X0107329Y0102965D02*
X0103406Y0102965D01*
X0103730Y0102367D02*
X0107329Y0102367D01*
X0107329Y0101768D02*
X0104328Y0101768D01*
X0104927Y0101170D02*
X0107329Y0101170D01*
X0107329Y0100571D02*
X0105525Y0100571D01*
X0106124Y0099973D02*
X0107329Y0099973D01*
X0107329Y0099374D02*
X0106722Y0099374D01*
X0107321Y0098776D02*
X0107329Y0098776D01*
X0110929Y0098776D02*
X0121998Y0098776D01*
X0122312Y0098461D02*
X0121553Y0099221D01*
X0121142Y0100213D01*
X0121142Y0101287D01*
X0121553Y0102279D01*
X0122042Y0102768D01*
X0122042Y0110004D01*
X0120996Y0111050D01*
X0120305Y0111050D01*
X0119312Y0111461D01*
X0118553Y0112221D01*
X0118142Y0113213D01*
X0118142Y0114287D01*
X0118553Y0115279D01*
X0119312Y0116039D01*
X0120305Y0116450D01*
X0121379Y0116450D01*
X0122371Y0116039D01*
X0123131Y0115279D01*
X0123542Y0114287D01*
X0123542Y0113596D01*
X0125642Y0111496D01*
X0125642Y0102768D01*
X0126131Y0102279D01*
X0126542Y0101287D01*
X0126542Y0100996D01*
X0126542Y0100996D01*
X0126542Y0111732D01*
X0126053Y0112221D01*
X0125642Y0113213D01*
X0125642Y0114287D01*
X0126053Y0115279D01*
X0126812Y0116039D01*
X0127805Y0116450D01*
X0128879Y0116450D01*
X0129871Y0116039D01*
X0130631Y0115279D01*
X0131042Y0114287D01*
X0131042Y0113213D01*
X0130631Y0112221D01*
X0130142Y0111732D01*
X0130142Y0099504D01*
X0129087Y0098450D01*
X0128542Y0097904D01*
X0128542Y0097213D01*
X0128131Y0096221D01*
X0127371Y0095461D01*
X0126379Y0095050D01*
X0125305Y0095050D01*
X0124312Y0095461D01*
X0123553Y0096221D01*
X0123142Y0097213D01*
X0123142Y0098117D01*
X0122312Y0098461D01*
X0122997Y0098177D02*
X0110929Y0098177D01*
X0110929Y0097579D02*
X0123142Y0097579D01*
X0123238Y0096980D02*
X0110929Y0096980D01*
X0110929Y0096382D02*
X0123486Y0096382D01*
X0123990Y0095783D02*
X0111141Y0095783D01*
X0111237Y0095185D02*
X0124979Y0095185D01*
X0126704Y0095185D02*
X0133731Y0095185D01*
X0134329Y0095783D02*
X0127693Y0095783D01*
X0128198Y0096382D02*
X0134928Y0096382D01*
X0135527Y0096980D02*
X0128445Y0096980D01*
X0128542Y0097579D02*
X0136125Y0097579D01*
X0136724Y0098177D02*
X0128815Y0098177D01*
X0129413Y0098776D02*
X0137322Y0098776D01*
X0137921Y0099374D02*
X0130012Y0099374D01*
X0130142Y0099973D02*
X0138519Y0099973D01*
X0139118Y0100571D02*
X0130142Y0100571D01*
X0130142Y0101170D02*
X0139716Y0101170D01*
X0140315Y0101768D02*
X0130142Y0101768D01*
X0130142Y0102367D02*
X0140913Y0102367D01*
X0141512Y0102965D02*
X0130142Y0102965D01*
X0130142Y0103564D02*
X0142110Y0103564D01*
X0142709Y0104162D02*
X0130142Y0104162D01*
X0130142Y0104761D02*
X0143307Y0104761D01*
X0143906Y0105359D02*
X0130142Y0105359D01*
X0130142Y0105958D02*
X0144504Y0105958D01*
X0145103Y0106556D02*
X0130142Y0106556D01*
X0130142Y0107155D02*
X0145701Y0107155D01*
X0146300Y0107753D02*
X0130142Y0107753D01*
X0130142Y0108352D02*
X0146898Y0108352D01*
X0147155Y0108951D02*
X0130142Y0108951D01*
X0130142Y0109549D02*
X0147258Y0109549D01*
X0147506Y0110148D02*
X0130142Y0110148D01*
X0130142Y0110746D02*
X0148019Y0110746D01*
X0149032Y0111345D02*
X0130142Y0111345D01*
X0130353Y0111943D02*
X0150642Y0111943D01*
X0150678Y0111345D02*
X0150794Y0111345D01*
X0150505Y0112542D02*
X0130764Y0112542D01*
X0131012Y0113140D02*
X0149906Y0113140D01*
X0149308Y0113739D02*
X0131042Y0113739D01*
X0131021Y0114337D02*
X0148709Y0114337D01*
X0149327Y0116265D02*
X0134857Y0116265D01*
X0132872Y0118250D01*
X0132842Y0118250D01*
X0097342Y0153750D01*
X0038342Y0153750D01*
X0042016Y0157430D02*
X0206442Y0157430D01*
X0206442Y0158028D02*
X0041417Y0158028D01*
X0040156Y0158627D02*
X0206442Y0158627D01*
X0206442Y0159225D02*
X0035242Y0159225D01*
X0035242Y0158627D02*
X0036528Y0158627D01*
X0035266Y0158028D02*
X0035242Y0158028D01*
X0035242Y0159824D02*
X0040967Y0159824D01*
X0039322Y0160422D02*
X0035242Y0160422D01*
X0035242Y0161021D02*
X0038240Y0161021D01*
X0037527Y0161620D02*
X0035242Y0161620D01*
X0035242Y0162218D02*
X0036814Y0162218D01*
X0036144Y0162817D02*
X0035242Y0162817D01*
X0035242Y0163415D02*
X0035799Y0163415D01*
X0035453Y0164014D02*
X0035242Y0164014D01*
X0042614Y0156831D02*
X0206442Y0156831D01*
X0206442Y0156233D02*
X0042942Y0156233D01*
X0043190Y0155634D02*
X0206442Y0155634D01*
X0206442Y0155036D02*
X0098601Y0155036D01*
X0099200Y0154437D02*
X0206442Y0154437D01*
X0206442Y0153839D02*
X0099799Y0153839D01*
X0100397Y0153240D02*
X0206442Y0153240D01*
X0206442Y0152642D02*
X0100996Y0152642D01*
X0101594Y0152043D02*
X0206442Y0152043D01*
X0206442Y0151445D02*
X0102193Y0151445D01*
X0102791Y0150846D02*
X0206442Y0150846D01*
X0206442Y0150248D02*
X0103390Y0150248D01*
X0103988Y0149649D02*
X0206442Y0149649D01*
X0206442Y0149051D02*
X0104587Y0149051D01*
X0105185Y0148452D02*
X0206442Y0148452D01*
X0206442Y0147854D02*
X0105784Y0147854D01*
X0106382Y0147255D02*
X0206442Y0147255D01*
X0206442Y0146657D02*
X0106981Y0146657D01*
X0107579Y0146058D02*
X0206442Y0146058D01*
X0206442Y0145460D02*
X0108178Y0145460D01*
X0108776Y0144861D02*
X0206442Y0144861D01*
X0206442Y0144263D02*
X0109375Y0144263D01*
X0109973Y0143664D02*
X0206442Y0143664D01*
X0206442Y0143066D02*
X0110572Y0143066D01*
X0111170Y0142467D02*
X0206442Y0142467D01*
X0206442Y0141869D02*
X0111769Y0141869D01*
X0112367Y0141270D02*
X0206442Y0141270D01*
X0206442Y0140672D02*
X0112966Y0140672D01*
X0113564Y0140073D02*
X0206442Y0140073D01*
X0206442Y0139475D02*
X0114163Y0139475D01*
X0114761Y0138876D02*
X0206442Y0138876D01*
X0206442Y0138278D02*
X0115360Y0138278D01*
X0115958Y0137679D02*
X0206442Y0137679D01*
X0206442Y0137081D02*
X0116557Y0137081D01*
X0117155Y0136482D02*
X0206442Y0136482D01*
X0206442Y0135884D02*
X0117754Y0135884D01*
X0118352Y0135285D02*
X0206442Y0135285D01*
X0206442Y0134687D02*
X0118951Y0134687D01*
X0119549Y0134088D02*
X0206442Y0134088D01*
X0206442Y0133489D02*
X0120148Y0133489D01*
X0120746Y0132891D02*
X0206442Y0132891D01*
X0206442Y0132292D02*
X0121345Y0132292D01*
X0121943Y0131694D02*
X0206442Y0131694D01*
X0206442Y0131095D02*
X0122542Y0131095D01*
X0123140Y0130497D02*
X0206442Y0130497D01*
X0206442Y0129898D02*
X0123739Y0129898D01*
X0124337Y0129300D02*
X0206442Y0129300D01*
X0206442Y0128701D02*
X0124936Y0128701D01*
X0125534Y0128103D02*
X0206442Y0128103D01*
X0206442Y0127504D02*
X0157270Y0127504D01*
X0157868Y0126906D02*
X0206442Y0126906D01*
X0206442Y0126307D02*
X0158467Y0126307D01*
X0159065Y0125709D02*
X0206442Y0125709D01*
X0206442Y0125110D02*
X0159664Y0125110D01*
X0160262Y0124512D02*
X0206442Y0124512D01*
X0206442Y0123913D02*
X0165997Y0123913D01*
X0166595Y0123315D02*
X0206442Y0123315D01*
X0206442Y0122716D02*
X0166864Y0122716D01*
X0167042Y0122118D02*
X0206442Y0122118D01*
X0206442Y0121519D02*
X0167042Y0121519D01*
X0166921Y0120921D02*
X0206442Y0120921D01*
X0206442Y0120322D02*
X0166673Y0120322D01*
X0166134Y0119724D02*
X0206442Y0119724D01*
X0206442Y0119125D02*
X0165060Y0119125D01*
X0163623Y0119125D02*
X0156725Y0119125D01*
X0156725Y0119724D02*
X0162550Y0119724D01*
X0164342Y0121750D02*
X0160479Y0121750D01*
X0156295Y0125933D01*
X0142525Y0125933D01*
X0135342Y0118750D01*
X0133694Y0120921D02*
X0132717Y0120921D01*
X0132118Y0121519D02*
X0135565Y0121519D01*
X0136164Y0122118D02*
X0131520Y0122118D01*
X0130921Y0122716D02*
X0136763Y0122716D01*
X0137361Y0123315D02*
X0130323Y0123315D01*
X0129724Y0123913D02*
X0137960Y0123913D01*
X0138558Y0124512D02*
X0129126Y0124512D01*
X0128527Y0125110D02*
X0139157Y0125110D01*
X0139755Y0125709D02*
X0127929Y0125709D01*
X0127330Y0126307D02*
X0140354Y0126307D01*
X0140952Y0126906D02*
X0126732Y0126906D01*
X0126133Y0127504D02*
X0141551Y0127504D01*
X0149327Y0116265D02*
X0153342Y0112250D01*
X0155889Y0111345D02*
X0206442Y0111345D01*
X0206442Y0111943D02*
X0156042Y0111943D01*
X0156042Y0112542D02*
X0206442Y0112542D01*
X0206442Y0113140D02*
X0155896Y0113140D01*
X0155648Y0113739D02*
X0206442Y0113739D01*
X0206442Y0114337D02*
X0155073Y0114337D01*
X0153914Y0114936D02*
X0206442Y0114936D01*
X0206442Y0115534D02*
X0154444Y0115534D01*
X0154801Y0116133D02*
X0206442Y0116133D01*
X0206442Y0116731D02*
X0155042Y0116731D01*
X0155042Y0117330D02*
X0206442Y0117330D01*
X0206442Y0117928D02*
X0155566Y0117928D01*
X0156164Y0118527D02*
X0206442Y0118527D01*
X0206442Y0110746D02*
X0155641Y0110746D01*
X0155058Y0110148D02*
X0206442Y0110148D01*
X0206442Y0109549D02*
X0165348Y0109549D01*
X0165960Y0108951D02*
X0206442Y0108951D01*
X0206442Y0108352D02*
X0166309Y0108352D01*
X0166543Y0107753D02*
X0206442Y0107753D01*
X0206442Y0107155D02*
X0166543Y0107155D01*
X0166478Y0106556D02*
X0206442Y0106556D01*
X0206442Y0105958D02*
X0166230Y0105958D01*
X0166305Y0105359D02*
X0206442Y0105359D01*
X0206442Y0104761D02*
X0166542Y0104761D01*
X0166542Y0104162D02*
X0206442Y0104162D01*
X0206442Y0103564D02*
X0166480Y0103564D01*
X0166232Y0102965D02*
X0206442Y0102965D01*
X0206442Y0102367D02*
X0165777Y0102367D01*
X0164906Y0101768D02*
X0206442Y0101768D01*
X0206442Y0101170D02*
X0163307Y0101170D01*
X0162709Y0100571D02*
X0206442Y0100571D01*
X0206442Y0099973D02*
X0162110Y0099973D01*
X0161512Y0099374D02*
X0206442Y0099374D01*
X0206442Y0098776D02*
X0160913Y0098776D01*
X0160315Y0098177D02*
X0206442Y0098177D01*
X0206442Y0097579D02*
X0159716Y0097579D01*
X0159118Y0096980D02*
X0206442Y0096980D01*
X0206442Y0096382D02*
X0158519Y0096382D01*
X0157921Y0095783D02*
X0206442Y0095783D01*
X0206442Y0095185D02*
X0157322Y0095185D01*
X0156724Y0094586D02*
X0206442Y0094586D01*
X0206442Y0093988D02*
X0156125Y0093988D01*
X0155527Y0093389D02*
X0206442Y0093389D01*
X0206442Y0092791D02*
X0154928Y0092791D01*
X0154330Y0092192D02*
X0206442Y0092192D01*
X0206442Y0091594D02*
X0153731Y0091594D01*
X0153133Y0090995D02*
X0206442Y0090995D01*
X0206442Y0090397D02*
X0152534Y0090397D01*
X0151936Y0089798D02*
X0206442Y0089798D01*
X0206442Y0089200D02*
X0151337Y0089200D01*
X0150739Y0088601D02*
X0206442Y0088601D01*
X0206442Y0088003D02*
X0150140Y0088003D01*
X0149541Y0087404D02*
X0206442Y0087404D01*
X0206442Y0086806D02*
X0148943Y0086806D01*
X0148344Y0086207D02*
X0206442Y0086207D01*
X0206442Y0085609D02*
X0147746Y0085609D01*
X0147147Y0085010D02*
X0206442Y0085010D01*
X0206442Y0084412D02*
X0089252Y0084412D01*
X0087621Y0082616D02*
X0116998Y0082616D01*
X0116291Y0082018D02*
X0088220Y0082018D01*
X0088818Y0081419D02*
X0115904Y0081419D01*
X0115656Y0080820D02*
X0089417Y0080820D01*
X0090015Y0080222D02*
X0115642Y0080222D01*
X0115170Y0079623D02*
X0090614Y0079623D01*
X0091212Y0079025D02*
X0114571Y0079025D01*
X0113973Y0078426D02*
X0091811Y0078426D01*
X0092409Y0077828D02*
X0113374Y0077828D01*
X0112776Y0077229D02*
X0093008Y0077229D01*
X0093606Y0076631D02*
X0112177Y0076631D01*
X0111579Y0076032D02*
X0094205Y0076032D01*
X0094803Y0075434D02*
X0110980Y0075434D01*
X0110382Y0074835D02*
X0095402Y0074835D01*
X0096001Y0074237D02*
X0109783Y0074237D01*
X0109185Y0073638D02*
X0096599Y0073638D01*
X0097198Y0073040D02*
X0108586Y0073040D01*
X0107988Y0072441D02*
X0097796Y0072441D01*
X0098395Y0071843D02*
X0107389Y0071843D01*
X0106791Y0071244D02*
X0098993Y0071244D01*
X0099592Y0070646D02*
X0106192Y0070646D01*
X0105594Y0070047D02*
X0100190Y0070047D01*
X0102061Y0069449D02*
X0104995Y0069449D01*
X0104396Y0068850D02*
X0102660Y0068850D01*
X0102949Y0068252D02*
X0103798Y0068252D01*
X0103199Y0067653D02*
X0103142Y0067653D01*
X0100442Y0067250D02*
X0078342Y0089350D01*
X0078342Y0094338D01*
X0075342Y0097750D02*
X0075342Y0086250D01*
X0078842Y0082750D01*
X0081324Y0083813D02*
X0081333Y0083813D01*
X0081542Y0083215D02*
X0081932Y0083215D01*
X0081542Y0082616D02*
X0082530Y0082616D01*
X0083129Y0082018D02*
X0081461Y0082018D01*
X0081213Y0081419D02*
X0083727Y0081419D01*
X0084326Y0080820D02*
X0080731Y0080820D01*
X0079794Y0080222D02*
X0084924Y0080222D01*
X0085523Y0079623D02*
X0061642Y0079623D01*
X0061642Y0079025D02*
X0086121Y0079025D01*
X0086720Y0078426D02*
X0061642Y0078426D01*
X0061642Y0077828D02*
X0087318Y0077828D01*
X0087917Y0077229D02*
X0061642Y0077229D01*
X0061642Y0076631D02*
X0088515Y0076631D01*
X0089114Y0076032D02*
X0061642Y0076032D01*
X0061642Y0075434D02*
X0089712Y0075434D01*
X0090311Y0074835D02*
X0061642Y0074835D01*
X0061642Y0074237D02*
X0090909Y0074237D01*
X0091508Y0073638D02*
X0061642Y0073638D01*
X0061642Y0073040D02*
X0092106Y0073040D01*
X0092705Y0072441D02*
X0061642Y0072441D01*
X0061642Y0071843D02*
X0093303Y0071843D01*
X0093902Y0071244D02*
X0061642Y0071244D01*
X0061642Y0070646D02*
X0094500Y0070646D01*
X0095099Y0070047D02*
X0061642Y0070047D01*
X0061642Y0069449D02*
X0095697Y0069449D01*
X0096296Y0068850D02*
X0061642Y0068850D01*
X0061642Y0068252D02*
X0096894Y0068252D01*
X0097493Y0067653D02*
X0061642Y0067653D01*
X0061642Y0067055D02*
X0097742Y0067055D01*
X0097848Y0066456D02*
X0061642Y0066456D01*
X0061642Y0065858D02*
X0098096Y0065858D01*
X0098614Y0065259D02*
X0061642Y0065259D01*
X0061642Y0064661D02*
X0099638Y0064661D01*
X0099608Y0064062D02*
X0061642Y0064062D01*
X0061642Y0063464D02*
X0099010Y0063464D01*
X0098411Y0062865D02*
X0061642Y0062865D01*
X0061642Y0062268D02*
X0061642Y0085965D01*
X0060587Y0087020D01*
X0049277Y0098331D01*
X0049277Y0099022D01*
X0048866Y0100014D01*
X0048106Y0100774D01*
X0047114Y0101185D01*
X0046040Y0101185D01*
X0045047Y0100774D01*
X0044288Y0100014D01*
X0044240Y0099898D01*
X0042921Y0101217D01*
X0043542Y0102716D01*
X0043542Y0104784D01*
X0042750Y0106696D01*
X0041287Y0108158D01*
X0039859Y0108750D01*
X0041287Y0109342D01*
X0042750Y0110804D01*
X0043542Y0112716D01*
X0043542Y0114784D01*
X0042750Y0116696D01*
X0041287Y0118158D01*
X0039859Y0118750D01*
X0041287Y0119342D01*
X0042750Y0120804D01*
X0043542Y0122716D01*
X0043294Y0122118D02*
X0093164Y0122118D01*
X0092565Y0121519D02*
X0043046Y0121519D01*
X0042798Y0120921D02*
X0091967Y0120921D01*
X0091368Y0120322D02*
X0042268Y0120322D01*
X0041669Y0119724D02*
X0090770Y0119724D01*
X0090171Y0119125D02*
X0040765Y0119125D01*
X0040398Y0118527D02*
X0089573Y0118527D01*
X0088974Y0117928D02*
X0041518Y0117928D01*
X0042116Y0117330D02*
X0088376Y0117330D01*
X0087777Y0116731D02*
X0042715Y0116731D01*
X0042983Y0116133D02*
X0087179Y0116133D01*
X0086580Y0115534D02*
X0043231Y0115534D01*
X0043479Y0114936D02*
X0085982Y0114936D01*
X0085383Y0114337D02*
X0043542Y0114337D01*
X0043542Y0113739D02*
X0084785Y0113739D01*
X0084186Y0113140D02*
X0043542Y0113140D01*
X0043470Y0112542D02*
X0084121Y0112542D01*
X0084121Y0111943D02*
X0043222Y0111943D01*
X0042974Y0111345D02*
X0084121Y0111345D01*
X0084121Y0110746D02*
X0042692Y0110746D01*
X0042093Y0110148D02*
X0084121Y0110148D01*
X0084121Y0109549D02*
X0041495Y0109549D01*
X0040343Y0108951D02*
X0084121Y0108951D01*
X0084121Y0108352D02*
X0083695Y0108352D01*
X0082147Y0108352D02*
X0080115Y0108352D01*
X0078568Y0108352D02*
X0040820Y0108352D01*
X0041692Y0107753D02*
X0077527Y0107753D01*
X0077001Y0107155D02*
X0042291Y0107155D01*
X0042808Y0106556D02*
X0076753Y0106556D01*
X0076642Y0105958D02*
X0043056Y0105958D01*
X0043304Y0105359D02*
X0076642Y0105359D01*
X0076829Y0104761D02*
X0043542Y0104761D01*
X0043542Y0104162D02*
X0077111Y0104162D01*
X0077710Y0103564D02*
X0043542Y0103564D01*
X0043542Y0102965D02*
X0079581Y0102965D01*
X0080179Y0102367D02*
X0043397Y0102367D01*
X0043149Y0101768D02*
X0077205Y0101768D01*
X0076606Y0101170D02*
X0047150Y0101170D01*
X0046003Y0101170D02*
X0042968Y0101170D01*
X0043566Y0100571D02*
X0044845Y0100571D01*
X0044271Y0099973D02*
X0044165Y0099973D01*
X0046577Y0098485D02*
X0059842Y0085220D01*
X0059842Y0060250D01*
X0062360Y0059274D02*
X0094820Y0059274D01*
X0094222Y0058676D02*
X0062086Y0058676D01*
X0062131Y0058721D02*
X0062542Y0059713D01*
X0062542Y0060787D01*
X0062131Y0061779D01*
X0061642Y0062268D01*
X0061644Y0062267D02*
X0097813Y0062267D01*
X0097214Y0061668D02*
X0062177Y0061668D01*
X0062425Y0061070D02*
X0096616Y0061070D01*
X0096017Y0060471D02*
X0062542Y0060471D01*
X0062542Y0059873D02*
X0095419Y0059873D01*
X0093623Y0058077D02*
X0061487Y0058077D01*
X0061371Y0057961D02*
X0062131Y0058721D01*
X0061371Y0057961D02*
X0060379Y0057550D01*
X0059305Y0057550D01*
X0058312Y0057961D01*
X0057553Y0058721D01*
X0057142Y0059713D01*
X0057142Y0060787D01*
X0057553Y0061779D01*
X0058042Y0062268D01*
X0058042Y0069325D01*
X0057379Y0069050D01*
X0056305Y0069050D01*
X0055312Y0069461D01*
X0054823Y0069950D01*
X0049596Y0069950D01*
X0040522Y0079025D01*
X0039859Y0078750D01*
X0041287Y0078158D01*
X0042750Y0076696D01*
X0043542Y0074784D01*
X0043542Y0072716D01*
X0042750Y0070804D01*
X0041287Y0069342D01*
X0039540Y0068618D01*
X0040261Y0068384D01*
X0040962Y0068026D01*
X0041599Y0067564D01*
X0042156Y0067007D01*
X0042618Y0066371D01*
X0042975Y0065669D01*
X0043219Y0064921D01*
X0043342Y0064144D01*
X0043342Y0064050D01*
X0038642Y0064050D01*
X0038642Y0063450D01*
X0043342Y0063450D01*
X0043342Y0063356D01*
X0043219Y0062579D01*
X0042975Y0061831D01*
X0042618Y0061129D01*
X0042156Y0060493D01*
X0041599Y0059936D01*
X0040962Y0059474D01*
X0040261Y0059116D01*
X0039540Y0058882D01*
X0041287Y0058158D01*
X0042750Y0056696D01*
X0043225Y0055550D01*
X0047094Y0055550D01*
X0048148Y0054496D01*
X0048148Y0053004D01*
X0047094Y0051950D01*
X0043225Y0051950D01*
X0042750Y0050804D01*
X0041287Y0049342D01*
X0039376Y0048550D01*
X0037307Y0048550D01*
X0035396Y0049342D01*
X0035242Y0049496D01*
X0035242Y0043120D01*
X0036185Y0044755D01*
X0036185Y0044755D01*
X0036185Y0044755D01*
X0038671Y0046840D01*
X0038671Y0046840D01*
X0041720Y0047950D01*
X0044964Y0047950D01*
X0048013Y0046840D01*
X0048013Y0046840D01*
X0050498Y0044755D01*
X0050498Y0044755D01*
X0052120Y0041945D01*
X0052120Y0041945D01*
X0052684Y0038750D01*
X0052684Y0038750D01*
X0052120Y0035555D01*
X0050498Y0032745D01*
X0050498Y0032745D01*
X0048013Y0030660D01*
X0048013Y0030660D01*
X0048590Y0031144D02*
X0203092Y0031144D01*
X0203092Y0031743D02*
X0049303Y0031743D01*
X0050017Y0032341D02*
X0203317Y0032341D01*
X0203642Y0032940D02*
X0050610Y0032940D01*
X0050956Y0033538D02*
X0204241Y0033538D01*
X0206442Y0034137D02*
X0051302Y0034137D01*
X0051647Y0034735D02*
X0206442Y0034735D01*
X0206442Y0035334D02*
X0051993Y0035334D01*
X0052187Y0035932D02*
X0206442Y0035932D01*
X0206442Y0036531D02*
X0052292Y0036531D01*
X0052398Y0037129D02*
X0206442Y0037129D01*
X0206442Y0037728D02*
X0080284Y0037728D01*
X0079093Y0037728D02*
X0052503Y0037728D01*
X0052609Y0038326D02*
X0077947Y0038326D01*
X0077378Y0038925D02*
X0052653Y0038925D01*
X0052547Y0039523D02*
X0077130Y0039523D01*
X0076988Y0040122D02*
X0052442Y0040122D01*
X0052336Y0040720D02*
X0076988Y0040720D01*
X0077145Y0041319D02*
X0052231Y0041319D01*
X0052125Y0041917D02*
X0077393Y0041917D01*
X0077982Y0042516D02*
X0051791Y0042516D01*
X0051445Y0043114D02*
X0078661Y0043114D01*
X0079259Y0043713D02*
X0051100Y0043713D01*
X0050754Y0044311D02*
X0079858Y0044311D01*
X0080456Y0044910D02*
X0050313Y0044910D01*
X0049600Y0045508D02*
X0081055Y0045508D01*
X0081653Y0046107D02*
X0048887Y0046107D01*
X0048174Y0046705D02*
X0082252Y0046705D01*
X0082850Y0047304D02*
X0046739Y0047304D01*
X0045095Y0047902D02*
X0083449Y0047902D01*
X0084047Y0048501D02*
X0035242Y0048501D01*
X0035242Y0049099D02*
X0035981Y0049099D01*
X0035242Y0047902D02*
X0041589Y0047902D01*
X0040702Y0049099D02*
X0084646Y0049099D01*
X0085244Y0049698D02*
X0041644Y0049698D01*
X0042242Y0050296D02*
X0085843Y0050296D01*
X0086441Y0050895D02*
X0042788Y0050895D01*
X0043036Y0051493D02*
X0087040Y0051493D01*
X0087638Y0052092D02*
X0047236Y0052092D01*
X0047834Y0052690D02*
X0088237Y0052690D01*
X0088835Y0053289D02*
X0048148Y0053289D01*
X0048148Y0053887D02*
X0089434Y0053887D01*
X0090032Y0054486D02*
X0048148Y0054486D01*
X0047559Y0055084D02*
X0090631Y0055084D01*
X0091229Y0055683D02*
X0043170Y0055683D01*
X0042922Y0056282D02*
X0091828Y0056282D01*
X0092426Y0056880D02*
X0042566Y0056880D01*
X0041967Y0057479D02*
X0093025Y0057479D01*
X0095722Y0055084D02*
X0206442Y0055084D01*
X0206442Y0054486D02*
X0095123Y0054486D01*
X0094525Y0053887D02*
X0206442Y0053887D01*
X0206442Y0053289D02*
X0093926Y0053289D01*
X0093328Y0052690D02*
X0206442Y0052690D01*
X0206442Y0052092D02*
X0092729Y0052092D01*
X0092131Y0051493D02*
X0206442Y0051493D01*
X0206442Y0050895D02*
X0091532Y0050895D01*
X0090934Y0050296D02*
X0206442Y0050296D01*
X0206442Y0049698D02*
X0090335Y0049698D01*
X0089737Y0049099D02*
X0206442Y0049099D01*
X0206442Y0048501D02*
X0089138Y0048501D01*
X0088540Y0047902D02*
X0206442Y0047902D01*
X0206442Y0047304D02*
X0087941Y0047304D01*
X0087343Y0046705D02*
X0206442Y0046705D01*
X0206442Y0046107D02*
X0086744Y0046107D01*
X0086146Y0045508D02*
X0206442Y0045508D01*
X0206442Y0044910D02*
X0085547Y0044910D01*
X0084949Y0044311D02*
X0206442Y0044311D01*
X0206442Y0043713D02*
X0084350Y0043713D01*
X0083752Y0043114D02*
X0206442Y0043114D01*
X0206442Y0042516D02*
X0083153Y0042516D01*
X0082555Y0041917D02*
X0206442Y0041917D01*
X0206442Y0041319D02*
X0082232Y0041319D01*
X0082388Y0040720D02*
X0206442Y0040720D01*
X0206442Y0040122D02*
X0082388Y0040122D01*
X0082246Y0039523D02*
X0206442Y0039523D01*
X0206442Y0038925D02*
X0081998Y0038925D01*
X0081429Y0038326D02*
X0206442Y0038326D01*
X0212242Y0043120D02*
X0212242Y0049496D01*
X0212396Y0049342D01*
X0214307Y0048550D01*
X0216376Y0048550D01*
X0218287Y0049342D01*
X0219750Y0050804D01*
X0220225Y0051950D01*
X0224094Y0051950D01*
X0225148Y0053004D01*
X0225148Y0054496D01*
X0224094Y0055550D01*
X0220225Y0055550D01*
X0219750Y0056696D01*
X0218287Y0058158D01*
X0216540Y0058882D01*
X0217261Y0059116D01*
X0217962Y0059474D01*
X0218599Y0059936D01*
X0219156Y0060493D01*
X0219618Y0061129D01*
X0219975Y0061831D01*
X0220219Y0062579D01*
X0220342Y0063356D01*
X0220342Y0063450D01*
X0215642Y0063450D01*
X0215642Y0064050D01*
X0220342Y0064050D01*
X0220342Y0064144D01*
X0220219Y0064921D01*
X0219975Y0065669D01*
X0219618Y0066371D01*
X0219156Y0067007D01*
X0218599Y0067564D01*
X0217962Y0068026D01*
X0217261Y0068384D01*
X0216540Y0068618D01*
X0218287Y0069342D01*
X0219750Y0070804D01*
X0220542Y0072716D01*
X0220542Y0074784D01*
X0219750Y0076696D01*
X0218287Y0078158D01*
X0216859Y0078750D01*
X0217522Y0079025D01*
X0226596Y0069950D01*
X0231823Y0069950D01*
X0232312Y0069461D01*
X0233305Y0069050D01*
X0234379Y0069050D01*
X0235042Y0069325D01*
X0235042Y0062268D01*
X0234553Y0061779D01*
X0234142Y0060787D01*
X0234142Y0059713D01*
X0234553Y0058721D01*
X0235312Y0057961D01*
X0236305Y0057550D01*
X0237379Y0057550D01*
X0238371Y0057961D01*
X0239131Y0058721D01*
X0239542Y0059713D01*
X0239542Y0060787D01*
X0239131Y0061779D01*
X0238642Y0062268D01*
X0238642Y0085965D01*
X0237587Y0087020D01*
X0226277Y0098331D01*
X0226277Y0099022D01*
X0225866Y0100014D01*
X0225106Y0100774D01*
X0224114Y0101185D01*
X0223040Y0101185D01*
X0222047Y0100774D01*
X0221288Y0100014D01*
X0221240Y0099898D01*
X0219921Y0101217D01*
X0220542Y0102716D01*
X0220542Y0104784D01*
X0219750Y0106696D01*
X0218287Y0108158D01*
X0216859Y0108750D01*
X0218287Y0109342D01*
X0219750Y0110804D01*
X0220542Y0112716D01*
X0220542Y0114784D01*
X0219750Y0116696D01*
X0218287Y0118158D01*
X0216859Y0118750D01*
X0218287Y0119342D01*
X0219750Y0120804D01*
X0220542Y0122716D01*
X0270763Y0122716D01*
X0271296Y0123250D02*
X0261121Y0113075D01*
X0261121Y0108175D01*
X0260458Y0108450D01*
X0259384Y0108450D01*
X0258392Y0108039D01*
X0258131Y0107779D01*
X0257871Y0108039D01*
X0256879Y0108450D01*
X0255805Y0108450D01*
X0254812Y0108039D01*
X0254053Y0107279D01*
X0253642Y0106287D01*
X0253642Y0105213D01*
X0254053Y0104221D01*
X0254812Y0103461D01*
X0255805Y0103050D01*
X0256496Y0103050D01*
X0263450Y0096096D01*
X0263312Y0096039D01*
X0262823Y0095550D01*
X0262424Y0095550D01*
X0258542Y0099433D01*
X0258542Y0100124D01*
X0258131Y0101116D01*
X0257371Y0101876D01*
X0256379Y0102287D01*
X0255305Y0102287D01*
X0254312Y0101876D01*
X0253553Y0101116D01*
X0253219Y0100309D01*
X0252879Y0100450D01*
X0251805Y0100450D01*
X0250812Y0100039D01*
X0250053Y0099279D01*
X0249642Y0098287D01*
X0249642Y0097213D01*
X0250053Y0096221D01*
X0250542Y0095732D01*
X0250542Y0085504D01*
X0251596Y0084450D01*
X0253142Y0082904D01*
X0253142Y0082213D01*
X0253553Y0081221D01*
X0254312Y0080461D01*
X0255305Y0080050D01*
X0256379Y0080050D01*
X0257371Y0080461D01*
X0258131Y0081221D01*
X0258542Y0082213D01*
X0258542Y0083287D01*
X0258317Y0083829D01*
X0274742Y0067404D01*
X0274742Y0066713D01*
X0275153Y0065721D01*
X0275912Y0064961D01*
X0276905Y0064550D01*
X0277096Y0064550D01*
X0255295Y0042749D01*
X0255159Y0042692D01*
X0254399Y0041933D01*
X0253988Y0040941D01*
X0253988Y0039866D01*
X0254399Y0038874D01*
X0255159Y0038115D01*
X0256151Y0037704D01*
X0257225Y0037704D01*
X0258218Y0038115D01*
X0258977Y0038874D01*
X0259388Y0039866D01*
X0259388Y0040941D01*
X0259151Y0041514D01*
X0295187Y0077550D01*
X0295879Y0077550D01*
X0296871Y0077961D01*
X0297631Y0078721D01*
X0298042Y0079713D01*
X0298042Y0080787D01*
X0297631Y0081779D01*
X0296871Y0082539D01*
X0295879Y0082950D01*
X0294805Y0082950D01*
X0293812Y0082539D01*
X0293053Y0081779D01*
X0292642Y0080787D01*
X0292642Y0080096D01*
X0280142Y0067596D01*
X0280142Y0067787D01*
X0279731Y0068779D01*
X0278971Y0069539D01*
X0277979Y0069950D01*
X0277287Y0069950D01*
X0259676Y0087561D01*
X0260371Y0087849D01*
X0261131Y0088609D01*
X0261521Y0089550D01*
X0267142Y0089550D01*
X0267142Y0088713D01*
X0267209Y0088550D01*
X0266860Y0088550D01*
X0266371Y0089039D01*
X0265379Y0089450D01*
X0264305Y0089450D01*
X0263312Y0089039D01*
X0262553Y0088279D01*
X0262142Y0087287D01*
X0262142Y0086213D01*
X0262553Y0085221D01*
X0263312Y0084461D01*
X0264305Y0084050D01*
X0265379Y0084050D01*
X0266371Y0084461D01*
X0266860Y0084950D01*
X0324087Y0084950D01*
X0325142Y0086004D01*
X0325142Y0086004D01*
X0340687Y0101550D01*
X0341379Y0101550D01*
X0342371Y0101961D01*
X0343131Y0102721D01*
X0343542Y0103713D01*
X0343542Y0104787D01*
X0343143Y0105749D01*
X0343543Y0106713D01*
X0343543Y0107787D01*
X0343132Y0108779D01*
X0342372Y0109539D01*
X0341380Y0109950D01*
X0340306Y0109950D01*
X0339313Y0109539D01*
X0338824Y0109050D01*
X0329566Y0109050D01*
X0329555Y0109039D01*
X0329555Y0109300D01*
X0329378Y0109727D01*
X0329805Y0109550D01*
X0330879Y0109550D01*
X0331871Y0109961D01*
X0332631Y0110721D01*
X0333042Y0111713D01*
X0333042Y0112787D01*
X0332631Y0113779D01*
X0331871Y0114539D01*
X0330879Y0114950D01*
X0330844Y0114950D01*
X0330871Y0114961D01*
X0331631Y0115721D01*
X0332042Y0116713D01*
X0332042Y0117404D01*
X0332671Y0118033D01*
X0333725Y0119088D01*
X0333725Y0121815D01*
X0334214Y0122304D01*
X0334262Y0122421D01*
X0336733Y0119950D01*
X0339323Y0119950D01*
X0339812Y0119461D01*
X0340805Y0119050D01*
X0341879Y0119050D01*
X0342871Y0119461D01*
X0343631Y0120221D01*
X0344042Y0121213D01*
X0344042Y0122287D01*
X0343631Y0123279D01*
X0342871Y0124039D01*
X0341879Y0124450D01*
X0340805Y0124450D01*
X0339812Y0124039D01*
X0339323Y0123550D01*
X0338224Y0123550D01*
X0335095Y0126679D01*
X0334041Y0127733D01*
X0318780Y0127733D01*
X0312496Y0121450D01*
X0311805Y0121450D01*
X0310812Y0121039D01*
X0310205Y0120432D01*
X0276142Y0154496D01*
X0275087Y0155550D01*
X0220225Y0155550D01*
X0219750Y0156696D01*
X0218287Y0158158D01*
X0216376Y0158950D01*
X0214307Y0158950D01*
X0212396Y0158158D01*
X0212242Y0158004D01*
X0212242Y0164380D01*
X0213185Y0162745D01*
X0215671Y0160660D01*
X0218720Y0159550D01*
X0221964Y0159550D01*
X0225013Y0160660D01*
X0227498Y0162745D01*
X0227498Y0162745D01*
X0227498Y0162745D01*
X0229120Y0165555D01*
X0229684Y0168750D01*
X0229120Y0171945D01*
X0227498Y0174755D01*
X0225013Y0176840D01*
X0225013Y0176840D01*
X0224986Y0176850D01*
X0383442Y0176850D01*
X0383442Y0033978D01*
X0383389Y0034000D01*
X0382295Y0034000D01*
X0381284Y0033581D01*
X0380510Y0032808D01*
X0380092Y0031797D01*
X0380092Y0030703D01*
X0380114Y0030650D01*
X0224986Y0030650D01*
X0225013Y0030660D01*
X0227498Y0032745D01*
X0227498Y0032745D01*
X0227498Y0032745D01*
X0229120Y0035555D01*
X0229684Y0038750D01*
X0229120Y0041945D01*
X0227498Y0044755D01*
X0225013Y0046840D01*
X0225013Y0046840D01*
X0221964Y0047950D01*
X0218720Y0047950D01*
X0215671Y0046840D01*
X0213185Y0044755D01*
X0212242Y0043120D01*
X0212242Y0043713D02*
X0212584Y0043713D01*
X0212242Y0044311D02*
X0212929Y0044311D01*
X0213185Y0044755D02*
X0213185Y0044755D01*
X0213185Y0044755D01*
X0213370Y0044910D02*
X0212242Y0044910D01*
X0212242Y0045508D02*
X0214083Y0045508D01*
X0214797Y0046107D02*
X0212242Y0046107D01*
X0212242Y0046705D02*
X0215510Y0046705D01*
X0215671Y0046840D02*
X0215671Y0046840D01*
X0216944Y0047304D02*
X0212242Y0047304D01*
X0212242Y0047902D02*
X0218589Y0047902D01*
X0217702Y0049099D02*
X0261646Y0049099D01*
X0262244Y0049698D02*
X0218644Y0049698D01*
X0219242Y0050296D02*
X0262843Y0050296D01*
X0263441Y0050895D02*
X0219788Y0050895D01*
X0220036Y0051493D02*
X0264040Y0051493D01*
X0264638Y0052092D02*
X0224236Y0052092D01*
X0224834Y0052690D02*
X0265237Y0052690D01*
X0265835Y0053289D02*
X0225148Y0053289D01*
X0225148Y0053887D02*
X0266434Y0053887D01*
X0267032Y0054486D02*
X0225148Y0054486D01*
X0224559Y0055084D02*
X0267631Y0055084D01*
X0268229Y0055683D02*
X0220170Y0055683D01*
X0219922Y0056282D02*
X0268828Y0056282D01*
X0269426Y0056880D02*
X0219566Y0056880D01*
X0218967Y0057479D02*
X0270025Y0057479D01*
X0270623Y0058077D02*
X0238487Y0058077D01*
X0239086Y0058676D02*
X0271222Y0058676D01*
X0271820Y0059274D02*
X0239360Y0059274D01*
X0239542Y0059873D02*
X0272419Y0059873D01*
X0273017Y0060471D02*
X0239542Y0060471D01*
X0239425Y0061070D02*
X0273616Y0061070D01*
X0274214Y0061668D02*
X0239177Y0061668D01*
X0238644Y0062267D02*
X0274813Y0062267D01*
X0275411Y0062865D02*
X0238642Y0062865D01*
X0238642Y0063464D02*
X0276010Y0063464D01*
X0276608Y0064062D02*
X0238642Y0064062D01*
X0238642Y0064661D02*
X0276638Y0064661D01*
X0275614Y0065259D02*
X0238642Y0065259D01*
X0238642Y0065858D02*
X0275096Y0065858D01*
X0274848Y0066456D02*
X0238642Y0066456D01*
X0238642Y0067055D02*
X0274742Y0067055D01*
X0274493Y0067653D02*
X0238642Y0067653D01*
X0238642Y0068252D02*
X0273894Y0068252D01*
X0273296Y0068850D02*
X0238642Y0068850D01*
X0238642Y0069449D02*
X0272697Y0069449D01*
X0272099Y0070047D02*
X0238642Y0070047D01*
X0238642Y0070646D02*
X0271500Y0070646D01*
X0270902Y0071244D02*
X0238642Y0071244D01*
X0238642Y0071843D02*
X0270303Y0071843D01*
X0269705Y0072441D02*
X0238642Y0072441D01*
X0238642Y0073040D02*
X0269106Y0073040D01*
X0268508Y0073638D02*
X0238642Y0073638D01*
X0238642Y0074237D02*
X0267909Y0074237D01*
X0267311Y0074835D02*
X0238642Y0074835D01*
X0238642Y0075434D02*
X0266712Y0075434D01*
X0266114Y0076032D02*
X0238642Y0076032D01*
X0238642Y0076631D02*
X0265515Y0076631D01*
X0264917Y0077229D02*
X0238642Y0077229D01*
X0238642Y0077828D02*
X0264318Y0077828D01*
X0263720Y0078426D02*
X0238642Y0078426D01*
X0238642Y0079025D02*
X0263121Y0079025D01*
X0262523Y0079623D02*
X0238642Y0079623D01*
X0238642Y0080222D02*
X0254890Y0080222D01*
X0253953Y0080820D02*
X0238642Y0080820D01*
X0238642Y0081419D02*
X0253471Y0081419D01*
X0253223Y0082018D02*
X0238642Y0082018D01*
X0238642Y0082616D02*
X0253142Y0082616D01*
X0252832Y0083215D02*
X0238642Y0083215D01*
X0238642Y0083813D02*
X0252233Y0083813D01*
X0251635Y0084412D02*
X0238642Y0084412D01*
X0238642Y0085010D02*
X0251036Y0085010D01*
X0250542Y0085609D02*
X0238642Y0085609D01*
X0238400Y0086207D02*
X0250542Y0086207D01*
X0250542Y0086806D02*
X0237802Y0086806D01*
X0237203Y0087404D02*
X0250542Y0087404D01*
X0250542Y0088003D02*
X0236605Y0088003D01*
X0236006Y0088601D02*
X0250542Y0088601D01*
X0250542Y0089200D02*
X0235408Y0089200D01*
X0234809Y0089798D02*
X0250542Y0089798D01*
X0250542Y0090397D02*
X0234211Y0090397D01*
X0233612Y0090995D02*
X0250542Y0090995D01*
X0250542Y0091594D02*
X0233014Y0091594D01*
X0232415Y0092192D02*
X0250542Y0092192D01*
X0250542Y0092791D02*
X0231817Y0092791D01*
X0231218Y0093389D02*
X0250542Y0093389D01*
X0250542Y0093988D02*
X0230620Y0093988D01*
X0230021Y0094586D02*
X0250542Y0094586D01*
X0250542Y0095185D02*
X0229422Y0095185D01*
X0228824Y0095783D02*
X0250490Y0095783D01*
X0249986Y0096382D02*
X0228225Y0096382D01*
X0227627Y0096980D02*
X0249738Y0096980D01*
X0249642Y0097579D02*
X0227028Y0097579D01*
X0226430Y0098177D02*
X0249642Y0098177D01*
X0249844Y0098776D02*
X0226277Y0098776D01*
X0226131Y0099374D02*
X0250148Y0099374D01*
X0250746Y0099973D02*
X0225883Y0099973D01*
X0225309Y0100571D02*
X0253327Y0100571D01*
X0253606Y0101170D02*
X0224150Y0101170D01*
X0223003Y0101170D02*
X0219968Y0101170D01*
X0220149Y0101768D02*
X0254205Y0101768D01*
X0254710Y0103564D02*
X0220542Y0103564D01*
X0220542Y0104162D02*
X0254111Y0104162D01*
X0253829Y0104761D02*
X0220542Y0104761D01*
X0220304Y0105359D02*
X0253642Y0105359D01*
X0253642Y0105958D02*
X0220056Y0105958D01*
X0219808Y0106556D02*
X0253753Y0106556D01*
X0254001Y0107155D02*
X0219291Y0107155D01*
X0218692Y0107753D02*
X0254527Y0107753D01*
X0255568Y0108352D02*
X0217820Y0108352D01*
X0217343Y0108951D02*
X0261121Y0108951D01*
X0261121Y0109549D02*
X0218495Y0109549D01*
X0219093Y0110148D02*
X0261121Y0110148D01*
X0261121Y0110746D02*
X0219692Y0110746D01*
X0219974Y0111345D02*
X0261121Y0111345D01*
X0261121Y0111943D02*
X0220222Y0111943D01*
X0220470Y0112542D02*
X0261121Y0112542D01*
X0261186Y0113140D02*
X0220542Y0113140D01*
X0220542Y0113739D02*
X0261785Y0113739D01*
X0262383Y0114337D02*
X0220542Y0114337D01*
X0220479Y0114936D02*
X0262982Y0114936D01*
X0263580Y0115534D02*
X0220231Y0115534D01*
X0219983Y0116133D02*
X0264179Y0116133D01*
X0264777Y0116731D02*
X0219715Y0116731D01*
X0219116Y0117330D02*
X0265376Y0117330D01*
X0265974Y0117928D02*
X0218518Y0117928D01*
X0217398Y0118527D02*
X0266573Y0118527D01*
X0267171Y0119125D02*
X0217765Y0119125D01*
X0218669Y0119724D02*
X0267770Y0119724D01*
X0268368Y0120322D02*
X0219268Y0120322D01*
X0219798Y0120921D02*
X0268967Y0120921D01*
X0269565Y0121519D02*
X0220046Y0121519D01*
X0220294Y0122118D02*
X0270164Y0122118D01*
X0271296Y0123250D02*
X0268996Y0125550D01*
X0268305Y0125550D01*
X0267312Y0125961D01*
X0266553Y0126721D01*
X0266142Y0127713D01*
X0266142Y0128787D01*
X0266553Y0129779D01*
X0267312Y0130539D01*
X0268305Y0130950D01*
X0269379Y0130950D01*
X0270371Y0130539D01*
X0271131Y0129779D01*
X0271542Y0128787D01*
X0271542Y0128096D01*
X0274587Y0125050D01*
X0275642Y0123996D01*
X0275642Y0123996D01*
X0279506Y0120131D01*
X0279506Y0105133D01*
X0279995Y0104644D01*
X0280406Y0103652D01*
X0280406Y0102690D01*
X0281337Y0101760D01*
X0284329Y0098767D01*
X0284329Y0131732D01*
X0283840Y0132221D01*
X0283429Y0133213D01*
X0283429Y0134287D01*
X0283840Y0135279D01*
X0284600Y0136039D01*
X0285592Y0136450D01*
X0286666Y0136450D01*
X0287659Y0136039D01*
X0288418Y0135279D01*
X0288829Y0134287D01*
X0288829Y0133213D01*
X0288418Y0132221D01*
X0287929Y0131732D01*
X0287929Y0096294D01*
X0288237Y0095552D01*
X0288237Y0094550D01*
X0310096Y0094550D01*
X0324155Y0108609D01*
X0324155Y0109300D01*
X0324566Y0110292D01*
X0325325Y0111052D01*
X0326318Y0111463D01*
X0327392Y0111463D01*
X0327819Y0111286D01*
X0327642Y0111713D01*
X0327642Y0112404D01*
X0325581Y0114465D01*
X0311111Y0114465D01*
X0310057Y0115519D01*
X0309126Y0116450D01*
X0309096Y0116450D01*
X0273596Y0151950D01*
X0220225Y0151950D01*
X0219750Y0150804D01*
X0218287Y0149342D01*
X0216859Y0148750D01*
X0218287Y0148158D01*
X0219750Y0146696D01*
X0220542Y0144784D01*
X0220542Y0142716D01*
X0219750Y0140804D01*
X0218287Y0139342D01*
X0216859Y0138750D01*
X0218287Y0138158D01*
X0219750Y0136696D01*
X0220542Y0134784D01*
X0220542Y0132716D01*
X0219750Y0130804D01*
X0218287Y0129342D01*
X0216859Y0128750D01*
X0218287Y0128158D01*
X0219750Y0126696D01*
X0220542Y0124784D01*
X0220542Y0122716D01*
X0220542Y0123315D02*
X0271231Y0123315D01*
X0270633Y0123913D02*
X0220542Y0123913D01*
X0220542Y0124512D02*
X0270034Y0124512D01*
X0269436Y0125110D02*
X0220407Y0125110D01*
X0220159Y0125709D02*
X0267921Y0125709D01*
X0266966Y0126307D02*
X0219911Y0126307D01*
X0219540Y0126906D02*
X0266476Y0126906D01*
X0266228Y0127504D02*
X0218941Y0127504D01*
X0218343Y0128103D02*
X0266142Y0128103D01*
X0266142Y0128701D02*
X0216976Y0128701D01*
X0218187Y0129300D02*
X0266354Y0129300D01*
X0266672Y0129898D02*
X0218844Y0129898D01*
X0219443Y0130497D02*
X0267270Y0130497D01*
X0268842Y0128250D02*
X0273842Y0123250D01*
X0262921Y0112329D01*
X0262921Y0105769D01*
X0259970Y0105750D02*
X0264705Y0101015D01*
X0279537Y0101015D01*
X0285537Y0095015D01*
X0286129Y0095607D01*
X0286129Y0133750D01*
X0286037Y0133657D01*
X0283563Y0132891D02*
X0220542Y0132891D01*
X0220542Y0133489D02*
X0283429Y0133489D01*
X0283429Y0134088D02*
X0220542Y0134088D01*
X0220542Y0134687D02*
X0283595Y0134687D01*
X0283846Y0135285D02*
X0220334Y0135285D01*
X0220087Y0135884D02*
X0284444Y0135884D01*
X0287814Y0135884D02*
X0289663Y0135884D01*
X0289064Y0136482D02*
X0219839Y0136482D01*
X0219365Y0137081D02*
X0288466Y0137081D01*
X0287867Y0137679D02*
X0218767Y0137679D01*
X0218000Y0138278D02*
X0287269Y0138278D01*
X0286670Y0138876D02*
X0217163Y0138876D01*
X0218420Y0139475D02*
X0286072Y0139475D01*
X0285473Y0140073D02*
X0219019Y0140073D01*
X0219617Y0140672D02*
X0284875Y0140672D01*
X0284276Y0141270D02*
X0219943Y0141270D01*
X0220191Y0141869D02*
X0283678Y0141869D01*
X0283079Y0142467D02*
X0220439Y0142467D01*
X0220542Y0143066D02*
X0282481Y0143066D01*
X0281882Y0143664D02*
X0220542Y0143664D01*
X0220542Y0144263D02*
X0281284Y0144263D01*
X0280685Y0144861D02*
X0220510Y0144861D01*
X0220262Y0145460D02*
X0280087Y0145460D01*
X0279488Y0146058D02*
X0220014Y0146058D01*
X0219766Y0146657D02*
X0278889Y0146657D01*
X0278291Y0147255D02*
X0219190Y0147255D01*
X0218592Y0147854D02*
X0277692Y0147854D01*
X0277094Y0148452D02*
X0217578Y0148452D01*
X0217585Y0149051D02*
X0276495Y0149051D01*
X0275897Y0149649D02*
X0218595Y0149649D01*
X0219194Y0150248D02*
X0275298Y0150248D01*
X0274700Y0150846D02*
X0219767Y0150846D01*
X0220015Y0151445D02*
X0274101Y0151445D01*
X0274342Y0153750D02*
X0215342Y0153750D01*
X0219016Y0157430D02*
X0383442Y0157430D01*
X0383442Y0158028D02*
X0218417Y0158028D01*
X0217156Y0158627D02*
X0383442Y0158627D01*
X0383442Y0159225D02*
X0212242Y0159225D01*
X0212242Y0158627D02*
X0213528Y0158627D01*
X0212266Y0158028D02*
X0212242Y0158028D01*
X0212242Y0159824D02*
X0217967Y0159824D01*
X0216322Y0160422D02*
X0212242Y0160422D01*
X0212242Y0161021D02*
X0215240Y0161021D01*
X0215671Y0160660D02*
X0215671Y0160660D01*
X0214527Y0161620D02*
X0212242Y0161620D01*
X0212242Y0162218D02*
X0213814Y0162218D01*
X0213185Y0162745D02*
X0213185Y0162745D01*
X0213144Y0162817D02*
X0212242Y0162817D01*
X0212242Y0163415D02*
X0212799Y0163415D01*
X0212453Y0164014D02*
X0212242Y0164014D01*
X0206442Y0164014D02*
X0051230Y0164014D01*
X0051576Y0164612D02*
X0206442Y0164612D01*
X0206442Y0165211D02*
X0051922Y0165211D01*
X0052165Y0165809D02*
X0206442Y0165809D01*
X0206442Y0166408D02*
X0052271Y0166408D01*
X0052376Y0167006D02*
X0206442Y0167006D01*
X0206442Y0167605D02*
X0052482Y0167605D01*
X0052587Y0168203D02*
X0206442Y0168203D01*
X0206442Y0168802D02*
X0052675Y0168802D01*
X0052569Y0169400D02*
X0206442Y0169400D01*
X0206442Y0169999D02*
X0052464Y0169999D01*
X0052358Y0170597D02*
X0206442Y0170597D01*
X0206442Y0171196D02*
X0052252Y0171196D01*
X0052147Y0171794D02*
X0206442Y0171794D01*
X0206442Y0172393D02*
X0051862Y0172393D01*
X0051516Y0172991D02*
X0206442Y0172991D01*
X0206442Y0173590D02*
X0051171Y0173590D01*
X0050825Y0174188D02*
X0206442Y0174188D01*
X0206442Y0174787D02*
X0050460Y0174787D01*
X0049747Y0175385D02*
X0206442Y0175385D01*
X0206442Y0175984D02*
X0049034Y0175984D01*
X0048320Y0176582D02*
X0206442Y0176582D01*
X0203114Y0182650D02*
X0047986Y0182650D01*
X0048013Y0182660D01*
X0050498Y0184745D01*
X0050498Y0184745D01*
X0050498Y0184745D01*
X0052120Y0187555D01*
X0052684Y0190750D01*
X0052120Y0193945D01*
X0050498Y0196755D01*
X0048013Y0198840D01*
X0048013Y0198840D01*
X0044964Y0199950D01*
X0041720Y0199950D01*
X0038671Y0198840D01*
X0036185Y0196755D01*
X0035242Y0195120D01*
X0035242Y0201496D01*
X0035396Y0201342D01*
X0037307Y0200550D01*
X0039376Y0200550D01*
X0041287Y0201342D01*
X0042750Y0202804D01*
X0043225Y0203950D01*
X0047094Y0203950D01*
X0048148Y0205004D01*
X0048148Y0206496D01*
X0047094Y0207550D01*
X0043225Y0207550D01*
X0042750Y0208696D01*
X0041287Y0210158D01*
X0039540Y0210882D01*
X0040261Y0211116D01*
X0040962Y0211474D01*
X0041599Y0211936D01*
X0042156Y0212493D01*
X0057142Y0212493D01*
X0057142Y0212787D02*
X0057142Y0211713D01*
X0057553Y0210721D01*
X0058312Y0209961D01*
X0059305Y0209550D01*
X0060379Y0209550D01*
X0061371Y0209961D01*
X0062131Y0210721D01*
X0062542Y0211713D01*
X0062542Y0212787D01*
X0062131Y0213779D01*
X0061642Y0214268D01*
X0061642Y0237965D01*
X0060587Y0239020D01*
X0049277Y0250331D01*
X0049277Y0251022D01*
X0048866Y0252014D01*
X0048106Y0252774D01*
X0047114Y0253185D01*
X0046040Y0253185D01*
X0045047Y0252774D01*
X0044288Y0252014D01*
X0044240Y0251898D01*
X0042921Y0253217D01*
X0043542Y0254716D01*
X0043542Y0256784D01*
X0042750Y0258696D01*
X0041287Y0260158D01*
X0039859Y0260750D01*
X0041287Y0261342D01*
X0042750Y0262804D01*
X0043542Y0264716D01*
X0043542Y0266784D01*
X0042750Y0268696D01*
X0041287Y0270158D01*
X0039859Y0270750D01*
X0041287Y0271342D01*
X0042750Y0272804D01*
X0043542Y0274716D01*
X0043542Y0276784D01*
X0042750Y0278696D01*
X0041287Y0280158D01*
X0039859Y0280750D01*
X0041287Y0281342D01*
X0042750Y0282804D01*
X0043542Y0284716D01*
X0043542Y0286784D01*
X0042750Y0288696D01*
X0041287Y0290158D01*
X0039859Y0290750D01*
X0041287Y0291342D01*
X0042750Y0292804D01*
X0043542Y0294716D01*
X0043542Y0296784D01*
X0042750Y0298696D01*
X0041287Y0300158D01*
X0039859Y0300750D01*
X0041287Y0301342D01*
X0042750Y0302804D01*
X0043225Y0303950D01*
X0096596Y0303950D01*
X0132096Y0268450D01*
X0132126Y0268450D01*
X0133057Y0267519D01*
X0134111Y0266465D01*
X0148581Y0266465D01*
X0150642Y0264404D01*
X0150642Y0263713D01*
X0150819Y0263286D01*
X0150392Y0263463D01*
X0149318Y0263463D01*
X0148325Y0263052D01*
X0147566Y0262292D01*
X0147155Y0261300D01*
X0147155Y0260609D01*
X0133096Y0246550D01*
X0111237Y0246550D01*
X0111237Y0247552D01*
X0110929Y0248294D01*
X0110929Y0283732D01*
X0111418Y0284221D01*
X0111829Y0285213D01*
X0111829Y0286287D01*
X0111418Y0287279D01*
X0110659Y0288039D01*
X0109666Y0288450D01*
X0108592Y0288450D01*
X0107600Y0288039D01*
X0106840Y0287279D01*
X0106429Y0286287D01*
X0106429Y0285213D01*
X0106840Y0284221D01*
X0107329Y0283732D01*
X0107329Y0250767D01*
X0104337Y0253760D01*
X0103406Y0254690D01*
X0103406Y0255652D01*
X0102995Y0256644D01*
X0102506Y0257133D01*
X0102506Y0272131D01*
X0098642Y0275996D01*
X0097587Y0277050D01*
X0094542Y0280096D01*
X0094542Y0280787D01*
X0094131Y0281779D01*
X0093371Y0282539D01*
X0092379Y0282950D01*
X0091305Y0282950D01*
X0090312Y0282539D01*
X0089553Y0281779D01*
X0089142Y0280787D01*
X0089142Y0279713D01*
X0089553Y0278721D01*
X0090312Y0277961D01*
X0091305Y0277550D01*
X0091996Y0277550D01*
X0094296Y0275250D01*
X0084121Y0265075D01*
X0084121Y0260175D01*
X0083458Y0260450D01*
X0082384Y0260450D01*
X0081392Y0260039D01*
X0081131Y0259779D01*
X0080871Y0260039D01*
X0079879Y0260450D01*
X0078805Y0260450D01*
X0077812Y0260039D01*
X0077053Y0259279D01*
X0076642Y0258287D01*
X0076642Y0257213D01*
X0077053Y0256221D01*
X0077812Y0255461D01*
X0078805Y0255050D01*
X0079496Y0255050D01*
X0086450Y0248096D01*
X0086312Y0248039D01*
X0085823Y0247550D01*
X0085424Y0247550D01*
X0081542Y0251433D01*
X0081542Y0252124D01*
X0081131Y0253116D01*
X0080371Y0253876D01*
X0079379Y0254287D01*
X0078305Y0254287D01*
X0077312Y0253876D01*
X0076553Y0253116D01*
X0076219Y0252309D01*
X0075879Y0252450D01*
X0074805Y0252450D01*
X0073812Y0252039D01*
X0073053Y0251279D01*
X0072642Y0250287D01*
X0072642Y0249213D01*
X0073053Y0248221D01*
X0073542Y0247732D01*
X0073542Y0237504D01*
X0074596Y0236450D01*
X0074596Y0236450D01*
X0076142Y0234904D01*
X0076142Y0234213D01*
X0076553Y0233221D01*
X0077312Y0232461D01*
X0078305Y0232050D01*
X0079379Y0232050D01*
X0080371Y0232461D01*
X0081131Y0233221D01*
X0081542Y0234213D01*
X0081542Y0235287D01*
X0081317Y0235829D01*
X0097742Y0219404D01*
X0097742Y0218713D01*
X0098153Y0217721D01*
X0098912Y0216961D01*
X0099905Y0216550D01*
X0100096Y0216550D01*
X0078295Y0194749D01*
X0078159Y0194692D01*
X0077399Y0193933D01*
X0076988Y0192941D01*
X0076988Y0191866D01*
X0077399Y0190874D01*
X0078159Y0190115D01*
X0079151Y0189704D01*
X0080225Y0189704D01*
X0081218Y0190115D01*
X0081977Y0190874D01*
X0082388Y0191866D01*
X0082388Y0192941D01*
X0082151Y0193514D01*
X0118187Y0229550D01*
X0118879Y0229550D01*
X0119871Y0229961D01*
X0120631Y0230721D01*
X0121042Y0231713D01*
X0121042Y0232787D01*
X0120631Y0233779D01*
X0119871Y0234539D01*
X0118879Y0234950D01*
X0117805Y0234950D01*
X0116812Y0234539D01*
X0116053Y0233779D01*
X0115642Y0232787D01*
X0115642Y0232096D01*
X0103142Y0219596D01*
X0103142Y0219787D01*
X0102731Y0220779D01*
X0101971Y0221539D01*
X0100979Y0221950D01*
X0100287Y0221950D01*
X0082676Y0239561D01*
X0083371Y0239849D01*
X0084131Y0240609D01*
X0084521Y0241550D01*
X0090142Y0241550D01*
X0090142Y0240713D01*
X0090209Y0240550D01*
X0089860Y0240550D01*
X0089371Y0241039D01*
X0088379Y0241450D01*
X0087305Y0241450D01*
X0086312Y0241039D01*
X0085553Y0240279D01*
X0085142Y0239287D01*
X0085142Y0238213D01*
X0085553Y0237221D01*
X0086312Y0236461D01*
X0087305Y0236050D01*
X0088379Y0236050D01*
X0089371Y0236461D01*
X0089860Y0236950D01*
X0147087Y0236950D01*
X0148142Y0238004D01*
X0163687Y0253550D01*
X0164379Y0253550D01*
X0165371Y0253961D01*
X0166131Y0254721D01*
X0166542Y0255713D01*
X0166542Y0256787D01*
X0166143Y0257749D01*
X0166543Y0258713D01*
X0166543Y0259787D01*
X0166132Y0260779D01*
X0165372Y0261539D01*
X0164380Y0261950D01*
X0163306Y0261950D01*
X0162313Y0261539D01*
X0161824Y0261050D01*
X0152566Y0261050D01*
X0152555Y0261039D01*
X0152555Y0261300D01*
X0152378Y0261727D01*
X0152805Y0261550D01*
X0153879Y0261550D01*
X0154871Y0261961D01*
X0155631Y0262721D01*
X0156042Y0263713D01*
X0156042Y0264787D01*
X0155631Y0265779D01*
X0154871Y0266539D01*
X0153879Y0266950D01*
X0153844Y0266950D01*
X0153871Y0266961D01*
X0154631Y0267721D01*
X0155042Y0268713D01*
X0155042Y0269404D01*
X0155671Y0270033D01*
X0156725Y0271088D01*
X0156725Y0273815D01*
X0157214Y0274304D01*
X0157262Y0274421D01*
X0159733Y0271950D01*
X0162323Y0271950D01*
X0162812Y0271461D01*
X0163805Y0271050D01*
X0164879Y0271050D01*
X0165871Y0271461D01*
X0166631Y0272221D01*
X0167042Y0273213D01*
X0167042Y0274287D01*
X0166631Y0275279D01*
X0165871Y0276039D01*
X0164879Y0276450D01*
X0163805Y0276450D01*
X0162812Y0276039D01*
X0162323Y0275550D01*
X0161224Y0275550D01*
X0158095Y0278679D01*
X0157041Y0279733D01*
X0141780Y0279733D01*
X0135496Y0273450D01*
X0134805Y0273450D01*
X0133812Y0273039D01*
X0133205Y0272432D01*
X0099142Y0306496D01*
X0098087Y0307550D01*
X0043225Y0307550D01*
X0042750Y0308696D01*
X0041287Y0310158D01*
X0039376Y0310950D01*
X0037307Y0310950D01*
X0035396Y0310158D01*
X0035242Y0310004D01*
X0035242Y0316380D01*
X0036185Y0314745D01*
X0038671Y0312660D01*
X0041720Y0311550D01*
X0044964Y0311550D01*
X0048013Y0312660D01*
X0050498Y0314745D01*
X0050498Y0314745D01*
X0050498Y0314745D01*
X0052120Y0317555D01*
X0052684Y0320750D01*
X0052120Y0323945D01*
X0050498Y0326755D01*
X0048013Y0328840D01*
X0048013Y0328840D01*
X0047986Y0328850D01*
X0206442Y0328850D01*
X0206442Y0185978D01*
X0206389Y0186000D01*
X0205295Y0186000D01*
X0204284Y0185581D01*
X0203510Y0184808D01*
X0203092Y0183797D01*
X0203092Y0182703D01*
X0203114Y0182650D01*
X0203092Y0183166D02*
X0048616Y0183166D01*
X0048013Y0182660D02*
X0048013Y0182660D01*
X0049329Y0183764D02*
X0203092Y0183764D01*
X0203326Y0184363D02*
X0050043Y0184363D01*
X0050623Y0184961D02*
X0203664Y0184961D01*
X0204263Y0185560D02*
X0050969Y0185560D01*
X0051314Y0186158D02*
X0206442Y0186158D01*
X0206442Y0186757D02*
X0051660Y0186757D01*
X0052005Y0187355D02*
X0206442Y0187355D01*
X0206442Y0187954D02*
X0052191Y0187954D01*
X0052120Y0187555D02*
X0052120Y0187555D01*
X0052296Y0188553D02*
X0206442Y0188553D01*
X0206442Y0189151D02*
X0052402Y0189151D01*
X0052507Y0189750D02*
X0079040Y0189750D01*
X0077925Y0190348D02*
X0052613Y0190348D01*
X0052684Y0190750D02*
X0052684Y0190750D01*
X0052649Y0190947D02*
X0077369Y0190947D01*
X0077121Y0191545D02*
X0052544Y0191545D01*
X0052438Y0192144D02*
X0076988Y0192144D01*
X0076988Y0192742D02*
X0052332Y0192742D01*
X0052227Y0193341D02*
X0077154Y0193341D01*
X0077405Y0193939D02*
X0052121Y0193939D01*
X0052120Y0193945D02*
X0052120Y0193945D01*
X0051778Y0194538D02*
X0078004Y0194538D01*
X0078682Y0195136D02*
X0051433Y0195136D01*
X0051087Y0195735D02*
X0079281Y0195735D01*
X0079879Y0196333D02*
X0050742Y0196333D01*
X0050498Y0196755D02*
X0050498Y0196755D01*
X0050287Y0196932D02*
X0080478Y0196932D01*
X0081076Y0197530D02*
X0049574Y0197530D01*
X0048861Y0198129D02*
X0081675Y0198129D01*
X0082273Y0198727D02*
X0048148Y0198727D01*
X0046679Y0199326D02*
X0082872Y0199326D01*
X0083470Y0199924D02*
X0045035Y0199924D01*
X0041649Y0199924D02*
X0035242Y0199924D01*
X0035242Y0199326D02*
X0040004Y0199326D01*
X0038671Y0198840D02*
X0038671Y0198840D01*
X0038536Y0198727D02*
X0035242Y0198727D01*
X0035242Y0198129D02*
X0037823Y0198129D01*
X0037109Y0197530D02*
X0035242Y0197530D01*
X0035242Y0196932D02*
X0036396Y0196932D01*
X0036185Y0196755D02*
X0036185Y0196755D01*
X0036185Y0196755D01*
X0035942Y0196333D02*
X0035242Y0196333D01*
X0035242Y0195735D02*
X0035596Y0195735D01*
X0035251Y0195136D02*
X0035242Y0195136D01*
X0035242Y0200523D02*
X0084069Y0200523D01*
X0084667Y0201121D02*
X0040755Y0201121D01*
X0041665Y0201720D02*
X0085266Y0201720D01*
X0085865Y0202318D02*
X0042264Y0202318D01*
X0042797Y0202917D02*
X0086463Y0202917D01*
X0087062Y0203515D02*
X0043045Y0203515D01*
X0046348Y0205750D02*
X0038342Y0205750D01*
X0043160Y0207705D02*
X0091251Y0207705D01*
X0090653Y0207106D02*
X0047537Y0207106D01*
X0048136Y0206508D02*
X0090054Y0206508D01*
X0089456Y0205909D02*
X0048148Y0205909D01*
X0048148Y0205311D02*
X0088857Y0205311D01*
X0088259Y0204712D02*
X0047856Y0204712D01*
X0047258Y0204114D02*
X0087660Y0204114D01*
X0090357Y0201720D02*
X0206442Y0201720D01*
X0206442Y0202318D02*
X0090956Y0202318D01*
X0091554Y0202917D02*
X0206442Y0202917D01*
X0206442Y0203515D02*
X0092153Y0203515D01*
X0092751Y0204114D02*
X0206442Y0204114D01*
X0206442Y0204712D02*
X0093350Y0204712D01*
X0093948Y0205311D02*
X0206442Y0205311D01*
X0206442Y0205909D02*
X0094547Y0205909D01*
X0095145Y0206508D02*
X0206442Y0206508D01*
X0206442Y0207106D02*
X0095744Y0207106D01*
X0096342Y0207705D02*
X0206442Y0207705D01*
X0206442Y0208303D02*
X0096941Y0208303D01*
X0097539Y0208902D02*
X0206442Y0208902D01*
X0206442Y0209500D02*
X0098138Y0209500D01*
X0098736Y0210099D02*
X0206442Y0210099D01*
X0206442Y0210697D02*
X0099335Y0210697D01*
X0099933Y0211296D02*
X0206442Y0211296D01*
X0206442Y0211894D02*
X0100532Y0211894D01*
X0101130Y0212493D02*
X0206442Y0212493D01*
X0206442Y0213091D02*
X0101729Y0213091D01*
X0102327Y0213690D02*
X0206442Y0213690D01*
X0206442Y0214289D02*
X0102926Y0214289D01*
X0103524Y0214887D02*
X0206442Y0214887D01*
X0206442Y0215486D02*
X0104123Y0215486D01*
X0104721Y0216084D02*
X0206442Y0216084D01*
X0206442Y0216683D02*
X0105320Y0216683D01*
X0105918Y0217281D02*
X0206442Y0217281D01*
X0206442Y0217880D02*
X0106517Y0217880D01*
X0107115Y0218478D02*
X0206442Y0218478D01*
X0206442Y0219077D02*
X0107714Y0219077D01*
X0108312Y0219675D02*
X0206442Y0219675D01*
X0206442Y0220274D02*
X0108911Y0220274D01*
X0109510Y0220872D02*
X0206442Y0220872D01*
X0206442Y0221471D02*
X0110108Y0221471D01*
X0110707Y0222069D02*
X0206442Y0222069D01*
X0206442Y0222668D02*
X0111305Y0222668D01*
X0111904Y0223266D02*
X0206442Y0223266D01*
X0206442Y0223865D02*
X0112502Y0223865D01*
X0113101Y0224463D02*
X0206442Y0224463D01*
X0206442Y0225062D02*
X0113699Y0225062D01*
X0114298Y0225660D02*
X0206442Y0225660D01*
X0206442Y0226259D02*
X0114896Y0226259D01*
X0115495Y0226857D02*
X0206442Y0226857D01*
X0206442Y0227456D02*
X0116093Y0227456D01*
X0116692Y0228054D02*
X0206442Y0228054D01*
X0206442Y0228653D02*
X0117290Y0228653D01*
X0117889Y0229251D02*
X0206442Y0229251D01*
X0206442Y0229850D02*
X0119603Y0229850D01*
X0120358Y0230448D02*
X0206442Y0230448D01*
X0206442Y0231047D02*
X0120766Y0231047D01*
X0121014Y0231645D02*
X0206442Y0231645D01*
X0206442Y0232244D02*
X0121042Y0232244D01*
X0121019Y0232842D02*
X0206442Y0232842D01*
X0206442Y0233441D02*
X0120771Y0233441D01*
X0120371Y0234039D02*
X0206442Y0234039D01*
X0206442Y0234638D02*
X0119632Y0234638D01*
X0117051Y0234638D02*
X0087599Y0234638D01*
X0087001Y0235236D02*
X0206442Y0235236D01*
X0206442Y0235835D02*
X0086402Y0235835D01*
X0086379Y0236433D02*
X0085804Y0236433D01*
X0085741Y0237032D02*
X0085205Y0237032D01*
X0085383Y0237630D02*
X0084607Y0237630D01*
X0085142Y0238229D02*
X0084008Y0238229D01*
X0083410Y0238827D02*
X0085142Y0238827D01*
X0085199Y0239426D02*
X0082811Y0239426D01*
X0083546Y0240024D02*
X0085447Y0240024D01*
X0085896Y0240623D02*
X0084137Y0240623D01*
X0084385Y0241222D02*
X0086753Y0241222D01*
X0088930Y0241222D02*
X0090142Y0241222D01*
X0090179Y0240623D02*
X0089787Y0240623D01*
X0087842Y0238750D02*
X0146342Y0238750D01*
X0163842Y0256250D01*
X0166542Y0256184D02*
X0206442Y0256184D01*
X0206442Y0255586D02*
X0166489Y0255586D01*
X0166241Y0254987D02*
X0206442Y0254987D01*
X0206442Y0254389D02*
X0165799Y0254389D01*
X0164959Y0253790D02*
X0206442Y0253790D01*
X0206442Y0253192D02*
X0163329Y0253192D01*
X0162731Y0252593D02*
X0206442Y0252593D01*
X0206442Y0251995D02*
X0162132Y0251995D01*
X0161534Y0251396D02*
X0206442Y0251396D01*
X0206442Y0250798D02*
X0160935Y0250798D01*
X0160337Y0250199D02*
X0206442Y0250199D01*
X0206442Y0249601D02*
X0159738Y0249601D01*
X0159140Y0249002D02*
X0206442Y0249002D01*
X0206442Y0248404D02*
X0158541Y0248404D01*
X0157943Y0247805D02*
X0206442Y0247805D01*
X0206442Y0247207D02*
X0157344Y0247207D01*
X0156746Y0246608D02*
X0206442Y0246608D01*
X0206442Y0246010D02*
X0156147Y0246010D01*
X0155548Y0245411D02*
X0206442Y0245411D01*
X0206442Y0244813D02*
X0154950Y0244813D01*
X0154351Y0244214D02*
X0206442Y0244214D01*
X0206442Y0243616D02*
X0153753Y0243616D01*
X0153154Y0243017D02*
X0206442Y0243017D01*
X0206442Y0242419D02*
X0152556Y0242419D01*
X0151957Y0241820D02*
X0206442Y0241820D01*
X0206442Y0241222D02*
X0151359Y0241222D01*
X0150760Y0240623D02*
X0206442Y0240623D01*
X0206442Y0240024D02*
X0150162Y0240024D01*
X0149563Y0239426D02*
X0206442Y0239426D01*
X0206442Y0238827D02*
X0148965Y0238827D01*
X0148366Y0238229D02*
X0206442Y0238229D01*
X0206442Y0237630D02*
X0147768Y0237630D01*
X0147169Y0237032D02*
X0206442Y0237032D01*
X0206442Y0236433D02*
X0089305Y0236433D01*
X0088198Y0234039D02*
X0116313Y0234039D01*
X0115913Y0233441D02*
X0088797Y0233441D01*
X0089395Y0232842D02*
X0115665Y0232842D01*
X0115642Y0232244D02*
X0089994Y0232244D01*
X0090592Y0231645D02*
X0115192Y0231645D01*
X0114593Y0231047D02*
X0091191Y0231047D01*
X0091789Y0230448D02*
X0113995Y0230448D01*
X0113396Y0229850D02*
X0092388Y0229850D01*
X0092986Y0229251D02*
X0112798Y0229251D01*
X0112199Y0228653D02*
X0093585Y0228653D01*
X0094183Y0228054D02*
X0111601Y0228054D01*
X0111002Y0227456D02*
X0094782Y0227456D01*
X0095380Y0226857D02*
X0110403Y0226857D01*
X0109805Y0226259D02*
X0095979Y0226259D01*
X0096577Y0225660D02*
X0109206Y0225660D01*
X0108608Y0225062D02*
X0097176Y0225062D01*
X0097774Y0224463D02*
X0108009Y0224463D01*
X0107411Y0223865D02*
X0098373Y0223865D01*
X0098971Y0223266D02*
X0106812Y0223266D01*
X0106214Y0222668D02*
X0099570Y0222668D01*
X0100168Y0222069D02*
X0105615Y0222069D01*
X0105017Y0221471D02*
X0102040Y0221471D01*
X0102638Y0220872D02*
X0104418Y0220872D01*
X0103820Y0220274D02*
X0102940Y0220274D01*
X0103142Y0219675D02*
X0103221Y0219675D01*
X0100442Y0219250D02*
X0078342Y0241350D01*
X0078342Y0246338D01*
X0075342Y0249750D02*
X0075342Y0238250D01*
X0078842Y0234750D01*
X0080753Y0232842D02*
X0084304Y0232842D01*
X0084902Y0232244D02*
X0079847Y0232244D01*
X0081222Y0233441D02*
X0083705Y0233441D01*
X0083107Y0234039D02*
X0081470Y0234039D01*
X0081542Y0234638D02*
X0082508Y0234638D01*
X0081910Y0235236D02*
X0081542Y0235236D01*
X0077837Y0232244D02*
X0061642Y0232244D01*
X0061642Y0232842D02*
X0076931Y0232842D01*
X0076462Y0233441D02*
X0061642Y0233441D01*
X0061642Y0234039D02*
X0076214Y0234039D01*
X0076142Y0234638D02*
X0061642Y0234638D01*
X0061642Y0235236D02*
X0075810Y0235236D01*
X0075211Y0235835D02*
X0061642Y0235835D01*
X0061642Y0236433D02*
X0074613Y0236433D01*
X0074014Y0237032D02*
X0061642Y0237032D01*
X0061642Y0237630D02*
X0073542Y0237630D01*
X0073542Y0238229D02*
X0061378Y0238229D01*
X0060780Y0238827D02*
X0073542Y0238827D01*
X0073542Y0239426D02*
X0060181Y0239426D01*
X0059583Y0240024D02*
X0073542Y0240024D01*
X0073542Y0240623D02*
X0058984Y0240623D01*
X0058386Y0241222D02*
X0073542Y0241222D01*
X0073542Y0241820D02*
X0057787Y0241820D01*
X0057189Y0242419D02*
X0073542Y0242419D01*
X0073542Y0243017D02*
X0056590Y0243017D01*
X0055992Y0243616D02*
X0073542Y0243616D01*
X0073542Y0244214D02*
X0055393Y0244214D01*
X0054795Y0244813D02*
X0073542Y0244813D01*
X0073542Y0245411D02*
X0054196Y0245411D01*
X0053598Y0246010D02*
X0073542Y0246010D01*
X0073542Y0246608D02*
X0052999Y0246608D01*
X0052401Y0247207D02*
X0073542Y0247207D01*
X0073468Y0247805D02*
X0051802Y0247805D01*
X0051204Y0248404D02*
X0072977Y0248404D01*
X0072729Y0249002D02*
X0050605Y0249002D01*
X0050007Y0249601D02*
X0072642Y0249601D01*
X0072642Y0250199D02*
X0049408Y0250199D01*
X0049277Y0250798D02*
X0072853Y0250798D01*
X0073170Y0251396D02*
X0049122Y0251396D01*
X0048874Y0251995D02*
X0073768Y0251995D01*
X0076336Y0252593D02*
X0048287Y0252593D01*
X0046577Y0250485D02*
X0059842Y0237220D01*
X0059842Y0212250D01*
X0062369Y0211296D02*
X0094842Y0211296D01*
X0094244Y0210697D02*
X0062108Y0210697D01*
X0061509Y0210099D02*
X0093645Y0210099D01*
X0093047Y0209500D02*
X0041945Y0209500D01*
X0042544Y0208902D02*
X0092448Y0208902D01*
X0091850Y0208303D02*
X0042913Y0208303D01*
X0041347Y0210099D02*
X0058174Y0210099D01*
X0057576Y0210697D02*
X0039986Y0210697D01*
X0040614Y0211296D02*
X0057315Y0211296D01*
X0057142Y0211894D02*
X0041542Y0211894D01*
X0042156Y0212493D02*
X0042618Y0213129D01*
X0042975Y0213831D01*
X0043219Y0214579D01*
X0043342Y0215356D01*
X0043342Y0215450D01*
X0038642Y0215450D01*
X0038642Y0216050D01*
X0043342Y0216050D01*
X0043342Y0216144D01*
X0043219Y0216921D01*
X0042975Y0217669D01*
X0042618Y0218371D01*
X0042156Y0219007D01*
X0041599Y0219564D01*
X0040962Y0220026D01*
X0040261Y0220384D01*
X0039540Y0220618D01*
X0041287Y0221342D01*
X0042750Y0222804D01*
X0043542Y0224716D01*
X0043542Y0226784D01*
X0042750Y0228696D01*
X0041287Y0230158D01*
X0039859Y0230750D01*
X0040522Y0231025D01*
X0048542Y0223004D01*
X0049596Y0221950D01*
X0054823Y0221950D01*
X0055312Y0221461D01*
X0056305Y0221050D01*
X0057379Y0221050D01*
X0058042Y0221325D01*
X0058042Y0214268D01*
X0057553Y0213779D01*
X0057142Y0212787D01*
X0057268Y0213091D02*
X0042591Y0213091D01*
X0042904Y0213690D02*
X0057516Y0213690D01*
X0058042Y0214289D02*
X0043124Y0214289D01*
X0043267Y0214887D02*
X0058042Y0214887D01*
X0058042Y0215486D02*
X0038642Y0215486D01*
X0043342Y0216084D02*
X0058042Y0216084D01*
X0058042Y0216683D02*
X0043256Y0216683D01*
X0043102Y0217281D02*
X0058042Y0217281D01*
X0058042Y0217880D02*
X0042868Y0217880D01*
X0042540Y0218478D02*
X0058042Y0218478D01*
X0058042Y0219077D02*
X0042086Y0219077D01*
X0041446Y0219675D02*
X0058042Y0219675D01*
X0058042Y0220274D02*
X0040477Y0220274D01*
X0040154Y0220872D02*
X0058042Y0220872D01*
X0055303Y0221471D02*
X0041416Y0221471D01*
X0042015Y0222069D02*
X0049477Y0222069D01*
X0048879Y0222668D02*
X0042613Y0222668D01*
X0042941Y0223266D02*
X0048280Y0223266D01*
X0048542Y0223004D02*
X0048542Y0223004D01*
X0047682Y0223865D02*
X0043189Y0223865D01*
X0043437Y0224463D02*
X0047083Y0224463D01*
X0046485Y0225062D02*
X0043542Y0225062D01*
X0043542Y0225660D02*
X0045886Y0225660D01*
X0045287Y0226259D02*
X0043542Y0226259D01*
X0043512Y0226857D02*
X0044689Y0226857D01*
X0044090Y0227456D02*
X0043264Y0227456D01*
X0043492Y0228054D02*
X0043016Y0228054D01*
X0042893Y0228653D02*
X0042768Y0228653D01*
X0042295Y0229251D02*
X0042194Y0229251D01*
X0041696Y0229850D02*
X0041596Y0229850D01*
X0041098Y0230448D02*
X0040587Y0230448D01*
X0038342Y0235750D02*
X0050342Y0223750D01*
X0056842Y0223750D01*
X0061642Y0223865D02*
X0093282Y0223865D01*
X0093880Y0223266D02*
X0061642Y0223266D01*
X0061642Y0222668D02*
X0094479Y0222668D01*
X0095077Y0222069D02*
X0061642Y0222069D01*
X0061642Y0221471D02*
X0095676Y0221471D01*
X0096274Y0220872D02*
X0061642Y0220872D01*
X0061642Y0220274D02*
X0096873Y0220274D01*
X0097471Y0219675D02*
X0061642Y0219675D01*
X0061642Y0219077D02*
X0097742Y0219077D01*
X0097839Y0218478D02*
X0061642Y0218478D01*
X0061642Y0217880D02*
X0098087Y0217880D01*
X0098592Y0217281D02*
X0061642Y0217281D01*
X0061642Y0216683D02*
X0099585Y0216683D01*
X0099630Y0216084D02*
X0061642Y0216084D01*
X0061642Y0215486D02*
X0099032Y0215486D01*
X0098433Y0214887D02*
X0061642Y0214887D01*
X0061642Y0214289D02*
X0097835Y0214289D01*
X0097236Y0213690D02*
X0062168Y0213690D01*
X0062416Y0213091D02*
X0096638Y0213091D01*
X0096039Y0212493D02*
X0062542Y0212493D01*
X0062542Y0211894D02*
X0095441Y0211894D01*
X0089759Y0201121D02*
X0206442Y0201121D01*
X0206442Y0200523D02*
X0089160Y0200523D01*
X0088562Y0199924D02*
X0206442Y0199924D01*
X0206442Y0199326D02*
X0087963Y0199326D01*
X0087365Y0198727D02*
X0206442Y0198727D01*
X0206442Y0198129D02*
X0086766Y0198129D01*
X0086168Y0197530D02*
X0206442Y0197530D01*
X0206442Y0196932D02*
X0085569Y0196932D01*
X0084971Y0196333D02*
X0206442Y0196333D01*
X0206442Y0195735D02*
X0084372Y0195735D01*
X0083774Y0195136D02*
X0206442Y0195136D01*
X0206442Y0194538D02*
X0083175Y0194538D01*
X0082577Y0193939D02*
X0206442Y0193939D01*
X0206442Y0193341D02*
X0082223Y0193341D01*
X0082388Y0192742D02*
X0206442Y0192742D01*
X0206442Y0192144D02*
X0082388Y0192144D01*
X0082255Y0191545D02*
X0206442Y0191545D01*
X0206442Y0190947D02*
X0082007Y0190947D01*
X0081451Y0190348D02*
X0206442Y0190348D01*
X0206442Y0189750D02*
X0080336Y0189750D01*
X0079688Y0192404D02*
X0079688Y0193596D01*
X0118342Y0232250D01*
X0111237Y0246608D02*
X0133154Y0246608D01*
X0133753Y0247207D02*
X0126757Y0247207D01*
X0126379Y0247050D02*
X0127371Y0247461D01*
X0128131Y0248221D01*
X0128542Y0249213D01*
X0128542Y0249904D01*
X0129087Y0250450D01*
X0130142Y0251504D01*
X0130142Y0263732D01*
X0130631Y0264221D01*
X0131042Y0265213D01*
X0131042Y0266287D01*
X0130631Y0267279D01*
X0129871Y0268039D01*
X0128879Y0268450D01*
X0127805Y0268450D01*
X0126812Y0268039D01*
X0126053Y0267279D01*
X0125642Y0266287D01*
X0125642Y0265213D01*
X0126053Y0264221D01*
X0126542Y0263732D01*
X0126542Y0252996D01*
X0126542Y0252996D01*
X0126542Y0253287D01*
X0126131Y0254279D01*
X0125642Y0254768D01*
X0125642Y0263496D01*
X0123542Y0265596D01*
X0123542Y0266287D01*
X0123131Y0267279D01*
X0122371Y0268039D01*
X0121379Y0268450D01*
X0120305Y0268450D01*
X0119312Y0268039D01*
X0118553Y0267279D01*
X0118142Y0266287D01*
X0118142Y0265213D01*
X0118553Y0264221D01*
X0119312Y0263461D01*
X0120305Y0263050D01*
X0120996Y0263050D01*
X0122042Y0262004D01*
X0122042Y0254768D01*
X0121553Y0254279D01*
X0121142Y0253287D01*
X0121142Y0252213D01*
X0121553Y0251221D01*
X0122312Y0250461D01*
X0123142Y0250117D01*
X0123142Y0249213D01*
X0123553Y0248221D01*
X0124312Y0247461D01*
X0125305Y0247050D01*
X0126379Y0247050D01*
X0124927Y0247207D02*
X0111237Y0247207D01*
X0111131Y0247805D02*
X0123968Y0247805D01*
X0123477Y0248404D02*
X0110929Y0248404D01*
X0110929Y0249002D02*
X0123229Y0249002D01*
X0123142Y0249601D02*
X0110929Y0249601D01*
X0110929Y0250199D02*
X0122945Y0250199D01*
X0121976Y0250798D02*
X0110929Y0250798D01*
X0110929Y0251396D02*
X0121480Y0251396D01*
X0121232Y0251995D02*
X0110929Y0251995D01*
X0110929Y0252593D02*
X0121142Y0252593D01*
X0121142Y0253192D02*
X0110929Y0253192D01*
X0110929Y0253790D02*
X0121350Y0253790D01*
X0121662Y0254389D02*
X0110929Y0254389D01*
X0110929Y0254987D02*
X0122042Y0254987D01*
X0122042Y0255586D02*
X0110929Y0255586D01*
X0110929Y0256184D02*
X0122042Y0256184D01*
X0122042Y0256783D02*
X0110929Y0256783D01*
X0110929Y0257381D02*
X0122042Y0257381D01*
X0122042Y0257980D02*
X0110929Y0257980D01*
X0110929Y0258578D02*
X0122042Y0258578D01*
X0122042Y0259177D02*
X0110929Y0259177D01*
X0110929Y0259775D02*
X0122042Y0259775D01*
X0122042Y0260374D02*
X0110929Y0260374D01*
X0110929Y0260972D02*
X0122042Y0260972D01*
X0122042Y0261571D02*
X0110929Y0261571D01*
X0110929Y0262169D02*
X0121877Y0262169D01*
X0121278Y0262768D02*
X0110929Y0262768D01*
X0110929Y0263366D02*
X0119541Y0263366D01*
X0118808Y0263965D02*
X0110929Y0263965D01*
X0110929Y0264563D02*
X0118411Y0264563D01*
X0118163Y0265162D02*
X0110929Y0265162D01*
X0110929Y0265760D02*
X0118142Y0265760D01*
X0118172Y0266359D02*
X0110929Y0266359D01*
X0110929Y0266958D02*
X0118420Y0266958D01*
X0118829Y0267556D02*
X0110929Y0267556D01*
X0110929Y0268155D02*
X0119591Y0268155D01*
X0122092Y0268155D02*
X0127091Y0268155D01*
X0126329Y0267556D02*
X0122854Y0267556D01*
X0123264Y0266958D02*
X0125920Y0266958D01*
X0125672Y0266359D02*
X0123512Y0266359D01*
X0123542Y0265760D02*
X0125642Y0265760D01*
X0125663Y0265162D02*
X0123975Y0265162D01*
X0124574Y0264563D02*
X0125911Y0264563D01*
X0126308Y0263965D02*
X0125172Y0263965D01*
X0125642Y0263366D02*
X0126542Y0263366D01*
X0126542Y0262768D02*
X0125642Y0262768D01*
X0125642Y0262169D02*
X0126542Y0262169D01*
X0126542Y0261571D02*
X0125642Y0261571D01*
X0125642Y0260972D02*
X0126542Y0260972D01*
X0126542Y0260374D02*
X0125642Y0260374D01*
X0125642Y0259775D02*
X0126542Y0259775D01*
X0126542Y0259177D02*
X0125642Y0259177D01*
X0125642Y0258578D02*
X0126542Y0258578D01*
X0126542Y0257980D02*
X0125642Y0257980D01*
X0125642Y0257381D02*
X0126542Y0257381D01*
X0126542Y0256783D02*
X0125642Y0256783D01*
X0125642Y0256184D02*
X0126542Y0256184D01*
X0126542Y0255586D02*
X0125642Y0255586D01*
X0125642Y0254987D02*
X0126542Y0254987D01*
X0126542Y0254389D02*
X0126021Y0254389D01*
X0126333Y0253790D02*
X0126542Y0253790D01*
X0126542Y0253192D02*
X0126542Y0253192D01*
X0128342Y0252250D02*
X0125842Y0249750D01*
X0127715Y0247805D02*
X0134351Y0247805D01*
X0134950Y0248404D02*
X0128207Y0248404D01*
X0128454Y0249002D02*
X0135548Y0249002D01*
X0136147Y0249601D02*
X0128542Y0249601D01*
X0128837Y0250199D02*
X0136745Y0250199D01*
X0137344Y0250798D02*
X0129435Y0250798D01*
X0130034Y0251396D02*
X0137942Y0251396D01*
X0138541Y0251995D02*
X0130142Y0251995D01*
X0130142Y0252593D02*
X0139139Y0252593D01*
X0139738Y0253192D02*
X0130142Y0253192D01*
X0130142Y0253790D02*
X0140336Y0253790D01*
X0140935Y0254389D02*
X0130142Y0254389D01*
X0130142Y0254987D02*
X0141534Y0254987D01*
X0142132Y0255586D02*
X0130142Y0255586D01*
X0130142Y0256184D02*
X0142731Y0256184D01*
X0143329Y0256783D02*
X0130142Y0256783D01*
X0130142Y0257381D02*
X0143928Y0257381D01*
X0144526Y0257980D02*
X0130142Y0257980D01*
X0130142Y0258578D02*
X0145125Y0258578D01*
X0145723Y0259177D02*
X0130142Y0259177D01*
X0130142Y0259775D02*
X0146322Y0259775D01*
X0146920Y0260374D02*
X0130142Y0260374D01*
X0130142Y0260972D02*
X0147155Y0260972D01*
X0147267Y0261571D02*
X0130142Y0261571D01*
X0130142Y0262169D02*
X0147515Y0262169D01*
X0148041Y0262768D02*
X0130142Y0262768D01*
X0130142Y0263366D02*
X0149085Y0263366D01*
X0150625Y0263366D02*
X0150785Y0263366D01*
X0150642Y0263965D02*
X0130375Y0263965D01*
X0130773Y0264563D02*
X0150483Y0264563D01*
X0149884Y0265162D02*
X0131021Y0265162D01*
X0131042Y0265760D02*
X0149286Y0265760D01*
X0148687Y0266359D02*
X0131012Y0266359D01*
X0130764Y0266958D02*
X0133619Y0266958D01*
X0133020Y0267556D02*
X0130354Y0267556D01*
X0129592Y0268155D02*
X0132422Y0268155D01*
X0131793Y0268753D02*
X0110929Y0268753D01*
X0110929Y0269352D02*
X0131195Y0269352D01*
X0130596Y0269950D02*
X0110929Y0269950D01*
X0110929Y0270549D02*
X0129998Y0270549D01*
X0129399Y0271147D02*
X0110929Y0271147D01*
X0110929Y0271746D02*
X0128801Y0271746D01*
X0128202Y0272344D02*
X0110929Y0272344D01*
X0110929Y0272943D02*
X0127604Y0272943D01*
X0127005Y0273541D02*
X0110929Y0273541D01*
X0110929Y0274140D02*
X0126407Y0274140D01*
X0125808Y0274738D02*
X0110929Y0274738D01*
X0110929Y0275337D02*
X0125210Y0275337D01*
X0124611Y0275935D02*
X0110929Y0275935D01*
X0110929Y0276534D02*
X0124013Y0276534D01*
X0123414Y0277132D02*
X0110929Y0277132D01*
X0110929Y0277731D02*
X0122816Y0277731D01*
X0122217Y0278329D02*
X0110929Y0278329D01*
X0110929Y0278928D02*
X0121618Y0278928D01*
X0121020Y0279526D02*
X0110929Y0279526D01*
X0110929Y0280125D02*
X0120421Y0280125D01*
X0119823Y0280723D02*
X0110929Y0280723D01*
X0110929Y0281322D02*
X0119224Y0281322D01*
X0118626Y0281920D02*
X0110929Y0281920D01*
X0110929Y0282519D02*
X0118027Y0282519D01*
X0117429Y0283117D02*
X0110929Y0283117D01*
X0110929Y0283716D02*
X0116830Y0283716D01*
X0116232Y0284314D02*
X0111457Y0284314D01*
X0111705Y0284913D02*
X0115633Y0284913D01*
X0115035Y0285511D02*
X0111829Y0285511D01*
X0111829Y0286110D02*
X0114436Y0286110D01*
X0113838Y0286708D02*
X0111655Y0286708D01*
X0111391Y0287307D02*
X0113239Y0287307D01*
X0112641Y0287905D02*
X0110792Y0287905D01*
X0111444Y0289102D02*
X0042343Y0289102D01*
X0042830Y0288504D02*
X0112042Y0288504D01*
X0110845Y0289701D02*
X0041745Y0289701D01*
X0040947Y0290299D02*
X0110247Y0290299D01*
X0109648Y0290898D02*
X0040216Y0290898D01*
X0041442Y0291496D02*
X0109050Y0291496D01*
X0108451Y0292095D02*
X0042041Y0292095D01*
X0042639Y0292693D02*
X0107853Y0292693D01*
X0107254Y0293292D02*
X0042952Y0293292D01*
X0043200Y0293891D02*
X0106656Y0293891D01*
X0106057Y0294489D02*
X0043448Y0294489D01*
X0043542Y0295088D02*
X0105459Y0295088D01*
X0104860Y0295686D02*
X0043542Y0295686D01*
X0043542Y0296285D02*
X0104262Y0296285D01*
X0103663Y0296883D02*
X0043501Y0296883D01*
X0043253Y0297482D02*
X0103065Y0297482D01*
X0102466Y0298080D02*
X0043005Y0298080D01*
X0042757Y0298679D02*
X0101868Y0298679D01*
X0101269Y0299277D02*
X0042169Y0299277D01*
X0041570Y0299876D02*
X0100671Y0299876D01*
X0100072Y0300474D02*
X0040525Y0300474D01*
X0040638Y0301073D02*
X0099474Y0301073D01*
X0098875Y0301671D02*
X0041617Y0301671D01*
X0042215Y0302270D02*
X0098277Y0302270D01*
X0097678Y0302868D02*
X0042777Y0302868D01*
X0043024Y0303467D02*
X0097080Y0303467D01*
X0097342Y0305750D02*
X0038342Y0305750D01*
X0041994Y0309452D02*
X0206442Y0309452D01*
X0206442Y0310050D02*
X0041395Y0310050D01*
X0040103Y0310649D02*
X0206442Y0310649D01*
X0206442Y0311247D02*
X0035242Y0311247D01*
X0035242Y0310649D02*
X0036580Y0310649D01*
X0035288Y0310050D02*
X0035242Y0310050D01*
X0035242Y0311846D02*
X0040907Y0311846D01*
X0039262Y0312444D02*
X0035242Y0312444D01*
X0035242Y0313043D02*
X0038214Y0313043D01*
X0038671Y0312660D02*
X0038671Y0312660D01*
X0037501Y0313641D02*
X0035242Y0313641D01*
X0035242Y0314240D02*
X0036788Y0314240D01*
X0036185Y0314745D02*
X0036185Y0314745D01*
X0036132Y0314838D02*
X0035242Y0314838D01*
X0035242Y0315437D02*
X0035786Y0315437D01*
X0035441Y0316035D02*
X0035242Y0316035D01*
X0042592Y0308853D02*
X0206442Y0308853D01*
X0206442Y0308255D02*
X0042933Y0308255D01*
X0043181Y0307656D02*
X0206442Y0307656D01*
X0206442Y0307058D02*
X0098580Y0307058D01*
X0099178Y0306459D02*
X0206442Y0306459D01*
X0206442Y0305861D02*
X0099777Y0305861D01*
X0100375Y0305262D02*
X0206442Y0305262D01*
X0206442Y0304664D02*
X0100974Y0304664D01*
X0101572Y0304065D02*
X0206442Y0304065D01*
X0206442Y0303467D02*
X0102171Y0303467D01*
X0102769Y0302868D02*
X0206442Y0302868D01*
X0206442Y0302270D02*
X0103368Y0302270D01*
X0103966Y0301671D02*
X0206442Y0301671D01*
X0206442Y0301073D02*
X0104565Y0301073D01*
X0105163Y0300474D02*
X0206442Y0300474D01*
X0206442Y0299876D02*
X0105762Y0299876D01*
X0106360Y0299277D02*
X0206442Y0299277D01*
X0206442Y0298679D02*
X0106959Y0298679D01*
X0107557Y0298080D02*
X0206442Y0298080D01*
X0206442Y0297482D02*
X0108156Y0297482D01*
X0108754Y0296883D02*
X0206442Y0296883D01*
X0206442Y0296285D02*
X0109353Y0296285D01*
X0109951Y0295686D02*
X0206442Y0295686D01*
X0206442Y0295088D02*
X0110550Y0295088D01*
X0111148Y0294489D02*
X0206442Y0294489D01*
X0206442Y0293891D02*
X0111747Y0293891D01*
X0112345Y0293292D02*
X0206442Y0293292D01*
X0206442Y0292693D02*
X0112944Y0292693D01*
X0113542Y0292095D02*
X0206442Y0292095D01*
X0206442Y0291496D02*
X0114141Y0291496D01*
X0114739Y0290898D02*
X0206442Y0290898D01*
X0206442Y0290299D02*
X0115338Y0290299D01*
X0115936Y0289701D02*
X0206442Y0289701D01*
X0206442Y0289102D02*
X0116535Y0289102D01*
X0117133Y0288504D02*
X0206442Y0288504D01*
X0206442Y0287905D02*
X0117732Y0287905D01*
X0118330Y0287307D02*
X0206442Y0287307D01*
X0206442Y0286708D02*
X0118929Y0286708D01*
X0119528Y0286110D02*
X0206442Y0286110D01*
X0206442Y0285511D02*
X0120126Y0285511D01*
X0120725Y0284913D02*
X0206442Y0284913D01*
X0206442Y0284314D02*
X0121323Y0284314D01*
X0121922Y0283716D02*
X0206442Y0283716D01*
X0206442Y0283117D02*
X0122520Y0283117D01*
X0123119Y0282519D02*
X0206442Y0282519D01*
X0206442Y0281920D02*
X0123717Y0281920D01*
X0124316Y0281322D02*
X0206442Y0281322D01*
X0206442Y0280723D02*
X0124914Y0280723D01*
X0125513Y0280125D02*
X0206442Y0280125D01*
X0206442Y0279526D02*
X0157248Y0279526D01*
X0157846Y0278928D02*
X0206442Y0278928D01*
X0206442Y0278329D02*
X0158445Y0278329D01*
X0159044Y0277731D02*
X0206442Y0277731D01*
X0206442Y0277132D02*
X0159642Y0277132D01*
X0160241Y0276534D02*
X0206442Y0276534D01*
X0206442Y0275935D02*
X0165975Y0275935D01*
X0166573Y0275337D02*
X0206442Y0275337D01*
X0206442Y0274738D02*
X0166855Y0274738D01*
X0167042Y0274140D02*
X0206442Y0274140D01*
X0206442Y0273541D02*
X0167042Y0273541D01*
X0166930Y0272943D02*
X0206442Y0272943D01*
X0206442Y0272344D02*
X0166682Y0272344D01*
X0166156Y0271746D02*
X0206442Y0271746D01*
X0206442Y0271147D02*
X0165113Y0271147D01*
X0163570Y0271147D02*
X0156725Y0271147D01*
X0156725Y0271746D02*
X0162528Y0271746D01*
X0164342Y0273750D02*
X0160479Y0273750D01*
X0156295Y0277933D01*
X0142525Y0277933D01*
X0135342Y0270750D01*
X0132872Y0270250D02*
X0134857Y0268265D01*
X0149327Y0268265D01*
X0153342Y0264250D01*
X0155887Y0265162D02*
X0206442Y0265162D01*
X0206442Y0265760D02*
X0155639Y0265760D01*
X0155051Y0266359D02*
X0206442Y0266359D01*
X0206442Y0266958D02*
X0153863Y0266958D01*
X0154466Y0267556D02*
X0206442Y0267556D01*
X0206442Y0268155D02*
X0154810Y0268155D01*
X0155042Y0268753D02*
X0206442Y0268753D01*
X0206442Y0269352D02*
X0155042Y0269352D01*
X0155587Y0269950D02*
X0206442Y0269950D01*
X0206442Y0270549D02*
X0156186Y0270549D01*
X0154925Y0271833D02*
X0152342Y0269250D01*
X0154925Y0271833D02*
X0154925Y0275833D01*
X0157050Y0274140D02*
X0157543Y0274140D01*
X0158142Y0273541D02*
X0156725Y0273541D01*
X0156725Y0272943D02*
X0158740Y0272943D01*
X0159339Y0272344D02*
X0156725Y0272344D01*
X0160839Y0275935D02*
X0162709Y0275935D01*
X0156042Y0264563D02*
X0206442Y0264563D01*
X0206442Y0263965D02*
X0156042Y0263965D01*
X0155898Y0263366D02*
X0206442Y0263366D01*
X0206442Y0262768D02*
X0155650Y0262768D01*
X0155080Y0262169D02*
X0206442Y0262169D01*
X0206442Y0261571D02*
X0165295Y0261571D01*
X0165939Y0260972D02*
X0206442Y0260972D01*
X0206442Y0260374D02*
X0166300Y0260374D01*
X0166543Y0259775D02*
X0206442Y0259775D01*
X0206442Y0259177D02*
X0166543Y0259177D01*
X0166487Y0258578D02*
X0206442Y0258578D01*
X0206442Y0257980D02*
X0166239Y0257980D01*
X0166296Y0257381D02*
X0206442Y0257381D01*
X0206442Y0256783D02*
X0166542Y0256783D01*
X0163843Y0259250D02*
X0153312Y0259250D01*
X0137412Y0243350D01*
X0083054Y0243350D01*
X0081842Y0242138D01*
X0084679Y0245750D02*
X0087842Y0245750D01*
X0086079Y0247805D02*
X0085169Y0247805D01*
X0084571Y0248404D02*
X0086143Y0248404D01*
X0085544Y0249002D02*
X0083972Y0249002D01*
X0083374Y0249601D02*
X0084946Y0249601D01*
X0084347Y0250199D02*
X0082775Y0250199D01*
X0082177Y0250798D02*
X0083749Y0250798D01*
X0083150Y0251396D02*
X0081578Y0251396D01*
X0081542Y0251995D02*
X0082551Y0251995D01*
X0081953Y0252593D02*
X0081347Y0252593D01*
X0081354Y0253192D02*
X0081055Y0253192D01*
X0080756Y0253790D02*
X0080457Y0253790D01*
X0080157Y0254389D02*
X0043406Y0254389D01*
X0043542Y0254987D02*
X0079559Y0254987D01*
X0077688Y0255586D02*
X0043542Y0255586D01*
X0043542Y0256184D02*
X0077089Y0256184D01*
X0076820Y0256783D02*
X0043542Y0256783D01*
X0043295Y0257381D02*
X0076642Y0257381D01*
X0076642Y0257980D02*
X0043047Y0257980D01*
X0042799Y0258578D02*
X0076762Y0258578D01*
X0077010Y0259177D02*
X0042269Y0259177D01*
X0041670Y0259775D02*
X0077549Y0259775D01*
X0078621Y0260374D02*
X0040767Y0260374D01*
X0040396Y0260972D02*
X0084121Y0260972D01*
X0084121Y0260374D02*
X0083642Y0260374D01*
X0084121Y0261571D02*
X0041517Y0261571D01*
X0042115Y0262169D02*
X0084121Y0262169D01*
X0084121Y0262768D02*
X0042714Y0262768D01*
X0042983Y0263366D02*
X0084121Y0263366D01*
X0084121Y0263965D02*
X0043231Y0263965D01*
X0043479Y0264563D02*
X0084121Y0264563D01*
X0084208Y0265162D02*
X0043542Y0265162D01*
X0043542Y0265760D02*
X0084807Y0265760D01*
X0085405Y0266359D02*
X0043542Y0266359D01*
X0043470Y0266958D02*
X0086004Y0266958D01*
X0086602Y0267556D02*
X0043222Y0267556D01*
X0042974Y0268155D02*
X0087201Y0268155D01*
X0087799Y0268753D02*
X0042693Y0268753D01*
X0042094Y0269352D02*
X0088398Y0269352D01*
X0088996Y0269950D02*
X0041496Y0269950D01*
X0040345Y0270549D02*
X0089595Y0270549D01*
X0090193Y0271147D02*
X0040818Y0271147D01*
X0041691Y0271746D02*
X0090792Y0271746D01*
X0091390Y0272344D02*
X0042290Y0272344D01*
X0042807Y0272943D02*
X0091989Y0272943D01*
X0092587Y0273541D02*
X0043055Y0273541D01*
X0043303Y0274140D02*
X0093186Y0274140D01*
X0093784Y0274738D02*
X0043542Y0274738D01*
X0043542Y0275337D02*
X0094210Y0275337D01*
X0093611Y0275935D02*
X0043542Y0275935D01*
X0043542Y0276534D02*
X0093013Y0276534D01*
X0092414Y0277132D02*
X0043398Y0277132D01*
X0043150Y0277731D02*
X0090868Y0277731D01*
X0089944Y0278329D02*
X0042902Y0278329D01*
X0042518Y0278928D02*
X0089467Y0278928D01*
X0089219Y0279526D02*
X0041919Y0279526D01*
X0041321Y0280125D02*
X0089142Y0280125D01*
X0089142Y0280723D02*
X0039924Y0280723D01*
X0041239Y0281322D02*
X0089363Y0281322D01*
X0089694Y0281920D02*
X0041866Y0281920D01*
X0042465Y0282519D02*
X0090292Y0282519D01*
X0091842Y0280250D02*
X0096842Y0275250D01*
X0085921Y0264329D01*
X0085921Y0257769D01*
X0082970Y0257750D02*
X0087705Y0253015D01*
X0102537Y0253015D01*
X0108537Y0247015D01*
X0109129Y0247607D01*
X0109129Y0285750D01*
X0109037Y0285657D01*
X0107329Y0283716D02*
X0043128Y0283716D01*
X0043376Y0284314D02*
X0106801Y0284314D01*
X0106554Y0284913D02*
X0043542Y0284913D01*
X0043542Y0285511D02*
X0106429Y0285511D01*
X0106429Y0286110D02*
X0043542Y0286110D01*
X0043542Y0286708D02*
X0106604Y0286708D01*
X0106868Y0287307D02*
X0043325Y0287307D01*
X0043077Y0287905D02*
X0107466Y0287905D01*
X0107329Y0283117D02*
X0042880Y0283117D01*
X0038342Y0255750D02*
X0038342Y0255250D01*
X0056842Y0236750D01*
X0061642Y0231645D02*
X0085501Y0231645D01*
X0086099Y0231047D02*
X0061642Y0231047D01*
X0061642Y0230448D02*
X0086698Y0230448D01*
X0087296Y0229850D02*
X0061642Y0229850D01*
X0061642Y0229251D02*
X0087895Y0229251D01*
X0088493Y0228653D02*
X0061642Y0228653D01*
X0061642Y0228054D02*
X0089092Y0228054D01*
X0089690Y0227456D02*
X0061642Y0227456D01*
X0061642Y0226857D02*
X0090289Y0226857D01*
X0090887Y0226259D02*
X0061642Y0226259D01*
X0061642Y0225660D02*
X0091486Y0225660D01*
X0092084Y0225062D02*
X0061642Y0225062D01*
X0061642Y0224463D02*
X0092683Y0224463D01*
X0092842Y0241250D02*
X0141511Y0241250D01*
X0154842Y0254580D01*
X0154842Y0254878D01*
X0154842Y0254378D01*
X0153929Y0261571D02*
X0162390Y0261571D01*
X0152754Y0261571D02*
X0152443Y0261571D01*
X0149855Y0260763D02*
X0133842Y0244750D01*
X0092342Y0244750D01*
X0079342Y0257750D01*
X0080063Y0260374D02*
X0082200Y0260374D01*
X0082921Y0257750D02*
X0082970Y0257750D01*
X0077227Y0253790D02*
X0043158Y0253790D01*
X0042946Y0253192D02*
X0076628Y0253192D01*
X0078842Y0251587D02*
X0084679Y0245750D01*
X0100706Y0255115D02*
X0100706Y0271385D01*
X0096842Y0275250D01*
X0098104Y0276534D02*
X0107329Y0276534D01*
X0107329Y0277132D02*
X0097505Y0277132D01*
X0096907Y0277731D02*
X0107329Y0277731D01*
X0107329Y0278329D02*
X0096308Y0278329D01*
X0095710Y0278928D02*
X0107329Y0278928D01*
X0107329Y0279526D02*
X0095111Y0279526D01*
X0094542Y0280125D02*
X0107329Y0280125D01*
X0107329Y0280723D02*
X0094542Y0280723D01*
X0094320Y0281322D02*
X0107329Y0281322D01*
X0107329Y0281920D02*
X0093990Y0281920D01*
X0093391Y0282519D02*
X0107329Y0282519D01*
X0107329Y0275935D02*
X0098702Y0275935D01*
X0098642Y0275996D02*
X0098642Y0275996D01*
X0099301Y0275337D02*
X0107329Y0275337D01*
X0107329Y0274738D02*
X0099899Y0274738D01*
X0100498Y0274140D02*
X0107329Y0274140D01*
X0107329Y0273541D02*
X0101096Y0273541D01*
X0101695Y0272943D02*
X0107329Y0272943D01*
X0107329Y0272344D02*
X0102293Y0272344D01*
X0102506Y0271746D02*
X0107329Y0271746D01*
X0107329Y0271147D02*
X0102506Y0271147D01*
X0102506Y0270549D02*
X0107329Y0270549D01*
X0107329Y0269950D02*
X0102506Y0269950D01*
X0102506Y0269352D02*
X0107329Y0269352D01*
X0107329Y0268753D02*
X0102506Y0268753D01*
X0102506Y0268155D02*
X0107329Y0268155D01*
X0107329Y0267556D02*
X0102506Y0267556D01*
X0102506Y0266958D02*
X0107329Y0266958D01*
X0107329Y0266359D02*
X0102506Y0266359D01*
X0102506Y0265760D02*
X0107329Y0265760D01*
X0107329Y0265162D02*
X0102506Y0265162D01*
X0102506Y0264563D02*
X0107329Y0264563D01*
X0107329Y0263965D02*
X0102506Y0263965D01*
X0102506Y0263366D02*
X0107329Y0263366D01*
X0107329Y0262768D02*
X0102506Y0262768D01*
X0102506Y0262169D02*
X0107329Y0262169D01*
X0107329Y0261571D02*
X0102506Y0261571D01*
X0102506Y0260972D02*
X0107329Y0260972D01*
X0107329Y0260374D02*
X0102506Y0260374D01*
X0102506Y0259775D02*
X0107329Y0259775D01*
X0107329Y0259177D02*
X0102506Y0259177D01*
X0102506Y0258578D02*
X0107329Y0258578D01*
X0107329Y0257980D02*
X0102506Y0257980D01*
X0102506Y0257381D02*
X0107329Y0257381D01*
X0107329Y0256783D02*
X0102856Y0256783D01*
X0103186Y0256184D02*
X0107329Y0256184D01*
X0107329Y0255586D02*
X0103406Y0255586D01*
X0103406Y0254987D02*
X0107329Y0254987D01*
X0107329Y0254389D02*
X0103708Y0254389D01*
X0104306Y0253790D02*
X0107329Y0253790D01*
X0107329Y0253192D02*
X0104905Y0253192D01*
X0105503Y0252593D02*
X0107329Y0252593D01*
X0107329Y0251995D02*
X0106102Y0251995D01*
X0106700Y0251396D02*
X0107329Y0251396D01*
X0107299Y0250798D02*
X0107329Y0250798D01*
X0123842Y0252750D02*
X0123842Y0262750D01*
X0120842Y0265750D01*
X0128342Y0265750D02*
X0128342Y0252250D01*
X0132842Y0270250D02*
X0097342Y0305750D01*
X0126111Y0279526D02*
X0141572Y0279526D01*
X0140974Y0278928D02*
X0126710Y0278928D01*
X0127308Y0278329D02*
X0140375Y0278329D01*
X0139777Y0277731D02*
X0127907Y0277731D01*
X0128505Y0277132D02*
X0139178Y0277132D01*
X0138580Y0276534D02*
X0129104Y0276534D01*
X0129702Y0275935D02*
X0137981Y0275935D01*
X0137383Y0275337D02*
X0130301Y0275337D01*
X0130899Y0274738D02*
X0136784Y0274738D01*
X0136186Y0274140D02*
X0131498Y0274140D01*
X0132096Y0273541D02*
X0135587Y0273541D01*
X0133716Y0272943D02*
X0132695Y0272943D01*
X0132842Y0270250D02*
X0132872Y0270250D01*
X0206442Y0311846D02*
X0045777Y0311846D01*
X0047421Y0312444D02*
X0206442Y0312444D01*
X0206442Y0313043D02*
X0048469Y0313043D01*
X0048013Y0312660D02*
X0048013Y0312660D01*
X0049183Y0313641D02*
X0206442Y0313641D01*
X0206442Y0314240D02*
X0049896Y0314240D01*
X0050552Y0314838D02*
X0206442Y0314838D01*
X0206442Y0315437D02*
X0050898Y0315437D01*
X0051243Y0316035D02*
X0206442Y0316035D01*
X0206442Y0316634D02*
X0051589Y0316634D01*
X0051934Y0317232D02*
X0206442Y0317232D01*
X0206442Y0317831D02*
X0052169Y0317831D01*
X0052120Y0317555D02*
X0052120Y0317555D01*
X0052275Y0318429D02*
X0206442Y0318429D01*
X0206442Y0319028D02*
X0052380Y0319028D01*
X0052486Y0319627D02*
X0206442Y0319627D01*
X0206442Y0320225D02*
X0052591Y0320225D01*
X0052684Y0320750D02*
X0052684Y0320750D01*
X0052671Y0320824D02*
X0206442Y0320824D01*
X0206442Y0321422D02*
X0052565Y0321422D01*
X0052460Y0322021D02*
X0206442Y0322021D01*
X0206442Y0322619D02*
X0052354Y0322619D01*
X0052249Y0323218D02*
X0206442Y0323218D01*
X0206442Y0323816D02*
X0052143Y0323816D01*
X0052120Y0323945D02*
X0052120Y0323945D01*
X0051849Y0324415D02*
X0206442Y0324415D01*
X0206442Y0325013D02*
X0051504Y0325013D01*
X0051158Y0325612D02*
X0206442Y0325612D01*
X0206442Y0326210D02*
X0050813Y0326210D01*
X0050498Y0326755D02*
X0050498Y0326755D01*
X0050434Y0326809D02*
X0206442Y0326809D01*
X0206442Y0327407D02*
X0049721Y0327407D01*
X0049007Y0328006D02*
X0206442Y0328006D01*
X0206442Y0328604D02*
X0048294Y0328604D01*
X0044867Y0252593D02*
X0043544Y0252593D01*
X0044143Y0251995D02*
X0044280Y0251995D01*
X0040842Y0245750D02*
X0038342Y0245750D01*
X0040842Y0245750D02*
X0056842Y0229750D01*
X0035928Y0201121D02*
X0035242Y0201121D01*
X0050885Y0163415D02*
X0206442Y0163415D01*
X0206442Y0162817D02*
X0050539Y0162817D01*
X0049870Y0162218D02*
X0206442Y0162218D01*
X0206442Y0161620D02*
X0049157Y0161620D01*
X0048443Y0161021D02*
X0206442Y0161021D01*
X0206442Y0160422D02*
X0047361Y0160422D01*
X0045717Y0159824D02*
X0206442Y0159824D01*
X0219614Y0156831D02*
X0383442Y0156831D01*
X0383442Y0156233D02*
X0219942Y0156233D01*
X0220190Y0155634D02*
X0383442Y0155634D01*
X0383442Y0155036D02*
X0275601Y0155036D01*
X0276200Y0154437D02*
X0383442Y0154437D01*
X0383442Y0153839D02*
X0276799Y0153839D01*
X0277397Y0153240D02*
X0383442Y0153240D01*
X0383442Y0152642D02*
X0277996Y0152642D01*
X0278594Y0152043D02*
X0383442Y0152043D01*
X0383442Y0151445D02*
X0279193Y0151445D01*
X0279791Y0150846D02*
X0383442Y0150846D01*
X0383442Y0150248D02*
X0280390Y0150248D01*
X0280988Y0149649D02*
X0383442Y0149649D01*
X0383442Y0149051D02*
X0281587Y0149051D01*
X0282185Y0148452D02*
X0383442Y0148452D01*
X0383442Y0147854D02*
X0282784Y0147854D01*
X0283382Y0147255D02*
X0383442Y0147255D01*
X0383442Y0146657D02*
X0283981Y0146657D01*
X0284579Y0146058D02*
X0383442Y0146058D01*
X0383442Y0145460D02*
X0285178Y0145460D01*
X0285776Y0144861D02*
X0383442Y0144861D01*
X0383442Y0144263D02*
X0286375Y0144263D01*
X0286973Y0143664D02*
X0383442Y0143664D01*
X0383442Y0143066D02*
X0287572Y0143066D01*
X0288170Y0142467D02*
X0383442Y0142467D01*
X0383442Y0141869D02*
X0288769Y0141869D01*
X0289367Y0141270D02*
X0383442Y0141270D01*
X0383442Y0140672D02*
X0289966Y0140672D01*
X0290564Y0140073D02*
X0383442Y0140073D01*
X0383442Y0139475D02*
X0291163Y0139475D01*
X0291761Y0138876D02*
X0383442Y0138876D01*
X0383442Y0138278D02*
X0292360Y0138278D01*
X0292958Y0137679D02*
X0383442Y0137679D01*
X0383442Y0137081D02*
X0293557Y0137081D01*
X0294155Y0136482D02*
X0383442Y0136482D01*
X0383442Y0135884D02*
X0294754Y0135884D01*
X0295352Y0135285D02*
X0383442Y0135285D01*
X0383442Y0134687D02*
X0295951Y0134687D01*
X0296549Y0134088D02*
X0383442Y0134088D01*
X0383442Y0133489D02*
X0297148Y0133489D01*
X0297746Y0132891D02*
X0383442Y0132891D01*
X0383442Y0132292D02*
X0298345Y0132292D01*
X0298943Y0131694D02*
X0383442Y0131694D01*
X0383442Y0131095D02*
X0299542Y0131095D01*
X0300140Y0130497D02*
X0383442Y0130497D01*
X0383442Y0129898D02*
X0300739Y0129898D01*
X0301337Y0129300D02*
X0383442Y0129300D01*
X0383442Y0128701D02*
X0301936Y0128701D01*
X0302534Y0128103D02*
X0383442Y0128103D01*
X0383442Y0127504D02*
X0334270Y0127504D01*
X0334868Y0126906D02*
X0383442Y0126906D01*
X0383442Y0126307D02*
X0335467Y0126307D01*
X0336065Y0125709D02*
X0383442Y0125709D01*
X0383442Y0125110D02*
X0336664Y0125110D01*
X0337262Y0124512D02*
X0383442Y0124512D01*
X0383442Y0123913D02*
X0342997Y0123913D01*
X0343595Y0123315D02*
X0383442Y0123315D01*
X0383442Y0122716D02*
X0343864Y0122716D01*
X0344042Y0122118D02*
X0383442Y0122118D01*
X0383442Y0121519D02*
X0344042Y0121519D01*
X0343921Y0120921D02*
X0383442Y0120921D01*
X0383442Y0120322D02*
X0343673Y0120322D01*
X0343134Y0119724D02*
X0383442Y0119724D01*
X0383442Y0119125D02*
X0342060Y0119125D01*
X0340623Y0119125D02*
X0333725Y0119125D01*
X0333725Y0119724D02*
X0339550Y0119724D01*
X0341342Y0121750D02*
X0337479Y0121750D01*
X0333295Y0125933D01*
X0319525Y0125933D01*
X0312342Y0118750D01*
X0309872Y0118250D02*
X0311857Y0116265D01*
X0326327Y0116265D01*
X0330342Y0112250D01*
X0332889Y0111345D02*
X0383442Y0111345D01*
X0383442Y0111943D02*
X0333042Y0111943D01*
X0333042Y0112542D02*
X0383442Y0112542D01*
X0383442Y0113140D02*
X0332896Y0113140D01*
X0332648Y0113739D02*
X0383442Y0113739D01*
X0383442Y0114337D02*
X0332073Y0114337D01*
X0330914Y0114936D02*
X0383442Y0114936D01*
X0383442Y0115534D02*
X0331444Y0115534D01*
X0331801Y0116133D02*
X0383442Y0116133D01*
X0383442Y0116731D02*
X0332042Y0116731D01*
X0332042Y0117330D02*
X0383442Y0117330D01*
X0383442Y0117928D02*
X0332566Y0117928D01*
X0333164Y0118527D02*
X0383442Y0118527D01*
X0383442Y0110746D02*
X0332641Y0110746D01*
X0332058Y0110148D02*
X0383442Y0110148D01*
X0383442Y0109549D02*
X0342348Y0109549D01*
X0342960Y0108951D02*
X0383442Y0108951D01*
X0383442Y0108352D02*
X0343309Y0108352D01*
X0343543Y0107753D02*
X0383442Y0107753D01*
X0383442Y0107155D02*
X0343543Y0107155D01*
X0343478Y0106556D02*
X0383442Y0106556D01*
X0383442Y0105958D02*
X0343230Y0105958D01*
X0343305Y0105359D02*
X0383442Y0105359D01*
X0383442Y0104761D02*
X0343542Y0104761D01*
X0343542Y0104162D02*
X0383442Y0104162D01*
X0383442Y0103564D02*
X0343480Y0103564D01*
X0343232Y0102965D02*
X0383442Y0102965D01*
X0383442Y0102367D02*
X0342777Y0102367D01*
X0341906Y0101768D02*
X0383442Y0101768D01*
X0383442Y0101170D02*
X0340307Y0101170D01*
X0339709Y0100571D02*
X0383442Y0100571D01*
X0383442Y0099973D02*
X0339110Y0099973D01*
X0338512Y0099374D02*
X0383442Y0099374D01*
X0383442Y0098776D02*
X0337913Y0098776D01*
X0337315Y0098177D02*
X0383442Y0098177D01*
X0383442Y0097579D02*
X0336716Y0097579D01*
X0336118Y0096980D02*
X0383442Y0096980D01*
X0383442Y0096382D02*
X0335519Y0096382D01*
X0334921Y0095783D02*
X0383442Y0095783D01*
X0383442Y0095185D02*
X0334322Y0095185D01*
X0333724Y0094586D02*
X0383442Y0094586D01*
X0383442Y0093988D02*
X0333125Y0093988D01*
X0332527Y0093389D02*
X0383442Y0093389D01*
X0383442Y0092791D02*
X0331928Y0092791D01*
X0331330Y0092192D02*
X0383442Y0092192D01*
X0383442Y0091594D02*
X0330731Y0091594D01*
X0330133Y0090995D02*
X0383442Y0090995D01*
X0383442Y0090397D02*
X0329534Y0090397D01*
X0328936Y0089798D02*
X0383442Y0089798D01*
X0383442Y0089200D02*
X0328337Y0089200D01*
X0327739Y0088601D02*
X0383442Y0088601D01*
X0383442Y0088003D02*
X0327140Y0088003D01*
X0326541Y0087404D02*
X0383442Y0087404D01*
X0383442Y0086806D02*
X0325943Y0086806D01*
X0325344Y0086207D02*
X0383442Y0086207D01*
X0383442Y0085609D02*
X0324746Y0085609D01*
X0324147Y0085010D02*
X0383442Y0085010D01*
X0383442Y0084412D02*
X0266252Y0084412D01*
X0264621Y0082616D02*
X0293998Y0082616D01*
X0293291Y0082018D02*
X0265220Y0082018D01*
X0265818Y0081419D02*
X0292904Y0081419D01*
X0292656Y0080820D02*
X0266417Y0080820D01*
X0267015Y0080222D02*
X0292642Y0080222D01*
X0292170Y0079623D02*
X0267614Y0079623D01*
X0268212Y0079025D02*
X0291571Y0079025D01*
X0290973Y0078426D02*
X0268811Y0078426D01*
X0269409Y0077828D02*
X0290374Y0077828D01*
X0289776Y0077229D02*
X0270008Y0077229D01*
X0270606Y0076631D02*
X0289177Y0076631D01*
X0288579Y0076032D02*
X0271205Y0076032D01*
X0271803Y0075434D02*
X0287980Y0075434D01*
X0287382Y0074835D02*
X0272402Y0074835D01*
X0273001Y0074237D02*
X0286783Y0074237D01*
X0286185Y0073638D02*
X0273599Y0073638D01*
X0274198Y0073040D02*
X0285586Y0073040D01*
X0284988Y0072441D02*
X0274796Y0072441D01*
X0275395Y0071843D02*
X0284389Y0071843D01*
X0283791Y0071244D02*
X0275993Y0071244D01*
X0276592Y0070646D02*
X0283192Y0070646D01*
X0282594Y0070047D02*
X0277190Y0070047D01*
X0279061Y0069449D02*
X0281995Y0069449D01*
X0281396Y0068850D02*
X0279660Y0068850D01*
X0279949Y0068252D02*
X0280798Y0068252D01*
X0280199Y0067653D02*
X0280142Y0067653D01*
X0277442Y0067250D02*
X0255342Y0089350D01*
X0255342Y0094338D01*
X0252342Y0097750D02*
X0252342Y0086250D01*
X0255842Y0082750D01*
X0258324Y0083813D02*
X0258333Y0083813D01*
X0258542Y0083215D02*
X0258932Y0083215D01*
X0258542Y0082616D02*
X0259530Y0082616D01*
X0260129Y0082018D02*
X0258461Y0082018D01*
X0258213Y0081419D02*
X0260727Y0081419D01*
X0261326Y0080820D02*
X0257731Y0080820D01*
X0256794Y0080222D02*
X0261924Y0080222D01*
X0264023Y0083215D02*
X0383442Y0083215D01*
X0383442Y0083813D02*
X0263424Y0083813D01*
X0263432Y0084412D02*
X0262826Y0084412D01*
X0262763Y0085010D02*
X0262227Y0085010D01*
X0262392Y0085609D02*
X0261629Y0085609D01*
X0262144Y0086207D02*
X0261030Y0086207D01*
X0260432Y0086806D02*
X0262142Y0086806D01*
X0262190Y0087404D02*
X0259833Y0087404D01*
X0260525Y0088003D02*
X0262438Y0088003D01*
X0262875Y0088601D02*
X0261123Y0088601D01*
X0261375Y0089200D02*
X0263700Y0089200D01*
X0265983Y0089200D02*
X0267142Y0089200D01*
X0267188Y0088601D02*
X0266809Y0088601D01*
X0264842Y0086750D02*
X0323342Y0086750D01*
X0340842Y0104250D01*
X0340843Y0107250D02*
X0330312Y0107250D01*
X0314412Y0091350D01*
X0260054Y0091350D01*
X0258842Y0090138D01*
X0261679Y0093750D02*
X0264842Y0093750D01*
X0263057Y0095783D02*
X0262191Y0095783D01*
X0261593Y0096382D02*
X0263164Y0096382D01*
X0262566Y0096980D02*
X0260994Y0096980D01*
X0260396Y0097579D02*
X0261967Y0097579D01*
X0261369Y0098177D02*
X0259797Y0098177D01*
X0259199Y0098776D02*
X0260770Y0098776D01*
X0260172Y0099374D02*
X0258600Y0099374D01*
X0258542Y0099973D02*
X0259573Y0099973D01*
X0258975Y0100571D02*
X0258357Y0100571D01*
X0258376Y0101170D02*
X0258077Y0101170D01*
X0257778Y0101768D02*
X0257479Y0101768D01*
X0257179Y0102367D02*
X0220397Y0102367D01*
X0220542Y0102965D02*
X0256581Y0102965D01*
X0256342Y0105750D02*
X0269342Y0092750D01*
X0310842Y0092750D01*
X0326855Y0108763D01*
X0325019Y0110746D02*
X0307142Y0110746D01*
X0307142Y0110148D02*
X0324506Y0110148D01*
X0324258Y0109549D02*
X0307142Y0109549D01*
X0307142Y0108951D02*
X0324155Y0108951D01*
X0323898Y0108352D02*
X0307142Y0108352D01*
X0307142Y0107753D02*
X0323300Y0107753D01*
X0322701Y0107155D02*
X0307142Y0107155D01*
X0307142Y0106556D02*
X0322103Y0106556D01*
X0321504Y0105958D02*
X0307142Y0105958D01*
X0307142Y0105359D02*
X0320906Y0105359D01*
X0320307Y0104761D02*
X0307142Y0104761D01*
X0307142Y0104162D02*
X0319709Y0104162D01*
X0319110Y0103564D02*
X0307142Y0103564D01*
X0307142Y0102965D02*
X0318512Y0102965D01*
X0317913Y0102367D02*
X0307142Y0102367D01*
X0307142Y0101768D02*
X0317315Y0101768D01*
X0316716Y0101170D02*
X0307142Y0101170D01*
X0307142Y0100571D02*
X0316118Y0100571D01*
X0315519Y0099973D02*
X0307142Y0099973D01*
X0307142Y0099504D02*
X0307142Y0111732D01*
X0307631Y0112221D01*
X0308042Y0113213D01*
X0308042Y0114287D01*
X0307631Y0115279D01*
X0306871Y0116039D01*
X0305879Y0116450D01*
X0304805Y0116450D01*
X0303812Y0116039D01*
X0303053Y0115279D01*
X0302642Y0114287D01*
X0302642Y0113213D01*
X0303053Y0112221D01*
X0303542Y0111732D01*
X0303542Y0100996D01*
X0303542Y0100996D01*
X0303542Y0101287D01*
X0303131Y0102279D01*
X0302642Y0102768D01*
X0302642Y0111496D01*
X0300542Y0113596D01*
X0300542Y0114287D01*
X0300131Y0115279D01*
X0299371Y0116039D01*
X0298379Y0116450D01*
X0297305Y0116450D01*
X0296312Y0116039D01*
X0295553Y0115279D01*
X0295142Y0114287D01*
X0295142Y0113213D01*
X0295553Y0112221D01*
X0296312Y0111461D01*
X0297305Y0111050D01*
X0297996Y0111050D01*
X0299042Y0110004D01*
X0299042Y0102768D01*
X0298553Y0102279D01*
X0298142Y0101287D01*
X0298142Y0100213D01*
X0298553Y0099221D01*
X0299312Y0098461D01*
X0300142Y0098117D01*
X0300142Y0097213D01*
X0300553Y0096221D01*
X0301312Y0095461D01*
X0302305Y0095050D01*
X0303379Y0095050D01*
X0304371Y0095461D01*
X0305131Y0096221D01*
X0305542Y0097213D01*
X0305542Y0097904D01*
X0306087Y0098450D01*
X0307142Y0099504D01*
X0307012Y0099374D02*
X0314921Y0099374D01*
X0314322Y0098776D02*
X0306413Y0098776D01*
X0305815Y0098177D02*
X0313724Y0098177D01*
X0313125Y0097579D02*
X0305542Y0097579D01*
X0305445Y0096980D02*
X0312527Y0096980D01*
X0311928Y0096382D02*
X0305198Y0096382D01*
X0304693Y0095783D02*
X0311329Y0095783D01*
X0310731Y0095185D02*
X0303704Y0095185D01*
X0301979Y0095185D02*
X0288237Y0095185D01*
X0288237Y0094586D02*
X0310132Y0094586D01*
X0305342Y0100250D02*
X0302842Y0097750D01*
X0300990Y0095783D02*
X0288141Y0095783D01*
X0287929Y0096382D02*
X0300486Y0096382D01*
X0300238Y0096980D02*
X0287929Y0096980D01*
X0287929Y0097579D02*
X0300142Y0097579D01*
X0299997Y0098177D02*
X0287929Y0098177D01*
X0287929Y0098776D02*
X0298998Y0098776D01*
X0298489Y0099374D02*
X0287929Y0099374D01*
X0287929Y0099973D02*
X0298241Y0099973D01*
X0298142Y0100571D02*
X0287929Y0100571D01*
X0287929Y0101170D02*
X0298142Y0101170D01*
X0298341Y0101768D02*
X0287929Y0101768D01*
X0287929Y0102367D02*
X0298640Y0102367D01*
X0299042Y0102965D02*
X0287929Y0102965D01*
X0287929Y0103564D02*
X0299042Y0103564D01*
X0299042Y0104162D02*
X0287929Y0104162D01*
X0287929Y0104761D02*
X0299042Y0104761D01*
X0299042Y0105359D02*
X0287929Y0105359D01*
X0287929Y0105958D02*
X0299042Y0105958D01*
X0299042Y0106556D02*
X0287929Y0106556D01*
X0287929Y0107155D02*
X0299042Y0107155D01*
X0299042Y0107753D02*
X0287929Y0107753D01*
X0287929Y0108352D02*
X0299042Y0108352D01*
X0299042Y0108951D02*
X0287929Y0108951D01*
X0287929Y0109549D02*
X0299042Y0109549D01*
X0298899Y0110148D02*
X0287929Y0110148D01*
X0287929Y0110746D02*
X0298300Y0110746D01*
X0296594Y0111345D02*
X0287929Y0111345D01*
X0287929Y0111943D02*
X0295830Y0111943D01*
X0295420Y0112542D02*
X0287929Y0112542D01*
X0287929Y0113140D02*
X0295172Y0113140D01*
X0295142Y0113739D02*
X0287929Y0113739D01*
X0287929Y0114337D02*
X0295163Y0114337D01*
X0295410Y0114936D02*
X0287929Y0114936D01*
X0287929Y0115534D02*
X0295808Y0115534D01*
X0296539Y0116133D02*
X0287929Y0116133D01*
X0287929Y0116731D02*
X0308815Y0116731D01*
X0308217Y0117330D02*
X0287929Y0117330D01*
X0287929Y0117928D02*
X0307618Y0117928D01*
X0307020Y0118527D02*
X0287929Y0118527D01*
X0287929Y0119125D02*
X0306421Y0119125D01*
X0305822Y0119724D02*
X0287929Y0119724D01*
X0287929Y0120322D02*
X0305224Y0120322D01*
X0304625Y0120921D02*
X0287929Y0120921D01*
X0287929Y0121519D02*
X0304027Y0121519D01*
X0303428Y0122118D02*
X0287929Y0122118D01*
X0287929Y0122716D02*
X0302830Y0122716D01*
X0302231Y0123315D02*
X0287929Y0123315D01*
X0287929Y0123913D02*
X0301633Y0123913D01*
X0301034Y0124512D02*
X0287929Y0124512D01*
X0287929Y0125110D02*
X0300436Y0125110D01*
X0299837Y0125709D02*
X0287929Y0125709D01*
X0287929Y0126307D02*
X0299239Y0126307D01*
X0298640Y0126906D02*
X0287929Y0126906D01*
X0287929Y0127504D02*
X0298042Y0127504D01*
X0297443Y0128103D02*
X0287929Y0128103D01*
X0287929Y0128701D02*
X0296845Y0128701D01*
X0296246Y0129300D02*
X0287929Y0129300D01*
X0287929Y0129898D02*
X0295648Y0129898D01*
X0295049Y0130497D02*
X0287929Y0130497D01*
X0287929Y0131095D02*
X0294451Y0131095D01*
X0293852Y0131694D02*
X0287929Y0131694D01*
X0288448Y0132292D02*
X0293254Y0132292D01*
X0292655Y0132891D02*
X0288696Y0132891D01*
X0288829Y0133489D02*
X0292057Y0133489D01*
X0291458Y0134088D02*
X0288829Y0134088D01*
X0288664Y0134687D02*
X0290860Y0134687D01*
X0290261Y0135285D02*
X0288413Y0135285D01*
X0284329Y0131694D02*
X0220119Y0131694D01*
X0220366Y0132292D02*
X0283810Y0132292D01*
X0284329Y0131095D02*
X0219871Y0131095D01*
X0215342Y0103750D02*
X0215342Y0103250D01*
X0233842Y0084750D01*
X0236842Y0085220D02*
X0236842Y0060250D01*
X0234324Y0059274D02*
X0217571Y0059274D01*
X0217039Y0058676D02*
X0234598Y0058676D01*
X0235196Y0058077D02*
X0218369Y0058077D01*
X0218512Y0059873D02*
X0234142Y0059873D01*
X0234142Y0060471D02*
X0219134Y0060471D01*
X0219575Y0061070D02*
X0234259Y0061070D01*
X0234507Y0061668D02*
X0219893Y0061668D01*
X0220117Y0062267D02*
X0235040Y0062267D01*
X0235042Y0062865D02*
X0220264Y0062865D01*
X0220342Y0064062D02*
X0235042Y0064062D01*
X0235042Y0063464D02*
X0215642Y0063464D01*
X0220260Y0064661D02*
X0235042Y0064661D01*
X0235042Y0065259D02*
X0220109Y0065259D01*
X0219880Y0065858D02*
X0235042Y0065858D01*
X0235042Y0066456D02*
X0219556Y0066456D01*
X0219108Y0067055D02*
X0235042Y0067055D01*
X0235042Y0067653D02*
X0218476Y0067653D01*
X0217520Y0068252D02*
X0235042Y0068252D01*
X0235042Y0068850D02*
X0217101Y0068850D01*
X0218394Y0069449D02*
X0232342Y0069449D01*
X0233842Y0071750D02*
X0227342Y0071750D01*
X0215342Y0083750D01*
X0217640Y0078426D02*
X0218120Y0078426D01*
X0218618Y0077828D02*
X0218718Y0077828D01*
X0219216Y0077229D02*
X0219317Y0077229D01*
X0219777Y0076631D02*
X0219915Y0076631D01*
X0220025Y0076032D02*
X0220514Y0076032D01*
X0220273Y0075434D02*
X0221112Y0075434D01*
X0220521Y0074835D02*
X0221711Y0074835D01*
X0222309Y0074237D02*
X0220542Y0074237D01*
X0220542Y0073638D02*
X0222908Y0073638D01*
X0223506Y0073040D02*
X0220542Y0073040D01*
X0220428Y0072441D02*
X0224105Y0072441D01*
X0224703Y0071843D02*
X0220180Y0071843D01*
X0219932Y0071244D02*
X0225302Y0071244D01*
X0225900Y0070646D02*
X0219592Y0070646D01*
X0218993Y0070047D02*
X0226499Y0070047D01*
X0233842Y0077750D02*
X0217842Y0093750D01*
X0215342Y0093750D01*
X0223577Y0098485D02*
X0236842Y0085220D01*
X0221271Y0099973D02*
X0221165Y0099973D01*
X0220566Y0100571D02*
X0221845Y0100571D01*
X0206442Y0083813D02*
X0086424Y0083813D01*
X0086432Y0084412D02*
X0085826Y0084412D01*
X0085763Y0085010D02*
X0085227Y0085010D01*
X0085392Y0085609D02*
X0084629Y0085609D01*
X0085144Y0086207D02*
X0084030Y0086207D01*
X0083432Y0086806D02*
X0085142Y0086806D01*
X0085190Y0087404D02*
X0082833Y0087404D01*
X0083525Y0088003D02*
X0085438Y0088003D01*
X0085875Y0088601D02*
X0084123Y0088601D01*
X0084375Y0089200D02*
X0086700Y0089200D01*
X0088983Y0089200D02*
X0090142Y0089200D01*
X0090188Y0088601D02*
X0089809Y0088601D01*
X0087842Y0086750D02*
X0146342Y0086750D01*
X0163842Y0104250D01*
X0163843Y0107250D02*
X0153312Y0107250D01*
X0137412Y0091350D01*
X0083054Y0091350D01*
X0081842Y0090138D01*
X0084679Y0093750D02*
X0087842Y0093750D01*
X0086057Y0095783D02*
X0085191Y0095783D01*
X0084593Y0096382D02*
X0086164Y0096382D01*
X0085566Y0096980D02*
X0083994Y0096980D01*
X0083396Y0097579D02*
X0084967Y0097579D01*
X0084369Y0098177D02*
X0082797Y0098177D01*
X0082199Y0098776D02*
X0083770Y0098776D01*
X0083172Y0099374D02*
X0081600Y0099374D01*
X0081542Y0099973D02*
X0082573Y0099973D01*
X0081975Y0100571D02*
X0081357Y0100571D01*
X0081376Y0101170D02*
X0081077Y0101170D01*
X0080778Y0101768D02*
X0080479Y0101768D01*
X0078842Y0099587D02*
X0084679Y0093750D01*
X0092342Y0092750D02*
X0079342Y0105750D01*
X0082921Y0105750D02*
X0082970Y0105750D01*
X0087705Y0101015D01*
X0102537Y0101015D01*
X0108537Y0095015D01*
X0109129Y0095607D01*
X0109129Y0133750D01*
X0109037Y0133657D01*
X0106563Y0132891D02*
X0043542Y0132891D01*
X0043542Y0133489D02*
X0106429Y0133489D01*
X0106429Y0134088D02*
X0043542Y0134088D01*
X0043542Y0134687D02*
X0106595Y0134687D01*
X0106846Y0135285D02*
X0043334Y0135285D01*
X0043087Y0135884D02*
X0107444Y0135884D01*
X0110814Y0135884D02*
X0112663Y0135884D01*
X0112064Y0136482D02*
X0042839Y0136482D01*
X0042365Y0137081D02*
X0111466Y0137081D01*
X0110867Y0137679D02*
X0041767Y0137679D01*
X0041000Y0138278D02*
X0110269Y0138278D01*
X0109670Y0138876D02*
X0040163Y0138876D01*
X0041420Y0139475D02*
X0109072Y0139475D01*
X0108473Y0140073D02*
X0042019Y0140073D01*
X0042617Y0140672D02*
X0107875Y0140672D01*
X0107276Y0141270D02*
X0042943Y0141270D01*
X0043191Y0141869D02*
X0106678Y0141869D01*
X0106079Y0142467D02*
X0043439Y0142467D01*
X0043542Y0143066D02*
X0105481Y0143066D01*
X0104882Y0143664D02*
X0043542Y0143664D01*
X0043542Y0144263D02*
X0104284Y0144263D01*
X0103685Y0144861D02*
X0043510Y0144861D01*
X0043262Y0145460D02*
X0103087Y0145460D01*
X0102488Y0146058D02*
X0043014Y0146058D01*
X0042766Y0146657D02*
X0101889Y0146657D01*
X0101291Y0147255D02*
X0042190Y0147255D01*
X0041592Y0147854D02*
X0100692Y0147854D01*
X0100094Y0148452D02*
X0040578Y0148452D01*
X0040585Y0149051D02*
X0099495Y0149051D01*
X0098897Y0149649D02*
X0041595Y0149649D01*
X0042194Y0150248D02*
X0098298Y0150248D01*
X0097700Y0150846D02*
X0042767Y0150846D01*
X0043015Y0151445D02*
X0097101Y0151445D01*
X0106810Y0132292D02*
X0043366Y0132292D01*
X0043119Y0131694D02*
X0107329Y0131694D01*
X0110929Y0131694D02*
X0116852Y0131694D01*
X0116254Y0132292D02*
X0111448Y0132292D01*
X0111696Y0132891D02*
X0115655Y0132891D01*
X0115057Y0133489D02*
X0111829Y0133489D01*
X0111829Y0134088D02*
X0114458Y0134088D01*
X0113860Y0134687D02*
X0111664Y0134687D01*
X0111413Y0135285D02*
X0113261Y0135285D01*
X0110929Y0131095D02*
X0117451Y0131095D01*
X0118049Y0130497D02*
X0110929Y0130497D01*
X0110929Y0129898D02*
X0118648Y0129898D01*
X0119246Y0129300D02*
X0110929Y0129300D01*
X0110929Y0128701D02*
X0119845Y0128701D01*
X0120443Y0128103D02*
X0110929Y0128103D01*
X0110929Y0127504D02*
X0121042Y0127504D01*
X0121640Y0126906D02*
X0110929Y0126906D01*
X0110929Y0126307D02*
X0122239Y0126307D01*
X0122837Y0125709D02*
X0110929Y0125709D01*
X0110929Y0125110D02*
X0123436Y0125110D01*
X0124034Y0124512D02*
X0110929Y0124512D01*
X0110929Y0123913D02*
X0124633Y0123913D01*
X0125231Y0123315D02*
X0110929Y0123315D01*
X0110929Y0122716D02*
X0125830Y0122716D01*
X0126428Y0122118D02*
X0110929Y0122118D01*
X0110929Y0121519D02*
X0127027Y0121519D01*
X0127625Y0120921D02*
X0110929Y0120921D01*
X0110929Y0120322D02*
X0128224Y0120322D01*
X0128822Y0119724D02*
X0110929Y0119724D01*
X0110929Y0119125D02*
X0129421Y0119125D01*
X0130020Y0118527D02*
X0110929Y0118527D01*
X0110929Y0117928D02*
X0130618Y0117928D01*
X0131217Y0117330D02*
X0110929Y0117330D01*
X0110929Y0116731D02*
X0131815Y0116731D01*
X0132444Y0116133D02*
X0129645Y0116133D01*
X0130376Y0115534D02*
X0133042Y0115534D01*
X0133641Y0114936D02*
X0130773Y0114936D01*
X0128342Y0113750D02*
X0128342Y0100250D01*
X0125842Y0097750D01*
X0126542Y0101170D02*
X0126542Y0101170D01*
X0126542Y0101768D02*
X0126342Y0101768D01*
X0126542Y0102367D02*
X0126043Y0102367D01*
X0125642Y0102965D02*
X0126542Y0102965D01*
X0126542Y0103564D02*
X0125642Y0103564D01*
X0125642Y0104162D02*
X0126542Y0104162D01*
X0126542Y0104761D02*
X0125642Y0104761D01*
X0125642Y0105359D02*
X0126542Y0105359D01*
X0126542Y0105958D02*
X0125642Y0105958D01*
X0125642Y0106556D02*
X0126542Y0106556D01*
X0126542Y0107155D02*
X0125642Y0107155D01*
X0125642Y0107753D02*
X0126542Y0107753D01*
X0126542Y0108352D02*
X0125642Y0108352D01*
X0125642Y0108951D02*
X0126542Y0108951D01*
X0126542Y0109549D02*
X0125642Y0109549D01*
X0125642Y0110148D02*
X0126542Y0110148D01*
X0126542Y0110746D02*
X0125642Y0110746D01*
X0125642Y0111345D02*
X0126542Y0111345D01*
X0126330Y0111943D02*
X0125194Y0111943D01*
X0124596Y0112542D02*
X0125920Y0112542D01*
X0125672Y0113140D02*
X0123997Y0113140D01*
X0123542Y0113739D02*
X0125642Y0113739D01*
X0125663Y0114337D02*
X0123521Y0114337D01*
X0123273Y0114936D02*
X0125910Y0114936D01*
X0126308Y0115534D02*
X0122876Y0115534D01*
X0122145Y0116133D02*
X0127039Y0116133D01*
X0123842Y0110750D02*
X0120842Y0113750D01*
X0118142Y0113739D02*
X0110929Y0113739D01*
X0110929Y0114337D02*
X0118163Y0114337D01*
X0118410Y0114936D02*
X0110929Y0114936D01*
X0110929Y0115534D02*
X0118808Y0115534D01*
X0119539Y0116133D02*
X0110929Y0116133D01*
X0110929Y0113140D02*
X0118172Y0113140D01*
X0118420Y0112542D02*
X0110929Y0112542D01*
X0110929Y0111943D02*
X0118830Y0111943D01*
X0119594Y0111345D02*
X0110929Y0111345D01*
X0110929Y0110746D02*
X0121300Y0110746D01*
X0121899Y0110148D02*
X0110929Y0110148D01*
X0110929Y0109549D02*
X0122042Y0109549D01*
X0122042Y0108951D02*
X0110929Y0108951D01*
X0110929Y0108352D02*
X0122042Y0108352D01*
X0122042Y0107753D02*
X0110929Y0107753D01*
X0110929Y0107155D02*
X0122042Y0107155D01*
X0122042Y0106556D02*
X0110929Y0106556D01*
X0110929Y0105958D02*
X0122042Y0105958D01*
X0122042Y0105359D02*
X0110929Y0105359D01*
X0110929Y0104761D02*
X0122042Y0104761D01*
X0122042Y0104162D02*
X0110929Y0104162D01*
X0110929Y0103564D02*
X0122042Y0103564D01*
X0122042Y0102965D02*
X0110929Y0102965D01*
X0110929Y0102367D02*
X0121640Y0102367D01*
X0121341Y0101768D02*
X0110929Y0101768D01*
X0110929Y0101170D02*
X0121142Y0101170D01*
X0121142Y0100571D02*
X0110929Y0100571D01*
X0110929Y0099973D02*
X0121241Y0099973D01*
X0121489Y0099374D02*
X0110929Y0099374D01*
X0111237Y0094586D02*
X0133132Y0094586D01*
X0133842Y0092750D02*
X0149855Y0108763D01*
X0152452Y0109549D02*
X0162338Y0109549D01*
X0154842Y0102878D02*
X0154842Y0102580D01*
X0141511Y0089250D01*
X0092842Y0089250D01*
X0092342Y0092750D02*
X0133842Y0092750D01*
X0123842Y0100750D02*
X0123842Y0110750D01*
X0100706Y0103115D02*
X0100706Y0119385D01*
X0096842Y0123250D01*
X0085921Y0112329D01*
X0085921Y0105769D01*
X0076327Y0100571D02*
X0048309Y0100571D01*
X0048883Y0099973D02*
X0073746Y0099973D01*
X0073148Y0099374D02*
X0049131Y0099374D01*
X0049277Y0098776D02*
X0072844Y0098776D01*
X0072642Y0098177D02*
X0049430Y0098177D01*
X0050028Y0097579D02*
X0072642Y0097579D01*
X0072738Y0096980D02*
X0050627Y0096980D01*
X0051225Y0096382D02*
X0072986Y0096382D01*
X0073490Y0095783D02*
X0051824Y0095783D01*
X0052422Y0095185D02*
X0073542Y0095185D01*
X0073542Y0094586D02*
X0053021Y0094586D01*
X0053620Y0093988D02*
X0073542Y0093988D01*
X0073542Y0093389D02*
X0054218Y0093389D01*
X0054817Y0092791D02*
X0073542Y0092791D01*
X0073542Y0092192D02*
X0055415Y0092192D01*
X0056014Y0091594D02*
X0073542Y0091594D01*
X0073542Y0090995D02*
X0056612Y0090995D01*
X0057211Y0090397D02*
X0073542Y0090397D01*
X0073542Y0089798D02*
X0057809Y0089798D01*
X0058408Y0089200D02*
X0073542Y0089200D01*
X0073542Y0088601D02*
X0059006Y0088601D01*
X0059605Y0088003D02*
X0073542Y0088003D01*
X0073542Y0087404D02*
X0060203Y0087404D01*
X0060802Y0086806D02*
X0073542Y0086806D01*
X0073542Y0086207D02*
X0061400Y0086207D01*
X0061642Y0085609D02*
X0073542Y0085609D01*
X0074036Y0085010D02*
X0061642Y0085010D01*
X0061642Y0084412D02*
X0074635Y0084412D01*
X0075233Y0083813D02*
X0061642Y0083813D01*
X0061642Y0083215D02*
X0075832Y0083215D01*
X0076142Y0082616D02*
X0061642Y0082616D01*
X0061642Y0082018D02*
X0076223Y0082018D01*
X0076471Y0081419D02*
X0061642Y0081419D01*
X0061642Y0080820D02*
X0076953Y0080820D01*
X0077890Y0080222D02*
X0061642Y0080222D01*
X0056842Y0077750D02*
X0040842Y0093750D01*
X0038342Y0093750D01*
X0038342Y0103250D02*
X0038342Y0103750D01*
X0038342Y0103250D02*
X0056842Y0084750D01*
X0045908Y0073638D02*
X0043542Y0073638D01*
X0043542Y0073040D02*
X0046506Y0073040D01*
X0047105Y0072441D02*
X0043428Y0072441D01*
X0043180Y0071843D02*
X0047703Y0071843D01*
X0048302Y0071244D02*
X0042932Y0071244D01*
X0042592Y0070646D02*
X0048900Y0070646D01*
X0049499Y0070047D02*
X0041993Y0070047D01*
X0041394Y0069449D02*
X0055342Y0069449D01*
X0056842Y0071750D02*
X0050342Y0071750D01*
X0038342Y0083750D01*
X0040640Y0078426D02*
X0041120Y0078426D01*
X0041618Y0077828D02*
X0041718Y0077828D01*
X0042216Y0077229D02*
X0042317Y0077229D01*
X0042777Y0076631D02*
X0042915Y0076631D01*
X0043025Y0076032D02*
X0043514Y0076032D01*
X0043273Y0075434D02*
X0044112Y0075434D01*
X0043521Y0074835D02*
X0044711Y0074835D01*
X0045309Y0074237D02*
X0043542Y0074237D01*
X0040101Y0068850D02*
X0058042Y0068850D01*
X0058042Y0068252D02*
X0040520Y0068252D01*
X0041476Y0067653D02*
X0058042Y0067653D01*
X0058042Y0067055D02*
X0042108Y0067055D01*
X0042556Y0066456D02*
X0058042Y0066456D01*
X0058042Y0065858D02*
X0042880Y0065858D01*
X0043109Y0065259D02*
X0058042Y0065259D01*
X0058042Y0064661D02*
X0043260Y0064661D01*
X0043342Y0064062D02*
X0058042Y0064062D01*
X0058042Y0063464D02*
X0038642Y0063464D01*
X0041512Y0059873D02*
X0057142Y0059873D01*
X0057142Y0060471D02*
X0042134Y0060471D01*
X0042575Y0061070D02*
X0057259Y0061070D01*
X0057507Y0061668D02*
X0042893Y0061668D01*
X0043117Y0062267D02*
X0058040Y0062267D01*
X0058042Y0062865D02*
X0043264Y0062865D01*
X0040571Y0059274D02*
X0057324Y0059274D01*
X0057598Y0058676D02*
X0040039Y0058676D01*
X0041369Y0058077D02*
X0058196Y0058077D01*
X0046348Y0053750D02*
X0038342Y0053750D01*
X0039944Y0047304D02*
X0035242Y0047304D01*
X0035242Y0046705D02*
X0038510Y0046705D01*
X0037797Y0046107D02*
X0035242Y0046107D01*
X0035242Y0045508D02*
X0037083Y0045508D01*
X0036370Y0044910D02*
X0035242Y0044910D01*
X0035242Y0044311D02*
X0035929Y0044311D01*
X0035584Y0043713D02*
X0035242Y0043713D01*
X0079688Y0041596D02*
X0118342Y0080250D01*
X0121042Y0080222D02*
X0206442Y0080222D01*
X0206442Y0080820D02*
X0121028Y0080820D01*
X0120780Y0081419D02*
X0206442Y0081419D01*
X0206442Y0082018D02*
X0120393Y0082018D01*
X0119685Y0082616D02*
X0206442Y0082616D01*
X0206442Y0083215D02*
X0087023Y0083215D01*
X0105298Y0064661D02*
X0206442Y0064661D01*
X0206442Y0065259D02*
X0105897Y0065259D01*
X0106495Y0065858D02*
X0206442Y0065858D01*
X0206442Y0066456D02*
X0107094Y0066456D01*
X0107692Y0067055D02*
X0206442Y0067055D01*
X0206442Y0067653D02*
X0108291Y0067653D01*
X0108889Y0068252D02*
X0206442Y0068252D01*
X0206442Y0068850D02*
X0109488Y0068850D01*
X0110086Y0069449D02*
X0206442Y0069449D01*
X0206442Y0070047D02*
X0110685Y0070047D01*
X0111283Y0070646D02*
X0206442Y0070646D01*
X0206442Y0071244D02*
X0111882Y0071244D01*
X0112480Y0071843D02*
X0206442Y0071843D01*
X0206442Y0072441D02*
X0113079Y0072441D01*
X0113677Y0073040D02*
X0206442Y0073040D01*
X0206442Y0073638D02*
X0114276Y0073638D01*
X0114874Y0074237D02*
X0206442Y0074237D01*
X0206442Y0074835D02*
X0115473Y0074835D01*
X0116071Y0075434D02*
X0206442Y0075434D01*
X0206442Y0076032D02*
X0116670Y0076032D01*
X0117268Y0076631D02*
X0206442Y0076631D01*
X0206442Y0077229D02*
X0117867Y0077229D01*
X0119550Y0077828D02*
X0206442Y0077828D01*
X0206442Y0078426D02*
X0120337Y0078426D01*
X0120757Y0079025D02*
X0206442Y0079025D01*
X0206442Y0079623D02*
X0121005Y0079623D01*
X0104700Y0064062D02*
X0206442Y0064062D01*
X0206442Y0063464D02*
X0104101Y0063464D01*
X0103503Y0062865D02*
X0206442Y0062865D01*
X0206442Y0062267D02*
X0102904Y0062267D01*
X0102305Y0061668D02*
X0206442Y0061668D01*
X0206442Y0061070D02*
X0101707Y0061070D01*
X0101108Y0060471D02*
X0206442Y0060471D01*
X0206442Y0059873D02*
X0100510Y0059873D01*
X0099911Y0059274D02*
X0206442Y0059274D01*
X0206442Y0058676D02*
X0099313Y0058676D01*
X0098714Y0058077D02*
X0206442Y0058077D01*
X0206442Y0057479D02*
X0098116Y0057479D01*
X0097517Y0056880D02*
X0206442Y0056880D01*
X0206442Y0056282D02*
X0096919Y0056282D01*
X0096320Y0055683D02*
X0206442Y0055683D01*
X0212242Y0049099D02*
X0212981Y0049099D01*
X0212242Y0048501D02*
X0261047Y0048501D01*
X0260449Y0047902D02*
X0222095Y0047902D01*
X0223739Y0047304D02*
X0259850Y0047304D01*
X0259252Y0046705D02*
X0225174Y0046705D01*
X0225887Y0046107D02*
X0258653Y0046107D01*
X0258055Y0045508D02*
X0226600Y0045508D01*
X0227313Y0044910D02*
X0257456Y0044910D01*
X0256858Y0044311D02*
X0227754Y0044311D01*
X0227498Y0044755D02*
X0227498Y0044755D01*
X0228100Y0043713D02*
X0256259Y0043713D01*
X0255661Y0043114D02*
X0228445Y0043114D01*
X0228791Y0042516D02*
X0254982Y0042516D01*
X0254393Y0041917D02*
X0229125Y0041917D01*
X0229120Y0041945D02*
X0229120Y0041945D01*
X0229231Y0041319D02*
X0254145Y0041319D01*
X0253988Y0040720D02*
X0229336Y0040720D01*
X0229442Y0040122D02*
X0253988Y0040122D01*
X0254130Y0039523D02*
X0229547Y0039523D01*
X0229653Y0038925D02*
X0254378Y0038925D01*
X0254947Y0038326D02*
X0229609Y0038326D01*
X0229684Y0038750D02*
X0229684Y0038750D01*
X0229503Y0037728D02*
X0256093Y0037728D01*
X0257284Y0037728D02*
X0383442Y0037728D01*
X0383442Y0038326D02*
X0258429Y0038326D01*
X0258998Y0038925D02*
X0383442Y0038925D01*
X0383442Y0039523D02*
X0259246Y0039523D01*
X0259388Y0040122D02*
X0383442Y0040122D01*
X0383442Y0040720D02*
X0259388Y0040720D01*
X0259232Y0041319D02*
X0383442Y0041319D01*
X0383442Y0041917D02*
X0259555Y0041917D01*
X0260153Y0042516D02*
X0383442Y0042516D01*
X0383442Y0043114D02*
X0260752Y0043114D01*
X0261350Y0043713D02*
X0383442Y0043713D01*
X0383442Y0044311D02*
X0261949Y0044311D01*
X0262547Y0044910D02*
X0383442Y0044910D01*
X0383442Y0045508D02*
X0263146Y0045508D01*
X0263744Y0046107D02*
X0383442Y0046107D01*
X0383442Y0046705D02*
X0264343Y0046705D01*
X0264941Y0047304D02*
X0383442Y0047304D01*
X0383442Y0047902D02*
X0265540Y0047902D01*
X0266138Y0048501D02*
X0383442Y0048501D01*
X0383442Y0049099D02*
X0266737Y0049099D01*
X0267335Y0049698D02*
X0383442Y0049698D01*
X0383442Y0050296D02*
X0267934Y0050296D01*
X0268532Y0050895D02*
X0383442Y0050895D01*
X0383442Y0051493D02*
X0269131Y0051493D01*
X0269729Y0052092D02*
X0383442Y0052092D01*
X0383442Y0052690D02*
X0270328Y0052690D01*
X0270926Y0053289D02*
X0383442Y0053289D01*
X0383442Y0053887D02*
X0271525Y0053887D01*
X0272123Y0054486D02*
X0383442Y0054486D01*
X0383442Y0055084D02*
X0272722Y0055084D01*
X0273320Y0055683D02*
X0383442Y0055683D01*
X0383442Y0056282D02*
X0273919Y0056282D01*
X0274517Y0056880D02*
X0383442Y0056880D01*
X0383442Y0057479D02*
X0275116Y0057479D01*
X0275714Y0058077D02*
X0383442Y0058077D01*
X0383442Y0058676D02*
X0276313Y0058676D01*
X0276911Y0059274D02*
X0383442Y0059274D01*
X0383442Y0059873D02*
X0277510Y0059873D01*
X0278108Y0060471D02*
X0383442Y0060471D01*
X0383442Y0061070D02*
X0278707Y0061070D01*
X0279305Y0061668D02*
X0383442Y0061668D01*
X0383442Y0062267D02*
X0279904Y0062267D01*
X0280503Y0062865D02*
X0383442Y0062865D01*
X0383442Y0063464D02*
X0281101Y0063464D01*
X0281700Y0064062D02*
X0383442Y0064062D01*
X0383442Y0064661D02*
X0282298Y0064661D01*
X0282897Y0065259D02*
X0383442Y0065259D01*
X0383442Y0065858D02*
X0283495Y0065858D01*
X0284094Y0066456D02*
X0383442Y0066456D01*
X0383442Y0067055D02*
X0284692Y0067055D01*
X0285291Y0067653D02*
X0383442Y0067653D01*
X0383442Y0068252D02*
X0285889Y0068252D01*
X0286488Y0068850D02*
X0383442Y0068850D01*
X0383442Y0069449D02*
X0287086Y0069449D01*
X0287685Y0070047D02*
X0383442Y0070047D01*
X0383442Y0070646D02*
X0288283Y0070646D01*
X0288882Y0071244D02*
X0383442Y0071244D01*
X0383442Y0071843D02*
X0289480Y0071843D01*
X0290079Y0072441D02*
X0383442Y0072441D01*
X0383442Y0073040D02*
X0290677Y0073040D01*
X0291276Y0073638D02*
X0383442Y0073638D01*
X0383442Y0074237D02*
X0291874Y0074237D01*
X0292473Y0074835D02*
X0383442Y0074835D01*
X0383442Y0075434D02*
X0293071Y0075434D01*
X0293670Y0076032D02*
X0383442Y0076032D01*
X0383442Y0076631D02*
X0294268Y0076631D01*
X0294867Y0077229D02*
X0383442Y0077229D01*
X0383442Y0077828D02*
X0296550Y0077828D01*
X0297337Y0078426D02*
X0383442Y0078426D01*
X0383442Y0079025D02*
X0297757Y0079025D01*
X0298005Y0079623D02*
X0383442Y0079623D01*
X0383442Y0080222D02*
X0298042Y0080222D01*
X0298028Y0080820D02*
X0383442Y0080820D01*
X0383442Y0081419D02*
X0297780Y0081419D01*
X0297393Y0082018D02*
X0383442Y0082018D01*
X0383442Y0082616D02*
X0296685Y0082616D01*
X0295342Y0080250D02*
X0256688Y0041596D01*
X0256688Y0040404D01*
X0229398Y0037129D02*
X0383442Y0037129D01*
X0383442Y0036531D02*
X0229292Y0036531D01*
X0229187Y0035932D02*
X0383442Y0035932D01*
X0383442Y0035334D02*
X0228993Y0035334D01*
X0229120Y0035555D02*
X0229120Y0035555D01*
X0228647Y0034735D02*
X0383442Y0034735D01*
X0383442Y0034137D02*
X0228301Y0034137D01*
X0227956Y0033538D02*
X0381241Y0033538D01*
X0380642Y0032940D02*
X0227610Y0032940D01*
X0227017Y0032341D02*
X0380317Y0032341D01*
X0380092Y0031743D02*
X0226303Y0031743D01*
X0225590Y0031144D02*
X0380092Y0031144D01*
X0318511Y0089250D02*
X0269842Y0089250D01*
X0261679Y0093750D02*
X0255842Y0099587D01*
X0259921Y0105750D02*
X0259970Y0105750D01*
X0260695Y0108352D02*
X0261121Y0108352D01*
X0259147Y0108352D02*
X0257115Y0108352D01*
X0277706Y0103115D02*
X0277706Y0119385D01*
X0273842Y0123250D01*
X0275126Y0124512D02*
X0284329Y0124512D01*
X0284329Y0125110D02*
X0274527Y0125110D01*
X0273929Y0125709D02*
X0284329Y0125709D01*
X0284329Y0126307D02*
X0273330Y0126307D01*
X0272732Y0126906D02*
X0284329Y0126906D01*
X0284329Y0127504D02*
X0272133Y0127504D01*
X0271542Y0128103D02*
X0284329Y0128103D01*
X0284329Y0128701D02*
X0271542Y0128701D01*
X0271329Y0129300D02*
X0284329Y0129300D01*
X0284329Y0129898D02*
X0271012Y0129898D01*
X0270413Y0130497D02*
X0284329Y0130497D01*
X0284329Y0123913D02*
X0275724Y0123913D01*
X0276323Y0123315D02*
X0284329Y0123315D01*
X0284329Y0122716D02*
X0276921Y0122716D01*
X0277520Y0122118D02*
X0284329Y0122118D01*
X0284329Y0121519D02*
X0278118Y0121519D01*
X0278717Y0120921D02*
X0284329Y0120921D01*
X0284329Y0120322D02*
X0279315Y0120322D01*
X0279506Y0119724D02*
X0284329Y0119724D01*
X0284329Y0119125D02*
X0279506Y0119125D01*
X0279506Y0118527D02*
X0284329Y0118527D01*
X0284329Y0117928D02*
X0279506Y0117928D01*
X0279506Y0117330D02*
X0284329Y0117330D01*
X0284329Y0116731D02*
X0279506Y0116731D01*
X0279506Y0116133D02*
X0284329Y0116133D01*
X0284329Y0115534D02*
X0279506Y0115534D01*
X0279506Y0114936D02*
X0284329Y0114936D01*
X0284329Y0114337D02*
X0279506Y0114337D01*
X0279506Y0113739D02*
X0284329Y0113739D01*
X0284329Y0113140D02*
X0279506Y0113140D01*
X0279506Y0112542D02*
X0284329Y0112542D01*
X0284329Y0111943D02*
X0279506Y0111943D01*
X0279506Y0111345D02*
X0284329Y0111345D01*
X0284329Y0110746D02*
X0279506Y0110746D01*
X0279506Y0110148D02*
X0284329Y0110148D01*
X0284329Y0109549D02*
X0279506Y0109549D01*
X0279506Y0108951D02*
X0284329Y0108951D01*
X0284329Y0108352D02*
X0279506Y0108352D01*
X0279506Y0107753D02*
X0284329Y0107753D01*
X0284329Y0107155D02*
X0279506Y0107155D01*
X0279506Y0106556D02*
X0284329Y0106556D01*
X0284329Y0105958D02*
X0279506Y0105958D01*
X0279506Y0105359D02*
X0284329Y0105359D01*
X0284329Y0104761D02*
X0279878Y0104761D01*
X0280195Y0104162D02*
X0284329Y0104162D01*
X0284329Y0103564D02*
X0280406Y0103564D01*
X0280406Y0102965D02*
X0284329Y0102965D01*
X0284329Y0102367D02*
X0280730Y0102367D01*
X0281328Y0101768D02*
X0284329Y0101768D01*
X0284329Y0101170D02*
X0281927Y0101170D01*
X0282525Y0100571D02*
X0284329Y0100571D01*
X0284329Y0099973D02*
X0283124Y0099973D01*
X0283722Y0099374D02*
X0284329Y0099374D01*
X0284321Y0098776D02*
X0284329Y0098776D01*
X0300842Y0100750D02*
X0300842Y0110750D01*
X0297842Y0113750D01*
X0300542Y0113739D02*
X0302642Y0113739D01*
X0302663Y0114337D02*
X0300521Y0114337D01*
X0300273Y0114936D02*
X0302910Y0114936D01*
X0303308Y0115534D02*
X0299876Y0115534D01*
X0299145Y0116133D02*
X0304039Y0116133D01*
X0306645Y0116133D02*
X0309444Y0116133D01*
X0310042Y0115534D02*
X0307376Y0115534D01*
X0307773Y0114936D02*
X0310641Y0114936D01*
X0308021Y0114337D02*
X0325709Y0114337D01*
X0326308Y0113739D02*
X0308042Y0113739D01*
X0308012Y0113140D02*
X0326906Y0113140D01*
X0327505Y0112542D02*
X0307764Y0112542D01*
X0307353Y0111943D02*
X0327642Y0111943D01*
X0327678Y0111345D02*
X0327794Y0111345D01*
X0326032Y0111345D02*
X0307142Y0111345D01*
X0305342Y0113750D02*
X0305342Y0100250D01*
X0303542Y0101170D02*
X0303542Y0101170D01*
X0303542Y0101768D02*
X0303342Y0101768D01*
X0303542Y0102367D02*
X0303043Y0102367D01*
X0302642Y0102965D02*
X0303542Y0102965D01*
X0303542Y0103564D02*
X0302642Y0103564D01*
X0302642Y0104162D02*
X0303542Y0104162D01*
X0303542Y0104761D02*
X0302642Y0104761D01*
X0302642Y0105359D02*
X0303542Y0105359D01*
X0303542Y0105958D02*
X0302642Y0105958D01*
X0302642Y0106556D02*
X0303542Y0106556D01*
X0303542Y0107155D02*
X0302642Y0107155D01*
X0302642Y0107753D02*
X0303542Y0107753D01*
X0303542Y0108352D02*
X0302642Y0108352D01*
X0302642Y0108951D02*
X0303542Y0108951D01*
X0303542Y0109549D02*
X0302642Y0109549D01*
X0302642Y0110148D02*
X0303542Y0110148D01*
X0303542Y0110746D02*
X0302642Y0110746D01*
X0302642Y0111345D02*
X0303542Y0111345D01*
X0303330Y0111943D02*
X0302194Y0111943D01*
X0301596Y0112542D02*
X0302920Y0112542D01*
X0302672Y0113140D02*
X0300997Y0113140D01*
X0309842Y0118250D02*
X0274342Y0153750D01*
X0303133Y0127504D02*
X0318551Y0127504D01*
X0317952Y0126906D02*
X0303732Y0126906D01*
X0304330Y0126307D02*
X0317354Y0126307D01*
X0316755Y0125709D02*
X0304929Y0125709D01*
X0305527Y0125110D02*
X0316157Y0125110D01*
X0315558Y0124512D02*
X0306126Y0124512D01*
X0306724Y0123913D02*
X0314960Y0123913D01*
X0314361Y0123315D02*
X0307323Y0123315D01*
X0307921Y0122716D02*
X0313763Y0122716D01*
X0313164Y0122118D02*
X0308520Y0122118D01*
X0309118Y0121519D02*
X0312565Y0121519D01*
X0310694Y0120921D02*
X0309717Y0120921D01*
X0309842Y0118250D02*
X0309872Y0118250D01*
X0329342Y0117250D02*
X0331925Y0119833D01*
X0331925Y0123833D01*
X0334028Y0122118D02*
X0334565Y0122118D01*
X0335164Y0121519D02*
X0333725Y0121519D01*
X0333725Y0120921D02*
X0335762Y0120921D01*
X0336361Y0120322D02*
X0333725Y0120322D01*
X0337861Y0123913D02*
X0339687Y0123913D01*
X0339338Y0109549D02*
X0329452Y0109549D01*
X0331842Y0102878D02*
X0331842Y0102580D01*
X0318511Y0089250D01*
X0331842Y0102378D02*
X0331842Y0102878D01*
X0383442Y0159824D02*
X0222717Y0159824D01*
X0224361Y0160422D02*
X0383442Y0160422D01*
X0383442Y0161021D02*
X0225443Y0161021D01*
X0225013Y0160660D02*
X0225013Y0160660D01*
X0226157Y0161620D02*
X0383442Y0161620D01*
X0383442Y0162218D02*
X0226870Y0162218D01*
X0227539Y0162817D02*
X0383442Y0162817D01*
X0383442Y0163415D02*
X0227885Y0163415D01*
X0228230Y0164014D02*
X0383442Y0164014D01*
X0383442Y0164612D02*
X0228576Y0164612D01*
X0228922Y0165211D02*
X0383442Y0165211D01*
X0383442Y0165809D02*
X0229165Y0165809D01*
X0229120Y0165555D02*
X0229120Y0165555D01*
X0229271Y0166408D02*
X0383442Y0166408D01*
X0383442Y0167006D02*
X0229376Y0167006D01*
X0229482Y0167605D02*
X0383442Y0167605D01*
X0383442Y0168203D02*
X0229587Y0168203D01*
X0229684Y0168750D02*
X0229684Y0168750D01*
X0229675Y0168802D02*
X0383442Y0168802D01*
X0383442Y0169400D02*
X0229569Y0169400D01*
X0229464Y0169999D02*
X0383442Y0169999D01*
X0383442Y0170597D02*
X0229358Y0170597D01*
X0229252Y0171196D02*
X0383442Y0171196D01*
X0383442Y0171794D02*
X0229147Y0171794D01*
X0229120Y0171945D02*
X0229120Y0171945D01*
X0228862Y0172393D02*
X0383442Y0172393D01*
X0383442Y0172991D02*
X0228516Y0172991D01*
X0228171Y0173590D02*
X0383442Y0173590D01*
X0383442Y0174188D02*
X0227825Y0174188D01*
X0227498Y0174755D02*
X0227498Y0174755D01*
X0227460Y0174787D02*
X0383442Y0174787D01*
X0383442Y0175385D02*
X0226747Y0175385D01*
X0226034Y0175984D02*
X0383442Y0175984D01*
X0383442Y0176582D02*
X0225320Y0176582D01*
X0224986Y0182650D02*
X0225013Y0182660D01*
X0227498Y0184745D01*
X0227498Y0184745D01*
X0227498Y0184745D01*
X0229120Y0187555D01*
X0229684Y0190750D01*
X0229120Y0193945D01*
X0227498Y0196755D01*
X0225013Y0198840D01*
X0225013Y0198840D01*
X0221964Y0199950D01*
X0218720Y0199950D01*
X0215671Y0198840D01*
X0213185Y0196755D01*
X0212242Y0195120D01*
X0212242Y0201496D01*
X0212396Y0201342D01*
X0214307Y0200550D01*
X0216376Y0200550D01*
X0218287Y0201342D01*
X0219750Y0202804D01*
X0220225Y0203950D01*
X0224094Y0203950D01*
X0225148Y0205004D01*
X0225148Y0206496D01*
X0224094Y0207550D01*
X0220225Y0207550D01*
X0219750Y0208696D01*
X0218287Y0210158D01*
X0216540Y0210882D01*
X0217261Y0211116D01*
X0217962Y0211474D01*
X0218599Y0211936D01*
X0219156Y0212493D01*
X0234142Y0212493D01*
X0234142Y0212787D02*
X0234142Y0211713D01*
X0234553Y0210721D01*
X0235312Y0209961D01*
X0236305Y0209550D01*
X0237379Y0209550D01*
X0238371Y0209961D01*
X0239131Y0210721D01*
X0239542Y0211713D01*
X0239542Y0212787D01*
X0239131Y0213779D01*
X0238642Y0214268D01*
X0238642Y0237965D01*
X0237587Y0239020D01*
X0226277Y0250331D01*
X0226277Y0251022D01*
X0225866Y0252014D01*
X0225106Y0252774D01*
X0224114Y0253185D01*
X0223040Y0253185D01*
X0222047Y0252774D01*
X0221288Y0252014D01*
X0221240Y0251898D01*
X0219921Y0253217D01*
X0220542Y0254716D01*
X0220542Y0256784D01*
X0219750Y0258696D01*
X0218287Y0260158D01*
X0216859Y0260750D01*
X0218287Y0261342D01*
X0219750Y0262804D01*
X0220542Y0264716D01*
X0220542Y0266784D01*
X0219750Y0268696D01*
X0218287Y0270158D01*
X0216859Y0270750D01*
X0218287Y0271342D01*
X0219750Y0272804D01*
X0220542Y0274716D01*
X0220542Y0276784D01*
X0219750Y0278696D01*
X0218287Y0280158D01*
X0216859Y0280750D01*
X0218287Y0281342D01*
X0219750Y0282804D01*
X0220542Y0284716D01*
X0220542Y0286784D01*
X0219750Y0288696D01*
X0218287Y0290158D01*
X0216859Y0290750D01*
X0218287Y0291342D01*
X0219750Y0292804D01*
X0220542Y0294716D01*
X0220542Y0296784D01*
X0219750Y0298696D01*
X0218287Y0300158D01*
X0216859Y0300750D01*
X0218287Y0301342D01*
X0219750Y0302804D01*
X0220225Y0303950D01*
X0273596Y0303950D01*
X0309096Y0268450D01*
X0309126Y0268450D01*
X0310057Y0267519D01*
X0311111Y0266465D01*
X0325581Y0266465D01*
X0327642Y0264404D01*
X0327642Y0263713D01*
X0327819Y0263286D01*
X0327392Y0263463D01*
X0326318Y0263463D01*
X0325325Y0263052D01*
X0324566Y0262292D01*
X0324155Y0261300D01*
X0324155Y0260609D01*
X0310096Y0246550D01*
X0288237Y0246550D01*
X0288237Y0247552D01*
X0287929Y0248294D01*
X0287929Y0283732D01*
X0288418Y0284221D01*
X0288829Y0285213D01*
X0288829Y0286287D01*
X0288418Y0287279D01*
X0287659Y0288039D01*
X0286666Y0288450D01*
X0285592Y0288450D01*
X0284600Y0288039D01*
X0283840Y0287279D01*
X0283429Y0286287D01*
X0283429Y0285213D01*
X0283840Y0284221D01*
X0284329Y0283732D01*
X0284329Y0250767D01*
X0281337Y0253760D01*
X0280406Y0254690D01*
X0280406Y0255652D01*
X0279995Y0256644D01*
X0279506Y0257133D01*
X0279506Y0272131D01*
X0275642Y0275996D01*
X0274587Y0277050D01*
X0271542Y0280096D01*
X0271542Y0280787D01*
X0271131Y0281779D01*
X0270371Y0282539D01*
X0269379Y0282950D01*
X0268305Y0282950D01*
X0267312Y0282539D01*
X0266553Y0281779D01*
X0266142Y0280787D01*
X0266142Y0279713D01*
X0266553Y0278721D01*
X0267312Y0277961D01*
X0268305Y0277550D01*
X0268996Y0277550D01*
X0271296Y0275250D01*
X0261121Y0265075D01*
X0261121Y0260175D01*
X0260458Y0260450D01*
X0259384Y0260450D01*
X0258392Y0260039D01*
X0258131Y0259779D01*
X0257871Y0260039D01*
X0256879Y0260450D01*
X0255805Y0260450D01*
X0254812Y0260039D01*
X0254053Y0259279D01*
X0253642Y0258287D01*
X0253642Y0257213D01*
X0254053Y0256221D01*
X0254812Y0255461D01*
X0255805Y0255050D01*
X0256496Y0255050D01*
X0263450Y0248096D01*
X0263312Y0248039D01*
X0262823Y0247550D01*
X0262424Y0247550D01*
X0258542Y0251433D01*
X0258542Y0252124D01*
X0258131Y0253116D01*
X0257371Y0253876D01*
X0256379Y0254287D01*
X0255305Y0254287D01*
X0254312Y0253876D01*
X0253553Y0253116D01*
X0253219Y0252309D01*
X0252879Y0252450D01*
X0251805Y0252450D01*
X0250812Y0252039D01*
X0250053Y0251279D01*
X0249642Y0250287D01*
X0249642Y0249213D01*
X0250053Y0248221D01*
X0250542Y0247732D01*
X0250542Y0237504D01*
X0251596Y0236450D01*
X0253142Y0234904D01*
X0253142Y0234213D01*
X0253553Y0233221D01*
X0254312Y0232461D01*
X0255305Y0232050D01*
X0256379Y0232050D01*
X0257371Y0232461D01*
X0258131Y0233221D01*
X0258542Y0234213D01*
X0258542Y0235287D01*
X0258317Y0235829D01*
X0274742Y0219404D01*
X0274742Y0218713D01*
X0275153Y0217721D01*
X0275912Y0216961D01*
X0276905Y0216550D01*
X0277096Y0216550D01*
X0255295Y0194749D01*
X0255159Y0194692D01*
X0254399Y0193933D01*
X0253988Y0192941D01*
X0253988Y0191866D01*
X0254399Y0190874D01*
X0255159Y0190115D01*
X0256151Y0189704D01*
X0257225Y0189704D01*
X0258218Y0190115D01*
X0258977Y0190874D01*
X0259388Y0191866D01*
X0259388Y0192941D01*
X0259151Y0193514D01*
X0295187Y0229550D01*
X0295879Y0229550D01*
X0296871Y0229961D01*
X0297631Y0230721D01*
X0298042Y0231713D01*
X0298042Y0232787D01*
X0297631Y0233779D01*
X0296871Y0234539D01*
X0295879Y0234950D01*
X0294805Y0234950D01*
X0293812Y0234539D01*
X0293053Y0233779D01*
X0292642Y0232787D01*
X0292642Y0232096D01*
X0280142Y0219596D01*
X0280142Y0219787D01*
X0279731Y0220779D01*
X0278971Y0221539D01*
X0277979Y0221950D01*
X0277287Y0221950D01*
X0259676Y0239561D01*
X0260371Y0239849D01*
X0261131Y0240609D01*
X0261521Y0241550D01*
X0267142Y0241550D01*
X0267142Y0240713D01*
X0267209Y0240550D01*
X0266860Y0240550D01*
X0266371Y0241039D01*
X0265379Y0241450D01*
X0264305Y0241450D01*
X0263312Y0241039D01*
X0262553Y0240279D01*
X0262142Y0239287D01*
X0262142Y0238213D01*
X0262553Y0237221D01*
X0263312Y0236461D01*
X0264305Y0236050D01*
X0265379Y0236050D01*
X0266371Y0236461D01*
X0266860Y0236950D01*
X0324087Y0236950D01*
X0325142Y0238004D01*
X0340687Y0253550D01*
X0341379Y0253550D01*
X0342371Y0253961D01*
X0343131Y0254721D01*
X0343542Y0255713D01*
X0343542Y0256787D01*
X0343143Y0257749D01*
X0343543Y0258713D01*
X0343543Y0259787D01*
X0343132Y0260779D01*
X0342372Y0261539D01*
X0341380Y0261950D01*
X0340306Y0261950D01*
X0339313Y0261539D01*
X0338824Y0261050D01*
X0329566Y0261050D01*
X0329555Y0261039D01*
X0329555Y0261300D01*
X0329378Y0261727D01*
X0329805Y0261550D01*
X0330879Y0261550D01*
X0331871Y0261961D01*
X0332631Y0262721D01*
X0333042Y0263713D01*
X0333042Y0264787D01*
X0332631Y0265779D01*
X0331871Y0266539D01*
X0330879Y0266950D01*
X0330844Y0266950D01*
X0330871Y0266961D01*
X0331631Y0267721D01*
X0332042Y0268713D01*
X0332042Y0269404D01*
X0332671Y0270033D01*
X0333725Y0271088D01*
X0333725Y0273815D01*
X0334214Y0274304D01*
X0334262Y0274421D01*
X0336733Y0271950D01*
X0339323Y0271950D01*
X0339812Y0271461D01*
X0340805Y0271050D01*
X0341879Y0271050D01*
X0342871Y0271461D01*
X0343631Y0272221D01*
X0344042Y0273213D01*
X0344042Y0274287D01*
X0343631Y0275279D01*
X0342871Y0276039D01*
X0341879Y0276450D01*
X0340805Y0276450D01*
X0339812Y0276039D01*
X0339323Y0275550D01*
X0338224Y0275550D01*
X0335095Y0278679D01*
X0334041Y0279733D01*
X0318780Y0279733D01*
X0312496Y0273450D01*
X0311805Y0273450D01*
X0310812Y0273039D01*
X0310205Y0272432D01*
X0276142Y0306496D01*
X0275087Y0307550D01*
X0220225Y0307550D01*
X0219750Y0308696D01*
X0218287Y0310158D01*
X0216376Y0310950D01*
X0214307Y0310950D01*
X0212396Y0310158D01*
X0212242Y0310004D01*
X0212242Y0316380D01*
X0213185Y0314745D01*
X0215671Y0312660D01*
X0218720Y0311550D01*
X0221964Y0311550D01*
X0225013Y0312660D01*
X0227498Y0314745D01*
X0227498Y0314745D01*
X0227498Y0314745D01*
X0229120Y0317555D01*
X0229684Y0320750D01*
X0229120Y0323945D01*
X0227498Y0326755D01*
X0225013Y0328840D01*
X0225013Y0328840D01*
X0224986Y0328850D01*
X0383442Y0328850D01*
X0383442Y0185978D01*
X0383389Y0186000D01*
X0382295Y0186000D01*
X0381284Y0185581D01*
X0380510Y0184808D01*
X0380092Y0183797D01*
X0380092Y0182703D01*
X0380114Y0182650D01*
X0224986Y0182650D01*
X0225013Y0182660D02*
X0225013Y0182660D01*
X0225616Y0183166D02*
X0380092Y0183166D01*
X0380092Y0183764D02*
X0226329Y0183764D01*
X0227043Y0184363D02*
X0380326Y0184363D01*
X0380664Y0184961D02*
X0227623Y0184961D01*
X0227969Y0185560D02*
X0381263Y0185560D01*
X0383442Y0186158D02*
X0228314Y0186158D01*
X0228660Y0186757D02*
X0383442Y0186757D01*
X0383442Y0187355D02*
X0229005Y0187355D01*
X0229120Y0187555D02*
X0229120Y0187555D01*
X0229191Y0187954D02*
X0383442Y0187954D01*
X0383442Y0188553D02*
X0229296Y0188553D01*
X0229402Y0189151D02*
X0383442Y0189151D01*
X0383442Y0189750D02*
X0257336Y0189750D01*
X0258451Y0190348D02*
X0383442Y0190348D01*
X0383442Y0190947D02*
X0259007Y0190947D01*
X0259255Y0191545D02*
X0383442Y0191545D01*
X0383442Y0192144D02*
X0259388Y0192144D01*
X0259388Y0192742D02*
X0383442Y0192742D01*
X0383442Y0193341D02*
X0259223Y0193341D01*
X0259577Y0193939D02*
X0383442Y0193939D01*
X0383442Y0194538D02*
X0260175Y0194538D01*
X0260774Y0195136D02*
X0383442Y0195136D01*
X0383442Y0195735D02*
X0261372Y0195735D01*
X0261971Y0196333D02*
X0383442Y0196333D01*
X0383442Y0196932D02*
X0262569Y0196932D01*
X0263168Y0197530D02*
X0383442Y0197530D01*
X0383442Y0198129D02*
X0263766Y0198129D01*
X0264365Y0198727D02*
X0383442Y0198727D01*
X0383442Y0199326D02*
X0264963Y0199326D01*
X0265562Y0199924D02*
X0383442Y0199924D01*
X0383442Y0200523D02*
X0266160Y0200523D01*
X0266759Y0201121D02*
X0383442Y0201121D01*
X0383442Y0201720D02*
X0267357Y0201720D01*
X0267956Y0202318D02*
X0383442Y0202318D01*
X0383442Y0202917D02*
X0268554Y0202917D01*
X0269153Y0203515D02*
X0383442Y0203515D01*
X0383442Y0204114D02*
X0269751Y0204114D01*
X0270350Y0204712D02*
X0383442Y0204712D01*
X0383442Y0205311D02*
X0270948Y0205311D01*
X0271547Y0205909D02*
X0383442Y0205909D01*
X0383442Y0206508D02*
X0272145Y0206508D01*
X0272744Y0207106D02*
X0383442Y0207106D01*
X0383442Y0207705D02*
X0273342Y0207705D01*
X0273941Y0208303D02*
X0383442Y0208303D01*
X0383442Y0208902D02*
X0274539Y0208902D01*
X0275138Y0209500D02*
X0383442Y0209500D01*
X0383442Y0210099D02*
X0275736Y0210099D01*
X0276335Y0210697D02*
X0383442Y0210697D01*
X0383442Y0211296D02*
X0276933Y0211296D01*
X0277532Y0211894D02*
X0383442Y0211894D01*
X0383442Y0212493D02*
X0278130Y0212493D01*
X0278729Y0213091D02*
X0383442Y0213091D01*
X0383442Y0213690D02*
X0279327Y0213690D01*
X0279926Y0214289D02*
X0383442Y0214289D01*
X0383442Y0214887D02*
X0280524Y0214887D01*
X0281123Y0215486D02*
X0383442Y0215486D01*
X0383442Y0216084D02*
X0281721Y0216084D01*
X0282320Y0216683D02*
X0383442Y0216683D01*
X0383442Y0217281D02*
X0282918Y0217281D01*
X0283517Y0217880D02*
X0383442Y0217880D01*
X0383442Y0218478D02*
X0284115Y0218478D01*
X0284714Y0219077D02*
X0383442Y0219077D01*
X0383442Y0219675D02*
X0285312Y0219675D01*
X0285911Y0220274D02*
X0383442Y0220274D01*
X0383442Y0220872D02*
X0286510Y0220872D01*
X0287108Y0221471D02*
X0383442Y0221471D01*
X0383442Y0222069D02*
X0287707Y0222069D01*
X0288305Y0222668D02*
X0383442Y0222668D01*
X0383442Y0223266D02*
X0288904Y0223266D01*
X0289502Y0223865D02*
X0383442Y0223865D01*
X0383442Y0224463D02*
X0290101Y0224463D01*
X0290699Y0225062D02*
X0383442Y0225062D01*
X0383442Y0225660D02*
X0291298Y0225660D01*
X0291896Y0226259D02*
X0383442Y0226259D01*
X0383442Y0226857D02*
X0292495Y0226857D01*
X0293093Y0227456D02*
X0383442Y0227456D01*
X0383442Y0228054D02*
X0293692Y0228054D01*
X0294290Y0228653D02*
X0383442Y0228653D01*
X0383442Y0229251D02*
X0294889Y0229251D01*
X0296603Y0229850D02*
X0383442Y0229850D01*
X0383442Y0230448D02*
X0297358Y0230448D01*
X0297766Y0231047D02*
X0383442Y0231047D01*
X0383442Y0231645D02*
X0298014Y0231645D01*
X0298042Y0232244D02*
X0383442Y0232244D01*
X0383442Y0232842D02*
X0298019Y0232842D01*
X0297771Y0233441D02*
X0383442Y0233441D01*
X0383442Y0234039D02*
X0297371Y0234039D01*
X0296632Y0234638D02*
X0383442Y0234638D01*
X0383442Y0235236D02*
X0264001Y0235236D01*
X0264599Y0234638D02*
X0294051Y0234638D01*
X0293313Y0234039D02*
X0265198Y0234039D01*
X0265797Y0233441D02*
X0292913Y0233441D01*
X0292665Y0232842D02*
X0266395Y0232842D01*
X0266994Y0232244D02*
X0292642Y0232244D01*
X0292192Y0231645D02*
X0267592Y0231645D01*
X0268191Y0231047D02*
X0291593Y0231047D01*
X0290995Y0230448D02*
X0268789Y0230448D01*
X0269388Y0229850D02*
X0290396Y0229850D01*
X0289798Y0229251D02*
X0269986Y0229251D01*
X0270585Y0228653D02*
X0289199Y0228653D01*
X0288601Y0228054D02*
X0271183Y0228054D01*
X0271782Y0227456D02*
X0288002Y0227456D01*
X0287403Y0226857D02*
X0272380Y0226857D01*
X0272979Y0226259D02*
X0286805Y0226259D01*
X0286206Y0225660D02*
X0273577Y0225660D01*
X0274176Y0225062D02*
X0285608Y0225062D01*
X0285009Y0224463D02*
X0274774Y0224463D01*
X0275373Y0223865D02*
X0284411Y0223865D01*
X0283812Y0223266D02*
X0275971Y0223266D01*
X0276570Y0222668D02*
X0283214Y0222668D01*
X0282615Y0222069D02*
X0277168Y0222069D01*
X0279040Y0221471D02*
X0282017Y0221471D01*
X0281418Y0220872D02*
X0279638Y0220872D01*
X0279940Y0220274D02*
X0280820Y0220274D01*
X0280221Y0219675D02*
X0280142Y0219675D01*
X0277442Y0219250D02*
X0255342Y0241350D01*
X0255342Y0246338D01*
X0252342Y0249750D02*
X0252342Y0238250D01*
X0255842Y0234750D01*
X0257753Y0232842D02*
X0261304Y0232842D01*
X0261902Y0232244D02*
X0256847Y0232244D01*
X0258222Y0233441D02*
X0260705Y0233441D01*
X0260107Y0234039D02*
X0258470Y0234039D01*
X0258542Y0234638D02*
X0259508Y0234638D01*
X0258910Y0235236D02*
X0258542Y0235236D01*
X0261008Y0238229D02*
X0262142Y0238229D01*
X0262142Y0238827D02*
X0260410Y0238827D01*
X0259811Y0239426D02*
X0262199Y0239426D01*
X0262447Y0240024D02*
X0260546Y0240024D01*
X0261137Y0240623D02*
X0262896Y0240623D01*
X0263753Y0241222D02*
X0261385Y0241222D01*
X0260054Y0243350D02*
X0314412Y0243350D01*
X0330312Y0259250D01*
X0340843Y0259250D01*
X0343543Y0259177D02*
X0383442Y0259177D01*
X0383442Y0259775D02*
X0343543Y0259775D01*
X0343300Y0260374D02*
X0383442Y0260374D01*
X0383442Y0260972D02*
X0342939Y0260972D01*
X0342295Y0261571D02*
X0383442Y0261571D01*
X0383442Y0262169D02*
X0332080Y0262169D01*
X0332650Y0262768D02*
X0383442Y0262768D01*
X0383442Y0263366D02*
X0332898Y0263366D01*
X0333042Y0263965D02*
X0383442Y0263965D01*
X0383442Y0264563D02*
X0333042Y0264563D01*
X0332887Y0265162D02*
X0383442Y0265162D01*
X0383442Y0265760D02*
X0332639Y0265760D01*
X0332051Y0266359D02*
X0383442Y0266359D01*
X0383442Y0266958D02*
X0330863Y0266958D01*
X0331466Y0267556D02*
X0383442Y0267556D01*
X0383442Y0268155D02*
X0331810Y0268155D01*
X0332042Y0268753D02*
X0383442Y0268753D01*
X0383442Y0269352D02*
X0332042Y0269352D01*
X0332587Y0269950D02*
X0383442Y0269950D01*
X0383442Y0270549D02*
X0333186Y0270549D01*
X0333725Y0271147D02*
X0340570Y0271147D01*
X0339528Y0271746D02*
X0333725Y0271746D01*
X0333725Y0272344D02*
X0336339Y0272344D01*
X0335740Y0272943D02*
X0333725Y0272943D01*
X0333725Y0273541D02*
X0335142Y0273541D01*
X0334543Y0274140D02*
X0334050Y0274140D01*
X0331925Y0275833D02*
X0331925Y0271833D01*
X0329342Y0269250D01*
X0326327Y0268265D02*
X0330342Y0264250D01*
X0327785Y0263366D02*
X0327625Y0263366D01*
X0327642Y0263965D02*
X0307375Y0263965D01*
X0307142Y0263732D02*
X0307631Y0264221D01*
X0308042Y0265213D01*
X0308042Y0266287D01*
X0307631Y0267279D01*
X0306871Y0268039D01*
X0305879Y0268450D01*
X0304805Y0268450D01*
X0303812Y0268039D01*
X0303053Y0267279D01*
X0302642Y0266287D01*
X0302642Y0265213D01*
X0303053Y0264221D01*
X0303542Y0263732D01*
X0303542Y0252996D01*
X0303542Y0252996D01*
X0303542Y0253287D01*
X0303131Y0254279D01*
X0302642Y0254768D01*
X0302642Y0263496D01*
X0300542Y0265596D01*
X0300542Y0266287D01*
X0300131Y0267279D01*
X0299371Y0268039D01*
X0298379Y0268450D01*
X0297305Y0268450D01*
X0296312Y0268039D01*
X0295553Y0267279D01*
X0295142Y0266287D01*
X0295142Y0265213D01*
X0295553Y0264221D01*
X0296312Y0263461D01*
X0297305Y0263050D01*
X0297996Y0263050D01*
X0299042Y0262004D01*
X0299042Y0254768D01*
X0298553Y0254279D01*
X0298142Y0253287D01*
X0298142Y0252213D01*
X0298553Y0251221D01*
X0299312Y0250461D01*
X0300142Y0250117D01*
X0300142Y0249213D01*
X0300553Y0248221D01*
X0301312Y0247461D01*
X0302305Y0247050D01*
X0303379Y0247050D01*
X0304371Y0247461D01*
X0305131Y0248221D01*
X0305542Y0249213D01*
X0305542Y0249904D01*
X0306087Y0250450D01*
X0307142Y0251504D01*
X0307142Y0263732D01*
X0307142Y0263366D02*
X0326085Y0263366D01*
X0325041Y0262768D02*
X0307142Y0262768D01*
X0307142Y0262169D02*
X0324515Y0262169D01*
X0324267Y0261571D02*
X0307142Y0261571D01*
X0307142Y0260972D02*
X0324155Y0260972D01*
X0323920Y0260374D02*
X0307142Y0260374D01*
X0307142Y0259775D02*
X0323322Y0259775D01*
X0322723Y0259177D02*
X0307142Y0259177D01*
X0307142Y0258578D02*
X0322125Y0258578D01*
X0321526Y0257980D02*
X0307142Y0257980D01*
X0307142Y0257381D02*
X0320928Y0257381D01*
X0320329Y0256783D02*
X0307142Y0256783D01*
X0307142Y0256184D02*
X0319731Y0256184D01*
X0319132Y0255586D02*
X0307142Y0255586D01*
X0307142Y0254987D02*
X0318534Y0254987D01*
X0317935Y0254389D02*
X0307142Y0254389D01*
X0307142Y0253790D02*
X0317336Y0253790D01*
X0316738Y0253192D02*
X0307142Y0253192D01*
X0307142Y0252593D02*
X0316139Y0252593D01*
X0315541Y0251995D02*
X0307142Y0251995D01*
X0307034Y0251396D02*
X0314942Y0251396D01*
X0314344Y0250798D02*
X0306435Y0250798D01*
X0305837Y0250199D02*
X0313745Y0250199D01*
X0313147Y0249601D02*
X0305542Y0249601D01*
X0305454Y0249002D02*
X0312548Y0249002D01*
X0311950Y0248404D02*
X0305207Y0248404D01*
X0304715Y0247805D02*
X0311351Y0247805D01*
X0310753Y0247207D02*
X0303757Y0247207D01*
X0301927Y0247207D02*
X0288237Y0247207D01*
X0288237Y0246608D02*
X0310154Y0246608D01*
X0310842Y0244750D02*
X0326855Y0260763D01*
X0329443Y0261571D02*
X0329754Y0261571D01*
X0330929Y0261571D02*
X0339390Y0261571D01*
X0343487Y0258578D02*
X0383442Y0258578D01*
X0383442Y0257980D02*
X0343239Y0257980D01*
X0343296Y0257381D02*
X0383442Y0257381D01*
X0383442Y0256783D02*
X0343542Y0256783D01*
X0343542Y0256184D02*
X0383442Y0256184D01*
X0383442Y0255586D02*
X0343489Y0255586D01*
X0343241Y0254987D02*
X0383442Y0254987D01*
X0383442Y0254389D02*
X0342799Y0254389D01*
X0341959Y0253790D02*
X0383442Y0253790D01*
X0383442Y0253192D02*
X0340329Y0253192D01*
X0339731Y0252593D02*
X0383442Y0252593D01*
X0383442Y0251995D02*
X0339132Y0251995D01*
X0338534Y0251396D02*
X0383442Y0251396D01*
X0383442Y0250798D02*
X0337935Y0250798D01*
X0337337Y0250199D02*
X0383442Y0250199D01*
X0383442Y0249601D02*
X0336738Y0249601D01*
X0336140Y0249002D02*
X0383442Y0249002D01*
X0383442Y0248404D02*
X0335541Y0248404D01*
X0334943Y0247805D02*
X0383442Y0247805D01*
X0383442Y0247207D02*
X0334344Y0247207D01*
X0333746Y0246608D02*
X0383442Y0246608D01*
X0383442Y0246010D02*
X0333147Y0246010D01*
X0332548Y0245411D02*
X0383442Y0245411D01*
X0383442Y0244813D02*
X0331950Y0244813D01*
X0331351Y0244214D02*
X0383442Y0244214D01*
X0383442Y0243616D02*
X0330753Y0243616D01*
X0330154Y0243017D02*
X0383442Y0243017D01*
X0383442Y0242419D02*
X0329556Y0242419D01*
X0328957Y0241820D02*
X0383442Y0241820D01*
X0383442Y0241222D02*
X0328359Y0241222D01*
X0327760Y0240623D02*
X0383442Y0240623D01*
X0383442Y0240024D02*
X0327162Y0240024D01*
X0326563Y0239426D02*
X0383442Y0239426D01*
X0383442Y0238827D02*
X0325965Y0238827D01*
X0325366Y0238229D02*
X0383442Y0238229D01*
X0383442Y0237630D02*
X0324768Y0237630D01*
X0324169Y0237032D02*
X0383442Y0237032D01*
X0383442Y0236433D02*
X0266305Y0236433D01*
X0264842Y0238750D02*
X0323342Y0238750D01*
X0340842Y0256250D01*
X0331842Y0254878D02*
X0331842Y0254580D01*
X0318511Y0241250D01*
X0269842Y0241250D01*
X0267142Y0241222D02*
X0265930Y0241222D01*
X0266787Y0240623D02*
X0267179Y0240623D01*
X0269342Y0244750D02*
X0256342Y0257750D01*
X0253820Y0256783D02*
X0220542Y0256783D01*
X0220542Y0256184D02*
X0254089Y0256184D01*
X0254688Y0255586D02*
X0220542Y0255586D01*
X0220542Y0254987D02*
X0256559Y0254987D01*
X0257157Y0254389D02*
X0220406Y0254389D01*
X0220158Y0253790D02*
X0254227Y0253790D01*
X0253628Y0253192D02*
X0219946Y0253192D01*
X0220544Y0252593D02*
X0221867Y0252593D01*
X0221280Y0251995D02*
X0221143Y0251995D01*
X0223577Y0250485D02*
X0236842Y0237220D01*
X0236842Y0212250D01*
X0239369Y0211296D02*
X0271842Y0211296D01*
X0271244Y0210697D02*
X0239108Y0210697D01*
X0238509Y0210099D02*
X0270645Y0210099D01*
X0270047Y0209500D02*
X0218945Y0209500D01*
X0219544Y0208902D02*
X0269448Y0208902D01*
X0268850Y0208303D02*
X0219913Y0208303D01*
X0220161Y0207705D02*
X0268251Y0207705D01*
X0267653Y0207106D02*
X0224537Y0207106D01*
X0225136Y0206508D02*
X0267054Y0206508D01*
X0266456Y0205909D02*
X0225148Y0205909D01*
X0225148Y0205311D02*
X0265857Y0205311D01*
X0265259Y0204712D02*
X0224856Y0204712D01*
X0224258Y0204114D02*
X0264660Y0204114D01*
X0264062Y0203515D02*
X0220045Y0203515D01*
X0219797Y0202917D02*
X0263463Y0202917D01*
X0262865Y0202318D02*
X0219264Y0202318D01*
X0218665Y0201720D02*
X0262266Y0201720D01*
X0261667Y0201121D02*
X0217755Y0201121D01*
X0218649Y0199924D02*
X0212242Y0199924D01*
X0212242Y0199326D02*
X0217004Y0199326D01*
X0215671Y0198840D02*
X0215671Y0198840D01*
X0215536Y0198727D02*
X0212242Y0198727D01*
X0212242Y0198129D02*
X0214823Y0198129D01*
X0214109Y0197530D02*
X0212242Y0197530D01*
X0212242Y0196932D02*
X0213396Y0196932D01*
X0213185Y0196755D02*
X0213185Y0196755D01*
X0213185Y0196755D01*
X0212942Y0196333D02*
X0212242Y0196333D01*
X0212242Y0195735D02*
X0212596Y0195735D01*
X0212251Y0195136D02*
X0212242Y0195136D01*
X0212242Y0200523D02*
X0261069Y0200523D01*
X0260470Y0199924D02*
X0222035Y0199924D01*
X0223679Y0199326D02*
X0259872Y0199326D01*
X0259273Y0198727D02*
X0225148Y0198727D01*
X0225861Y0198129D02*
X0258675Y0198129D01*
X0258076Y0197530D02*
X0226574Y0197530D01*
X0227287Y0196932D02*
X0257478Y0196932D01*
X0256879Y0196333D02*
X0227742Y0196333D01*
X0227498Y0196755D02*
X0227498Y0196755D01*
X0228087Y0195735D02*
X0256281Y0195735D01*
X0255682Y0195136D02*
X0228433Y0195136D01*
X0228778Y0194538D02*
X0255004Y0194538D01*
X0254405Y0193939D02*
X0229121Y0193939D01*
X0229120Y0193945D02*
X0229120Y0193945D01*
X0229227Y0193341D02*
X0254154Y0193341D01*
X0253988Y0192742D02*
X0229332Y0192742D01*
X0229438Y0192144D02*
X0253988Y0192144D01*
X0254121Y0191545D02*
X0229544Y0191545D01*
X0229649Y0190947D02*
X0254369Y0190947D01*
X0254925Y0190348D02*
X0229613Y0190348D01*
X0229684Y0190750D02*
X0229684Y0190750D01*
X0229507Y0189750D02*
X0256040Y0189750D01*
X0256688Y0192404D02*
X0256688Y0193596D01*
X0295342Y0232250D01*
X0285537Y0247015D02*
X0279537Y0253015D01*
X0264705Y0253015D01*
X0259970Y0257750D01*
X0259921Y0257750D01*
X0260642Y0260374D02*
X0261121Y0260374D01*
X0261121Y0260972D02*
X0217396Y0260972D01*
X0217767Y0260374D02*
X0255621Y0260374D01*
X0254549Y0259775D02*
X0218670Y0259775D01*
X0219269Y0259177D02*
X0254010Y0259177D01*
X0253762Y0258578D02*
X0219799Y0258578D01*
X0220047Y0257980D02*
X0253642Y0257980D01*
X0253642Y0257381D02*
X0220295Y0257381D01*
X0218517Y0261571D02*
X0261121Y0261571D01*
X0261121Y0262169D02*
X0219115Y0262169D01*
X0219714Y0262768D02*
X0261121Y0262768D01*
X0261121Y0263366D02*
X0219983Y0263366D01*
X0220231Y0263965D02*
X0261121Y0263965D01*
X0261121Y0264563D02*
X0220479Y0264563D01*
X0220542Y0265162D02*
X0261208Y0265162D01*
X0261807Y0265760D02*
X0220542Y0265760D01*
X0220542Y0266359D02*
X0262405Y0266359D01*
X0263004Y0266958D02*
X0220470Y0266958D01*
X0220222Y0267556D02*
X0263602Y0267556D01*
X0264201Y0268155D02*
X0219974Y0268155D01*
X0219693Y0268753D02*
X0264799Y0268753D01*
X0265398Y0269352D02*
X0219094Y0269352D01*
X0218496Y0269950D02*
X0265996Y0269950D01*
X0266595Y0270549D02*
X0217345Y0270549D01*
X0217818Y0271147D02*
X0267193Y0271147D01*
X0267792Y0271746D02*
X0218691Y0271746D01*
X0219290Y0272344D02*
X0268390Y0272344D01*
X0268989Y0272943D02*
X0219807Y0272943D01*
X0220055Y0273541D02*
X0269587Y0273541D01*
X0270186Y0274140D02*
X0220303Y0274140D01*
X0220542Y0274738D02*
X0270784Y0274738D01*
X0271210Y0275337D02*
X0220542Y0275337D01*
X0220542Y0275935D02*
X0270611Y0275935D01*
X0270013Y0276534D02*
X0220542Y0276534D01*
X0220398Y0277132D02*
X0269414Y0277132D01*
X0267868Y0277731D02*
X0220150Y0277731D01*
X0219902Y0278329D02*
X0266944Y0278329D01*
X0266467Y0278928D02*
X0219518Y0278928D01*
X0218919Y0279526D02*
X0266219Y0279526D01*
X0266142Y0280125D02*
X0218321Y0280125D01*
X0218239Y0281322D02*
X0266363Y0281322D01*
X0266142Y0280723D02*
X0216924Y0280723D01*
X0218866Y0281920D02*
X0266694Y0281920D01*
X0267292Y0282519D02*
X0219465Y0282519D01*
X0219880Y0283117D02*
X0284329Y0283117D01*
X0284329Y0282519D02*
X0270391Y0282519D01*
X0270990Y0281920D02*
X0284329Y0281920D01*
X0284329Y0281322D02*
X0271320Y0281322D01*
X0271542Y0280723D02*
X0284329Y0280723D01*
X0284329Y0280125D02*
X0271542Y0280125D01*
X0272111Y0279526D02*
X0284329Y0279526D01*
X0284329Y0278928D02*
X0272710Y0278928D01*
X0273308Y0278329D02*
X0284329Y0278329D01*
X0284329Y0277731D02*
X0273907Y0277731D01*
X0274505Y0277132D02*
X0284329Y0277132D01*
X0284329Y0276534D02*
X0275104Y0276534D01*
X0275702Y0275935D02*
X0284329Y0275935D01*
X0284329Y0275337D02*
X0276301Y0275337D01*
X0276899Y0274738D02*
X0284329Y0274738D01*
X0284329Y0274140D02*
X0277498Y0274140D01*
X0278096Y0273541D02*
X0284329Y0273541D01*
X0284329Y0272943D02*
X0278695Y0272943D01*
X0279293Y0272344D02*
X0284329Y0272344D01*
X0284329Y0271746D02*
X0279506Y0271746D01*
X0279506Y0271147D02*
X0284329Y0271147D01*
X0284329Y0270549D02*
X0279506Y0270549D01*
X0279506Y0269950D02*
X0284329Y0269950D01*
X0284329Y0269352D02*
X0279506Y0269352D01*
X0279506Y0268753D02*
X0284329Y0268753D01*
X0284329Y0268155D02*
X0279506Y0268155D01*
X0279506Y0267556D02*
X0284329Y0267556D01*
X0284329Y0266958D02*
X0279506Y0266958D01*
X0279506Y0266359D02*
X0284329Y0266359D01*
X0284329Y0265760D02*
X0279506Y0265760D01*
X0279506Y0265162D02*
X0284329Y0265162D01*
X0284329Y0264563D02*
X0279506Y0264563D01*
X0279506Y0263965D02*
X0284329Y0263965D01*
X0284329Y0263366D02*
X0279506Y0263366D01*
X0279506Y0262768D02*
X0284329Y0262768D01*
X0284329Y0262169D02*
X0279506Y0262169D01*
X0279506Y0261571D02*
X0284329Y0261571D01*
X0284329Y0260972D02*
X0279506Y0260972D01*
X0279506Y0260374D02*
X0284329Y0260374D01*
X0284329Y0259775D02*
X0279506Y0259775D01*
X0279506Y0259177D02*
X0284329Y0259177D01*
X0284329Y0258578D02*
X0279506Y0258578D01*
X0279506Y0257980D02*
X0284329Y0257980D01*
X0284329Y0257381D02*
X0279506Y0257381D01*
X0279856Y0256783D02*
X0284329Y0256783D01*
X0284329Y0256184D02*
X0280186Y0256184D01*
X0280406Y0255586D02*
X0284329Y0255586D01*
X0284329Y0254987D02*
X0280406Y0254987D01*
X0280708Y0254389D02*
X0284329Y0254389D01*
X0284329Y0253790D02*
X0281306Y0253790D01*
X0281905Y0253192D02*
X0284329Y0253192D01*
X0284329Y0252593D02*
X0282503Y0252593D01*
X0283102Y0251995D02*
X0284329Y0251995D01*
X0284329Y0251396D02*
X0283700Y0251396D01*
X0284299Y0250798D02*
X0284329Y0250798D01*
X0287929Y0250798D02*
X0298976Y0250798D01*
X0298480Y0251396D02*
X0287929Y0251396D01*
X0287929Y0251995D02*
X0298232Y0251995D01*
X0298142Y0252593D02*
X0287929Y0252593D01*
X0287929Y0253192D02*
X0298142Y0253192D01*
X0298350Y0253790D02*
X0287929Y0253790D01*
X0287929Y0254389D02*
X0298662Y0254389D01*
X0299042Y0254987D02*
X0287929Y0254987D01*
X0287929Y0255586D02*
X0299042Y0255586D01*
X0299042Y0256184D02*
X0287929Y0256184D01*
X0287929Y0256783D02*
X0299042Y0256783D01*
X0299042Y0257381D02*
X0287929Y0257381D01*
X0287929Y0257980D02*
X0299042Y0257980D01*
X0299042Y0258578D02*
X0287929Y0258578D01*
X0287929Y0259177D02*
X0299042Y0259177D01*
X0299042Y0259775D02*
X0287929Y0259775D01*
X0287929Y0260374D02*
X0299042Y0260374D01*
X0299042Y0260972D02*
X0287929Y0260972D01*
X0287929Y0261571D02*
X0299042Y0261571D01*
X0298877Y0262169D02*
X0287929Y0262169D01*
X0287929Y0262768D02*
X0298278Y0262768D01*
X0296541Y0263366D02*
X0287929Y0263366D01*
X0287929Y0263965D02*
X0295808Y0263965D01*
X0295411Y0264563D02*
X0287929Y0264563D01*
X0287929Y0265162D02*
X0295163Y0265162D01*
X0295142Y0265760D02*
X0287929Y0265760D01*
X0287929Y0266359D02*
X0295172Y0266359D01*
X0295420Y0266958D02*
X0287929Y0266958D01*
X0287929Y0267556D02*
X0295829Y0267556D01*
X0296591Y0268155D02*
X0287929Y0268155D01*
X0287929Y0268753D02*
X0308793Y0268753D01*
X0308195Y0269352D02*
X0287929Y0269352D01*
X0287929Y0269950D02*
X0307596Y0269950D01*
X0306998Y0270549D02*
X0287929Y0270549D01*
X0287929Y0271147D02*
X0306399Y0271147D01*
X0305801Y0271746D02*
X0287929Y0271746D01*
X0287929Y0272344D02*
X0305202Y0272344D01*
X0304604Y0272943D02*
X0287929Y0272943D01*
X0287929Y0273541D02*
X0304005Y0273541D01*
X0303407Y0274140D02*
X0287929Y0274140D01*
X0287929Y0274738D02*
X0302808Y0274738D01*
X0302210Y0275337D02*
X0287929Y0275337D01*
X0287929Y0275935D02*
X0301611Y0275935D01*
X0301013Y0276534D02*
X0287929Y0276534D01*
X0287929Y0277132D02*
X0300414Y0277132D01*
X0299816Y0277731D02*
X0287929Y0277731D01*
X0287929Y0278329D02*
X0299217Y0278329D01*
X0298618Y0278928D02*
X0287929Y0278928D01*
X0287929Y0279526D02*
X0298020Y0279526D01*
X0297421Y0280125D02*
X0287929Y0280125D01*
X0287929Y0280723D02*
X0296823Y0280723D01*
X0296224Y0281322D02*
X0287929Y0281322D01*
X0287929Y0281920D02*
X0295626Y0281920D01*
X0295027Y0282519D02*
X0287929Y0282519D01*
X0287929Y0283117D02*
X0294429Y0283117D01*
X0293830Y0283716D02*
X0287929Y0283716D01*
X0288457Y0284314D02*
X0293232Y0284314D01*
X0292633Y0284913D02*
X0288705Y0284913D01*
X0288829Y0285511D02*
X0292035Y0285511D01*
X0291436Y0286110D02*
X0288829Y0286110D01*
X0288655Y0286708D02*
X0290838Y0286708D01*
X0290239Y0287307D02*
X0288391Y0287307D01*
X0287792Y0287905D02*
X0289641Y0287905D01*
X0289042Y0288504D02*
X0219830Y0288504D01*
X0220077Y0287905D02*
X0284466Y0287905D01*
X0283868Y0287307D02*
X0220325Y0287307D01*
X0220542Y0286708D02*
X0283604Y0286708D01*
X0283429Y0286110D02*
X0220542Y0286110D01*
X0220542Y0285511D02*
X0283429Y0285511D01*
X0283554Y0284913D02*
X0220542Y0284913D01*
X0220376Y0284314D02*
X0283801Y0284314D01*
X0284329Y0283716D02*
X0220128Y0283716D01*
X0219343Y0289102D02*
X0288444Y0289102D01*
X0287845Y0289701D02*
X0218745Y0289701D01*
X0217947Y0290299D02*
X0287247Y0290299D01*
X0286648Y0290898D02*
X0217216Y0290898D01*
X0218442Y0291496D02*
X0286050Y0291496D01*
X0285451Y0292095D02*
X0219041Y0292095D01*
X0219639Y0292693D02*
X0284853Y0292693D01*
X0284254Y0293292D02*
X0219952Y0293292D01*
X0220200Y0293891D02*
X0283656Y0293891D01*
X0283057Y0294489D02*
X0220448Y0294489D01*
X0220542Y0295088D02*
X0282459Y0295088D01*
X0281860Y0295686D02*
X0220542Y0295686D01*
X0220542Y0296285D02*
X0281262Y0296285D01*
X0280663Y0296883D02*
X0220501Y0296883D01*
X0220253Y0297482D02*
X0280065Y0297482D01*
X0279466Y0298080D02*
X0220005Y0298080D01*
X0219757Y0298679D02*
X0278868Y0298679D01*
X0278269Y0299277D02*
X0219169Y0299277D01*
X0218570Y0299876D02*
X0277671Y0299876D01*
X0277072Y0300474D02*
X0217525Y0300474D01*
X0217638Y0301073D02*
X0276474Y0301073D01*
X0275875Y0301671D02*
X0218617Y0301671D01*
X0219215Y0302270D02*
X0275277Y0302270D01*
X0274678Y0302868D02*
X0219777Y0302868D01*
X0220024Y0303467D02*
X0274080Y0303467D01*
X0274342Y0305750D02*
X0215342Y0305750D01*
X0218994Y0309452D02*
X0383442Y0309452D01*
X0383442Y0310050D02*
X0218395Y0310050D01*
X0217103Y0310649D02*
X0383442Y0310649D01*
X0383442Y0311247D02*
X0212242Y0311247D01*
X0212242Y0310649D02*
X0213580Y0310649D01*
X0212288Y0310050D02*
X0212242Y0310050D01*
X0212242Y0311846D02*
X0217907Y0311846D01*
X0216262Y0312444D02*
X0212242Y0312444D01*
X0212242Y0313043D02*
X0215214Y0313043D01*
X0215671Y0312660D02*
X0215671Y0312660D01*
X0214501Y0313641D02*
X0212242Y0313641D01*
X0212242Y0314240D02*
X0213788Y0314240D01*
X0213185Y0314745D02*
X0213185Y0314745D01*
X0213132Y0314838D02*
X0212242Y0314838D01*
X0212242Y0315437D02*
X0212786Y0315437D01*
X0212441Y0316035D02*
X0212242Y0316035D01*
X0219592Y0308853D02*
X0383442Y0308853D01*
X0383442Y0308255D02*
X0219933Y0308255D01*
X0220181Y0307656D02*
X0383442Y0307656D01*
X0383442Y0307058D02*
X0275580Y0307058D01*
X0276178Y0306459D02*
X0383442Y0306459D01*
X0383442Y0305861D02*
X0276777Y0305861D01*
X0277375Y0305262D02*
X0383442Y0305262D01*
X0383442Y0304664D02*
X0277974Y0304664D01*
X0278572Y0304065D02*
X0383442Y0304065D01*
X0383442Y0303467D02*
X0279171Y0303467D01*
X0279769Y0302868D02*
X0383442Y0302868D01*
X0383442Y0302270D02*
X0280368Y0302270D01*
X0280966Y0301671D02*
X0383442Y0301671D01*
X0383442Y0301073D02*
X0281565Y0301073D01*
X0282163Y0300474D02*
X0383442Y0300474D01*
X0383442Y0299876D02*
X0282762Y0299876D01*
X0283360Y0299277D02*
X0383442Y0299277D01*
X0383442Y0298679D02*
X0283959Y0298679D01*
X0284557Y0298080D02*
X0383442Y0298080D01*
X0383442Y0297482D02*
X0285156Y0297482D01*
X0285754Y0296883D02*
X0383442Y0296883D01*
X0383442Y0296285D02*
X0286353Y0296285D01*
X0286951Y0295686D02*
X0383442Y0295686D01*
X0383442Y0295088D02*
X0287550Y0295088D01*
X0288148Y0294489D02*
X0383442Y0294489D01*
X0383442Y0293891D02*
X0288747Y0293891D01*
X0289345Y0293292D02*
X0383442Y0293292D01*
X0383442Y0292693D02*
X0289944Y0292693D01*
X0290542Y0292095D02*
X0383442Y0292095D01*
X0383442Y0291496D02*
X0291141Y0291496D01*
X0291739Y0290898D02*
X0383442Y0290898D01*
X0383442Y0290299D02*
X0292338Y0290299D01*
X0292936Y0289701D02*
X0383442Y0289701D01*
X0383442Y0289102D02*
X0293535Y0289102D01*
X0294133Y0288504D02*
X0383442Y0288504D01*
X0383442Y0287905D02*
X0294732Y0287905D01*
X0295330Y0287307D02*
X0383442Y0287307D01*
X0383442Y0286708D02*
X0295929Y0286708D01*
X0296528Y0286110D02*
X0383442Y0286110D01*
X0383442Y0285511D02*
X0297126Y0285511D01*
X0297725Y0284913D02*
X0383442Y0284913D01*
X0383442Y0284314D02*
X0298323Y0284314D01*
X0298922Y0283716D02*
X0383442Y0283716D01*
X0383442Y0283117D02*
X0299520Y0283117D01*
X0300119Y0282519D02*
X0383442Y0282519D01*
X0383442Y0281920D02*
X0300717Y0281920D01*
X0301316Y0281322D02*
X0383442Y0281322D01*
X0383442Y0280723D02*
X0301914Y0280723D01*
X0302513Y0280125D02*
X0383442Y0280125D01*
X0383442Y0279526D02*
X0334248Y0279526D01*
X0334846Y0278928D02*
X0383442Y0278928D01*
X0383442Y0278329D02*
X0335445Y0278329D01*
X0336044Y0277731D02*
X0383442Y0277731D01*
X0383442Y0277132D02*
X0336642Y0277132D01*
X0337241Y0276534D02*
X0383442Y0276534D01*
X0383442Y0275935D02*
X0342975Y0275935D01*
X0343573Y0275337D02*
X0383442Y0275337D01*
X0383442Y0274738D02*
X0343855Y0274738D01*
X0344042Y0274140D02*
X0383442Y0274140D01*
X0383442Y0273541D02*
X0344042Y0273541D01*
X0343930Y0272943D02*
X0383442Y0272943D01*
X0383442Y0272344D02*
X0343682Y0272344D01*
X0343156Y0271746D02*
X0383442Y0271746D01*
X0383442Y0271147D02*
X0342113Y0271147D01*
X0341342Y0273750D02*
X0337479Y0273750D01*
X0333295Y0277933D01*
X0319525Y0277933D01*
X0312342Y0270750D01*
X0309872Y0270250D02*
X0311857Y0268265D01*
X0326327Y0268265D01*
X0325687Y0266359D02*
X0308012Y0266359D01*
X0308042Y0265760D02*
X0326286Y0265760D01*
X0326884Y0265162D02*
X0308021Y0265162D01*
X0307773Y0264563D02*
X0327483Y0264563D01*
X0331842Y0254878D02*
X0331842Y0254378D01*
X0310842Y0244750D02*
X0269342Y0244750D01*
X0264842Y0245750D02*
X0261679Y0245750D01*
X0255842Y0251587D01*
X0258347Y0252593D02*
X0258953Y0252593D01*
X0258542Y0251995D02*
X0259551Y0251995D01*
X0260150Y0251396D02*
X0258578Y0251396D01*
X0259177Y0250798D02*
X0260749Y0250798D01*
X0261347Y0250199D02*
X0259775Y0250199D01*
X0260374Y0249601D02*
X0261946Y0249601D01*
X0262544Y0249002D02*
X0260972Y0249002D01*
X0261571Y0248404D02*
X0263143Y0248404D01*
X0263079Y0247805D02*
X0262169Y0247805D01*
X0258354Y0253192D02*
X0258055Y0253192D01*
X0257756Y0253790D02*
X0257457Y0253790D01*
X0253336Y0252593D02*
X0225287Y0252593D01*
X0225874Y0251995D02*
X0250768Y0251995D01*
X0250170Y0251396D02*
X0226122Y0251396D01*
X0226277Y0250798D02*
X0249853Y0250798D01*
X0249642Y0250199D02*
X0226408Y0250199D01*
X0227007Y0249601D02*
X0249642Y0249601D01*
X0249729Y0249002D02*
X0227605Y0249002D01*
X0228204Y0248404D02*
X0249977Y0248404D01*
X0250468Y0247805D02*
X0228802Y0247805D01*
X0229401Y0247207D02*
X0250542Y0247207D01*
X0250542Y0246608D02*
X0229999Y0246608D01*
X0230598Y0246010D02*
X0250542Y0246010D01*
X0250542Y0245411D02*
X0231196Y0245411D01*
X0231795Y0244813D02*
X0250542Y0244813D01*
X0250542Y0244214D02*
X0232393Y0244214D01*
X0232992Y0243616D02*
X0250542Y0243616D01*
X0250542Y0243017D02*
X0233590Y0243017D01*
X0234189Y0242419D02*
X0250542Y0242419D01*
X0250542Y0241820D02*
X0234787Y0241820D01*
X0235386Y0241222D02*
X0250542Y0241222D01*
X0250542Y0240623D02*
X0235984Y0240623D01*
X0236583Y0240024D02*
X0250542Y0240024D01*
X0250542Y0239426D02*
X0237181Y0239426D01*
X0237780Y0238827D02*
X0250542Y0238827D01*
X0250542Y0238229D02*
X0238378Y0238229D01*
X0238642Y0237630D02*
X0250542Y0237630D01*
X0251014Y0237032D02*
X0238642Y0237032D01*
X0238642Y0236433D02*
X0251613Y0236433D01*
X0252211Y0235835D02*
X0238642Y0235835D01*
X0238642Y0235236D02*
X0252810Y0235236D01*
X0253142Y0234638D02*
X0238642Y0234638D01*
X0238642Y0234039D02*
X0253214Y0234039D01*
X0253462Y0233441D02*
X0238642Y0233441D01*
X0238642Y0232842D02*
X0253931Y0232842D01*
X0254837Y0232244D02*
X0238642Y0232244D01*
X0238642Y0231645D02*
X0262501Y0231645D01*
X0263099Y0231047D02*
X0238642Y0231047D01*
X0238642Y0230448D02*
X0263698Y0230448D01*
X0264296Y0229850D02*
X0238642Y0229850D01*
X0238642Y0229251D02*
X0264895Y0229251D01*
X0265493Y0228653D02*
X0238642Y0228653D01*
X0238642Y0228054D02*
X0266092Y0228054D01*
X0266690Y0227456D02*
X0238642Y0227456D01*
X0238642Y0226857D02*
X0267289Y0226857D01*
X0267887Y0226259D02*
X0238642Y0226259D01*
X0238642Y0225660D02*
X0268486Y0225660D01*
X0269084Y0225062D02*
X0238642Y0225062D01*
X0238642Y0224463D02*
X0269683Y0224463D01*
X0270282Y0223865D02*
X0238642Y0223865D01*
X0238642Y0223266D02*
X0270880Y0223266D01*
X0271479Y0222668D02*
X0238642Y0222668D01*
X0238642Y0222069D02*
X0272077Y0222069D01*
X0272676Y0221471D02*
X0238642Y0221471D01*
X0238642Y0220872D02*
X0273274Y0220872D01*
X0273873Y0220274D02*
X0238642Y0220274D01*
X0238642Y0219675D02*
X0274471Y0219675D01*
X0274742Y0219077D02*
X0238642Y0219077D01*
X0238642Y0218478D02*
X0274839Y0218478D01*
X0275087Y0217880D02*
X0238642Y0217880D01*
X0238642Y0217281D02*
X0275592Y0217281D01*
X0276585Y0216683D02*
X0238642Y0216683D01*
X0238642Y0216084D02*
X0276630Y0216084D01*
X0276032Y0215486D02*
X0238642Y0215486D01*
X0238642Y0214887D02*
X0275433Y0214887D01*
X0274835Y0214289D02*
X0238642Y0214289D01*
X0239168Y0213690D02*
X0274236Y0213690D01*
X0273638Y0213091D02*
X0239416Y0213091D01*
X0239542Y0212493D02*
X0273039Y0212493D01*
X0272441Y0211894D02*
X0239542Y0211894D01*
X0235174Y0210099D02*
X0218347Y0210099D01*
X0217614Y0211296D02*
X0234315Y0211296D01*
X0234142Y0211894D02*
X0218542Y0211894D01*
X0219156Y0212493D02*
X0219618Y0213129D01*
X0219975Y0213831D01*
X0220219Y0214579D01*
X0220342Y0215356D01*
X0220342Y0215450D01*
X0215642Y0215450D01*
X0215642Y0216050D01*
X0220342Y0216050D01*
X0220342Y0216144D01*
X0220219Y0216921D01*
X0219975Y0217669D01*
X0219618Y0218371D01*
X0219156Y0219007D01*
X0218599Y0219564D01*
X0217962Y0220026D01*
X0217261Y0220384D01*
X0216540Y0220618D01*
X0218287Y0221342D01*
X0219750Y0222804D01*
X0220542Y0224716D01*
X0220542Y0226784D01*
X0219750Y0228696D01*
X0218287Y0230158D01*
X0216859Y0230750D01*
X0217522Y0231025D01*
X0226596Y0221950D01*
X0231823Y0221950D01*
X0232312Y0221461D01*
X0233305Y0221050D01*
X0234379Y0221050D01*
X0235042Y0221325D01*
X0235042Y0214268D01*
X0234553Y0213779D01*
X0234142Y0212787D01*
X0234268Y0213091D02*
X0219591Y0213091D01*
X0219904Y0213690D02*
X0234516Y0213690D01*
X0235042Y0214289D02*
X0220124Y0214289D01*
X0220267Y0214887D02*
X0235042Y0214887D01*
X0235042Y0215486D02*
X0215642Y0215486D01*
X0220342Y0216084D02*
X0235042Y0216084D01*
X0235042Y0216683D02*
X0220256Y0216683D01*
X0220102Y0217281D02*
X0235042Y0217281D01*
X0235042Y0217880D02*
X0219868Y0217880D01*
X0219540Y0218478D02*
X0235042Y0218478D01*
X0235042Y0219077D02*
X0219086Y0219077D01*
X0218446Y0219675D02*
X0235042Y0219675D01*
X0235042Y0220274D02*
X0217477Y0220274D01*
X0217154Y0220872D02*
X0235042Y0220872D01*
X0232303Y0221471D02*
X0218416Y0221471D01*
X0219015Y0222069D02*
X0226477Y0222069D01*
X0225879Y0222668D02*
X0219613Y0222668D01*
X0219941Y0223266D02*
X0225280Y0223266D01*
X0224682Y0223865D02*
X0220189Y0223865D01*
X0220437Y0224463D02*
X0224083Y0224463D01*
X0223484Y0225062D02*
X0220542Y0225062D01*
X0220542Y0225660D02*
X0222886Y0225660D01*
X0222287Y0226259D02*
X0220542Y0226259D01*
X0220512Y0226857D02*
X0221689Y0226857D01*
X0221090Y0227456D02*
X0220264Y0227456D01*
X0220492Y0228054D02*
X0220016Y0228054D01*
X0219893Y0228653D02*
X0219768Y0228653D01*
X0219295Y0229251D02*
X0219194Y0229251D01*
X0218696Y0229850D02*
X0218596Y0229850D01*
X0218098Y0230448D02*
X0217587Y0230448D01*
X0215342Y0235750D02*
X0227342Y0223750D01*
X0233842Y0223750D01*
X0233842Y0229750D02*
X0217842Y0245750D01*
X0215342Y0245750D01*
X0215342Y0255250D02*
X0215342Y0255750D01*
X0215342Y0255250D02*
X0233842Y0236750D01*
X0258842Y0242138D02*
X0260054Y0243350D01*
X0261607Y0237630D02*
X0262383Y0237630D01*
X0262205Y0237032D02*
X0262741Y0237032D01*
X0262804Y0236433D02*
X0263379Y0236433D01*
X0263402Y0235835D02*
X0383442Y0235835D01*
X0339709Y0275935D02*
X0337839Y0275935D01*
X0318572Y0279526D02*
X0303111Y0279526D01*
X0303710Y0278928D02*
X0317974Y0278928D01*
X0317375Y0278329D02*
X0304308Y0278329D01*
X0304907Y0277731D02*
X0316777Y0277731D01*
X0316178Y0277132D02*
X0305505Y0277132D01*
X0306104Y0276534D02*
X0315580Y0276534D01*
X0314981Y0275935D02*
X0306702Y0275935D01*
X0307301Y0275337D02*
X0314383Y0275337D01*
X0313784Y0274738D02*
X0307899Y0274738D01*
X0308498Y0274140D02*
X0313186Y0274140D01*
X0312587Y0273541D02*
X0309096Y0273541D01*
X0309695Y0272943D02*
X0310716Y0272943D01*
X0309872Y0270250D02*
X0309842Y0270250D01*
X0274342Y0305750D01*
X0286129Y0285750D02*
X0286129Y0247607D01*
X0285537Y0247015D01*
X0288131Y0247805D02*
X0300968Y0247805D01*
X0300477Y0248404D02*
X0287929Y0248404D01*
X0287929Y0249002D02*
X0300229Y0249002D01*
X0300142Y0249601D02*
X0287929Y0249601D01*
X0287929Y0250199D02*
X0299945Y0250199D01*
X0300842Y0252750D02*
X0300842Y0262750D01*
X0297842Y0265750D01*
X0300542Y0265760D02*
X0302642Y0265760D01*
X0302663Y0265162D02*
X0300975Y0265162D01*
X0301574Y0264563D02*
X0302911Y0264563D01*
X0303308Y0263965D02*
X0302172Y0263965D01*
X0302642Y0263366D02*
X0303542Y0263366D01*
X0303542Y0262768D02*
X0302642Y0262768D01*
X0302642Y0262169D02*
X0303542Y0262169D01*
X0303542Y0261571D02*
X0302642Y0261571D01*
X0302642Y0260972D02*
X0303542Y0260972D01*
X0303542Y0260374D02*
X0302642Y0260374D01*
X0302642Y0259775D02*
X0303542Y0259775D01*
X0303542Y0259177D02*
X0302642Y0259177D01*
X0302642Y0258578D02*
X0303542Y0258578D01*
X0303542Y0257980D02*
X0302642Y0257980D01*
X0302642Y0257381D02*
X0303542Y0257381D01*
X0303542Y0256783D02*
X0302642Y0256783D01*
X0302642Y0256184D02*
X0303542Y0256184D01*
X0303542Y0255586D02*
X0302642Y0255586D01*
X0302642Y0254987D02*
X0303542Y0254987D01*
X0303542Y0254389D02*
X0303021Y0254389D01*
X0303333Y0253790D02*
X0303542Y0253790D01*
X0303542Y0253192D02*
X0303542Y0253192D01*
X0305342Y0252250D02*
X0305342Y0265750D01*
X0307354Y0267556D02*
X0310020Y0267556D01*
X0309422Y0268155D02*
X0306592Y0268155D01*
X0307764Y0266958D02*
X0310619Y0266958D01*
X0304091Y0268155D02*
X0299092Y0268155D01*
X0299854Y0267556D02*
X0303329Y0267556D01*
X0302920Y0266958D02*
X0300264Y0266958D01*
X0300512Y0266359D02*
X0302672Y0266359D01*
X0305342Y0252250D02*
X0302842Y0249750D01*
X0277706Y0255115D02*
X0277706Y0271385D01*
X0273842Y0275250D01*
X0262921Y0264329D01*
X0262921Y0257769D01*
X0259200Y0260374D02*
X0257063Y0260374D01*
X0273842Y0275250D02*
X0268842Y0280250D01*
X0286037Y0285657D02*
X0286129Y0285750D01*
X0229591Y0320225D02*
X0383442Y0320225D01*
X0383442Y0319627D02*
X0229486Y0319627D01*
X0229380Y0319028D02*
X0383442Y0319028D01*
X0383442Y0318429D02*
X0229275Y0318429D01*
X0229169Y0317831D02*
X0383442Y0317831D01*
X0383442Y0317232D02*
X0228934Y0317232D01*
X0228589Y0316634D02*
X0383442Y0316634D01*
X0383442Y0316035D02*
X0228243Y0316035D01*
X0227898Y0315437D02*
X0383442Y0315437D01*
X0383442Y0314838D02*
X0227552Y0314838D01*
X0226896Y0314240D02*
X0383442Y0314240D01*
X0383442Y0313641D02*
X0226183Y0313641D01*
X0225469Y0313043D02*
X0383442Y0313043D01*
X0383442Y0312444D02*
X0224421Y0312444D01*
X0225013Y0312660D02*
X0225013Y0312660D01*
X0222777Y0311846D02*
X0383442Y0311846D01*
X0383442Y0320824D02*
X0229671Y0320824D01*
X0229565Y0321422D02*
X0383442Y0321422D01*
X0383442Y0322021D02*
X0229460Y0322021D01*
X0229354Y0322619D02*
X0383442Y0322619D01*
X0383442Y0323218D02*
X0229249Y0323218D01*
X0229143Y0323816D02*
X0383442Y0323816D01*
X0383442Y0324415D02*
X0228849Y0324415D01*
X0228504Y0325013D02*
X0383442Y0325013D01*
X0383442Y0325612D02*
X0228158Y0325612D01*
X0227813Y0326210D02*
X0383442Y0326210D01*
X0383442Y0326809D02*
X0227434Y0326809D01*
X0227498Y0326755D02*
X0227498Y0326755D01*
X0226721Y0327407D02*
X0383442Y0327407D01*
X0383442Y0328006D02*
X0226007Y0328006D01*
X0225294Y0328604D02*
X0383442Y0328604D01*
X0234576Y0210697D02*
X0216986Y0210697D01*
X0215342Y0205750D02*
X0223348Y0205750D01*
X0212928Y0201121D02*
X0212242Y0201121D01*
X0162687Y0123913D02*
X0160861Y0123913D01*
X0158164Y0121519D02*
X0156725Y0121519D01*
X0156725Y0120921D02*
X0158762Y0120921D01*
X0159361Y0120322D02*
X0156725Y0120322D01*
X0157028Y0122118D02*
X0157565Y0122118D01*
X0154925Y0123833D02*
X0154925Y0119833D01*
X0152342Y0117250D01*
X0154842Y0102878D02*
X0154842Y0102378D01*
X0096842Y0123250D02*
X0091842Y0128250D01*
X0079688Y0041596D02*
X0079688Y0040404D01*
X0215342Y0053750D02*
X0223348Y0053750D01*
X0225013Y0030660D02*
X0225013Y0030660D01*
M02*
