G75*
%MOIN*%
%OFA0B0*%
%FSLAX25Y25*%
%IPPOS*%
%LPD*%
%AMOC8*
5,1,8,0,0,1.08239X$1,22.5*
%
%ADD10C,0.03300*%
%ADD11C,0.13800*%
%ADD12C,0.08200*%
D10*
X0205842Y0031250D03*
X0382842Y0031250D03*
X0212842Y0176250D03*
X0205842Y0183250D03*
X0035842Y0176250D03*
X0035842Y0328250D03*
X0212842Y0328250D03*
X0382842Y0183250D03*
D11*
X0043342Y0038750D03*
X0043342Y0168750D03*
X0043342Y0190750D03*
X0043342Y0320750D03*
X0220342Y0320750D03*
X0220342Y0190750D03*
X0220342Y0168750D03*
X0220342Y0038750D03*
D12*
X0215342Y0053750D03*
X0215342Y0063750D03*
X0215342Y0073750D03*
X0215342Y0083750D03*
X0215342Y0093750D03*
X0215342Y0103750D03*
X0215342Y0113750D03*
X0215342Y0123750D03*
X0215342Y0133750D03*
X0215342Y0143750D03*
X0215342Y0153750D03*
X0215342Y0205750D03*
X0215342Y0215750D03*
X0215342Y0225750D03*
X0215342Y0235750D03*
X0215342Y0245750D03*
X0215342Y0255750D03*
X0215342Y0265750D03*
X0215342Y0275750D03*
X0215342Y0285750D03*
X0215342Y0295750D03*
X0215342Y0305750D03*
X0038342Y0305750D03*
X0038342Y0295750D03*
X0038342Y0285750D03*
X0038342Y0275750D03*
X0038342Y0265750D03*
X0038342Y0255750D03*
X0038342Y0245750D03*
X0038342Y0235750D03*
X0038342Y0225750D03*
X0038342Y0215750D03*
X0038342Y0205750D03*
X0038342Y0153750D03*
X0038342Y0143750D03*
X0038342Y0133750D03*
X0038342Y0123750D03*
X0038342Y0113750D03*
X0038342Y0103750D03*
X0038342Y0093750D03*
X0038342Y0083750D03*
X0038342Y0073750D03*
X0038342Y0063750D03*
X0038342Y0053750D03*
M02*
